<svg version="1.1" xmlns="http://www.w3.org/2000/svg" xmlns:xlink="http://www.w3.org/1999/xlink" width="75.16957" height="34.64536" viewBox="0,0,75.16957,34.64536"><g transform="translate(-202.40514,-162.67732)"><g data-paper-data="{&quot;isPaintingLayer&quot;:true}" fill-rule="nonzero" stroke-linejoin="miter" stroke-miterlimit="10" stroke-dasharray="" stroke-dashoffset="0" style="mix-blend-mode: normal"><text transform="translate(265.0376,180.42845) rotate(-180) scale(0.10369,0.10369)" font-size="40" xml:space="preserve" fill="#000000" fill-rule="nonzero" stroke="none" stroke-width="1" stroke-linecap="butt" stroke-linejoin="miter" stroke-miterlimit="10" stroke-dasharray="" stroke-dashoffset="0" font-family="Pixel" font-weight="normal" text-anchor="start" style="mix-blend-mode: normal"><tspan x="0" dy="0">made by @itsadiesel</tspan></text><path d="M276.81443,182.3413l-0.1311,2.09758l-0.39501,4.78947l-0.24688,2.4688l-0.22219,2.09848l-0.04938,0.22219l-0.14813,0.17282l-0.29626,0.1975l-0.64189,0.24688l-1.03689,0.1975l-4.5179,0.46907l-0.37032,0.1975l-0.49376,0.34563l-0.51845,0.1975l-0.44438,0.07407l-1.48128,0.04938h-9.03579l-0.39501,-0.07407l-0.29626,-0.12344l-0.4197,-0.32094l-0.24688,-0.14813l-0.4197,-0.07407c0,0 -17.04683,0.19849 -23.18202,0.21673c-4.06764,0.01209 -10.04798,-0.11797 -10.04798,-0.11797l-0.59251,0.56782l-0.32094,0.14813l-0.29626,0.02469h-2.61692l-6.12262,-0.14813l-2.96256,-0.1975l-2.34536,-0.29626l-1.53065,-0.14813l-0.74064,-0.14813l-0.44438,-0.29626l-0.1975,-0.27157l-0.1975,-0.69126l-0.17282,-1.16033l-0.07406,-1.80222v-8.35856l-0.00741,-4.45927v-9.39141l0.07406,-1.80222l0.17282,-1.16033l0.1975,-0.69126l0.1975,-0.27157l0.44438,-0.29626l0.74064,-0.14813l1.53065,-0.14813l2.34536,-0.29626l2.96256,-0.1975l6.12262,-0.14813h2.61692l0.29626,0.02469l0.32094,0.14813l0.59251,0.56782c0,0 5.98035,-0.13006 10.04798,-0.11797c6.13519,0.01823 23.18202,0.21673 23.18202,0.21673l0.4197,-0.07407l0.24688,-0.14813l0.4197,-0.32094l0.29626,-0.12344l0.39501,-0.07407h9.03579l1.48128,0.04938l0.44438,0.07407l0.51845,0.1975l0.49376,0.34563l0.37032,0.1975l4.5179,0.46907l1.03689,0.1975l0.64189,0.24688l0.29626,0.1975l0.14813,0.17282l0.04938,0.22219l0.22219,2.09848l0.24688,2.4688l0.39501,4.78947l0.14813,2.37004l0.00066,0.16667z" data-paper-data="{&quot;index&quot;:null}" fill="#929292" stroke="#000000" stroke-width="1.5" stroke-linecap="round"/><path d="M270.81058,164.90687l3.44397,0.29626l0.85173,0.37032l0.62954,0.29626l0.14813,1.44425l0.48142,4.4068l0.29626,4.03648l0.07406,1.29612l0.07406,0.8147l-0.07406,0.25922l0.11109,1.7405l-0.03703,2.99959l-0.29626,3.96242l-0.62954,6.96201l-0.44438,0.62954l-1.8516,0.44438l-3.98148,0.28962l0.13825,-0.24194l0.22466,-0.10369l3.80195,-0.60485l0.39747,-0.13825l0.29379,-0.13825l0.13825,-0.12097l0.08641,-0.24194l0.17282,-1.46893l0.1901,-2.78233l0.08641,-2.17748l0.08641,-1.81457l0.06353,-2.56652l0.00163,-5.14633l-0.07256,-2.9314l-0.08641,-1.81457l-0.08641,-2.17748l-0.1901,-2.78233l-0.17282,-1.46893l-0.08641,-0.24194l-0.13825,-0.12097l-0.29379,-0.13825l-0.39747,-0.13825l-3.80195,-0.60485l-0.22466,-0.10369l-0.13825,-0.24194z" fill="#333333" stroke="#000000" stroke-width="0.75" stroke-linecap="round"/><path d="M208.1455,164.15686l-0.47673,0.33371l-0.23837,0.10726l-1.89501,0.21453l-0.70318,0.14302l-0.29796,0.15494l-0.27412,0.2622l-0.17878,0.16686l-0.11918,0.22645l-0.19069,0.69126l-0.11918,1.03689l-0.02384,2.25256v8.55311l0.00741,4.43726v7.51653l0.02384,2.25256l0.11918,1.03689l0.19069,0.69126l0.11918,0.22645l0.17878,0.16686l0.27412,0.2622l0.29796,0.15494l0.70318,0.14302l1.89501,0.21453l0.23837,0.10726l0.47673,0.33371l-3.70358,-0.45897l-0.51845,-0.29626l-0.44438,-0.44438l-0.14813,-0.88877l-0.11109,-1.40721v-23.03387l-0.07406,-0.85173l0.11109,-1.92566l0.18516,-0.99986l0.51845,-0.74064l0.55548,-0.18516l0.96283,-0.11109l0.74064,-0.03703z" data-paper-data="{&quot;index&quot;:null}" fill="#333333" stroke="#000000" stroke-width="0.75" stroke-linecap="round"/><path d="M221.71654,195.51988l0.42696,-0.0244l6.9045,0.10979h13.46743l12.36954,-0.23178l0.58554,0.08539l0.34529,0.35316l-2.60753,0.01967h-0.28632l-0.07875,-0.06125l-0.02625,-0.17063l-0.18375,-0.02625l-0.40688,0.07875l-0.30188,0.11813l-0.23382,0.0727l-11.91212,0.08986l-5.11535,0.05184h-4.8734l-3.61185,-0.03456l-4.61418,-0.08641z" fill="#333333" stroke="#000000" stroke-width="0.75" stroke-linecap="round"/><path d="M251.02313,194.74665l-0.07151,0.02384h-0.33371h-20.34459l-0.11918,-0.05959v-0.19069l0.23837,-3.22987l0.10726,-0.17878h5.19639l2.00228,0.10726l4.06415,0.23837l0.98922,0.1311l0.63167,0.22645l7.0914,2.4075l0.19069,0.09535l0.38139,0.3218z" fill="#666666" stroke="#000000" stroke-width="0.75" stroke-linecap="round"/><path d="M249.32233,193.81205l0.20738,0.07319l1.0247,0.32937l0.15858,0.12199l0.25617,0.21958l0.08539,0.13419l-0.13419,0.09777h-1.65969v-0.89252z" fill="#333333" stroke="#000000" stroke-width="0.5" stroke-linecap="round"/><path d="M203.16257,178.28692v-0.29161" fill="none" stroke="#000000" stroke-width="1.5" stroke-linecap="round"/><path d="M274.70456,193.08155l-19.77012,0.24194h-2.1602" fill="none" stroke="#000000" stroke-width="0.75" stroke-linecap="round"/><path d="M254.65053,166.72835c0,0 0.63315,4.81901 0.78034,7.12094c0.07273,1.13757 0.12501,2.81011 0.15853,4.15918l0.01058,3.85402c-0.03335,1.37005 -0.08663,3.11409 -0.16171,4.28821c-0.14718,2.30193 -0.78034,7.12094 -0.78034,7.12094" fill="none" stroke="#000000" stroke-width="0.75" stroke-linecap="round"/><path d="M243.4175,176.91628v-0.32014l-0.05184,-2.29845l-0.12097,-2.79962l0.05184,-1.45165l0.08641,-0.32835l0.12097,-0.24194l0.31107,-0.2765l0.69126,-0.39748l3.49088,-1.05418l2.64408,-0.86408l0.89864,-0.2765l0.57029,-0.08641h0.24194l0.12097,0.05184l0.13825,0.12097l0.2765,0.6567l0.2765,1.20971l0.20738,1.64175l0.17282,1.48622l0.15553,1.67631l0.08641,1.79728l0.10369,2.21204l0.01709,0.63803l0.01368,3.74204l-0.02337,0.87232l-0.10369,2.21204l-0.08641,1.79728l-0.15553,1.67631l-0.17282,1.48622l-0.20738,1.64175l-0.2765,1.20971l-0.2765,0.6567l-0.13825,0.12097l-0.12097,0.05184h-0.24194l-0.57029,-0.08641l-0.89864,-0.2765l-2.64408,-0.86408l-3.49088,-1.05418l-0.69126,-0.39748l-0.31107,-0.2765l-0.12097,-0.24194l-0.08641,-0.32835l-0.05184,-1.45165l0.12097,-2.79962l0.05184,-2.29845v-0.41358z" fill="#666666" stroke="#333333" stroke-width="1.25" stroke-linecap="round"/><path d="M229.11577,195.50097v-0.48388l0.05184,-0.1901l0.12097,-2.9033l0.06913,-0.96777l0.10369,-0.12097h6.94719l4.00932,0.20738l1.60719,0.13825l0.74311,0.13825l0.55301,0.17282l1.01961,0.36291l7.56933,2.54039l0.32835,0.15553l0.31107,0.34563l0.1901,0.41476" fill="none" stroke="#000000" stroke-width="0.75" stroke-linecap="round"/><path d="M248.99702,194.35335l0.48865,-0.25029l0.11918,0.04767l-0.04767,0.1311l-0.42906,0.22645" fill="#333333" stroke="#000000" stroke-width="0.5" stroke-linecap="round"/><path d="M242.7087,191.58663c0.04608,0.00878 0.12654,0.03631 0.12654,0.03631v3.1484l-0.30988,0.00028v-3.20771c0,0 0.12787,0.01216 0.18334,0.02273z" fill="#333333" stroke="#000000" stroke-width="0.75" stroke-linecap="round"/><path d="M227.97309,194.85392h-5.37517l-6.37631,-0.1311l-3.77811,-0.09535l-3.27754,-0.15494l-0.44098,-0.05959l-0.21453,-0.04767l-0.28604,-0.21453l-0.08343,-0.19069l0.01192,-0.23837l0.09535,-0.22645l2.88424,-2.25256l0.35755,-0.17878l0.27412,-0.03576h16.11358l0.19069,0.07151l0.04767,0.08343l0.07151,3.58742l-0.08343,0.07151z" fill="#666666" stroke="#000000" stroke-width="0.75" stroke-linecap="round"/><path d="M204.90923,177.92546v-9.1065l0.02963,-0.35551l0.07406,-0.07406l0.17775,-0.02963l0.28144,0.05925l3.22919,1.62941l0.16294,0.16294l0.16294,0.25182l0.1185,0.29626l0.10369,0.48882v6.72274l0.00741,4.22662v6.55413l-0.10369,0.48882l-0.1185,0.29626l-0.16294,0.25182l-0.16294,0.16294l-3.22919,1.62941l-0.28144,0.05925l-0.17775,-0.02963l-0.07406,-0.07406l-0.02963,-0.35551v-8.57867z" fill="#666666" stroke="#000000" stroke-width="0.75" stroke-linecap="round"/><path d="M249.05759,194.44787c0,0 -0.04556,0.9577 -0.18504,1.36964c-0.13626,0.4024 -0.67816,1.06214 -0.67816,1.06214l-0.12798,-0.04647l0.82745,-2.4437z" fill="#333333" stroke="#000000" stroke-width="0.75" stroke-linecap="butt"/><path d="M221.55631,164.13612l4.61418,-0.08641l3.61185,-0.03456h4.8734l5.11535,0.05184l11.91212,0.08986l0.23382,0.0727l0.30188,0.11813l0.40688,0.07875l0.18375,-0.02625l0.02625,-0.17063l0.07875,-0.06125h0.28632l2.60753,0.01967l-0.34529,0.35316l-0.58554,0.08539l-12.36954,-0.23178h-13.46743l-6.9045,0.10979l-0.42696,-0.0244z" data-paper-data="{&quot;index&quot;:null}" fill="#333333" stroke="#000000" stroke-width="0.75" stroke-linecap="round"/><path d="M251.03956,165.36061l-0.38139,0.3218l-0.19069,0.09535l-7.0914,2.4075l-0.63167,0.22645l-0.98922,0.1311l-4.06415,0.23837l-2.00228,0.10726h-5.19639l-0.10726,-0.17878l-0.23837,-3.22987v-0.19069l0.11918,-0.05959h20.34459h0.33371l0.07151,0.02384z" data-paper-data="{&quot;index&quot;:null}" fill="#666666" stroke="#000000" stroke-width="0.75" stroke-linecap="round"/><path d="M249.25327,166.10439v-0.89252h1.65969l0.13419,0.09777l-0.08539,0.13419l-0.25617,0.21958l-0.15858,0.12199l-1.0247,0.32937l-0.20738,0.07319z" data-paper-data="{&quot;index&quot;:null}" fill="#333333" stroke="#000000" stroke-width="0.5" stroke-linecap="round"/><path d="M252.76683,166.67651h2.1602l19.77012,0.24194" data-paper-data="{&quot;index&quot;:null}" fill="none" stroke="#000000" stroke-width="0.75" stroke-linecap="round"/><path d="M252.73227,164.68913l-0.1901,0.41476l-0.31107,0.34563l-0.32835,0.15553l-7.56933,2.54039l-1.01961,0.36291l-0.55301,0.17282l-0.74311,0.13825l-1.60719,0.13825l-4.00932,0.20738h-6.94719l-0.10369,-0.12097l-0.06913,-0.96777l-0.12097,-2.9033l-0.05184,-0.1901v-0.48388" data-paper-data="{&quot;index&quot;:null}" fill="none" stroke="#000000" stroke-width="0.75" stroke-linecap="round"/><path d="M249.12071,165.49172l0.42906,0.22645l0.04767,0.1311l-0.11918,0.04767l-0.48865,-0.25029" data-paper-data="{&quot;index&quot;:null}" fill="#333333" stroke="#000000" stroke-width="0.5" stroke-linecap="round"/><path d="M242.51796,168.4361v-3.20771l0.30988,0.00028v3.1484c0,0 -0.08046,0.02753 -0.12654,0.03631c-0.05546,0.01057 -0.18334,0.02273 -0.18334,0.02273z" data-paper-data="{&quot;index&quot;:null}" fill="#333333" stroke="#000000" stroke-width="0.75" stroke-linecap="round"/><path d="M228.09678,165.158l0.08343,0.07151l-0.07151,3.58742l-0.04767,0.08343l-0.19069,0.07151h-16.11358l-0.27412,-0.03576l-0.35755,-0.17878l-2.88424,-2.25256l-0.09535,-0.22645l-0.01192,-0.23837l0.08343,-0.19069l0.28604,-0.21453l0.21453,-0.04767l0.44098,-0.05959l3.27754,-0.15494l3.77811,-0.09535l6.37631,-0.1311h5.37517z" data-paper-data="{&quot;index&quot;:null}" fill="#666666" stroke="#000000" stroke-width="0.75" stroke-linecap="round"/><path d="M203.96121,166.10823h0.32588l0.28144,0.10369l0.38513,0.19257l2.04768,1.42323l1.68048,1.27526l0.91771,0.96539l0.15494,0.2622l0.08343,0.19069l0.08343,0.29796v7.18537l0.00741,4.27538v6.90084l-0.08343,0.29796l-0.08343,0.19069l-0.15494,0.2622l-0.91771,0.96539l-1.68048,1.27526l-2.04768,1.42323l-0.38513,0.19257l-0.28144,0.10369h-0.32588" data-paper-data="{&quot;index&quot;:null}" fill="none" stroke="#000000" stroke-width="0.75" stroke-linecap="round"/><path d="M248.88645,165.61052l-0.82745,-2.4437l0.12798,-0.04647c0,0 0.5419,0.65973 0.67816,1.06214c0.13949,0.41194 0.18504,1.36964 0.18504,1.36964z" data-paper-data="{&quot;index&quot;:null}" fill="#333333" stroke="#000000" stroke-width="0.75" stroke-linecap="butt"/><g fill="#343434" stroke="#000000"><path d="M253.44211,182.09063l-0.61732,8.79043l-0.00753,0.37152l-0.09309,-0.09101l-0.06493,-0.114l-0.0773,-0.47971l0.6316,-9.10482l0.06758,-0.21177l0.23988,-0.32116z" data-paper-data="{&quot;index&quot;:null}" stroke-width="0.3" stroke-linecap="round"/><path d="M254.02459,191.76386c0.11971,0.13127 0.11034,0.33473 -0.02094,0.45444c-0.13127,0.11971 -0.33473,0.11034 -0.45444,-0.02093c-0.11971,-0.13127 -0.11034,-0.33473 0.02093,-0.45445c0.13127,-0.11971 0.33473,-0.11034 0.45445,0.02093z" data-paper-data="{&quot;index&quot;:null}" stroke-width="0.5" stroke-linecap="butt"/><path d="M253.64192,191.95555l-0.03608,-0.04785l-0.87245,-2.17466l-0.00381,-0.09053l0.02005,-0.05807l0.03198,-0.04184l0.06853,-0.00477l0.05355,0.02544l0.95467,2.3796l0.0327,0.06417c-0.00006,0.00058 -0.00014,0.00117 -0.00022,0.00176c-0.00616,0.04356 -0.06044,0.07705 -0.12123,0.0748c-0.02127,-0.00079 -0.04052,-0.00584 -0.0563,-0.01395z" data-paper-data="{&quot;index&quot;:null}" stroke-width="0.3" stroke-linecap="round"/></g><g fill="#343434" stroke="#000000"><path d="M252.83102,169.57389l0.69343,8.59038l0.05317,0.36777l-0.10669,-0.07461l-0.08266,-0.10188l-0.15451,-0.46068l-0.75366,-8.90289l0.05517,-0.21996l0.18429,-0.35598z" data-paper-data="{&quot;index&quot;:null}" stroke-width="0.3" stroke-linecap="round"/><path d="M254.85218,178.83956c0.13952,0.10999 0.16346,0.31225 0.05347,0.45177c-0.10999,0.13952 -0.31225,0.16346 -0.45177,0.05347c-0.13952,-0.10999 -0.16346,-0.31226 -0.05347,-0.45177c0.10999,-0.13952 0.31225,-0.16346 0.45177,-0.05347z" data-paper-data="{&quot;index&quot;:null}" stroke-width="0.5" stroke-linecap="butt"/><path d="M254.5059,179.09109l-0.0434,-0.04132l-1.21547,-2.00323l-0.01852,-0.08869l0.01031,-0.06057l0.02473,-0.0465l0.06683,-0.01588l0.05698,0.01636l1.33002,2.19202l0.04273,0.05797c0.00003,0.00059 0.00005,0.00118 0.00007,0.00177c0.00102,0.04398 -0.04706,0.08587 -0.10741,0.09357c-0.02112,0.00269 -0.04093,0.00084 -0.05782,-0.00459z" data-paper-data="{&quot;index&quot;:null}" stroke-width="0.3" stroke-linecap="round"/></g><path d="M276.81443,182.3413l-0.1311,2.09758l-0.39501,4.78947l-0.24688,2.4688l-0.22219,2.09848l-0.04938,0.22219l-0.14813,0.17282l-0.29626,0.1975l-0.64189,0.24688l-1.03689,0.1975l-4.5179,0.46907l-0.37032,0.1975l-0.49376,0.34563l-0.51845,0.1975l-0.44438,0.07407l-1.48128,0.04938h-9.03579l-0.39501,-0.07407l-0.29626,-0.12344l-0.4197,-0.32094l-0.24688,-0.14813l-0.4197,-0.07407c0,0 -17.04683,0.19849 -23.18202,0.21673c-4.06764,0.01209 -10.04798,-0.11797 -10.04798,-0.11797l-0.59251,0.56782l-0.32094,0.14813l-0.29626,0.02469h-2.61692l-6.12262,-0.14813l-2.96256,-0.1975l-2.34536,-0.29626l-1.53065,-0.14813l-0.74064,-0.14813l-0.44438,-0.29626l-0.1975,-0.27157l-0.1975,-0.69126l-0.17282,-1.16033l-0.07406,-1.80222v-8.35856l-0.00741,-4.45927v-9.39141l0.07406,-1.80222l0.17282,-1.16033l0.1975,-0.69126l0.1975,-0.27157l0.44438,-0.29626l0.74064,-0.14813l1.53065,-0.14813l2.34536,-0.29626l2.96256,-0.1975l6.12262,-0.14813h2.61692l0.29626,0.02469l0.32094,0.14813l0.59251,0.56782c0,0 5.98035,-0.13006 10.04798,-0.11797c6.13519,0.01823 23.18202,0.21673 23.18202,0.21673l0.4197,-0.07407l0.24688,-0.14813l0.4197,-0.32094l0.29626,-0.12344l0.39501,-0.07407h9.03579l1.48128,0.04938l0.44438,0.07407l0.51845,0.1975l0.49376,0.34563l0.37032,0.1975l4.5179,0.46907l1.03689,0.1975l0.64189,0.24688l0.29626,0.1975l0.14813,0.17282l0.04938,0.22219l0.22219,2.09848l0.24688,2.4688l0.39501,4.78947l0.14813,2.37004l0.00066,0.16667z" data-paper-data="{&quot;index&quot;:null}" fill="none" stroke="#000000" stroke-width="1.5" stroke-linecap="round"/></g></g></svg>