<svg version="1.1" xmlns="http://www.w3.org/2000/svg" xmlns:xlink="http://www.w3.org/1999/xlink" width="91.2825" height="37.94773" viewBox="0,0,91.2825,37.94773"><g transform="translate(-194.3588,-161.02614)"><g data-paper-data="{&quot;isPaintingLayer&quot;:true}" fill-rule="nonzero" stroke-linejoin="miter" stroke-miterlimit="10" stroke-dasharray="" stroke-dashoffset="0" style="mix-blend-mode: normal"><path d="M195.1088,179.65503v-1.29862l0.19004,-2.73977l0.26923,-2.02712l0.44343,-2.24883l0.4751,-1.86875l0.3009,-0.66515l0.19004,-0.3009l0.36425,-0.4276l0.4751,-0.38008l0.41176,-0.22172l0.64931,-0.38009l0.36425,-0.14253l0.53845,-0.23755l0.91854,-0.38008l1.75789,-0.61764l2.26467,-0.63347l2.20132,-0.52262l2.13797,-0.45927l1.25111,-0.20588l0.99772,-0.07918l0.58596,-0.03167l5.11529,-0.01584l10.91157,-0.11086l9.85051,-0.07918h15.90017l8.80528,-0.09502h6.54061l1.58368,0.04751l1.2036,0.12669l1.04523,0.14253l1.34613,0.23755l1.25111,0.23755l2.12214,0.52261l2.05879,0.79184l0.76017,0.44343l0.95021,0.74433l0.52262,0.57013l0.64931,0.9027l0.66515,1.21944l0.61764,1.45699l0.55429,1.59952l0.26923,1.28278l0.06335,0.776v0.44343l0.15837,2.69226l0.05093,1.18835l-0.01202,2.45782l-0.03891,0.90797l-0.15837,2.69226v0.44343l-0.06335,0.776l-0.26923,1.28278l-0.55429,1.59952l-0.61764,1.45699l-0.66515,1.21944l-0.64931,0.9027l-0.52262,0.57013l-0.95021,0.74433l-0.76017,0.44343l-2.05879,0.79184l-2.12214,0.52261l-1.25111,0.23755l-1.34613,0.23755l-1.04523,0.14253l-1.2036,0.12669l-1.58368,0.04751h-6.54061l-8.80528,-0.09502h-15.90017l-9.85051,-0.07918l-10.91157,-0.11086l-5.11529,-0.01584l-0.58596,-0.03167l-0.99772,-0.07918l-1.25111,-0.20588l-2.13797,-0.45927l-2.20132,-0.52262l-2.26467,-0.63347l-1.75789,-0.61764l-0.91854,-0.38008l-0.53845,-0.23755l-0.36425,-0.14253l-0.64931,-0.38009l-0.41176,-0.22172l-0.4751,-0.38008l-0.36425,-0.4276l-0.19004,-0.3009l-0.3009,-0.66515l-0.4751,-1.86875l-0.44343,-2.24883l-0.26923,-2.02712l-0.19004,-2.73977v-1.29862z" fill="#ccbc9b" stroke="#000000" stroke-width="1.5" stroke-linecap="round"/><path d="M254.6675,165.0407l-2.90421,1.14934c0,0 -2.15762,0.84245 -3.68733,1.44365c-1.91517,0.7527 -4.01039,1.28603 -4.01039,1.28603l-2.27965,0.36715l-1.87368,0.11174l-4.85596,0.14367l-4.69982,0.04789l-2.5607,-0.07981l-1.40526,-0.11174l-1.17105,-0.19156l-1.79561,-0.39908l-2.93544,-1.05356l-2.7793,-1.26108l-0.24982,-0.19156l-0.1093,-0.12771l-0.02034,-0.15526l0.03195,-0.14225l0.12563,-0.17275l0.36529,-0.15679c0,0 1.58082,-0.12495 3.4984,-0.21189c5.70688,-0.25876 11.36326,-0.36266 11.36326,-0.36266l10.21157,-0.18718l5.29315,0.04789l5.05895,0.07981l2.01421,0.09578l0.39035,0.06385l0.20298,0.04789l0.20298,0.12771l-0.45365,-0.20988" data-paper-data="{&quot;index&quot;:null}" fill="#333333" stroke="#000000" stroke-width="0" stroke-linecap="round"/><path d="M250.39623,166.71419c-0.714,0.27929 -1.5889,0.62188 -2.32026,0.90932c-1.91517,0.7527 -4.01039,1.28603 -4.01039,1.28603l-2.27965,0.36715l-1.87368,0.11174l-4.85596,0.14367l-4.69982,0.04789l-2.5607,-0.07981l-1.40526,-0.11174l-1.17105,-0.19156l-1.79561,-0.39908l-2.93544,-1.05356l-2.7793,-1.26108l-0.24982,-0.19156l-0.1093,-0.12771l-0.02034,-0.15526l0.03195,-0.14225l0.12563,-0.17275l0.36529,-0.15679c0,0 1.58082,-0.12495 3.4984,-0.21189c5.70688,-0.25876 11.36326,-0.36266 11.36326,-0.36266l10.21157,-0.18718l5.29315,0.04789l2.93485,0.0463l-0.01502,0.01755l-0.69328,1.74704z" data-paper-data="{&quot;index&quot;:null}" fill="#ababab" stroke="#000000" stroke-width="0" stroke-linecap="round"/><path d="M255.63473,194.96168l0.45365,-0.20988l-0.20298,0.12771l-0.20298,0.04789l-0.39035,0.06385l-2.01421,0.09578l-5.05895,0.07981l-5.29315,0.04789l-10.21157,-0.18718c0,0 -5.65638,-0.1039 -11.36326,-0.36266c-1.91758,-0.08695 -3.4984,-0.21189 -3.4984,-0.21189l-0.36529,-0.15679l-0.12563,-0.17275l-0.03195,-0.14225l0.02034,-0.15526l0.1093,-0.12771l0.24982,-0.19156l2.7793,-1.26108l2.93544,-1.05356l1.79561,-0.39908l1.17105,-0.19156l1.40526,-0.11174l2.5607,-0.07981l4.69982,0.04789l4.85596,0.14367l1.87368,0.11174l2.27965,0.36715c0,0 2.09521,0.53333 4.01039,1.28603c1.52971,0.6012 3.68733,1.44365 3.68733,1.44365l2.90421,1.14934" fill="#333333" stroke="#000000" stroke-width="0" stroke-linecap="round"/><path d="M250.44546,193.35595l0.69328,1.74704l0.01502,0.01755l-2.93485,0.0463l-5.29315,0.04789l-10.21157,-0.18718c0,0 -5.65638,-0.1039 -11.36326,-0.36266c-1.91758,-0.08695 -3.4984,-0.21189 -3.4984,-0.21189l-0.36529,-0.15679l-0.12563,-0.17275l-0.03195,-0.14225l0.02034,-0.15526l0.1093,-0.12771l0.24982,-0.19156l2.7793,-1.26108l2.93544,-1.05356l1.79561,-0.39908l1.17105,-0.19156l1.40526,-0.11174l2.5607,-0.07981l4.69982,0.04789l4.85596,0.14367l1.87368,0.11174l2.27965,0.36715c0,0 2.09521,0.53333 4.01039,1.28603c0.73136,0.28744 1.60626,0.63002 2.32026,0.90932z" fill="#ababab" stroke="#000000" stroke-width="0" stroke-linecap="round"/><path d="M256.27576,194.52832l-0.18737,0.22348l-0.20298,0.12771l-0.20298,0.04789l-0.39035,0.06385l-2.01421,0.09578l-5.05895,0.07981l-5.29315,0.04789l-10.21157,-0.18718c0,0 -5.65638,-0.1039 -11.36326,-0.36266c-1.91758,-0.08695 -3.4984,-0.21189 -3.4984,-0.21189l-0.36529,-0.15679l-0.12563,-0.17275l-0.03195,-0.14225l0.02034,-0.15526l0.1093,-0.12771l0.24982,-0.19156l2.7793,-1.26108l2.93544,-1.05356l1.79561,-0.39908l1.17105,-0.19156l1.40526,-0.11174l2.5607,-0.07981l4.69982,0.04789l4.85596,0.14367l1.87368,0.11174l2.27965,0.36715c0,0 2.09521,0.53333 4.01039,1.28603c1.52971,0.6012 3.68733,1.44365 3.68733,1.44365l2.90421,1.14934" fill="none" stroke="#000000" stroke-width="0.75" stroke-linecap="round"/><path d="M246.93369,179.50614l-0.23498,-4.41248l-0.2872,-4.22972l-0.02862,-1.07942l0.06803,-0.47622l0.14967,-0.32655l0.24491,-0.23131l0.84359,-0.4354l4.21795,-1.63275l2.88453,-0.92523l1.10211,-0.23131l0.55786,-0.01361h0.89802l0.44901,0.05443l0.35376,0.09524l0.25852,0.17688l0.58507,0.53065l0.59868,0.73474l1.03408,1.728l0.73474,1.61915l0.54425,1.82324l0.38098,1.70079l0.13606,0.8708l0.12246,1.44227l0.10885,1.41505l0.06803,1.5239v0.39458v0.75628v0.39458l-0.06803,1.5239l-0.10885,1.41505l-0.12246,1.44227l-0.13606,0.8708l-0.38098,1.70079l-0.54425,1.82324l-0.73474,1.61915l-1.03408,1.728l-0.59868,0.73474l-0.58507,0.53065l-0.25852,0.17688l-0.35376,0.09524l-0.44901,0.05443h-0.89802l-0.55786,-0.01361l-1.10211,-0.23131l-2.88453,-0.92523l-4.21795,-1.63275l-0.84359,-0.4354l-0.24491,-0.23131l-0.14967,-0.32655l-0.06803,-0.47622l0.02862,-1.07942l0.2872,-4.22972l0.23498,-4.41248z" fill="#b9b9b9" stroke="#000000" stroke-width="0.75" stroke-linecap="round"/><path d="M247.2309,179.38898l-0.0966,-1.69058l-0.0805,-1.80329l-0.14491,-2.1092l-0.19321,-2.52782l-0.0483,-1.64228l0.0322,-0.33812l0.12881,-0.20931l0.27371,-0.20931l0.48302,-0.25761l3.46167,-1.35246l3.54217,-1.20756l1.03045,-0.24151l0.62793,-0.0644h0.48302l0.77284,0.0161l0.49912,0.1127l0.48302,0.32202l0.80504,0.94995l0.80504,1.23976l0.82114,1.69058l0.45082,1.14316l0.49912,1.83549l0.32202,1.85159l0.25761,3.39726l0.0322,1.33636v0.73904l-0.0322,1.33636l-0.25761,3.39726l-0.32202,1.85159l-0.49912,1.83549l-0.45082,1.14316l-0.82114,1.69058l-0.80504,1.23976l-0.80504,0.94995l-0.48302,0.32202l-0.49912,0.1127l-0.77284,0.0161h-0.48302l-0.62793,-0.0644l-1.03045,-0.24151l-3.54217,-1.20756l-3.46167,-1.35246l-0.48302,-0.25761l-0.27371,-0.20931l-0.12881,-0.20931l-0.0322,-0.33812l0.0483,-1.64228l0.19321,-2.52782l0.14491,-2.1092l0.0805,-1.80329l0.0966,-1.69058z" fill="#404040" stroke="#000000" stroke-width="0.5" stroke-linecap="round"/><path d="M197.20898,179.46663v-0.42412l0.03534,-0.84824l0.07069,-1.03673l0.09425,-0.95426l0.09425,-0.56549l0.11781,-0.67152l0.10603,-0.32987l0.10603,-0.15315l0.08247,-0.05891l0.10603,-0.03534l0.09425,0.01178l0.05891,0.05891l0.02356,0.12959l-0.02356,0.41234l-0.08247,1.37838l-0.04712,1.57866v1.48441v1.11388v1.48441l0.04712,1.57866l0.08247,1.37838l0.02356,0.41234l-0.02356,0.12959l-0.05891,0.05891l-0.09425,0.01178l-0.10603,-0.03534l-0.08247,-0.05891l-0.10603,-0.15315l-0.10603,-0.32987l-0.11781,-0.67152l-0.09425,-0.56549l-0.09425,-0.95426l-0.07069,-1.03673l-0.03534,-0.84824v-0.42412z" fill="#cacaca" stroke="#000000" stroke-width="0" stroke-linecap="round"/><path d="M197.67804,174.78981l-0.05671,0.17645l-0.11781,0.67152l-0.09425,0.56549l-0.09425,0.95426l-0.07069,1.03673l-0.03534,0.84824v0.42412v1.06676v0.42412l0.03534,0.84824l0.07069,1.03673l0.09425,0.95426l0.09425,0.56549l0.11781,0.67152l0.06377,0.19841l-0.05199,-0.00991l-0.55371,-0.50659l-0.15315,-0.16494l-0.14137,-0.21206l-0.10603,-0.25918l-0.05891,-0.37699l-0.05891,-1.16633l-0.03534,-1.17811v-0.83646v-1.04319v-0.83646l0.03534,-1.17811l0.05891,-1.16633l0.05891,-0.37699l0.10603,-0.25918l0.14137,-0.21206l0.15315,-0.16494l0.55371,-0.50659z" fill="#efbd27" stroke="#000000" stroke-width="0" stroke-linecap="round"/><path d="M282.3295,174.15566l0.31438,0.01361l0.46233,0.06803l0.24041,0.08164l0.24041,0.23131l0.22192,0.4218l0.29589,0.70753l0.2589,1.41506l0.11096,1.36063v3.08377l-0.11096,1.36063l-0.2589,1.41506l-0.29589,0.70753l-0.22192,0.4218l-0.24041,0.23131l-0.24041,0.08164l-0.46233,0.06803l-0.31438,0.01361z" data-paper-data="{&quot;index&quot;:null}" fill="#ad9f84" stroke="#9f9279" stroke-width="0.25" stroke-linecap="round"/><path d="M281.85565,178.98433l-0.00697,-1.36692l0.01361,-1.75521l0.02721,-1.34702l0.04082,-0.16328l0.09524,-0.13606l0.17688,-0.05443l0.23131,0.01361l0.34016,0.06803l0.17688,0.08164l0.17688,0.23131l0.16328,0.42179l0.2177,0.70753l0.19049,1.41506l0.08164,1.36063v0.52058v2.41429v0.14315l-0.08164,1.36063l-0.19049,1.41506l-0.2177,0.70753l-0.16328,0.42179l-0.17688,0.23131l-0.17688,0.08164l-0.34016,0.06803l-0.23131,0.01361l-0.17688,-0.05443l-0.09524,-0.13606l-0.04082,-0.16328l-0.02721,-1.34702l-0.01361,-1.75521l0.00536,-1.05023z" data-paper-data="{&quot;index&quot;:null}" fill="#b9b9b9" stroke="#000000" stroke-width="0" stroke-linecap="round"/><path d="M282.15713,179.04434l-0.00473,-1.28614l0.00923,-1.65149l0.01847,-1.26742l0.0277,-0.15363l0.06463,-0.12802l0.12003,-0.05121l0.15696,0.0128l0.23082,0.06401l0.12003,0.07681l0.12003,0.21764l0.11079,0.39687l0.14773,0.66572l0.12926,1.33144l0.0554,1.28023v0.48981v2.27162v0.13469l-0.0554,1.28023l-0.12926,1.33144l-0.14773,0.66572l-0.11079,0.39687l-0.12003,0.21764l-0.12003,0.07681l-0.23082,0.06401l-0.15696,0.0128l-0.12003,-0.05121l-0.06463,-0.12802l-0.0277,-0.15363l-0.01847,-1.26742l-0.00923,-1.65149l0.00364,-0.98817z" data-paper-data="{&quot;index&quot;:null}" fill="#333333" stroke="#000000" stroke-width="0" stroke-linecap="round"/><path d="M283.46346,179.92406v0.14676l-0.0211,0.00971l-1.17537,0.02957l-0.11037,-0.03897l0.00005,-0.10032l0.11207,-0.08087l1.17362,0.02953z" data-paper-data="{&quot;index&quot;:null}" fill="#b9b9b9" stroke="#000000" stroke-width="0" stroke-linecap="round"/><path d="M199.62643,192.35975l-0.47148,-0.39066l-0.39458,-0.48983l-0.38098,-0.57146l-0.47622,-1.04769l-0.34016,-0.78917l-0.27213,-0.8708l-0.04982,-0.12607c0,0 -0.0066,-0.02337 0.00232,-0.0276c0.0074,-0.0035 0.0475,0.004 0.0475,0.004l0.23131,0.10885c0,0 1.04414,0.45098 1.65514,0.84008c0.611,0.3891 1.06612,0.89289 1.06612,0.89289l0.24886,0.33372l0.09451,0.20336l0.11924,0.36956c0,0 0.11303,0.94938 -0.11871,1.30162c-0.23174,0.35224 -0.90176,0.2495 -0.90176,0.2495l-0.01491,0.01305z" fill="#9a3737" stroke="#000000" stroke-width="0" stroke-linecap="round"/><path d="M197.57877,189.1118l-0.03407,-0.09941l-0.25382,-0.81223l-0.04982,-0.12607c0,0 -0.0066,-0.02337 0.00232,-0.0276c0.0074,-0.0035 0.0475,0.004 0.0475,0.004l0.23131,0.10885c0,0 0.60287,0.26038 1.16048,0.55615l0.05242,0.04607c0,0 0.59812,0.99473 0.22866,1.06624c-0.29035,0.0562 -0.9551,-0.42152 -1.22646,-0.62868z" fill="#d6d6d6" stroke="#000000" stroke-width="0" stroke-linecap="round"/><path d="M250.88545,194.97174l-2.75577,0.03051l-5.15564,0.03051l-3.85402,-0.06101l-5.55222,-0.10169l-4.42348,-0.08135l-4.9726,-0.18304l-3.59979,-0.15253l-2.17615,-0.12203l-0.54912,-0.06101l-0.20338,-0.09152l-0.09152,-0.11186l-0.03051,-0.10169l0.02034,-0.10169l0.20338,-0.17287l1.81007,-0.84402l3.15236,-1.18976l0.90503,-0.2949l1.505,-0.33557l0.72199,-0.1322l1.16942,-0.15253l0.90503,-0.07118l1.93209,-0.02034h1.03723h3.48794l5.55222,0.14236l1.42365,0.10169l0.87453,0.08135l1.49483,0.24405l0.86436,0.21355l2.01344,0.61013l1.16943,0.38642l1.80873,0.68646l0.65208,0.28981l0.0483,0.06038l0.60124,1.44589z" fill="#666666" stroke="#000000" stroke-width="0" stroke-linecap="round"/><path d="M218.01176,194.29375l-0.24851,-0.04002l-0.1681,-0.08783l-0.08503,-0.18471l0.03095,-0.13402l0.18361,-0.14894l0.91863,-0.4251l0.57057,-0.26874l-0.07201,1.39159z" fill="#333333" stroke="#000000" stroke-width="0" stroke-linecap="round"/><path d="M235.62324,190.69102l1.9841,4.1937l0.0135,0.05955l-2.65535,-0.04863l0.08755,-0.04651l-1.30192,-4.19918h0.62003z" fill="#333333" stroke="#000000" stroke-width="0" stroke-linecap="round"/><path d="M220.50635,189.17374l1.65608,-0.15526l2.36336,-0.13801l3.34666,-0.0345h3.74343l7.1936,0.31052l6.2103,0.43127l1.36928,0.069v0.35487l-1.36928,-0.069l-6.2103,-0.43127l-7.1936,-0.31051h-3.74343l-3.34666,0.0345l-2.36336,0.13801l-1.65608,0.15526" fill="#333333" stroke="#000000" stroke-width="0.75" stroke-linecap="round"/><path d="M280.98533,190.24048c0.53039,0.31656 0.79624,0.93839 0.59783,1.44385c-0.21232,0.5409 -0.87589,0.74371 -1.48212,0.45298c-0.00418,-0.002 -0.00834,-0.00402 -0.01249,-0.00606" data-paper-data="{&quot;index&quot;:null}" fill="#ad9f84" stroke="#9f9279" stroke-width="0.25" stroke-linecap="butt"/><g><path d="M279.05895,192.23971l0.63994,-0.87695l0.66671,-1.17014l0.21393,-0.48271l0.10729,-0.04941c0.16364,-0.08441 0.311,-0.10393 0.42526,-0.04387c0.36087,0.1897 0.25497,1.10144 -0.23653,2.03643c-0.4915,0.93498 -1.18249,1.53916 -1.54336,1.34945c-0.17553,-0.09227 -0.24062,-0.35536 -0.20463,-0.70886z" data-paper-data="{&quot;index&quot;:null}" fill="#cfcfcf" stroke="#000000" stroke-width="0" stroke-linecap="round"/><path d="M279.93519,192.36038c0.0036,0.00676 0.00564,0.01448 0.00564,0.02268c0,0.00367 -0.00041,0.00724 -0.00118,0.01067c0.05993,-0.00785 0.12004,-0.01465 0.18036,-0.02014c0,0 0.0481,-0.00437 0.05248,0.04373c0.00437,0.0481 -0.04373,0.05248 -0.04373,0.05248c-0.15702,0.01426 -0.31252,0.0376 -0.4674,0.06522c-0.07772,0.02532 -0.15918,0.04329 -0.23525,0.04469c-0.00756,0.00151 -0.01513,0.00301 -0.02269,0.00452l-0.02611,0.00522v0.00935h-0.05152v0c-0.02668,0 -0.0483,-0.02163 -0.0483,-0.0483c0,-0.02374 0.01713,-0.04349 0.03971,-0.04754l0.06728,-0.01346c0.01892,-0.00378 0.03783,-0.00754 0.05675,-0.01127c0.04555,-0.02074 0.1086,-0.03796 0.17125,-0.05358c-0.00006,-0.00098 -0.00009,-0.00197 -0.00009,-0.00297c0,-0.01994 0.01208,-0.03705 0.02931,-0.04443l0.01601,-0.00727c0.00007,-0.00005 0.00014,-0.00011 0.00021,-0.00016l0.07683,-0.05762l0.00587,0.00782c0.00154,-0.00119 0.00307,-0.00238 0.00461,-0.00356c0.13278,-0.13806 0.29645,-0.25301 0.44059,-0.38405c-0.00701,-0.0052 -0.01257,-0.01225 -0.01594,-0.02043c-0.05471,0.03842 -0.11104,0.07613 -0.16581,0.11321l-0.00395,0.00631c-0.0067,0.01111 -0.01774,0.01931 -0.03078,0.02223c-0.05136,0.04158 -0.1035,0.07778 -0.15607,0.10694c-0.00121,0.00094 -0.00241,0.00187 -0.00361,0.00281l0.01007,0.01611l-0.08129,0.05081c-0.00755,0.00489 -0.01656,0.00774 -0.02623,0.00774c-0.02668,0 -0.0483,-0.02163 -0.0483,-0.0483c0,-0.01334 0.00541,-0.02541 0.01415,-0.03416l0.05152,-0.05152l0.00071,0.00071l0.00123,-0.00254c0.01874,-0.01503 0.03748,-0.03074 0.05625,-0.04694c0.0553,-0.11542 0.15477,-0.23954 0.2688,-0.36461c0.04461,-0.07757 0.10523,-0.15928 0.17285,-0.24056c0.00399,-0.00632 0.008,-0.01263 0.01204,-0.01892c-0.08433,0.08405 -0.16799,0.16926 -0.25427,0.25563l-0.03474,0.03474c-0.00874,0.00874 -0.02082,0.01415 -0.03416,0.01415c-0.02668,0 -0.0483,-0.02163 -0.0483,-0.0483c0,-0.01015 0.00313,-0.01957 0.00848,-0.02734l0.05116,-0.07673l0.00557,0.00371c0.07623,-0.19304 0.18865,-0.37826 0.31182,-0.55536c-0.07019,0.064 -0.13127,0.12287 -0.16421,0.17006l-0.03438,0.04911c-0.00869,0.01277 -0.02335,0.02116 -0.03996,0.02116c-0.02668,0 -0.0483,-0.02163 -0.0483,-0.0483c0,-0.00714 0.00155,-0.01391 0.00433,-0.02001l0.03763,-0.08781l0.01558,0.00668c0.05714,-0.17509 0.17296,-0.35077 0.29833,-0.5133c-0.01801,-0.00702 -0.03078,-0.02453 -0.03078,-0.04503c0,-0.01443 0.00633,-0.02738 0.01636,-0.03623l0.07197,-0.06408l0.00209,0.00234l0.00073,-0.00061c0.02177,-0.01936 0.04201,-0.03886 0.06153,-0.05806c0.05098,-0.05554 0.10653,-0.10733 0.16367,-0.1577l-0.00384,-0.00512l0.05113,-0.03835c0.0028,-0.00215 0.00584,-0.00399 0.00908,-0.00549c0.03817,-0.03278 0.07661,-0.06529 0.11448,-0.09819l0.0414,-0.03596c0.0085,-0.00747 0.01965,-0.012 0.03186,-0.012c0.02668,0 0.0483,0.02163 0.0483,0.0483c0,0.00359 -0.00039,0.00708 -0.00113,0.01045l-0.00561,0.02802c0.00987,-0.00764 0.01951,-0.01514 0.02875,-0.02253l0.03722,-0.03722l0.01309,0.01309l0.04448,-0.02118c0.00021,0.01584 -0.00001,0.03168 -0.00062,0.04751l0.02427,0.0056l-0.02172,0.09413l-0.011,-0.00254c-0.01552,0.11653 -0.04933,0.2325 -0.0901,0.34731c0.00513,0.00767 0.00813,0.0169 0.00813,0.02683c0,0.00293 -0.00026,0.00581 -0.00076,0.0086l-0.00795,0.04916l-0.00169,-0.00027l0.00091,0.00409c-0.01643,0.04924 -0.03517,0.09909 -0.05625,0.14845c0.02271,0.00394 0.03998,0.02375 0.03998,0.04759c0,0.0111 -0.00374,0.02132 -0.01004,0.02948l-0.04091,0.05421l-0.00027,-0.0002l-0.00044,0.00113c-0.01726,0.02072 -0.03452,0.04197 -0.05179,0.06368c0.00027,0.00205 0.0004,0.00415 0.0004,0.00628c0,0.01238 -0.00466,0.02367 -0.01231,0.03222l-0.03235,0.03646l-0.00597,0.02388l-0.01181,-0.00295c-0.00103,0.00161 -0.00207,0.00323 -0.00311,0.00486c-0.0347,0.28311 -0.18018,0.68123 -0.37205,0.94215c0.0078,0.00858 0.01255,0.01997 0.01255,0.03248c0,0.01768 -0.0095,0.03315 -0.02368,0.04157l-0.05455,0.03363l-0.00043,-0.0007l-0.00142,0.00178c-0.01626,0.00814 -0.03409,0.01827 -0.05313,0.02978c-0.04219,0.03971 -0.08577,0.07168 -0.13018,0.09381l-0.00554,-0.00043l0.0005,0.00199l-0.02372,0.00593c-0.04539,0.02853 -0.0924,0.05645 -0.13854,0.0791zM280.67127,190.34317c-0.01252,0.01282 -0.02523,0.02558 -0.03809,0.03809c-0.05115,0.07359 -0.10797,0.16953 -0.16825,0.26961c0.03928,-0.03105 0.07942,-0.06019 0.12019,-0.08694l-0.00543,-0.00543l0.0644,-0.0644c0.00874,-0.00874 0.02082,-0.01415 0.03416,-0.01415c0.02668,0 0.0483,0.02163 0.0483,0.0483c0,0.01052 -0.00336,0.02025 -0.00907,0.02818l-0.04474,0.06392l-0.00023,-0.00016l-0.00023,0.00081c-0.06717,0.08956 -0.17531,0.29179 -0.29324,0.49369c0.07426,-0.07303 0.15088,-0.13983 0.22741,-0.19098c0.03227,-0.05759 0.06584,-0.11278 0.10089,-0.16431c0.04371,-0.16366 0.0955,-0.34554 0.16466,-0.47513c-0.03354,0.02985 -0.06631,0.0589 -0.10138,0.08641c-0.00312,0.0045 -0.0063,0.00904 -0.00953,0.01363l0.00675,0.00675l-0.06831,0.06831c-0.00874,0.00874 -0.02082,0.01415 -0.03416,0.01415c-0.02668,0 -0.0483,-0.02163 -0.0483,-0.0483c0,-0.01259 0.00482,-0.02406 0.01272,-0.03266l0.03244,-0.03559c0.00293,-0.00414 0.00595,-0.00877 0.00905,-0.01379zM280.24876,192.02772c-0.00629,0.00671 -0.01264,0.01341 -0.01903,0.02011l0.00494,-0.00135c0.00482,-0.00615 0.00952,-0.0124 0.01409,-0.01876zM280.20808,192.07023c0.00263,-0.00057 0.00527,-0.00113 0.00792,-0.00167l-0.00138,-0.00505c-0.00218,0.00224 -0.00436,0.00448 -0.00654,0.00672z" fill="#c7c7c7" stroke="none" stroke-width="0.5" stroke-linecap="butt"/></g><path d="M282.38405,186.75256c0.52071,0.21416 0.83109,0.75215 0.69732,1.224c-0.13781,0.4861 -0.69483,0.71795 -1.24412,0.51783c-0.00471,-0.00172 -0.0094,-0.00346 -0.01408,-0.00523" data-paper-data="{&quot;index&quot;:null}" fill="#ad9f84" stroke="#9f9279" stroke-width="0.25" stroke-linecap="butt"/><g stroke-linecap="butt"><path d="M281.00392,188.72999l0.45017,-1.10897l0.28573,-0.74834l0.09294,-0.31519l0.16947,-0.17849c0.1249,-0.08964 0.24426,-0.1237 0.34599,-0.088c0.32148,0.11279 0.34519,0.87945 0.05295,1.71238c-0.29223,0.83293 -0.78975,1.41671 -1.11123,1.30392c-0.152,-0.05333 -0.23743,-0.25283 -0.25438,-0.53639z" data-paper-data="{&quot;index&quot;:null}" fill="#cfcfcf" stroke="#000000" stroke-width="0"/><path d="M281.58583,188.83772c-0.03901,0.0195 -0.07867,0.03891 -0.11907,0.05878l-0.00672,-0.00092l0.00052,0.00259l-0.06342,0.01268c-0.00337,0.00074 -0.00686,0.00113 -0.01045,0.00113c-0.02668,0 -0.0483,-0.02163 -0.0483,-0.0483c0,-0.01928 0.0113,-0.03593 0.02764,-0.04367l0.0251,-0.01255c-0.04416,-0.01873 -0.05163,-0.0869 0.02483,-0.22897c-0.0113,0.00635 -0.02194,0.01248 -0.03177,0.01839l-0.00197,0.00025l0.00031,0.00062l-0.05065,0.02533c-0.00671,0.00353 -0.01436,0.00553 -0.02247,0.00553c-0.02668,0 -0.0483,-0.02163 -0.0483,-0.0483c0,-0.01105 0.00371,-0.02123 0.00995,-0.02937l0.03835,-0.05113l0.0074,0.00555c0.0889,-0.17695 0.25686,-0.3836 0.43212,-0.57559c-0.01715,0.01447 -0.03301,0.0288 -0.04722,0.043l-0.00356,0.00096l0.00089,0.00119l-0.05113,0.03835c-0.00814,0.00624 -0.01832,0.00995 -0.02937,0.00995c-0.02668,0 -0.0483,-0.02163 -0.0483,-0.0483c0,-0.01459 0.00647,-0.02767 0.0167,-0.03653l0.07083,-0.06197c0.09655,-0.16026 0.19906,-0.32325 0.30237,-0.47904c0.01607,-0.05421 0.03251,-0.10695 0.04977,-0.15585c-0.06691,0.07317 -0.13475,0.14578 -0.20516,0.21601l-0.0034,0.00117l0.00074,0.00098l-0.05113,0.03835c-0.00814,0.00624 -0.01832,0.00995 -0.02937,0.00995c-0.02668,0 -0.0483,-0.02163 -0.0483,-0.0483c0,-0.00811 0.002,-0.01576 0.00553,-0.02247l0.00176,-0.00352c-0.00462,-0.00741 -0.00729,-0.01616 -0.00729,-0.02553c0,-0.00359 0.00039,-0.00708 0.00113,-0.01045l0.01268,-0.06342l0.00046,0.00009l-0.00017,-0.00146c0.06153,-0.23562 0.20607,-0.63379 0.4649,-0.71364l-0.00448,-0.01793l0.05047,-0.01262c0.00407,-0.00111 0.00835,-0.0017 0.01277,-0.0017c0.02668,0 0.0483,0.02163 0.0483,0.0483c0,0.00811 -0.002,0.01576 -0.00553,0.02247l-0.02533,0.05065c-0.01903,0.03806 -0.06416,0.13259 -0.12042,0.24092c0.01393,-0.00352 0.02671,-0.00392 0.03794,-0.0006c0.05387,-0.05829 0.10829,-0.11568 0.16412,-0.17119c0.0406,-0.02414 0.13818,-0.09962 0.19365,-0.04661c0.08176,0.07813 -0.15551,0.28103 -0.19147,0.33633c-0.02822,0.0434 -0.06654,0.112 -0.11138,0.19219c-0.02147,0.07997 -0.05561,0.16672 -0.09398,0.25129c0.02687,-0.01432 0.05417,-0.02709 0.08189,-0.03799l-0.00834,-0.01945l0.08781,-0.03763c0.0061,-0.00278 0.01287,-0.00433 0.02001,-0.00433c0.02668,0 0.0483,0.02163 0.0483,0.0483c0,0.016 -0.00778,0.03019 -0.01977,0.03898l-0.00023,0.00017c0.00452,0.00735 0.00712,0.016 0.00712,0.02525c0,0.01044 -0.00331,0.0201 -0.00893,0.02799l-0.05464,0.07893l-0.00643,-0.00445c-0.06841,0.15786 -0.16107,0.31021 -0.25397,0.46148c0.04867,-0.03907 0.09538,-0.0715 0.13119,-0.09295l0.03531,-0.03071c0.00851,-0.00748 0.01966,-0.01202 0.03188,-0.01202c0.02668,0 0.0483,0.02163 0.0483,0.0483c0,0.00811 -0.002,0.01576 -0.00553,0.02247l-0.03821,0.07641l-0.01571,-0.00786c-0.04198,0.11105 -0.1108,0.2646 -0.18746,0.40514c0.00585,0.00295 0.01173,0.00762 0.01735,0.01465c0.03017,0.03772 -0.00754,0.06789 -0.00754,0.06789c-0.03473,0.02777 -0.06972,0.0534 -0.10507,0.07741c-0.07312,0.11078 -0.1464,0.19193 -0.20528,0.20091c-0.05756,0.00878 -0.09309,-0.00009 -0.11318,-0.02zM282.21059,187.02096c0.00423,0.01104 0.00744,0.02287 0.00969,0.0354c0.12083,-0.12842 0.26088,-0.27044 0.14929,-0.20261c-0.05396,0.05437 -0.10669,0.1104 -0.15898,0.16721zM281.56426,188.35674c0.06911,-0.04721 0.13967,-0.08968 0.21472,-0.11435c0.03556,-0.07839 0.07693,-0.16862 0.12207,-0.25731c-0.09143,0.1185 -0.18724,0.23426 -0.30231,0.33541c-0.01051,0.00924 -0.0221,0.02177 -0.03449,0.03625zM281.68767,188.6751c0.0143,-0.00786 0.02852,-0.01583 0.04268,-0.02396c0.07437,-0.10831 0.20663,-0.31854 0.30887,-0.46233c-0.0784,0.0748 -0.14719,0.15949 -0.22593,0.23441c-0.00419,0.00595 -0.00848,0.01207 -0.01285,0.01835l0.0078,0.00669l-0.01739,0.02029c-0.00113,0.005 -0.00304,0.0097 -0.00559,0.01397l-0.04686,0.08201c-0.02359,0.0492 -0.04016,0.08542 -0.05073,0.11058zM281.45493,188.73367c0.07242,-0.09869 0.14186,-0.20206 0.21518,-0.29848c-0.03426,0.0219 -0.07036,0.0428 -0.10591,0.06255c0.0009,0.01621 -0.00709,0.0298 -0.00709,0.0298l-0.0366,0.06219c-0.06739,0.11442 -0.08173,0.15094 -0.06558,0.14394z" fill="#c7c7c7" stroke="none" stroke-width="0.5"/></g><path d="M199.63117,192.36368l-0.47622,-0.39458l-0.39458,-0.48983l-0.38098,-0.57146l-0.47622,-1.04769l-0.34016,-0.78917l-0.27213,-0.8708l-0.04982,-0.12607c0,0 -0.0066,-0.02337 0.00232,-0.0276c0.0074,-0.0035 0.0475,0.004 0.0475,0.004l0.23131,0.10885c0,0 1.04414,0.45098 1.65514,0.84008c0.611,0.3891 1.06612,0.89289 1.06612,0.89289l0.24886,0.33372l0.09451,0.20336l0.11924,0.36956c0,0 0.11303,0.94938 -0.11871,1.30162c-0.23174,0.35224 -0.90176,0.2495 -0.90176,0.2495l-0.10885,0.09524v0.10885l0.05443,0.09524l0.23131,0.17688l1.26539,0.53065l1.63739,0.58751l4.93467,1.61878" fill="none" stroke="#000000" stroke-width="0.75" stroke-linecap="round"/><path d="M197.25055,188.08651l-0.42002,-0.52502l-0.14701,-0.23101l-0.12601,-0.23101l-0.14701,-0.42002l-0.12601,-0.58803l-0.18901,-0.98705l-0.10501,-0.98705l-0.084,-1.93209v-1.93209v-0.50625v-1.93209l0.084,-1.93209l0.10501,-0.98705l0.18901,-0.98705l0.12601,-0.58803l0.14701,-0.42002l0.12601,-0.23101l0.14701,-0.23101l0.42002,-0.52502" fill="none" stroke="#000000" stroke-width="0.75" stroke-linecap="round"/><path d="M197.6331,185.22225l-0.55371,-0.50659l-0.15315,-0.16494l-0.14137,-0.21206l-0.10603,-0.25918l-0.05891,-0.37699l-0.05891,-1.16633l-0.03534,-1.17811v-0.83646v-1.04319v-0.83646l0.03534,-1.17811l0.05891,-1.16633l0.05891,-0.37699l0.10603,-0.25918l0.14137,-0.21206l0.15315,-0.16494l0.55371,-0.50659" fill="none" stroke="#bababa" stroke-width="0.5" stroke-linecap="round"/><path d="M210.71735,191.42659h-1.55076l-1.29654,-0.07627l-4.24552,-0.35591l-2.92356,-0.30507" fill="none" stroke="#000000" stroke-width="0.75" stroke-linecap="round"/><path d="M198.7351,188.76157c0,0 0.59812,0.99473 0.22866,1.06624c-0.36946,0.07151 -1.34513,-0.72148 -1.34513,-0.72148" fill="none" stroke="#000000" stroke-width="0.5" stroke-linecap="round"/><path d="M207.42637,178.80194l0.09114,-2.07791l0.21873,-2.07791l0.36455,-1.62223l0.56505,-1.56755l0.67441,-1.38527l0.74732,-1.03896l0.71949,-0.55356l0.47641,-0.1985l0.26467,-0.0397l0.56904,-0.02647h0.70138l0.86018,0.06617l1.90563,0.37054l3.59952,0.78078l0.55581,0.21174l0.31761,0.2382l0.29114,0.35731l0.1191,0.397l0.05293,1.33659l-0.0794,2.0909l-0.10587,1.50862l-0.10587,1.38952l-0.09263,1.50862l-0.0397,1.12485v0.09263v0.62534v0.09263l0.0397,1.12485l0.09263,1.50862l0.10587,1.38952l0.10587,1.50862l0.0794,2.0909l-0.05293,1.33659l-0.1191,0.397l-0.29114,0.35731l-0.31761,0.2382l-0.55581,0.21174l-3.59952,0.78078l-1.90563,0.37054l-0.86018,0.06617h-0.70138l-0.56904,-0.02647l-0.26467,-0.0397l-0.47641,-0.1985l-0.71949,-0.55356l-0.74732,-1.03896l-0.67441,-1.38527l-0.56505,-1.56755l-0.36455,-1.62223l-0.21873,-2.07791l-0.09114,-2.07791z" fill="#b9b9b9" stroke="#000000" stroke-width="0.75" stroke-linecap="round"/><path d="M280.6224,189.67338c0.16364,-0.08441 0.3754,-0.11681 0.48966,-0.05675c0.36087,0.1897 0.25497,1.10144 -0.23653,2.03643c-0.4915,0.93498 -1.18249,1.53916 -1.54336,1.34945c-0.17553,-0.09227 -0.25351,-0.44553 -0.21752,-0.79902" data-paper-data="{&quot;index&quot;:null}" fill="none" stroke="#000000" stroke-width="0.75" stroke-linecap="butt"/><path d="M281.87749,186.48511c0.16914,-0.16575 0.33552,-0.24156 0.47074,-0.19412c0.32148,0.11279 0.34519,0.87945 0.05295,1.71238c-0.29223,0.83293 -0.78975,1.41671 -1.11123,1.30392c-0.152,-0.05333 -0.23743,-0.33011 -0.25438,-0.61367" data-paper-data="{&quot;index&quot;:null}" fill="none" stroke="#000000" stroke-width="0.75" stroke-linecap="butt"/><path d="M281.85565,178.98433l-0.00697,-1.36692l0.01361,-1.75521l0.02721,-1.34702l0.04082,-0.16328l0.09524,-0.13606l0.17688,-0.05443l0.23131,0.01361l0.34016,0.06803l0.17688,0.08164l0.17688,0.23131l0.16328,0.42179l0.2177,0.70753l0.19049,1.41506l0.08164,1.36063v0.52058v2.41429v0.14315l-0.08164,1.36063l-0.19049,1.41506l-0.2177,0.70753l-0.16328,0.42179l-0.17688,0.23131l-0.17688,0.08164l-0.34016,0.06803l-0.23131,0.01361l-0.17688,-0.05443l-0.09524,-0.13606l-0.04082,-0.16328l-0.02721,-1.34702l-0.01361,-1.75521l0.00536,-1.05023z" data-paper-data="{&quot;index&quot;:null}" fill="none" stroke="#000000" stroke-width="0.75" stroke-linecap="round"/><path d="M282.05277,185.81139l-0.31294,1.06129l-0.28573,0.74834l-0.55786,1.37424l-0.53065,1.19735l-0.66671,1.17014l-1.10211,1.5103l-0.46342,0.54526l-0.08164,0.16328l-0.02721,0.13606l0.05443,0.12246l0.10885,0.08164l0.29934,0.05443h0.17688l0.08164,0.04082l-0.01361,0.13606l-0.38098,0.32655l-0.53065,0.31294l-0.68031,0.34016l-0.55786,0.24491" data-paper-data="{&quot;index&quot;:null}" fill="none" stroke="#000000" stroke-width="0.75" stroke-linecap="round"/><path d="M278.50073,192.92849l-3.06141,0.50343l-4.5445,0.57146l-3.0206,0.27213l-4.27237,0.17688l-2.63962,0.05443h-1.11572l-0.68031,-0.02721l-0.29934,-0.04082l-0.39458,-0.10885l-0.14967,-0.04082" fill="none" stroke="#000000" stroke-width="0.75" stroke-linecap="round"/><path d="M253.22811,194.88832c-0.00046,0.01461 -0.02502,0.04051 -0.02502,0.04051l-1.45425,1.20307l-0.46704,-1.87228c0,0 -0.01556,-0.06877 0.02902,-0.10778c0.03504,-0.03066 0.10576,-0.0059 0.10576,-0.0059l1.78871,0.71269c0,0 0.02328,0.01509 0.02282,0.0297z" fill="#333333" stroke="#000000" stroke-width="0.75" stroke-linecap="round"/><path d="M250.42799,196.39668c0.49709,-0.88597 1.1156,-1.48327 1.74579,-1.12969c0.63019,0.35358 0.73809,1.35844 0.241,2.24441c-0.49709,0.88597 -1.41093,1.31757 -2.04112,0.96399c-0.63019,-0.35358 -0.44276,-1.19273 0.05433,-2.07871z" fill="#ccbc9b" stroke="#000000" stroke-width="0" stroke-linecap="butt"/><path d="M219.41961,196.18316l-0.42265,-0.33812l-0.10868,-0.16906l-0.0483,-0.21736v-0.13283l0.06038,-0.36227l0.24151,-0.56755l0.08262,-1.51898" fill="none" stroke="#000000" stroke-width="0.75" stroke-linecap="round"/><path d="M223.52694,191.43895l0.55766,3.09685" fill="none" stroke="#000000" stroke-width="0.75" stroke-linecap="round"/><path d="M223.83164,194.53135l-0.51627,-3.00921" fill="none" stroke="#000000" stroke-width="0.75" stroke-linecap="round"/><path d="M235.63648,190.73071l1.97086,4.154" fill="none" stroke="#000000" stroke-width="0.75" stroke-linecap="round"/><path d="M233.78435,190.70582l1.26868,4.14331" fill="none" stroke="#000000" stroke-width="0.75" stroke-linecap="round"/><path d="M251.13874,195.10298l-0.71348,-1.79795" fill="none" stroke="#000000" stroke-width="0.75" stroke-linecap="round"/><path d="M234.57742,190.53739l1.68639,4.34624l0.04403,0.45385l0.18151,0.53197l0.27832,0.49486" fill="none" stroke="#000000" stroke-width="0.75" stroke-linecap="round"/><path d="M250.1473,198.28958c-0.3421,-0.41526 -0.1434,-1.13704 0.28069,-1.8929c0.39685,-0.70731 0.87109,-1.23063 1.36687,-1.23302l0.04562,0.12145c-0.17478,0.17643 -0.74373,0.76899 -1.03875,1.2948c-0.3236,0.57676 -0.58871,1.55638 -0.62853,1.70738z" fill="#333333" stroke="#000000" stroke-width="0" stroke-linecap="round"/><path d="M250.16804,198.30708c0,0 0.28239,-1.10101 0.63371,-1.72717c0.35132,-0.62616 1.0911,-1.34699 1.0911,-1.34699" fill="none" stroke="#000000" stroke-width="0.75" stroke-linecap="round"/><path d="M250.42799,196.39668c0.49709,-0.88597 1.1156,-1.48327 1.74579,-1.12969c0.63019,0.35358 0.73809,1.35844 0.241,2.24441c-0.49709,0.88597 -1.41093,1.31757 -2.04112,0.96399c-0.63019,-0.35358 -0.44276,-1.19273 0.05433,-2.07871z" fill="none" stroke="#000000" stroke-width="0.75" stroke-linecap="butt"/><path d="M207.66163,178.81351l0.04528,-0.95095l0.10566,-1.76605l0.22642,-1.9019l0.2717,-1.04152l0.28679,-0.84529l0.19623,-0.5585l0.57359,-1.20756l0.2868,-0.52831l0.46793,-0.66416l0.60378,-0.5585l0.42265,-0.24151l0.48302,-0.10566l0.8151,-0.03019l1.11699,0.09057l1.31322,0.22642l3.78871,0.80001l0.70944,0.18113l0.25661,0.09057l0.36227,0.28679l0.21132,0.34717l0.07547,0.33208l0.0151,1.82643l-0.06038,1.87171l-0.15094,1.84153l-0.16604,1.82643l-0.07547,1.55473v0.62206l0.07547,1.55473l0.16604,1.82643l0.15094,1.84153l0.06038,1.87171l-0.0151,1.82643l-0.07547,0.33208l-0.21132,0.34717l-0.36227,0.28679l-0.25661,0.09057l-0.70944,0.18113l-3.78871,0.80001l-1.31322,0.22642l-1.11699,0.09057l-0.8151,-0.03019l-0.48302,-0.10566l-0.42265,-0.24151l-0.60378,-0.5585l-0.46793,-0.66416l-0.2868,-0.52831l-0.57359,-1.20756l-0.19623,-0.5585l-0.28679,-0.84529l-0.2717,-1.04152l-0.22642,-1.9019l-0.10566,-1.76605l-0.04528,-0.95095z" fill="#404040" stroke="#000000" stroke-width="0.75" stroke-linecap="round"/><path d="M224.09658,194.60247l-0.28348,-0.01201l0.01854,-0.0591l-0.51627,-3.00921l-0.01137,-0.05987l0.21053,-0.0686l0.01241,0.04528l0.55766,3.09685z" fill="#333333" stroke="#000000" stroke-width="0" stroke-linecap="round"/><path d="M250.88545,194.97174l-2.75577,0.03051l-5.15564,0.03051l-3.85402,-0.06101l-5.55222,-0.10169l-4.42348,-0.08135l-4.9726,-0.18304l-3.59979,-0.15253l-2.17615,-0.12203l-0.54912,-0.06101l-0.20338,-0.09152l-0.09152,-0.11186l-0.03051,-0.10169l0.02034,-0.10169l0.20338,-0.17287l1.81007,-0.84402l3.15236,-1.18976l0.90503,-0.2949l1.505,-0.33557l0.72199,-0.1322l1.16942,-0.15253l0.90503,-0.07118l1.93209,-0.02034h1.03723h3.48794l5.55222,0.14236l1.42365,0.10169l0.87453,0.08135l1.49483,0.24405l0.86436,0.21355l2.01344,0.61013l1.16943,0.38642l1.80873,0.68646l0.65208,0.28981l0.0483,0.06038l0.60124,1.44589z" fill="none" stroke="#000000" stroke-width="0.25" stroke-linecap="round"/><path d="M197.90245,188.7851c-0.01605,-0.0374 -0.03417,-0.07392 -0.05611,-0.10884c0.02096,0.11399 0.01401,0.26329 0.02239,0.36351c0.00053,-0.00073 0.00106,-0.00151 0.0016,-0.00232c0.02156,-0.03261 0.02134,-0.15589 0.03211,-0.25235zM197.74611,188.65044c0.002,-0.01806 0.00475,-0.03613 0.00837,-0.05423l-0.01561,-0.00287l0.01503,-0.08174c0.00405,-0.02396 0.02557,-0.04155 0.0504,-0.04012c0.01787,0.00103 0.03292,0.01165 0.04041,0.02658l0.02565,0.04893c0.02436,0.02759 0.05174,0.06766 0.07907,0.11486c0.04819,-0.01825 0.09215,0.02458 0.13014,0.09061c0.00292,-0.0169 0.00623,-0.03376 0.00997,-0.05058l-0.0128,-0.00203l0.01504,-0.09489c0.00358,-0.02451 0.02537,-0.04264 0.05057,-0.04119c0.01787,0.00103 0.03292,0.01165 0.04041,0.02658l0.02772,0.05286l-0.00116,0.00061l0.00281,0.00288c0.02284,0.06823 0.05596,0.17519 0.0784,0.28509l0.00194,-0.00745c0.00535,-0.02231 0.02604,-0.03827 0.04974,-0.03691c0.01365,0.00078 0.02564,0.00716 0.03389,0.01678l0.00285,-0.04952c0.00153,-0.02663 0.02437,-0.04698 0.051,-0.04545c0.02533,0.00146 0.04497,0.02218 0.04552,0.04711l0.00202,0.06094c0.01785,0.02637 0.0451,0.07438 0.07304,0.13069c0.00244,-0.03166 0.00717,-0.06033 0.01471,-0.08352c-0.00194,-0.00069 -0.00393,-0.00151 -0.00598,-0.00246c-0.04374,-0.02049 -0.02326,-0.06423 -0.02326,-0.06423l0.02325,-0.04964c0.00789,-0.01792 0.0263,-0.02995 0.047,-0.02876c0.02456,0.00141 0.04378,0.02094 0.04542,0.04486l0.00613,0.07248l-0.0192,0.00162c0.01651,0.15269 -0.01448,0.32398 0.05324,0.44827l-0.00174,0.00925l0.00355,-0.00038l0.00669,0.06191c0.00037,0.00289 0.00047,0.00586 0.0003,0.00887c-0.00153,0.02663 -0.02437,0.04698 -0.051,0.04545c-0.01598,-0.00092 -0.02969,-0.0095 -0.03778,-0.02198l-0.02841,-0.0428l0.0163,-0.01082c-0.05388,-0.07483 -0.08818,-0.17228 -0.1224,-0.2693c-0.00118,0.04163 -0.00365,0.0846 -0.00627,0.13017l-0.00358,0.06222c-0.00153,0.02663 -0.02437,0.04698 -0.051,0.04545c-0.01332,-0.00077 -0.02506,-0.00686 -0.03329,-0.01609l-0.03909,-0.04387l0.02069,-0.01844c-0.01213,-0.0207 -0.02038,-0.04237 -0.02623,-0.065c-0.001,0.0093 -0.00179,0.01862 -0.00231,0.02796l-0.00299,0.05185c-0.00153,0.02663 -0.02437,0.04698 -0.051,0.04545c-0.02324,-0.00134 -0.04169,-0.01889 -0.045,-0.04104l-0.01403,-0.08204c-0.00567,0.0019 -0.0118,0.00278 -0.01813,0.00241c-0.01512,-0.00087 -0.02821,-0.0086 -0.03642,-0.02c-0.00821,0.01717 -0.0262,0.02857 -0.04638,0.02741c-0.01739,-0.001 -0.03211,-0.01109 -0.0398,-0.02538l-0.0467,-0.08364l0.01687,-0.00942l-0.00006,-0.0002l0.00096,-0.0003l0.0006,-0.00033c-0.03344,-0.05604 -0.0578,-0.11567 -0.07996,-0.17611c-0.03203,0.08138 -0.07427,0.15352 -0.09857,0.15602c-0.0006,0.00006 -0.0012,0.00011 -0.00181,0.00016c-0.00794,0.01781 -0.02628,0.02975 -0.04691,0.02856c-0.02005,-0.00115 -0.03653,-0.01438 -0.04281,-0.03221l-0.03371,-0.08936l0.01283,-0.00484c-0.02287,-0.04281 -0.04316,-0.09593 -0.06003,-0.15168c-0.0332,-0.10206 -0.05585,-0.20876 -0.08529,-0.31761l0.00015,-0.00108l-0.00039,0.00009l-0.01682,-0.07457c-0.00115,-0.00462 -0.00164,-0.00949 -0.00135,-0.01449c0.00153,-0.02663 0.02437,-0.04698 0.051,-0.04545c0.02219,0.00128 0.04002,0.01735 0.04446,0.03808l0.02215,0.09292l-0.00008,0.00002c0.00796,0.02674 0.01811,0.05648 0.02905,0.088zM198.39447,188.96304c-0.00015,-0.00028 -0.0003,-0.00056 -0.00045,-0.00084l0.00027,0.00135c0.00006,-0.00017 0.00012,-0.00034 0.00018,-0.00051zM198.1729,188.89896c-0.00166,0.02051 -0.0038,0.04109 -0.00616,0.06148c0.01092,0.0326 0.0205,0.06321 0.02859,0.08897c-0.00759,-0.05002 -0.01434,-0.10029 -0.02244,-0.15045z" fill="#cdcdcd" stroke="none" stroke-width="0.5" stroke-linecap="butt"/><path d="M198.57048,190.25015l0.04681,0.0191c0.04411,0.03697 0.1044,0.08129 0.16229,0.12861c0.02726,-0.01374 0.05444,-0.03356 0.08136,-0.06028l0.02924,-0.03899c0.00827,-0.01127 0.0213,-0.01883 0.03613,-0.01969l-0.00346,-0.02827c-0.0003,-0.00216 -0.00045,-0.00437 -0.00045,-0.00661c0,-0.02668 0.02163,-0.0483 0.0483,-0.0483c0.02073,0 0.03842,0.01306 0.04527,0.03141l0.02036,0.05089l-0.00405,0.00162c0.08479,0.10333 0.15614,0.21994 0.22417,0.34021c0.00206,-0.00606 0.00419,-0.01205 0.00641,-0.01796c-0.0512,-0.14956 -0.08399,-0.30132 -0.08224,-0.45612l-0.01175,0.0009l-0.00694,-0.09022c-0.04753,0.03133 -0.09921,0.05368 -0.15357,0.06791c-0.00251,0.02432 -0.02306,0.04329 -0.04805,0.04329h-0.06233v-0.02018l-0.00338,0.00779c-0.00852,-0.00338 -0.01855,-0.00727 -0.02988,-0.01163c-0.1408,0.00261 -0.29013,-0.03843 -0.42693,-0.11063c0.01025,0.02404 0.02091,0.04796 0.03196,0.07176c0.03089,0.04172 0.05889,0.09212 0.0846,0.14292c0.00927,0.00016 0.01611,0.00244 0.01611,0.00244zM199.84327,190.37233c0.0226,0 0.04157,0.01551 0.04684,0.03647l0.02036,0.07379c0.03713,0.07773 0.10579,0.16795 0.1794,0.2627c-0.14406,-0.37019 -0.33433,-0.68618 -0.54006,-1.01251c-0.09736,-0.10426 -0.20362,-0.20868 -0.3224,-0.32714c0,0 -0.03416,-0.03416 0,-0.06831c0.03416,-0.03416 0.06831,0 0.06831,0c0.01657,0.01661 0.03291,0.03297 0.04904,0.04911c0.0084,-0.00706 0.01924,-0.01132 0.03107,-0.01132c0.00937,0 0.01812,0.00267 0.02553,0.00729l0.05126,0.03076l-0.00202,0.00337l0.00896,0.00168c0.09951,0.122 0.22541,0.20373 0.33459,0.3101l0.00785,-0.00916l0.07247,0.06212c0.01046,0.00886 0.01711,0.02209 0.01711,0.03688c0,0.01452 -0.0064,0.02754 -0.01654,0.03639c0.06894,0.03534 0.16999,0.14016 0.25593,0.25164c0.00875,-0.00884 0.0209,-0.01432 0.03433,-0.01432c0.02172,0 0.04009,0.01433 0.04617,0.03406l0.02284,0.0684c0.00631,0.01862 0.01499,0.03876 0.02522,0.06002c0.02505,0.03561 0.04163,0.07801 0.06688,0.1239l0.03552,0.05807c0.00466,0.00733 0.00739,0.01601 0.00749,0.02531c0.01986,0.03971 0.03745,0.07936 0.04928,0.11727c0.04672,-0.04774 0.12216,-0.00763 0.16659,0.11794c0.06999,0.19779 0.01672,0.5599 -0.05965,0.80596l0.01035,0.00119l-0.01101,0.09537c-0.00247,0.02431 -0.02296,0.04328 -0.04789,0.04336c-0.0135,0.06413 -0.02672,0.13132 -0.0555,0.18698l0.00739,0.00148l-0.00015,0.00074c0.16726,-0.03719 0.00709,0.17154 -0.18755,0.2742c0.00225,0.00558 0.00349,0.01168 0.00349,0.01806c0,0.02537 -0.01956,0.04617 -0.04442,0.04815l-0.09572,0.0087l-0.00071,-0.00783c-0.00765,0.00026 -0.01533,0.00058 -0.02306,0.00095c-0.02668,0.00547 -0.05549,0.01051 -0.09306,0.01817l-0.05096,0.01019c-0.00337,0.00074 -0.00686,0.00113 -0.01045,0.00113c-0.01405,0 -0.02671,-0.006 -0.03553,-0.01558c-0.09096,0.00651 -0.18156,0.00941 -0.26479,-0.00613c0,0 -0.04737,-0.00947 -0.03789,-0.05684c0.00947,-0.04737 0.05684,-0.03789 0.05684,-0.03789c0.10352,0.02263 0.22751,0.00876 0.34541,-0.0021l0.0141,-0.00434l0.00091,0.00297c0.01455,-0.00131 0.02898,-0.00254 0.04326,-0.00362c0.06639,-0.02969 0.14037,-0.0602 0.20582,-0.08607c-0.0016,-0.0048 -0.00247,-0.00994 -0.00247,-0.01528v-0.07908c-0.07569,-0.2173 -0.15139,-0.43426 -0.22935,-0.65028l-0.00372,-0.00319l0.00181,-0.00211c-0.00204,-0.00565 -0.00408,-0.0113 -0.00613,-0.01696c-0.00316,-0.00238 -0.0063,-0.00478 -0.00942,-0.0072c0.0003,0.00936 0.00047,0.01877 0.0005,0.02826c0.02059,0.14237 0.03128,0.2856 0.03128,0.42931v0.05194c0,0.02668 -0.02163,0.0483 -0.0483,0.0483c-0.01928,0 -0.03593,-0.0113 -0.04367,-0.02764l-0.04273,-0.08547l0.00551,-0.00276c-0.07617,-0.10285 -0.1425,-0.21356 -0.20155,-0.3292c0.05077,0.11521 0.09679,0.2317 0.13122,0.35132c0.03056,0.09312 0.08598,0.17009 0.1646,0.22942l0.00269,0.00652l0.00179,-0.00134l0.03087,0.04116c0.00624,0.00814 0.00995,0.01832 0.00995,0.02937c0,0.02668 -0.02163,0.0483 -0.0483,0.0483h-0.07271v-0.01898c-0.17406,-0.01277 -0.32895,-0.13382 -0.46942,-0.28741c-0.01049,-0.00203 -0.0209,-0.00421 -0.03124,-0.00654c0.05136,0.07092 0.11079,0.13627 0.17646,0.18443l0.0411,0.03082c0.01199,0.00879 0.01977,0.02297 0.01977,0.03898c0,0.02668 -0.02163,0.0483 -0.0483,0.0483c-0.01015,0 -0.01957,-0.00313 -0.02734,-0.00848l-0.07983,-0.05322l0.00378,-0.00566c-0.00371,-0.00316 -0.0074,-0.00637 -0.01107,-0.00961c-0.20508,-0.09381 -0.3586,-0.24371 -0.48762,-0.41874c-0.24225,-0.18298 -0.41254,-0.45979 -0.51319,-0.75132c-0.02361,-0.05978 -0.07408,-0.21041 -0.13134,-0.3785c-0.00757,-0.01926 -0.01496,-0.03862 -0.02223,-0.05803c-0.16003,-0.16493 -0.28479,-0.41004 -0.33744,-0.57351c0.02954,-0.19436 0.18333,-0.18281 0.26452,-0.0529c0.21878,0.09052 0.44353,0.262 0.64698,0.34472c0.17387,-0.03223 0.31782,-0.16801 0.37889,-0.35243c0.00692,-0.02078 0.01385,-0.04155 0.02078,-0.06233l-0.00248,-0.01589c0,0 0,-0.0483 0.0483,-0.0483c0.0483,0 0.0483,0.0483 0.0483,0.0483l-0.00248,0.04644c-0.00692,0.02078 -0.01385,0.04155 -0.02078,0.06233c-0.00103,0.00307 -0.00207,0.00612 -0.00313,0.00915c0.01288,0.0003 0.02452,0.00564 0.03301,0.01413l0.04155,0.04155l-0.00083,0.00083l0.00317,0.00167c0.13566,0.1827 0.23286,0.39784 0.33152,0.60452c0.00415,-0.02246 0.02384,-0.03947 0.0475,-0.03947zM200.08874,191.00395c0.02014,0.068 0.03961,0.13519 0.05961,0.19995l0.01983,0.04957c0.00249,0.00582 0.00386,0.01223 0.00386,0.01896c0,0.01596 -0.00774,0.03011 -0.01967,0.03891c0.02941,0.07812 0.05903,0.15629 0.08912,0.23449c0.0043,0.01118 0.00946,0.02344 0.01512,0.03653c-0.00575,-0.13166 -0.01614,-0.26148 -0.03285,-0.3899c-0.04591,-0.05959 -0.0914,-0.12316 -0.13503,-0.1885zM199.66101,190.82066c-0.05165,-0.07294 -0.11837,-0.25252 -0.17103,-0.30989c0.07443,0.23863 0.15244,0.47956 0.27229,0.69436c0.04308,0.07722 0.12126,0.17876 0.17143,0.28009c-0.00527,-0.07687 -0.01352,-0.15354 -0.02435,-0.23015c0.00015,-0.04443 -0.00373,-0.08818 -0.01097,-0.13135c-0.08702,-0.08986 -0.1601,-0.19393 -0.23737,-0.30306zM199.57782,191.31238c-0.01611,-0.01842 -0.03195,-0.03715 -0.04752,-0.05617c-0.00316,0.00065 -0.00644,0.00099 -0.00979,0.00099c-0.00543,0 -0.01066,-0.0009 -0.01553,-0.00255c0.04608,0.05393 0.08848,0.11049 0.12526,0.17041c0.00755,0.01048 0.01472,0.02056 0.02148,0.03018c-0.01521,-0.03544 -0.0312,-0.07091 -0.04773,-0.10643zM199.69784,191.64273c-0.01505,0 -0.02848,-0.00688 -0.03734,-0.01766l-0.0517,-0.06204l0.00075,-0.00063l-0.00235,-0.0014c-0.01292,-0.01932 -0.02638,-0.03828 -0.04033,-0.05692c-0.07529,-0.05921 -0.15542,-0.15828 -0.23,-0.2516c-0.00725,-0.00685 -0.01454,-0.01368 -0.02187,-0.02048c-0.00428,0.0084 -0.01095,0.01538 -0.01911,0.02004c0.08322,0.14085 0.16895,0.26822 0.32803,0.3876l0.00072,0.00106l0.00024,-0.00029l0.06204,0.0517c0.01078,0.00886 0.01766,0.0223 0.01766,0.03734c0,0.0243 -0.01794,0.0444 -0.04129,0.0478c0.05046,0.03246 0.10664,0.05973 0.15819,0.08842c-0.03255,-0.04647 -0.05774,-0.09812 -0.0763,-0.15311c-0.00719,-0.02536 -0.01508,-0.05072 -0.02358,-0.07609c-0.00702,0.00397 -0.01513,0.00624 -0.02377,0.00624zM198.64495,190.41999c-0.00356,-0.0031 -0.00715,-0.00621 -0.01075,-0.00934c0.00146,0.00281 0.00291,0.00557 0.00435,0.00829c0.00213,0.00038 0.00427,0.00073 0.0064,0.00105zM199.1539,191.48665c0.00562,0.00315 0.01143,0.00623 0.01742,0.00925c-0.2009,-0.30485 -0.48084,-0.66484 -0.66507,-1.02558c-0.00242,-0.00134 -0.00484,-0.0027 -0.00726,-0.00408c0.01984,0.04327 0.04149,0.08544 0.06587,0.12592c0.17866,0.2681 0.2873,0.56892 0.47666,0.82627c0.0343,0.02275 0.07161,0.0454 0.11237,0.06821zM199.09779,191.05287l-0.02032,0.00036l-0.00058,-0.03269c-0.04734,-0.04169 -0.09415,-0.08363 -0.13936,-0.12648c0.03871,0.06088 0.0766,0.12164 0.1128,0.18243c0.02127,0.02127 0.04204,0.04298 0.06241,0.06506c-0.00724,-0.02897 -0.01232,-0.05853 -0.01496,-0.08867zM200.32131,191.07474c0.00537,0.01008 0.01045,0.02012 0.01522,0.03009c0.00775,-0.11639 0.01667,-0.22909 0.01902,-0.32493l-0.00303,0.00022l-0.00685,-0.09586c-0.0001,-0.0013 -0.00016,-0.00261 -0.00016,-0.00394c0,-0.00678 0.0014,-0.01323 0.00392,-0.01909c-0.05982,-0.08953 -0.10957,-0.18803 -0.15113,-0.28818c-0.05766,-0.05329 -0.118,-0.1123 -0.17543,-0.17409c0.02592,0.04412 0.05143,0.09031 0.07664,0.13901c0.09072,0.21936 0.15205,0.43977 0.1922,0.66377c0.00994,0.02431 0.01973,0.04868 0.0296,0.073zM198.95528,190.67949c-0.01054,-0.01423 -0.02021,-0.0283 -0.02885,-0.04213l-0.06341,-0.03804l0.00641,-0.01069c-0.0423,-0.02372 -0.08012,-0.04997 -0.11661,-0.07833c-0.01195,0.00301 -0.02388,0.00524 -0.03577,0.00672l0.02018,0.01446c0.04133,0.02965 0.12316,0.08308 0.21804,0.14802zM200.46036,190.81313c0.00008,-0.00125 0.00016,-0.00249 0.00024,-0.00373c-0.00059,0.00019 -0.00118,0.00037 -0.00178,0.00054c0.00052,0.00106 0.00103,0.00212 0.00155,0.00319zM199.59969,191.10186c-0.07227,-0.17234 -0.13308,-0.35086 -0.18985,-0.52708c-0.00623,0.0151 -0.01218,0.02998 -0.01785,0.04471c0.00225,0.00711 0.00458,0.01406 0.00701,0.02081c0.05631,0.15672 0.12862,0.30911 0.20069,0.46156zM199.30188,190.23529c-0.00034,-0.00044 -0.00069,-0.00089 -0.00103,-0.00133c0.02322,0.07005 0.03818,0.14929 0.05319,0.22493c0.00484,-0.00427 0.00983,-0.00832 0.01498,-0.01215c-0.02259,-0.07141 -0.0448,-0.14209 -0.06715,-0.21146zM199.68823,190.4088c-0.05021,-0.10739 -0.10086,-0.21694 -0.15821,-0.32121c0.00144,0.00454 0.00293,0.00882 0.00448,0.0128c0.042,0.10756 0.09662,0.20875 0.15373,0.30841zM199.38745,190.19046c0.03001,0.08758 0.05804,0.17735 0.08617,0.26775c0.07588,0.05812 0.19228,0.18586 0.304,0.32189c-0.15588,-0.31044 -0.3969,-0.6016 -0.41633,-0.91452l-0.01234,0.00206l-0.00344,-0.02063c-0.03235,0.06251 -0.07145,0.11412 -0.11571,0.15577c0.0075,0.00345 0.01396,0.00877 0.0188,0.01536l0.02928,0.03905c0.04179,0.0419 0.07456,0.08557 0.10956,0.13327zM198.15932,189.89322c0.01443,0.03049 0.03069,0.06257 0.04855,0.09524c-0.01506,-0.03251 -0.03112,-0.06433 -0.04855,-0.09524zM198.65523,190.93155c0.04317,0.1096 0.09057,0.20074 0.1561,0.28256c-0.05314,-0.09359 -0.10416,-0.18894 -0.1561,-0.28256z" fill="#903434" stroke="none" stroke-width="0.5" stroke-linecap="butt"/><path d="M208.26483,178.85399l0.07985,-1.95577l0.19163,-1.95577l0.31938,-1.52687l0.49504,-1.47541l0.59086,-1.30385l0.65473,-0.97789l0.63035,-0.52102l0.41738,-0.18684l0.23188,-0.03737l0.49854,-0.02491h0.61448l0.75361,0.06228l1.66954,0.34876l3.15357,0.73488l0.48695,0.19929l0.27826,0.2242l0.25507,0.3363l0.10435,0.37367l0.04637,1.25802l-0.06956,1.96799l-0.09275,1.41994l-0.09275,1.30784l-0.08116,1.41994l-0.03478,1.05873v0.08719v0.62534v0.08719l0.03478,1.05873l0.08116,1.41994l0.09275,1.30784l0.09275,1.41994l0.06956,1.96799l-0.04637,1.25802l-0.10435,0.37367l-0.25507,0.3363l-0.27826,0.2242l-0.48695,0.19929l-3.15357,0.73488l-1.66954,0.34876l-0.75361,0.06228h-0.61448l-0.49854,-0.02491l-0.23188,-0.03737l-0.41738,-0.18684l-0.63035,-0.52102l-0.65473,-0.97789l-0.59086,-1.30385l-0.49504,-1.47541l-0.31938,-1.52687l-0.19163,-1.95577l-0.07985,-1.95577z" fill="#666666" stroke="#000000" stroke-width="0.25" stroke-linecap="round"/><path d="M199.67068,167.63688l0.01491,0.01305c0,0 0.67002,-0.10275 0.90176,0.2495c0.23174,0.35224 0.11871,1.30162 0.11871,1.30162l-0.11924,0.36956l-0.09451,0.20336l-0.24886,0.33372c0,0 -0.45512,0.50379 -1.06612,0.89289c-0.611,0.3891 -1.65514,0.84008 -1.65514,0.84008l-0.23131,0.10885c0,0 -0.0401,0.0075 -0.0475,0.004c-0.00892,-0.00423 -0.00232,-0.0276 -0.00232,-0.0276l0.04982,-0.12607l0.27213,-0.8708l0.34016,-0.78917l0.47622,-1.04769l0.38098,-0.57146l0.39458,-0.48983l0.47148,-0.39066z" data-paper-data="{&quot;index&quot;:null}" fill="#9a3737" stroke="#000000" stroke-width="0" stroke-linecap="round"/><path d="M197.73729,170.80089c0.27136,-0.20716 0.93611,-0.68487 1.22646,-0.62868c0.36946,0.07151 -0.22866,1.06624 -0.22866,1.06624l-0.05242,0.04607c-0.55761,0.29577 -1.16048,0.55615 -1.16048,0.55615l-0.23131,0.10885c0,0 -0.0401,0.0075 -0.0475,0.004c-0.00892,-0.00423 -0.00232,-0.0276 -0.00232,-0.0276l0.04982,-0.12607l0.25382,-0.81223l0.03407,-0.09941z" data-paper-data="{&quot;index&quot;:null}" fill="#d6d6d6" stroke="#000000" stroke-width="0" stroke-linecap="round"/><path d="M250.87395,165.08797l-0.60124,1.44589l-0.0483,0.06038l-0.65208,0.28981l-1.80873,0.68646l-1.16943,0.38642l-2.01344,0.61013l-0.86436,0.21355l-1.49483,0.24405l-0.87453,0.08135l-1.42365,0.10169l-5.55222,0.14236h-3.48794h-1.03723l-1.93209,-0.02034l-0.90503,-0.07118l-1.16942,-0.15253l-0.72199,-0.1322l-1.505,-0.33557l-0.90503,-0.2949l-3.15236,-1.18976l-1.81007,-0.84402l-0.20338,-0.17287l-0.02034,-0.10169l0.03051,-0.10169l0.09152,-0.11186l0.20338,-0.09152l0.54912,-0.06101l2.17615,-0.12203l3.59979,-0.15253l4.9726,-0.18304l4.42348,-0.08135l5.55222,-0.10169l3.85402,-0.06101l5.15564,0.03051l2.75577,0.03051z" data-paper-data="{&quot;index&quot;:null}" fill="#666666" stroke="#000000" stroke-width="0" stroke-linecap="round"/><path d="M219.14187,165.61399l0.08262,1.38951l-0.6748,-0.31575l-0.5916,-0.27409l-0.23987,-0.11188l-0.16905,-0.14763l-0.04026,-0.15526l0.08174,-0.14225l0.19535,-0.09308l0.25574,-0.04724z" data-paper-data="{&quot;index&quot;:null}" fill="#333333" stroke="#000000" stroke-width="0" stroke-linecap="round"/><path d="M234.37114,169.35007h-0.62003l1.30192,-4.19918l-0.08755,-0.04651l2.65535,-0.04863l-0.0135,0.05955l-1.9841,4.1937z" data-paper-data="{&quot;index&quot;:null}" fill="#333333" stroke="#000000" stroke-width="0" stroke-linecap="round"/><path d="M220.50635,170.4714l1.65608,0.15526l2.36336,0.13801l3.34666,0.0345h3.74343l7.1936,-0.31051l6.2103,-0.43127l1.36928,-0.069v0.35487l-1.36928,0.069l-6.2103,0.43127l-7.1936,0.31052h-3.74343l-3.34666,-0.0345l-2.36336,-0.13801l-1.65608,-0.15526" data-paper-data="{&quot;index&quot;:null}" fill="#333333" stroke="#000000" stroke-width="0.75" stroke-linecap="round"/><path d="M280.08855,167.86876c0.00415,-0.00204 0.00831,-0.00406 0.01249,-0.00606c0.60623,-0.29073 1.2698,-0.08792 1.48212,0.45298c0.19841,0.50546 -0.06744,1.12729 -0.59783,1.44385" data-paper-data="{&quot;index&quot;:null}" fill="#ad9f84" stroke="#9f9279" stroke-width="0.25" stroke-linecap="butt"/><g data-paper-data="{&quot;index&quot;:null}"><path d="M279.12754,167.70636c-0.03599,-0.3535 0.02911,-0.61659 0.20463,-0.70886c0.36087,-0.1897 1.05186,0.41447 1.54336,1.34945c0.4915,0.93498 0.5974,1.84672 0.23653,2.03643c-0.11426,0.06006 -0.26162,0.04054 -0.42526,-0.04387l-0.10729,-0.04941l-0.21393,-0.48271l-0.66671,-1.17014l-0.63994,-0.87695z" data-paper-data="{&quot;index&quot;:null}" fill="#cfcfcf" stroke="#000000" stroke-width="0" stroke-linecap="round"/><path d="M279.93518,167.63963c0.04614,0.02265 0.09315,0.05057 0.13854,0.0791l0.02372,0.00593l-0.0005,0.00199l0.00554,-0.00043c0.04441,0.02213 0.08798,0.0541 0.13018,0.09381c0.01905,0.01151 0.03687,0.02164 0.05313,0.02978l0.00142,0.00178l0.00043,-0.0007l0.05455,0.03363c0.01418,0.00842 0.02368,0.02388 0.02368,0.04157c0,0.01251 -0.00475,0.0239 -0.01255,0.03248c0.19187,0.26093 0.33735,0.65904 0.37205,0.94215c0.00104,0.00162 0.00208,0.00325 0.00311,0.00486l0.01181,-0.00295l0.00597,0.02388l0.03235,0.03646c0.00766,0.00855 0.01231,0.01984 0.01231,0.03222c0,0.00213 -0.00014,0.00422 -0.0004,0.00628c0.01727,0.02171 0.03453,0.04296 0.05179,0.06368l0.00044,0.00113l0.00027,-0.0002l0.04091,0.05421c0.00629,0.00816 0.01004,0.01838 0.01004,0.02948c0,0.02384 -0.01727,0.04365 -0.03998,0.04759c0.02108,0.04936 0.03983,0.09922 0.05625,0.14845l-0.00091,0.00409l0.00169,-0.00027l0.00795,0.04916c0.0005,0.00279 0.00076,0.00566 0.00076,0.0086c0,0.00993 -0.00299,0.01915 -0.00813,0.02683c0.04077,0.1148 0.07457,0.23077 0.0901,0.34731l0.011,-0.00254l0.02172,0.09413l-0.02427,0.0056c0.00061,0.01583 0.00082,0.03167 0.00062,0.04751l-0.04448,-0.02118l-0.01309,0.01309l-0.03722,-0.03722c-0.00924,-0.00738 -0.01888,-0.01488 -0.02875,-0.02253l0.00561,0.02802c0.00074,0.00337 0.00113,0.00686 0.00113,0.01045c0,0.02668 -0.02163,0.0483 -0.0483,0.0483c-0.01221,0 -0.02336,-0.00453 -0.03186,-0.012l-0.0414,-0.03596c-0.03787,-0.0329 -0.07632,-0.0654 -0.11448,-0.09819c-0.00324,-0.0015 -0.00628,-0.00335 -0.00908,-0.00549l-0.05113,-0.03835l0.00384,-0.00512c-0.05714,-0.05037 -0.11268,-0.10216 -0.16367,-0.1577c-0.01952,-0.0192 -0.03976,-0.03869 -0.06153,-0.05806l-0.00073,-0.00061l-0.00209,0.00234l-0.07197,-0.06408c-0.01003,-0.00885 -0.01636,-0.0218 -0.01636,-0.03623c0,-0.0205 0.01277,-0.03801 0.03078,-0.04503c-0.12537,-0.16253 -0.24119,-0.33821 -0.29833,-0.5133l-0.01558,0.00668l-0.03763,-0.08781c-0.00278,-0.0061 -0.00433,-0.01287 -0.00433,-0.02001c0,-0.02668 0.02163,-0.0483 0.0483,-0.0483c0.01661,0 0.03127,0.00839 0.03996,0.02116l0.03438,0.04911c0.03295,0.04719 0.09403,0.10606 0.16421,0.17006c-0.12317,-0.17711 -0.23558,-0.36233 -0.31182,-0.55536l-0.00557,0.00371l-0.05116,-0.07673c-0.00535,-0.00777 -0.00848,-0.01719 -0.00848,-0.02734c0,-0.02668 0.02163,-0.0483 0.0483,-0.0483c0.01334,0 0.02541,0.00541 0.03416,0.01415l0.03474,0.03474c0.08628,0.08636 0.16994,0.17158 0.25427,0.25563c-0.00404,-0.00629 -0.00805,-0.0126 -0.01204,-0.01892c-0.06762,-0.08129 -0.12824,-0.16299 -0.17285,-0.24056c-0.11404,-0.12507 -0.2135,-0.2492 -0.2688,-0.36461c-0.01878,-0.0162 -0.03751,-0.03192 -0.05625,-0.04694l-0.00123,-0.00254l-0.00071,0.00071l-0.05152,-0.05152c-0.00874,-0.00874 -0.01415,-0.02082 -0.01415,-0.03416c0,-0.02668 0.02163,-0.0483 0.0483,-0.0483c0.00967,0 0.01868,0.00284 0.02623,0.00774l0.08129,0.05081l-0.01007,0.01611c0.0012,0.00094 0.00241,0.00187 0.00361,0.00281c0.05257,0.02915 0.10471,0.06536 0.15607,0.10694c0.01304,0.00292 0.02408,0.01112 0.03078,0.02223l0.00395,0.00631c0.05477,0.03708 0.1111,0.07479 0.16581,0.11321c0.00337,-0.00818 0.00893,-0.01523 0.01594,-0.02043c-0.14414,-0.13103 -0.30781,-0.24599 -0.44059,-0.38405c-0.00154,-0.00119 -0.00307,-0.00237 -0.00461,-0.00356l-0.00587,0.00782l-0.07683,-0.05762c-0.00007,-0.00005 -0.00014,-0.0001 -0.00021,-0.00016l-0.01601,-0.00727c-0.01724,-0.00738 -0.02931,-0.02449 -0.02931,-0.04443c0,-0.001 0.00003,-0.00198 0.00009,-0.00297c-0.06265,-0.01562 -0.1257,-0.03284 -0.17125,-0.05358c-0.01892,-0.00373 -0.03784,-0.00748 -0.05675,-0.01127l-0.06728,-0.01346c-0.02257,-0.00405 -0.03971,-0.0238 -0.03971,-0.04754c0,-0.02668 0.02163,-0.0483 0.0483,-0.0483v0h0.05152v0.00935l0.02611,0.00522c0.00756,0.00151 0.01512,0.00302 0.02269,0.00452c0.07607,0.0014 0.15753,0.01937 0.23525,0.04469c0.15488,0.02762 0.31039,0.05096 0.4674,0.06522c0,0 0.0481,0.00437 0.04373,0.05248c-0.00437,0.0481 -0.05248,0.04373 -0.05248,0.04373c-0.06032,-0.00549 -0.12043,-0.01229 -0.18036,-0.02014c0.00077,0.00343 0.00118,0.00701 0.00118,0.01067c0,0.0082 -0.00204,0.01592 -0.00564,0.02268zM280.67127,169.65684c-0.0031,-0.00502 -0.00612,-0.00965 -0.00905,-0.01379l-0.03244,-0.03559c-0.0079,-0.0086 -0.01272,-0.02007 -0.01272,-0.03266c0,-0.02668 0.02163,-0.0483 0.0483,-0.0483c0.01334,0 0.02541,0.00541 0.03416,0.01415l0.06831,0.06831l-0.00675,0.00675c0.00323,0.00459 0.00641,0.00913 0.00953,0.01363c0.03507,0.0275 0.06784,0.05656 0.10138,0.08641c-0.06916,-0.12959 -0.12095,-0.31146 -0.16466,-0.47513c-0.03505,-0.05153 -0.06862,-0.10672 -0.10089,-0.16431c-0.07652,-0.05115 -0.15315,-0.11795 -0.22741,-0.19098c0.11793,0.20189 0.22606,0.40413 0.29324,0.49369l0.00023,0.00081l0.00023,-0.00016l0.04474,0.06392c0.00571,0.00793 0.00907,0.01767 0.00907,0.02818c0,0.02668 -0.02163,0.0483 -0.0483,0.0483c-0.01334,0 -0.02541,-0.00541 -0.03416,-0.01415l-0.0644,-0.0644l0.00543,-0.00543c-0.04077,-0.02675 -0.0809,-0.05589 -0.12019,-0.08694c0.06028,0.10009 0.11709,0.19602 0.16825,0.26961c0.01286,0.0125 0.02558,0.02527 0.03809,0.03809zM280.24876,167.97229c-0.00458,-0.00635 -0.00927,-0.01261 -0.01409,-0.01876l-0.00494,-0.00135c0.0064,0.00669 0.01274,0.0134 0.01903,0.02011zM280.21462,167.93649l0.00138,-0.00505c-0.00265,-0.00054 -0.00529,-0.0011 -0.00792,-0.00167c0.00219,0.00224 0.00437,0.00448 0.00654,0.00672z" fill="#c7c7c7" stroke="none" stroke-width="0.5" stroke-linecap="butt"/></g><path d="M281.82317,171.51085c0.00468,-0.00177 0.00937,-0.00351 0.01408,-0.00523c0.54929,-0.20011 1.1063,0.03173 1.24412,0.51783c0.13377,0.47186 -0.17661,1.00985 -0.69732,1.224" data-paper-data="{&quot;index&quot;:null}" fill="#ad9f84" stroke="#9f9279" stroke-width="0.25" stroke-linecap="butt"/><g data-paper-data="{&quot;index&quot;:null}" stroke-linecap="butt"><path d="M281.03558,171.2291c0.01695,-0.28356 0.10238,-0.48306 0.25438,-0.53639c0.32148,-0.11279 0.81899,0.47099 1.11123,1.30392c0.29223,0.83293 0.26853,1.59959 -0.05295,1.71238c-0.10173,0.03569 -0.22109,0.00163 -0.34599,-0.088l-0.16947,-0.17849l-0.09294,-0.31519l-0.28573,-0.74834l-0.45017,-1.10897z" data-paper-data="{&quot;index&quot;:null}" fill="#cfcfcf" stroke="#000000" stroke-width="0"/><path d="M281.58583,171.1623c0.02009,-0.01991 0.05562,-0.02878 0.11318,-0.02c0.05888,0.00898 0.13216,0.09013 0.20528,0.20091c0.03535,0.02402 0.07035,0.04965 0.10507,0.07741c0,0 0.03772,0.03017 0.00754,0.06789c-0.00562,0.00703 -0.0115,0.0117 -0.01735,0.01465c0.07666,0.14054 0.14547,0.29408 0.18746,0.40514l0.01571,-0.00786l0.03821,0.07641c0.00353,0.00671 0.00553,0.01436 0.00553,0.02247c0,0.02668 -0.02163,0.0483 -0.0483,0.0483c-0.01222,0 -0.02338,-0.00454 -0.03188,-0.01202l-0.03531,-0.03071c-0.03581,-0.02145 -0.08252,-0.05388 -0.13119,-0.09295c0.0929,0.15127 0.18556,0.30362 0.25397,0.46148l0.00643,-0.00445l0.05464,0.07893c0.00562,0.0079 0.00893,0.01756 0.00893,0.02799c0,0.00926 -0.0026,0.0179 -0.00712,0.02525l0.00023,0.00017c0.01199,0.00879 0.01977,0.02298 0.01977,0.03898c0,0.02668 -0.02163,0.0483 -0.0483,0.0483c-0.00714,0 -0.01391,-0.00155 -0.02001,-0.00433l-0.08781,-0.03763l0.00834,-0.01945c-0.02772,-0.0109 -0.05502,-0.02367 -0.08189,-0.03799c0.03837,0.08456 0.07251,0.17132 0.09398,0.25129c0.04484,0.08019 0.08316,0.14879 0.11138,0.19219c0.03596,0.05531 0.27323,0.25821 0.19147,0.33633c-0.05547,0.05301 -0.15305,-0.02247 -0.19365,-0.04661c-0.05584,-0.05551 -0.11025,-0.1129 -0.16412,-0.17119c-0.01124,0.00332 -0.02402,0.00292 -0.03794,-0.0006c0.05626,0.10833 0.10139,0.20286 0.12042,0.24092l0.02533,0.05065c0.00353,0.00671 0.00553,0.01436 0.00553,0.02247c0,0.02668 -0.02163,0.0483 -0.0483,0.0483c-0.00442,0 -0.0087,-0.00059 -0.01277,-0.0017l-0.05047,-0.01262l0.00448,-0.01793c-0.25883,-0.07985 -0.40337,-0.47802 -0.4649,-0.71364l0.00017,-0.00146l-0.00046,0.00009l-0.01268,-0.06342c-0.00074,-0.00337 -0.00113,-0.00686 -0.00113,-0.01045c0,-0.00938 0.00267,-0.01813 0.00729,-0.02553l-0.00176,-0.00352c-0.00353,-0.00671 -0.00553,-0.01436 -0.00553,-0.02247c0,-0.02668 0.02163,-0.0483 0.0483,-0.0483c0.01105,0 0.02123,0.00371 0.02937,0.00995l0.05113,0.03835l-0.00074,0.00098l0.0034,0.00117c0.07041,0.07023 0.13825,0.14284 0.20516,0.21601c-0.01726,-0.04889 -0.0337,-0.10164 -0.04977,-0.15585c-0.10332,-0.15579 -0.20582,-0.31878 -0.30237,-0.47904l-0.07083,-0.06197c-0.01023,-0.00886 -0.0167,-0.02194 -0.0167,-0.03653c0,-0.02668 0.02163,-0.0483 0.0483,-0.0483c0.01105,0 0.02123,0.00371 0.02937,0.00995l0.05113,0.03835l-0.00089,0.00119l0.00356,0.00096c0.0142,0.0142 0.03007,0.02854 0.04722,0.043c-0.17526,-0.19199 -0.34323,-0.39864 -0.43212,-0.57559l-0.0074,0.00555l-0.03835,-0.05113c-0.00624,-0.00814 -0.00995,-0.01832 -0.00995,-0.02937c0,-0.02668 0.02163,-0.0483 0.0483,-0.0483c0.00811,0 0.01576,0.002 0.02247,0.00553l0.05065,0.02533l-0.00031,0.00062l0.00197,0.00025c0.00983,0.00591 0.02047,0.01204 0.03177,0.01839c-0.07646,-0.14207 -0.069,-0.21024 -0.02483,-0.22897l-0.0251,-0.01255c-0.01634,-0.00775 -0.02764,-0.02439 -0.02764,-0.04367c0,-0.02668 0.02163,-0.0483 0.0483,-0.0483c0.00359,0 0.00708,0.00039 0.01045,0.00113l0.06342,0.01268l-0.00052,0.00259l0.00672,-0.00092c0.0404,0.01988 0.08005,0.03928 0.11907,0.05878zM282.21059,172.97906c0.05229,0.05681 0.10502,0.11284 0.15898,0.16721c0.1116,0.06782 -0.02846,-0.07419 -0.14929,-0.20261c-0.00226,0.01253 -0.00546,0.02436 -0.00969,0.0354zM281.56426,171.64328c0.01239,0.01448 0.02398,0.02701 0.03449,0.03625c0.11507,0.10115 0.21087,0.21691 0.30231,0.33541c-0.04514,-0.08869 -0.08651,-0.17892 -0.12207,-0.25731c-0.07505,-0.02467 -0.14561,-0.06714 -0.21472,-0.11435zM281.68767,171.32491c0.01056,0.02516 0.02714,0.06138 0.05073,0.11058l0.04686,0.08201c0.00255,0.00428 0.00446,0.00898 0.00559,0.01397l0.01739,0.02029l-0.0078,0.00669c0.00437,0.00627 0.00866,0.0124 0.01285,0.01835c0.07873,0.07492 0.14752,0.1596 0.22593,0.23441c-0.10224,-0.14379 -0.2345,-0.35402 -0.30887,-0.46233c-0.01416,-0.00813 -0.02838,-0.0161 -0.04268,-0.02396zM281.52051,171.41028l0.0366,0.06219c0,0 0.00799,0.01358 0.00709,0.0298c0.03554,0.01975 0.07165,0.04065 0.10591,0.06255c-0.07332,-0.09642 -0.14276,-0.19979 -0.21518,-0.29848c-0.01615,-0.00699 -0.00181,0.02952 0.06558,0.14394z" fill="#c7c7c7" stroke="none" stroke-width="0.5"/></g><path d="M254.66751,165.0407l-2.90421,1.14934c0,0 -2.15762,0.84245 -3.68733,1.44365c-1.91517,0.7527 -4.01039,1.28603 -4.01039,1.28603l-2.27965,0.36715l-1.87368,0.11174l-4.85596,0.14367l-4.69982,0.04789l-2.5607,-0.07981l-1.40526,-0.11174l-1.17105,-0.19156l-1.79561,-0.39908l-2.93544,-1.05356l-2.7793,-1.26108l-0.24982,-0.19156l-0.1093,-0.12771l-0.02034,-0.15526l0.03195,-0.14225l0.12563,-0.17275l0.36529,-0.15679c0,0 1.58082,-0.12495 3.4984,-0.21189c5.70688,-0.25876 11.36326,-0.36266 11.36326,-0.36266l10.21157,-0.18718l5.29315,0.04789l5.05895,0.07981l2.01421,0.09578l0.39035,0.06385l0.20298,0.04789l0.20298,0.12771l0.18737,0.22348" data-paper-data="{&quot;index&quot;:null}" fill="none" stroke="#000000" stroke-width="0.75" stroke-linecap="round"/><path d="M207.69992,164.43678l-4.93467,1.61878l-1.63739,0.58751l-1.26539,0.53065l-0.23131,0.17688l-0.05443,0.09524v0.10885l0.10885,0.09524c0,0 0.67002,-0.10275 0.90176,0.2495c0.23174,0.35224 0.11871,1.30162 0.11871,1.30162l-0.11924,0.36956l-0.09451,0.20336l-0.24886,0.33372c0,0 -0.45512,0.50379 -1.06612,0.89289c-0.611,0.3891 -1.65514,0.84008 -1.65514,0.84008l-0.23131,0.10885c0,0 -0.0401,0.0075 -0.0475,0.004c-0.00892,-0.00423 -0.00232,-0.0276 -0.00232,-0.0276l0.04982,-0.12607l0.27213,-0.8708l0.34016,-0.78917l0.47622,-1.04769l0.38098,-0.57146l0.39458,-0.48983l0.47622,-0.39458" data-paper-data="{&quot;index&quot;:null}" fill="none" stroke="#000000" stroke-width="0.75" stroke-linecap="round"/><path d="M200.70098,169.31067l2.92356,-0.30507l4.24552,-0.35591l1.29654,-0.07627h1.55076" data-paper-data="{&quot;index&quot;:null}" fill="none" stroke="#000000" stroke-width="0.75" stroke-linecap="round"/><path d="M197.61863,170.89368c0,0 0.97567,-0.79299 1.34513,-0.72148c0.36946,0.07151 -0.22866,1.06624 -0.22866,1.06624" data-paper-data="{&quot;index&quot;:null}" fill="none" stroke="#000000" stroke-width="0.5" stroke-linecap="round"/><path d="M247.44022,179.42117v-1.17536l-0.0966,-1.59398l-0.0966,-1.32026l-0.0966,-1.78719l-0.16101,-1.78719l-0.0966,-1.73888l0.0483,-0.45082l0.20931,-0.35422l0.78894,-0.40252l4.154,-1.57788l2.78543,-0.86944l0.98215,-0.22541l0.77284,-0.0483h0.59573l0.33812,0.0483l0.28981,0.1127l0.53133,0.59573l0.56353,0.75674l0.45082,0.74063l0.78894,1.62618l0.59573,1.73888l0.46692,1.93209l0.27371,1.77109l0.12881,1.78719l0.1127,2.30241v0.99665l-0.1127,2.30241l-0.12881,1.78719l-0.27371,1.77109l-0.46692,1.93209l-0.59573,1.73888l-0.78894,1.62618l-0.45082,0.74063l-0.56353,0.75674l-0.53133,0.59573l-0.28981,0.1127l-0.33812,0.0483h-0.59573l-0.77284,-0.0483l-0.98215,-0.22541l-2.78543,-0.86944l-4.154,-1.57788l-0.78894,-0.40252l-0.20931,-0.35422l-0.0483,-0.45082l0.0966,-1.73888l0.16101,-1.78719l0.0966,-1.78719l0.0966,-1.32026l0.0966,-1.59398v-1.17536z" data-paper-data="{&quot;index&quot;:null}" fill="#666666" stroke="#000000" stroke-width="0.25" stroke-linecap="round"/><path d="M279.11466,167.79653c-0.03599,-0.3535 0.04199,-0.70675 0.21752,-0.79902c0.36087,-0.1897 1.05186,0.41447 1.54336,1.34945c0.4915,0.93498 0.5974,1.84672 0.23653,2.03643c-0.11426,0.06006 -0.32602,0.02766 -0.48966,-0.05675" data-paper-data="{&quot;index&quot;:null}" fill="none" stroke="#000000" stroke-width="0.75" stroke-linecap="butt"/><path d="M281.03558,171.30639c0.01695,-0.28356 0.10238,-0.56034 0.25438,-0.61367c0.32148,-0.11279 0.81899,0.47099 1.11123,1.30392c0.29223,0.83293 0.26853,1.59959 -0.05295,1.71238c-0.13523,0.04744 -0.3016,-0.02836 -0.47074,-0.19412" data-paper-data="{&quot;index&quot;:null}" fill="none" stroke="#000000" stroke-width="0.75" stroke-linecap="butt"/><path d="M276.58224,164.62238l0.55786,0.24491l0.68031,0.34016l0.53065,0.31294l0.38098,0.32655l0.01361,0.13606l-0.08164,0.04082h-0.17688l-0.29934,0.05443l-0.10885,0.08164l-0.05443,0.12246l0.02721,0.13606l0.08164,0.16328l0.46342,0.54526l1.10211,1.5103l0.66671,1.17014l0.53065,1.19735l0.55786,1.37424l0.28573,0.74834l0.31294,1.06129" data-paper-data="{&quot;index&quot;:null}" fill="none" stroke="#000000" stroke-width="0.75" stroke-linecap="round"/><path d="M258.3226,165.71088l0.14967,-0.04082l0.39458,-0.10885l0.29934,-0.04082l0.68031,-0.02721h1.11572l2.63962,0.05443l4.27237,0.17688l3.0206,0.27213l4.5445,0.57146l3.06141,0.50343" data-paper-data="{&quot;index&quot;:null}" fill="none" stroke="#000000" stroke-width="0.75" stroke-linecap="round"/><path d="M253.2281,165.11168c0.00046,0.01461 -0.02282,0.0297 -0.02282,0.0297l-1.78871,0.71269c0,0 -0.07071,0.02477 -0.10576,-0.0059c-0.04458,-0.03901 -0.02902,-0.10778 -0.02902,-0.10778l0.46704,-1.87228l1.45425,1.20307c0,0 0.02456,0.0259 0.02502,0.04051z" data-paper-data="{&quot;index&quot;:null}" fill="#333333" stroke="#000000" stroke-width="0.75" stroke-linecap="round"/><path d="M250.37366,161.52463c0.63019,-0.35358 1.54403,0.07801 2.04112,0.96399c0.49709,0.88597 0.38919,1.89083 -0.241,2.24441c-0.63019,0.35358 -1.2487,-0.24371 -1.74579,-1.12969c-0.49709,-0.88597 -0.68453,-1.72513 -0.05433,-2.07871z" data-paper-data="{&quot;index&quot;:null}" fill="#ccbc9b" stroke="#000000" stroke-width="0" stroke-linecap="butt"/><path d="M219.22449,167.12301l-0.08262,-1.51898l-0.24151,-0.56755l-0.06038,-0.36227v-0.13283l0.0483,-0.21736l0.10868,-0.16906l0.42265,-0.33812" data-paper-data="{&quot;index&quot;:null}" fill="none" stroke="#000000" stroke-width="0.75" stroke-linecap="round"/><path d="M224.0846,165.46422l-0.55766,3.09685" data-paper-data="{&quot;index&quot;:null}" fill="none" stroke="#000000" stroke-width="0.75" stroke-linecap="round"/><path d="M223.31537,168.47786l0.51627,-3.00921" data-paper-data="{&quot;index&quot;:null}" fill="none" stroke="#000000" stroke-width="0.75" stroke-linecap="round"/><path d="M237.60734,165.11529l-1.97086,4.154" data-paper-data="{&quot;index&quot;:null}" fill="none" stroke="#000000" stroke-width="0.75" stroke-linecap="round"/><path d="M235.05303,165.15088l-1.26868,4.14331" data-paper-data="{&quot;index&quot;:null}" fill="none" stroke="#000000" stroke-width="0.75" stroke-linecap="round"/><path d="M251.13874,164.89702l-0.71348,1.79795" data-paper-data="{&quot;index&quot;:null}" fill="none" stroke="#000000" stroke-width="0.75" stroke-linecap="round"/><path d="M236.76767,163.63571l-0.27832,0.49486l-0.18151,0.53197l-0.04403,0.45385l-1.68639,4.34624" data-paper-data="{&quot;index&quot;:null}" fill="none" stroke="#000000" stroke-width="0.75" stroke-linecap="round"/><path d="M250.17321,161.71272c0.03982,0.151 0.30493,1.13062 0.62853,1.70738c0.29502,0.52581 0.86396,1.11838 1.03875,1.2948l-0.04562,0.12145c-0.49579,-0.00239 -0.97002,-0.52571 -1.36687,-1.23302c-0.42409,-0.75586 -0.62279,-1.47764 -0.28069,-1.8929z" data-paper-data="{&quot;index&quot;:null}" fill="#333333" stroke="#000000" stroke-width="0" stroke-linecap="round"/><path d="M251.89285,164.76709c0,0 -0.73978,-0.72082 -1.0911,-1.34699c-0.35132,-0.62616 -0.63371,-1.72717 -0.63371,-1.72717" data-paper-data="{&quot;index&quot;:null}" fill="none" stroke="#000000" stroke-width="0.75" stroke-linecap="round"/><path d="M250.37366,161.52463c0.63019,-0.35358 1.54403,0.07801 2.04112,0.96399c0.49709,0.88597 0.38919,1.89083 -0.241,2.24441c-0.63019,0.35358 -1.2487,-0.24371 -1.74579,-1.12969c-0.49709,-0.88597 -0.68453,-1.72513 -0.05433,-2.07871z" data-paper-data="{&quot;index&quot;:null}" fill="none" stroke="#000000" stroke-width="0.75" stroke-linecap="butt"/><path d="M224.0846,165.46422l-0.55766,3.09685l-0.01241,0.04528l-0.21053,-0.0686l0.01137,-0.05987l0.51627,-3.00921l-0.01854,-0.0591l0.28348,-0.01201z" data-paper-data="{&quot;index&quot;:null}" fill="#333333" stroke="#000000" stroke-width="0" stroke-linecap="round"/><path d="M250.87395,165.08796l-0.60124,1.44589l-0.0483,0.06038l-0.65208,0.28981l-1.80873,0.68646l-1.16943,0.38642l-2.01344,0.61013l-0.86436,0.21355l-1.49483,0.24405l-0.87453,0.08135l-1.42365,0.10169l-5.55222,0.14236h-3.48794h-1.03723l-1.93209,-0.02034l-0.90503,-0.07118l-1.16942,-0.15253l-0.72199,-0.1322l-1.505,-0.33557l-0.90503,-0.2949l-3.15236,-1.18976l-1.81007,-0.84402l-0.20338,-0.17287l-0.02034,-0.10169l0.03051,-0.10169l0.09152,-0.11186l0.20338,-0.09152l0.54912,-0.06101l2.17615,-0.12203l3.59979,-0.15253l4.9726,-0.18304l4.42348,-0.08135l5.55222,-0.10169l3.85402,-0.06101l5.15564,0.03051l2.75577,0.03051z" data-paper-data="{&quot;index&quot;:null}" fill="none" stroke="#000000" stroke-width="0.25" stroke-linecap="round"/><path d="M197.90245,171.21492c-0.01078,-0.09646 -0.01055,-0.21974 -0.03211,-0.25235c-0.00054,-0.00082 -0.00107,-0.00159 -0.0016,-0.00232c-0.00838,0.10023 -0.00144,0.24953 -0.02239,0.36351c0.02194,-0.03493 0.04006,-0.07145 0.05611,-0.10884zM197.74612,171.34959c-0.01094,0.03153 -0.02109,0.06127 -0.02905,0.088l0.00008,0.00002l-0.02215,0.09292c-0.00444,0.02073 -0.02227,0.0368 -0.04446,0.03808c-0.02663,0.00153 -0.04947,-0.01881 -0.051,-0.04545c-0.00029,-0.005 0.0002,-0.00987 0.00135,-0.01449l0.01682,-0.07457l0.00039,0.00009l-0.00015,-0.00108c0.02944,-0.10885 0.05209,-0.21556 0.08529,-0.31761c0.01686,-0.05575 0.03715,-0.10888 0.06003,-0.15168l-0.01283,-0.00484l0.03371,-0.08936c0.00627,-0.01783 0.02276,-0.03105 0.04281,-0.03221c0.02063,-0.00119 0.03897,0.01075 0.04691,0.02856c0.0006,0.00004 0.0012,0.0001 0.00181,0.00016c0.02429,0.0025 0.06653,0.07464 0.09857,0.15602c0.02216,-0.06043 0.04652,-0.12007 0.07996,-0.17611l-0.0006,-0.00033l-0.00096,-0.0003l0.00006,-0.0002l-0.01687,-0.00942l0.0467,-0.08364c0.00769,-0.0143 0.0224,-0.02438 0.0398,-0.02538c0.02018,-0.00116 0.03817,0.01024 0.04638,0.02741c0.00822,-0.01139 0.02131,-0.01913 0.03642,-0.02c0.00634,-0.00037 0.01246,0.00051 0.01813,0.00241l0.01403,-0.08204c0.00331,-0.02215 0.02176,-0.0397 0.045,-0.04104c0.02663,-0.00153 0.04947,0.01881 0.051,0.04545l0.00299,0.05185c0.00052,0.00934 0.00131,0.01866 0.00231,0.02796c0.00586,-0.02262 0.0141,-0.0443 0.02623,-0.065l-0.02069,-0.01844l0.03909,-0.04387c0.00822,-0.00923 0.01997,-0.01532 0.03329,-0.01609c0.02663,-0.00153 0.04947,0.01881 0.051,0.04545l0.00358,0.06222c0.00262,0.04557 0.00509,0.08854 0.00627,0.13017c0.03422,-0.09702 0.06853,-0.19447 0.1224,-0.2693l-0.0163,-0.01082l0.02841,-0.0428c0.00809,-0.01247 0.0218,-0.02106 0.03778,-0.02198c0.02663,-0.00153 0.04947,0.01881 0.051,0.04545c0.00017,0.00301 0.00007,0.00598 -0.0003,0.00887l-0.00669,0.06191l-0.00355,-0.00038l0.00174,0.00925c-0.06772,0.12429 -0.03673,0.29558 -0.05324,0.44827l0.0192,0.00162l-0.00613,0.07248c-0.00164,0.02392 -0.02086,0.04344 -0.04542,0.04486c-0.0207,0.00119 -0.0391,-0.01084 -0.047,-0.02876l-0.02325,-0.04964c0,0 -0.02049,-0.04374 0.02326,-0.06423c0.00204,-0.00096 0.00404,-0.00177 0.00598,-0.00246c-0.00754,-0.02319 -0.01227,-0.05186 -0.01471,-0.08352c-0.02795,0.05631 -0.05519,0.10432 -0.07304,0.13069l-0.00202,0.06094c-0.00054,0.02493 -0.02019,0.04566 -0.04552,0.04711c-0.02663,0.00153 -0.04947,-0.01881 -0.051,-0.04545l-0.00285,-0.04952c-0.00825,0.00962 -0.02024,0.01599 -0.03389,0.01678c-0.0237,0.00137 -0.0444,-0.0146 -0.04974,-0.03691l-0.00194,-0.00745c-0.02245,0.1099 -0.05557,0.21685 -0.0784,0.28509l-0.00281,0.00288l0.00116,0.00061l-0.02772,0.05286c-0.0075,0.01493 -0.02254,0.02555 -0.04041,0.02658c-0.02519,0.00145 -0.04699,-0.01668 -0.05057,-0.04119l-0.01504,-0.09489l0.0128,-0.00203c-0.00374,-0.01682 -0.00705,-0.03367 -0.00997,-0.05058c-0.03799,0.06603 -0.08195,0.10886 -0.13014,0.09061c-0.02733,0.0472 -0.0547,0.08727 -0.07907,0.11486l-0.02565,0.04893c-0.0075,0.01493 -0.02254,0.02555 -0.04041,0.02658c-0.02483,0.00143 -0.04635,-0.01615 -0.0504,-0.04012l-0.01503,-0.08174l0.01561,-0.00287c-0.00363,-0.01811 -0.00638,-0.03617 -0.00837,-0.05423zM198.39447,171.03698c-0.00006,-0.00017 -0.00012,-0.00034 -0.00018,-0.00051l-0.00027,0.00135c0.00015,-0.00028 0.0003,-0.00056 0.00045,-0.00084zM198.17289,171.10105c0.00809,-0.05016 0.01484,-0.10043 0.02244,-0.15045c-0.00809,0.02575 -0.01767,0.05637 -0.02859,0.08897c0.00236,0.0204 0.0045,0.04097 0.00616,0.06148z" data-paper-data="{&quot;index&quot;:null}" fill="#cdcdcd" stroke="none" stroke-width="0.5" stroke-linecap="butt"/><path d="M198.57048,169.74986c0,0 -0.00684,0.00228 -0.01611,0.00244c-0.02571,0.0508 -0.05371,0.10119 -0.0846,0.14292c-0.01105,0.0238 -0.02172,0.04772 -0.03196,0.07176c0.13681,-0.0722 0.28613,-0.11324 0.42693,-0.11063c0.01133,-0.00436 0.02136,-0.00825 0.02988,-0.01163l0.00338,0.00779v-0.02018h0.06233c0.02498,0 0.04554,0.01897 0.04805,0.04329c0.05436,0.01424 0.10604,0.03659 0.15357,0.06791l0.00694,-0.09022l0.01175,0.0009c-0.00174,-0.1548 0.03104,-0.30656 0.08224,-0.45612c-0.00222,-0.00591 -0.00435,-0.0119 -0.00641,-0.01796c-0.06803,0.12028 -0.13939,0.23689 -0.22417,0.34021l0.00405,0.00162l-0.02036,0.05089c-0.00685,0.01835 -0.02453,0.03141 -0.04527,0.03141c-0.02668,0 -0.0483,-0.02163 -0.0483,-0.0483c0,-0.00224 0.00015,-0.00445 0.00045,-0.00661l0.00346,-0.02827c-0.01483,-0.00086 -0.02787,-0.00842 -0.03613,-0.01969l-0.02924,-0.03899c-0.02692,-0.02672 -0.0541,-0.04654 -0.08136,-0.06028c-0.05789,0.04732 -0.11818,0.09164 -0.16229,0.12861l-0.04681,0.0191zM199.84327,169.62769c-0.02366,0 -0.04335,-0.01701 -0.0475,-0.03947c-0.09866,0.20669 -0.19585,0.42182 -0.33152,0.60452l-0.00317,0.00167l0.00083,0.00083l-0.04155,0.04155c-0.00849,0.00849 -0.02012,0.01383 -0.03301,0.01413c0.00105,0.00303 0.0021,0.00608 0.00313,0.00915c0.00693,0.02078 0.01385,0.04155 0.02078,0.06233l0.00248,0.04644c0,0 0,0.0483 -0.0483,0.0483c-0.0483,0 -0.0483,-0.0483 -0.0483,-0.0483l0.00248,-0.01589c-0.00693,-0.02078 -0.01385,-0.04155 -0.02078,-0.06233c-0.06107,-0.18441 -0.20502,-0.3202 -0.37889,-0.35243c-0.20345,0.08273 -0.4282,0.2542 -0.64698,0.34472c-0.08119,0.12991 -0.23498,0.14146 -0.26452,-0.0529c0.05265,-0.16348 0.17741,-0.40859 0.33744,-0.57351c0.00727,-0.01942 0.01466,-0.03878 0.02223,-0.05803c0.05726,-0.16809 0.10773,-0.31872 0.13134,-0.3785c0.10064,-0.29153 0.27094,-0.56835 0.51319,-0.75132c0.12903,-0.17503 0.28254,-0.32493 0.48762,-0.41874c0.00367,-0.00324 0.00736,-0.00645 0.01107,-0.00961l-0.00378,-0.00566l0.07983,-0.05322c0.00777,-0.00535 0.01719,-0.00848 0.02734,-0.00848c0.02668,0 0.0483,0.02163 0.0483,0.0483c0,0.01601 -0.00778,0.03019 -0.01977,0.03898l-0.0411,0.03082c-0.06567,0.04816 -0.12509,0.11351 -0.17646,0.18443c0.01033,-0.00232 0.02074,-0.00451 0.03124,-0.00654c0.14047,-0.15359 0.29536,-0.27464 0.46942,-0.28741v-0.01898h0.07271c0.02668,0 0.0483,0.02163 0.0483,0.0483c0,0.01105 -0.00371,0.02123 -0.00995,0.02937l-0.03087,0.04116l-0.00179,-0.00134l-0.00269,0.00652c-0.07862,0.05933 -0.13404,0.1363 -0.1646,0.22942c-0.03443,0.11962 -0.08045,0.23611 -0.13122,0.35132c0.05905,-0.11564 0.12538,-0.22634 0.20155,-0.3292l-0.00551,-0.00276l0.04273,-0.08547c0.00775,-0.01634 0.02439,-0.02764 0.04367,-0.02764c0.02668,0 0.0483,0.02163 0.0483,0.0483v0.05194c0,0.14372 -0.01069,0.28694 -0.03128,0.42931c-0.00003,0.00948 -0.0002,0.0189 -0.0005,0.02826c0.00312,-0.00242 0.00626,-0.00481 0.00942,-0.0072c0.00204,-0.00565 0.00409,-0.0113 0.00613,-0.01696l-0.00181,-0.00211l0.00372,-0.00319c0.07796,-0.21602 0.15366,-0.43298 0.22935,-0.65028v-0.07908c0,-0.00534 0.00087,-0.01048 0.00247,-0.01528c-0.06545,-0.02587 -0.13943,-0.05638 -0.20582,-0.08607c-0.01427,-0.00109 -0.02871,-0.00232 -0.04326,-0.00362l-0.00091,0.00297l-0.0141,-0.00434c-0.1179,-0.01086 -0.24189,-0.02473 -0.34541,-0.0021c0,0 -0.04736,0.00947 -0.05684,-0.03789c-0.00947,-0.04736 0.03789,-0.05684 0.03789,-0.05684c0.08323,-0.01554 0.17384,-0.01263 0.26479,-0.00613c0.00883,-0.00958 0.02148,-0.01558 0.03553,-0.01558c0.00359,0 0.00708,0.00039 0.01045,0.00113l0.05096,0.01019c0.03757,0.00766 0.06638,0.0127 0.09306,0.01817c0.00772,0.00037 0.01541,0.00069 0.02306,0.00095l0.00071,-0.00783l0.09572,0.0087c0.02486,0.00198 0.04442,0.02278 0.04442,0.04815c0,0.00639 -0.00124,0.01248 -0.00349,0.01806c0.19464,0.10266 0.35481,0.31139 0.18755,0.2742l0.00015,0.00074l-0.00739,0.00148c0.02878,0.05566 0.042,0.12285 0.0555,0.18698c0.02494,0.00008 0.04543,0.01906 0.04789,0.04336l0.01101,0.09537l-0.01035,0.00119c0.07637,0.24605 0.12964,0.60817 0.05965,0.80596c-0.04443,0.12557 -0.11987,0.16568 -0.16659,0.11794c-0.01183,0.03792 -0.02942,0.07756 -0.04928,0.11727c-0.0001,0.00931 -0.00284,0.01798 -0.00749,0.02531l-0.03552,0.05807c-0.02524,0.04589 -0.04183,0.08829 -0.06688,0.1239c-0.01023,0.02126 -0.01891,0.0414 -0.02522,0.06002l-0.02284,0.0684c-0.00608,0.01972 -0.02445,0.03406 -0.04617,0.03406c-0.01343,0 -0.02558,-0.00548 -0.03433,-0.01432c-0.08594,0.11148 -0.18699,0.2163 -0.25593,0.25164c0.01014,0.00885 0.01654,0.02188 0.01654,0.03639c0,0.01478 -0.00664,0.02802 -0.01711,0.03688l-0.07247,0.06212l-0.00785,-0.00916c-0.10918,0.10636 -0.23507,0.1881 -0.33459,0.3101l-0.00896,0.00168l0.00202,0.00337l-0.05126,0.03076c-0.00741,0.00462 -0.01616,0.00729 -0.02553,0.00729c-0.01183,0 -0.02267,-0.00425 -0.03107,-0.01132c-0.01613,0.01614 -0.03247,0.0325 -0.04904,0.04911c0,0 -0.03415,0.03416 -0.06831,0c-0.03416,-0.03415 0,-0.06831 0,-0.06831c0.11877,-0.11846 0.22504,-0.22289 0.3224,-0.32714c0.20574,-0.32632 0.396,-0.64232 0.54006,-1.01251c-0.07361,0.09475 -0.14227,0.18497 -0.1794,0.2627l-0.02036,0.07379c-0.00528,0.02096 -0.02425,0.03647 -0.04684,0.03647zM200.08874,168.99607c0.04363,-0.06535 0.08912,-0.12891 0.13503,-0.1885c0.0167,-0.12842 0.0271,-0.25824 0.03285,-0.3899c-0.00566,0.01309 -0.01082,0.02535 -0.01512,0.03653c-0.0301,0.07821 -0.05971,0.15638 -0.08912,0.23449c0.01193,0.00879 0.01967,0.02295 0.01967,0.03891c0,0.00673 -0.00138,0.01314 -0.00386,0.01896l-0.01983,0.04957c-0.02,0.06476 -0.03947,0.13194 -0.05961,0.19995zM199.89838,168.8763c0.00724,-0.04317 0.01112,-0.08692 0.01097,-0.13135c0.01082,-0.07662 0.01908,-0.15329 0.02435,-0.23015c-0.05016,0.10133 -0.12834,0.20288 -0.17143,0.28009c-0.11985,0.2148 -0.19785,0.45573 -0.27229,0.69436c0.05265,-0.05737 0.11938,-0.23695 0.17103,-0.30989c0.07727,-0.10913 0.15035,-0.2132 0.23737,-0.30306zM199.604,168.6512c0.01653,-0.03552 0.03252,-0.07099 0.04773,-0.10643c-0.00677,0.00962 -0.01394,0.0197 -0.02148,0.03018c-0.03678,0.05991 -0.07918,0.11648 -0.12526,0.17041c0.00487,-0.00166 0.0101,-0.00255 0.01553,-0.00255c0.00335,0 0.00663,0.00034 0.00979,0.00099c0.01557,-0.01902 0.0314,-0.03775 0.04752,-0.05617zM199.69784,168.35729c0.00864,0 0.01675,0.00227 0.02377,0.00624c0.0085,-0.02537 0.01639,-0.05073 0.02358,-0.07609c0.01856,-0.05499 0.04375,-0.10663 0.0763,-0.15311c-0.05155,0.02869 -0.10773,0.05596 -0.15819,0.08842c0.02336,0.00339 0.04129,0.0235 0.04129,0.0478c0,0.01505 -0.00688,0.02848 -0.01766,0.03734l-0.06204,0.0517l-0.00024,-0.00029l-0.00072,0.00106c-0.15908,0.11938 -0.24481,0.24674 -0.32803,0.3876c0.00816,0.00467 0.01483,0.01164 0.01911,0.02004c0.00732,-0.0068 0.01461,-0.01363 0.02187,-0.02048c0.07458,-0.09333 0.15471,-0.1924 0.23,-0.2516c0.01395,-0.01863 0.02741,-0.03759 0.04033,-0.05692l0.00235,-0.0014l-0.00075,-0.00063l0.0517,-0.06204c0.00886,-0.01078 0.0223,-0.01766 0.03734,-0.01766zM198.63854,169.58108c-0.00144,0.00272 -0.00289,0.00548 -0.00435,0.00829c0.0036,-0.00313 0.00719,-0.00624 0.01075,-0.00934c-0.00213,0.00032 -0.00427,0.00067 -0.0064,0.00105zM199.1539,168.51336c-0.04076,0.02282 -0.07808,0.04546 -0.11237,0.06821c-0.18936,0.25735 -0.298,0.55817 -0.47666,0.82627c-0.02437,0.04048 -0.04602,0.08265 -0.06587,0.12592c0.00242,-0.00138 0.00483,-0.00274 0.00726,-0.00408c0.18423,-0.36074 0.46417,-0.72073 0.66507,-1.02558c-0.00599,0.00303 -0.0118,0.00611 -0.01742,0.00925zM199.09778,168.94714c0.00264,-0.03014 0.00772,-0.0597 0.01496,-0.08867c-0.02037,0.02208 -0.04114,0.04379 -0.06241,0.06506c-0.03621,0.06079 -0.0741,0.12155 -0.1128,0.18243c0.04521,-0.04286 0.09202,-0.08479 0.13936,-0.12648l0.00058,-0.03269l0.02032,0.00036zM200.2917,168.99826c-0.04015,0.224 -0.10148,0.44441 -0.1922,0.66377c-0.02521,0.0487 -0.05073,0.09489 -0.07664,0.13901c0.05743,-0.06179 0.11777,-0.1208 0.17543,-0.17409c0.04157,-0.10015 0.09132,-0.19865 0.15113,-0.28818c-0.00252,-0.00585 -0.00392,-0.01231 -0.00392,-0.01909c0,-0.00133 0.00005,-0.00264 0.00016,-0.00394l0.00685,-0.09586l0.00303,0.00022c-0.00235,-0.09584 -0.01127,-0.20854 -0.01902,-0.32493c-0.00477,0.00997 -0.00985,0.02001 -0.01522,0.03009c-0.00987,0.02432 -0.01966,0.04869 -0.0296,0.073zM198.95528,169.32051c-0.09488,0.06493 -0.17671,0.11837 -0.21804,0.14802l-0.02018,0.01446c0.01189,0.00148 0.02381,0.00371 0.03577,0.00672c0.03649,-0.02836 0.0743,-0.05461 0.11661,-0.07833l-0.00641,-0.01069l0.06341,-0.03804c0.00864,-0.01384 0.01831,-0.0279 0.02885,-0.04213zM200.46036,169.18689c-0.00051,0.00107 -0.00103,0.00213 -0.00155,0.00319c0.0006,0.00017 0.00119,0.00035 0.00178,0.00054c-0.00008,-0.00123 -0.00016,-0.00248 -0.00024,-0.00373zM199.399,169.35971c-0.00243,0.00675 -0.00476,0.0137 -0.00701,0.02081c0.00567,0.01472 0.01161,0.02961 0.01785,0.04471c0.05677,-0.17622 0.11759,-0.35474 0.18985,-0.52708c-0.07207,0.15245 -0.14438,0.30484 -0.20069,0.46156zM199.30188,169.76472c0.02234,-0.06937 0.04456,-0.14005 0.06715,-0.21146c-0.00515,-0.00383 -0.01015,-0.00788 -0.01498,-0.01215c-0.01501,0.07564 -0.02997,0.15488 -0.05319,0.22493c0.00034,-0.00044 0.00069,-0.00089 0.00103,-0.00133zM199.5345,169.89963c-0.00155,0.00398 -0.00304,0.00826 -0.00448,0.0128c0.05735,-0.10427 0.108,-0.21382 0.15821,-0.32121c-0.0571,0.09966 -0.11173,0.20085 -0.15373,0.30841zM199.38745,169.80956c-0.035,0.0477 -0.06777,0.09137 -0.10956,0.13327l-0.02928,0.03905c-0.00483,0.00659 -0.0113,0.01191 -0.0188,0.01536c0.04426,0.04166 0.08336,0.09327 0.11571,0.15577l0.00344,-0.02063l0.01234,0.00206c0.01943,-0.31292 0.26045,-0.60408 0.41633,-0.91452c-0.11172,0.13603 -0.22812,0.26377 -0.304,0.32189c-0.02814,0.0904 -0.05616,0.18017 -0.08617,0.26775zM198.20787,170.01157c-0.01786,0.03267 -0.03412,0.06475 -0.04855,0.09524c0.01743,-0.0309 0.03348,-0.06273 0.04855,-0.09524zM198.81134,168.78592c-0.06553,0.08182 -0.11293,0.17296 -0.1561,0.28256c0.05195,-0.09361 0.10296,-0.18896 0.1561,-0.28256z" data-paper-data="{&quot;index&quot;:null}" fill="#903434" stroke="none" stroke-width="0.5" stroke-linecap="butt"/><path d="M282.15713,179.04434l-0.00473,-1.28614l0.00923,-1.65149l0.01847,-1.26742l0.0277,-0.15363l0.06463,-0.12802l0.12003,-0.05121l0.15696,0.0128l0.23082,0.06401l0.12003,0.07681l0.12003,0.21764l0.11079,0.39687l0.14773,0.66572l0.12926,1.33144l0.0554,1.28023v0.48981v2.27162v0.13469l-0.0554,1.28023l-0.12926,1.33144l-0.14773,0.66572l-0.11079,0.39687l-0.12003,0.21764l-0.12003,0.07681l-0.23082,0.06401l-0.15696,0.0128l-0.12003,-0.05121l-0.06463,-0.12802l-0.0277,-0.15363l-0.01847,-1.26742l-0.00923,-1.65149l0.00364,-0.98817z" data-paper-data="{&quot;index&quot;:null}" fill="none" stroke="#000000" stroke-width="0.5" stroke-linecap="round"/><path d="M282.16421,180.11269l1.27815,-0.03216" fill="none" stroke="#000000" stroke-width="0.5" stroke-linecap="round"/><path d="M282.16421,179.88732l1.27815,0.03216" data-paper-data="{&quot;index&quot;:null}" fill="none" stroke="#000000" stroke-width="0.5" stroke-linecap="round"/><g data-paper-data="{&quot;index&quot;:null}"><path d="M261.2476,178.67758c-0.11516,0.03813 -0.11549,-0.03965 -0.11549,-0.03965c0,0 -0.61598,-3.95357 -1.27206,-6.62121c-0.35073,-1.42607 -1.59719,-4.67996 -1.59719,-4.67996c0,0 -0.0196,-0.09541 0.06138,-0.12071c0.10171,-0.03177 0.12846,0.05719 0.12846,0.05719c0,0 1.24647,3.2539 1.59719,4.67996c0.65608,2.66764 1.27206,6.62121 1.27206,6.62121c0,0 0.01994,0.07195 -0.07434,0.10317z" fill="#333333" stroke="#000000" stroke-width="0.5" stroke-linecap="round"/><g stroke-linecap="round"><path d="M262.4281,179.56436l-0.23461,-0.33766c0,0 -0.23696,-0.34984 -0.41333,-0.94823c-0.10056,-0.34117 -0.28882,-0.95934 -0.28882,-0.95934c0,0 -0.42049,-1.52579 -0.8928,-3.02199c-0.47232,-1.4962 -0.82845,-2.5237 -0.82845,-2.5237c0,0 -0.05064,-0.18916 0.06143,-0.41305c0.02543,-0.05081 0.08152,0.07898 0.08152,0.07898c0,0 0.43545,1.20218 0.94506,2.78324c0.50961,1.58107 0.87042,2.93111 0.87042,2.93111c0,0 0.18724,0.56755 0.35065,0.91214c0.1634,0.34459 0.38833,0.64622 0.38833,0.64622l0.00406,-0.12295l0.00209,0.76519l-0.01472,0.19909z" fill="#333333" stroke="#ff0000" stroke-width="0"/><path d="M261.78005,178.12504l0.23124,-0.13972" fill="none" stroke="#000000" stroke-width="0.5"/><path d="M262.40132,179.54369l-0.20783,-0.31697c0,0 -0.23696,-0.34984 -0.41333,-0.94823c-0.10056,-0.34117 -0.28882,-0.95934 -0.28882,-0.95934c0,0 -0.70315,-2.32029 -1.17546,-3.81649c-0.47232,-1.4962 -0.52853,-1.76924 -0.52853,-1.76924c0,0 -0.06019,-0.18536 0.05188,-0.40925c0.02543,-0.05081 0.08152,0.07898 0.08152,0.07898c0,0 0.14508,0.44392 0.65469,2.02498c0.50961,1.58107 1.15307,3.72562 1.15307,3.72562c0,0 0.18724,0.56755 0.35065,0.91214c0.1634,0.34459 0.36923,0.65381 0.36923,0.65381" fill="none" stroke="#000000" stroke-width="0.75"/></g><path d="M260.00875,171.25602l0.32888,1.12448l-0.45374,0.1327l-0.32888,-1.12448z" fill="#333333" stroke="#000000" stroke-width="0.75" stroke-linecap="butt"/></g><g><path d="M258.38649,192.76466c0,0 -0.01531,0.07307 -0.1134,0.05754c-0.11981,-0.01898 -0.08441,-0.08823 -0.08441,-0.08823c0,0 1.55616,-4.95085 2.19762,-7.62205c0.34291,-1.42797 0.72891,-4.89099 0.72891,-4.89099c0,0 0.02637,-0.09376 0.10993,-0.07907c0.10495,0.01845 0.08788,0.10977 0.08788,0.10977c0,0 -0.386,3.46302 -0.72891,4.89099c-0.64145,2.6712 -2.19762,7.62205 -2.19762,7.62205z" fill="#333333" stroke="#000000" stroke-width="0.5" stroke-linecap="round"/><g stroke-linecap="round"><path d="M259.20379,192.99633l-0.05347,-0.40767c0,0 -0.04996,-0.41957 0.06798,-1.03217c0.06724,-0.34927 0.1837,-0.98489 0.1837,-0.98489c0,0 0.3267,-1.54859 0.59378,-3.09467c0.26707,-1.54608 0.42225,-2.62242 0.42225,-2.62242c0,0 0.04183,-0.1913 0.24415,-0.33878c0.04592,-0.03347 0.03618,0.10759 0.03618,0.10759c0,0 -0.16488,1.26793 -0.43777,2.90653c-0.27289,1.6386 -0.57196,3.00365 -0.57196,3.00365c0,0 -0.09413,0.59018 -0.1071,0.97133c-0.01298,0.38115 0.04842,0.75237 0.04842,0.75237l0.06003,-0.10738l-0.34934,0.6808l-0.10445,0.17013z" fill="#333333" stroke="#ff0000" stroke-width="0"/><path d="M259.5582,191.40209l-0.26957,0.01801" fill="none" stroke="#000000" stroke-width="0.5"/><path d="M259.18948,192.96566l-0.03917,-0.377c0,0 -0.04996,-0.41957 0.06798,-1.03217c0.06724,-0.34927 0.1837,-0.98489 0.1837,-0.98489c0,0 0.44022,-2.38419 0.70729,-3.93027c0.26707,-1.54608 0.34245,-1.81446 0.34245,-1.81446c0,0 0.0316,-0.19231 0.23392,-0.33979c0.04592,-0.03347 0.03618,0.10759 0.03618,0.10759c0,0 -0.07485,0.46099 -0.34774,2.09959c-0.27289,1.6386 -0.68547,3.83926 -0.68547,3.83926c0,0 -0.09413,0.59018 -0.1071,0.97133c-0.01298,0.38115 0.02797,0.75035 0.02797,0.75035" fill="none" stroke="#000000" stroke-width="0.75"/></g><path d="M260.86755,184.50434l-0.22391,1.14999l-0.46403,-0.09035l0.22391,-1.14999z" fill="#333333" stroke="#000000" stroke-width="0.75" stroke-linecap="butt"/></g><path d="M197.20898,179.46663v-0.42412l0.03534,-0.84824l0.07069,-1.03673l0.09425,-0.95426l0.09425,-0.56549l0.11781,-0.67152l0.10603,-0.32987l0.10603,-0.15315l0.08247,-0.05891l0.10603,-0.03534l0.09425,0.01178l0.05891,0.05891l0.02356,0.12959l-0.02356,0.41234l-0.08247,1.37838l-0.04712,1.57866v1.48441v1.11388v1.48441l0.04712,1.57866l0.08247,1.37838l0.02356,0.41234l-0.02356,0.12959l-0.05891,0.05891l-0.09425,0.01178l-0.10603,-0.03534l-0.08247,-0.05891l-0.10603,-0.15315l-0.10603,-0.32987l-0.11781,-0.67152l-0.09425,-0.56549l-0.09425,-0.95426l-0.07069,-1.03673l-0.03534,-0.84824v-0.42412z" fill="none" stroke="#000000" stroke-width="0.75" stroke-linecap="round"/><path d="M197.6331,185.28737l-0.56999,-0.51155l-0.15766,-0.16655l-0.14553,-0.21414l-0.10915,-0.26172l-0.06064,-0.38069l-0.06064,-1.17776l-0.03638,-1.18965v-0.84465v-1.05342v-0.84465l0.03638,-1.18965l0.06064,-1.17776l0.06064,-0.38069l0.10915,-0.26172l0.14553,-0.21414l0.15766,-0.16655l0.56999,-0.51155" fill="none" stroke="#000000" stroke-width="0.125" stroke-linecap="round"/></g></g></svg>