<svg version="1.1" xmlns="http://www.w3.org/2000/svg" xmlns:xlink="http://www.w3.org/1999/xlink" width="76.0105" height="34.87246" viewBox="0,0,76.0105,34.87246"><defs><radialGradient cx="229.81818" cy="176.21463" r="8.36364" gradientUnits="userSpaceOnUse" id="color-1"><stop offset="0" stop-color="#0090ff"/><stop offset="1" stop-color="#0090ff" stop-opacity="0"/></radialGradient><radialGradient cx="229.81818" cy="183.9419" r="8.36363" gradientUnits="userSpaceOnUse" id="color-2"><stop offset="0" stop-color="#ff0000"/><stop offset="1" stop-color="#ff0000" stop-opacity="0"/></radialGradient></defs><g transform="translate(-201.99476,-162.56377)"><g data-paper-data="{&quot;isPaintingLayer&quot;:true}" fill-rule="nonzero" stroke-linejoin="miter" stroke-miterlimit="10" stroke-dasharray="" stroke-dashoffset="0" style="mix-blend-mode: normal"><text transform="translate(262.92018,180.39221) rotate(-180) scale(0.09492,0.09492)" font-size="40" xml:space="preserve" fill="#000000" fill-rule="nonzero" stroke="none" stroke-width="1" stroke-linecap="butt" stroke-linejoin="miter" stroke-miterlimit="10" stroke-dasharray="" stroke-dashoffset="0" font-family="Pixel" font-weight="normal" text-anchor="start" style="mix-blend-mode: normal"><tspan x="0" dy="0">made by @itsadiesel</tspan></text><path d="M202.7488,178.96586l0.06526,-4.58975l0.39085,-2.95928l0.36293,-2.09383l0.58627,-1.36797l1.03296,-1.31214l1.28422,-0.86545l1.2563,-0.64211l1.95424,-0.33501l2.038,-0.16751l2.26134,-0.05584h6.11399l6.67235,0.08375l23.36718,0.25126l10.72043,0.02792l5.22062,0.13959l2.62427,0.30709l2.73594,0.55836l1.47964,0.61419l1.39589,1.17255l0.72586,0.86545l0.86545,1.89841l0.9492,4.18767l0.36293,3.09887l0.04031,1.65272l-0.00338,1.10407l-0.04095,1.67904l-0.36293,3.09887l-0.9492,4.18767l-0.86545,1.89841l-0.72586,0.86545l-1.39589,1.17255l-1.47964,0.61419l-2.73594,0.55836l-2.62427,0.30709l-5.22062,0.13959l-10.72043,0.02792l-23.36718,0.25126l-6.67235,0.08375h-6.11399l-2.26134,-0.05584l-2.038,-0.16751l-1.95424,-0.33501l-1.2563,-0.64211l-1.28422,-0.86545l-1.03296,-1.31214l-0.58627,-1.36797l-0.36293,-2.09383l-0.39085,-2.95928l-0.06527,-4.59087z" fill="#ffffff" stroke="#000000" stroke-width="1.5" stroke-linecap="round"/><path d="M275.28708,170.35653c0,0 1.6,6.53073 1.6,9.87681c0,3.36492 -1.6,10.25653 -1.6,10.25653c0,0 -1.5171,3.23656 -2.57114,3.58594c-0.7168,0.23759 -2.6199,1.02049 -4.02804,1.0704c-2.73554,0.09697 -16.80082,-0.05634 -16.80082,-0.05634l0.15921,-3.03198l-1.77963,-1.93576l0.15375,-20.03226l1.91898,-1.1508l0.68213,-3.96088c0,0 17.01101,0.06144 19.26909,1.05159c1.37842,0.60442 2.99647,4.32676 2.99647,4.32676z" fill="#000000" stroke="none" stroke-width="0" stroke-linecap="butt"/><path d="M203.46667,189.8v-20.13334c0,0 1.51709,-3.23656 2.57114,-3.58594c0.7168,-0.23759 2.61991,-1.02049 4.02805,-1.0704c2.73554,-0.09697 6.80082,0.05634 6.80082,0.05634l-0.15921,3.03197l1.77962,1.93577l-0.15374,20.03226l-1.91898,1.1508l-0.68213,3.96088c0,0 -7.01101,-0.06144 -9.26909,-1.05159c-1.37842,-0.60442 -2.99647,-4.32676 -2.99647,-4.32676z" fill="#000000" stroke="none" stroke-width="0" stroke-linecap="butt"/><path d="M214.9568,169.77932l2.87856,0.46428l0.09286,0.19603l-0.16508,3.91031l-0.06191,4.21983l-0.05159,4.38491l0.19603,4.18888l0.07222,2.35238l-0.02064,0.22698l-0.74285,0.1754l-9.38887,1.18651l-0.21667,-0.13413l-1.22778,-3.32222l-0.65,-2.85793l-0.28889,-2.34206l-0.10317,-2.10476l0.15476,-3.24999l0.42301,-2.94047l0.98016,-3.04364l0.69127,-2.0119l0.28889,-0.19603z" fill="#202020" stroke="#ff0000" stroke-width="0.05" stroke-linecap="round"/><path d="M274.63427,179.87583v-1.45172v-1.67507l-0.13028,-1.52617l-0.07445,-1.60062v-0.16751l0.09306,-0.16751h0.24195l0.44668,0.24195l0.3164,0.29779l0.16751,0.18612l0.07445,0.3164l0.3164,2.10314l0.09306,1.82396v1.69368l-0.00402,0.09944v1.69368l-0.09306,1.82396l-0.3164,2.10314l-0.07445,0.3164l-0.16751,0.18612l-0.3164,0.29779l-0.44668,0.24195h-0.24195l-0.09306,-0.16751v-0.16751l0.07445,-1.60062l0.13028,-1.52617v-1.67507v-1.45172z" data-paper-data="{&quot;index&quot;:null}" fill="#161616" stroke="#000000" stroke-width="0.75" stroke-linecap="round"/><path d="M274.57395,173.33763l0.18337,2.47009l0.06472,1.07864l-0.01079,0.72269v1.79043c0,0 -0.00131,0.06441 0.00594,0.07684c0.01363,0.02336 0.06956,0.0526 0.06956,0.0526l0.91684,0.40218c0,0 0.08044,0.04757 0.08044,0.07065c0,0.0193 -0.08044,0.05851 -0.08044,0.05851l-0.91684,0.40218c0,0 -0.04584,0.01652 -0.05689,0.03548c-0.01359,0.02329 -0.01861,0.09396 -0.01861,0.09396v1.79043l0.01079,0.72269l-0.06472,1.07864l-0.18337,2.47009" data-paper-data="{&quot;index&quot;:null}" fill="none" stroke="#cdcdcd" stroke-width="0.75" stroke-linecap="round"/><path d="M268.60001,194.58557l0.29779,-0.20473l0.3164,-0.22334l0.85614,-0.26056l1.02365,-0.39085" fill="none" stroke="#000000" stroke-width="0.75" stroke-linecap="round"/><path d="M275.1554,172.78471l0.35362,0.3164l0.33501,0.3164l0.09306,0.24195l0.16751,0.55836l0.18612,0.91198l0.27918,1.69368l0.11167,1.95424v0.85104l-0.00402,0.8854v0.70809l-0.11167,1.95424l-0.27918,1.69368l-0.18612,0.91198l-0.16751,0.55836l-0.09306,0.24195l-0.33501,0.3164l-0.35362,0.3164" fill="none" stroke="#000000" stroke-width="0.75" stroke-linecap="round"/><path d="M271.31867,191.84817l-5.00969,0.34277l-4.00775,0.18457h-3.71772l-0.5548,-0.05078l-0.58534,-0.17402l-0.791,-0.3955" fill="none" stroke="#000000" stroke-width="0.75" stroke-linecap="round"/><path d="M253.46462,192.96544l0.62489,-0.62489" fill="none" stroke="#000000" stroke-width="0.75" stroke-linecap="round"/><path d="M233.80818,195.24743l-0.28476,-0.61698l-0.0791,-0.44296l-0.03164,-0.52206l-1.24979,-2.65777l-0.09492,-0.7119l0.11074,-0.25312l0.12656,-0.0791h3.32222l5.41047,0.0791l1.85095,0.09492l2.40465,0.49042l6.51787,1.94587l1.85095,0.64862l0.61698,0.56952l0.36386,0.72772l0.20566,0.53788" fill="none" stroke="#000000" stroke-width="0.75" stroke-linecap="round"/><path d="M244.93232,179.48477l-0.06189,-1.90614l-0.0791,-1.83513l-0.30058,-2.46793l-0.44296,-1.67693l-0.03164,-0.49042l0.12656,-0.26894l0.33222,-0.2373l2.75269,-0.83846l5.01496,-1.55037l1.55037,-0.42714l0.53788,-0.11074l0.64862,-0.04746l0.4746,0.06328l0.82265,0.3955l0.80682,0.66444l0.80682,0.83846l0.60116,0.85428l0.88592,1.77185l0.64862,1.83513l0.45878,3.22729l0.18984,2.30973l-0.00402,0.82443l-0.18984,2.30973l-0.45878,3.22729l-0.64862,1.83513l-0.88592,1.77185l-0.60116,0.85428l-0.80682,0.83846l-0.80682,0.66444l-0.82265,0.3955l-0.4746,0.06328l-0.64862,-0.04746l-0.53788,-0.11074l-1.55037,-0.42714l-5.01496,-1.55037l-2.75269,-0.83846l-0.33222,-0.2373l-0.12656,-0.26894l0.03164,-0.49042l0.44296,-1.67693l0.30058,-2.46793l0.0791,-1.83513l0.05407,-1.66528z" fill="#202020" stroke="#000000" stroke-width="0.75" stroke-linecap="round"/><path d="M218.70001,189.20817l1.02831,-0.06328l8.84342,-0.28476h8.9067l3.71772,0.09492l2.87925,0.17402" fill="none" stroke="#000000" stroke-width="1" stroke-linecap="round"/><path d="M233.96638,193.36885l-1.05994,-1.99333l-0.1582,-0.33222l-0.03164,-0.26894l0.12656,-0.2373l0.37968,-0.12656h1.18651h0.80682l4.76184,0.18984l2.43629,0.18984l2.49957,0.42714l3.51206,0.93338l1.40799,0.44296l0.28476,0.26894l0.09492,0.20566l0.06328,0.28476v0.26894h-0.50624h-18.01906l-8.16316,-0.06328l-4.12904,-0.0791l-0.3164,-0.06328c0,0 -0.21507,-0.04557 -0.26894,-0.17402c-0.05387,-0.12845 0.06328,-0.3164 0.06328,-0.3164l0.50624,-0.4746l1.24979,-0.52206l2.34137,-0.61698l2.75269,-0.41132l2.49957,-0.2373l2.43629,-0.12656h0.41132l0.17402,0.04746l0.1582,0.12656l1.17069,2.65777" fill="#202020" stroke="#000000" stroke-width="0.75" stroke-linecap="round"/><path d="M250.28472,193.64852h-18.54904l-12.24474,-0.16611l-0.45087,-0.09492l-0.22939,-0.18984l13.14648,0.22939h18.35919z" fill="#343434" stroke="#ff0000" stroke-width="0.05" stroke-linecap="round"/><path d="M250.21359,193.40049h-17.9716l-8.05242,-0.0791l-5.2839,-0.11074" fill="none" stroke="#000000" stroke-width="0.75" stroke-linecap="round"/><path d="M251.15997,194.21361l-0.46022,-0.01438l0.33078,-0.83415l0.11505,-0.12944h0.23011l0.12944,0.04315l0.11505,0.07191l0.11506,0.23011l-0.01438,0.30202z" fill="#343434" stroke="#000000" stroke-width="0.75" stroke-linecap="round"/><path d="M251.93659,194.08418l-0.92044,1.86964l-0.50336,0.66157l-0.38831,0.27326l-0.34516,0.11505l-0.6328,0.05753h-0.12944l-0.14382,-0.08629l-0.07191,-0.11505v-0.23011l0.07191,-0.3164l0.9492,-1.81212l0.37393,-0.48898l0.38831,-0.24449l0.57527,0.01438l0.74786,0.14382z" fill="#ffffff" stroke="#000000" stroke-width="0.75" stroke-linecap="round"/><path d="M203.35028,179.0103v-2.98156l0.05373,-2.02378l0.25073,-1.93423l0.32237,-2.00587l0.12537,-0.53729l0.1791,-0.39401l0.16119,-0.17909l0.12537,-0.03582h3.02671l0.3761,0.03582l2.84761,0.34028l6.28624,0.80593l1.25367,0.32237l0.16119,0.12537l0.07164,0.23282v3.45654l-0.15026,5.04883l-0.00885,1.26448l0.15509,5.21111v3.45654l-0.07164,0.23282l-0.16119,0.12537l-1.25367,0.32237l-6.28624,0.80593l-2.84761,0.34028l-0.3761,0.03582h-3.02671l-0.12537,-0.03582l-0.16119,-0.17909l-0.1791,-0.39401l-0.12537,-0.53729l-0.32237,-2.00587l-0.25073,-1.93423l-0.05373,-2.02378v-2.8829z" fill="none" stroke="#000000" stroke-width="0.75" stroke-linecap="round"/><path d="M209.65041,195.11096l-0.91339,-0.30446l-1.05666,-0.50147l-1.54022,-0.9492l-0.62683,-0.68056l-0.39401,-0.69847l-0.41192,-0.87757" fill="none" stroke="#000000" stroke-width="0.75" stroke-linecap="round"/><path d="M207.60873,191.04551c0,0 -1.34702,-3.28646 -1.73692,-5.18687c-0.35276,-1.71936 -0.50761,-3.64221 -0.57526,-4.92738l0.00583,-1.89663c0.06859,-1.28492 0.22379,-3.18905 0.57345,-4.89327c0.38991,-1.90041 1.73692,-5.18687 1.73692,-5.18687" fill="none" stroke="#000000" stroke-width="0.75" stroke-linecap="round"/><path d="M233.96638,193.36885l-1.05994,-1.99333l-0.1582,-0.33222l-0.03164,-0.26894l0.12656,-0.2373l0.37968,-0.12656h1.18651h0.80682l4.76184,0.18984l2.43629,0.18984l2.49957,0.42714l3.51206,0.93338l1.40799,0.44296l0.28476,0.26894l0.09492,0.20566l0.06328,0.28476v0.26894h-0.50624h-18.01906l-8.16316,-0.06328l-4.12904,-0.0791l-0.3164,-0.06328c0,0 -0.21507,-0.04557 -0.26894,-0.17402c-0.05387,-0.12845 0.06328,-0.3164 0.06328,-0.3164l0.50624,-0.4746l1.24979,-0.52206l2.34137,-0.61698l2.75269,-0.41132l2.49957,-0.2373l2.43629,-0.12656h0.41132l0.17402,0.04746l0.1582,0.12656l1.17069,2.65777" fill="none" stroke="#000000" stroke-width="0.75" stroke-linecap="round"/><path d="M268.72003,193.11523l1.06724,-0.67003l1.34566,-1.15393l0.95124,-0.96782l0.85844,-1.04226l0.95125,-1.43311l0.37122,-0.33501c0,0 0.41649,-0.23661 0.71555,-0.30858c0.29904,-0.07197 0.21251,0.08523 0.21251,0.08523l-0.0696,0.29779l-0.55682,1.52617l-0.81204,1.32144l-0.95125,1.28422l-1.06726,0.83753l-1.04404,0.68864l-0.39441,0.20473l-0.20882,0.05584l-0.32482,0.03722l-1.09046,-0.13028l-0.06959,-0.1489z" fill="#ffffff" stroke="#000000" stroke-width="0.75" stroke-linecap="round"/><path d="M268.60903,166.73586l0.06959,-0.1489l1.09045,-0.13028l0.32482,0.03722l0.20881,0.05584l0.39442,0.20473l1.04404,0.68864l1.06726,0.83753l0.95125,1.28422l0.81203,1.32144l0.55682,1.52617l0.0696,0.29779c0,0 0.08653,0.1572 -0.21251,0.08523c-0.29904,-0.07197 -0.71555,-0.30858 -0.71555,-0.30858l-0.37122,-0.33501l-0.95125,-1.43311l-0.85844,-1.04226l-0.95124,-0.96782l-1.34567,-1.15393l-1.06724,-0.67003z" data-paper-data="{&quot;index&quot;:null}" fill="#ffffff" stroke="#000000" stroke-width="0.75" stroke-linecap="round"/><path d="M271.09801,166.4939l-1.02365,-0.39085l-0.85614,-0.26056l-0.3164,-0.22334l-0.29779,-0.20473" data-paper-data="{&quot;index&quot;:null}" fill="none" stroke="#000000" stroke-width="0.75" stroke-linecap="round"/><path d="M256.65638,168.24478l0.791,-0.3955l0.58534,-0.17402l0.5548,-0.05078h3.71772l4.00775,0.18457l4.1006,0.34277" data-paper-data="{&quot;index&quot;:null}" fill="none" stroke="#000000" stroke-width="0.75" stroke-linecap="round"/><path d="M254.09353,167.65944l-0.62489,-0.62489" data-paper-data="{&quot;index&quot;:null}" fill="none" stroke="#000000" stroke-width="0.75" stroke-linecap="round"/><path d="M254.85289,164.9424l-0.20566,0.53788l-0.36386,0.72772l-0.61698,0.56952l-1.85095,0.64862l-6.51787,1.94587l-2.40465,0.49042l-1.85095,0.09492l-5.41047,0.0791h-3.32222l-0.12656,-0.0791l-0.11074,-0.25312l0.09492,-0.7119l1.24979,-2.65777l0.03164,-0.52206l0.0791,-0.44296l0.28476,-0.61698" data-paper-data="{&quot;index&quot;:null}" fill="none" stroke="#000000" stroke-width="0.75" stroke-linecap="round"/><path d="M244.07942,170.87091l-2.87925,0.17402l-3.71772,0.09492h-8.9067l-8.84342,-0.28476l-1.02831,-0.06328" data-paper-data="{&quot;index&quot;:null}" fill="none" stroke="#000000" stroke-width="1" stroke-linecap="round"/><path d="M232.64151,166.63113l-1.17069,2.65777l-0.1582,0.12656l-0.17402,0.04746h-0.41132l-2.43629,-0.12656l-2.49957,-0.2373l-2.75269,-0.41132l-2.34137,-0.61698l-1.24979,-0.52206l-0.50624,-0.4746c0,0 -0.11715,-0.18795 -0.06328,-0.3164c0.05387,-0.12845 0.26894,-0.17402 0.26894,-0.17402l0.3164,-0.06328l4.12904,-0.0791l8.16316,-0.06328h18.01906h0.50624v0.26894l-0.06328,0.28476l-0.09492,0.20566l-0.28476,0.26894l-1.40799,0.44296l-3.51206,0.93338l-2.49957,0.42714l-2.43629,0.18984l-4.76184,0.18984h-0.80682h-1.18651l-0.37968,-0.12656l-0.12656,-0.2373l0.03164,-0.26894l0.1582,-0.33222l1.05994,-1.99333" data-paper-data="{&quot;index&quot;:null}" fill="#202020" stroke="#000000" stroke-width="0.75" stroke-linecap="round"/><path d="M250.32038,166.57295h-18.35919l-13.14648,0.22939l0.22939,-0.18984l0.45087,-0.09492l12.24474,-0.16611h18.54904z" data-paper-data="{&quot;index&quot;:null}" fill="#343434" stroke="#ff0000" stroke-width="0.05" stroke-linecap="round"/><path d="M218.90968,166.78933l5.2839,-0.11074l8.05242,-0.0791h17.9716" data-paper-data="{&quot;index&quot;:null}" fill="none" stroke="#000000" stroke-width="0.75" stroke-linecap="round"/><path d="M251.72488,166.11715l0.01438,0.30202l-0.11506,0.23011l-0.11505,0.07191l-0.12944,0.04315h-0.23011l-0.11505,-0.12944l-0.33078,-0.83415l0.46022,-0.01438z" data-paper-data="{&quot;index&quot;:null}" fill="#343434" stroke="#000000" stroke-width="0.75" stroke-linecap="round"/><path d="M251.91184,166.07401l-0.74786,0.14382l-0.57527,0.01438l-0.38831,-0.24449l-0.37393,-0.48898l-0.9492,-1.81212l-0.07191,-0.3164v-0.23011l0.07191,-0.11505l0.14382,-0.08629h0.12944l0.6328,0.05753l0.34516,0.11506l0.38831,0.27326l0.50336,0.66157l0.92044,1.86964z" data-paper-data="{&quot;index&quot;:null}" fill="#ffffff" stroke="#000000" stroke-width="0.75" stroke-linecap="round"/><path d="M204.7114,168.90075l0.41192,-0.87757l0.39401,-0.69847l0.62683,-0.68056l1.54022,-0.9492l1.05666,-0.50147l0.91339,-0.30446" data-paper-data="{&quot;index&quot;:null}" fill="none" stroke="#000000" stroke-width="0.75" stroke-linecap="round"/><path d="M217.94252,189.64856l-0.19701,-4.24456l-0.08955,-4.40574v-0.46021l0.00402,-1.42714v-0.1092l0.08955,-4.40574l0.19701,-4.24456" data-paper-data="{&quot;index&quot;:null}" fill="none" stroke="#000000" stroke-width="0.75" stroke-linecap="round"/><path d="M232.64151,166.63113l-1.17069,2.65777l-0.1582,0.12656l-0.17402,0.04746h-0.41132l-2.43629,-0.12656l-2.49957,-0.2373l-2.75269,-0.41132l-2.34137,-0.61698l-1.24979,-0.52206l-0.50624,-0.4746c0,0 -0.11715,-0.18795 -0.06328,-0.3164c0.05387,-0.12845 0.26894,-0.17402 0.26894,-0.17402l0.3164,-0.06328l4.12904,-0.0791l8.16316,-0.06328h18.01906h0.50624v0.26894l-0.06328,0.28476l-0.09492,0.20566l-0.28476,0.26894l-1.40799,0.44296l-3.51206,0.93338l-2.49957,0.42714l-2.43629,0.18984l-4.76184,0.18984h-0.80682h-1.18651l-0.37968,-0.12656l-0.12656,-0.2373l0.03164,-0.26894l0.1582,-0.33222l1.05994,-1.99333" data-paper-data="{&quot;index&quot;:null}" fill="none" stroke="#000000" stroke-width="0.75" stroke-linecap="round"/><path d="M275.23922,179.99999c0,0.13761 -0.11156,0.24917 -0.24917,0.24917c-0.13761,0 -0.24917,-0.11156 -0.24917,-0.24917c0,-0.13761 0.11156,-0.24917 0.24917,-0.24917c0.13761,0 0.24917,0.11156 0.24917,0.24917z" fill="#282828" stroke="#cdcdcd" stroke-width="0.25" stroke-linecap="butt"/><path d="M274.63426,179.87583v-1.45172v-1.67507l-0.13028,-1.52617l-0.07445,-1.60062v-0.16751l0.09306,-0.16751h0.24195l0.44668,0.24195l0.3164,0.29779l0.16751,0.18612l0.07445,0.3164l0.3164,2.10314l0.09306,1.82396v1.69368l-0.00402,0.09944v1.69368l-0.09306,1.82396l-0.3164,2.10314l-0.07445,0.3164l-0.16751,0.18612l-0.3164,0.29779l-0.44668,0.24195h-0.24195l-0.09306,-0.16751v-0.16751l0.07445,-1.60062l0.13028,-1.52617v-1.67507v-1.45172z" data-paper-data="{&quot;index&quot;:null}" fill="none" stroke="#000000" stroke-width="0.75" stroke-linecap="round"/><g stroke-linecap="butt"><path d="M227.81818,180.18012v-7.93098h4v7.93098z" fill="#0090ff" stroke="#000000" stroke-width="0.75"/><path d="M227.81818,187.90739v-7.93098h4v7.93098z" fill="#ff0000" stroke="#000000" stroke-width="0.75"/><path d="M221.45455,176.21463c0,-4.61911 3.74453,-8.36364 8.36364,-8.36364c4.61911,0 8.36364,3.74453 8.36364,8.36364c0,4.61911 -3.74453,8.36364 -8.36364,8.36364c-4.61911,0 -8.36364,-3.74453 -8.36364,-8.36364z" fill="url(#color-1)" stroke="none" stroke-width="0"/><path d="M221.45455,183.9419c0,-4.61911 3.74453,-8.36363 8.36364,-8.36363c4.61911,0 8.36363,3.74452 8.36363,8.36363c0,4.61911 -3.74452,8.36363 -8.36363,8.36363c-4.61911,0 -8.36364,-3.74452 -8.36364,-8.36363z" fill="url(#color-2)" stroke="none" stroke-width="0"/></g></g></g></svg>