<svg version="1.1" xmlns="http://www.w3.org/2000/svg" xmlns:xlink="http://www.w3.org/1999/xlink" width="30.46313" height="29.13885" viewBox="0,0,30.46313,29.13885"><g transform="translate(-224.76843,-165.43057)"><g data-paper-data="{&quot;isPaintingLayer&quot;:true}" fill="#000000" fill-rule="nonzero" stroke="none" stroke-width="0" stroke-linecap="butt" stroke-linejoin="miter" stroke-miterlimit="10" stroke-dasharray="" stroke-dashoffset="0" style="mix-blend-mode: normal"><path d="M232.22598,194.56943c0,0 -3.69187,-2.60709 -3.79774,-3.92405c-0.09135,-1.13641 8.74253,-8.22424 9.3104,-9.71389c0.28682,-0.75241 -3.32468,-3.31082 -3.70285,-3.58496c-0.88471,-0.6413 -3.45097,3.80079 -4.07225,3.17022c-1.52061,-1.54336 -5.33704,-4.23526 -5.19102,-5.37188c0.10182,-0.79255 2.67505,-2.38867 3.55761,-3.54689c0.35061,-0.46013 -0.46392,-0.85115 -0.43747,-1.09522c0.11252,-1.03828 1.44347,-1.95678 2.20054,-2.06281c0.67669,-0.09477 3.5553,-2.83715 4.6053,-3.00316c1.09332,-0.17286 3.7421,3.30055 5.48526,5.06735c0.3126,1.03644 -3.84394,3.39145 -3.50572,4.05786c0.42295,0.83336 3.92896,4.15712 4.20075,4.08697c0.36149,-0.0933 4.94958,-3.64558 5.0559,-4.53107c0.27328,-0.47825 -2.86335,-2.25041 -2.84229,-3.14862c0.02382,-1.01625 4.22969,-5.2974 4.9947,-5.36104c0.85966,-0.07152 2.19073,2.54681 3.46504,2.79559c1.55605,0.30379 0.15351,-0.38366 0.86273,-0.3251c0.95335,0.07871 1.63102,0.73954 2.47785,1.54226c0.63247,0.59953 -0.73337,1.74843 -0.73337,1.74843c0,0 0.96442,1.19462 1.05996,2.98613c0.12483,2.34059 -0.71501,5.46439 -1.87042,5.8851c-1.02935,0.37481 -4.26591,-3.89398 -4.76002,-3.31277c-0.90754,1.06751 -4.56173,3.1928 -4.22972,3.84809c0.30805,0.608 9.47463,9.68265 9.46687,10.06011c-0.01196,0.58143 -2.84073,3.88055 -3.61811,3.48767c-1.49728,-0.7567 -8.09242,-8.23718 -9.18186,-8.35491c-0.38636,-0.04175 -8.80003,8.60057 -8.80003,8.60057z"/></g></g></svg>