<svg version="1.1" xmlns="http://www.w3.org/2000/svg" xmlns:xlink="http://www.w3.org/1999/xlink" width="431" height="174.6564" viewBox="0,0,431,174.6564"><defs><linearGradient x1="120.37819" y1="148.20705" x2="116.56214" y2="148.20705" gradientUnits="userSpaceOnUse" id="color-1"><stop offset="0" stop-color="#4c4c4c"/><stop offset="1" stop-color="#1b1b1b"/></linearGradient><linearGradient x1="346.19371" y1="227.73937" x2="336.06138" y2="227.73937" gradientUnits="userSpaceOnUse" id="color-2"><stop offset="0" stop-color="#4c4c4c"/><stop offset="1" stop-color="#1b1b1b"/></linearGradient><linearGradient x1="346.19371" y1="132.26066" x2="336.06138" y2="132.26066" gradientUnits="userSpaceOnUse" id="color-3"><stop offset="0" stop-color="#4c4c4c"/><stop offset="1" stop-color="#1b1b1b"/></linearGradient><radialGradient cx="365.51042" cy="180.00002" r="32.8091" gradientUnits="userSpaceOnUse" id="color-4"><stop offset="0" stop-color="#4c4c4c"/><stop offset="1" stop-color="#1b1b1b"/></radialGradient><linearGradient x1="118.79911" y1="156.23397" x2="111.95653" y2="156.23397" gradientUnits="userSpaceOnUse" id="color-5"><stop offset="0" stop-color="#4c4c4c"/><stop offset="1" stop-color="#1b1b1b"/></linearGradient><linearGradient x1="130.90536" y1="139.3248" x2="118.93079" y2="139.3248" gradientUnits="userSpaceOnUse" id="color-6"><stop offset="0" stop-color="#4c4c4c"/><stop offset="1" stop-color="#1b1b1b"/></linearGradient><linearGradient x1="130.90536" y1="220.67525" x2="118.93079" y2="220.67525" gradientUnits="userSpaceOnUse" id="color-7"><stop offset="0" stop-color="#4c4c4c"/><stop offset="1" stop-color="#1b1b1b"/></linearGradient><linearGradient x1="120.37819" y1="211.79298" x2="116.56214" y2="211.79298" gradientUnits="userSpaceOnUse" id="color-8"><stop offset="0" stop-color="#4c4c4c"/><stop offset="1" stop-color="#1b1b1b"/></linearGradient><linearGradient x1="118.79911" y1="203.76603" x2="111.95653" y2="203.76603" gradientUnits="userSpaceOnUse" id="color-9"><stop offset="0" stop-color="#4c4c4c"/><stop offset="1" stop-color="#1b1b1b"/></linearGradient><linearGradient x1="287.61797" y1="230.41448" x2="287.61797" y2="227.53595" gradientUnits="userSpaceOnUse" id="color-10"><stop offset="0" stop-color="#813d00"/><stop offset="1" stop-color="#d16503"/></linearGradient><linearGradient x1="287.61797" y1="132.46405" x2="287.61797" y2="129.58552" gradientUnits="userSpaceOnUse" id="color-11"><stop offset="0" stop-color="#d16503"/><stop offset="1" stop-color="#813d00"/></linearGradient><radialGradient cx="312.92584" cy="230.42707" r="24.14657" gradientUnits="userSpaceOnUse" id="color-12"><stop offset="0" stop-color="#669f6c"/><stop offset="1" stop-color="#2f4c38"/></radialGradient><radialGradient cx="312.92584" cy="129.57296" r="24.14657" gradientUnits="userSpaceOnUse" id="color-13"><stop offset="0" stop-color="#669f6c"/><stop offset="1" stop-color="#2f4c38"/></radialGradient><radialGradient cx="240.97956" cy="180.00002" r="125.63238" gradientUnits="userSpaceOnUse" id="color-14"><stop offset="0" stop-color="#669f6c"/><stop offset="1" stop-color="#4a7756"/></radialGradient><linearGradient x1="197.00254" y1="214.35238" x2="150.71603" y2="214.35238" gradientUnits="userSpaceOnUse" id="color-15"><stop offset="0" stop-color="#2f4c38"/><stop offset="1" stop-color="#2f4c38" stop-opacity="0"/></linearGradient><linearGradient x1="197.00254" y1="214.35238" x2="150.71603" y2="214.35238" gradientUnits="userSpaceOnUse" id="color-16"><stop offset="0" stop-color="#2f4c38"/><stop offset="1" stop-color="#2f4c38" stop-opacity="0"/></linearGradient><linearGradient x1="197.00254" y1="145.64762" x2="150.71603" y2="145.64762" gradientUnits="userSpaceOnUse" id="color-17"><stop offset="0" stop-color="#2f4c38"/><stop offset="1" stop-color="#2f4c38" stop-opacity="0"/></linearGradient><linearGradient x1="197.00254" y1="145.64762" x2="150.71603" y2="145.64762" gradientUnits="userSpaceOnUse" id="color-18"><stop offset="0" stop-color="#2f4c38"/><stop offset="1" stop-color="#2f4c38" stop-opacity="0"/></linearGradient><linearGradient x1="153.40259" y1="180.00002" x2="122.40908" y2="180.00002" gradientUnits="userSpaceOnUse" id="color-19"><stop offset="0" stop-color="#669f6c"/><stop offset="1" stop-color="#4a7756"/></linearGradient><linearGradient x1="310.81876" y1="221.77894" x2="310.81876" y2="210.95573" gradientUnits="userSpaceOnUse" id="color-20"><stop offset="0" stop-color="#94d0b4"/><stop offset="1" stop-color="#94d0b4" stop-opacity="0"/></linearGradient><linearGradient x1="310.81876" y1="221.77894" x2="310.81876" y2="210.95573" gradientUnits="userSpaceOnUse" id="color-21"><stop offset="0" stop-color="#94d0b4"/><stop offset="1" stop-color="#94d0b4" stop-opacity="0"/></linearGradient><radialGradient cx="353.03929" cy="180.00002" r="46.65017" gradientUnits="userSpaceOnUse" id="color-22"><stop offset="0" stop-color="#4c4c4c"/><stop offset="1" stop-color="#1b1b1b"/></radialGradient><linearGradient x1="310.81876" y1="149.04427" x2="310.81876" y2="138.22106" gradientUnits="userSpaceOnUse" id="color-23"><stop offset="0" stop-color="#94d0b4" stop-opacity="0"/><stop offset="1" stop-color="#94d0b4"/></linearGradient><linearGradient x1="310.81876" y1="149.04427" x2="310.81876" y2="138.22106" gradientUnits="userSpaceOnUse" id="color-24"><stop offset="0" stop-color="#94d0b4" stop-opacity="0"/><stop offset="1" stop-color="#94d0b4"/></linearGradient><radialGradient cx="347.1916" cy="218.06758" r="6.83166" gradientUnits="userSpaceOnUse" id="color-25"><stop offset="0" stop-color="#94d0b4"/><stop offset="1" stop-color="#669f6c"/></radialGradient><radialGradient cx="348.57328" cy="217.99081" r="6.44786" gradientUnits="userSpaceOnUse" id="color-26"><stop offset="0" stop-color="#ffffff"/><stop offset="1" stop-color="#bfbfbf"/></radialGradient><linearGradient x1="351.72045" y1="217.91407" x2="348.49652" y2="217.91407" gradientUnits="userSpaceOnUse" id="color-27"><stop offset="0" stop-color="#ffffff"/><stop offset="1" stop-color="#585858"/></linearGradient><radialGradient cx="283.99744" cy="198.07922" r="1.38168" gradientUnits="userSpaceOnUse" id="color-28"><stop offset="0" stop-color="#4c4c4c"/><stop offset="1" stop-color="#1b1b1b"/></radialGradient><linearGradient x1="193.8888" y1="180" x2="157.71424" y2="180" gradientUnits="userSpaceOnUse" id="color-29"><stop offset="0" stop-color="#4c4c4c"/><stop offset="1" stop-color="#1a1a1a"/></linearGradient><linearGradient x1="262.57622" y1="227.54057" x2="262.57622" y2="224.40875" gradientUnits="userSpaceOnUse" id="color-30"><stop offset="0" stop-color="#4a7756"/><stop offset="1" stop-color="#669f6c"/></linearGradient><radialGradient cx="138.38663" cy="180.00002" r="27.38971" gradientUnits="userSpaceOnUse" id="color-31"><stop offset="0" stop-color="#4c4c4c"/><stop offset="1" stop-color="#0c0c0c"/></radialGradient><radialGradient cx="138.46579" cy="166.3508" r="13.48189" gradientUnits="userSpaceOnUse" id="color-32"><stop offset="0" stop-color="#4c4c4c"/><stop offset="1" stop-color="#1b1b1b"/></radialGradient><radialGradient cx="138.46579" cy="193.6492" r="13.48189" gradientUnits="userSpaceOnUse" id="color-33"><stop offset="0" stop-color="#4c4c4c"/><stop offset="1" stop-color="#1b1b1b"/></radialGradient><linearGradient x1="150.51123" y1="180.00002" x2="148.36307" y2="180.00002" gradientUnits="userSpaceOnUse" id="color-34"><stop offset="0" stop-color="#4c4c4c"/><stop offset="1" stop-color="#1b1b1b"/></linearGradient><linearGradient x1="148.01105" y1="180.00002" x2="145.86289" y2="180.00002" gradientUnits="userSpaceOnUse" id="color-35"><stop offset="0" stop-color="#4c4c4c"/><stop offset="1" stop-color="#1b1b1b"/></linearGradient><linearGradient x1="145.64243" y1="180.00002" x2="143.49427" y2="180.00002" gradientUnits="userSpaceOnUse" id="color-36"><stop offset="0" stop-color="#4c4c4c"/><stop offset="1" stop-color="#1b1b1b"/></linearGradient><linearGradient x1="143.01064" y1="180.00002" x2="140.8625" y2="180.00002" gradientUnits="userSpaceOnUse" id="color-37"><stop offset="0" stop-color="#4c4c4c"/><stop offset="1" stop-color="#1b1b1b"/></linearGradient><linearGradient x1="137.8787" y1="180.00002" x2="136.25689" y2="180.00002" gradientUnits="userSpaceOnUse" id="color-38"><stop offset="0" stop-color="#4c4c4c"/><stop offset="1" stop-color="#1b1b1b"/></linearGradient><linearGradient x1="135.64166" y1="180.00002" x2="133.75668" y2="180.00002" gradientUnits="userSpaceOnUse" id="color-39"><stop offset="0" stop-color="#4c4c4c"/><stop offset="1" stop-color="#1b1b1b"/></linearGradient><linearGradient x1="133.00989" y1="180.00002" x2="130.99332" y2="180.00002" gradientUnits="userSpaceOnUse" id="color-40"><stop offset="0" stop-color="#4c4c4c"/><stop offset="1" stop-color="#1b1b1b"/></linearGradient><linearGradient x1="128.00956" y1="180.00002" x2="126.25612" y2="180.00002" gradientUnits="userSpaceOnUse" id="color-41"><stop offset="0" stop-color="#4c4c4c"/><stop offset="1" stop-color="#1b1b1b"/></linearGradient><radialGradient cx="347.1916" cy="141.93242" r="6.83166" gradientUnits="userSpaceOnUse" id="color-42"><stop offset="0" stop-color="#94d0b4"/><stop offset="1" stop-color="#669f6c"/></radialGradient><radialGradient cx="348.57328" cy="142.00919" r="6.44786" gradientUnits="userSpaceOnUse" id="color-43"><stop offset="0" stop-color="#ffffff"/><stop offset="1" stop-color="#bfbfbf"/></radialGradient><linearGradient x1="351.72045" y1="142.08593" x2="348.49652" y2="142.08593" gradientUnits="userSpaceOnUse" id="color-44"><stop offset="0" stop-color="#ffffff"/><stop offset="1" stop-color="#585858"/></linearGradient><radialGradient cx="283.99744" cy="161.92078" r="1.38168" gradientUnits="userSpaceOnUse" id="color-45"><stop offset="0" stop-color="#4c4c4c"/><stop offset="1" stop-color="#1b1b1b"/></radialGradient><linearGradient x1="281.41369" y1="180" x2="250.77615" y2="180" gradientUnits="userSpaceOnUse" id="color-46"><stop offset="0" stop-color="#1a1a1a"/><stop offset="1" stop-color="#4c4c4c"/></linearGradient><linearGradient x1="262.57622" y1="135.59125" x2="262.57622" y2="132.45943" gradientUnits="userSpaceOnUse" id="color-47"><stop offset="0" stop-color="#669f6c"/><stop offset="1" stop-color="#4a7756"/></linearGradient><linearGradient x1="140.24727" y1="180.00002" x2="138.62546" y2="180.00002" gradientUnits="userSpaceOnUse" id="color-48"><stop offset="0" stop-color="#4c4c4c"/><stop offset="1" stop-color="#1b1b1b"/></linearGradient><linearGradient x1="130.50971" y1="180.00002" x2="128.62476" y2="180.00002" gradientUnits="userSpaceOnUse" id="color-49"><stop offset="0" stop-color="#4c4c4c"/><stop offset="1" stop-color="#1b1b1b"/></linearGradient><linearGradient x1="192.21712" y1="147.10414" x2="192.21712" y2="139.91523" gradientUnits="userSpaceOnUse" id="color-50"><stop offset="0" stop-color="#4c4c4c"/><stop offset="1" stop-color="#1a1a1a"/></linearGradient><linearGradient x1="227.82065" y1="146.62799" x2="227.82065" y2="138.53085" gradientUnits="userSpaceOnUse" id="color-51"><stop offset="0" stop-color="#4c4c4c"/><stop offset="1" stop-color="#1a1a1a"/></linearGradient><linearGradient x1="253.7437" y1="146.67441" x2="253.7437" y2="138.60105" gradientUnits="userSpaceOnUse" id="color-52"><stop offset="0" stop-color="#4c4c4c"/><stop offset="1" stop-color="#1a1a1a"/></linearGradient><linearGradient x1="192.21712" y1="220.0848" x2="192.21712" y2="212.89588" gradientUnits="userSpaceOnUse" id="color-53"><stop offset="0" stop-color="#1a1a1a"/><stop offset="1" stop-color="#4c4c4c"/></linearGradient><linearGradient x1="227.82065" y1="221.46915" x2="227.82065" y2="213.37203" gradientUnits="userSpaceOnUse" id="color-54"><stop offset="0" stop-color="#1a1a1a"/><stop offset="1" stop-color="#4c4c4c"/></linearGradient><linearGradient x1="253.7437" y1="221.39898" x2="253.7437" y2="213.32562" gradientUnits="userSpaceOnUse" id="color-55"><stop offset="0" stop-color="#1a1a1a"/><stop offset="1" stop-color="#4c4c4c"/></linearGradient><linearGradient x1="139.32701" y1="136.64897" x2="130.90536" y2="136.64897" gradientUnits="userSpaceOnUse" id="color-56"><stop offset="0" stop-color="#4c4c4c"/><stop offset="1" stop-color="#1b1b1b"/></linearGradient><linearGradient x1="139.32701" y1="223.35105" x2="130.90536" y2="223.35105" gradientUnits="userSpaceOnUse" id="color-57"><stop offset="0" stop-color="#4c4c4c"/><stop offset="1" stop-color="#1b1b1b"/></linearGradient><linearGradient x1="219.83612" y1="229.44422" x2="219.83612" y2="227.29492" gradientUnits="userSpaceOnUse" id="color-58"><stop offset="0" stop-color="#000000" stop-opacity="0"/><stop offset="1" stop-color="#000000"/></linearGradient><linearGradient x1="219.83612" y1="229.44422" x2="219.83612" y2="227.29492" gradientUnits="userSpaceOnUse" id="color-59"><stop offset="0" stop-color="#000000"/><stop offset="1" stop-color="#000000" stop-opacity="0"/></linearGradient><linearGradient x1="219.83612" y1="230.18111" x2="219.83612" y2="227.93972" gradientUnits="userSpaceOnUse" id="color-60"><stop offset="0" stop-color="#1b1b1b"/><stop offset="1" stop-color="#4c4c4c"/></linearGradient><linearGradient x1="219.83612" y1="132.70508" x2="219.83612" y2="130.55578" gradientUnits="userSpaceOnUse" id="color-61"><stop offset="0" stop-color="#000000"/><stop offset="1" stop-color="#000000" stop-opacity="0"/></linearGradient><linearGradient x1="219.83612" y1="132.70508" x2="219.83612" y2="130.55578" gradientUnits="userSpaceOnUse" id="color-62"><stop offset="0" stop-color="#000000" stop-opacity="0"/><stop offset="1" stop-color="#000000"/></linearGradient><linearGradient x1="219.83615" y1="132.06028" x2="219.83615" y2="129.81889" gradientUnits="userSpaceOnUse" id="color-63"><stop offset="0" stop-color="#4c4c4c"/><stop offset="1" stop-color="#1b1b1b"/></linearGradient><linearGradient x1="261.46611" y1="225.6983" x2="261.46611" y2="237.45919" gradientUnits="userSpaceOnUse" id="color-64"><stop offset="0" stop-color="#669f6c"/><stop offset="1" stop-color="#4a7756"/></linearGradient><linearGradient x1="263.2472" y1="231.64208" x2="258.30223" y2="231.64208" gradientUnits="userSpaceOnUse" id="color-65"><stop offset="0" stop-color="#4c4c4c"/><stop offset="1" stop-color="#1b1b1b"/></linearGradient><linearGradient x1="261.46611" y1="134.3017" x2="261.46611" y2="122.54081" gradientUnits="userSpaceOnUse" id="color-66"><stop offset="0" stop-color="#669f6c"/><stop offset="1" stop-color="#4a7756"/></linearGradient><linearGradient x1="263.2472" y1="128.35792" x2="258.30223" y2="128.35792" gradientUnits="userSpaceOnUse" id="color-67"><stop offset="0" stop-color="#4c4c4c"/><stop offset="1" stop-color="#1b1b1b"/></linearGradient><linearGradient x1="151.95954" y1="180.00002" x2="117.48327" y2="180.00002" gradientUnits="userSpaceOnUse" id="color-68"><stop offset="0" stop-color="#4c4c4c"/><stop offset="1" stop-color="#1b1b1b"/></linearGradient><radialGradient cx="238.5" cy="181" r="215.5" gradientUnits="userSpaceOnUse" id="color-69"><stop offset="0" stop-color="#9c9c9c"/><stop offset="1" stop-color="#9c9c9c" stop-opacity="0"/></radialGradient></defs><g transform="translate(-23,-122.16581)"><g data-paper-data="{&quot;isPaintingLayer&quot;:true}" fill-rule="nonzero" stroke-linejoin="miter" stroke-miterlimit="10" stroke-dasharray="" stroke-dashoffset="0" style="mix-blend-mode: normal"><g fill="#18261a" stroke="none" stroke-width="0"><path d="M116.3782,151.73301c0,0 -0.74655,2.86313 -0.85638,4.35687c-0.10947,1.48894 -0.19633,4.59119 -0.19633,4.59119h-2.76337c0,0 0,-5.97437 0,-7.50057c0,-0.67046 0.90589,-1.44748 1.44748,-1.44748c0.69281,0 2.3686,0 2.3686,0z" data-paper-data="{&quot;index&quot;:null}" stroke-linecap="round"/><path d="M342.19372,234.74148c0,0 0,0.72584 0,1.06953c0,0.31984 -0.82834,0.92624 -1.55568,0.92624c-1.70781,0 -8.57667,0 -8.57667,0l5.45564,-1.89183z" data-paper-data="{&quot;index&quot;:null}" stroke-linecap="round"/><path d="M337.51703,141.15457l-5.45564,-1.89183c0,0 6.86886,0 8.57667,0c0.72734,0 1.55568,0.6064 1.55568,0.92624c0,0.34369 0,1.06953 0,1.06953z" data-paper-data="{&quot;index&quot;:null}" stroke-linecap="round"/><path d="M364.04351,188.32841c0,0 -0.31622,8.85181 -1.06299,17.11185c-0.47849,5.29237 -1.33732,10.34182 -1.73406,12.66441c-0.60961,3.56883 -2.26913,2.57818 -2.26913,2.57818l1.38168,-32.2393v-0.88708l-1.38168,-32.2393c0,0 1.65949,-0.99065 2.26913,2.57818c0.39675,2.32259 1.25558,7.37203 1.73406,12.66441c0.74677,8.26004 1.06299,17.11185 1.06299,17.11185z" data-paper-data="{&quot;index&quot;:null}" stroke-linecap="round"/><path d="M113.74646,168.31325c0,0 -5.7899,-1.78967 -5.7899,-3.55291c0,-1.22413 0,-2.43556 0,-3.02656c0,-0.70656 1.95928,-1.57906 3.02653,-1.57906c1.1984,0 3.81607,0 3.81607,0z" data-paper-data="{&quot;index&quot;:null}" stroke-linecap="round"/><path d="M126.64216,145.28515l-9.73758,6.57944l-1.97383,-0.13158c0,0 0.2337,-1.53764 1.38404,-3.00114c0.55399,-0.70483 2.69817,-2.66602 5.15106,-3.94968c2.56957,-1.34474 5.43948,-1.99723 5.43948,-1.99723z" data-paper-data="{&quot;index&quot;:null}" stroke-linecap="round"/><path d="M126.90537,233.21505c0,0 -2.86993,-0.65248 -5.43948,-1.99723c-2.45291,-1.28369 -4.59707,-3.24488 -5.15106,-3.94968c-1.15034,-1.46352 -1.38404,-3.00114 -1.38404,-3.00114l1.97383,-0.13158l9.73758,6.57944z" data-paper-data="{&quot;index&quot;:null}" stroke-linecap="round"/><path d="M116.3782,224.26701c0,0 -1.67579,0 -2.3686,0c-0.54161,0 -1.44748,-0.77702 -1.44748,-1.44748c0,-1.52619 0,-7.50057 0,-7.50057h2.76337c0,0 0.08683,3.10225 0.19633,4.59119c0.10983,1.49375 0.85638,4.35687 0.85638,4.35687z" data-paper-data="{&quot;index&quot;:null}" stroke-linecap="round"/><path d="M114.79912,215.8453c0,0 -2.6177,0 -3.81607,0c-1.06725,0 -3.02653,-0.87249 -3.02653,-1.57906c0,-0.591 0,-1.80242 0,-3.02656c0,-1.76324 5.7899,-3.55291 5.7899,-3.55291z" data-paper-data="{&quot;index&quot;:null}" stroke-linecap="round"/><path d="M285.63293,238.41448c0,0 -1.98235,0 -2.76337,0c-0.57482,0 -1.49682,-0.55689 -1.49682,-0.92112c0,-0.53095 0,-1.95738 0,-1.95738h4.49048z" data-paper-data="{&quot;index&quot;:null}" stroke-linecap="round"/><path d="M285.86321,140.46405h-4.49048c0,0 0,-1.42643 0,-1.95738c0,-0.36423 0.922,-0.92112 1.49682,-0.92112c0.78102,0 2.76337,0 2.76337,0z" data-paper-data="{&quot;index&quot;:null}" stroke-linecap="round"/><path d="M329.34037,239.63163c-0.48832,0.40912 -2.16273,0.70849 -3.89279,0.73713c-7.20943,0.11932 -26.64511,0.40127 -35.01146,0.12882c-2.37412,-0.07731 -3.85687,-1.07215 -3.91593,-1.13656c-0.53183,-0.58017 -1.74094,-2.59304 -1.74094,-2.59304l48.29314,-0.52635c0,0 -2.84723,2.64869 -3.73205,3.39003z" data-paper-data="{&quot;index&quot;:null}" stroke-linecap="round"/><path d="M333.07239,139.75839l-48.29314,-0.52635c0,0 1.20911,-2.01286 1.74094,-2.59304c0.05905,-0.06443 1.54181,-1.05927 3.91593,-1.13656c8.36635,-0.27245 27.80202,0.00947 35.01146,0.12882c1.73006,0.02863 3.40445,0.328 3.89279,0.73713c0.88482,0.74134 3.73205,3.39003 3.73205,3.39003z" data-paper-data="{&quot;index&quot;:null}" stroke-linecap="round"/><path d="M362.61193,188.09957c0,0 -0.04051,10.42339 -1.43688,20.97853c-1.12861,8.53109 -3.33457,17.08441 -5.62343,20.78903c-0.67238,1.08827 -3.55422,4.34873 -7.83823,5.43134c-6.28048,1.5871 -14.51598,0.82229 -14.51598,0.82229l-111.21023,0.12282h-16.94866c0,0 -4.91986,5.46157 -10.82083,6.08682c-7.17847,0.76064 -26.49482,0.88042 -37.27708,0.57396c-2.37607,-0.06753 -4.33771,-0.27576 -5.66368,-0.45804c-1.19545,-0.16433 -2.39811,-1.09138 -3.25587,-2.15559c-1.19893,-1.48751 -3.05007,-3.52282 -5.03457,-4.73127c-2.96208,-1.80371 -15.36517,-2.47133 -21.18361,-5.35688c-6.00175,-2.97645 -6.85018,-14.40796 -6.85018,-14.40796c0,0 -1.95467,-5.18757 -2.38119,-8.65155c-0.02483,-0.20154 0.03102,-1.67632 -0.18811,-3.17242c-0.24357,-1.66292 -0.76488,-3.3832 -0.80318,-4.06634c-0.08928,-1.59336 -0.23305,-11.66442 -0.23305,-11.66442v-0.47979c0,0 0.14377,-10.07106 0.23305,-11.66442c0.03827,-0.68314 0.55961,-2.40342 0.80318,-4.06634c0.21915,-1.4961 0.16331,-2.97088 0.18811,-3.17242c0.42652,-3.46398 2.38119,-8.65155 2.38119,-8.65155c0,0 0.84843,-11.43151 6.85018,-14.40796c5.81844,-2.88553 18.22154,-3.55315 21.18361,-5.35688c1.98449,-1.20845 3.83566,-3.24376 5.03457,-4.73127c0.85774,-1.0642 2.06042,-1.99125 3.25587,-2.15559c1.32599,-0.18228 3.28763,-0.39051 5.66368,-0.45804c10.78227,-0.30644 30.09862,-0.18666 37.27708,0.57396c5.90094,0.62528 10.82083,6.08682 10.82083,6.08682h16.94866l111.21023,0.12282c0,0 8.2355,-0.76479 14.51598,0.82229c4.28401,1.08258 7.16587,4.34305 7.83823,5.43134c2.28886,3.70465 4.49481,12.25795 5.62343,20.78903c1.39637,10.55514 1.43688,20.97853 1.43688,20.97853z" data-paper-data="{&quot;index&quot;:null}" stroke-linecap="round"/><path d="M333.52727,139.86698c0,0 2.29602,0.19959 4.17988,0.76176c0.66415,0.19818 3.02237,1.31825 3.86942,2.10924c1.2362,1.15439 0.88918,2.05395 0.88918,2.05395v0c0,0 -6.5525,-1.10931 -16.27768,-1.36036c-19.01218,-0.49077 -50.14972,-0.30058 -68.16062,-0.33517c-20.43128,-0.0392 -55.28278,0.83741 -69.36069,1.21721c-3.86932,0.1044 -4.47241,-0.98537 -2.70365,-2.40754c2.34156,-1.88271 3.27384,-5.52036 2.09713,-6.26655c-2.12876,-1.34993 -25.33217,-1.71074 -29.656,0.83234c-3.57514,2.10272 -4.12872,9.31549 -6.56004,10.02867c-1.39899,0.41036 -7.83323,0.06536 -14.50646,0.84322c-6.6201,0.77166 -12.87106,3.28196 -12.87106,3.28196c0,0 1.05018,-2.30571 5.69003,-4.32967c2.0792,-0.90696 6.12845,-1.21687 8.82874,-2.00591c3.02739,-0.88461 4.6635,-2.23621 5.93753,-3.03513c3.13103,-1.9634 6.35355,-7.44111 6.35355,-7.44111l0.0004,-0.26019c1.32599,-0.18228 3.28763,-0.39051 5.66368,-0.45804c10.78227,-0.30644 30.09862,-0.18666 37.27708,0.57396c5.90094,0.62528 10.8208,6.08682 10.8208,6.08682h16.94866l111.21023,0.12282z" data-paper-data="{&quot;index&quot;:null}" stroke-linecap="round"/><path d="M333.19743,236.12074l-111.21023,0.12282h-16.94866c0,0 -4.91986,5.46157 -10.8208,6.08682c-7.17847,0.76064 -26.49482,0.88042 -37.27708,0.57396c-2.37607,-0.06753 -4.33771,-0.27576 -5.66368,-0.45804l-0.0004,-0.26019c0,0 -3.22255,-5.4777 -6.35355,-7.44111c-1.27402,-0.79892 -2.91014,-2.15052 -5.93753,-3.03513c-2.70029,-0.78904 -6.74954,-1.09895 -8.82874,-2.00591c-4.63984,-2.02396 -5.69003,-4.32967 -5.69003,-4.32967c0,0 6.25094,2.51027 12.87106,3.28196c6.6732,0.77785 13.10747,0.43285 14.50646,0.84322c2.43132,0.71318 2.9849,7.92595 6.56004,10.02867c4.32381,2.54307 27.52724,2.18227 29.656,0.83234c1.17672,-0.7462 0.24443,-4.38384 -2.09713,-6.26655c-1.76877,-1.42217 -1.16567,-2.51194 2.70365,-2.40754c14.07789,0.37982 48.92942,1.25643 69.36069,1.21721c18.01091,-0.03456 49.14845,0.15562 68.16062,-0.33517c9.72518,-0.25105 16.27768,-1.36036 16.27768,-1.36036v0c0,0 0.34702,0.89956 -0.88918,2.05395c-0.84705,0.79099 -3.20529,1.91106 -3.86942,2.10924c-1.88385,0.56218 -4.17988,0.76176 -4.17988,0.76176z" data-paper-data="{&quot;index&quot;:null}" stroke-linecap="round"/><path d="M193.00256,227.99427c0,0 -17.61976,-1.39199 -25.97696,-2.60989c-6.37455,-0.92895 -20.07916,-4.29853 -20.07916,-4.29853l-0.23027,-4.37532c0,0 5.37164,1.26745 9.43172,1.70328c7.39955,0.7943 31.32799,2.67204 31.32799,2.67204z" data-paper-data="{&quot;index&quot;:null}" stroke-linecap="round"/><path d="M187.47582,154.91415c0,0 -23.92844,1.87774 -31.32799,2.67204c-4.06008,0.43583 -9.43172,1.70328 -9.43172,1.70328l0.23027,-4.37532c0,0 13.70461,-3.36958 20.07916,-4.29853c8.35721,-1.21787 25.97696,-2.60989 25.97696,-2.60989z" data-paper-data="{&quot;index&quot;:null}" stroke-linecap="round"/><path d="M187.47582,221.08585c0,0 -23.92844,-1.87774 -31.32799,-2.67204c-4.06008,-0.43583 -9.43172,-1.70328 -9.43172,-1.70328" data-paper-data="{&quot;index&quot;:null}" stroke-linecap="round"/><path d="M146.71605,159.28949c0,0 5.37164,-1.26745 9.43172,-1.70328c7.39955,-0.7943 31.32799,-2.67204 31.32799,-2.67204" data-paper-data="{&quot;index&quot;:null}" stroke-linecap="round"/><path d="M148.61757,188.4748c0,0 0.15962,6.87031 0.41374,13.54292c0.21653,5.68529 0.40615,11.22702 0.36583,12.25331c-0.11095,2.82311 -1.70069,4.20606 -1.70069,4.20606l0.26319,-0.26316c0,0 -25.60914,-0.68071 -27.37417,-2.48511c-0.29054,-0.29704 -1.20057,-1.13318 -1.41896,-2.53955c-1.09041,-7.02177 -0.68281,-25.10921 -0.68281,-25.10921v-0.16007c0,0 -0.40762,-18.08743 0.68281,-25.10921c0.21839,-1.40637 1.12845,-2.24254 1.41896,-2.53955c1.76503,-1.80442 27.37417,-2.48511 27.37417,-2.48511l-0.26319,-0.26316c0,0 1.58975,1.38295 1.70069,4.20606c0.04035,1.02628 -0.14929,6.56802 -0.36583,12.25331c-0.25414,6.67258 -0.41374,13.54292 -0.41374,13.54292z" data-paper-data="{&quot;index&quot;:null}" stroke-linecap="round"/><path d="M340.3246,218.95573l0.11513,10.82318h-67.24195c0,0 3.69785,-1.24717 6.6449,-1.96785c4.85219,-1.18657 19.72224,-4.48001 19.72224,-4.48001z" data-paper-data="{&quot;index&quot;:null}" stroke-linecap="round"/><path d="M152.30206,187.3936c0,0 0.19523,-9.53057 0.48415,-14.19793c0.14494,-2.34137 0.46656,-5.84086 0.74408,-8.6814c0.26064,-2.6678 2.96674,-4.99929 5.27681,-5.22704c2.82554,-0.27856 26.56232,-2.60603 29.71775,-1.76758c2.15923,0.57377 2.81262,2.2767 2.8016,3.15902c-0.02875,2.30093 -0.36011,7.88667 -0.42769,13.29337c-0.08683,6.94734 0.09047,13.68474 0.09047,13.68474v0.68645c0,0 -0.17731,6.7374 -0.09047,13.68474c0.06758,5.40668 0.39894,10.99242 0.42769,13.29337c0.01102,0.88232 -0.64237,2.58525 -2.8016,3.15902c-3.15543,0.83848 -26.89221,-1.48899 -29.71775,-1.76758c-2.31007,-0.22775 -5.01617,-2.55924 -5.27681,-5.22704c-0.27752,-2.84054 -0.59914,-6.34003 -0.74408,-8.6814c-0.28892,-4.66736 -0.48415,-14.19793 -0.48415,-14.19793z" data-paper-data="{&quot;index&quot;:null}" stroke-linecap="round"/><path d="M354.94743,187.67159c0,0 -0.36373,-13.2122 -2.07937,-24.65626c-0.88404,-5.89687 -2.88814,-11.40885 -3.79146,-14.22466c-1.40599,-4.38275 -9.0974,-7.06007 -9.0974,-7.06007c0,0 3.19872,-1.25298 6.18853,0.78702c1.41458,0.96521 3.08518,2.50011 4.3578,4.13627c1.87709,2.41328 3.15909,5.04687 3.68597,6.39766c0.91436,2.34415 2.13866,7.55517 2.73819,13.33831c0.28794,2.77772 0.73175,5.67001 0.88994,8.39191c0.40339,6.94132 0.21661,12.77468 0.21661,12.77468v0.88711c0,0 0.1868,5.83337 -0.21661,12.77468c-0.15819,2.72193 -0.602,5.61419 -0.88994,8.39191c-0.59952,5.78317 -1.82382,10.99418 -2.73819,13.33831c-0.52688,1.35079 -1.80887,3.98436 -3.68597,6.39766c-1.27262,1.63616 -2.94322,3.17106 -4.3578,4.13627c-2.98981,2.04 -6.18853,0.78702 -6.18853,0.78702c0,0 7.69142,-2.67732 9.0974,-7.06007c0.90332,-2.81581 2.90742,-8.32779 3.79146,-14.22466c1.71564,-11.44406 2.07937,-24.65626 2.07937,-24.65626z" data-paper-data="{&quot;index&quot;:null}" stroke-linecap="round"/><path d="M284.72793,171.13053c0,0 8.21984,0.62075 13.44257,0.82784c7.7177,0.30599 28.37641,0.8302 28.37641,0.8302l-41.53242,0.26609z" data-paper-data="{&quot;index&quot;:null}" stroke-linecap="round"/><path d="M285.01452,202.94536l41.53242,0.26609c0,0 -20.65871,0.52421 -28.37641,0.8302c-5.2227,0.20706 -13.44257,0.82784 -13.44257,0.82784z" data-paper-data="{&quot;index&quot;:null}" stroke-linecap="round"/><path d="M299.56492,152.66892c0,0 -14.87005,-3.29343 -19.72224,-4.48001c-2.94706,-0.72068 -6.6449,-1.96785 -6.6449,-1.96785h67.24195l-0.11513,10.82318z" data-paper-data="{&quot;index&quot;:null}" stroke-linecap="round"/><path d="M338.6276,217.43266c2.12486,0.06317 3.52339,0.60321 3.75688,0.95392c0.8142,1.22294 -1.85153,4.93859 -1.85153,4.93859c0,0 -0.60457,-3.02046 -2.67673,-2.94091c-6.49261,0.24924 -39.31111,3.00023 -39.31111,3.00023c0,0 7.99695,-1.8441 16.70661,-3.47505c3.40985,-0.63851 19.93706,-2.57897 23.37591,-2.47676z" data-paper-data="{&quot;index&quot;:null}" stroke-linecap="round"/><path d="M347.87396,226.06758c0,3.77301 -2.09637,6.83166 -4.68238,6.83166c-2.58601,0 -4.68238,-3.05864 -4.68238,-6.83166c0,-3.77301 2.09637,-6.83166 4.68238,-6.83166c2.58601,0 4.68238,3.05864 4.68238,6.83166z" data-paper-data="{&quot;index&quot;:null}" stroke-linecap="butt"/><path d="M341.4261,225.99081c0,-3.56105 1.40903,-6.44786 3.14717,-6.44786c1.73813,0 3.14717,2.88681 3.14717,6.44786c0,3.56105 -1.40903,6.44786 -3.14717,6.44786c-1.73813,0 -3.14717,-2.88681 -3.14717,-6.44786z" data-paper-data="{&quot;index&quot;:null}" stroke-linecap="butt"/><path d="M344.49653,225.91407c0,-2.92516 0.7217,-5.29645 1.61195,-5.29645c0.89027,0 1.61195,2.37131 1.61195,5.29645c0,2.92516 -0.7217,5.29645 -1.61195,5.29645c-0.89027,0 -1.61195,-2.37131 -1.61195,-5.29645z" data-paper-data="{&quot;index&quot;:null}" stroke-linecap="butt"/><path d="M259.20822,229.60623c0,0 5.56837,0.4155 7.25982,-0.02525c0.3698,-0.09635 2.43703,-0.80056 4.1322,-1.65673c1.64897,-0.83284 2.91495,-1.81566 4.10433,-2.08665c8.5791,-1.95471 27.57009,-4.83008 34.66136,-6.09886c14.61776,-2.61543 43.4514,-6.94301 43.4514,-6.94301" data-paper-data="{&quot;index&quot;:null}" stroke-linecap="round"/><path d="M262.25944,230.00923c0,0 0.98063,1.76634 2.45474,2.42151c1.17931,0.52414 7.02794,0.25183 9.53726,1.09369c3.44573,1.15601 3.32164,2.8175 3.32164,2.8175" data-paper-data="{&quot;index&quot;:null}" stroke-linecap="round"/><path d="M280.12232,151.23427c0,0 1.45414,4.05091 2.64788,8.54235c0.78045,2.93644 1.34412,6.06121 1.68331,8.36535c0.9187,6.24075 1.01131,19.38455 1.01131,19.38455v0.947c0,0 -0.09262,13.14377 -1.01131,19.38455c-0.33919,2.30414 -0.90287,5.42888 -1.68331,8.36535c-1.19374,4.49146 -2.64788,8.54235 -2.64788,8.54235" data-paper-data="{&quot;index&quot;:null}" stroke-linecap="round"/><path d="M278.61575,206.07922c0,-0.53699 0.61861,-0.9723 1.38168,-0.9723c0.76307,0 1.38168,0.43531 1.38168,0.9723c0,0.53699 -0.61861,0.9723 -1.38168,0.9723c-0.76307,0 -1.38168,-0.43531 -1.38168,-0.9723z" data-paper-data="{&quot;index&quot;:null}" stroke-linecap="butt"/><path d="M151.90731,217.81915c0,0 -0.71687,-8.27982 -0.89708,-12.76509c-0.20999,-5.22627 -0.28723,-16.71084 -0.28723,-16.71084v-0.68645c0,0 0.07724,-11.48455 0.28723,-16.71084c0.18021,-4.48527 0.89708,-12.76509 0.89708,-12.76509" data-paper-data="{&quot;index&quot;:null}" stroke-linecap="round"/><path d="M153.74955,187.65679c0,0 -0.42024,-18.76641 1.63942,-23.60432c1.0489,-2.46371 3.99464,-3.16826 5.33146,-3.27991c6.71793,-0.56115 16.29058,-1.13356 20.50231,-1.56085c2.1528,-0.21839 4.79163,-0.33305 6.45669,0.09919c1.56261,0.40562 2.22052,1.3243 2.20926,2.16082c-0.06263,4.6547 -0.34695,25.79032 -0.34695,25.79032v1.47597c0,0 0.28433,21.13563 0.34695,25.79032c0.01126,0.83653 -0.64665,1.7552 -2.20926,2.16082c-1.66506,0.43221 -4.30389,0.31758 -6.45669,0.09919c-4.21175,-0.42729 -13.7844,-0.9997 -20.50231,-1.56085c-1.33682,-0.11166 -4.28256,-0.8162 -5.33146,-3.27991c-2.05966,-4.83788 -1.63942,-23.60432 -1.63942,-23.60432z" data-paper-data="{&quot;index&quot;:null}" stroke-linecap="round"/><path d="M236.89915,221.39622h2.78384l6.12033,8.00354l-2.0674,0.08188z" data-paper-data="{&quot;index&quot;:null}" stroke-linecap="round"/><path d="M209.6339,228.17158h-5.15829l-4.72844,-7.00054l4.60561,0.18423z" data-paper-data="{&quot;index&quot;:null}" stroke-linecap="round"/><path d="M201.89648,221.41669l5.80302,7.01684c0,0 0.01297,0.96397 -0.03837,2.08803c-0.04715,1.03262 -0.16774,2.20036 0.01438,2.87996c0.31229,1.16529 2.14261,2.93734 2.14261,2.93734" data-paper-data="{&quot;index&quot;:null}" stroke-linecap="round"/><path d="M261.4624,233.51411c0,0.47046 0,0.96956 0,1.22816c0,0.33579 -0.34536,0.7983 -0.67548,0.7983c-0.64641,0 -2.96103,0 -4.23717,0c-0.51414,0 -0.85971,-0.63625 -0.85971,-1.04395c0,-0.28147 0,-0.78573 0,-1.22816c0,-0.46382 0.53171,-0.85971 0.98253,-0.85971c0.71894,0 2.89795,0 4.05294,0c0.44419,0 0.73689,0.53135 0.73689,1.10536z" data-paper-data="{&quot;index&quot;:null}" stroke-linecap="butt"/><path d="M120.54549,188.08862c0,0 0.07567,-7.7369 0.3828,-14.63035c0.21118,-4.73993 0.67055,-9.01171 0.73127,-10.37467c0.03742,-0.83979 0.55451,-1.59512 1.38404,-1.62797c4.2301,-0.16752 17.43771,-0.69059 21.18385,-0.83898c2.0887,-0.08271 4.06001,0.63363 3.99883,2.72307c-0.05379,1.83839 -0.12325,4.21118 -0.17702,6.0479c-0.14541,4.96801 -0.52809,18.04304 -0.52809,18.04304v1.13868c0,0 0.38268,13.07503 0.52809,18.04304c0.05375,1.83675 0.1232,4.20951 0.17702,6.0479c0.06115,2.08944 -1.91016,2.80579 -3.99883,2.72307c-3.74617,-0.14836 -16.95375,-0.67143 -21.18385,-0.83898c-0.82953,-0.03285 -1.34662,-0.78818 -1.38404,-1.62797c-0.06072,-1.36298 -0.52009,-5.63473 -0.73127,-10.37467c-0.30713,-6.89345 -0.3828,-14.63035 -0.3828,-14.63035z" data-paper-data="{&quot;index&quot;:null}" stroke-linecap="round"/><path d="M147.94768,173.72278l-0.08374,1.42355h-26.88004l0.08374,-1.59103z" data-paper-data="{&quot;index&quot;:null}" stroke-linecap="round"/><path d="M121.06765,202.44472l-0.08374,-1.59103h26.88004l0.08374,1.42355z" data-paper-data="{&quot;index&quot;:null}" stroke-linecap="round"/><path d="M144.36309,187.82543c0,0 0.04394,-13.22411 0.31053,-18.0469c0.1875,-3.39176 0.7422,-8.2709 0.7422,-8.2709c0,0 1.02476,-0.68567 1.09205,2.62831c0.04215,2.07589 -0.32224,6.31697 -0.45023,11.04583c-0.16664,6.15716 -0.11547,12.2489 -0.11547,12.2489v1.13868c0,0 -0.05118,6.09175 0.11547,12.2489c0.12799,4.72884 0.49239,8.96994 0.45023,11.04583c-0.06729,3.31398 -1.09205,2.62831 -1.09205,2.62831c0,0 -0.5547,-4.87913 -0.7422,-8.2709c-0.26659,-4.82279 -0.31053,-18.0469 -0.31053,-18.0469z" data-paper-data="{&quot;index&quot;:null}" stroke-linecap="round"/><path d="M141.86291,187.82543c0,0 0.04394,-12.89425 0.31053,-17.59671c0.1875,-3.30715 0.7422,-8.0646 0.7422,-8.0646c0,0 1.02476,-0.66857 1.09205,2.56276c0.04215,2.02412 -0.32224,6.15939 -0.45023,10.77029c-0.16662,6.00356 -0.11547,11.94335 -0.11547,11.94335v1.11897c0,0 -0.05115,5.93979 0.11547,11.94335c0.12799,4.6109 0.49239,8.74617 0.45023,10.77029c-0.06729,3.23131 -1.09205,2.56276 -1.09205,2.56276c0,0 -0.5547,-4.75743 -0.7422,-8.0646c-0.26659,-4.70247 -0.31053,-17.59671 -0.31053,-17.59671z" data-paper-data="{&quot;index&quot;:null}" stroke-linecap="round"/><path d="M139.49429,187.82543c0,0 0.04394,-13.02619 0.31053,-17.77681c0.1875,-3.34099 0.7422,-8.1471 0.7422,-8.1471c0,0 1.02476,-0.67541 1.09205,2.58897c0.04215,2.04483 -0.32224,6.22242 -0.45023,10.8805c-0.16662,6.06499 -0.11547,12.06557 -0.11547,12.06557v1.12685c0,0 -0.05115,6.00058 0.11547,12.06557c0.12799,4.65808 0.49239,8.83567 0.45023,10.8805c-0.06729,3.2644 -1.09205,2.58897 -1.09205,2.58897c0,0 -0.5547,-4.80611 -0.7422,-8.1471c-0.26659,-4.7506 -0.31053,-17.77681 -0.31053,-17.77681z" data-paper-data="{&quot;index&quot;:null}" stroke-linecap="round"/><path d="M136.86252,187.82543c0,0 0.04394,-13.02619 0.31053,-17.77681c0.1875,-3.34099 0.7422,-8.1471 0.7422,-8.1471c0,0 1.02476,-0.67541 1.09205,2.58897c0.04215,2.04483 -0.32224,6.22242 -0.45023,10.8805c-0.16662,6.06499 -0.11547,12.06557 -0.11547,12.06557v1.12685c0,0 -0.05115,6.00058 0.11547,12.06557c0.12799,4.65808 0.49239,8.83567 0.45023,10.8805c-0.06729,3.2644 -1.09205,2.58897 -1.09205,2.58897c0,0 -0.5547,-4.80611 -0.7422,-8.1471c-0.26659,-4.7506 -0.31053,-17.77681 -0.31053,-17.77681z" data-paper-data="{&quot;index&quot;:null}" stroke-linecap="round"/><path d="M132.2569,187.82543c0,0 0.03318,-13.02619 0.23443,-17.77681c0.14153,-3.34099 0.56032,-8.1471 0.56032,-8.1471c0,0 0.77366,-0.67541 0.82446,2.58897c0.03182,2.04483 -0.24329,6.22242 -0.3399,10.8805c-0.1258,6.06499 -0.08719,12.06557 -0.08719,12.06557v1.12685c0,0 -0.03863,6.00058 0.08719,12.06557c0.09662,4.65808 0.37173,8.83567 0.3399,10.8805c-0.0508,3.2644 -0.82446,2.58897 -0.82446,2.58897c0,0 -0.41879,-4.80611 -0.56032,-8.1471c-0.20128,-4.7506 -0.23443,-17.77681 -0.23443,-17.77681z" data-paper-data="{&quot;index&quot;:null}" stroke-linecap="round"/><path d="M129.7567,187.82543c0,0 0.03856,-13.02619 0.2725,-17.77681c0.1645,-3.34099 0.65125,-8.1471 0.65125,-8.1471c0,0 0.89922,-0.67541 0.95826,2.58897c0.03699,2.04483 -0.28278,6.22242 -0.39508,10.8805c-0.14622,6.06499 -0.10133,12.06557 -0.10133,12.06557v1.12685c0,0 -0.04489,6.00058 0.10133,12.06557c0.1123,4.65808 0.43205,8.83567 0.39508,10.8805c-0.05905,3.2644 -0.95826,2.58897 -0.95826,2.58897c0,0 -0.48674,-4.80611 -0.65125,-8.1471c-0.23393,-4.7506 -0.2725,-17.77681 -0.2725,-17.77681z" data-paper-data="{&quot;index&quot;:null}" stroke-linecap="round"/><path d="M126.99333,187.82543c0,0 0.04125,-13.02619 0.29151,-17.77681c0.176,-3.34099 0.69671,-8.1471 0.69671,-8.1471c0,0 0.96199,-0.67541 1.02517,2.58897c0.03956,2.04483 -0.30251,6.22242 -0.42264,10.8805c-0.15643,6.06499 -0.1084,12.06557 -0.1084,12.06557v1.12685c0,0 -0.04803,6.00058 0.1084,12.06557c0.12013,4.65808 0.4622,8.83567 0.42264,10.8805c-0.06317,3.2644 -1.02517,2.58897 -1.02517,2.58897c0,0 -0.52071,-4.80611 -0.69671,-8.1471c-0.25024,-4.7506 -0.29151,-17.77681 -0.29151,-17.77681z" data-paper-data="{&quot;index&quot;:null}" stroke-linecap="round"/><path d="M122.25613,187.82543c0,0 0.03587,-13.02619 0.25345,-17.77681c0.15303,-3.34099 0.60581,-8.1471 0.60581,-8.1471c0,0 0.83643,-0.67541 0.89137,2.58897c0.0344,2.04483 -0.26305,6.22242 -0.36749,10.8805c-0.13601,6.06499 -0.09426,12.06557 -0.09426,12.06557v1.12685c0,0 -0.04177,6.00058 0.09426,12.06557c0.10445,4.65808 0.40189,8.83567 0.36749,10.8805c-0.05494,3.2644 -0.89137,2.58897 -0.89137,2.58897c0,0 -0.45278,-4.80611 -0.60581,-8.1471c-0.21761,-4.7506 -0.25345,-17.77681 -0.25345,-17.77681z" data-paper-data="{&quot;index&quot;:null}" stroke-linecap="round"/><path d="M315.25169,156.09058c-8.70966,-1.63095 -16.70661,-3.47505 -16.70661,-3.47505c0,0 32.81852,2.75099 39.31111,3.00023c2.07216,0.07955 2.67673,-2.94091 2.67673,-2.94091c0,0 2.66573,3.71565 1.85153,4.93859c-0.23348,0.35069 -1.63202,0.89075 -3.75688,0.95392c-3.43885,0.10221 -19.96605,-1.83825 -23.37591,-2.47676z" data-paper-data="{&quot;index&quot;:null}" stroke-linecap="round"/><path d="M343.19161,156.76411c-2.58599,0 -4.68238,-3.05864 -4.68238,-6.83166c0,-3.77304 2.09637,-6.83166 4.68238,-6.83166c2.58599,0 4.68238,3.05864 4.68238,6.83166c0,3.77304 -2.09637,6.83166 -4.68238,6.83166z" data-paper-data="{&quot;index&quot;:null}" stroke-linecap="butt"/><path d="M344.57329,143.56133c1.73813,0 3.14717,2.88681 3.14717,6.44786c0,3.56105 -1.40903,6.44786 -3.14717,6.44786c-1.73813,0 -3.14717,-2.88681 -3.14717,-6.44786c0,-3.56105 1.40903,-6.44786 3.14717,-6.44786z" data-paper-data="{&quot;index&quot;:null}" stroke-linecap="butt"/><path d="M346.1085,144.78948c0.89027,0 1.61195,2.37131 1.61195,5.29645c0,2.92516 -0.7217,5.29645 -1.61195,5.29645c-0.89027,0 -1.61195,-2.37131 -1.61195,-5.29645c0,-2.92516 0.7217,-5.29645 1.61195,-5.29645z" data-paper-data="{&quot;index&quot;:null}" stroke-linecap="butt"/><path d="M352.81732,163.20425c0,0 -28.83364,-4.32757 -43.4514,-6.94301c-7.09125,-1.26879 -26.08224,-4.14415 -34.66136,-6.09886c-1.18938,-0.271 -2.45536,-1.25382 -4.10433,-2.08665c-1.69517,-0.85616 -3.7624,-1.56037 -4.1322,-1.65673c-1.69145,-0.44076 -7.25982,-0.02525 -7.25982,-0.02525" data-paper-data="{&quot;index&quot;:null}" stroke-linecap="round"/><path d="M277.5731,139.65806c0,0 0.12406,1.66149 -3.32164,2.8175c-2.50932,0.84186 -8.35797,0.56958 -9.53726,1.09369c-1.47411,0.65517 -2.45474,2.42151 -2.45474,2.42151" data-paper-data="{&quot;index&quot;:null}" stroke-linecap="round"/><path d="M279.99745,168.9485c0.76307,0 1.38168,0.43531 1.38168,0.9723c0,0.53697 -0.61861,0.9723 -1.38168,0.9723c-0.76307,0 -1.38168,-0.43531 -1.38168,-0.9723c0,-0.53697 0.61861,-0.9723 1.38168,-0.9723z" data-paper-data="{&quot;index&quot;:null}" stroke-linecap="butt"/><path d="M247.04614,188.05156c0,0 -0.43881,-12.54489 -0.94426,-18.26557c-0.25055,-2.83582 -0.81868,-6.95777 -1.27752,-10.08258c-0.19414,-1.32199 -0.15489,-2.83699 0.51255,-4.02192c0.61366,-1.08948 11.34018,-6.49102 13.65698,-7.3507c1.30663,-0.48484 4.10002,-1.22789 6.73971,-0.95802c2.35329,0.2406 4.58443,1.39423 5.53114,2.56297c1.49384,1.8442 3.55777,4.40855 4.56425,6.97129c0.52788,1.34415 1.70902,6.11795 2.31416,11.63591c0.96302,8.78125 1.01074,19.37705 1.01074,19.37705v0.16007c0,0 -0.04772,10.59579 -1.01074,19.37705c-0.60514,5.51795 -1.78626,10.29176 -2.31416,11.63591c-1.00646,2.56276 -3.07038,5.12711 -4.56425,6.97129c-0.94671,1.16874 -3.17785,2.32237 -5.53114,2.56297c-2.63969,0.26988 -5.4331,-0.47315 -6.73971,-0.95802c-2.31678,-0.85969 -13.04332,-6.26122 -13.65698,-7.3507c-0.66741,-1.18493 -0.70666,-2.69993 -0.51255,-4.02192c0.45885,-3.12484 1.02697,-7.24676 1.27752,-10.08258c0.50543,-5.72068 0.94426,-18.26557 0.94426,-18.26557z" data-paper-data="{&quot;index&quot;:null}" stroke-linecap="round"/><path d="M248.88836,187.65679c0,0 -0.50169,-12.33659 -0.96559,-17.90337c-0.21342,-2.56095 -0.66374,-6.21516 -1.04247,-9.1024c-0.34083,-2.59839 0.15255,-4.63108 1.51924,-5.29987c2.03876,-0.9977 8.08369,-4.18295 12.39855,-5.88778c0.43745,-0.17283 0.86271,-0.31646 1.26631,-0.43578c1.86836,-0.55242 4.24938,-0.41843 5.56535,0.33733c0.98222,0.5641 2.15342,1.45688 3.24847,2.85463c2.59813,3.31633 4.78242,9.41222 5.16234,11.50383c1.90811,10.50468 1.27105,23.53867 1.27105,23.53867v1.47597c0,0 0.63706,13.03397 -1.27105,23.53867c-0.37992,2.0916 -2.56423,8.18749 -5.16234,11.50383c-1.09505,1.39775 -2.26625,2.29053 -3.24847,2.85463c-1.31596,0.75579 -3.69696,0.88975 -5.56535,0.33733c-0.4036,-0.11932 -0.82886,-0.26295 -1.26631,-0.43578c-4.31484,-1.70483 -10.35977,-4.89008 -12.39855,-5.88778c-1.36669,-0.66881 -1.86007,-2.70148 -1.51924,-5.29987c0.37873,-2.88724 0.82908,-6.54145 1.04247,-9.1024c0.46389,-5.56675 0.96559,-17.90337 0.96559,-17.90337z" data-paper-data="{&quot;index&quot;:null}" stroke-linecap="round"/><path d="M243.73595,146.51838l2.0674,0.08188l-6.12033,8.00354h-2.78384z" data-paper-data="{&quot;index&quot;:null}" stroke-linecap="round"/><path d="M204.35279,154.64475l-4.60561,0.18423l4.72844,-7.00054h5.15829z" data-paper-data="{&quot;index&quot;:null}" stroke-linecap="round"/><path d="M209.81814,139.66113c0,0 -1.83032,1.77205 -2.14261,2.93734c-0.18214,0.6796 -0.06153,1.84734 -0.01438,2.87996c0.05134,1.12407 0.03837,2.08803 0.03837,2.08803l-5.80302,7.01684" data-paper-data="{&quot;index&quot;:null}" stroke-linecap="round"/><path d="M261.46245,142.48589c0,0.57398 -0.29273,1.10536 -0.73689,1.10536c-1.15499,0 -3.33399,0 -4.05294,0c-0.45083,0 -0.98253,-0.39589 -0.98253,-0.85971c0,-0.44242 0,-0.94669 0,-1.22816c0,-0.40767 0.34557,-1.04395 0.85971,-1.04395c1.27614,0 3.59073,0 4.23717,0c0.33015,0 0.67548,0.46251 0.67548,0.7983c0,0.25859 0,0.75769 0,1.22816z" data-paper-data="{&quot;index&quot;:null}" stroke-linecap="butt"/><path d="M134.62548,187.82543c0,0 0.03318,-13.02619 0.23443,-17.77681c0.14156,-3.34099 0.56032,-8.1471 0.56032,-8.1471c0,0 0.77366,-0.67541 0.82446,2.58897c0.03182,2.04483 -0.24329,6.22242 -0.3399,10.8805c-0.1258,6.06499 -0.08717,12.06557 -0.08717,12.06557v1.12685c0,0 -0.03863,6.00058 0.08717,12.06557c0.09662,4.65808 0.37173,8.83567 0.3399,10.8805c-0.0508,3.2644 -0.82446,2.58897 -0.82446,2.58897c0,0 -0.41879,-4.80611 -0.56032,-8.1471c-0.20128,-4.7506 -0.23443,-17.77681 -0.23443,-17.77681z" data-paper-data="{&quot;index&quot;:null}" stroke-linecap="round"/><path d="M124.62477,187.82543c0,0 0.03856,-13.02619 0.27247,-17.77681c0.1645,-3.34099 0.65127,-8.1471 0.65127,-8.1471c0,0 0.89922,-0.67541 0.95826,2.58897c0.03699,2.04483 -0.28278,6.22242 -0.39508,10.8805c-0.14622,6.06499 -0.10133,12.06557 -0.10133,12.06557v1.12685c0,0 -0.04489,6.00058 0.10133,12.06557c0.1123,4.65808 0.43207,8.83567 0.39508,10.8805c-0.05905,3.2644 -0.95826,2.58897 -0.95826,2.58897c0,0 -0.48674,-4.80611 -0.65127,-8.1471c-0.23393,-4.7506 -0.27247,-17.77681 -0.27247,-17.77681z" data-paper-data="{&quot;index&quot;:null}" stroke-linecap="round"/><path d="M199.6741,154.89115c0,0 -20.34273,0.32979 -25.38522,0.16862c-1.17924,-0.0377 -3.54525,0.00788 -3.4472,-0.95961c0.03263,-0.32198 0.74739,-1.68862 2.83399,-2.48276c3.65024,-1.38925 9.87204,-2.38214 12.32512,-2.68187c9.06729,-1.1079 19.59485,-1.0186 19.59485,-1.0186l-5.92151,6.97421z" data-paper-data="{&quot;index&quot;:null}" stroke-linecap="round"/><path d="M203.88494,154.62799l5.39516,-6.71105c0,0 11.72172,-0.66846 17.51281,-0.93371c5.69955,-0.26105 16.96349,-0.45237 16.96349,-0.45237l-6.97421,8.09711z" data-paper-data="{&quot;index&quot;:null}" stroke-linecap="round"/><path d="M245.7302,146.60105c0,0 9.57134,0.06874 12.10509,0.16174c1.23803,0.04544 2.23811,0.36464 2.23811,0.36464c0,0 -3.34349,0.85302 -7.10294,2.5067c-3.55574,1.56409 -7.11513,3.85242 -8.938,4.51421c-2.05652,0.74665 -4.61854,0.47965 -4.61854,0.47965z" data-paper-data="{&quot;index&quot;:null}" stroke-linecap="round"/><path d="M199.6741,221.10887l5.92151,6.97421c0,0 -10.52755,0.08928 -19.59485,-1.0186c-2.45307,-0.29973 -8.67488,-1.29261 -12.32512,-2.68187c-2.08661,-0.79413 -2.80136,-2.16078 -2.83399,-2.48276c-0.09804,-0.96749 2.26796,-0.92191 3.4472,-0.95961c5.04249,-0.16117 25.38522,0.16862 25.38522,0.16862z" data-paper-data="{&quot;index&quot;:null}" stroke-linecap="round"/><path d="M236.78218,221.37203l6.97421,8.09711c0,0 -11.26394,-0.19133 -16.96349,-0.45237c-5.79109,-0.26524 -17.51281,-0.93371 -17.51281,-0.93371l-5.39516,-6.71105z" data-paper-data="{&quot;index&quot;:null}" stroke-linecap="round"/><path d="M239.41397,221.37203c0,0 2.56202,-0.267 4.61854,0.47965c1.82287,0.66181 5.38223,2.95013 8.938,4.51421c3.75942,1.6537 7.10294,2.5067 7.10294,2.5067c0,0 -1.00008,0.3192 -2.23811,0.36464c-2.53374,0.09297 -12.10509,0.16174 -12.10509,0.16174z" data-paper-data="{&quot;index&quot;:null}" stroke-linecap="round"/><path d="M362.61193,188.09957c0,0 -0.04051,10.42339 -1.43688,20.97853c-1.12861,8.53109 -3.33457,17.08441 -5.62343,20.78903c-0.67238,1.08827 -3.55422,4.34873 -7.83823,5.43134c-6.28048,1.5871 -14.51598,0.82229 -14.51598,0.82229l-111.21023,0.12282h-16.94866c0,0 -4.91986,5.46157 -10.82083,6.08682c-7.17847,0.76064 -26.49482,0.88042 -37.27708,0.57396c-2.37607,-0.06753 -4.33771,-0.27576 -5.66368,-0.45804c-1.19545,-0.16433 -2.39811,-1.09138 -3.25587,-2.15559c-1.19893,-1.48751 -3.05007,-3.52282 -5.03457,-4.73127c-2.96208,-1.80371 -15.36517,-2.47133 -21.18361,-5.35688c-6.00175,-2.97645 -6.85018,-14.40796 -6.85018,-14.40796c0,0 -1.95467,-5.18757 -2.38119,-8.65155c-0.02483,-0.20154 0.03102,-1.67632 -0.18811,-3.17242c-0.24357,-1.66292 -0.76488,-3.3832 -0.80318,-4.06634c-0.08928,-1.59336 -0.23305,-11.66442 -0.23305,-11.66442v-0.47979c0,0 0.14377,-10.07106 0.23305,-11.66442c0.03827,-0.68314 0.55961,-2.40342 0.80318,-4.06634c0.21915,-1.4961 0.16331,-2.97088 0.18811,-3.17242c0.42652,-3.46398 2.38119,-8.65155 2.38119,-8.65155c0,0 0.84843,-11.43151 6.85018,-14.40796c5.81844,-2.88553 18.22154,-3.55315 21.18361,-5.35688c1.98449,-1.20845 3.83566,-3.24376 5.03457,-4.73127c0.85774,-1.0642 2.06042,-1.99125 3.25587,-2.15559c1.32599,-0.18228 3.28763,-0.39051 5.66368,-0.45804c10.78227,-0.30644 30.09862,-0.18666 37.27708,0.57396c5.90094,0.62528 10.82083,6.08682 10.82083,6.08682h16.94866l111.21023,0.12282c0,0 8.2355,-0.76479 14.51598,0.82229c4.28401,1.08258 7.16587,4.34305 7.83823,5.43134c2.28886,3.70465 4.49481,12.25795 5.62343,20.78903c1.39637,10.55514 1.43688,20.97853 1.43688,20.97853z" data-paper-data="{&quot;index&quot;:null}" stroke-linecap="round"/><g data-paper-data="{&quot;index&quot;:null}" stroke-linecap="round"><path d="M126.90537,147.78536v-4.7372c0,0 0.99427,-0.62347 1.84103,-0.79544c0.97175,-0.1974 3.36089,-0.51288 4.97675,-0.71706c0.93005,-0.11751 1.60391,0.23584 1.60391,0.59138c0,0.74015 0,3.42133 0,3.42133z"/><path d="M133.74799,145.54832v-4.07926"/></g><path d="M127.95803,142.65335v4.47403" data-paper-data="{&quot;index&quot;:null}" stroke-linecap="round"/><g data-paper-data="{&quot;index&quot;:null}" stroke-linecap="round"><path d="M135.32703,230.45168c0,0 0,2.68118 0,3.42133c0,0.35554 -0.67388,0.7089 -1.60391,0.59138c-1.61586,-0.20416 -4.005,-0.51966 -4.97675,-0.71706c-0.84676,-0.172 -1.84103,-0.79544 -1.84103,-0.79544v-4.7372z"/><path d="M133.74799,234.53094v-4.07926"/></g><path d="M127.95803,233.34666v-4.47403" data-paper-data="{&quot;index&quot;:null}" stroke-linecap="round"/><g data-paper-data="{&quot;index&quot;:null}" stroke-linecap="butt"><path d="M213.50263,236.36957c0,-0.5935 1.04476,-1.07465 2.33351,-1.07465c1.28876,0 2.33351,0.48113 2.33351,1.07465c0,0.5935 -1.04476,1.07465 -2.33351,1.07465c-1.28876,0 -2.33351,-0.48113 -2.33351,-1.07465z"/><path d="M209.57252,235.93974l2.82668,0.01609c0,0 0.84024,0.31855 1.82954,0.55175c0.77942,0.18373 1.67465,0.29123 2.16475,0.30779c0.94783,0.03206 2.26491,-0.64782 2.26491,-0.64782l3.44139,-0.16643c0,0 -0.62809,0.89365 -1.83134,1.45826c-1.11635,0.52385 -2.7449,0.72173 -4.40158,0.72173c-1.75703,0 -3.83554,-0.2903 -4.96854,-0.81508c-1.08677,-0.50336 -1.3258,-1.42631 -1.3258,-1.42631z"/></g><path d="M215.83614,138.55578c1.28876,0 2.33351,0.48115 2.33351,1.07465c0,0.59352 -1.04476,1.07465 -2.33351,1.07465c-1.28876,0 -2.33351,-0.48115 -2.33351,-1.07465c0,-0.59352 1.04476,-1.07465 2.33351,-1.07465z" data-paper-data="{&quot;index&quot;:null}" stroke-linecap="butt"/><path d="M209.57252,140.06028c0,0 0.23903,-0.92296 1.3258,-1.42631c1.13302,-0.52478 3.21151,-0.81508 4.96854,-0.81508c1.6567,0 3.28522,0.19787 4.40158,0.72173c1.20326,0.56463 1.83134,1.45826 1.83134,1.45826l-3.44139,-0.16643c0,0 -1.31708,-0.67988 -2.26491,-0.64782c-0.4901,0.01657 -1.38535,0.12406 -2.16475,0.30779c-0.98929,0.23322 -1.82954,0.55175 -1.82954,0.55175l-2.82668,0.01609z" data-paper-data="{&quot;index&quot;:null}" stroke-linecap="butt"/><path d="M345.55449,187.69949c0,0 0.1575,-1.5806 0.42255,-1.5806c0.3192,0 1.41665,-0.11309 2.14961,0.23715c0.72637,0.34709 1.23066,1.34343 1.23066,1.34343v0.60109c0,0 -0.50424,0.99639 -1.23066,1.34346c-0.73296,0.35024 -1.83039,0.23715 -2.14961,0.23715c-0.26504,0 -0.42255,-1.5806 -0.42255,-1.5806z" data-paper-data="{&quot;index&quot;:null}" stroke-linecap="round"/><g data-paper-data="{&quot;index&quot;:null}" stroke-linecap="round"><path d="M259.49733,233.6983c0,0 1.32777,0.05413 1.17741,1.49794c-0.28433,2.7304 -2.21602,7.89943 -2.84242,9.28485c-0.38182,0.8445 -1.96067,0.97918 -2.94051,0.97808c-0.46732,-0.00052 -0.73275,-0.27183 -0.62066,-0.68138c0.59495,-2.17387 2.4979,-9.12692 2.83214,-10.34817c0.09804,-0.35819 0.76579,-0.68609 1.09693,-0.69528c0.39458,-0.01097 1.29711,-0.03604 1.29711,-0.03604z"/><path d="M256.04751,245.21731c0,0 -1.01762,0.13046 -1.36607,0.17514c-0.21594,0.02768 -0.43369,-0.28651 -0.28416,-0.86685c0.67215,-2.60894 2.52736,-9.79647 2.6181,-10.00175c0.25471,-0.57629 1.29171,-0.8933 1.55311,-0.8933c0.23722,0 0.67871,0 0.67871,0z"/><path d="M259.25169,234.00535l-3.0704,11.1763"/><path d="M259.49733,233.69832c0,0 1.32777,0.05413 1.17741,1.49794c-0.28433,2.7304 -2.21602,7.89943 -2.84242,9.28485c-0.38182,0.8445 -1.96067,0.97918 -2.94051,0.97808c-0.46732,-0.00052 -0.73275,-0.27183 -0.62066,-0.68138c0.59495,-2.17387 2.4979,-9.12692 2.83214,-10.34817c0.09804,-0.35819 0.76579,-0.68609 1.09693,-0.69528c0.39458,-0.01097 1.29711,-0.03604 1.29711,-0.03604z"/></g><g data-paper-data="{&quot;index&quot;:null}" stroke-linecap="round"><path d="M258.20022,142.26567c-0.33115,-0.00921 -0.99891,-0.3371 -1.09693,-0.69528c-0.33424,-1.22125 -2.23718,-8.17433 -2.83214,-10.34817c-0.11209,-0.40955 0.15334,-0.68086 0.62066,-0.68138c0.97987,-0.00109 2.55869,0.13358 2.94051,0.97808c0.6264,1.38542 2.55809,6.55445 2.84242,9.28485c0.15034,1.44383 -1.17741,1.49794 -1.17741,1.49794c0,0 -0.90253,-0.02506 -1.29711,-0.03604z"/><path d="M259.24721,142.36945c0,0 -0.44152,0 -0.67871,0c-0.2614,0 -1.2984,-0.31703 -1.55311,-0.8933c-0.09074,-0.20528 -1.94595,-7.39281 -2.6181,-10.00175c-0.14951,-0.58034 0.06822,-0.89454 0.28416,-0.86685c0.34845,0.04468 1.36607,0.17514 1.36607,0.17514z"/><path d="M259.25171,141.99465l-3.0704,-11.1763"/><path d="M258.20022,142.26564c-0.33115,-0.00921 -0.99891,-0.3371 -1.09693,-0.69528c-0.33424,-1.22125 -2.23718,-8.17433 -2.83214,-10.34817c-0.11209,-0.40955 0.15334,-0.68086 0.62066,-0.68138c0.97987,-0.00109 2.55869,0.13358 2.94051,0.97808c0.6264,1.38542 2.55809,6.55445 2.84242,9.28485c0.15034,1.44383 -1.17741,1.49794 -1.17741,1.49794c0,0 -0.90253,-0.02506 -1.29711,-0.03604z"/></g><path d="M118.48361,188.08003c0,0 -0.40762,18.08743 0.68281,25.10921c0.21839,1.40637 1.12845,2.24254 1.41896,2.53955c1.76503,1.80442 27.37417,2.48511 27.37417,2.48511c0,0 -1.08343,1.79704 -1.57246,3.7833c-0.3807,1.54628 -0.14198,3.25909 -0.42898,3.99252c-0.41753,1.06699 -1.55145,1.3038 -1.55145,1.3038c0,0 -17.94305,-1.90544 -23.36841,-3.56362c-3.398,-1.03857 -6.05235,-5.42853 -6.05235,-5.42853c0,0 -0.48087,-4.69661 -0.64001,-7.84164c-0.27507,-5.43607 -0.86264,-21.85338 -0.86264,-21.85338v-1.21276c0,0 0.58755,-16.41733 0.86264,-21.85338c0.15915,-3.14502 0.64001,-7.84164 0.64001,-7.84164c0,0 2.65435,-4.38996 6.05235,-5.42853c5.42534,-1.6582 23.36841,-3.56362 23.36841,-3.56362c0,0 1.13394,0.23681 1.55145,1.3038c0.28699,0.73341 0.04827,2.44622 0.42898,3.99252c0.48905,1.98625 1.57246,3.7833 1.57246,3.7833c0,0 -25.60914,0.68071 -27.37417,2.48511c-0.29054,0.29704 -1.20057,1.13318 -1.41896,2.53955c-1.09041,7.02177 -0.68281,25.10921 -0.68281,25.10921z" data-paper-data="{&quot;index&quot;:null}" stroke-linecap="round"/><path d="M138.74497,227.47259c-6.64519,-0.47063 -17.13218,-1.93593 -20.02373,-3.28225c-3.96282,-1.84513 -4.0537,-8.47663 -4.0537,-8.47663c0,0 0.77938,4.87668 5.27912,6.41111c6.24497,2.12952 17.09657,1.2337 20.11599,2.40942c2.44608,0.95245 4.34402,2.75932 4.34402,2.75932c0,0 -2.42544,0.40824 -5.6617,0.17905z" data-paper-data="{&quot;index&quot;:null}" stroke-linecap="round"/><path d="M144.40672,148.70648c0,0 -1.89794,1.80687 -4.34402,2.75932c-3.01939,1.17569 -13.87102,0.27987 -20.11599,2.40942c-4.49974,1.5344 -5.27912,6.41111 -5.27912,6.41111c0,0 0.09086,-6.6315 4.0537,-8.47663c2.89155,-1.34634 13.37856,-2.81164 20.02373,-3.28225c3.23624,-0.2292 5.6617,0.17905 5.6617,0.17905z" data-paper-data="{&quot;index&quot;:null}" stroke-linecap="round"/></g><g><path d="M120.37819,143.73301c0,0 -0.74655,2.86313 -0.85638,4.35687c-0.10947,1.48894 -0.19633,4.59119 -0.19633,4.59119h-2.76337c0,0 0,-5.97437 0,-7.50057c0,-0.67046 0.90589,-1.44748 1.44748,-1.44748c0.69281,0 2.3686,0 2.3686,0z" data-paper-data="{&quot;index&quot;:null}" fill="url(#color-1)" stroke="#000000" stroke-width="0.75" stroke-linecap="round"/><path d="M346.19371,226.74148c0,0 0,0.72584 0,1.06953c0,0.31984 -0.82834,0.92624 -1.55568,0.92624c-1.70781,0 -8.57667,0 -8.57667,0l5.45564,-1.89183z" data-paper-data="{&quot;index&quot;:null}" fill="url(#color-2)" stroke="#000000" stroke-width="0.75" stroke-linecap="round"/><path d="M341.51702,133.15457l-5.45564,-1.89183c0,0 6.86886,0 8.57667,0c0.72734,0 1.55568,0.6064 1.55568,0.92624c0,0.34369 0,1.06953 0,1.06953z" data-paper-data="{&quot;index&quot;:null}" fill="url(#color-3)" stroke="#000000" stroke-width="0.75" stroke-linecap="round"/><path d="M368.0435,180.32841c0,0 -0.31622,8.85181 -1.06299,17.11185c-0.47849,5.29237 -1.33732,10.34182 -1.73406,12.66441c-0.60961,3.56883 -2.26913,2.57818 -2.26913,2.57818l1.38168,-32.2393v-0.88708l-1.38168,-32.2393c0,0 1.65949,-0.99065 2.26913,2.57818c0.39675,2.32259 1.25558,7.37203 1.73406,12.66441c0.74677,8.26004 1.06299,17.11185 1.06299,17.11185z" data-paper-data="{&quot;index&quot;:null}" fill="url(#color-4)" stroke="#000000" stroke-width="0.75" stroke-linecap="round"/><path d="M117.74645,160.31325c0,0 -5.7899,-1.78967 -5.7899,-3.55291c0,-1.22413 0,-2.43556 0,-3.02656c0,-0.70656 1.95928,-1.57906 3.02653,-1.57906c1.1984,0 3.81607,0 3.81607,0z" data-paper-data="{&quot;index&quot;:null}" fill="url(#color-5)" stroke="#000000" stroke-width="0.75" stroke-linecap="round"/><path d="M130.64215,137.28515l-9.73758,6.57944l-1.97383,-0.13158c0,0 0.2337,-1.53764 1.38404,-3.00114c0.55399,-0.70483 2.69817,-2.66602 5.15106,-3.94968c2.56957,-1.34474 5.43948,-1.99723 5.43948,-1.99723z" data-paper-data="{&quot;index&quot;:null}" fill="url(#color-6)" stroke="#000000" stroke-width="0.75" stroke-linecap="round"/><path d="M130.90536,225.21505c0,0 -2.86993,-0.65248 -5.43948,-1.99723c-2.45291,-1.28369 -4.59707,-3.24488 -5.15106,-3.94968c-1.15034,-1.46352 -1.38404,-3.00114 -1.38404,-3.00114l1.97383,-0.13158l9.73758,6.57944z" data-paper-data="{&quot;index&quot;:null}" fill="url(#color-7)" stroke="#000000" stroke-width="0.75" stroke-linecap="round"/><path d="M120.37819,216.26701c0,0 -1.67579,0 -2.3686,0c-0.54161,0 -1.44748,-0.77702 -1.44748,-1.44748c0,-1.52619 0,-7.50057 0,-7.50057h2.76337c0,0 0.08683,3.10225 0.19633,4.59119c0.10983,1.49375 0.85638,4.35687 0.85638,4.35687z" data-paper-data="{&quot;index&quot;:null}" fill="url(#color-8)" stroke="#000000" stroke-width="0.75" stroke-linecap="round"/><path d="M118.79911,207.8453c0,0 -2.6177,0 -3.81607,0c-1.06725,0 -3.02653,-0.87249 -3.02653,-1.57906c0,-0.591 0,-1.80242 0,-3.02656c0,-1.76324 5.7899,-3.55291 5.7899,-3.55291z" data-paper-data="{&quot;index&quot;:null}" fill="url(#color-9)" stroke="#000000" stroke-width="0.75" stroke-linecap="round"/><path d="M289.63293,230.41448c0,0 -1.98235,0 -2.76337,0c-0.57482,0 -1.49682,-0.55689 -1.49682,-0.92112c0,-0.53095 0,-1.95738 0,-1.95738h4.49048z" data-paper-data="{&quot;index&quot;:null}" fill="url(#color-10)" stroke="#000000" stroke-width="0.75" stroke-linecap="round"/><path d="M289.8632,132.46405h-4.49048c0,0 0,-1.42643 0,-1.95738c0,-0.36423 0.922,-0.92112 1.49682,-0.92112c0.78102,0 2.76337,0 2.76337,0z" data-paper-data="{&quot;index&quot;:null}" fill="url(#color-11)" stroke="#000000" stroke-width="0.75" stroke-linecap="round"/><path d="M333.34036,231.63163c-0.48832,0.40912 -2.16273,0.70849 -3.89279,0.73713c-7.20943,0.11932 -26.64511,0.40127 -35.01146,0.12882c-2.37412,-0.07731 -3.85687,-1.07215 -3.91593,-1.13656c-0.53183,-0.58017 -1.74094,-2.59304 -1.74094,-2.59304l48.29314,-0.52635c0,0 -2.84723,2.64869 -3.73205,3.39003z" data-paper-data="{&quot;index&quot;:null}" fill="url(#color-12)" stroke="#000000" stroke-width="1" stroke-linecap="round"/><path d="M337.07238,131.75839l-48.29314,-0.52635c0,0 1.20911,-2.01286 1.74094,-2.59304c0.05905,-0.06443 1.54181,-1.05927 3.91593,-1.13656c8.36635,-0.27245 27.80202,0.00947 35.01146,0.12882c1.73006,0.02863 3.40445,0.328 3.89279,0.73713c0.88482,0.74134 3.73205,3.39003 3.73205,3.39003z" data-paper-data="{&quot;index&quot;:null}" fill="url(#color-13)" stroke="#000000" stroke-width="1" stroke-linecap="round"/><path d="M366.61192,180.09957c0,0 -0.04051,10.42339 -1.43688,20.97853c-1.12861,8.53109 -3.33457,17.08441 -5.62343,20.78903c-0.67238,1.08827 -3.55422,4.34873 -7.83823,5.43134c-6.28048,1.5871 -14.51598,0.82229 -14.51598,0.82229l-111.21023,0.12282h-16.94866c0,0 -4.91986,5.46157 -10.82083,6.08682c-7.17847,0.76064 -26.49482,0.88042 -37.27708,0.57396c-2.37607,-0.06753 -4.33771,-0.27576 -5.66368,-0.45804c-1.19545,-0.16433 -2.39811,-1.09138 -3.25587,-2.15559c-1.19893,-1.48751 -3.05007,-3.52282 -5.03457,-4.73127c-2.96208,-1.80371 -15.36517,-2.47133 -21.18361,-5.35688c-6.00175,-2.97645 -6.85018,-14.40796 -6.85018,-14.40796c0,0 -1.95467,-5.18757 -2.38119,-8.65155c-0.02483,-0.20154 0.03102,-1.67632 -0.18811,-3.17242c-0.24357,-1.66292 -0.76488,-3.3832 -0.80318,-4.06634c-0.08928,-1.59336 -0.23305,-11.66442 -0.23305,-11.66442v-0.47979c0,0 0.14377,-10.07106 0.23305,-11.66442c0.03827,-0.68314 0.55961,-2.40342 0.80318,-4.06634c0.21915,-1.4961 0.16331,-2.97088 0.18811,-3.17242c0.42652,-3.46398 2.38119,-8.65155 2.38119,-8.65155c0,0 0.84843,-11.43151 6.85018,-14.40796c5.81844,-2.88553 18.22154,-3.55315 21.18361,-5.35688c1.98449,-1.20845 3.83566,-3.24376 5.03457,-4.73127c0.85774,-1.0642 2.06042,-1.99125 3.25587,-2.15559c1.32599,-0.18228 3.28763,-0.39051 5.66368,-0.45804c10.78227,-0.30644 30.09862,-0.18666 37.27708,0.57396c5.90094,0.62528 10.82083,6.08682 10.82083,6.08682h16.94866l111.21023,0.12282c0,0 8.2355,-0.76479 14.51598,0.82229c4.28401,1.08258 7.16587,4.34305 7.83823,5.43134c2.28886,3.70465 4.49481,12.25795 5.62343,20.78903c1.39637,10.55514 1.43688,20.97853 1.43688,20.97853z" data-paper-data="{&quot;index&quot;:null}" fill="url(#color-14)" stroke="#000000" stroke-width="1" stroke-linecap="round"/><path d="M337.52726,131.86698c0,0 2.29602,0.19959 4.17988,0.76176c0.66415,0.19818 3.02237,1.31825 3.86942,2.10924c1.2362,1.15439 0.88918,2.05395 0.88918,2.05395v0c0,0 -6.5525,-1.10931 -16.27768,-1.36036c-19.01218,-0.49077 -50.14972,-0.30058 -68.16062,-0.33517c-20.43128,-0.0392 -55.28278,0.83741 -69.36069,1.21721c-3.86932,0.1044 -4.47241,-0.98537 -2.70365,-2.40754c2.34156,-1.88271 3.27384,-5.52036 2.09713,-6.26655c-2.12876,-1.34993 -25.33217,-1.71074 -29.656,0.83234c-3.57514,2.10272 -4.12872,9.31549 -6.56004,10.02867c-1.39899,0.41036 -7.83323,0.06536 -14.50646,0.84322c-6.6201,0.77166 -12.87106,3.28196 -12.87106,3.28196c0,0 1.05018,-2.30571 5.69003,-4.32967c2.0792,-0.90696 6.12845,-1.21687 8.82874,-2.00591c3.02739,-0.88461 4.6635,-2.23621 5.93753,-3.03513c3.13103,-1.9634 6.35355,-7.44111 6.35355,-7.44111l0.0004,-0.26019c1.32599,-0.18228 3.28763,-0.39051 5.66368,-0.45804c10.78227,-0.30644 30.09862,-0.18666 37.27708,0.57396c5.90094,0.62528 10.8208,6.08682 10.8208,6.08682h16.94866l111.21023,0.12282z" data-paper-data="{&quot;index&quot;:null}" fill="#2f4c38" stroke="#2f4c38" stroke-width="0.75" stroke-linecap="round"/><path d="M337.19742,228.12074l-111.21023,0.12282h-16.94866c0,0 -4.91986,5.46157 -10.8208,6.08682c-7.17847,0.76064 -26.49482,0.88042 -37.27708,0.57396c-2.37607,-0.06753 -4.33771,-0.27576 -5.66368,-0.45804l-0.0004,-0.26019c0,0 -3.22255,-5.4777 -6.35355,-7.44111c-1.27402,-0.79892 -2.91014,-2.15052 -5.93753,-3.03513c-2.70029,-0.78904 -6.74954,-1.09895 -8.82874,-2.00591c-4.63984,-2.02396 -5.69003,-4.32967 -5.69003,-4.32967c0,0 6.25094,2.51027 12.87106,3.28196c6.6732,0.77785 13.10747,0.43285 14.50646,0.84322c2.43132,0.71318 2.9849,7.92595 6.56004,10.02867c4.32381,2.54307 27.52724,2.18227 29.656,0.83234c1.17672,-0.7462 0.24443,-4.38384 -2.09713,-6.26655c-1.76877,-1.42217 -1.16567,-2.51194 2.70365,-2.40754c14.07789,0.37982 48.92942,1.25643 69.36069,1.21721c18.01091,-0.03456 49.14845,0.15562 68.16062,-0.33517c9.72518,-0.25105 16.27768,-1.36036 16.27768,-1.36036v0c0,0 0.34702,0.89956 -0.88918,2.05395c-0.84705,0.79099 -3.20529,1.91106 -3.86942,2.10924c-1.88385,0.56218 -4.17988,0.76176 -4.17988,0.76176z" data-paper-data="{&quot;index&quot;:null}" fill="#2f4c38" stroke="#2f4c38" stroke-width="0.75" stroke-linecap="round"/><path d="M197.00254,219.99427c0,0 -17.61976,-1.39199 -25.97696,-2.60989c-6.37455,-0.92895 -20.07916,-4.29853 -20.07916,-4.29853l-0.23027,-4.37532c0,0 5.37164,1.26745 9.43172,1.70328c7.39955,0.7943 31.32799,2.67204 31.32799,2.67204z" data-paper-data="{&quot;index&quot;:null}" fill="url(#color-15)" stroke="url(#color-16)" stroke-width="0.75" stroke-linecap="round"/><path d="M191.4758,146.91415c0,0 -23.92844,1.87774 -31.32799,2.67204c-4.06008,0.43583 -9.43172,1.70328 -9.43172,1.70328l0.23027,-4.37532c0,0 13.70461,-3.36958 20.07916,-4.29853c8.35721,-1.21787 25.97696,-2.60989 25.97696,-2.60989z" data-paper-data="{&quot;index&quot;:null}" fill="url(#color-17)" stroke="url(#color-18)" stroke-width="0.75" stroke-linecap="round"/><path d="M191.4758,213.08585c0,0 -23.92844,-1.87774 -31.32799,-2.67204c-4.06008,-0.43583 -9.43172,-1.70328 -9.43172,-1.70328" data-paper-data="{&quot;index&quot;:null}" fill="none" stroke="#000000" stroke-width="0.75" stroke-linecap="round"/><path d="M150.71603,151.28949c0,0 5.37164,-1.26745 9.43172,-1.70328c7.39955,-0.7943 31.32799,-2.67204 31.32799,-2.67204" data-paper-data="{&quot;index&quot;:null}" fill="none" stroke="#000000" stroke-width="0.75" stroke-linecap="round"/><path d="M152.61755,180.4748c0,0 0.15962,6.87031 0.41374,13.54292c0.21653,5.68529 0.40615,11.22702 0.36583,12.25331c-0.11095,2.82311 -1.70069,4.20606 -1.70069,4.20606l0.26319,-0.26316c0,0 -25.60914,-0.68071 -27.37417,-2.48511c-0.29054,-0.29704 -1.20057,-1.13318 -1.41896,-2.53955c-1.09041,-7.02177 -0.68281,-25.10921 -0.68281,-25.10921v-0.16007c0,0 -0.40762,-18.08743 0.68281,-25.10921c0.21839,-1.40637 1.12845,-2.24254 1.41896,-2.53955c1.76503,-1.80442 27.37417,-2.48511 27.37417,-2.48511l-0.26319,-0.26316c0,0 1.58975,1.38295 1.70069,4.20606c0.04035,1.02628 -0.14929,6.56802 -0.36583,12.25331c-0.25414,6.67258 -0.41374,13.54292 -0.41374,13.54292z" data-paper-data="{&quot;index&quot;:null}" fill="url(#color-19)" stroke="#000000" stroke-width="0.75" stroke-linecap="round"/><path d="M344.32459,210.95573l0.11513,10.82318h-67.24195c0,0 3.69785,-1.24717 6.6449,-1.96785c4.85219,-1.18657 19.72224,-4.48001 19.72224,-4.48001z" data-paper-data="{&quot;index&quot;:null}" fill="url(#color-20)" stroke="url(#color-21)" stroke-width="0.75" stroke-linecap="round"/><path d="M156.30204,179.3936c0,0 0.19523,-9.53057 0.48415,-14.19793c0.14494,-2.34137 0.46656,-5.84086 0.74408,-8.6814c0.26064,-2.6678 2.96674,-4.99929 5.27681,-5.22704c2.82554,-0.27856 26.56232,-2.60603 29.71775,-1.76758c2.15923,0.57377 2.81262,2.2767 2.8016,3.15902c-0.02875,2.30093 -0.36011,7.88667 -0.42769,13.29337c-0.08683,6.94734 0.09047,13.68474 0.09047,13.68474v0.68645c0,0 -0.17731,6.7374 -0.09047,13.68474c0.06758,5.40668 0.39894,10.99242 0.42769,13.29337c0.01102,0.88232 -0.64237,2.58525 -2.8016,3.15902c-3.15543,0.83848 -26.89221,-1.48899 -29.71775,-1.76758c-2.31007,-0.22775 -5.01617,-2.55924 -5.27681,-5.22704c-0.27752,-2.84054 -0.59914,-6.34003 -0.74408,-8.6814c-0.28892,-4.66736 -0.48415,-14.19793 -0.48415,-14.19793z" data-paper-data="{&quot;index&quot;:null}" fill="#1a1a1a" stroke="#000000" stroke-width="0.75" stroke-linecap="round"/><path d="M358.94742,179.67159c0,0 -0.36373,-13.2122 -2.07937,-24.65626c-0.88404,-5.89687 -2.88814,-11.40885 -3.79146,-14.22466c-1.40599,-4.38275 -9.0974,-7.06007 -9.0974,-7.06007c0,0 3.19872,-1.25298 6.18853,0.78702c1.41458,0.96521 3.08518,2.50011 4.3578,4.13627c1.87709,2.41328 3.15909,5.04687 3.68597,6.39766c0.91436,2.34415 2.13866,7.55517 2.73819,13.33831c0.28794,2.77772 0.73175,5.67001 0.88994,8.39191c0.40339,6.94132 0.21661,12.77468 0.21661,12.77468v0.88711c0,0 0.1868,5.83337 -0.21661,12.77468c-0.15819,2.72193 -0.602,5.61419 -0.88994,8.39191c-0.59952,5.78317 -1.82382,10.99418 -2.73819,13.33831c-0.52688,1.35079 -1.80887,3.98436 -3.68597,6.39766c-1.27262,1.63616 -2.94322,3.17106 -4.3578,4.13627c-2.98981,2.04 -6.18853,0.78702 -6.18853,0.78702c0,0 7.69142,-2.67732 9.0974,-7.06007c0.90332,-2.81581 2.90742,-8.32779 3.79146,-14.22466c1.71564,-11.44406 2.07937,-24.65626 2.07937,-24.65626z" data-paper-data="{&quot;index&quot;:null}" fill="url(#color-22)" stroke="#000000" stroke-width="0.75" stroke-linecap="round"/><path d="M288.72792,163.13053c0,0 8.21984,0.62075 13.44257,0.82784c7.7177,0.30599 28.37641,0.8302 28.37641,0.8302l-41.53242,0.26609z" data-paper-data="{&quot;index&quot;:null}" fill="#2f4c38" stroke="#2f4c38" stroke-width="0.75" stroke-linecap="round"/><path d="M289.01451,194.94536l41.53242,0.26609c0,0 -20.65871,0.52421 -28.37641,0.8302c-5.2227,0.20706 -13.44257,0.82784 -13.44257,0.82784z" data-paper-data="{&quot;index&quot;:null}" fill="#2f4c38" stroke="#2f4c38" stroke-width="0.75" stroke-linecap="round"/><path d="M303.56491,144.66892c0,0 -14.87005,-3.29343 -19.72224,-4.48001c-2.94706,-0.72068 -6.6449,-1.96785 -6.6449,-1.96785h67.24195l-0.11513,10.82318z" data-paper-data="{&quot;index&quot;:null}" fill="url(#color-23)" stroke="url(#color-24)" stroke-width="0.75" stroke-linecap="round"/><path d="M342.62759,209.43266c2.12486,0.06317 3.52339,0.60321 3.75688,0.95392c0.8142,1.22294 -1.85153,4.93859 -1.85153,4.93859c0,0 -0.60457,-3.02046 -2.67673,-2.94091c-6.49261,0.24924 -39.31111,3.00023 -39.31111,3.00023c0,0 7.99695,-1.8441 16.70661,-3.47505c3.40985,-0.63851 19.93706,-2.57897 23.37591,-2.47676z" data-paper-data="{&quot;index&quot;:null}" fill="#2f4c38" stroke="#2f4c38" stroke-width="0.75" stroke-linecap="round"/><path d="M351.87395,218.06758c0,3.77301 -2.09637,6.83166 -4.68238,6.83166c-2.58601,0 -4.68238,-3.05864 -4.68238,-6.83166c0,-3.77301 2.09637,-6.83166 4.68238,-6.83166c2.58601,0 4.68238,3.05864 4.68238,6.83166z" data-paper-data="{&quot;index&quot;:null}" fill="url(#color-25)" stroke="#000000" stroke-width="1" stroke-linecap="butt"/><path d="M345.42609,217.99081c0,-3.56105 1.40903,-6.44786 3.14717,-6.44786c1.73813,0 3.14717,2.88681 3.14717,6.44786c0,3.56105 -1.40903,6.44786 -3.14717,6.44786c-1.73813,0 -3.14717,-2.88681 -3.14717,-6.44786z" data-paper-data="{&quot;index&quot;:null}" fill="url(#color-26)" stroke="#000000" stroke-width="1" stroke-linecap="butt"/><path d="M348.49652,217.91407c0,-2.92516 0.7217,-5.29645 1.61195,-5.29645c0.89027,0 1.61195,2.37131 1.61195,5.29645c0,2.92516 -0.7217,5.29645 -1.61195,5.29645c-0.89027,0 -1.61195,-2.37131 -1.61195,-5.29645z" data-paper-data="{&quot;index&quot;:null}" fill="url(#color-27)" stroke="#000000" stroke-width="1" stroke-linecap="butt"/><path d="M263.20821,221.60623c0,0 5.56837,0.4155 7.25982,-0.02525c0.3698,-0.09635 2.43703,-0.80056 4.1322,-1.65673c1.64897,-0.83284 2.91495,-1.81566 4.10433,-2.08665c8.5791,-1.95471 27.57009,-4.83008 34.66136,-6.09886c14.61776,-2.61543 43.4514,-6.94301 43.4514,-6.94301" data-paper-data="{&quot;index&quot;:null}" fill="none" stroke="#000000" stroke-width="0.75" stroke-linecap="round"/><path d="M266.25943,222.00923c0,0 0.98063,1.76634 2.45474,2.42151c1.17931,0.52414 7.02794,0.25183 9.53726,1.09369c3.44573,1.15601 3.32164,2.8175 3.32164,2.8175" data-paper-data="{&quot;index&quot;:null}" fill="none" stroke="#000000" stroke-width="0.75" stroke-linecap="round"/><path d="M284.12231,143.23427c0,0 1.45414,4.05091 2.64788,8.54235c0.78045,2.93644 1.34412,6.06121 1.68331,8.36535c0.9187,6.24075 1.01131,19.38455 1.01131,19.38455v0.947c0,0 -0.09262,13.14377 -1.01131,19.38455c-0.33919,2.30414 -0.90287,5.42888 -1.68331,8.36535c-1.19374,4.49146 -2.64788,8.54235 -2.64788,8.54235" data-paper-data="{&quot;index&quot;:null}" fill="none" stroke="#000000" stroke-width="0.75" stroke-linecap="round"/><path d="M282.61575,198.07922c0,-0.53699 0.61861,-0.9723 1.38168,-0.9723c0.76307,0 1.38168,0.43531 1.38168,0.9723c0,0.53699 -0.61861,0.9723 -1.38168,0.9723c-0.76307,0 -1.38168,-0.43531 -1.38168,-0.9723z" data-paper-data="{&quot;index&quot;:null}" fill="url(#color-28)" stroke="#000000" stroke-width="0.75" stroke-linecap="butt"/><path d="M155.90729,209.81915c0,0 -0.71687,-8.27982 -0.89708,-12.76509c-0.20999,-5.22627 -0.28723,-16.71084 -0.28723,-16.71084v-0.68645c0,0 0.07724,-11.48455 0.28723,-16.71084c0.18021,-4.48527 0.89708,-12.76509 0.89708,-12.76509" data-paper-data="{&quot;index&quot;:null}" fill="none" stroke="#000000" stroke-width="0.75" stroke-linecap="round"/><path d="M157.74954,179.65679c0,0 -0.42024,-18.76641 1.63942,-23.60432c1.0489,-2.46371 3.99464,-3.16826 5.33146,-3.27991c6.71793,-0.56115 16.29058,-1.13356 20.50231,-1.56085c2.1528,-0.21839 4.79163,-0.33305 6.45669,0.09919c1.56261,0.40562 2.22052,1.3243 2.20926,2.16082c-0.06263,4.6547 -0.34695,25.79032 -0.34695,25.79032v1.47597c0,0 0.28433,21.13563 0.34695,25.79032c0.01126,0.83653 -0.64665,1.7552 -2.20926,2.16082c-1.66506,0.43221 -4.30389,0.31758 -6.45669,0.09919c-4.21175,-0.42729 -13.7844,-0.9997 -20.50231,-1.56085c-1.33682,-0.11166 -4.28256,-0.8162 -5.33146,-3.27991c-2.05966,-4.83788 -1.63942,-23.60432 -1.63942,-23.60432z" data-paper-data="{&quot;index&quot;:null}" fill="url(#color-29)" stroke="#000000" stroke-width="0.75" stroke-linecap="round"/><path d="M240.89913,213.39622h2.78384l6.12033,8.00354l-2.0674,0.08188z" data-paper-data="{&quot;index&quot;:null}" fill="#1a1a1a" stroke="#000000" stroke-width="0.75" stroke-linecap="round"/><path d="M213.63388,220.17158h-5.15829l-4.72844,-7.00054l4.60561,0.18423z" data-paper-data="{&quot;index&quot;:null}" fill="#1a1a1a" stroke="#000000" stroke-width="0.75" stroke-linecap="round"/><path d="M205.89646,213.41669l5.80302,7.01684c0,0 0.01297,0.96397 -0.03837,2.08803c-0.04715,1.03262 -0.16774,2.20036 0.01438,2.87996c0.31229,1.16529 2.14261,2.93734 2.14261,2.93734" data-paper-data="{&quot;index&quot;:null}" fill="none" stroke="#000000" stroke-width="0.75" stroke-linecap="round"/><path d="M265.46239,225.51411c0,0.47046 0,0.96956 0,1.22816c0,0.33579 -0.34536,0.7983 -0.67548,0.7983c-0.64641,0 -2.96103,0 -4.23717,0c-0.51414,0 -0.85971,-0.63625 -0.85971,-1.04395c0,-0.28147 0,-0.78573 0,-1.22816c0,-0.46382 0.53171,-0.85971 0.98253,-0.85971c0.71894,0 2.89795,0 4.05294,0c0.44419,0 0.73689,0.53135 0.73689,1.10536z" data-paper-data="{&quot;index&quot;:null}" fill="url(#color-30)" stroke="#000000" stroke-width="0.75" stroke-linecap="butt"/><path d="M124.54548,180.08862c0,0 0.07567,-7.7369 0.3828,-14.63035c0.21118,-4.73993 0.67055,-9.01171 0.73127,-10.37467c0.03742,-0.83979 0.55451,-1.59512 1.38404,-1.62797c4.2301,-0.16752 17.43771,-0.69059 21.18385,-0.83898c2.0887,-0.08271 4.06001,0.63363 3.99883,2.72307c-0.05379,1.83839 -0.12325,4.21118 -0.17702,6.0479c-0.14541,4.96801 -0.52809,18.04304 -0.52809,18.04304v1.13868c0,0 0.38268,13.07503 0.52809,18.04304c0.05375,1.83675 0.1232,4.20951 0.17702,6.0479c0.06115,2.08944 -1.91016,2.80579 -3.99883,2.72307c-3.74617,-0.14836 -16.95375,-0.67143 -21.18385,-0.83898c-0.82953,-0.03285 -1.34662,-0.78818 -1.38404,-1.62797c-0.06072,-1.36298 -0.52009,-5.63473 -0.73127,-10.37467c-0.30713,-6.89345 -0.3828,-14.63035 -0.3828,-14.63035z" data-paper-data="{&quot;index&quot;:null}" fill="url(#color-31)" stroke="#000000" stroke-width="0.75" stroke-linecap="round"/><path d="M151.94766,165.72278l-0.08374,1.42355h-26.88004l0.08374,-1.59103z" data-paper-data="{&quot;index&quot;:null}" fill="url(#color-32)" stroke="#000000" stroke-width="0.75" stroke-linecap="round"/><path d="M125.06764,194.44472l-0.08374,-1.59103h26.88004l0.08374,1.42355z" data-paper-data="{&quot;index&quot;:null}" fill="url(#color-33)" stroke="#000000" stroke-width="0.75" stroke-linecap="round"/><path d="M148.36307,179.82543c0,0 0.04394,-13.22411 0.31053,-18.0469c0.1875,-3.39176 0.7422,-8.2709 0.7422,-8.2709c0,0 1.02476,-0.68567 1.09205,2.62831c0.04215,2.07589 -0.32224,6.31697 -0.45023,11.04583c-0.16664,6.15716 -0.11547,12.2489 -0.11547,12.2489v1.13868c0,0 -0.05118,6.09175 0.11547,12.2489c0.12799,4.72884 0.49239,8.96994 0.45023,11.04583c-0.06729,3.31398 -1.09205,2.62831 -1.09205,2.62831c0,0 -0.5547,-4.87913 -0.7422,-8.2709c-0.26659,-4.82279 -0.31053,-18.0469 -0.31053,-18.0469z" data-paper-data="{&quot;index&quot;:null}" fill="url(#color-34)" stroke="#000000" stroke-width="0.75" stroke-linecap="round"/><path d="M145.86289,179.82543c0,0 0.04394,-12.89425 0.31053,-17.59671c0.1875,-3.30715 0.7422,-8.0646 0.7422,-8.0646c0,0 1.02476,-0.66857 1.09205,2.56276c0.04215,2.02412 -0.32224,6.15939 -0.45023,10.77029c-0.16662,6.00356 -0.11547,11.94335 -0.11547,11.94335v1.11897c0,0 -0.05115,5.93979 0.11547,11.94335c0.12799,4.6109 0.49239,8.74617 0.45023,10.77029c-0.06729,3.23131 -1.09205,2.56276 -1.09205,2.56276c0,0 -0.5547,-4.75743 -0.7422,-8.0646c-0.26659,-4.70247 -0.31053,-17.59671 -0.31053,-17.59671z" data-paper-data="{&quot;index&quot;:null}" fill="url(#color-35)" stroke="#000000" stroke-width="0.75" stroke-linecap="round"/><path d="M143.49427,179.82543c0,0 0.04394,-13.02619 0.31053,-17.77681c0.1875,-3.34099 0.7422,-8.1471 0.7422,-8.1471c0,0 1.02476,-0.67541 1.09205,2.58897c0.04215,2.04483 -0.32224,6.22242 -0.45023,10.8805c-0.16662,6.06499 -0.11547,12.06557 -0.11547,12.06557v1.12685c0,0 -0.05115,6.00058 0.11547,12.06557c0.12799,4.65808 0.49239,8.83567 0.45023,10.8805c-0.06729,3.2644 -1.09205,2.58897 -1.09205,2.58897c0,0 -0.5547,-4.80611 -0.7422,-8.1471c-0.26659,-4.7506 -0.31053,-17.77681 -0.31053,-17.77681z" data-paper-data="{&quot;index&quot;:null}" fill="url(#color-36)" stroke="#000000" stroke-width="0.75" stroke-linecap="round"/><path d="M140.8625,179.82543c0,0 0.04394,-13.02619 0.31053,-17.77681c0.1875,-3.34099 0.7422,-8.1471 0.7422,-8.1471c0,0 1.02476,-0.67541 1.09205,2.58897c0.04215,2.04483 -0.32224,6.22242 -0.45023,10.8805c-0.16662,6.06499 -0.11547,12.06557 -0.11547,12.06557v1.12685c0,0 -0.05115,6.00058 0.11547,12.06557c0.12799,4.65808 0.49239,8.83567 0.45023,10.8805c-0.06729,3.2644 -1.09205,2.58897 -1.09205,2.58897c0,0 -0.5547,-4.80611 -0.7422,-8.1471c-0.26659,-4.7506 -0.31053,-17.77681 -0.31053,-17.77681z" data-paper-data="{&quot;index&quot;:null}" fill="url(#color-37)" stroke="#000000" stroke-width="0.75" stroke-linecap="round"/><path d="M136.25689,179.82543c0,0 0.03318,-13.02619 0.23443,-17.77681c0.14153,-3.34099 0.56032,-8.1471 0.56032,-8.1471c0,0 0.77366,-0.67541 0.82446,2.58897c0.03182,2.04483 -0.24329,6.22242 -0.3399,10.8805c-0.1258,6.06499 -0.08719,12.06557 -0.08719,12.06557v1.12685c0,0 -0.03863,6.00058 0.08719,12.06557c0.09662,4.65808 0.37173,8.83567 0.3399,10.8805c-0.0508,3.2644 -0.82446,2.58897 -0.82446,2.58897c0,0 -0.41879,-4.80611 -0.56032,-8.1471c-0.20128,-4.7506 -0.23443,-17.77681 -0.23443,-17.77681z" data-paper-data="{&quot;index&quot;:null}" fill="url(#color-38)" stroke="#000000" stroke-width="0.75" stroke-linecap="round"/><path d="M133.75668,179.82543c0,0 0.03856,-13.02619 0.2725,-17.77681c0.1645,-3.34099 0.65125,-8.1471 0.65125,-8.1471c0,0 0.89922,-0.67541 0.95826,2.58897c0.03699,2.04483 -0.28278,6.22242 -0.39508,10.8805c-0.14622,6.06499 -0.10133,12.06557 -0.10133,12.06557v1.12685c0,0 -0.04489,6.00058 0.10133,12.06557c0.1123,4.65808 0.43205,8.83567 0.39508,10.8805c-0.05905,3.2644 -0.95826,2.58897 -0.95826,2.58897c0,0 -0.48674,-4.80611 -0.65125,-8.1471c-0.23393,-4.7506 -0.2725,-17.77681 -0.2725,-17.77681z" data-paper-data="{&quot;index&quot;:null}" fill="url(#color-39)" stroke="#000000" stroke-width="0.75" stroke-linecap="round"/><path d="M130.99332,179.82543c0,0 0.04125,-13.02619 0.29151,-17.77681c0.176,-3.34099 0.69671,-8.1471 0.69671,-8.1471c0,0 0.96199,-0.67541 1.02517,2.58897c0.03956,2.04483 -0.30251,6.22242 -0.42264,10.8805c-0.15643,6.06499 -0.1084,12.06557 -0.1084,12.06557v1.12685c0,0 -0.04803,6.00058 0.1084,12.06557c0.12013,4.65808 0.4622,8.83567 0.42264,10.8805c-0.06317,3.2644 -1.02517,2.58897 -1.02517,2.58897c0,0 -0.52071,-4.80611 -0.69671,-8.1471c-0.25024,-4.7506 -0.29151,-17.77681 -0.29151,-17.77681z" data-paper-data="{&quot;index&quot;:null}" fill="url(#color-40)" stroke="#000000" stroke-width="0.75" stroke-linecap="round"/><path d="M126.25612,179.82543c0,0 0.03587,-13.02619 0.25345,-17.77681c0.15303,-3.34099 0.60581,-8.1471 0.60581,-8.1471c0,0 0.83643,-0.67541 0.89137,2.58897c0.0344,2.04483 -0.26305,6.22242 -0.36749,10.8805c-0.13601,6.06499 -0.09426,12.06557 -0.09426,12.06557v1.12685c0,0 -0.04177,6.00058 0.09426,12.06557c0.10445,4.65808 0.40189,8.83567 0.36749,10.8805c-0.05494,3.2644 -0.89137,2.58897 -0.89137,2.58897c0,0 -0.45278,-4.80611 -0.60581,-8.1471c-0.21761,-4.7506 -0.25345,-17.77681 -0.25345,-17.77681z" data-paper-data="{&quot;index&quot;:null}" fill="url(#color-41)" stroke="#000000" stroke-width="0.75" stroke-linecap="round"/><path d="M319.25168,148.09058c-8.70966,-1.63095 -16.70661,-3.47505 -16.70661,-3.47505c0,0 32.81852,2.75099 39.31111,3.00023c2.07216,0.07955 2.67673,-2.94091 2.67673,-2.94091c0,0 2.66573,3.71565 1.85153,4.93859c-0.23348,0.35069 -1.63202,0.89075 -3.75688,0.95392c-3.43885,0.10221 -19.96605,-1.83825 -23.37591,-2.47676z" data-paper-data="{&quot;index&quot;:null}" fill="#2f4c38" stroke="#2f4c38" stroke-width="0.75" stroke-linecap="round"/><path d="M347.1916,148.76411c-2.58599,0 -4.68238,-3.05864 -4.68238,-6.83166c0,-3.77304 2.09637,-6.83166 4.68238,-6.83166c2.58599,0 4.68238,3.05864 4.68238,6.83166c0,3.77304 -2.09637,6.83166 -4.68238,6.83166z" data-paper-data="{&quot;index&quot;:null}" fill="url(#color-42)" stroke="#000000" stroke-width="1" stroke-linecap="butt"/><path d="M348.57328,135.56133c1.73813,0 3.14717,2.88681 3.14717,6.44786c0,3.56105 -1.40903,6.44786 -3.14717,6.44786c-1.73813,0 -3.14717,-2.88681 -3.14717,-6.44786c0,-3.56105 1.40903,-6.44786 3.14717,-6.44786z" data-paper-data="{&quot;index&quot;:null}" fill="url(#color-43)" stroke="#000000" stroke-width="1" stroke-linecap="butt"/><path d="M350.10849,136.78948c0.89027,0 1.61195,2.37131 1.61195,5.29645c0,2.92516 -0.7217,5.29645 -1.61195,5.29645c-0.89027,0 -1.61195,-2.37131 -1.61195,-5.29645c0,-2.92516 0.7217,-5.29645 1.61195,-5.29645z" data-paper-data="{&quot;index&quot;:null}" fill="url(#color-44)" stroke="#000000" stroke-width="1" stroke-linecap="butt"/><path d="M356.81731,155.20425c0,0 -28.83364,-4.32757 -43.4514,-6.94301c-7.09125,-1.26879 -26.08224,-4.14415 -34.66136,-6.09886c-1.18938,-0.271 -2.45536,-1.25382 -4.10433,-2.08665c-1.69517,-0.85616 -3.7624,-1.56037 -4.1322,-1.65673c-1.69145,-0.44076 -7.25982,-0.02525 -7.25982,-0.02525" data-paper-data="{&quot;index&quot;:null}" fill="none" stroke="#000000" stroke-width="0.75" stroke-linecap="round"/><path d="M281.57309,131.65806c0,0 0.12406,1.66149 -3.32164,2.8175c-2.50932,0.84186 -8.35797,0.56958 -9.53726,1.09369c-1.47411,0.65517 -2.45474,2.42151 -2.45474,2.42151" data-paper-data="{&quot;index&quot;:null}" fill="none" stroke="#000000" stroke-width="0.75" stroke-linecap="round"/><path d="M283.99744,160.9485c0.76307,0 1.38168,0.43531 1.38168,0.9723c0,0.53697 -0.61861,0.9723 -1.38168,0.9723c-0.76307,0 -1.38168,-0.43531 -1.38168,-0.9723c0,-0.53697 0.61861,-0.9723 1.38168,-0.9723z" data-paper-data="{&quot;index&quot;:null}" fill="url(#color-45)" stroke="#000000" stroke-width="0.75" stroke-linecap="butt"/><path d="M251.04612,180.05156c0,0 -0.43881,-12.54489 -0.94426,-18.26557c-0.25055,-2.83582 -0.81868,-6.95777 -1.27752,-10.08258c-0.19414,-1.32199 -0.15489,-2.83699 0.51255,-4.02192c0.61366,-1.08948 11.34018,-6.49102 13.65698,-7.3507c1.30663,-0.48484 4.10002,-1.22789 6.73971,-0.95802c2.35329,0.2406 4.58443,1.39423 5.53114,2.56297c1.49384,1.8442 3.55777,4.40855 4.56425,6.97129c0.52788,1.34415 1.70902,6.11795 2.31416,11.63591c0.96302,8.78125 1.01074,19.37705 1.01074,19.37705v0.16007c0,0 -0.04772,10.59579 -1.01074,19.37705c-0.60514,5.51795 -1.78626,10.29176 -2.31416,11.63591c-1.00646,2.56276 -3.07038,5.12711 -4.56425,6.97129c-0.94671,1.16874 -3.17785,2.32237 -5.53114,2.56297c-2.63969,0.26988 -5.4331,-0.47315 -6.73971,-0.95802c-2.31678,-0.85969 -13.04332,-6.26122 -13.65698,-7.3507c-0.66741,-1.18493 -0.70666,-2.69993 -0.51255,-4.02192c0.45885,-3.12484 1.02697,-7.24676 1.27752,-10.08258c0.50543,-5.72068 0.94426,-18.26557 0.94426,-18.26557z" data-paper-data="{&quot;index&quot;:null}" fill="#1a1a1a" stroke="#000000" stroke-width="0.75" stroke-linecap="round"/><path d="M252.88834,179.65679c0,0 -0.50169,-12.33659 -0.96559,-17.90337c-0.21342,-2.56095 -0.66374,-6.21516 -1.04247,-9.1024c-0.34083,-2.59839 0.15255,-4.63108 1.51924,-5.29987c2.03876,-0.9977 8.08369,-4.18295 12.39855,-5.88778c0.43745,-0.17283 0.86271,-0.31646 1.26631,-0.43578c1.86836,-0.55242 4.24938,-0.41843 5.56535,0.33733c0.98222,0.5641 2.15342,1.45688 3.24847,2.85463c2.59813,3.31633 4.78242,9.41222 5.16234,11.50383c1.90811,10.50468 1.27105,23.53867 1.27105,23.53867v1.47597c0,0 0.63706,13.03397 -1.27105,23.53867c-0.37992,2.0916 -2.56423,8.18749 -5.16234,11.50383c-1.09505,1.39775 -2.26625,2.29053 -3.24847,2.85463c-1.31596,0.75579 -3.69696,0.88975 -5.56535,0.33733c-0.4036,-0.11932 -0.82886,-0.26295 -1.26631,-0.43578c-4.31484,-1.70483 -10.35977,-4.89008 -12.39855,-5.88778c-1.36669,-0.66881 -1.86007,-2.70148 -1.51924,-5.29987c0.37873,-2.88724 0.82908,-6.54145 1.04247,-9.1024c0.46389,-5.56675 0.96559,-17.90337 0.96559,-17.90337z" data-paper-data="{&quot;index&quot;:null}" fill="url(#color-46)" stroke="#000000" stroke-width="0.75" stroke-linecap="round"/><path d="M247.73593,138.51838l2.0674,0.08188l-6.12033,8.00354h-2.78384z" data-paper-data="{&quot;index&quot;:null}" fill="#1a1a1a" stroke="#000000" stroke-width="0.75" stroke-linecap="round"/><path d="M208.35277,146.64475l-4.60561,0.18423l4.72844,-7.00054h5.15829z" data-paper-data="{&quot;index&quot;:null}" fill="#1a1a1a" stroke="#000000" stroke-width="0.75" stroke-linecap="round"/><path d="M213.81812,131.66113c0,0 -1.83032,1.77205 -2.14261,2.93734c-0.18214,0.6796 -0.06153,1.84734 -0.01438,2.87996c0.05134,1.12407 0.03837,2.08803 0.03837,2.08803l-5.80302,7.01684" data-paper-data="{&quot;index&quot;:null}" fill="none" stroke="#000000" stroke-width="0.75" stroke-linecap="round"/><path d="M265.46244,134.48589c0,0.57398 -0.29273,1.10536 -0.73689,1.10536c-1.15499,0 -3.33399,0 -4.05294,0c-0.45083,0 -0.98253,-0.39589 -0.98253,-0.85971c0,-0.44242 0,-0.94669 0,-1.22816c0,-0.40767 0.34557,-1.04395 0.85971,-1.04395c1.27614,0 3.59073,0 4.23717,0c0.33015,0 0.67548,0.46251 0.67548,0.7983c0,0.25859 0,0.75769 0,1.22816z" data-paper-data="{&quot;index&quot;:null}" fill="url(#color-47)" stroke="#000000" stroke-width="0.75" stroke-linecap="butt"/><path d="M138.62546,179.82543c0,0 0.03318,-13.02619 0.23443,-17.77681c0.14156,-3.34099 0.56032,-8.1471 0.56032,-8.1471c0,0 0.77366,-0.67541 0.82446,2.58897c0.03182,2.04483 -0.24329,6.22242 -0.3399,10.8805c-0.1258,6.06499 -0.08717,12.06557 -0.08717,12.06557v1.12685c0,0 -0.03863,6.00058 0.08717,12.06557c0.09662,4.65808 0.37173,8.83567 0.3399,10.8805c-0.0508,3.2644 -0.82446,2.58897 -0.82446,2.58897c0,0 -0.41879,-4.80611 -0.56032,-8.1471c-0.20128,-4.7506 -0.23443,-17.77681 -0.23443,-17.77681z" data-paper-data="{&quot;index&quot;:null}" fill="url(#color-48)" stroke="#000000" stroke-width="0.75" stroke-linecap="round"/><path d="M128.62476,179.82543c0,0 0.03856,-13.02619 0.27247,-17.77681c0.1645,-3.34099 0.65127,-8.1471 0.65127,-8.1471c0,0 0.89922,-0.67541 0.95826,2.58897c0.03699,2.04483 -0.28278,6.22242 -0.39508,10.8805c-0.14622,6.06499 -0.10133,12.06557 -0.10133,12.06557v1.12685c0,0 -0.04489,6.00058 0.10133,12.06557c0.1123,4.65808 0.43207,8.83567 0.39508,10.8805c-0.05905,3.2644 -0.95826,2.58897 -0.95826,2.58897c0,0 -0.48674,-4.80611 -0.65127,-8.1471c-0.23393,-4.7506 -0.27247,-17.77681 -0.27247,-17.77681z" data-paper-data="{&quot;index&quot;:null}" fill="url(#color-49)" stroke="#000000" stroke-width="0.75" stroke-linecap="round"/><path d="M203.67408,146.89115c0,0 -20.34273,0.32979 -25.38522,0.16862c-1.17924,-0.0377 -3.54525,0.00788 -3.4472,-0.95961c0.03263,-0.32198 0.74739,-1.68862 2.83399,-2.48276c3.65024,-1.38925 9.87204,-2.38214 12.32512,-2.68187c9.06729,-1.1079 19.59485,-1.0186 19.59485,-1.0186l-5.92151,6.97421z" data-paper-data="{&quot;index&quot;:null}" fill="url(#color-50)" stroke="#000000" stroke-width="0.75" stroke-linecap="round"/><path d="M207.88492,146.62799l5.39516,-6.71105c0,0 11.72172,-0.66846 17.51281,-0.93371c5.69955,-0.26105 16.96349,-0.45237 16.96349,-0.45237l-6.97421,8.09711z" data-paper-data="{&quot;index&quot;:null}" fill="url(#color-51)" stroke="#000000" stroke-width="0.75" stroke-linecap="round"/><path d="M249.73018,138.60105c0,0 9.57134,0.06874 12.10509,0.16174c1.23803,0.04544 2.23811,0.36464 2.23811,0.36464c0,0 -3.34349,0.85302 -7.10294,2.5067c-3.55574,1.56409 -7.11513,3.85242 -8.938,4.51421c-2.05652,0.74665 -4.61854,0.47965 -4.61854,0.47965z" data-paper-data="{&quot;index&quot;:null}" fill="url(#color-52)" stroke="#000000" stroke-width="0.75" stroke-linecap="round"/><path d="M203.67408,213.10887l5.92151,6.97421c0,0 -10.52755,0.08928 -19.59485,-1.0186c-2.45307,-0.29973 -8.67488,-1.29261 -12.32512,-2.68187c-2.08661,-0.79413 -2.80136,-2.16078 -2.83399,-2.48276c-0.09804,-0.96749 2.26796,-0.92191 3.4472,-0.95961c5.04249,-0.16117 25.38522,0.16862 25.38522,0.16862z" data-paper-data="{&quot;index&quot;:null}" fill="url(#color-53)" stroke="#000000" stroke-width="0.75" stroke-linecap="round"/><path d="M240.78216,213.37203l6.97421,8.09711c0,0 -11.26394,-0.19133 -16.96349,-0.45237c-5.79109,-0.26524 -17.51281,-0.93371 -17.51281,-0.93371l-5.39516,-6.71105z" data-paper-data="{&quot;index&quot;:null}" fill="url(#color-54)" stroke="#000000" stroke-width="0.75" stroke-linecap="round"/><path d="M243.41395,213.37203c0,0 2.56202,-0.267 4.61854,0.47965c1.82287,0.66181 5.38223,2.95013 8.938,4.51421c3.75942,1.6537 7.10294,2.5067 7.10294,2.5067c0,0 -1.00008,0.3192 -2.23811,0.36464c-2.53374,0.09297 -12.10509,0.16174 -12.10509,0.16174z" data-paper-data="{&quot;index&quot;:null}" fill="url(#color-55)" stroke="#000000" stroke-width="0.75" stroke-linecap="round"/><path d="M366.61192,180.09957c0,0 -0.04051,10.42339 -1.43688,20.97853c-1.12861,8.53109 -3.33457,17.08441 -5.62343,20.78903c-0.67238,1.08827 -3.55422,4.34873 -7.83823,5.43134c-6.28048,1.5871 -14.51598,0.82229 -14.51598,0.82229l-111.21023,0.12282h-16.94866c0,0 -4.91986,5.46157 -10.82083,6.08682c-7.17847,0.76064 -26.49482,0.88042 -37.27708,0.57396c-2.37607,-0.06753 -4.33771,-0.27576 -5.66368,-0.45804c-1.19545,-0.16433 -2.39811,-1.09138 -3.25587,-2.15559c-1.19893,-1.48751 -3.05007,-3.52282 -5.03457,-4.73127c-2.96208,-1.80371 -15.36517,-2.47133 -21.18361,-5.35688c-6.00175,-2.97645 -6.85018,-14.40796 -6.85018,-14.40796c0,0 -1.95467,-5.18757 -2.38119,-8.65155c-0.02483,-0.20154 0.03102,-1.67632 -0.18811,-3.17242c-0.24357,-1.66292 -0.76488,-3.3832 -0.80318,-4.06634c-0.08928,-1.59336 -0.23305,-11.66442 -0.23305,-11.66442v-0.47979c0,0 0.14377,-10.07106 0.23305,-11.66442c0.03827,-0.68314 0.55961,-2.40342 0.80318,-4.06634c0.21915,-1.4961 0.16331,-2.97088 0.18811,-3.17242c0.42652,-3.46398 2.38119,-8.65155 2.38119,-8.65155c0,0 0.84843,-11.43151 6.85018,-14.40796c5.81844,-2.88553 18.22154,-3.55315 21.18361,-5.35688c1.98449,-1.20845 3.83566,-3.24376 5.03457,-4.73127c0.85774,-1.0642 2.06042,-1.99125 3.25587,-2.15559c1.32599,-0.18228 3.28763,-0.39051 5.66368,-0.45804c10.78227,-0.30644 30.09862,-0.18666 37.27708,0.57396c5.90094,0.62528 10.82083,6.08682 10.82083,6.08682h16.94866l111.21023,0.12282c0,0 8.2355,-0.76479 14.51598,0.82229c4.28401,1.08258 7.16587,4.34305 7.83823,5.43134c2.28886,3.70465 4.49481,12.25795 5.62343,20.78903c1.39637,10.55514 1.43688,20.97853 1.43688,20.97853z" data-paper-data="{&quot;index&quot;:null}" fill="none" stroke="#000000" stroke-width="1" stroke-linecap="round"/><g data-paper-data="{&quot;index&quot;:null}" stroke="#000000" stroke-width="0.75" stroke-linecap="round"><path d="M130.90536,139.78536v-4.7372c0,0 0.99427,-0.62347 1.84103,-0.79544c0.97175,-0.1974 3.36089,-0.51288 4.97675,-0.71706c0.93005,-0.11751 1.60391,0.23584 1.60391,0.59138c0,0.74015 0,3.42133 0,3.42133z" fill="url(#color-56)"/><path d="M137.74797,137.54832v-4.07926" fill="none"/></g><path d="M131.95802,139.12738v-4.47403" data-paper-data="{&quot;index&quot;:null}" fill="none" stroke="#000000" stroke-width="0.75" stroke-linecap="round"/><g data-paper-data="{&quot;index&quot;:null}" stroke="#000000" stroke-width="0.75" stroke-linecap="round"><path d="M139.32701,222.45168c0,0 0,2.68118 0,3.42133c0,0.35554 -0.67388,0.7089 -1.60391,0.59138c-1.61586,-0.20416 -4.005,-0.51966 -4.97675,-0.71706c-0.84676,-0.172 -1.84103,-0.79544 -1.84103,-0.79544v-4.7372z" fill="url(#color-57)"/><path d="M137.74797,222.45168v4.07926" fill="none"/></g><path d="M131.95802,225.34666v-4.47403" data-paper-data="{&quot;index&quot;:null}" fill="none" stroke="#000000" stroke-width="0.75" stroke-linecap="round"/><g data-paper-data="{&quot;index&quot;:null}" stroke-width="0.75" stroke-linecap="butt"><path d="M217.50261,228.36957c0,-0.5935 1.04476,-1.07465 2.33351,-1.07465c1.28876,0 2.33351,0.48113 2.33351,1.07465c0,0.5935 -1.04476,1.07465 -2.33351,1.07465c-1.28876,0 -2.33351,-0.48113 -2.33351,-1.07465z" fill="url(#color-58)" stroke="url(#color-59)"/><path d="M213.5725,227.93974l2.82668,0.01609c0,0 0.84024,0.31855 1.82954,0.55175c0.77942,0.18373 1.67465,0.29123 2.16475,0.30779c0.94783,0.03206 2.26491,-0.64782 2.26491,-0.64782l3.44139,-0.16643c0,0 -0.62809,0.89365 -1.83134,1.45826c-1.11635,0.52385 -2.7449,0.72173 -4.40158,0.72173c-1.75703,0 -3.83554,-0.2903 -4.96854,-0.81508c-1.08677,-0.50336 -1.3258,-1.42631 -1.3258,-1.42631z" fill="url(#color-60)" stroke="#000000"/></g><path d="M219.83612,130.55578c1.28876,0 2.33351,0.48115 2.33351,1.07465c0,0.59352 -1.04476,1.07465 -2.33351,1.07465c-1.28876,0 -2.33351,-0.48115 -2.33351,-1.07465c0,-0.59352 1.04476,-1.07465 2.33351,-1.07465z" data-paper-data="{&quot;index&quot;:null}" fill="url(#color-61)" stroke="url(#color-62)" stroke-width="0.75" stroke-linecap="butt"/><path d="M213.5725,132.06028c0,0 0.23903,-0.92296 1.3258,-1.42631c1.13302,-0.52478 3.21151,-0.81508 4.96854,-0.81508c1.6567,0 3.28522,0.19787 4.40158,0.72173c1.20326,0.56463 1.83134,1.45826 1.83134,1.45826l-3.44139,-0.16643c0,0 -1.31708,-0.67988 -2.26491,-0.64782c-0.4901,0.01657 -1.38535,0.12406 -2.16475,0.30779c-0.98929,0.23322 -1.82954,0.55175 -1.82954,0.55175l-2.82668,0.01609z" data-paper-data="{&quot;index&quot;:null}" fill="url(#color-63)" stroke="#000000" stroke-width="0.75" stroke-linecap="butt"/><path d="M349.55448,179.69949c0,0 0.1575,-1.5806 0.42255,-1.5806c0.3192,0 1.41665,-0.11309 2.14961,0.23715c0.72637,0.34709 1.23066,1.34343 1.23066,1.34343v0.60109c0,0 -0.50424,0.99639 -1.23066,1.34346c-0.73296,0.35024 -1.83039,0.23715 -2.14961,0.23715c-0.26504,0 -0.42255,-1.5806 -0.42255,-1.5806z" data-paper-data="{&quot;index&quot;:null}" fill="#d3c998" stroke="none" stroke-width="0" stroke-linecap="round"/><g data-paper-data="{&quot;index&quot;:null}" stroke-linecap="round"><path d="M263.49732,225.6983c0,0 1.32777,0.05413 1.17741,1.49794c-0.28433,2.7304 -2.21602,7.89943 -2.84242,9.28485c-0.38182,0.8445 -1.96067,0.97918 -2.94051,0.97808c-0.46732,-0.00052 -0.73275,-0.27183 -0.62066,-0.68138c0.59495,-2.17387 2.4979,-9.12692 2.83214,-10.34817c0.09804,-0.35819 0.76579,-0.68609 1.09693,-0.69528c0.39458,-0.01097 1.29711,-0.03604 1.29711,-0.03604z" fill="url(#color-64)" stroke="#000000" stroke-width="0.75"/><path d="M260.0475,237.21731c0,0 -1.01762,0.13046 -1.36607,0.17514c-0.21594,0.02768 -0.43369,-0.28651 -0.28416,-0.86685c0.67215,-2.60894 2.52736,-9.79647 2.6181,-10.00175c0.25471,-0.57629 1.29171,-0.8933 1.55311,-0.8933c0.23722,0 0.67871,0 0.67871,0z" fill="url(#color-65)" stroke="none" stroke-width="0"/><path d="M263.25168,226.00535l-3.0704,11.1763" fill="none" stroke="#000000" stroke-width="0.75"/><path d="M263.49732,225.69832c0,0 1.32777,0.05413 1.17741,1.49794c-0.28433,2.7304 -2.21602,7.89943 -2.84242,9.28485c-0.38182,0.8445 -1.96067,0.97918 -2.94051,0.97808c-0.46732,-0.00052 -0.73275,-0.27183 -0.62066,-0.68138c0.59495,-2.17387 2.4979,-9.12692 2.83214,-10.34817c0.09804,-0.35819 0.76579,-0.68609 1.09693,-0.69528c0.39458,-0.01097 1.29711,-0.03604 1.29711,-0.03604z" fill="none" stroke="#000000" stroke-width="0.75"/></g><g data-paper-data="{&quot;index&quot;:null}" stroke-linecap="round"><path d="M262.20021,134.26567c-0.33115,-0.00921 -0.99891,-0.3371 -1.09693,-0.69528c-0.33424,-1.22125 -2.23718,-8.17433 -2.83214,-10.34817c-0.11209,-0.40955 0.15334,-0.68086 0.62066,-0.68138c0.97987,-0.00109 2.55869,0.13358 2.94051,0.97808c0.6264,1.38542 2.55809,6.55445 2.84242,9.28485c0.15034,1.44383 -1.17741,1.49794 -1.17741,1.49794c0,0 -0.90253,-0.02506 -1.29711,-0.03604z" fill="url(#color-66)" stroke="#000000" stroke-width="0.75"/><path d="M263.2472,134.36945c0,0 -0.44152,0 -0.67871,0c-0.2614,0 -1.2984,-0.31703 -1.55311,-0.8933c-0.09074,-0.20528 -1.94595,-7.39281 -2.6181,-10.00175c-0.14951,-0.58034 0.06822,-0.89454 0.28416,-0.86685c0.34845,0.04468 1.36607,0.17514 1.36607,0.17514z" fill="url(#color-67)" stroke="none" stroke-width="0"/><path d="M263.2517,133.99465l-3.0704,-11.1763" fill="none" stroke="#000000" stroke-width="0.75"/><path d="M262.20021,134.26564c-0.33115,-0.00921 -0.99891,-0.3371 -1.09693,-0.69528c-0.33424,-1.22125 -2.23718,-8.17433 -2.83214,-10.34817c-0.11209,-0.40955 0.15334,-0.68086 0.62066,-0.68138c0.97987,-0.00109 2.55869,0.13358 2.94051,0.97808c0.6264,1.38542 2.55809,6.55445 2.84242,9.28485c0.15034,1.44383 -1.17741,1.49794 -1.17741,1.49794c0,0 -0.90253,-0.02506 -1.29711,-0.03604z" fill="none" stroke="#000000" stroke-width="0.75"/></g><path d="M122.4836,180.08003c0,0 -0.40762,18.08743 0.68281,25.10921c0.21839,1.40637 1.12845,2.24254 1.41896,2.53955c1.76503,1.80442 27.37417,2.48511 27.37417,2.48511c0,0 -1.08343,1.79704 -1.57246,3.7833c-0.3807,1.54628 -0.14198,3.25909 -0.42898,3.99252c-0.41753,1.06699 -1.55145,1.3038 -1.55145,1.3038c0,0 -17.94305,-1.90544 -23.36841,-3.56362c-3.398,-1.03857 -6.05235,-5.42853 -6.05235,-5.42853c0,0 -0.48087,-4.69661 -0.64001,-7.84164c-0.27507,-5.43607 -0.86264,-21.85338 -0.86264,-21.85338v-1.21276c0,0 0.58755,-16.41733 0.86264,-21.85338c0.15915,-3.14502 0.64001,-7.84164 0.64001,-7.84164c0,0 2.65435,-4.38996 6.05235,-5.42853c5.42534,-1.6582 23.36841,-3.56362 23.36841,-3.56362c0,0 1.13394,0.23681 1.55145,1.3038c0.28699,0.73341 0.04827,2.44622 0.42898,3.99252c0.48905,1.98625 1.57246,3.7833 1.57246,3.7833c0,0 -25.60914,0.68071 -27.37417,2.48511c-0.29054,0.29704 -1.20057,1.13318 -1.41896,2.53955c-1.09041,7.02177 -0.68281,25.10921 -0.68281,25.10921z" data-paper-data="{&quot;index&quot;:null}" fill="url(#color-68)" stroke="#000000" stroke-width="0.75" stroke-linecap="round"/><path d="M142.74495,219.47259c-6.64519,-0.47063 -17.13218,-1.93593 -20.02373,-3.28225c-3.96282,-1.84513 -4.0537,-8.47663 -4.0537,-8.47663c0,0 0.77938,4.87668 5.27912,6.41111c6.24497,2.12952 17.09657,1.2337 20.11599,2.40942c2.44608,0.95245 4.34402,2.75932 4.34402,2.75932c0,0 -2.42544,0.40824 -5.6617,0.17905z" data-paper-data="{&quot;index&quot;:null}" fill="#0c0c0c" stroke="#000000" stroke-width="0.75" stroke-linecap="round"/><path d="M148.4067,140.70648c0,0 -1.89794,1.80687 -4.34402,2.75932c-3.01939,1.17569 -13.87102,0.27987 -20.11599,2.40942c-4.49974,1.5344 -5.27912,6.41111 -5.27912,6.41111c0,0 0.09086,-6.6315 4.0537,-8.47663c2.89155,-1.34634 13.37856,-2.81164 20.02373,-3.28225c3.23624,-0.2292 5.6617,0.17905 5.6617,0.17905z" data-paper-data="{&quot;index&quot;:null}" fill="#0c0c0c" stroke="#000000" stroke-width="0.75" stroke-linecap="round"/></g><path d="M23,205v-48h431v48z" fill="url(#color-69)" stroke="none" stroke-width="NaN" stroke-linecap="butt"/><text transform="translate(159.66637,192.0592) scale(0.9216,0.9216)" font-size="40" xml:space="preserve" fill="#35ff00" fill-rule="nonzero" stroke="#37ff00" stroke-width="2" stroke-linecap="butt" stroke-linejoin="miter" stroke-miterlimit="10" stroke-dasharray="" stroke-dashoffset="0" font-family="Sans Serif" font-weight="normal" text-anchor="start" style="mix-blend-mode: normal"><tspan x="0" dy="0">$250,000</tspan></text><text transform="translate(150.71544,272.97048) scale(0.63595,0.63595)" font-size="40" xml:space="preserve" fill="#ffffff" fill-rule="nonzero" stroke="#ffffff" stroke-width="1" stroke-linecap="butt" stroke-linejoin="miter" stroke-miterlimit="10" stroke-dasharray="" stroke-dashoffset="0" font-family="Sans Serif" font-weight="normal" text-anchor="start" style="mix-blend-mode: normal"><tspan x="0" dy="0">Porsche Turbo</tspan></text><text transform="translate(173.69484,292.55159) scale(0.34165,0.34165)" font-size="40" xml:space="preserve" fill-opacity="0.74902" fill="#ffffff" fill-rule="nonzero" stroke="none" stroke-width="1" stroke-linecap="butt" stroke-linejoin="miter" stroke-miterlimit="10" stroke-dasharray="" stroke-dashoffset="0" font-family="Sans Serif" font-weight="normal" text-anchor="start" style="mix-blend-mode: normal"><tspan x="0" dy="0">One of the G.O.A.T s</tspan></text></g></g></svg>