<svg version="1.1" xmlns="http://www.w3.org/2000/svg" xmlns:xlink="http://www.w3.org/1999/xlink" width="126.62671" height="53.48105" viewBox="0,0,126.62671,53.48105"><defs><radialGradient cx="205.75468" cy="187.62412" r="22.99141" gradientUnits="userSpaceOnUse" id="color-1"><stop offset="0" stop-color="#3f3f3f"/><stop offset="1" stop-color="#3f3f3f" stop-opacity="0"/></radialGradient><radialGradient cx="240.9275" cy="187.62412" r="22.99141" gradientUnits="userSpaceOnUse" id="color-2"><stop offset="0" stop-color="#3f3f3f"/><stop offset="1" stop-color="#3f3f3f" stop-opacity="0"/></radialGradient><radialGradient cx="274.97092" cy="187.62412" r="22.99141" gradientUnits="userSpaceOnUse" id="color-3"><stop offset="0" stop-color="#3f3f3f"/><stop offset="1" stop-color="#3f3f3f" stop-opacity="0"/></radialGradient></defs><g transform="translate(-176.68664,-157.13447)"><g data-paper-data="{&quot;isPaintingLayer&quot;:true}" fill-rule="nonzero" stroke-linecap="butt" stroke-linejoin="miter" stroke-miterlimit="10" stroke-dasharray="" stroke-dashoffset="0" style="mix-blend-mode: normal"><g stroke="none" stroke-width="0"><path d="M182.76328,187.62412c0,-12.6978 10.29361,-22.99141 22.99141,-22.99141c12.6978,0 22.99141,10.29361 22.99141,22.99141c0,12.6978 -10.29361,22.99141 -22.99141,22.99141c-12.6978,0 -22.99141,-10.29361 -22.99141,-22.99141z" fill="url(#color-1)"/><path d="M217.93609,187.62412c0,-12.6978 10.29361,-22.99141 22.99141,-22.99141c12.6978,0 22.99141,10.29361 22.99141,22.99141c0,12.6978 -10.29361,22.99141 -22.99141,22.99141c-12.6978,0 -22.99141,-10.29361 -22.99141,-22.99141z" fill="url(#color-2)"/><path d="M251.97951,187.62412c0,-12.6978 10.29361,-22.99141 22.99141,-22.99141c12.69781,0 22.99141,10.29361 22.99141,22.99141c0,12.6978 -10.2936,22.99141 -22.99141,22.99141c-12.6978,0 -22.99141,-10.29361 -22.99141,-22.99141z" fill="url(#color-3)"/></g><path d="M177.93665,194.84924c0,-9.02348 0,-26.48987 0,-31.36363c0,-2.47855 2.5377,-5.10113 5.60881,-5.10113c12.27888,0 92.85776,0 113.63637,0c3.11104,0 4.88153,1.7742 4.88153,4.55568c0,8.63984 0,26.9984 0,32.09091c0,2.56056 -2.15258,5.30174 -5.88153,5.30174c-22.26243,0 -100.71087,0 -112.72728,0c-3.02594,0 -5.5179,-2.17386 -5.5179,-5.48356z" fill="#ffffff" stroke="#ffffff" stroke-width="2.5"/><text transform="translate(193.27563,188.58339) scale(0.76873,0.76873)" font-size="40" xml:space="preserve" fill="#000000" fill-rule="nonzero" stroke="none" stroke-width="1" stroke-linecap="butt" stroke-linejoin="miter" stroke-miterlimit="10" stroke-dasharray="" stroke-dashoffset="0" font-family="&quot;ヒラギノ角ゴ Pro W3&quot;, &quot;Hiragino Kaku Gothic Pro&quot;, Osaka, &quot;メイリオ&quot;, Meiryo, &quot;ＭＳ Ｐゴシック&quot;, &quot;MS PGothic&quot;" font-weight="normal" text-anchor="start" style="mix-blend-mode: normal"><tspan x="0" dy="0">START</tspan></text></g></g></svg>