<svg version="1.1" xmlns="http://www.w3.org/2000/svg" xmlns:xlink="http://www.w3.org/1999/xlink" width="247.45215" height="79.80187" viewBox="0,0,247.45215,79.80187"><defs><linearGradient x1="192.99082" y1="160.56159" x2="192.99304" y2="161.37371" gradientUnits="userSpaceOnUse" id="color-1"><stop offset="0" stop-color="#9e9e9e"/><stop offset="1" stop-color="#b7b7b7"/></linearGradient><linearGradient x1="201.51874" y1="161.67641" x2="201.52706" y2="164.72603" gradientUnits="userSpaceOnUse" id="color-2"><stop offset="0" stop-color="#898989"/><stop offset="1" stop-color="#d8d8d8"/></linearGradient><linearGradient x1="184.63406" y1="161.72779" x2="184.64237" y2="164.7774" gradientUnits="userSpaceOnUse" id="color-3"><stop offset="0" stop-color="#898989"/><stop offset="1" stop-color="#d8d8d8"/></linearGradient><linearGradient x1="193.20254" y1="207.93675" x2="193.20355" y2="208.30815" gradientUnits="userSpaceOnUse" id="color-4"><stop offset="0" stop-color="#888888"/><stop offset="1" stop-color="#dedede"/></linearGradient><linearGradient x1="205.01026" y1="178.92515" x2="205.01549" y2="180.84447" gradientUnits="userSpaceOnUse" id="color-5"><stop offset="0" stop-color="#ababab"/><stop offset="1" stop-color="#d4d4d4"/></linearGradient><linearGradient x1="181.23671" y1="178.99532" x2="181.24194" y2="180.91465" gradientUnits="userSpaceOnUse" id="color-6"><stop offset="0" stop-color="#ababab"/><stop offset="1" stop-color="#d4d4d4"/></linearGradient></defs><g transform="translate(-115.29785,-141.94814)"><g data-paper-data="{&quot;isPaintingLayer&quot;:true}" fill-rule="nonzero" stroke-linejoin="miter" stroke-miterlimit="10" stroke-dasharray="" stroke-dashoffset="0" style="mix-blend-mode: normal"><path d="M119.75,219.25v-69.5h240.5v69.5z" fill="#404040" stroke="#f6d553" stroke-width="5" stroke-linecap="butt"/><text transform="translate(225.29336,181.92136) scale(0.62911,0.62911)" font-size="40" xml:space="preserve" fill="#ffffff" fill-rule="nonzero" stroke="none" stroke-width="1" stroke-linecap="butt" stroke-linejoin="miter" stroke-miterlimit="10" stroke-dasharray="" stroke-dashoffset="0" font-family="Marker" font-weight="normal" text-anchor="start" style="mix-blend-mode: normal"><tspan x="0" dy="0">Obsession</tspan></text><text transform="translate(218.6784,202.65579) scale(0.34018,0.34018)" font-size="40" xml:space="preserve" fill="#ffffff" fill-rule="nonzero" stroke="none" stroke-width="1" stroke-linecap="butt" stroke-linejoin="miter" stroke-miterlimit="10" stroke-dasharray="" stroke-dashoffset="0" font-family="Sans Serif" font-weight="normal" text-anchor="start" style="mix-blend-mode: normal"><tspan x="0" dy="0">Play for 15 minutes.</tspan></text><text transform="translate(116,203.03562) scale(1.40431,1.40431)" font-size="40" xml:space="preserve" fill="#404040" fill-rule="nonzero" stroke="none" stroke-width="1" stroke-linecap="butt" stroke-linejoin="miter" stroke-miterlimit="10" stroke-dasharray="" stroke-dashoffset="0" font-family="Sans Serif" font-weight="normal" text-anchor="start" style="mix-blend-mode: normal"><tspan x="0" dy="0">⏱️</tspan></text><g><text transform="translate(193.38831,167.12048) rotate(89.84487) scale(0.07191,0.07191)" font-size="40" xml:space="preserve" fill="#000000" fill-rule="nonzero" stroke="none" stroke-width="1" stroke-linecap="butt" stroke-linejoin="miter" stroke-miterlimit="10" stroke-dasharray="" stroke-dashoffset="0" font-family="Pixel" font-weight="normal" text-anchor="start" style="mix-blend-mode: normal"><tspan x="0" dy="0">made by @itsadiesel</tspan></text><path d="M193.20615,159.59852l1.34841,0.04126l1.46865,0.19076l1.58871,0.26532l1.34902,0.26598l1.5742,0.44513l1.27442,0.38604l0.63001,0.2979l0.33023,0.23881l0.43546,0.37333l0.3909,0.50829l0.27059,0.34382l0.33116,0.58335l0.16614,0.4939l0.09177,0.68888l0.09251,0.95852l0.12491,1.8573l0.00993,3.64033l-0.01221,1.01874l-0.04256,0.86901l-0.11702,1.03401l-0.0729,0.73427l-0.05755,0.86906c0,0 0.18088,5.67867 0.1626,8.88395c-0.03649,6.40215 -0.23948,12.35924 -0.23948,12.35924l0.22626,0.56866l0.1065,0.59895l0.0774,0.91362l0.06454,1.69267l0.00596,2.1872l-0.04102,1.43829l-0.10025,1.69312l-0.11813,0.62952l-0.22353,0.43506l-0.31387,0.27051l-0.86771,0.43682l-0.73316,0.33158l-1.0927,0.33256l-1.39224,0.36334l-1.06316,0.18268l-2.15659,0.24558l-2.78724,0.09207l-1.19613,0.01399l-0.00258,0.00001l-2.96646,-0.0818l-2.15789,-0.23381l-1.06413,-0.17687l-1.3942,-0.35574l-1.0945,-0.32659l-0.73496,-0.32758l-0.87007,-0.43207l-0.31533,-0.2688l-0.22589,-0.43384l-0.12157,-0.62887l-0.10949,-1.69255l-0.04886,-1.43804l-0.00596,-2.1872l0.05531,-1.69301l0.07241,-0.91404l0.10323,-0.59952l0.22315,-0.56989c0,0 -0.23549,-5.95591 -0.3069,-12.35775c-0.03576,-3.20513 0.11413,-8.88471 0.11413,-8.88471l-0.06229,-0.86873l-0.0769,-0.73385l-0.12267,-1.03335l-0.04731,-0.86877l-0.01775,-1.01866l-0.00993,-3.64033l0.11478,-1.85795l0.08727,-0.95901l0.08801,-0.68937l0.16344,-0.4948l0.32798,-0.58515l0.26871,-0.34529l0.38812,-0.51041l0.43342,-0.37571l0.32893,-0.24059l0.62837,-0.30134l1.2723,-0.39298l1.57175,-0.45372l1.34754,-0.27334l1.58724,-0.27399l1.46759,-0.19876l1.34815,-0.04862z" fill="#b43535" stroke="#000000" stroke-width="1.5" stroke-linecap="round"/><path d="M199.76769,161.15501l0.87912,0.0855l0.83937,0.15752l0.4318,0.12666l0.64815,0.35777l0.54444,0.414l0.33583,0.09497l0.62562,0.88517l0.33854,1.08569l-0.14935,0.90327l0.03239,6.01626l-0.2462,0.54399l-0.39017,0.48844l-0.34271,0.31253l-0.55058,0.26517l-0.695,0.04184l-0.51975,-0.1504l-0.74407,-0.37349l-0.61667,-0.53364l-0.18428,-0.19125l-0.53856,-4.12129l-0.12253,-0.98241l-0.16823,-3.09161l0.00616,-0.67117l0.04577,-0.79112l0.17424,-0.55977l0.11142,-0.1601z" fill="#bb3636" stroke="#c63939" stroke-width="0.05" stroke-linecap="round"/><path d="M186.63835,161.34796l0.1123,0.15949l0.1773,0.55881l0.05009,0.79086l0.00982,0.67112l-0.15136,3.09248l-0.11716,0.98307l-0.51608,4.12417l-0.18324,0.19224l-0.61376,0.537l-0.74203,0.37754l-0.51892,0.15323l-0.69522,-0.03804l-0.55203,-0.26216l-0.34441,-0.31066l-0.39283,-0.48631l-0.24917,-0.54264l-0.00043,-6.01634l-0.15427,-0.90243l0.33261,-1.08752l0.62078,-0.88858l0.33531,-0.09679l0.54218,-0.41696l0.64619,-0.3613l0.4311,-0.12902l0.8385,-0.16209l0.87863,-0.09029z" data-paper-data="{&quot;index&quot;:null}" fill="#bb3636" stroke="#c63939" stroke-width="0.05" stroke-linecap="round"/><path d="M189.26094,160.89325l2.45252,-0.30279l0.93897,-0.02794l1.74277,0.02062l1.37936,0.14852l3.30898,0.43087l0.13548,0.05039l-0.39725,0.13644l-1.36231,-0.0978l-3.65571,-0.38765l-0.45678,0.01816l-1.69188,0.02999l-1.94517,0.2168l-1.56442,0.23268l-0.77823,0.0275l-0.60101,-0.13371l0.8963,-0.16318z" fill="url(#color-1)" stroke="#ff0000" stroke-width="0.05" stroke-linecap="round"/><path d="M192.44079,206.95412l-0.98388,0.00268l-0.96202,-0.04407l-1.0556,-0.11852l-1.47598,-0.16408l-0.9344,-0.19357l-1.19622,-0.31426l-0.76651,-0.26874l-0.30886,-0.25131l-0.4774,-0.40961l-0.225,-0.3169l-0.1039,-0.4293l-0.10393,-0.43864l-0.22067,-2.15665l-0.22463,-3.60416l-0.11444,-4.29552l-0.0418,-5.05216l-0.02975,-10.9076l0.00494,-1.61562l0.07292,-0.65391l0.08331,-0.27105l0.11147,-0.21509l0.32599,-0.31842l0.49383,-0.41226l0.73648,-0.46895l0.86737,-0.41328l0.81136,-0.40378l0.7184,-0.25411l1.40912,-0.3774l1.3349,-0.19976l1.26986,-0.07817l1.46557,-0.004l0.37798,-0.00634l1.45554,-0.00397l1.27027,0.07124l1.33596,0.19248l1.41115,0.3697l0.71977,0.25018l0.81356,0.39934l0.86962,0.40854l0.73903,0.46492l0.49608,0.40956l0.32771,0.31664l0.11265,0.21448l0.08479,0.27059l0.07649,0.65351l0.01374,1.61557l0.02975,10.9076l-0.01423,5.05232l-0.09101,4.29609l-0.20495,3.60534l-0.2089,2.15782l-0.10153,0.4392l-0.10155,0.42986l-0.22325,0.31813l-0.47516,0.41221l-0.30749,0.25299l-0.76503,0.27291l-1.19449,0.32078l-0.93332,0.19866l-1.47506,0.17211l-1.05495,0.12428l-0.96176,0.04932l-1.13691,0.0031l-0.91978,0.00251z" fill="#c0c0c0" stroke="#000000" stroke-width="0.5" stroke-linecap="round"/><path d="M187.20639,161.3303l1.35304,-0.19827l1.61526,-0.20745l0.84574,-0.08691l0.86271,-0.07003l0.83743,-0.03613l0.83751,-0.01074l1.47224,0.08904l1.70091,0.18147l2.2088,0.29007" fill="none" stroke="#8c8c8c" stroke-width="0.5" stroke-linecap="round"/><path d="M192.44618,206.7636l-0.79368,0.00217l-0.70984,-0.03542l-0.51371,-0.02661l-1.89634,-0.20962l-0.5605,-0.06384l-0.61668,-0.11972l-1.0466,-0.23996l-0.76638,-0.22204l-0.28049,-0.12064l-0.24329,-0.17678l-0.45854,-0.34428l-0.27163,-0.29809l-0.13131,-0.2051l-0.11342,-0.49465l-0.07621,-0.55078l-0.2015,-1.96994l-0.1366,-2.14755l-0.07794,-1.18582l-0.06225,-2.27849l-0.0613,-1.93296l-0.01968,-3.79149l-0.03227,-11.83214l0.02235,-2.07327l0.04503,-0.60714l0.07394,-0.28036l0.1488,-0.22453l0.16763,-0.16856l0.30736,-0.29967l0.54055,-0.40305l0.8299,-0.45987l0.82074,-0.39447l0.74623,-0.31956l0.62521,-0.17916l0.93316,-0.26403l1.24143,-0.22751l0.72828,-0.05801l1.68094,-0.01392l0.62375,-0.0017l0.36407,-0.00631l0.64896,-0.00176l1.681,0.00476l0.72858,0.05404l1.24265,0.22074l0.93458,0.25893l0.62617,0.17573l0.74797,0.31548l0.82289,0.38998l0.83239,0.45533l0.54275,0.40008l0.30898,0.298l0.16856,0.16763l0.15003,0.22372l0.07546,0.27995l0.04834,0.60689l0.03367,2.07311l0.03227,11.83214l0.001,3.79154l-0.05076,1.93327l-0.04981,2.27879l-0.07147,1.18622l-0.12488,2.14826l-0.19074,1.971l-0.0732,0.55119l-0.11071,0.49525l-0.13018,0.20581l-0.27,0.29958l-0.45665,0.34678l-0.24232,0.17811l-0.27982,0.12217l-0.76515,0.22622l-1.04527,0.24566l-0.61601,0.12308l-0.56014,0.0669l-1.89516,0.21996l-0.51354,0.02941l-0.70965,0.03929l-0.88434,0.00242l-0.99223,0.00732z" data-paper-data="{&quot;index&quot;:null}" fill="#666666" stroke="#000000" stroke-width="0.5" stroke-linecap="round"/><path d="M200.43173,200.90206l0.1323,-0.05713l1.30121,1.82255l0.63844,0.09334l-0.13759,1.24032l-0.09959,0.60771l-0.36381,0.5176l-0.68127,0.50711l-0.35046,0.14792l-0.11448,-0.28195l-1.14298,-2.7786l-0.05721,-0.16069l0.33041,-0.27528l0.21692,-0.25605l0.09407,-0.19895l0.19727,-0.52093z" fill="#363636" stroke="none" stroke-width="0" stroke-linecap="round"/><path d="M185.97403,201.35366l0.20011,0.51984l0.09515,0.19844l0.21831,0.25485l0.33191,0.27349l-0.05633,0.161l-1.12779,2.7848l-0.10329,0.26903l-0.32379,-0.09343l-0.64119,-0.49504l-0.411,-0.49857l-0.11872,-0.59442l-0.16887,-1.30769l0.64265,-0.10583l1.29125,-1.82962l0.13261,0.05641z" data-paper-data="{&quot;index&quot;:null}" fill="#363636" stroke="none" stroke-width="0" stroke-linecap="round"/><path d="M200.96489,181.30552l-0.33956,0.38885l-0.59575,0.12462l0.27985,-1.46733l2.11568,-5.19269l0.20674,0.19424l0.1004,0.16469l0.09392,0.36511l0.01737,1.51333z" fill="#363636" stroke="none" stroke-width="0" stroke-linecap="round"/><path d="M202.97027,191.52809l0.00465,1.70308l-2.11031,-0.13616l0.01601,-1.06921l-0.00996,-0.17975l0.21774,0.04672z" fill="#363636" stroke="none" stroke-width="0" stroke-linecap="round"/><path d="M204.51091,205.95989l-0.20822,-0.28983l-0.09759,-0.29014l-0.09997,-1.16132l-0.0149,-5.46224l0.06624,-1.06498l0.10859,-0.74703l0.24057,0.4652l0.11478,0.45384l0.14317,1.61439l0.01053,3.86032l-0.11995,2.27111z" fill="#363636" stroke="#000000" stroke-width="0.5" stroke-linecap="round"/><path d="M204.39824,174.79061l-0.04457,-1.13382l-0.07386,-1.72836l-0.01922,-1.97743l-0.00804,-2.94546l0.00889,-1.81157l0.1087,-0.70555l0.097,0.31007l0.23459,2.74955l0.01194,4.37755l-0.09673,1.53936z" fill="#363636" stroke="#000000" stroke-width="0.5" stroke-linecap="round"/><path d="M203.55932,179.09758c-0.17112,-0.30111 -0.12508,-0.59424 0.10283,-0.65474c0.22792,-0.06049 0.5514,0.13457 0.72251,0.43569c0.17112,0.30111 0.12508,0.59424 -0.10283,0.65474c-0.22792,0.06049 -0.5514,-0.13457 -0.72251,-0.43569z" fill="#363636" stroke="#000000" stroke-width="0.75" stroke-linecap="butt"/><path d="M202.94806,164.27931c-0.46604,0.59466 -1.4819,0.59406 -2.26899,-0.00134c-0.78708,-0.59541 -1.04736,-1.56016 -0.58132,-2.15482c0.46604,-0.59466 1.4819,-0.59406 2.26899,0.00134c0.78708,0.59541 1.04736,1.56016 0.58132,2.15482z" fill="url(#color-2)" stroke="#000000" stroke-width="0.75" stroke-linecap="butt"/><path d="M202.38504,162.32654c0.67081,0.58546 0.83029,1.44899 0.35621,1.92877c-0.47406,0.47976 -1.40216,0.39407 -2.07296,-0.19138c-0.67081,-0.58546 -0.83029,-1.44899 -0.35621,-1.92877c0.47406,-0.47976 1.40216,-0.39407 2.07296,0.19138z" fill="#dbdbdb" stroke="#000000" stroke-width="0.25" stroke-linecap="butt"/><path d="M204.63368,170.28403c0,0 -0.34508,1.79446 -1.45711,2.4126c-1.52275,0.84642 -3.13097,-0.96191 -3.13097,-0.96191l-0.18962,-0.13825l-0.50521,-0.21308l-1.06066,-0.35035l-1.28743,-0.23618l-1.31227,-0.09734l-1.27434,-0.0596l-0.94851,0.00259l-0.96739,0.00795l-0.71462,0.00195l-1.27399,0.06656l-1.31173,0.1045l-1.28612,0.24321l-1.05873,0.35613l-0.50404,0.21584l-0.18885,0.13928c0,0 -1.59833,1.81707 -3.12568,0.97897c-1.11539,-0.61205 -1.47026,-2.40461 -1.47026,-2.40461" fill="none" stroke="#000000" stroke-width="0.75" stroke-linecap="round"/><path d="M200.9492,191.88482l2.1335,-0.33683c0,0 0.35887,0.54681 0.55822,0.71934c0.2118,0.18332 0.67742,0.3502 0.67742,0.3502" fill="none" stroke="#000000" stroke-width="0.75" stroke-linecap="round"/><path d="M200.96396,193.11749l1.90632,0.06329" fill="none" stroke="#000000" stroke-width="0.75" stroke-linecap="round"/><path d="M202.42846,202.7698l-0.45678,-0.07866l-0.10288,-0.05679l-0.05719,-0.0455l-1.15717,-1.59482l-0.13159,-0.20943" fill="none" stroke="#000000" stroke-width="0.75" stroke-linecap="round"/><path d="M202.42166,175.17063l-2.16558,5.31344" fill="none" stroke="#000000" stroke-width="0.75" stroke-linecap="round"/><path d="M200.84108,181.54398l1.97481,-4.11445c0,0 0.33506,-0.88506 0.58622,-1.2082c0.26385,-0.33949 0.96066,-0.78206 0.96066,-0.78206" fill="none" stroke="#000000" stroke-width="0.75" stroke-linecap="round"/><path d="M195.19137,171.03986c0.03546,-0.0139 0.14795,-0.00783 0.14795,-0.00783c0,0 0.88013,0.05479 1.12862,0.08067c0.2485,0.02588 0.63086,0.1026 0.63086,0.1026l0.78596,0.18593l1.15156,0.373l0.65337,0.2416l0.28803,0.14303l0.06653,0.05513l0.06661,0.08832l0.04461,0.13264l0.00057,0.21018c0,0 -0.01614,0.1443 -0.0548,0.18802c-0.03866,0.04373 -0.12165,0.01159 -0.12165,0.01159l-0.54243,-0.13129l-0.93003,-0.27404l-0.71959,-0.18612l-1.02937,-0.19632l-1.0625,-0.17411l-0.3874,-0.07639c0,0 -0.09912,-0.03477 -0.12821,-0.07719c-0.02908,-0.04241 -0.0384,-0.16574 -0.0384,-0.16574l-0.00124,-0.45358c0,0 0.0211,-0.05842 0.05098,-0.07014z" fill="#363636" stroke="#000000" stroke-width="0.75" stroke-linecap="round"/><path d="M204.68004,205.87535l-0.44458,0.20667l-0.21647,0.14898l-0.30739,0.28619l-0.39809,0.51472l-0.27328,0.24044l-0.33045,0.20636l-0.44451,0.2295l-0.62709,0.25282l-0.98097,0.23096l-0.65041,0.07027" fill="none" stroke="#000000" stroke-width="0.75" stroke-linecap="round"/><path d="M190.96477,203.74941l-0.00068,-0.25111l0.05657,-0.18278l0.07972,-0.06871l0.22825,-0.01204l0.95286,-0.0026l1.54393,-0.00952l1.22534,-0.00335l0.22831,0.01079l0.08009,0.06828l0.05756,0.18246l0.00068,0.25111" fill="none" stroke="#000000" stroke-width="0.75" stroke-linecap="round"/><path d="M202.34128,205.97484c0,0 0.0789,-0.02418 0.11572,-0.00032c0.03682,0.02387 0.07472,0.12378 0.07472,0.12378l0.19995,0.57802l0.0418,0.17347l0.00034,0.12398l-0.04935,0.09105l-0.18966,0.16581l-0.3714,0.19939l-0.54492,0.21638l-0.19826,0.04187l-0.06615,-0.00808l-0.10772,-0.09888l-0.00025,-0.09092l0.4025,-0.91855l0.11532,-0.14908l0.12366,-0.11607z" fill="none" stroke="#000000" stroke-width="0.75" stroke-linecap="round"/><path d="M186.84309,161.2303l1.26224,-0.19638l2.29679,-0.28689l1.63061,-0.17983l0.96457,-0.02016l0.1519,-0.00573l0.96466,0.0149l1.63157,0.17092l2.29832,0.27435l1.2633,0.18948" fill="none" stroke="#000000" stroke-width="0.75" stroke-linecap="round"/><path d="M189.44987,203.66827l0.74931,0.09783l1.57828,0.10556l1.26832,-0.02343l2.00735,-0.03544l1.01856,-0.05271l1.11813,-0.16285l0.89977,-0.24493l0.55938,0.02843l0.13993,0.03957l0.10012,0.08962l0.05012,0.06978l0.76361,1.67578l0.03051,0.19966l-0.01948,0.17983l-0.07949,0.15002l-0.10962,0.09019l-0.32922,0.13074l-0.77851,0.18189l-1.24797,0.16321l-1.10828,0.11289l-0.78888,0.0421l-1.29048,0.02314l-1.60771,0.00905l-1.24814,-0.01558l-0.78909,-0.03779l-1.10888,-0.10684l-1.24884,-0.15639l-0.77949,-0.17764l-0.32993,-0.12893l-0.11011,-0.08959l-0.08031,-0.14958l-0.02046,-0.17972l0.02941,-0.19983l0.75446,-1.67993l0.04974,-0.07004l0.09963,-0.09016l0.1397,-0.04033l0.5592,-0.03148z" fill="#7c7c7c" stroke="#666666" stroke-width="0.25" stroke-linecap="round"/><path d="M202.32541,206.03519c0,0 0.07491,-0.02296 0.10986,-0.00031c0.03495,0.02266 0.07095,0.11752 0.07095,0.11752l0.18983,0.54881l0.03969,0.1647l0.00032,0.11772l-0.04685,0.08644l-0.18006,0.15744l-0.35262,0.18929l-0.51737,0.20545l-0.18823,0.03976l-0.06279,-0.00767l-0.10227,-0.09389l-0.00023,-0.08631l0.38215,-0.8721l0.10949,-0.14156l0.11742,-0.11019z" fill="#b02c2c" stroke="#b8b8b8" stroke-width="0.25" stroke-linecap="round"/><path d="M200.02914,171.74558l-0.66773,-5.14073l-0.12579,-2.1787l-0.05726,-1.02401l0.03013,-0.93708l0.02072,-0.39229l0.07542,-0.30527l0.15149,-0.38175l0.16292,-0.18566" fill="none" stroke="#c63939" stroke-width="0.5" stroke-linecap="round"/><path d="M183.37103,177.31506l0.03464,-1.08455l0.14394,-0.77383l0.26082,-0.26006l2.13481,5.19953l0.28784,1.46577l-0.59642,-0.12138l-0.34167,-0.38699z" data-paper-data="{&quot;index&quot;:null}" fill="#363636" stroke="none" stroke-width="0" stroke-linecap="round"/><path d="M185.22926,191.94135l0.21748,-0.0479l-0.00898,0.17979l0.02184,1.0691l-2.10954,0.14768l-0.00465,-1.70308z" data-paper-data="{&quot;index&quot;:null}" fill="#363636" stroke="none" stroke-width="0" stroke-linecap="round"/><path d="M181.7384,205.67705l-0.13235,-2.27043l-0.01053,-3.86032l0.13437,-1.61514l0.11229,-0.45447l0.23803,-0.46651l0.11266,0.74643l0.07204,1.06461l0.0149,5.46224l-0.09363,1.16185l-0.09602,0.29066l-0.20664,0.29096z" data-paper-data="{&quot;index&quot;:null}" fill="#363636" stroke="#000000" stroke-width="0.5" stroke-linecap="round"/><path d="M181.60024,173.53305l-0.10512,-1.53881l-0.01194,-4.37755l0.21957,-2.75079l0.0953,-0.31061l0.11255,0.70495l0.01876,1.81149l0.00804,2.94546l-0.00843,1.97751l-0.06443,1.72874l-0.03839,1.13404z" data-paper-data="{&quot;index&quot;:null}" fill="#363636" stroke="#000000" stroke-width="0.5" stroke-linecap="round"/><path d="M181.96844,179.59946c-0.22824,-0.05924 -0.27588,-0.35212 -0.1064,-0.65416c0.16948,-0.30204 0.4919,-0.49886 0.72013,-0.43961c0.22824,0.05924 0.27588,0.35212 0.1064,0.65416c-0.16948,0.30204 -0.4919,0.49886 -0.72013,0.43961z" data-paper-data="{&quot;index&quot;:null}" fill="#363636" stroke="#000000" stroke-width="0.75" stroke-linecap="butt"/><path d="M183.78852,162.18048c0.78383,-0.5997 1.79966,-0.60583 2.26894,-0.01374c0.46928,0.59212 0.21429,1.55827 -0.56954,2.15796c-0.78383,0.5997 -1.79966,0.60583 -2.26894,0.01374c-0.46928,-0.59212 -0.21429,-1.55827 0.56954,-2.15796z" data-paper-data="{&quot;index&quot;:null}" fill="url(#color-3)" stroke="#000000" stroke-width="0.75" stroke-linecap="butt"/><path d="M183.77132,162.38263c0.66759,-0.58911 1.59521,-0.67986 2.07189,-0.20269c0.47667,0.47718 0.32191,1.34156 -0.34569,1.93068c-0.66759,0.58911 -1.59521,0.67986 -2.07189,0.20269c-0.47667,-0.47718 -0.32191,-1.34156 0.34569,-1.93068z" data-paper-data="{&quot;index&quot;:null}" fill="#dbdbdb" stroke="#000000" stroke-width="0.25" stroke-linecap="butt"/><path d="M182.00332,192.68372c0,0 0.46473,-0.16941 0.6755,-0.35389c0.19839,-0.17363 0.55429,-0.72238 0.55429,-0.72238l2.1353,0.32518" data-paper-data="{&quot;index&quot;:null}" fill="none" stroke="#000000" stroke-width="0.75" stroke-linecap="round"/><path d="M185.36038,193.16538l-1.90595,0.07369" data-paper-data="{&quot;index&quot;:null}" fill="none" stroke="#000000" stroke-width="0.75" stroke-linecap="round"/><path d="M185.84331,200.82997l-0.13045,0.21015l-1.14845,1.60111l-0.05695,0.04581l-0.10257,0.05735l-0.45634,0.08115" data-paper-data="{&quot;index&quot;:null}" fill="none" stroke="#000000" stroke-width="0.75" stroke-linecap="round"/><path d="M192.79083,208.87311l-1.90353,-0.04425l-1.25557,-0.00799l-0.76486,-0.04357l-1.24446,-0.12216l-0.57095,-0.08975l-0.28557,-0.07913l-0.14863,-0.0909l-0.08003,-0.04544l-0.24029,-0.21621l-0.62963,-0.68313l-0.12621,-0.23935l-0.06937,-0.3194l-0.00203,-0.74191l0.07348,-0.3497l1.31518,-3.24518l0.21616,-0.26311l0.34196,-0.17214l0.59331,-0.08152l1.00443,-0.00274l3.47622,-0.00948l1.25873,-0.00874l3.60938,-0.00985l1.00443,-0.00274l0.59375,0.07829l0.34289,0.17028l0.21759,0.26193l1.33286,3.23795l0.07538,0.3493l0.00203,0.74191l-0.06762,0.31977l-0.1249,0.24003l-0.62591,0.68655l-0.2391,0.21752l-0.07978,0.04588l-0.14813,0.09172l-0.28513,0.08069l-0.57045,0.09287l-1.24379,0.12894l-0.76461,0.04774l-1.25551,0.01483l-1.76317,0.05061z" data-paper-data="{&quot;index&quot;:null}" fill="none" stroke="#000000" stroke-width="0.75" stroke-linecap="round"/><path d="M183.80477,175.22672l2.19454,5.30155" data-paper-data="{&quot;index&quot;:null}" fill="none" stroke="#000000" stroke-width="0.75" stroke-linecap="round"/><path d="M181.86515,175.50595c0,0 0.69922,0.43878 0.96491,0.77681c0.2529,0.32176 0.59279,1.20498 0.59279,1.20498l1.99724,4.10361" data-paper-data="{&quot;index&quot;:null}" fill="none" stroke="#000000" stroke-width="0.75" stroke-linecap="round"/><path d="M191.06379,171.12644l0.00124,0.45358c0,0 -0.00864,0.12337 -0.03748,0.16594c-0.02886,0.04256 -0.12778,0.07789 -0.12778,0.07789l-0.38699,0.0785l-1.06154,0.17991l-1.02829,0.20193l-0.71857,0.19004l-0.92851,0.2791l-0.54172,0.13424c0,0 -0.08283,0.03259 -0.12172,-0.01092c-0.03891,-0.04352 -0.05583,-0.18772 -0.05583,-0.18772l-0.00057,-0.21018l0.04389,-0.13288l0.06614,-0.08868l0.06623,-0.05549l0.28725,-0.1446l0.65204,-0.24517l1.14951,-0.37928l0.78494,-0.19021c0,0 0.38193,-0.0788 0.63029,-0.10605c0.24836,-0.02724 1.12816,-0.08682 1.12816,-0.08682c0,0 0.11244,-0.00668 0.14799,0.00703c0.02994,0.01155 0.05137,0.06986 0.05137,0.06986z" data-paper-data="{&quot;index&quot;:null}" fill="#363636" stroke="#000000" stroke-width="0.75" stroke-linecap="round"/><path d="M186.40017,208.30465l-0.65077,-0.06671l-0.98223,-0.22561l-0.62846,-0.2494l-0.44576,-0.22707l-0.33157,-0.20456l-0.27458,-0.23895l-0.40089,-0.51253l-0.30895,-0.28451l-0.21727,-0.14778l-0.4457,-0.20424" data-paper-data="{&quot;index&quot;:null}" fill="none" stroke="#000000" stroke-width="0.75" stroke-linecap="round"/><path d="M184.05324,206.03006l0.45549,0.32938l0.12429,0.11539l0.11613,0.14845l0.4075,0.91635l0.00025,0.09092l-0.10718,0.09947l-0.0661,0.00844l-0.19848,-0.04078l-0.54609,-0.2134l-0.37249,-0.19736l-0.19055,-0.16478l-0.04985,-0.09078l-0.00034,-0.12398l0.04086,-0.17369l0.19679,-0.57911c0,0 0.03737,-0.10012 0.07404,-0.12418c0.03668,-0.02407 0.11572,-0.00032 0.11572,-0.00032z" data-paper-data="{&quot;index&quot;:null}" fill="none" stroke="#000000" stroke-width="0.75" stroke-linecap="round"/><path d="M192.70595,208.3095l-0.24401,0.00067l-0.90216,-0.01061l-1.46438,-0.02215l-0.79759,-0.02398l-0.18307,-0.01257l-0.05252,-0.0783l0.01286,-0.07849l0.28736,-0.10537l0.16988,-0.02661l0.37915,-0.00103l1.65668,0.03852l1.12624,-0.00307l1.11555,-0.00836l1.0272,-0.0028l1.65645,-0.04756l0.37915,-0.00103l0.17003,0.02569l0.28793,0.10379l0.01328,0.07841l-0.05209,0.07859l-0.183,0.01357l-0.79744,0.02833l-1.46423,0.03015l-0.90209,0.01553l-0.16457,0.00045z" data-paper-data="{&quot;index&quot;:null}" fill="url(#color-4)" stroke="#000000" stroke-width="0.5" stroke-linecap="round"/><path d="M184.06943,206.09031l0.43245,0.31272l0.11801,0.10956l0.11025,0.14095l0.3869,0.87l0.00023,0.08631l-0.10176,0.09445l-0.06275,0.00802l-0.18844,-0.03873l-0.51849,-0.20262l-0.35365,-0.18737l-0.18092,-0.15645l-0.04732,-0.08619l-0.00032,-0.11772l0.03879,-0.1649l0.18683,-0.54984c0,0 0.03547,-0.09506 0.07031,-0.11792c0.03482,-0.02285 0.10986,-0.00031 0.10986,-0.00031z" data-paper-data="{&quot;index&quot;:null}" fill="#b02c2c" stroke="#b8b8b8" stroke-width="0.25" stroke-linecap="round"/><path d="M192.44618,206.7636l-0.79368,0.00217l-0.70984,-0.03542l-0.51371,-0.02661l-1.89634,-0.20962l-0.5605,-0.06384l-0.61668,-0.11972l-1.0466,-0.23996l-0.76638,-0.22204l-0.28049,-0.12064l-0.24329,-0.17678l-0.45854,-0.34428l-0.27163,-0.29809l-0.13131,-0.2051l-0.11342,-0.49465l-0.07621,-0.55078l-0.2015,-1.96994l-0.1366,-2.14755l-0.07794,-1.18582l-0.06225,-2.27849l-0.0613,-1.93296l-0.01968,-3.79149l-0.03227,-11.83214l0.02235,-2.07327l0.04503,-0.60714l0.07394,-0.28036l0.1488,-0.22453l0.16763,-0.16856l0.30736,-0.29967l0.54055,-0.40305l0.8299,-0.45987l0.82074,-0.39447l0.74623,-0.31956l0.62521,-0.17916l0.93316,-0.26403l1.24143,-0.22751l0.72828,-0.05801l1.68094,-0.01392l0.62375,-0.0017l0.36407,-0.00631l0.64896,-0.00176l1.681,0.00476l0.72858,0.05404l1.24265,0.22074l0.93458,0.25893l0.62617,0.17573l0.74797,0.31548l0.82289,0.38998l0.83239,0.45533l0.54275,0.40008l0.30898,0.298l0.16856,0.16763l0.15003,0.22372l0.07546,0.27995l0.04834,0.60689l0.03367,2.07311l0.03227,11.83214l0.001,3.79154l-0.05076,1.93327l-0.04981,2.27879l-0.07147,1.18622l-0.12488,2.14826l-0.19074,1.971l-0.0732,0.55119l-0.11071,0.49525l-0.13018,0.20581l-0.27,0.29958l-0.45665,0.34678l-0.24232,0.17811l-0.27982,0.12217l-0.76515,0.22622l-1.04527,0.24566l-0.61601,0.12308l-0.56014,0.0669l-1.89516,0.21996l-0.51354,0.02941l-0.70965,0.03929l-0.88434,0.00242l-0.99223,0.00732z" data-paper-data="{&quot;index&quot;:null}" fill="none" stroke="#000000" stroke-width="0.5" stroke-linecap="round"/><path d="M193.24898,178.73401l0.14247,-0.00039l1.15297,0.05393l1.16466,0.15662l1.2333,0.21351l1.27943,0.38459l1.11978,0.44208l0.73162,0.40892l0.28594,0.21609l0.25198,0.31891l0.13789,0.34204l0.05782,0.27377l0.06262,2.03153l0.0256,9.38228l-0.03983,2.13452l-0.06086,2.79662l-0.15463,1.89516l-0.20179,1.34741l-0.13563,0.49117l-0.15877,0.3771l-0.33007,0.34332l-0.35296,0.32055l-0.53561,0.30964l-0.60413,0.29841l-0.77555,0.21899l-0.8441,0.19634l-1.07266,0.09424l-1.36949,0.07223l-0.25748,0.00071l-1.71645,0.00999l-0.1612,0.00044l-1.36987,-0.06476l-1.07316,-0.08838l-0.84516,-0.19173l-0.77673,-0.21475l-0.60575,-0.29511l-0.53729,-0.30671l-0.35471,-0.31862l-0.33194,-0.34152l-0.16082,-0.37623l-0.1383,-0.49043l-0.20913,-1.34629l-0.16497,-1.89429l-0.07612,-2.79624l-0.05148,-2.13428l-0.0256,-9.38228l0.05153,-2.03185l0.05633,-0.27409l0.13604,-0.34279l0.25024,-0.32026l0.28476,-0.21764l0.72937,-0.4129l1.11735,-0.44819l1.2773,-0.39156l1.23213,-0.22023l1.16378,-0.16298l1.15266,-0.06022l0.02701,-0.00008z" fill="#d9d9d9" stroke="#000000" stroke-width="0.75" stroke-linecap="round"/><path d="M193.20615,159.59852l1.34841,0.04126l1.46865,0.19076l1.58871,0.26532l1.34902,0.26598l1.5742,0.44513l1.27442,0.38604l0.63001,0.2979l0.33023,0.23881l0.43546,0.37333l0.3909,0.50829l0.27059,0.34382l0.33116,0.58335l0.16614,0.4939l0.09177,0.68888l0.09251,0.95852l0.12491,1.8573l0.00993,3.64033l-0.01221,1.01874l-0.04256,0.86901l-0.11702,1.03401l-0.0729,0.73427l-0.05755,0.86906c0,0 0.18088,5.67867 0.1626,8.88395c-0.03649,6.40215 -0.23948,12.35924 -0.23948,12.35924l0.22626,0.56866l0.1065,0.59895l0.0774,0.91362l0.06454,1.69267l0.00596,2.1872l-0.04102,1.43829l-0.10025,1.69312l-0.11813,0.62952l-0.22353,0.43506l-0.31387,0.27051l-0.86771,0.43682l-0.73316,0.33158l-1.0927,0.33256l-1.39224,0.36334l-1.06316,0.18268l-2.15659,0.24558l-2.78724,0.09207l-1.19613,0.01399l-0.00258,0.00001l-2.96646,-0.0818l-2.15789,-0.23381l-1.06413,-0.17687l-1.3942,-0.35574l-1.0945,-0.32659l-0.73496,-0.32758l-0.87007,-0.43207l-0.31533,-0.2688l-0.22589,-0.43384l-0.12157,-0.62887l-0.10949,-1.69255l-0.04886,-1.43804l-0.00596,-2.1872l0.05531,-1.69301l0.07241,-0.91404l0.10323,-0.59952l0.22315,-0.56989c0,0 -0.23549,-5.95591 -0.3069,-12.35775c-0.03576,-3.20513 0.11413,-8.88471 0.11413,-8.88471l-0.06229,-0.86873l-0.0769,-0.73385l-0.12267,-1.03335l-0.04731,-0.86877l-0.01775,-1.01866l-0.00993,-3.64033l0.11478,-1.85795l0.08727,-0.95901l0.08801,-0.68937l0.16344,-0.4948l0.32798,-0.58515l0.26871,-0.34529l0.38812,-0.51041l0.43342,-0.37571l0.32893,-0.24059l0.62837,-0.30134l1.2723,-0.39298l1.57175,-0.45372l1.34754,-0.27334l1.58724,-0.27399l1.46759,-0.19876l1.34815,-0.04862z" fill="none" stroke="#000000" stroke-width="1.5" stroke-linecap="round"/><path d="M204.21461,179.0333c0.33558,-0.18356 0.88099,-0.13278 1.38092,0.16209c0.61549,0.36303 0.94052,0.96537 0.76054,1.3813l-0.05937,0.1263l-0.03838,0.05065l-0.06387,0.06324l-0.08272,0.01866l-0.05723,0.00608c0,0 -0.82965,-0.25358 -1.22163,-0.38721c-0.39198,-0.13364 -1.13146,-0.60965 -1.13146,-0.60965c0,0 -0.06475,-0.07392 -0.07717,-0.1273c-0.01243,-0.05338 0.01495,-0.13996 0.01495,-0.13996l0.06406,-0.10137l0.08956,-0.11396l0.19789,-0.17063z" data-paper-data="{&quot;index&quot;:null}" fill="url(#color-5)" stroke="#000000" stroke-width="0.75" stroke-linecap="butt"/><path d="M182.25776,179.25616l0.19882,0.16955l0.09018,0.11347l0.06462,0.10103c0,0 0.02785,0.08644 0.01572,0.13987c-0.01214,0.05344 -0.07648,0.12772 -0.07648,0.12772c0,0 -0.73687,0.48005 -1.12812,0.61581c-0.39124,0.13577 -1.2195,0.39388 -1.2195,0.39388l-0.05727,-0.00576l-0.08282,-0.01821l-0.06421,-0.06289l-0.03866,-0.05044l-0.06005,-0.12598c-0.18225,-0.41496 0.13951,-1.01905 0.75299,-1.38543c0.49831,-0.29759 1.04341,-0.35136 1.38001,-0.16963z" data-paper-data="{&quot;index&quot;:null}" fill="url(#color-6)" stroke="#000000" stroke-width="0.75" stroke-linecap="butt"/><path d="M186.53114,161.24111l0.16392,0.18476l0.15357,0.38092l0.07709,0.30485l0.02286,0.39217l0.03524,0.9369l-0.05167,1.0243l-0.1139,2.17935l-0.63969,5.1443" data-paper-data="{&quot;index&quot;:null}" fill="none" stroke="#c63939" stroke-width="0.5" stroke-linecap="round"/><path d="M182.51716,162.79398c0,0 0.90319,-0.89718 1.88069,-1.29244c0.72232,-0.29208 2.27974,-0.27694 2.27974,-0.27694l0.22483,0.04433c0,0 0.14683,0.06176 0.21259,0.07971c0.07729,0.0211 0.22217,0.03896 0.22217,0.03896c0,0 0.37147,0.00391 0.93892,-0.05776c0.56744,-0.06167 1.45023,-0.20188 1.45023,-0.20188l1.94776,-0.19928l0.65216,-0.03983l1.1235,-0.03009l1.02468,0.05697l1.94882,0.18864c0,0 0.88353,0.13538 1.45132,0.19396c0.56776,0.05857 0.93922,0.05263 0.93922,0.05263c0,0 0.14478,-0.01865 0.22195,-0.04016c0.06567,-0.01831 0.21216,-0.08087 0.21216,-0.08087l0.22459,-0.04555c0,0 1.55731,-0.02366 2.28121,0.26449c0.97963,0.38993 1.88771,1.28215 1.88771,1.28215" data-paper-data="{&quot;index&quot;:null}" fill="none" stroke="#000000" stroke-width="0.75" stroke-linecap="round"/></g></g></g></svg>