<svg version="1.1" xmlns="http://www.w3.org/2000/svg" xmlns:xlink="http://www.w3.org/1999/xlink" width="183.78988" height="83.33988" viewBox="0,0,183.78988,83.33988"><defs><radialGradient cx="207.225" cy="164" r="25.66994" gradientUnits="userSpaceOnUse" id="color-1"><stop offset="0" stop-color="#000000" stop-opacity="0.25098"/><stop offset="1" stop-color="#000000" stop-opacity="0"/></radialGradient><radialGradient cx="239.825" cy="164" r="25.66994" gradientUnits="userSpaceOnUse" id="color-2"><stop offset="0" stop-color="#000000" stop-opacity="0.25098"/><stop offset="1" stop-color="#000000" stop-opacity="0"/></radialGradient><radialGradient cx="174.225" cy="164" r="25.66994" gradientUnits="userSpaceOnUse" id="color-3"><stop offset="0" stop-color="#000000" stop-opacity="0.25098"/><stop offset="1" stop-color="#000000" stop-opacity="0"/></radialGradient><radialGradient cx="272.825" cy="164" r="25.66994" gradientUnits="userSpaceOnUse" id="color-4"><stop offset="0" stop-color="#000000" stop-opacity="0.25098"/><stop offset="1" stop-color="#000000" stop-opacity="0"/></radialGradient><radialGradient cx="306.225" cy="164" r="25.66994" gradientUnits="userSpaceOnUse" id="color-5"><stop offset="0" stop-color="#000000" stop-opacity="0.25098"/><stop offset="1" stop-color="#000000" stop-opacity="0"/></radialGradient><radialGradient cx="173.775" cy="196" r="25.66994" gradientUnits="userSpaceOnUse" id="color-6"><stop offset="0" stop-color="#000000" stop-opacity="0.25098"/><stop offset="1" stop-color="#000000" stop-opacity="0"/></radialGradient><radialGradient cx="206.375" cy="196" r="25.66994" gradientUnits="userSpaceOnUse" id="color-7"><stop offset="0" stop-color="#000000" stop-opacity="0.25098"/><stop offset="1" stop-color="#000000" stop-opacity="0"/></radialGradient><radialGradient cx="239.375" cy="196" r="25.66994" gradientUnits="userSpaceOnUse" id="color-8"><stop offset="0" stop-color="#000000" stop-opacity="0.25098"/><stop offset="1" stop-color="#000000" stop-opacity="0"/></radialGradient><radialGradient cx="272.875" cy="196" r="25.66994" gradientUnits="userSpaceOnUse" id="color-9"><stop offset="0" stop-color="#000000" stop-opacity="0.25098"/><stop offset="1" stop-color="#000000" stop-opacity="0"/></radialGradient><radialGradient cx="305.875" cy="196" r="25.66994" gradientUnits="userSpaceOnUse" id="color-10"><stop offset="0" stop-color="#000000" stop-opacity="0.25098"/><stop offset="1" stop-color="#000000" stop-opacity="0"/></radialGradient></defs><g transform="translate(-148.10506,-138.33006)"><g data-paper-data="{&quot;isPaintingLayer&quot;:true}" fill-rule="nonzero" stroke-linecap="butt" stroke-linejoin="miter" stroke-miterlimit="10" stroke-dasharray="" stroke-dashoffset="0" style="mix-blend-mode: normal"><g stroke="none" stroke-width="none"><path d="M181.55506,164c0,-14.17712 11.49283,-25.66994 25.66994,-25.66994c14.17711,0 25.66994,11.49282 25.66994,25.66994c0,14.17712 -11.49283,25.66994 -25.66994,25.66994c-14.17711,0 -25.66994,-11.49282 -25.66994,-25.66994z" fill="url(#color-1)"/><path d="M214.15506,164c0,-14.17712 11.49282,-25.66994 25.66994,-25.66994c14.17712,0 25.66994,11.49282 25.66994,25.66994c0,14.17712 -11.49282,25.66994 -25.66994,25.66994c-14.17712,0 -25.66994,-11.49282 -25.66994,-25.66994z" fill="url(#color-2)"/><path d="M148.55506,164c0,-14.17712 11.49283,-25.66994 25.66994,-25.66994c14.17711,0 25.66994,11.49282 25.66994,25.66994c0,14.17712 -11.49283,25.66994 -25.66994,25.66994c-14.17711,0 -25.66994,-11.49282 -25.66994,-25.66994z" fill="url(#color-3)"/><path d="M247.15506,164c0,-14.17712 11.49282,-25.66994 25.66994,-25.66994c14.17712,0 25.66994,11.49282 25.66994,25.66994c0,14.17712 -11.49282,25.66994 -25.66994,25.66994c-14.17712,0 -25.66994,-11.49282 -25.66994,-25.66994z" fill="url(#color-4)"/><path d="M280.55506,164c0,-14.17712 11.49282,-25.66994 25.66994,-25.66994c14.17712,0 25.66994,11.49282 25.66994,25.66994c0,14.17712 -11.49282,25.66994 -25.66994,25.66994c-14.17712,0 -25.66994,-11.49282 -25.66994,-25.66994z" fill="url(#color-5)"/><path d="M148.10506,196c0,-14.17712 11.49283,-25.66994 25.66994,-25.66994c14.17711,0 25.66994,11.49282 25.66994,25.66994c0,14.17712 -11.49283,25.66994 -25.66994,25.66994c-14.17711,0 -25.66994,-11.49282 -25.66994,-25.66994z" fill="url(#color-6)"/><path d="M180.70506,196c0,-14.17712 11.49282,-25.66994 25.66994,-25.66994c14.17712,0 25.66994,11.49282 25.66994,25.66994c0,14.17712 -11.49282,25.66994 -25.66994,25.66994c-14.17712,0 -25.66994,-11.49282 -25.66994,-25.66994z" fill="url(#color-7)"/><path d="M213.70506,196c0,-14.17712 11.49282,-25.66994 25.66994,-25.66994c14.17712,0 25.66994,11.49282 25.66994,25.66994c0,14.17712 -11.49282,25.66994 -25.66994,25.66994c-14.17712,0 -25.66994,-11.49282 -25.66994,-25.66994z" fill="url(#color-8)"/><path d="M247.20506,196c0,-14.17712 11.49282,-25.66994 25.66994,-25.66994c14.17712,0 25.66994,11.49282 25.66994,25.66994c0,14.17712 -11.49282,25.66994 -25.66994,25.66994c-14.17712,0 -25.66994,-11.49282 -25.66994,-25.66994z" fill="url(#color-9)"/><path d="M280.20506,196c0,-14.17712 11.49282,-25.66994 25.66994,-25.66994c14.17712,0 25.66994,11.49282 25.66994,25.66994c0,14.17712 -11.49282,25.66994 -25.66994,25.66994c-14.17712,0 -25.66994,-11.49282 -25.66994,-25.66994z" fill="url(#color-10)"/></g><path d="M198.60095,209.90276c0,0 -3.69187,-2.60709 -3.79774,-3.92405c-0.09135,-1.13641 8.74253,-8.22424 9.3104,-9.71389c0.28682,-0.75241 -3.32468,-3.31082 -3.70285,-3.58496c-0.88471,-0.6413 -3.45097,3.80079 -4.07225,3.17022c-1.52061,-1.54336 -5.33704,-4.23526 -5.19102,-5.37188c0.10182,-0.79255 2.67505,-2.38867 3.55761,-3.54689c0.35061,-0.46013 -0.46392,-0.85115 -0.43747,-1.09522c0.11252,-1.03828 1.44347,-1.95678 2.20054,-2.06281c0.67669,-0.09477 3.5553,-2.83715 4.6053,-3.00316c1.09332,-0.17286 3.7421,3.30055 5.48526,5.06735c0.3126,1.03644 -3.84394,3.39145 -3.50572,4.05786c0.42295,0.83336 3.92896,4.15712 4.20075,4.08697c0.36149,-0.0933 4.94958,-3.64558 5.0559,-4.53107c0.27328,-0.47825 -2.86335,-2.25041 -2.84229,-3.14862c0.02382,-1.01625 4.22969,-5.2974 4.9947,-5.36104c0.85966,-0.07152 2.19073,2.54681 3.46504,2.79559c1.55605,0.30379 0.15351,-0.38366 0.86273,-0.3251c0.95335,0.07871 1.63102,0.73954 2.47785,1.54226c0.63247,0.59953 -0.73337,1.74843 -0.73337,1.74843c0,0 0.96442,1.19462 1.05996,2.98613c0.12483,2.34059 -0.71501,5.46439 -1.87042,5.8851c-1.02935,0.37481 -4.26591,-3.89398 -4.76002,-3.31277c-0.90754,1.06751 -4.56173,3.1928 -4.22972,3.84809c0.30805,0.608 9.47463,9.68265 9.46687,10.06011c-0.01196,0.58143 -2.84073,3.88055 -3.61811,3.48767c-1.49728,-0.7567 -8.09242,-8.23718 -9.18186,-8.35491c-0.38636,-0.04175 -8.80003,8.60057 -8.80003,8.60057z" fill="#000000" stroke="none" stroke-width="0"/><path d="M231.60095,209.90276c0,0 -3.69187,-2.60709 -3.79774,-3.92405c-0.09135,-1.13641 8.74253,-8.22424 9.3104,-9.71389c0.28682,-0.75241 -3.32468,-3.31082 -3.70285,-3.58496c-0.88471,-0.6413 -3.45097,3.80079 -4.07225,3.17022c-1.52061,-1.54336 -5.33704,-4.23526 -5.19102,-5.37188c0.10182,-0.79255 2.67505,-2.38867 3.55761,-3.54689c0.35061,-0.46013 -0.46392,-0.85115 -0.43747,-1.09522c0.11252,-1.03828 1.44347,-1.95678 2.20054,-2.06281c0.67669,-0.09477 3.5553,-2.83715 4.6053,-3.00316c1.09332,-0.17286 3.7421,3.30055 5.48526,5.06735c0.3126,1.03644 -3.84394,3.39145 -3.50572,4.05786c0.42295,0.83336 3.92896,4.15712 4.20075,4.08697c0.36149,-0.0933 4.94958,-3.64558 5.0559,-4.53107c0.27328,-0.47825 -2.86335,-2.25041 -2.84229,-3.14862c0.02382,-1.01625 4.22969,-5.2974 4.9947,-5.36104c0.85966,-0.07152 2.19073,2.54681 3.46504,2.79559c1.55605,0.30379 0.15351,-0.38366 0.86273,-0.3251c0.95335,0.07871 1.63102,0.73954 2.47785,1.54226c0.63247,0.59953 -0.73337,1.74843 -0.73337,1.74843c0,0 0.96442,1.19462 1.05996,2.98613c0.12483,2.34059 -0.71501,5.46439 -1.87042,5.8851c-1.02935,0.37481 -4.26591,-3.89398 -4.76002,-3.31277c-0.90754,1.06751 -4.56173,3.1928 -4.22972,3.84809c0.30805,0.608 9.47463,9.68265 9.46687,10.06011c-0.01196,0.58143 -2.84073,3.88055 -3.61811,3.48767c-1.49728,-0.7567 -8.09242,-8.23718 -9.18186,-8.35491c-0.38636,-0.04175 -8.80003,8.60057 -8.80003,8.60057z" fill="#000000" stroke="none" stroke-width="0"/><path d="M265.10095,209.90276c0,0 -3.69187,-2.60709 -3.79774,-3.92405c-0.09135,-1.13641 8.74253,-8.22424 9.3104,-9.71389c0.28682,-0.75241 -3.32468,-3.31082 -3.70285,-3.58496c-0.88471,-0.6413 -3.45097,3.80079 -4.07225,3.17022c-1.52061,-1.54336 -5.33704,-4.23526 -5.19102,-5.37188c0.10182,-0.79255 2.67505,-2.38867 3.55761,-3.54689c0.35061,-0.46013 -0.46392,-0.85115 -0.43747,-1.09522c0.11252,-1.03828 1.44347,-1.95678 2.20054,-2.06281c0.67669,-0.09477 3.5553,-2.83715 4.6053,-3.00316c1.09332,-0.17286 3.7421,3.30055 5.48526,5.06735c0.3126,1.03644 -3.84394,3.39145 -3.50572,4.05786c0.42295,0.83336 3.92896,4.15712 4.20075,4.08697c0.36149,-0.0933 4.94958,-3.64558 5.0559,-4.53107c0.27328,-0.47825 -2.86335,-2.25041 -2.84229,-3.14862c0.02382,-1.01625 4.22969,-5.2974 4.9947,-5.36104c0.85966,-0.07152 2.19073,2.54681 3.46504,2.79559c1.55605,0.30379 0.15351,-0.38366 0.86273,-0.3251c0.95335,0.07871 1.63102,0.73954 2.47785,1.54226c0.63247,0.59953 -0.73337,1.74843 -0.73337,1.74843c0,0 0.96442,1.19462 1.05996,2.98613c0.12483,2.34059 -0.71501,5.46439 -1.87042,5.8851c-1.02935,0.37481 -4.26591,-3.89398 -4.76002,-3.31277c-0.90754,1.06751 -4.56173,3.1928 -4.22972,3.84809c0.30805,0.608 9.47463,9.68265 9.46687,10.06011c-0.01196,0.58143 -2.84073,3.88055 -3.61811,3.48767c-1.49728,-0.7567 -8.09242,-8.23718 -9.18186,-8.35491c-0.38636,-0.04175 -8.80003,8.60057 -8.80003,8.60057z" fill="#000000" stroke="none" stroke-width="0"/><path d="M298.10095,209.90276c0,0 -3.69187,-2.60709 -3.79774,-3.92405c-0.09135,-1.13641 8.74253,-8.22424 9.3104,-9.71389c0.28682,-0.75241 -3.32468,-3.31082 -3.70285,-3.58496c-0.88471,-0.6413 -3.45097,3.80079 -4.07225,3.17022c-1.52061,-1.54336 -5.33704,-4.23526 -5.19102,-5.37188c0.10182,-0.79255 2.67505,-2.38867 3.55761,-3.54689c0.35061,-0.46013 -0.46392,-0.85115 -0.43747,-1.09522c0.11252,-1.03828 1.44347,-1.95678 2.20054,-2.06281c0.67669,-0.09477 3.5553,-2.83715 4.6053,-3.00316c1.09332,-0.17286 3.7421,3.30055 5.48526,5.06735c0.3126,1.03644 -3.84394,3.39145 -3.50572,4.05786c0.42295,0.83336 3.92896,4.15712 4.20075,4.08697c0.36149,-0.0933 4.94958,-3.64558 5.0559,-4.53107c0.27328,-0.47825 -2.86335,-2.25041 -2.84229,-3.14862c0.02382,-1.01625 4.22969,-5.2974 4.9947,-5.36104c0.85966,-0.07152 2.19073,2.54681 3.46504,2.79559c1.55605,0.30379 0.15351,-0.38366 0.86273,-0.3251c0.95335,0.07871 1.63102,0.73954 2.47785,1.54226c0.63247,0.59953 -0.73337,1.74843 -0.73337,1.74843c0,0 0.96442,1.19462 1.05996,2.98613c0.12483,2.34059 -0.71501,5.46439 -1.87042,5.8851c-1.02935,0.37481 -4.26591,-3.89398 -4.76002,-3.31277c-0.90754,1.06751 -4.56173,3.1928 -4.22972,3.84809c0.30805,0.608 9.47463,9.68265 9.46687,10.06011c-0.01196,0.58143 -2.84073,3.88055 -3.61811,3.48767c-1.49728,-0.7567 -8.09242,-8.23718 -9.18186,-8.35491c-0.38636,-0.04175 -8.80003,8.60057 -8.80003,8.60057z" fill="#000000" stroke="none" stroke-width="0"/><text transform="translate(153.32778,173.13176) scale(0.76098,0.76098)" font-size="40" xml:space="preserve" fill="#000000" fill-rule="nonzero" stroke="#000000" stroke-width="0" stroke-linecap="butt" stroke-linejoin="miter" stroke-miterlimit="10" stroke-dasharray="" stroke-dashoffset="0" font-family="Sans Serif" font-weight="normal" text-anchor="start" style="mix-blend-mode: normal"><tspan x="0" dy="0">⚒️</tspan></text><text transform="translate(186.32778,173.13176) scale(0.76098,0.76098)" font-size="40" xml:space="preserve" fill="#000000" fill-rule="nonzero" stroke="#000000" stroke-width="0" stroke-linecap="butt" stroke-linejoin="miter" stroke-miterlimit="10" stroke-dasharray="" stroke-dashoffset="0" font-family="Sans Serif" font-weight="normal" text-anchor="start" style="mix-blend-mode: normal"><tspan x="0" dy="0">⚒️</tspan></text><text transform="translate(218.92778,173.13176) scale(0.76098,0.76098)" font-size="40" xml:space="preserve" fill="#000000" fill-rule="nonzero" stroke="#000000" stroke-width="0" stroke-linecap="butt" stroke-linejoin="miter" stroke-miterlimit="10" stroke-dasharray="" stroke-dashoffset="0" font-family="Sans Serif" font-weight="normal" text-anchor="start" style="mix-blend-mode: normal"><tspan x="0" dy="0">⚒️</tspan></text><text transform="translate(251.92778,173.13176) scale(0.76098,0.76098)" font-size="40" xml:space="preserve" fill="#000000" fill-rule="nonzero" stroke="#000000" stroke-width="0" stroke-linecap="butt" stroke-linejoin="miter" stroke-miterlimit="10" stroke-dasharray="" stroke-dashoffset="0" font-family="Sans Serif" font-weight="normal" text-anchor="start" style="mix-blend-mode: normal"><tspan x="0" dy="0">⚒️</tspan></text><text transform="translate(285.32778,173.13176) scale(0.76098,0.76098)" font-size="40" xml:space="preserve" fill="#000000" fill-rule="nonzero" stroke="#000000" stroke-width="0" stroke-linecap="butt" stroke-linejoin="miter" stroke-miterlimit="10" stroke-dasharray="" stroke-dashoffset="0" font-family="Sans Serif" font-weight="normal" text-anchor="start" style="mix-blend-mode: normal"><tspan x="0" dy="0">⚒️</tspan></text><text transform="translate(152.87778,205.13176) scale(0.76098,0.76098)" font-size="40" xml:space="preserve" fill="#000000" fill-rule="nonzero" stroke="#000000" stroke-width="0" stroke-linecap="butt" stroke-linejoin="miter" stroke-miterlimit="10" stroke-dasharray="" stroke-dashoffset="0" font-family="Sans Serif" font-weight="normal" text-anchor="start" style="mix-blend-mode: normal"><tspan x="0" dy="0">⚒️</tspan></text></g></g></svg>