<svg version="1.1" xmlns="http://www.w3.org/2000/svg" xmlns:xlink="http://www.w3.org/1999/xlink" width="245.5" height="74.5" viewBox="0,0,245.5,74.5"><defs><linearGradient x1="195.5329" y1="175.44908" x2="194.73812" y2="175.28213" gradientUnits="userSpaceOnUse" id="color-1"><stop offset="0" stop-color="#9e9e9e"/><stop offset="1" stop-color="#b7b7b7"/></linearGradient><linearGradient x1="192.66659" y1="183.55787" x2="189.68209" y2="182.93093" gradientUnits="userSpaceOnUse" id="color-2"><stop offset="0" stop-color="#898989"/><stop offset="1" stop-color="#d8d8d8"/></linearGradient><linearGradient x1="196.13256" y1="167.03267" x2="193.14808" y2="166.40572" gradientUnits="userSpaceOnUse" id="color-3"><stop offset="0" stop-color="#898989"/><stop offset="1" stop-color="#d8d8d8"/></linearGradient><linearGradient x1="149.15231" y1="165.79031" x2="148.78885" y2="165.71395" gradientUnits="userSpaceOnUse" id="color-4"><stop offset="0" stop-color="#888888"/><stop offset="1" stop-color="#dedede"/></linearGradient><linearGradient x1="175.06891" y1="183.3808" x2="173.19058" y2="182.98622" gradientUnits="userSpaceOnUse" id="color-5"><stop offset="0" stop-color="#ababab"/><stop offset="1" stop-color="#d4d4d4"/></linearGradient><linearGradient x1="179.9511" y1="160.11385" x2="178.07276" y2="159.71927" gradientUnits="userSpaceOnUse" id="color-6"><stop offset="0" stop-color="#ababab"/><stop offset="1" stop-color="#d4d4d4"/></linearGradient></defs><g transform="translate(-117.25,-147.25)"><g data-paper-data="{&quot;isPaintingLayer&quot;:true}" fill-rule="nonzero" stroke-linejoin="miter" stroke-miterlimit="10" stroke-dasharray="" stroke-dashoffset="0" style="mix-blend-mode: normal"><path d="M119.75,219.25v-69.5h240.5v69.5z" fill="#404040" stroke="#f6d553" stroke-width="5" stroke-linecap="butt"/><text transform="translate(203.62669,181.92136) scale(0.62911,0.62911)" font-size="40" xml:space="preserve" fill="#ffffff" fill-rule="nonzero" stroke="none" stroke-width="1" stroke-linecap="butt" stroke-linejoin="miter" stroke-miterlimit="10" stroke-dasharray="" stroke-dashoffset="0" font-family="Marker" font-weight="normal" text-anchor="start" style="mix-blend-mode: normal"><tspan x="0" dy="0">Drift Master</tspan></text><text transform="translate(223.6784,202.32246) scale(0.34018,0.34018)" font-size="40" xml:space="preserve" fill="#ffffff" fill-rule="nonzero" stroke="none" stroke-width="1" stroke-linecap="butt" stroke-linejoin="miter" stroke-miterlimit="10" stroke-dasharray="" stroke-dashoffset="0" font-family="Sans Serif" font-weight="normal" text-anchor="start" style="mix-blend-mode: normal"><tspan x="0" dy="0">Have 15 close calls.</tspan></text><g><text transform="translate(189.03503,174.47197) rotate(-168.13652) scale(0.07191,0.07191)" font-size="40" xml:space="preserve" fill="#000000" fill-rule="nonzero" stroke="none" stroke-width="1" stroke-linecap="butt" stroke-linejoin="miter" stroke-miterlimit="10" stroke-dasharray="" stroke-dashoffset="0" font-family="Pixel" font-weight="normal" text-anchor="start" style="mix-blend-mode: normal"><tspan x="0" dy="0">made by @itsadiesel</tspan></text><path d="M196.43001,175.86025l-0.32116,1.31025l-0.49242,1.39673l-0.59035,1.49863l-0.54108,1.26405l-0.7632,1.44699l-0.64297,1.16609l-0.42257,0.55416l-0.30234,0.27326l-0.45583,0.34817l-0.57855,0.27648l-0.39263,0.19306l-0.63953,0.20242l-0.51767,0.05964l-0.69289,-0.0537l-0.95677,-0.10913l-1.84259,-0.26461l-3.56259,-0.74839l-0.99386,-0.22409l-0.84109,-0.2226l-0.98697,-0.32979l-0.70299,-0.22421l-0.83802,-0.23727c0,0 -5.59184,-1.00567 -8.72304,-1.69104c-6.25419,-1.36893 -12.0384,-2.80803 -12.0384,-2.80803l-0.60331,0.10288l-0.608,-0.02057l-0.90971,-0.11456l-1.669,-0.28937l-2.14049,-0.44965l-1.39821,-0.33964l-1.63512,-0.45064l-0.59112,-0.24664l-0.37897,-0.30923l-0.19922,-0.36332l-0.24654,-0.93965l-0.17163,-0.78614l-0.09771,-1.138l-0.06544,-1.43738l0.04273,-1.07789l0.20891,-2.16045l0.49039,-2.74531l0.23541,-1.17282l0.00053,-0.00252l0.69777,-2.88439l0.67806,-2.06189l0.3946,-1.00397l0.63828,-1.28955l0.54736,-1.00249l0.47345,-0.65063l0.60379,-0.76102l0.32857,-0.25244l0.47137,-0.13059l0.6404,0.01206l1.67824,0.24538l1.41669,0.25168l2.14049,0.44965l1.64437,0.40666l0.87892,0.26117l0.56488,0.22582l0.51092,0.33694c0,0 5.87437,1.00999 12.15073,2.27332c3.14231,0.63249 8.66615,1.96186 8.66615,1.96186l0.86266,0.11999l0.73378,0.07761l1.03624,0.09521l0.85957,0.13465l1.00002,0.19477l3.56259,0.74839l1.79331,0.49918l0.91981,0.28507l0.65593,0.22964l0.44992,0.2629l0.50402,0.44265l0.28176,0.33473l0.41839,0.4859l0.27721,0.50216l0.16682,0.37182l0.16387,0.67735l0.11941,1.32624l0.11646,1.63178l-0.01328,1.37492l-0.06256,1.6095l-0.11122,1.47681l-0.2332,1.32872z" fill="#b43535" stroke="#000000" stroke-width="1.5" stroke-linecap="round"/><path d="M193.54121,181.95379l-0.2667,0.84204l-0.32886,0.78816l-0.21381,0.39596l-0.4849,0.55943l-0.5183,0.44629l-0.16282,0.30869l-0.99605,0.42757l-1.13239,0.10502l-0.85236,-0.33418l-5.8911,-1.2212l-0.48079,-0.35409l-0.39648,-0.48333l-0.23431,-0.40028l-0.1447,-0.59373l0.10381,-0.68848l0.25534,-0.47703l0.52025,-0.64998l0.65036,-0.49202l0.22543,-0.14041l4.14309,0.3315l0.98639,0.08474l3.05886,0.47928l0.65517,0.1458l0.76424,0.20952l0.51121,0.28699l0.13339,0.14232z" fill="#bb3636" stroke="#c63939" stroke-width="0.05" stroke-linecap="round"/><path d="M196.08667,169.07212l-0.17938,0.07662l-0.58348,0.05704l-0.78395,-0.1157l-0.65845,-0.13016l-2.99316,-0.79205l-0.93712,-0.31932l-3.92628,-1.36362l-0.14987,-0.21926l-0.39741,-0.71213l-0.21474,-0.80438l-0.04181,-0.53945l0.18199,-0.67206l0.37137,-0.48533l0.37557,-0.27216l0.55745,-0.28294l0.58263,-0.1307l5.88453,1.25248l0.91477,0.03704l0.99441,0.55179l0.73982,0.79222l0.02484,0.34812l0.29491,0.61712l0.21881,0.70726l0.03641,0.44852l-0.01608,0.85387l-0.09466,0.87817z" data-paper-data="{&quot;index&quot;:null}" fill="#bb3636" stroke="#c63939" stroke-width="0.05" stroke-linecap="round"/><path d="M195.98526,171.73191l-0.21459,2.46181l-0.16821,0.9242l-0.3831,1.70027l-0.43251,1.31819l-1.11052,3.1467l-0.0775,0.12202l-0.05072,-0.41695l0.37936,-1.31207l1.14045,-3.49483l0.07736,-0.45055l0.323,-1.66103l0.19303,-1.94767l0.09821,-1.57858l0.13517,-0.76689l0.25594,-0.55999l-0.02705,0.91063z" fill="url(#color-1)" stroke="#ff0000" stroke-width="0.05" stroke-linecap="round"/><path d="M150.27204,165.24989l0.20227,-0.96287l0.24344,-0.93175l0.33575,-1.00778l0.46785,-1.40945l0.38391,-0.8736l0.55648,-1.10455l0.42247,-0.69374l0.31012,-0.24975l0.50005,-0.38163l0.35681,-0.15407l0.44152,-0.01222l0.45067,-0.0103l2.15532,0.23329l3.57192,0.53086l4.22518,0.78261l4.9501,1.01123l10.67466,2.2424l1.57917,0.34128l0.62439,0.2075l0.24776,0.13793l0.18716,0.15382l0.24355,0.38515l0.30038,0.56886l0.3053,0.81799l0.22359,0.93442l0.22596,0.87766l0.09893,0.75557l0.07568,1.45682l-0.08261,1.34723l-0.18799,1.2583l-0.30129,1.43427l-0.07251,0.37101l-0.29923,1.42446l-0.33421,1.22758l-0.46647,1.26659l-0.65547,1.30322l-0.39459,0.65189l-0.56001,0.71256l-0.58068,0.76548l-0.60863,0.62601l-0.50389,0.39991l-0.37794,0.25459l-0.23324,0.06551l-0.28231,0.02658l-0.65511,-0.06128l-1.58301,-0.323l-10.67466,-2.2424l-4.93859,-1.06606l-4.18295,-0.98367l-3.48361,-0.95127l-2.06701,-0.65369l-0.40843,-0.19077l-0.39929,-0.18884l-0.26466,-0.28461l-0.30422,-0.55058l-0.18341,-0.35343l-0.10761,-0.80509l-0.065,-1.2351l0.00006,-0.95423l0.13884,-1.47856l0.09814,-1.0577l0.15205,-0.95094l0.23373,-1.11263l0.18909,-0.90014z" fill="#c0c0c0" stroke="#000000" stroke-width="0.5" stroke-linecap="round"/><path d="M195.98565,169.63139l-0.08785,1.36466l-0.13348,1.62305l-0.09112,0.8453l-0.11116,0.85838l-0.13906,0.82659l-0.16391,0.82138l-0.39368,1.42142l-0.53171,1.62583l-0.74369,2.09997" fill="none" stroke="#8c8c8c" stroke-width="0.5" stroke-linecap="round"/><path d="M150.45726,165.29484l0.16316,-0.77673l0.18247,-0.6869l0.13301,-0.4969l0.59994,-1.81111l0.17916,-0.53492l0.24552,-0.57823l0.45265,-0.97368l0.37677,-0.70334l0.17641,-0.24922l0.22357,-0.20114l0.43222,-0.37679l0.34812,-0.2036l0.22795,-0.08572l0.50742,-0.00792l0.55458,0.04016l1.96871,0.21316l2.12891,0.31362l1.17605,0.17071l2.2415,0.41361l1.90335,0.34258l3.71246,0.77033l11.57945,2.43247l2.02316,0.45362l0.58445,0.17048l0.25882,0.1307l0.18862,0.1923l0.12995,0.19906l0.22909,0.36303l0.28164,0.61263l0.27696,0.90747l0.2149,0.88489l0.15715,0.79642l0.04503,0.64881l0.06391,0.96768l-0.036,1.26159l-0.09492,0.72439l-0.33644,1.64699l-0.12823,0.61043l-0.06965,0.3574l-0.13342,0.6351l-0.35472,1.64315l-0.20458,0.70135l-0.47468,1.16944l-0.44788,0.86017l-0.30228,0.57585l-0.46433,0.66587l-0.5528,0.72363l-0.61869,0.71932l-0.50434,0.44753l-0.35581,0.24015l-0.19906,0.12995l-0.25006,0.10015l-0.28953,0.01551l-0.60365,-0.0791l-2.03467,-0.39879l-11.57945,-2.43247l-3.70862,-0.78861l-1.88031,-0.45225l-2.21846,-0.52328l-1.14533,-0.31693l-2.07515,-0.56952l-1.88807,-0.59702l-0.52386,-0.18638l-0.46134,-0.21142l-0.17419,-0.17019l-0.23678,-0.32647l-0.24408,-0.51886l-0.12374,-0.2741l-0.06122,-0.29913l-0.06192,-0.79549l-0.0226,-1.07351l0.0079,-0.62814l0.05122,-0.56179l0.17953,-1.89942l0.07818,-0.50841l0.10935,-0.70227l0.1818,-0.86545l0.19947,-0.972z" data-paper-data="{&quot;index&quot;:null}" fill="#666666" stroke="#000000" stroke-width="0.5" stroke-linecap="round"/><path d="M154.5273,174.32597l0.02833,0.1413l-2.05357,0.89314l-0.22425,0.605l-1.18447,-0.39287l-0.57365,-0.22396l-0.43049,-0.46362l-0.35412,-0.77194l-0.07169,-0.37358l0.29961,-0.05325l2.95571,-0.53928l0.16908,-0.02249l0.20044,0.38049l0.20526,0.26549l0.175,0.13344l0.46843,0.30143z" fill="#363636" stroke="none" stroke-width="0" stroke-linecap="round"/><path d="M157.09641,160.0912l-0.55012,0.08747l-0.2139,0.05174l-0.29473,0.16045l-0.33661,0.26768l-0.14574,-0.08862l-2.48888,-1.683l-0.24162,-0.15705l0.15881,-0.29723l0.61771,-0.52404l0.57323,-0.29816l0.60611,0.00767l1.31419,0.10716l-0.03032,0.6506l1.5206,1.64396l-0.08279,0.11796z" data-paper-data="{&quot;index&quot;:null}" fill="#363636" stroke="none" stroke-width="0" stroke-linecap="round"/><path d="M173.58317,178.92841l-0.30961,-0.41309l0.00218,-0.60864l1.37688,0.57928l4.63826,3.15067l-0.23304,0.16176l-0.18199,0.0639l-0.37666,0.01583l-1.48377,-0.29816z" fill="#363636" stroke="none" stroke-width="0" stroke-linecap="round"/><path d="M163.1671,178.76098l-1.66671,-0.35012l0.57265,-2.03569l1.04243,0.23832l0.17788,0.02769l-0.09104,0.20324z" fill="#363636" stroke="none" stroke-width="0" stroke-linecap="round"/><path d="M148.73087,177.26243l0.32684,-0.1433l0.3041,-0.03503l1.15668,0.14407l5.34559,1.12294l1.02784,0.28657l0.70804,0.26178l-0.5051,0.13842l-0.46779,0.01775l-1.60881,-0.19616l-3.77788,-0.79361l-2.19634,-0.59028z" fill="#363636" stroke="#000000" stroke-width="0.5" stroke-linecap="round"/><path d="M179.24025,183.64321l1.11824,0.19252l1.70585,0.28769l1.93808,0.393l2.88256,0.60553l1.77,0.38595l0.66744,0.25325l-0.32347,0.0303l-2.73812,-0.34315l-4.28406,-0.89994l-1.48547,-0.41518z" fill="#363636" stroke="#000000" stroke-width="0.5" stroke-linecap="round"/><path d="M175.20241,181.92576c0.33014,-0.10466 0.60726,0.00141 0.61897,0.23692c0.0117,0.23552 -0.24645,0.51129 -0.5766,0.61594c-0.33014,0.10466 -0.60726,-0.00141 -0.61897,-0.23692c-0.0117,-0.23552 0.24645,-0.51129 0.5766,-0.61594z" fill="#363636" stroke="#000000" stroke-width="0.75" stroke-linecap="butt"/><path d="M189.8231,184.4138c-0.48457,-0.57966 -0.27243,-1.57312 0.47383,-2.21896c0.74626,-0.64583 1.74407,-0.69949 2.22864,-0.11983c0.48457,0.57966 0.27243,1.57312 -0.47383,2.21896c-0.74626,0.64583 -1.74407,0.69949 -2.22864,0.11983z" fill="url(#color-2)" stroke="#000000" stroke-width="0.75" stroke-linecap="butt"/><path d="M191.8503,184.26979c-0.71232,0.53418 -1.59013,0.51033 -1.96066,-0.05326c-0.37052,-0.56358 -0.09343,-1.45348 0.61888,-1.98766c0.71232,-0.53418 1.59013,-0.51033 1.96066,0.05326c0.37052,0.56358 0.09343,1.45348 -0.61888,1.98766z" fill="#dbdbdb" stroke="#000000" stroke-width="0.25" stroke-linecap="butt"/><path d="M183.599,184.81199c0,0 -1.68326,-0.71121 -2.05626,-1.92759c-0.51075,-1.66563 1.59284,-2.86201 1.59284,-2.86201l0.17471,-0.15667l0.31362,-0.44976l0.56355,-0.96445l0.49911,-1.21002l0.36849,-1.26323l0.32367,-1.23399l0.19499,-0.92825l0.19368,-0.94784l0.14691,-0.69936l0.20021,-1.25992l0.17096,-1.30473l0.02996,-1.30857l-0.12784,-1.10968l-0.10614,-0.53794l-0.0969,-0.21372c0,0 -1.44438,-1.94169 -0.30659,-3.26102c0.83091,-0.96348 2.65807,-0.93727 2.65807,-0.93727" fill="none" stroke="#000000" stroke-width="0.75" stroke-linecap="round"/><path d="M163.23908,176.70993l-0.11485,2.15687c0,0 -0.60956,0.23713 -0.81982,0.39618c-0.22341,0.16898 -0.48359,0.58964 -0.48359,0.58964" fill="none" stroke="#000000" stroke-width="0.75" stroke-linecap="round"/><path d="M161.57147,178.31902l0.45889,-1.85135" fill="none" stroke="#000000" stroke-width="0.75" stroke-linecap="round"/><path d="M152.28469,175.88997l0.17206,-0.43038l0.07697,-0.0888l0.05641,-0.04646l1.80083,-0.79968l0.23224,-0.08509" fill="none" stroke="#000000" stroke-width="0.75" stroke-linecap="round"/><path d="M179.28019,181.63083l-4.74597,-3.22462" fill="none" stroke="#000000" stroke-width="0.75" stroke-linecap="round"/><path d="M173.37572,178.75766l3.61299,2.78835c0,0 0.79588,0.51203 1.05963,0.82497c0.2771,0.32876 0.56486,1.10246 0.56486,1.10246" fill="none" stroke="#000000" stroke-width="0.75" stroke-linecap="round"/><path d="M184.8261,175.41929c0.00621,0.03758 -0.02315,0.14634 -0.02315,0.14634c0,0 -0.23687,0.84942 -0.31394,1.08708c-0.07706,0.23766 -0.23173,0.59566 -0.23173,0.59566l-0.34553,0.73001l-0.60463,1.04864l-0.37237,0.58873l-0.19988,0.25193l-0.06778,0.05359l-0.10026,0.04676l-0.13902,0.01601l-0.20569,-0.04321c0,0 -0.13777,-0.04584 -0.17249,-0.09275c-0.03472,-0.04692 0.014,-0.1214 0.014,-0.1214l0.24137,-0.5032l0.46171,-0.85257l0.33189,-0.66506l0.40638,-0.96592l0.39156,-1.00295l0.15539,-0.363c0,0 0.05465,-0.08971 0.1022,-0.10932c0.04754,-0.01961 0.1701,-0.00304 0.1701,-0.00304l0.44389,0.09324c0,0 0.05275,0.0328 0.05799,0.06447z" fill="#363636" stroke="#000000" stroke-width="0.75" stroke-linecap="round"/><path d="M148.77834,177.44546l-0.10956,-0.47787l-0.10063,-0.24275l-0.2159,-0.36025l-0.42053,-0.49655l-0.17826,-0.31736l-0.13302,-0.36618l-0.1319,-0.48256l-0.11669,-0.66599l-0.02161,-1.00756l0.06672,-0.65078" fill="none" stroke="#000000" stroke-width="0.75" stroke-linecap="round"/><path d="M153.71387,164.47361l0.24575,0.05163l0.16699,0.09339l0.0506,0.09228l-0.03576,0.22575l-0.19589,0.93251l-0.31221,1.51206l-0.2519,1.19917l-0.0581,0.22106l-0.08346,0.06412l-0.19045,0.0183l-0.24575,-0.05163" fill="none" stroke="#000000" stroke-width="0.75" stroke-linecap="round"/><path d="M149.16807,175.13725c0,0 0.00722,0.08221 -0.02379,0.11325c-0.03101,0.03104 -0.13663,0.0473 -0.13663,0.0473l-0.60699,0.07519l-0.17837,0.00476l-0.12133,-0.02549l-0.07878,-0.06723l-0.12268,-0.22003l-0.11767,-0.40478l-0.09816,-0.57803l0.00034,-0.20263l0.02168,-0.06302l0.11915,-0.08477l0.08898,0.01869l0.81459,0.58496l0.1218,0.14384l0.08777,0.14512z" fill="none" stroke="#000000" stroke-width="0.75" stroke-linecap="round"/><path d="M196.15911,169.29687l-0.07079,1.27546l-0.19771,2.30618l-0.16369,1.63231l-0.18115,0.94762l-0.02603,0.14976l-0.21546,0.94041l-0.50695,1.5602l-0.74696,2.1908l-0.44841,1.19614" fill="none" stroke="#000000" stroke-width="0.75" stroke-linecap="round"/><path d="M154.1087,163.00882l-0.25173,0.71251l-0.43192,1.5217l-0.24121,1.24539l-0.38337,1.97072l-0.16056,1.00721l-0.07357,1.12753l0.05218,0.93105l-0.1443,0.54119l-0.06784,0.12862l-0.1085,0.07926l-0.07869,0.03449l-1.79806,0.39789l-0.20164,-0.01174l-0.17183,-0.0565l-0.13018,-0.10899l-0.06538,-0.126l-0.05931,-0.34923l-0.01578,-0.79932l0.10026,-1.2546l0.12038,-1.10749l0.12311,-0.78035l0.24611,-1.26701l0.32595,-1.57435l0.27516,-1.21753l0.20129,-0.76392l0.33542,-1.06232l0.41303,-1.18889l0.33607,-0.72541l0.19481,-0.29585l0.11056,-0.08904l0.16303,-0.0474l0.18004,0.01742l0.18932,0.07038l1.48598,1.08776l0.05815,0.06324l0.06744,0.11622l0.01035,0.14504l-0.08566,0.5535z" fill="#7c7c7c" stroke="#666666" stroke-width="0.25" stroke-linecap="round"/><path d="M149.11235,175.10916c0,0 0.00686,0.07805 -0.02258,0.10752c-0.02944,0.02947 -0.12972,0.04492 -0.12972,0.04492l-0.57631,0.07138l-0.16935,0.00452l-0.11521,-0.0242l-0.07479,-0.06382l-0.11649,-0.2089l-0.11171,-0.38431l-0.0932,-0.54881l0.00031,-0.19238l0.02058,-0.05982l0.11313,-0.08048l0.08447,0.01775l0.7734,0.55539l0.11565,0.13657l0.08332,0.13779z" fill="#b02c2c" stroke="#b8b8b8" stroke-width="0.25" stroke-linecap="round"/><path d="M183.12839,180.00403l5.16708,0.41746l2.15713,0.33068l1.01348,0.15724l0.91026,0.22462l0.37937,0.10196l0.28287,0.13734l0.34183,0.22767l0.14766,0.19801" fill="none" stroke="#c63939" stroke-width="0.5" stroke-linecap="round"/><path d="M181.15005,162.55129l1.05356,0.25974l0.72689,0.30193l0.20004,0.30926l-5.53011,1.00521l-1.49358,-0.02372l0.24292,-0.55807l0.44966,-0.25359z" data-paper-data="{&quot;index&quot;:null}" fill="#363636" stroke="none" stroke-width="0" stroke-linecap="round"/><path d="M166.45746,161.32287l0.00156,0.22269l-0.17398,-0.04622l-1.05021,-0.20128l0.29487,-2.09404l1.66671,0.35012z" data-paper-data="{&quot;index&quot;:null}" fill="#363636" stroke="none" stroke-width="0" stroke-linecap="round"/><path d="M153.74987,155.04809l2.24821,0.34337l3.77788,0.79361l1.55175,0.46778l0.42112,0.20447l0.40671,0.32996l-0.75353,-0.04525l-1.05627,-0.15124l-5.34559,-1.12294l-1.11688,-0.33353l-0.26429,-0.15444l-0.24155,-0.2627z" data-paper-data="{&quot;index&quot;:null}" fill="#363636" stroke="#000000" stroke-width="0.5" stroke-linecap="round"/><path d="M185.21791,161.60693l1.52696,0.21764l4.28406,0.89994l2.64475,0.78761l0.28395,0.15789l-0.71293,-0.03672l-1.77568,-0.35889l-2.88256,-0.60553l-1.9324,-0.42006l-1.67742,-0.42303l-1.10118,-0.27371z" data-paper-data="{&quot;index&quot;:null}" fill="#363636" stroke="#000000" stroke-width="0.5" stroke-linecap="round"/><path d="M179.20783,160.70373c0.10547,-0.2109 0.40185,-0.1965 0.66198,0.03216c0.26012,0.22866 0.38549,0.585 0.28001,0.79589c-0.10547,0.2109 -0.40185,0.1965 -0.66198,-0.03216c-0.26012,-0.22866 -0.38549,-0.585 -0.28001,-0.79589z" data-paper-data="{&quot;index&quot;:null}" fill="#363636" stroke="#000000" stroke-width="0.75" stroke-linecap="butt"/><path d="M195.86588,166.1114c0.42332,0.89153 0.21777,1.88637 -0.45907,2.22206c-0.67686,0.33568 -1.56873,-0.11492 -1.99204,-1.00645c-0.42332,-0.89153 -0.21777,-1.88637 0.45907,-2.22206c0.67686,-0.33568 1.56873,0.11492 1.99204,1.00645z" data-paper-data="{&quot;index&quot;:null}" fill="url(#color-3)" stroke="#000000" stroke-width="0.75" stroke-linecap="butt"/><path d="M195.67174,166.05248c0.43717,0.77564 0.33275,1.70182 -0.23322,2.06868c-0.56598,0.36685 -1.37918,0.03547 -1.81636,-0.74017c-0.43717,-0.77564 -0.33275,-1.70182 0.23322,-2.06868c0.56598,-0.36685 1.37918,-0.03547 1.81636,0.74017z" data-paper-data="{&quot;index&quot;:null}" fill="#dbdbdb" stroke="#000000" stroke-width="0.25" stroke-linecap="butt"/><path d="M166.40316,158.01306c0,0 0.06892,0.48982 0.20546,0.73439c0.12851,0.2302 0.59111,0.69257 0.59111,0.69257l-0.76273,2.02077" data-paper-data="{&quot;index&quot;:null}" fill="none" stroke="#000000" stroke-width="0.75" stroke-linecap="round"/><path d="M165.23296,161.19621l0.32484,-1.87951" data-paper-data="{&quot;index&quot;:null}" fill="none" stroke="#000000" stroke-width="0.75" stroke-linecap="round"/><path d="M157.63584,160.07241l-0.17838,-0.17135l-1.32684,-1.4567l-0.03295,-0.06524l-0.03473,-0.11226l0.01566,-0.46324" data-paper-data="{&quot;index&quot;:null}" fill="none" stroke="#000000" stroke-width="0.75" stroke-linecap="round"/><path d="M148.32222,165.19263l0.43969,-1.85258l0.26929,-1.22638l0.2019,-0.73902l0.37864,-1.19174l0.20668,-0.53974l0.13686,-0.26283l0.11986,-0.12644l0.06111,-0.06881l0.26151,-0.19l0.79927,-0.47357l0.26039,-0.0736l0.32684,-0.00133l0.72607,0.15252l0.32673,0.14469l2.90015,1.96215l0.21233,0.26621l0.09715,0.37031l-0.04382,0.59728l-0.20649,0.98298l-0.71465,3.40198l-0.25358,1.23295l-0.74202,3.5323l-0.20649,0.98298l-0.20022,0.56443l-0.23795,0.29991l-0.3015,0.15827l-3.44453,0.62934l-0.35734,0.00099l-0.72607,-0.15252l-0.29868,-0.13273l-0.20876,-0.17215l-0.54115,-0.75516l-0.16296,-0.27916l-0.02826,-0.08759l-0.05886,-0.16398l-0.01954,-0.29568l0.02796,-0.57728l0.1329,-1.24337l0.11254,-0.75779l0.24695,-1.23107l0.31768,-1.73505z" data-paper-data="{&quot;index&quot;:null}" fill="none" stroke="#000000" stroke-width="0.75" stroke-linecap="round"/><path d="M183.10228,163.41042l-5.64233,1.04238" data-paper-data="{&quot;index&quot;:null}" fill="none" stroke="#000000" stroke-width="0.75" stroke-linecap="round"/><path d="M183.2331,161.45518c0,0 -0.57477,0.59251 -0.96072,0.78198c-0.36737,0.18035 -1.30201,0.32886 -1.30201,0.32886l-4.42957,1.09888" data-paper-data="{&quot;index&quot;:null}" fill="none" stroke="#000000" stroke-width="0.75" stroke-linecap="round"/><path d="M185.60098,171.36417l-0.44389,-0.09324c0,0 -0.11887,-0.03414 -0.1545,-0.07122c-0.03562,-0.03709 -0.04957,-0.1412 -0.04957,-0.1412l0.00381,-0.39485l0.0451,-1.07573l0.01664,-1.0478l-0.03623,-0.74239l-0.07962,-0.96628l-0.01848,-0.5578c0,0 -0.01463,-0.0878 0.03603,-0.11678c0.05067,-0.02899 0.19523,-0.01551 0.19523,-0.01551l0.20569,0.04321l0.12083,0.0706l0.07296,0.08316l0.04048,0.07633l0.08161,0.31106l0.10401,0.6888l0.13158,1.20329l0.02258,0.80734c0,0 -0.00247,0.38997 -0.02753,0.63856c-0.02508,0.24859 -0.15002,1.12151 -0.15002,1.12151c0,0 -0.01688,0.11137 -0.03769,0.14328c-0.01753,0.02688 -0.07903,0.03569 -0.07903,0.03569z" data-paper-data="{&quot;index&quot;:null}" fill="#363636" stroke="#000000" stroke-width="0.75" stroke-linecap="round"/><path d="M150.20907,159.06046l0.20077,-0.62261l0.42521,-0.91371l0.37481,-0.56274l0.31492,-0.3887l0.26912,-0.2817l0.29089,-0.2188l0.58478,-0.28537l0.34261,-0.24293l0.18979,-0.18173l0.29258,-0.3934" data-paper-data="{&quot;index&quot;:null}" fill="none" stroke="#000000" stroke-width="0.75" stroke-linecap="round"/><path d="M152.92254,157.23867l-0.41701,0.37691l-0.13874,0.09754l-0.16938,0.08267l-0.98112,0.20774l-0.08898,-0.01869l-0.07497,-0.12554l0.00551,-0.06641l0.08122,-0.18564l0.32245,-0.48968l0.2706,-0.32322l0.20085,-0.15206l0.09917,-0.02985l0.12133,0.02549l0.16137,0.07613l0.52543,0.31307c0,0 0.09014,0.0574 0.10604,0.09828c0.0159,0.04089 -0.02379,0.11325 -0.02379,0.11325z" data-paper-data="{&quot;index&quot;:null}" fill="none" stroke="#000000" stroke-width="0.75" stroke-linecap="round"/><path d="M148.89115,165.22698l0.05016,-0.2388l0.19825,-0.88017l0.32662,-1.42766l0.18955,-0.77511l0.05042,-0.17644l0.08752,-0.03506l0.07409,0.02892l0.04322,0.303l-0.00935,0.1717l-0.07795,0.37105l-0.38268,1.61234l-0.23154,1.10219l-0.22414,1.09283l-0.21117,1.00526l-0.29844,1.63004l-0.07795,0.37105l-0.06053,0.16095l-0.16148,0.26l-0.07946,-0.00334l-0.06602,-0.06731l0.02484,-0.18181l0.13836,-0.78586l0.27544,-1.43841l0.17267,-0.88555l0.03383,-0.16106z" data-paper-data="{&quot;index&quot;:null}" fill="url(#color-4)" stroke="#000000" stroke-width="0.5" stroke-linecap="round"/><path d="M152.86024,157.24195l-0.39592,0.35785l-0.13173,0.09261l-0.16082,0.07848l-0.9315,0.19724l-0.08447,-0.01775l-0.07119,-0.1192l0.00522,-0.06305l0.07712,-0.17624l0.30615,-0.46493l0.25691,-0.30688l0.1907,-0.14437l0.09415,-0.02833l0.11521,0.0242l0.15321,0.07228l0.49888,0.29724c0,0 0.08559,0.05449 0.10069,0.09332c0.0151,0.03882 -0.02258,0.10752 -0.02258,0.10752z" data-paper-data="{&quot;index&quot;:null}" fill="#b02c2c" stroke="#b8b8b8" stroke-width="0.25" stroke-linecap="round"/><path d="M150.45726,165.29484l0.16316,-0.77673l0.18247,-0.6869l0.13301,-0.4969l0.59994,-1.81111l0.17916,-0.53492l0.24552,-0.57823l0.45265,-0.97368l0.37677,-0.70334l0.17641,-0.24922l0.22357,-0.20114l0.43222,-0.37679l0.34812,-0.2036l0.22795,-0.08572l0.50742,-0.00792l0.55458,0.04016l1.96871,0.21316l2.12891,0.31362l1.17605,0.17071l2.2415,0.41361l1.90335,0.34258l3.71246,0.77033l11.57945,2.43247l2.02316,0.45362l0.58445,0.17048l0.25882,0.1307l0.18862,0.1923l0.12995,0.19906l0.22909,0.36303l0.28164,0.61263l0.27696,0.90747l0.2149,0.88489l0.15715,0.79642l0.04503,0.64881l0.06391,0.96768l-0.036,1.26159l-0.09492,0.72439l-0.33644,1.64699l-0.12823,0.61043l-0.06965,0.3574l-0.13342,0.6351l-0.35472,1.64315l-0.20458,0.70135l-0.47468,1.16944l-0.44788,0.86017l-0.30228,0.57585l-0.46433,0.66587l-0.5528,0.72363l-0.61869,0.71932l-0.50434,0.44753l-0.35581,0.24015l-0.19906,0.12995l-0.25006,0.10015l-0.28953,0.01551l-0.60365,-0.0791l-2.03467,-0.39879l-11.57945,-2.43247l-3.70862,-0.78861l-1.88031,-0.45225l-2.21846,-0.52328l-1.14533,-0.31693l-2.07515,-0.56952l-1.88807,-0.59702l-0.52386,-0.18638l-0.46134,-0.21142l-0.17419,-0.17019l-0.23678,-0.32647l-0.24408,-0.51886l-0.12374,-0.2741l-0.06122,-0.29913l-0.06192,-0.79549l-0.0226,-1.07351l0.0079,-0.62814l0.05122,-0.56179l0.17953,-1.89942l0.07818,-0.50841l0.10935,-0.70227l0.1818,-0.86545l0.19947,-0.972z" data-paper-data="{&quot;index&quot;:null}" fill="none" stroke="#000000" stroke-width="0.5" stroke-linecap="round"/><path d="M177.70514,171.91718l-0.02929,0.13943l-0.29285,1.11646l-0.39573,1.10651l-0.46566,1.1618l-0.6426,1.17129l-0.66558,1.00317l-0.55231,0.63042l-0.2709,0.23467l-0.36439,0.18004l-0.36326,0.06364l-0.27981,-0.00046l-2.00003,-0.36182l-9.18191,-1.92882l-2.07943,-0.48347l-2.72263,-0.64192l-1.82141,-0.54591l-1.27585,-0.47796l-0.45216,-0.23494l-0.33577,-0.23382l-0.26706,-0.39433l-0.24002,-0.41198l-0.19131,-0.58835l-0.16606,-0.65303l-0.05268,-0.80415l-0.01625,-0.86648l0.13121,-1.06877l0.21455,-1.35451l0.05293,-0.25198l0.34768,-1.6809l0.03314,-0.15776l0.34861,-1.32635l0.30993,-1.03123l0.36353,-0.7867l0.3718,-0.71498l0.41479,-0.53101l0.41188,-0.46164l0.3855,-0.28058l0.40316,-0.25354l0.40147,-0.07895l0.50848,-0.03314l1.36032,0.07582l1.88711,0.23313l2.75079,0.50786l2.09821,0.39411l9.18191,1.92882l1.97657,0.47353l0.25635,0.11217l0.30695,0.20444l0.26113,0.31145l0.15357,0.32384l0.25196,0.79937l0.20568,1.18619l0.11698,1.33084l-0.04119,1.25098l-0.08295,1.17221l-0.18114,1.13993l-0.00555,0.02643z" fill="#d9d9d9" stroke="#000000" stroke-width="0.75" stroke-linecap="round"/><path d="M196.43001,175.86025l-0.32116,1.31025l-0.49242,1.39673l-0.59035,1.49863l-0.54108,1.26405l-0.7632,1.44699l-0.64297,1.16609l-0.42257,0.55416l-0.30234,0.27326l-0.45583,0.34817l-0.57855,0.27648l-0.39263,0.19306l-0.63953,0.20242l-0.51767,0.05964l-0.69289,-0.0537l-0.95677,-0.10913l-1.84259,-0.26461l-3.56259,-0.74839l-0.99386,-0.22409l-0.84109,-0.2226l-0.98697,-0.32979l-0.70299,-0.22421l-0.83802,-0.23727c0,0 -5.59184,-1.00567 -8.72304,-1.69104c-6.25419,-1.36893 -12.0384,-2.80803 -12.0384,-2.80803l-0.60331,0.10288l-0.608,-0.02057l-0.90971,-0.11456l-1.669,-0.28937l-2.14049,-0.44965l-1.39821,-0.33964l-1.63512,-0.45064l-0.59112,-0.24664l-0.37897,-0.30923l-0.19922,-0.36332l-0.24654,-0.93965l-0.17163,-0.78614l-0.09771,-1.138l-0.06544,-1.43738l0.04273,-1.07789l0.20891,-2.16045l0.49039,-2.74531l0.23541,-1.17282l0.00053,-0.00252l0.69777,-2.88439l0.67806,-2.06189l0.3946,-1.00397l0.63828,-1.28955l0.54736,-1.00249l0.47345,-0.65063l0.60379,-0.76102l0.32857,-0.25244l0.47137,-0.13059l0.6404,0.01206l1.67824,0.24538l1.41669,0.25168l2.14049,0.44965l1.64437,0.40666l0.87892,0.26117l0.56488,0.22582l0.51092,0.33694c0,0 5.87437,1.00999 12.15073,2.27332c3.14231,0.63249 8.66615,1.96186 8.66615,1.96186l0.86266,0.11999l0.73378,0.07761l1.03624,0.09521l0.85957,0.13465l1.00002,0.19477l3.56259,0.74839l1.79331,0.49918l0.91981,0.28507l0.65593,0.22964l0.44992,0.2629l0.50402,0.44265l0.28176,0.33473l0.41839,0.4859l0.27721,0.50216l0.16682,0.37182l0.16387,0.67735l0.11941,1.32624l0.11646,1.63178l-0.01328,1.37492l-0.06256,1.6095l-0.11122,1.47681l-0.2332,1.32872z" fill="none" stroke="#000000" stroke-width="1.5" stroke-linecap="round"/><path d="M175.12882,182.58007c0.10965,0.36645 -0.0536,0.88933 -0.44611,1.31689c-0.48325,0.52639 -1.14007,0.71886 -1.5094,0.45621l-0.11117,-0.08437l-0.04155,-0.04809l-0.04855,-0.07564l-0.00103,-0.08479l0.00597,-0.05724c0,0 0.42079,-0.75865 0.63312,-1.11421c0.21234,-0.35556 0.83191,-0.97969 0.83191,-0.97969c0,0 0.08578,-0.04794 0.14058,-0.04897c0.0548,-0.00104 0.13378,0.04377 0.13378,0.04377l0.08581,0.08377l0.09281,0.11133l0.12568,0.22909z" data-paper-data="{&quot;index&quot;:null}" fill="url(#color-5)" stroke="#000000" stroke-width="0.75" stroke-linecap="butt"/><path d="M179.48335,161.0582l-0.20724,0.15915l-0.12976,0.06457l-0.11227,0.04216c0,0 -0.09034,0.00924 -0.14008,-0.01375c-0.04974,-0.023 -0.10899,-0.1014 -0.10899,-0.1014c0,0 -0.31607,-0.82068 -0.36738,-1.23163c-0.05132,-0.41094 -0.13128,-1.27479 -0.13128,-1.27479l0.01756,-0.05481l0.03506,-0.07721l0.07488,-0.04971l0.05739,-0.02731l0.13572,-0.0325c0.44382,-0.09184 0.96765,0.34867 1.19825,1.025c0.18729,0.54936 0.12637,1.09371 -0.12148,1.38508z" data-paper-data="{&quot;index&quot;:null}" fill="url(#color-6)" stroke="#000000" stroke-width="0.75" stroke-linecap="butt"/><path d="M196.2135,168.98951l-0.21485,0.12185l-0.40455,0.07088l-0.31422,0.01192l-0.38833,-0.05931l-0.9237,-0.16064l-0.99108,-0.26385l-2.10785,-0.56525l-4.8983,-1.69696" data-paper-data="{&quot;index&quot;:null}" fill="none" stroke="#c63939" stroke-width="0.5" stroke-linecap="round"/><path d="M195.53059,164.74015c0,0 0.68942,1.07023 0.87245,2.10861c0.13525,0.76731 -0.20389,2.28743 -0.20389,2.28743l-0.09018,0.21067c0,0 -0.09098,0.13075 -0.12223,0.19133c-0.03673,0.0712 -0.08437,0.20919 -0.08437,0.20919c0,0 -0.08118,0.36251 -0.13904,0.93036c-0.05785,0.56784 -0.10456,1.46048 -0.10456,1.46048l-0.21071,1.94656l-0.09686,0.64616l-0.20454,1.10513l-0.26911,0.99035l-0.59035,1.86681c0,0 -0.31641,0.83597 -0.49194,1.37911c-0.17552,0.54312 -0.24707,0.90767 -0.24707,0.90767c0,0 -0.01191,0.14549 -0.00694,0.22545c0.00423,0.06804 0.03491,0.22435 0.03491,0.22435l-0.00222,0.22915c0,0 -0.30117,1.52809 -0.73375,2.17612c-0.58539,0.87695 -1.64716,1.57932 -1.64716,1.57932" data-paper-data="{&quot;index&quot;:null}" fill="none" stroke="#000000" stroke-width="0.75" stroke-linecap="round"/></g><g><text transform="translate(177.79102,200.98807) rotate(-166.95692) scale(0.07456,0.07456)" font-size="40" xml:space="preserve" fill="#000000" fill-rule="nonzero" stroke="none" stroke-width="1" stroke-linecap="butt" stroke-linejoin="miter" stroke-miterlimit="10" stroke-dasharray="" stroke-dashoffset="0" font-family="Pixel" font-weight="normal" text-anchor="start" style="mix-blend-mode: normal"><tspan x="0" dy="0">made by @itsadiesel</tspan></text><path d="M131.9967,189.22923l0.86362,-3.50082l0.82373,-2.19535l0.64894,-1.538l0.69117,-0.94293l1.02311,-0.82101l1.1362,-0.43463l1.07524,-0.26867l1.55491,0.09008l1.58931,0.23311l1.74043,0.35816l4.67884,1.0839l5.09128,1.24698l17.8376,4.33486l8.19905,1.92191l3.97042,1.03235l1.95383,0.70024l1.99474,0.91233l1.02344,0.73233l0.86036,1.14478l0.40205,0.79098l0.32575,1.60622l-0.01601,3.37296l-0.27164,2.43581l-0.26215,1.27192l-0.19832,0.84431l-0.329,1.27765l-0.82711,2.30712l-1.46879,3.03641l-0.99885,1.29936l-0.70891,0.53362l-1.2761,0.64985l-1.24121,0.20771l-2.19271,-0.05774l-2.06271,-0.23023l-4.01992,-0.8187l-8.20894,-1.87917l-17.92668,-3.9503l-5.12098,-1.1188l-4.67884,-1.0839l-1.72063,-0.44363l-1.52992,-0.48949l-1.43612,-0.60282l-0.84757,-0.71411l-0.82934,-0.88997l-0.55787,-1.18726l-0.20614,-1.1508l0.09346,-1.66668l0.22552,-2.33393l0.76393,-3.52481z" fill="#811d1d" stroke="#000000" stroke-width="1.5" stroke-linecap="round"/><path d="M142.96769,184.36333l2.12056,0.86562l0.03631,0.16648l-0.81956,2.96317l-0.79548,3.21832l-0.81685,3.34648l-0.5926,3.24037l-0.36177,1.813l-0.05603,0.17004l-0.59957,0.00253l-7.39534,-0.75648l-0.14203,-0.14106l-0.35061,-2.76005l0.00924,-2.30231l0.19413,-1.84352l0.29418,-1.62899l0.6946,-2.45968l0.84501,-2.17525l1.28967,-2.15543l0.88568,-1.41709l0.25583,-0.0988z" fill="#202020" stroke="#ff0000" stroke-width="0.05" stroke-linecap="round"/><path d="M186.84698,202.6696l0.25736,-1.11095l0.29696,-1.28188l0.17086,-1.19102l0.22679,-1.2381l0.0297,-0.12819l0.10091,-0.11169l0.18516,0.04289l0.29894,0.26434l0.18934,0.28398l0.09519,0.17213l0.00088,0.25533l-0.13072,1.66556l-0.25214,1.41231l-0.30026,1.29612l-0.02071,0.07539l-0.30026,1.29612l-0.39457,1.37932l-0.61498,1.55337l-0.11307,0.22893l-0.16119,0.11274l-0.29492,0.1718l-0.38472,0.10597l-0.18516,-0.04289l-0.04152,-0.14469l0.0297,-0.12819l0.34074,-1.2117l0.37026,-1.14483l0.29696,-1.28188l0.25736,-1.11095z" data-paper-data="{&quot;index&quot;:null}" fill="#161616" stroke="#000000" stroke-width="0.75" stroke-linecap="round"/><path d="M187.95992,197.65543l-0.29758,1.92279l-0.1417,0.83692l-0.13638,0.55114l-0.31741,1.37016c0,0 -0.01242,0.04906 -0.00908,0.05986c0.00629,0.02029 0.04391,0.05258 0.04391,0.05258l0.63033,0.47031c0,0 0.05312,0.05066 0.04903,0.06833c-0.00342,0.01477 -0.07193,0.03052 -0.07193,0.03052l-0.77293,0.14524c0,0 -0.03801,0.00452 -0.04983,0.01707c-0.01453,0.01541 -0.0309,0.06861 -0.0309,0.06861l-0.31741,1.37016l-0.11986,0.55496l-0.24075,0.81397l-0.57823,1.85777" data-paper-data="{&quot;index&quot;:null}" fill="none" stroke="#cdcdcd" stroke-width="0.75" stroke-linecap="round"/><path d="M180.95626,211.98037l0.77396,-0.36097l1.03067,-0.69169l0.75554,-0.60536l0.71177,-0.67552l0.83803,-0.96143l0.28728,-0.20358c0,0 0.29763,-0.12184 0.49398,-0.13438c0.19634,-0.01255 0.11535,0.09544 0.11535,0.09544l-0.09552,0.21799l-0.61239,1.08874l-0.73277,0.89577l-0.81164,0.84749l-0.80366,0.48915l-0.76302,0.37851l-0.27843,0.10058l-0.13809,0.01304l-0.206,-0.01771l-0.64633,-0.25478l-0.01633,-0.12385z" fill="#ffffff" stroke="#000000" stroke-width="0.75" stroke-linecap="round"/><path d="M179.62139,212.85672l0.26418,-0.10388l0.28172,-0.11482l0.70137,-0.04762l0.85266,-0.11763" fill="none" stroke="#000000" stroke-width="0.75" stroke-linecap="round"/><path d="M188.50291,197.33538l0.21452,0.30482l0.20028,0.30152l0.02832,0.20165l0.0292,0.45699l-0.01925,0.7309l-0.08661,1.34561l-0.26099,1.51531l-0.15087,0.65127l-0.16004,0.67686l-0.12553,0.54188l-0.43191,1.47572l-0.51391,1.24662l-0.30411,0.66491l-0.22718,0.3976l-0.11411,0.16866l-0.31246,0.18274l-0.32671,0.17944" fill="none" stroke="#000000" stroke-width="0.75" stroke-linecap="round"/><path d="M182.18718,211.24384l-3.89452,-0.62582l-3.09972,-0.56926l-2.84505,-0.65908l-0.41557,-0.13722l-0.41709,-0.23694l-0.53521,-0.44289" fill="none" stroke="#000000" stroke-width="0.75" stroke-linecap="round"/><path d="M168.32599,208.93365l0.58899,-0.36743" fill="none" stroke="#000000" stroke-width="0.75" stroke-linecap="round"/><path d="M152.89511,207.12568l-0.10854,-0.52264l0.018,-0.35301l0.06834,-0.40512l-0.48525,-2.25547l0.05357,-0.56162l0.12962,-0.17407l0.11088,-0.0381l2.54239,0.58897l4.12643,1.01971l1.39964,0.40078l1.75326,0.8016l4.64295,2.64461l1.30148,0.82451l0.37119,0.54521l0.14944,0.62141l0.06203,0.44808" fill="none" stroke="#000000" stroke-width="0.75" stroke-linecap="round"/><path d="M164.18637,197.10471l0.29056,-1.46968l0.2648,-1.41839l0.2075,-1.94191l-0.04169,-1.36183l0.06273,-0.38091l0.14453,-0.18337l0.29631,-0.1227l2.25519,-0.15364l4.11264,-0.29739l1.26217,-0.05202l0.43125,0.01061l0.50478,0.07867l0.35198,0.13256l0.55943,0.4485l0.49964,0.65151l0.46879,0.78468l0.3086,0.76033l0.36385,1.513l0.17103,1.51935l-0.22105,2.55107l-0.2642,1.80122l-0.14923,0.6302l-0.55475,1.73391l-0.92323,2.38841l-0.8217,1.28938l-0.99208,1.19888l-0.6115,0.54718l-0.76608,0.49861l-0.73523,0.36544l-0.69966,0.15682l-0.37441,-0.03571l-0.48795,-0.15131l-0.39199,-0.1801l-1.11072,-0.60173l-3.56293,-2.07551l-1.9579,-1.12965l-0.21217,-0.24049l-0.04917,-0.22825l0.11116,-0.36969l0.63627,-1.20477l0.66754,-1.83534l0.38587,-1.39034l0.3366,-1.2648z" fill="#202020" stroke="#000000" stroke-width="0.75" stroke-linecap="round"/><path d="M142.38786,199.8952l0.79815,0.13387l6.81806,1.34986l6.81601,1.579l2.82822,0.73172l2.17255,0.64361" fill="none" stroke="#000000" stroke-width="1" stroke-linecap="round"/><path d="M153.3331,205.78568l-0.45776,-1.71334l-0.06217,-0.28228l0.02347,-0.21142l0.13892,-0.15916l0.31299,-0.02954l0.908,0.21035l0.61743,0.14303l3.61043,0.98947l1.83076,0.57719l1.83712,0.77001l2.52219,1.33691l0.99896,0.58859l0.17024,0.25629l0.03618,0.17421l-0.00206,0.22914l-0.04768,0.20581l-0.38741,-0.08975l-13.7894,-3.19445l-6.23578,-1.49561l-3.1458,-0.79254l-0.23091,-0.10452c0,0 -0.15651,-0.073 -0.17496,-0.18085c-0.01845,-0.10785 0.10452,-0.23091 0.10452,-0.23091l0.47155,-0.27345l1.04898,-0.17795l1.90115,-0.05707l2.17946,0.17323l1.95491,0.26153l1.88685,0.33506l0.31477,0.07292l0.12476,0.06717l0.09863,0.1249l0.42472,2.24145" fill="#202020" stroke="#000000" stroke-width="0.75" stroke-linecap="round"/><path d="M165.77141,208.89265l-14.19497,-3.28841l-9.34105,-2.29789l-0.32821,-0.15257l-0.14189,-0.18595l10.01991,2.50618l14.04969,3.25475z" fill="#343434" stroke="#ff0000" stroke-width="0.05" stroke-linecap="round"/><path d="M165.76095,208.69023l-13.75308,-3.18604l-6.14823,-1.48808l-4.02396,-1.02149" fill="none" stroke="#000000" stroke-width="0.75" stroke-linecap="round"/><path d="M166.34103,209.48026l-0.34964,-0.09259l0.40101,-0.57971l0.11099,-0.07866l0.1761,0.04079l0.09141,0.05597l0.0753,0.07543l0.04726,0.19649l-0.06455,0.22858z" fill="#343434" stroke="#000000" stroke-width="0.75" stroke-linecap="round"/><path d="M166.9583,209.51889l-1.03584,1.2676l-0.50249,0.41704l-0.34561,0.14028l-0.28454,0.02685l-0.49446,-0.06816l-0.09906,-0.02295l-0.09476,-0.09153l-0.03463,-0.10079l0.04079,-0.1761l0.11112,-0.22938l1.04765,-1.21848l0.37284,-0.30791l0.3405,-0.11826l0.43769,0.11299l0.54682,0.24264z" fill="#811d1d" stroke="#000000" stroke-width="0.75" stroke-linecap="round"/><path d="M132.44911,189.36987l0.52858,-2.28169l0.3999,-1.53921l0.53478,-1.43575l0.6023,-1.47788l0.19119,-0.38894l0.20691,-0.26977l0.1551,-0.10848l0.10229,-0.00519l2.31624,0.53658l0.28147,0.09409l2.11886,0.76524l4.66778,1.73119l0.90224,0.46895l0.10113,0.12452l0.01355,0.19087l-0.61278,2.64518l-1.01006,3.83707l-0.23094,0.9661l-0.80515,4.01539l-0.61278,2.64518l-0.0961,0.16547l-0.14558,0.06737l-1.01654,0.02445l-4.95353,-0.49769l-2.23951,-0.24442l-0.29417,-0.03926l-2.31624,-0.53658l-0.08959,-0.04964l-0.0916,-0.16563l-0.06721,-0.33327l-0.00069,-0.4334l0.10891,-1.59218l0.15103,-1.52465l0.31766,-1.55826l0.51109,-2.20619z" fill="none" stroke="#000000" stroke-width="0.75" stroke-linecap="round"/><path d="M134.41604,202.80808l-0.64501,-0.39492l-0.71973,-0.57109l-1.0104,-0.99945l-0.35904,-0.63194l-0.1777,-0.60437l-0.15965,-0.7446" fill="none" stroke="#000000" stroke-width="0.75" stroke-linecap="round"/><path d="M133.57434,199.33497c0,0 -0.4482,-2.75382 -0.40967,-4.27727c0.03486,-1.37831 0.25724,-2.87725 0.43331,-3.87275l0.3407,-1.4504c0.28028,-0.97115 0.73662,-2.4008 1.30633,-3.643c0.63529,-1.3852 2.24875,-3.66142 2.24875,-3.66142" fill="none" stroke="#000000" stroke-width="0.75" stroke-linecap="round"/><path d="M153.3331,205.78568l-0.45776,-1.71334l-0.06217,-0.28228l0.02347,-0.21142l0.13892,-0.15916l0.31299,-0.02954l0.908,0.21035l0.61743,0.14303l3.61043,0.98947l1.83076,0.57719l1.83712,0.77001l2.52219,1.33691l0.99896,0.58859l0.17024,0.25629l0.03618,0.17421l-0.00206,0.22914l-0.04768,0.20581l-0.38741,-0.08975l-13.7894,-3.19445l-6.23578,-1.49561l-3.1458,-0.79254l-0.23091,-0.10452c0,0 -0.15651,-0.073 -0.17496,-0.18085c-0.01845,-0.10785 0.10452,-0.23091 0.10452,-0.23091l0.47155,-0.27345l1.04898,-0.17795l1.90115,-0.05707l2.17946,0.17323l1.95491,0.26153l1.88685,0.33506l0.31477,0.07292l0.12476,0.06717l0.09863,0.1249l0.42472,2.24145" fill="none" stroke="#000000" stroke-width="0.75" stroke-linecap="round"/><path d="M185.56471,191.77731l0.06912,-0.10405l0.69252,0.05538l0.19281,0.07468l0.11829,0.07243l0.20584,0.21277l0.51885,0.67547l0.5067,0.79271l0.3563,1.11805l0.26424,1.12674l0.07127,1.24712l-0.01007,0.23779c0,0 0.02526,0.13261 -0.14556,0.035c-0.17082,-0.0976 -0.38457,-0.33791 -0.38457,-0.33791l-0.1685,-0.30917l-0.3299,-1.23199l-0.34222,-0.91969l-0.41238,-0.87592l-0.62153,-1.07444l-0.53639,-0.66453z" data-paper-data="{&quot;index&quot;:null}" fill="#ffffff" stroke="#000000" stroke-width="0.75" stroke-linecap="round"/><path d="M186.51317,191.80193l-0.71408,-0.48058l-0.60898,-0.35118l-0.20254,-0.22701l-0.19159,-0.20947" data-paper-data="{&quot;index&quot;:null}" fill="none" stroke="#000000" stroke-width="0.75" stroke-linecap="round"/><path d="M175.15106,190.58158l0.67544,-0.16243l0.47879,-0.0294l0.43357,0.0595l2.84505,0.65908l3.03428,0.85175l3.77299,1.15044" data-paper-data="{&quot;index&quot;:null}" fill="none" stroke="#000000" stroke-width="0.75" stroke-linecap="round"/><path d="M173.29357,189.67929l-0.36743,-0.58899" data-paper-data="{&quot;index&quot;:null}" fill="none" stroke="#000000" stroke-width="0.75" stroke-linecap="round"/><path d="M174.34025,187.80422l-0.25274,0.37516l-0.40746,0.49239l-0.57312,0.32646l-1.53146,0.16823l-5.33288,0.33361l-1.92714,-0.051l-1.4333,-0.2555l-4.15448,-0.89865l-2.54239,-0.58897l-0.08283,-0.08297l-0.03987,-0.21334l0.19885,-0.52797l1.4276,-1.81234l0.11676,-0.39391l0.13906,-0.32496l0.3273,-0.42167" data-paper-data="{&quot;index&quot;:null}" fill="none" stroke="#000000" stroke-width="0.75" stroke-linecap="round"/><path d="M165.06076,190.3616l-2.23425,-0.37727l-2.86188,-0.58645l-6.81601,-1.579l-6.7171,-1.7857l-0.77571,-0.23073" data-paper-data="{&quot;index&quot;:null}" fill="none" stroke="#000000" stroke-width="1" stroke-linecap="round"/><path d="M157.05934,185.0893l-1.36707,1.82636l-0.1435,0.06881l-0.14159,0.00547l-0.31477,-0.07292l-1.84198,-0.52876l-1.87077,-0.62473l-2.03362,-0.80277l-1.68239,-0.88724l-0.86387,-0.62108l-0.30327,-0.45294c0,0 -0.05633,-0.1646 0.00767,-0.25335c0.064,-0.08875 0.23666,-0.08549 0.23666,-0.08549l0.25335,0.00767l3.17384,0.67147l6.25822,1.39876l13.7894,3.19445l0.38741,0.08975l-0.04768,0.20581l-0.09891,0.2067l-0.1091,0.14056l-0.2656,0.15533l-1.15602,0.08937l-2.85314,0.09166l-1.98856,-0.11625l-1.89807,-0.28663l-3.67774,-0.69891l-0.61743,-0.14303l-0.908,-0.21035l-0.26812,-0.16416l-0.05478,-0.20403l0.07189,-0.2002l0.17996,-0.22619l1.16452,-1.33752" data-paper-data="{&quot;index&quot;:null}" fill="#202020" stroke="#000000" stroke-width="0.75" stroke-linecap="round"/><path d="M170.59871,188.17892l-14.04969,-3.25475l-10.10124,-2.15509l0.2092,-0.10461l0.36186,0.00729l9.39995,2.04365l14.19497,3.28841z" data-paper-data="{&quot;index&quot;:null}" fill="#343434" stroke="#ff0000" stroke-width="0.05" stroke-linecap="round"/><path d="M146.52277,182.77596l4.06323,0.85199l6.17628,1.36702l13.75308,3.18604" data-paper-data="{&quot;index&quot;:null}" fill="none" stroke="#000000" stroke-width="0.75" stroke-linecap="round"/><path d="M171.75434,188.07911l-0.04254,0.23368l-0.12885,0.1557l-0.10079,0.03463l-0.10671,0.01007l-0.1761,-0.04079l-0.0651,-0.11945l-0.10526,-0.69699l0.35474,0.07058z" data-paper-data="{&quot;index&quot;:null}" fill="#343434" stroke="#000000" stroke-width="0.75" stroke-linecap="round"/><path d="M171.90506,188.07924l-0.59781,-0.02252l-0.44278,-0.09098l-0.25382,-0.25594l-0.19947,-0.44049l-0.40514,-1.55503l0.00106,-0.25488l0.04079,-0.1761l0.07543,-0.0753l0.12536,-0.04054l0.09906,0.02295l0.47406,0.15621l0.24374,0.14924l0.24872,0.27796l0.26792,0.59551l0.37293,1.59395z" data-paper-data="{&quot;index&quot;:null}" fill="#811d1d" stroke="#000000" stroke-width="0.75" stroke-linecap="round"/><path d="M135.28297,181.87466l0.47081,-0.59855l0.42535,-0.46467l0.60034,-0.40968l1.34696,-0.45334l0.89753,-0.19643l0.75296,-0.07107" data-paper-data="{&quot;index&quot;:null}" fill="none" stroke="#000000" stroke-width="0.75" stroke-linecap="round"/><path d="M141.7301,200.09792l0.60172,-3.28315l0.71253,-3.38744l0.08159,-0.35218l0.25608,-1.09143l0.01936,-0.08357l0.84959,-3.35569l0.90325,-3.2133" data-paper-data="{&quot;index&quot;:null}" fill="none" stroke="#000000" stroke-width="0.75" stroke-linecap="round"/><path d="M157.05934,185.0893l-1.36707,1.82636l-0.1435,0.06881l-0.14159,0.00547l-0.31477,-0.07292l-1.84198,-0.52876l-1.87077,-0.62473l-2.03362,-0.80277l-1.68239,-0.88724l-0.86387,-0.62108l-0.30327,-0.45294c0,0 -0.05633,-0.1646 0.00767,-0.25335c0.064,-0.08875 0.23666,-0.08549 0.23666,-0.08549l0.25335,0.00767l3.17384,0.67147l6.25822,1.39876l13.7894,3.19445l0.38741,0.08975l-0.04768,0.20581l-0.09891,0.2067l-0.1091,0.14056l-0.2656,0.15533l-1.15602,0.08937l-2.85314,0.09166l-1.98856,-0.11625l-1.89807,-0.28663l-3.67774,-0.69891l-0.61743,-0.14303l-0.908,-0.21035l-0.26812,-0.16416l-0.05478,-0.20403l0.07189,-0.2002l0.17996,-0.22619l1.16452,-1.33752" data-paper-data="{&quot;index&quot;:null}" fill="none" stroke="#000000" stroke-width="0.75" stroke-linecap="round"/><path d="M187.28792,202.87186c-0.0244,0.10531 -0.12955,0.1709 -0.23486,0.14651c-0.10531,-0.0244 -0.1709,-0.12955 -0.14651,-0.23486c0.0244,-0.10531 0.12955,-0.1709 0.23486,-0.14651c0.10531,0.0244 0.1709,0.12955 0.14651,0.23486z" fill="#282828" stroke="#cdcdcd" stroke-width="0.25" stroke-linecap="butt"/><path d="M186.84697,202.6696l0.25736,-1.11095l0.29696,-1.28188l0.17086,-1.19102l0.22679,-1.2381l0.0297,-0.12819l0.10091,-0.11169l0.18516,0.04289l0.29894,0.26434l0.18934,0.28398l0.09519,0.17213l0.00088,0.25533l-0.13072,1.66556l-0.25214,1.41231l-0.30026,1.29612l-0.02071,0.07539l-0.30026,1.29612l-0.39457,1.37932l-0.61498,1.55337l-0.11307,0.22893l-0.16119,0.11274l-0.29492,0.1718l-0.38472,0.10597l-0.18516,-0.04289l-0.04152,-0.14469l0.0297,-0.12819l0.34074,-1.2117l0.37026,-1.14483l0.29696,-1.28188l0.25736,-1.11095z" data-paper-data="{&quot;index&quot;:null}" fill="none" stroke="#000000" stroke-width="0.75" stroke-linecap="round"/></g></g></g></svg>