<svg version="1.1" xmlns="http://www.w3.org/2000/svg" xmlns:xlink="http://www.w3.org/1999/xlink" width="98.00333" height="44.39218" viewBox="0,0,98.00333,44.39218"><defs><linearGradient x1="194.57161" y1="167.92609" x2="193.12241" y2="167.92609" gradientUnits="userSpaceOnUse" id="color-1"><stop offset="0" stop-color="#4c4c4c"/><stop offset="1" stop-color="#1b1b1b"/></linearGradient><linearGradient x1="280.32884" y1="198.12982" x2="276.48092" y2="198.12982" gradientUnits="userSpaceOnUse" id="color-2"><stop offset="0" stop-color="#4c4c4c"/><stop offset="1" stop-color="#1b1b1b"/></linearGradient><linearGradient x1="280.32884" y1="161.87018" x2="276.48092" y2="161.87018" gradientUnits="userSpaceOnUse" id="color-3"><stop offset="0" stop-color="#4c4c4c"/><stop offset="1" stop-color="#1b1b1b"/></linearGradient><radialGradient cx="287.66469" cy="180.00001" r="12.4598" gradientUnits="userSpaceOnUse" id="color-4"><stop offset="0" stop-color="#4c4c4c"/><stop offset="1" stop-color="#1b1b1b"/></radialGradient><linearGradient x1="193.97193" y1="170.97445" x2="191.37335" y2="170.97445" gradientUnits="userSpaceOnUse" id="color-5"><stop offset="0" stop-color="#4c4c4c"/><stop offset="1" stop-color="#1b1b1b"/></linearGradient><linearGradient x1="198.56948" y1="164.55291" x2="194.02194" y2="164.55291" gradientUnits="userSpaceOnUse" id="color-6"><stop offset="0" stop-color="#4c4c4c"/><stop offset="1" stop-color="#1b1b1b"/></linearGradient><linearGradient x1="198.56948" y1="195.44711" x2="194.02194" y2="195.44711" gradientUnits="userSpaceOnUse" id="color-7"><stop offset="0" stop-color="#4c4c4c"/><stop offset="1" stop-color="#1b1b1b"/></linearGradient><linearGradient x1="194.57161" y1="192.07392" x2="193.12241" y2="192.07392" gradientUnits="userSpaceOnUse" id="color-8"><stop offset="0" stop-color="#4c4c4c"/><stop offset="1" stop-color="#1b1b1b"/></linearGradient><linearGradient x1="193.97193" y1="189.02555" x2="191.37335" y2="189.02555" gradientUnits="userSpaceOnUse" id="color-9"><stop offset="0" stop-color="#4c4c4c"/><stop offset="1" stop-color="#1b1b1b"/></linearGradient><linearGradient x1="258.08372" y1="199.14574" x2="258.08372" y2="198.05257" gradientUnits="userSpaceOnUse" id="color-10"><stop offset="0" stop-color="#813d00"/><stop offset="1" stop-color="#d16503"/></linearGradient><linearGradient x1="258.08372" y1="161.94743" x2="258.08372" y2="160.85426" gradientUnits="userSpaceOnUse" id="color-11"><stop offset="0" stop-color="#d16503"/><stop offset="1" stop-color="#813d00"/></linearGradient><radialGradient cx="267.69481" cy="199.15052" r="9.17006" gradientUnits="userSpaceOnUse" id="color-12"><stop offset="0" stop-color="#669f6c"/><stop offset="1" stop-color="#2f4c38"/></radialGradient><radialGradient cx="267.69481" cy="160.84949" r="9.17006" gradientUnits="userSpaceOnUse" id="color-13"><stop offset="0" stop-color="#669f6c"/><stop offset="1" stop-color="#2f4c38"/></radialGradient><radialGradient cx="240.372" cy="180.00001" r="47.711" gradientUnits="userSpaceOnUse" id="color-14"><stop offset="0" stop-color="#669f6c"/><stop offset="1" stop-color="#4a7756"/></radialGradient><linearGradient x1="223.67099" y1="193.04589" x2="206.09292" y2="193.04589" gradientUnits="userSpaceOnUse" id="color-15"><stop offset="0" stop-color="#2f4c38"/><stop offset="1" stop-color="#2f4c38" stop-opacity="0"/></linearGradient><linearGradient x1="223.67099" y1="193.04589" x2="206.09292" y2="193.04589" gradientUnits="userSpaceOnUse" id="color-16"><stop offset="0" stop-color="#2f4c38"/><stop offset="1" stop-color="#2f4c38" stop-opacity="0"/></linearGradient><linearGradient x1="223.67099" y1="166.95411" x2="206.09292" y2="166.95411" gradientUnits="userSpaceOnUse" id="color-17"><stop offset="0" stop-color="#2f4c38"/><stop offset="1" stop-color="#2f4c38" stop-opacity="0"/></linearGradient><linearGradient x1="223.67099" y1="166.95411" x2="206.09292" y2="166.95411" gradientUnits="userSpaceOnUse" id="color-18"><stop offset="0" stop-color="#2f4c38"/><stop offset="1" stop-color="#2f4c38" stop-opacity="0"/></linearGradient><linearGradient x1="207.11318" y1="180.00001" x2="195.34288" y2="180.00001" gradientUnits="userSpaceOnUse" id="color-19"><stop offset="0" stop-color="#669f6c"/><stop offset="1" stop-color="#4a7756"/></linearGradient><linearGradient x1="266.89461" y1="195.86625" x2="266.89461" y2="191.75596" gradientUnits="userSpaceOnUse" id="color-20"><stop offset="0" stop-color="#94d0b4"/><stop offset="1" stop-color="#94d0b4" stop-opacity="0"/></linearGradient><linearGradient x1="266.89461" y1="195.86625" x2="266.89461" y2="191.75596" gradientUnits="userSpaceOnUse" id="color-21"><stop offset="0" stop-color="#94d0b4"/><stop offset="1" stop-color="#94d0b4" stop-opacity="0"/></linearGradient><radialGradient cx="282.92857" cy="180.00001" r="17.71618" gradientUnits="userSpaceOnUse" id="color-22"><stop offset="0" stop-color="#4c4c4c"/><stop offset="1" stop-color="#1b1b1b"/></radialGradient><linearGradient x1="266.89461" y1="168.24404" x2="266.89461" y2="164.13375" gradientUnits="userSpaceOnUse" id="color-23"><stop offset="0" stop-color="#94d0b4" stop-opacity="0"/><stop offset="1" stop-color="#94d0b4"/></linearGradient><linearGradient x1="266.89461" y1="168.24404" x2="266.89461" y2="164.13375" gradientUnits="userSpaceOnUse" id="color-24"><stop offset="0" stop-color="#94d0b4" stop-opacity="0"/><stop offset="1" stop-color="#94d0b4"/></linearGradient><radialGradient cx="280.70781" cy="194.4568" r="2.59444" gradientUnits="userSpaceOnUse" id="color-25"><stop offset="0" stop-color="#94d0b4"/><stop offset="1" stop-color="#669f6c"/></radialGradient><radialGradient cx="281.23252" cy="194.42765" r="2.44868" gradientUnits="userSpaceOnUse" id="color-26"><stop offset="0" stop-color="#ffffff"/><stop offset="1" stop-color="#bfbfbf"/></radialGradient><linearGradient x1="282.42771" y1="194.3985" x2="281.20337" y2="194.3985" gradientUnits="userSpaceOnUse" id="color-27"><stop offset="0" stop-color="#ffffff"/><stop offset="1" stop-color="#585858"/></linearGradient><radialGradient cx="256.70876" cy="186.86589" r="0.52472" gradientUnits="userSpaceOnUse" id="color-28"><stop offset="0" stop-color="#4c4c4c"/><stop offset="1" stop-color="#1b1b1b"/></radialGradient><linearGradient x1="222.4885" y1="180" x2="208.7506" y2="180" gradientUnits="userSpaceOnUse" id="color-29"><stop offset="0" stop-color="#4c4c4c"/><stop offset="1" stop-color="#1a1a1a"/></linearGradient><linearGradient x1="248.5737" y1="198.05433" x2="248.5737" y2="196.86497" gradientUnits="userSpaceOnUse" id="color-30"><stop offset="0" stop-color="#4a7756"/><stop offset="1" stop-color="#669f6c"/></linearGradient><radialGradient cx="201.41062" cy="180.00001" r="10.4017" gradientUnits="userSpaceOnUse" id="color-31"><stop offset="0" stop-color="#4c4c4c"/><stop offset="1" stop-color="#0c0c0c"/></radialGradient><radialGradient cx="201.44068" cy="174.81649" r="5.11997" gradientUnits="userSpaceOnUse" id="color-32"><stop offset="0" stop-color="#4c4c4c"/><stop offset="1" stop-color="#1b1b1b"/></radialGradient><radialGradient cx="201.44068" cy="185.18351" r="5.11997" gradientUnits="userSpaceOnUse" id="color-33"><stop offset="0" stop-color="#4c4c4c"/><stop offset="1" stop-color="#1b1b1b"/></radialGradient><linearGradient x1="206.01514" y1="180.00001" x2="205.19934" y2="180.00001" gradientUnits="userSpaceOnUse" id="color-34"><stop offset="0" stop-color="#4c4c4c"/><stop offset="1" stop-color="#1b1b1b"/></linearGradient><linearGradient x1="205.06565" y1="180.00001" x2="204.24985" y2="180.00001" gradientUnits="userSpaceOnUse" id="color-35"><stop offset="0" stop-color="#4c4c4c"/><stop offset="1" stop-color="#1b1b1b"/></linearGradient><linearGradient x1="204.16613" y1="180.00001" x2="203.35033" y2="180.00001" gradientUnits="userSpaceOnUse" id="color-36"><stop offset="0" stop-color="#4c4c4c"/><stop offset="1" stop-color="#1b1b1b"/></linearGradient><linearGradient x1="203.16667" y1="180.00001" x2="202.35087" y2="180.00001" gradientUnits="userSpaceOnUse" id="color-37"><stop offset="0" stop-color="#4c4c4c"/><stop offset="1" stop-color="#1b1b1b"/></linearGradient><linearGradient x1="201.21772" y1="180.00001" x2="200.60181" y2="180.00001" gradientUnits="userSpaceOnUse" id="color-38"><stop offset="0" stop-color="#4c4c4c"/><stop offset="1" stop-color="#1b1b1b"/></linearGradient><linearGradient x1="200.36817" y1="180.00001" x2="199.65232" y2="180.00001" gradientUnits="userSpaceOnUse" id="color-39"><stop offset="0" stop-color="#4c4c4c"/><stop offset="1" stop-color="#1b1b1b"/></linearGradient><linearGradient x1="199.36871" y1="180.00001" x2="198.60288" y2="180.00001" gradientUnits="userSpaceOnUse" id="color-40"><stop offset="0" stop-color="#4c4c4c"/><stop offset="1" stop-color="#1b1b1b"/></linearGradient><linearGradient x1="197.46975" y1="180.00001" x2="196.80385" y2="180.00001" gradientUnits="userSpaceOnUse" id="color-41"><stop offset="0" stop-color="#4c4c4c"/><stop offset="1" stop-color="#1b1b1b"/></linearGradient><radialGradient cx="280.70781" cy="165.5432" r="2.59444" gradientUnits="userSpaceOnUse" id="color-42"><stop offset="0" stop-color="#94d0b4"/><stop offset="1" stop-color="#669f6c"/></radialGradient><radialGradient cx="281.23252" cy="165.57235" r="2.44868" gradientUnits="userSpaceOnUse" id="color-43"><stop offset="0" stop-color="#ffffff"/><stop offset="1" stop-color="#bfbfbf"/></radialGradient><linearGradient x1="282.42771" y1="165.6015" x2="281.20337" y2="165.6015" gradientUnits="userSpaceOnUse" id="color-44"><stop offset="0" stop-color="#ffffff"/><stop offset="1" stop-color="#585858"/></linearGradient><radialGradient cx="256.70876" cy="173.13411" r="0.52472" gradientUnits="userSpaceOnUse" id="color-45"><stop offset="0" stop-color="#4c4c4c"/><stop offset="1" stop-color="#1b1b1b"/></radialGradient><linearGradient x1="255.72754" y1="180" x2="244.09242" y2="180" gradientUnits="userSpaceOnUse" id="color-46"><stop offset="0" stop-color="#1a1a1a"/><stop offset="1" stop-color="#4c4c4c"/></linearGradient><linearGradient x1="248.5737" y1="163.13503" x2="248.5737" y2="161.94567" gradientUnits="userSpaceOnUse" id="color-47"><stop offset="0" stop-color="#669f6c"/><stop offset="1" stop-color="#4a7756"/></linearGradient><linearGradient x1="202.11723" y1="180.00001" x2="201.50132" y2="180.00001" gradientUnits="userSpaceOnUse" id="color-48"><stop offset="0" stop-color="#4c4c4c"/><stop offset="1" stop-color="#1b1b1b"/></linearGradient><linearGradient x1="198.41923" y1="180.00001" x2="197.70339" y2="180.00001" gradientUnits="userSpaceOnUse" id="color-49"><stop offset="0" stop-color="#4c4c4c"/><stop offset="1" stop-color="#1b1b1b"/></linearGradient><linearGradient x1="221.85365" y1="167.50725" x2="221.85365" y2="164.77714" gradientUnits="userSpaceOnUse" id="color-50"><stop offset="0" stop-color="#4c4c4c"/><stop offset="1" stop-color="#1a1a1a"/></linearGradient><linearGradient x1="235.37469" y1="167.32642" x2="235.37469" y2="164.2514" gradientUnits="userSpaceOnUse" id="color-51"><stop offset="0" stop-color="#4c4c4c"/><stop offset="1" stop-color="#1a1a1a"/></linearGradient><linearGradient x1="245.2194" y1="167.34405" x2="245.2194" y2="164.27805" gradientUnits="userSpaceOnUse" id="color-52"><stop offset="0" stop-color="#4c4c4c"/><stop offset="1" stop-color="#1a1a1a"/></linearGradient><linearGradient x1="221.85365" y1="195.22287" x2="221.85365" y2="192.49276" gradientUnits="userSpaceOnUse" id="color-53"><stop offset="0" stop-color="#1a1a1a"/><stop offset="1" stop-color="#4c4c4c"/></linearGradient><linearGradient x1="235.37469" y1="195.7486" x2="235.37469" y2="192.67359" gradientUnits="userSpaceOnUse" id="color-54"><stop offset="0" stop-color="#1a1a1a"/><stop offset="1" stop-color="#4c4c4c"/></linearGradient><linearGradient x1="245.2194" y1="195.72196" x2="245.2194" y2="192.65596" gradientUnits="userSpaceOnUse" id="color-55"><stop offset="0" stop-color="#1a1a1a"/><stop offset="1" stop-color="#4c4c4c"/></linearGradient><linearGradient x1="201.76774" y1="163.53672" x2="198.56948" y2="163.53672" gradientUnits="userSpaceOnUse" id="color-56"><stop offset="0" stop-color="#4c4c4c"/><stop offset="1" stop-color="#1b1b1b"/></linearGradient><linearGradient x1="201.76774" y1="196.46329" x2="198.56948" y2="196.46329" gradientUnits="userSpaceOnUse" id="color-57"><stop offset="0" stop-color="#4c4c4c"/><stop offset="1" stop-color="#1b1b1b"/></linearGradient><linearGradient x1="232.34243" y1="198.77727" x2="232.34243" y2="197.96104" gradientUnits="userSpaceOnUse" id="color-58"><stop offset="0" stop-color="#000000" stop-opacity="0"/><stop offset="1" stop-color="#000000"/></linearGradient><linearGradient x1="232.34243" y1="198.77727" x2="232.34243" y2="197.96104" gradientUnits="userSpaceOnUse" id="color-59"><stop offset="0" stop-color="#000000"/><stop offset="1" stop-color="#000000" stop-opacity="0"/></linearGradient><linearGradient x1="232.34243" y1="199.05712" x2="232.34243" y2="198.20591" gradientUnits="userSpaceOnUse" id="color-60"><stop offset="0" stop-color="#1b1b1b"/><stop offset="1" stop-color="#4c4c4c"/></linearGradient><linearGradient x1="232.34243" y1="162.03896" x2="232.34243" y2="161.22273" gradientUnits="userSpaceOnUse" id="color-61"><stop offset="0" stop-color="#000000"/><stop offset="1" stop-color="#000000" stop-opacity="0"/></linearGradient><linearGradient x1="232.34243" y1="162.03896" x2="232.34243" y2="161.22273" gradientUnits="userSpaceOnUse" id="color-62"><stop offset="0" stop-color="#000000" stop-opacity="0"/><stop offset="1" stop-color="#000000"/></linearGradient><linearGradient x1="232.34244" y1="161.79409" x2="232.34244" y2="160.94288" gradientUnits="userSpaceOnUse" id="color-63"><stop offset="0" stop-color="#4c4c4c"/><stop offset="1" stop-color="#1b1b1b"/></linearGradient><linearGradient x1="248.15211" y1="197.35469" x2="248.15211" y2="201.82109" gradientUnits="userSpaceOnUse" id="color-64"><stop offset="0" stop-color="#669f6c"/><stop offset="1" stop-color="#4a7756"/></linearGradient><linearGradient x1="248.82852" y1="199.61195" x2="246.95058" y2="199.61195" gradientUnits="userSpaceOnUse" id="color-65"><stop offset="0" stop-color="#4c4c4c"/><stop offset="1" stop-color="#1b1b1b"/></linearGradient><linearGradient x1="248.15211" y1="162.64531" x2="248.15211" y2="158.17891" gradientUnits="userSpaceOnUse" id="color-66"><stop offset="0" stop-color="#669f6c"/><stop offset="1" stop-color="#4a7756"/></linearGradient><linearGradient x1="248.82852" y1="160.38805" x2="246.95058" y2="160.38805" gradientUnits="userSpaceOnUse" id="color-67"><stop offset="0" stop-color="#4c4c4c"/><stop offset="1" stop-color="#1b1b1b"/></linearGradient><linearGradient x1="206.56516" y1="180.00001" x2="193.47222" y2="180.00001" gradientUnits="userSpaceOnUse" id="color-68"><stop offset="0" stop-color="#4c4c4c"/><stop offset="1" stop-color="#1b1b1b"/></linearGradient></defs><g transform="translate(-190.99834,-157.80391)"><g data-paper-data="{&quot;isPaintingLayer&quot;:true}" fill-rule="nonzero" stroke-linejoin="miter" stroke-miterlimit="10" stroke-dasharray="" stroke-dashoffset="0" style="mix-blend-mode: normal"><path d="M194.57161,166.227c0,0 -0.28352,1.08732 -0.32522,1.6546c-0.04157,0.56545 -0.07456,1.74358 -0.07456,1.74358h-1.04944c0,0 0,-2.26887 0,-2.84847c0,-0.25462 0.34403,-0.5497 0.5497,-0.5497c0.2631,0 0.89951,0 0.89951,0z" data-paper-data="{&quot;index&quot;:null}" fill="url(#color-1)" stroke="#000000" stroke-width="0.75" stroke-linecap="round"/><path d="M280.32884,197.75086c0,0 0,0.27565 0,0.40617c0,0.12146 -0.31458,0.35176 -0.5908,0.35176c-0.64857,0 -3.25713,0 -3.25713,0l2.07187,-0.71845z" data-paper-data="{&quot;index&quot;:null}" fill="url(#color-2)" stroke="#000000" stroke-width="0.75" stroke-linecap="round"/><path d="M278.55279,162.20966l-2.07187,-0.71845c0,0 2.60857,0 3.25713,0c0.27622,0 0.5908,0.23029 0.5908,0.35176c0,0.13052 0,0.40617 0,0.40617z" data-paper-data="{&quot;index&quot;:null}" fill="url(#color-3)" stroke="#000000" stroke-width="0.75" stroke-linecap="round"/><path d="M288.62666,180.12472c0,0 -0.12009,3.36162 -0.40369,6.49851c-0.18171,2.00987 -0.50787,3.92748 -0.65854,4.80952c-0.23151,1.35532 -0.86174,0.97911 -0.86174,0.97911l0.52472,-12.24342v-0.33689l-0.52472,-12.24342c0,0 0.63022,-0.37622 0.86174,0.97911c0.15067,0.88204 0.47683,2.79965 0.65854,4.80952c0.2836,3.13689 0.40369,6.49851 0.40369,6.49851z" data-paper-data="{&quot;index&quot;:null}" fill="url(#color-4)" stroke="#000000" stroke-width="0.75" stroke-linecap="round"/><path d="M193.57217,172.52363c0,0 -2.19881,-0.67966 -2.19881,-1.34928c0,-0.46489 0,-0.92494 0,-1.14939c0,-0.26833 0.74407,-0.59967 1.14938,-0.59967c0.45511,0 1.44922,0 1.44922,0z" data-paper-data="{&quot;index&quot;:null}" fill="url(#color-5)" stroke="#000000" stroke-width="0.75" stroke-linecap="round"/><path d="M198.46952,163.77832l-3.69801,2.49865l-0.74959,-0.04997c0,0 0.08875,-0.58394 0.52561,-1.13973c0.21039,-0.26767 1.02468,-1.01246 1.9562,-1.49996c0.97584,-0.51069 2.06573,-0.75848 2.06573,-0.75848z" data-paper-data="{&quot;index&quot;:null}" fill="url(#color-6)" stroke="#000000" stroke-width="0.75" stroke-linecap="round"/><path d="M198.56948,197.17117c0,0 -1.08991,-0.24779 -2.06573,-0.75848c-0.93153,-0.4875 -1.74581,-1.2323 -1.9562,-1.49996c-0.43686,-0.5558 -0.52561,-1.13973 -0.52561,-1.13973l0.74959,-0.04997l3.69801,2.49865z" data-paper-data="{&quot;index&quot;:null}" fill="url(#color-7)" stroke="#000000" stroke-width="0.75" stroke-linecap="round"/><path d="M194.57161,193.773c0,0 -0.63641,0 -0.89951,0c-0.20569,0 -0.5497,-0.29509 -0.5497,-0.5497c0,-0.5796 0,-2.84847 0,-2.84847h1.04944c0,0 0.03298,1.17813 0.07456,1.74358c0.04171,0.56728 0.32522,1.6546 0.32522,1.6546z" data-paper-data="{&quot;index&quot;:null}" fill="url(#color-8)" stroke="#000000" stroke-width="0.75" stroke-linecap="round"/><path d="M193.97193,190.57472c0,0 -0.99411,0 -1.44922,0c-0.40531,0 -1.14938,-0.33134 -1.14938,-0.59967c0,-0.22444 0,-0.6845 0,-1.14939c0,-0.66962 2.19881,-1.34928 2.19881,-1.34928z" data-paper-data="{&quot;index&quot;:null}" fill="url(#color-9)" stroke="#000000" stroke-width="0.75" stroke-linecap="round"/><path d="M258.84894,199.14574c0,0 -0.75283,0 -1.04944,0c-0.2183,0 -0.56844,-0.21149 -0.56844,-0.34981c0,-0.20164 0,-0.74335 0,-0.74335h1.70534z" data-paper-data="{&quot;index&quot;:null}" fill="url(#color-10)" stroke="#000000" stroke-width="0.75" stroke-linecap="round"/><path d="M258.93639,161.94743h-1.70534c0,0 0,-0.54171 0,-0.74335c0,-0.13832 0.35015,-0.34981 0.56844,-0.34981c0.29661,0 1.04944,0 1.04944,0z" data-paper-data="{&quot;index&quot;:null}" fill="url(#color-11)" stroke="#000000" stroke-width="0.75" stroke-linecap="round"/><path d="M275.44757,199.60798c-0.18545,0.15537 -0.82133,0.26906 -1.47835,0.27994c-2.7379,0.04532 -10.11893,0.15239 -13.29619,0.04892c-0.90161,-0.02936 -1.46471,-0.40717 -1.48714,-0.43163c-0.20197,-0.22033 -0.66115,-0.98475 -0.66115,-0.98475l18.34013,-0.19989c0,0 -1.08128,1.00588 -1.41731,1.28742z" data-paper-data="{&quot;index&quot;:null}" fill="url(#color-12)" stroke="#000000" stroke-width="1" stroke-linecap="round"/><path d="M276.86486,161.67944l-18.34013,-0.19989c0,0 0.45918,-0.76442 0.66115,-0.98475c0.02243,-0.02447 0.58553,-0.40228 1.48714,-0.43163c3.17726,-0.10347 10.55828,0.0036 13.29619,0.04892c0.65702,0.01087 1.2929,0.12456 1.47835,0.27994c0.33603,0.28154 1.41731,1.28742 1.41731,1.28742z" data-paper-data="{&quot;index&quot;:null}" fill="url(#color-13)" stroke="#000000" stroke-width="1" stroke-linecap="round"/><path d="M288.083,180.03781c0,0 -0.01539,3.95846 -0.54568,7.96695c-0.42861,3.23982 -1.26636,6.48809 -2.13559,7.89498c-0.25535,0.41329 -1.34977,1.6515 -2.9767,2.06264c-2.38512,0.60273 -5.51269,0.31228 -5.51269,0.31228l-42.23395,0.04664h-6.43654c0,0 -1.8684,2.07412 -4.10939,2.31157c-2.72614,0.28887 -10.06185,0.33435 -14.1566,0.21797c-0.90235,-0.02565 -1.64732,-0.10472 -2.15088,-0.17395c-0.45399,-0.06241 -0.91072,-0.41447 -1.23647,-0.81862c-0.45531,-0.56491 -1.15832,-1.33785 -1.91196,-1.79678c-1.1249,-0.68499 -5.83518,-0.93853 -8.04483,-2.03437c-2.27926,-1.13036 -2.60147,-5.47167 -2.60147,-5.47167c0,0 -0.74232,-1.97007 -0.9043,-3.28557c-0.00943,-0.07654 0.01178,-0.63661 -0.07144,-1.20478c-0.0925,-0.63152 -0.29048,-1.28483 -0.30502,-1.54426c-0.03391,-0.60511 -0.08851,-4.42976 -0.08851,-4.42976v-0.18221c0,0 0.0546,-3.82465 0.08851,-4.42976c0.01454,-0.25943 0.21252,-0.91274 0.30502,-1.54426c0.08323,-0.56817 0.06202,-1.12824 0.07144,-1.20478c0.16198,-1.31551 0.9043,-3.28557 0.9043,-3.28557c0,0 0.32221,-4.34131 2.60147,-5.47167c2.20965,-1.09583 6.91993,-1.34937 8.04483,-2.03437c0.75364,-0.45893 1.45666,-1.23187 1.91196,-1.79678c0.32574,-0.40415 0.78248,-0.75621 1.23647,-0.81862c0.50357,-0.06922 1.24853,-0.1483 2.15088,-0.17395c4.09475,-0.11637 11.43045,-0.07089 14.1566,0.21797c2.24098,0.23746 4.10939,2.31157 4.10939,2.31157h6.43654l42.23395,0.04664c0,0 3.12757,-0.29044 5.51269,0.31228c1.62693,0.41113 2.72136,1.64934 2.9767,2.06264c0.86923,1.4069 1.70698,4.65516 2.13559,7.89498c0.5303,4.00849 0.54568,7.96695 0.54568,7.96695z" data-paper-data="{&quot;index&quot;:null}" fill="url(#color-14)" stroke="#000000" stroke-width="1" stroke-linecap="round"/><path d="M277.03761,161.72068c0,0 0.87195,0.0758 1.58738,0.28929c0.25222,0.07526 1.14779,0.50063 1.46948,0.80102c0.46947,0.4384 0.33768,0.78002 0.33768,0.78002v0c0,0 -2.48842,-0.42128 -6.18172,-0.51662c-7.22019,-0.18638 -19.0452,-0.11415 -25.88514,-0.12729c-7.75912,-0.01489 -20.99456,0.31802 -26.34089,0.46225c-1.46944,0.03965 -1.69847,-0.37421 -1.02676,-0.9143c0.88925,-0.71499 1.2433,-2.09645 0.79642,-2.37983c-0.80843,-0.51266 -9.62031,-0.64968 -11.26236,0.31609c-1.35772,0.79854 -1.56795,3.53771 -2.49129,3.80855c-0.53129,0.15584 -2.9748,0.02482 -5.50907,0.32023c-2.51409,0.29305 -4.888,1.24638 -4.888,1.24638c0,0 0.39882,-0.87563 2.16088,-1.64426c0.78961,-0.34443 2.32738,-0.46213 3.35286,-0.76178c1.1497,-0.33595 1.77104,-0.84924 2.25488,-1.15264c1.18906,-0.74563 2.41287,-2.82588 2.41287,-2.82588l0.00015,-0.09881c0.50357,-0.06922 1.24853,-0.1483 2.15088,-0.17395c4.09475,-0.11637 11.43045,-0.07089 14.1566,0.21797c2.24098,0.23746 4.10938,2.31157 4.10938,2.31157h6.43654l42.23395,0.04664z" data-paper-data="{&quot;index&quot;:null}" fill="#2f4c38" stroke="#2f4c38" stroke-width="0.75" stroke-linecap="round"/><path d="M276.91235,198.27466l-42.23395,0.04664h-6.43654c0,0 -1.8684,2.07412 -4.10938,2.31157c-2.72614,0.28887 -10.06185,0.33435 -14.1566,0.21797c-0.90235,-0.02565 -1.64732,-0.10472 -2.15088,-0.17395l-0.00015,-0.09881c0,0 -1.22382,-2.08025 -2.41287,-2.82588c-0.48383,-0.3034 -1.10517,-0.81669 -2.25488,-1.15264c-1.02548,-0.29965 -2.56325,-0.41735 -3.35286,-0.76178c-1.76206,-0.76863 -2.16088,-1.64426 -2.16088,-1.64426c0,0 2.3739,0.95332 4.888,1.24638c2.53426,0.2954 4.97778,0.16438 5.50907,0.32023c0.92333,0.27084 1.13357,3.01001 2.49129,3.80855c1.64204,0.96577 10.45393,0.82875 11.26236,0.31609c0.44688,-0.28338 0.09283,-1.66484 -0.79642,-2.37983c-0.67172,-0.54009 -0.44268,-0.95395 1.02676,-0.9143c5.34631,0.14424 18.58177,0.47715 26.34089,0.46225c6.83994,-0.01313 18.66495,0.0591 25.88514,-0.12729c3.6933,-0.09534 6.18172,-0.51662 6.18172,-0.51662v0c0,0 0.13179,0.34162 -0.33768,0.78002c-0.32168,0.30039 -1.21726,0.72576 -1.46948,0.80102c-0.71542,0.2135 -1.58738,0.28929 -1.58738,0.28929z" data-paper-data="{&quot;index&quot;:null}" fill="#2f4c38" stroke="#2f4c38" stroke-width="0.75" stroke-linecap="round"/><path d="M223.67099,195.1885c0,0 -6.6914,-0.52863 -9.86519,-0.99115c-2.42084,-0.35279 -7.6254,-1.63244 -7.6254,-1.63244l-0.08745,-1.6616c0,0 2.03997,0.48134 3.58185,0.64685c2.8101,0.30165 11.89733,1.01475 11.89733,1.01475z" data-paper-data="{&quot;index&quot;:null}" fill="url(#color-15)" stroke="url(#color-16)" stroke-width="0.75" stroke-linecap="round"/><path d="M221.57212,167.43509c0,0 -9.08723,0.7131 -11.89733,1.01475c-1.54188,0.16551 -3.58185,0.64685 -3.58185,0.64685l0.08745,-1.6616c0,0 5.20456,-1.27965 7.6254,-1.63244c3.17379,-0.46251 9.86519,-0.99115 9.86519,-0.99115z" data-paper-data="{&quot;index&quot;:null}" fill="url(#color-17)" stroke="url(#color-18)" stroke-width="0.75" stroke-linecap="round"/><path d="M221.57212,192.56491c0,0 -9.08723,-0.7131 -11.89733,-1.01475c-1.54188,-0.16551 -3.58185,-0.64685 -3.58185,-0.64685" data-paper-data="{&quot;index&quot;:null}" fill="none" stroke="#000000" stroke-width="0.75" stroke-linecap="round"/><path d="M206.09292,169.0967c0,0 2.03997,-0.48134 3.58185,-0.64685c2.8101,-0.30165 11.89733,-1.01475 11.89733,-1.01475" data-paper-data="{&quot;index&quot;:null}" fill="none" stroke="#000000" stroke-width="0.75" stroke-linecap="round"/><path d="M206.81505,180.18031c0,0 0.06062,2.60912 0.15713,5.14315c0.08223,2.15908 0.15424,4.26365 0.13893,4.6534c-0.04213,1.07212 -0.64587,1.59732 -0.64587,1.59732l0.09995,-0.09994c0,0 -9.7255,-0.25851 -10.3958,-0.94376c-0.11034,-0.1128 -0.45594,-0.43035 -0.53887,-0.96444c-0.4141,-2.66664 -0.25931,-9.53564 -0.25931,-9.53564v-0.06079c0,0 -0.1548,-6.86901 0.25931,-9.53564c0.08294,-0.53409 0.42855,-0.85164 0.53887,-0.96444c0.6703,-0.68526 10.3958,-0.94376 10.3958,-0.94376l-0.09995,-0.09994c0,0 0.60373,0.5252 0.64587,1.59732c0.01532,0.38975 -0.0567,2.49431 -0.13893,4.6534c-0.09652,2.53403 -0.15713,5.14315 -0.15713,5.14315z" data-paper-data="{&quot;index&quot;:null}" fill="url(#color-19)" stroke="#000000" stroke-width="0.75" stroke-linecap="round"/><path d="M279.61901,191.75596l0.04372,4.11029h-25.53626c0,0 1.40432,-0.47364 2.52351,-0.74733c1.8427,-0.45062 7.48985,-1.70136 7.48985,-1.70136z" data-paper-data="{&quot;index&quot;:null}" fill="url(#color-20)" stroke="url(#color-21)" stroke-width="0.75" stroke-linecap="round"/><path d="M208.2143,179.76971c0,0 0.07414,-3.61939 0.18386,-5.3919c0.05504,-0.88917 0.17718,-2.21817 0.28258,-3.29691c0.09898,-1.01314 1.12667,-1.89856 2.00396,-1.98505c1.07305,-0.10579 10.08749,-0.98968 11.28581,-0.67127c0.82,0.2179 1.06814,0.86461 1.06395,1.19969c-0.01092,0.87382 -0.13676,2.9951 -0.16242,5.04838c-0.03298,2.63837 0.03436,5.19701 0.03436,5.19701v0.26069c0,0 -0.06734,2.55864 -0.03436,5.19701c0.02566,2.05328 0.1515,4.17456 0.16242,5.04838c0.00419,0.33508 -0.24395,0.98179 -1.06395,1.19969c-1.19833,0.31843 -10.21277,-0.56547 -11.28581,-0.67127c-0.87729,-0.08649 -1.90497,-0.97191 -2.00396,-1.98505c-0.10539,-1.07874 -0.22753,-2.40773 -0.28258,-3.29691c-0.10972,-1.77251 -0.18386,-5.3919 -0.18386,-5.3919z" data-paper-data="{&quot;index&quot;:null}" fill="#1a1a1a" stroke="#000000" stroke-width="0.75" stroke-linecap="round"/><path d="M285.17228,179.87528c0,0 -0.13813,-5.01756 -0.78968,-9.36363c-0.33573,-2.23944 -1.09682,-4.3327 -1.43987,-5.40205c-0.53395,-1.66442 -3.45489,-2.68118 -3.45489,-2.68118c0,0 1.21477,-0.47584 2.3502,0.29888c0.53721,0.36655 1.17165,0.94946 1.65495,1.57082c0.71286,0.91648 1.19972,1.91663 1.39981,2.42962c0.34724,0.89023 0.81219,2.8692 1.03987,5.06545c0.10935,1.05489 0.27789,2.15328 0.33797,3.18697c0.15319,2.63608 0.08226,4.8514 0.08226,4.8514v0.33689c0,0 0.07094,2.21532 -0.08226,4.8514c-0.06008,1.0337 -0.22862,2.13208 -0.33797,3.18697c-0.22768,2.19625 -0.69263,4.17523 -1.03987,5.06545c-0.20009,0.51298 -0.68695,1.51313 -1.39981,2.42962c-0.4833,0.62136 -1.11774,1.20426 -1.65495,1.57082c-1.13543,0.77472 -2.3502,0.29888 -2.3502,0.29888c0,0 2.92094,-1.01676 3.45489,-2.68118c0.34305,-1.06935 1.10414,-3.16262 1.43987,-5.40205c0.65154,-4.34607 0.78968,-9.36363 0.78968,-9.36363z" data-paper-data="{&quot;index&quot;:null}" fill="url(#color-22)" stroke="#000000" stroke-width="0.75" stroke-linecap="round"/><path d="M258.50525,173.59354c0,0 3.12162,0.23574 5.10504,0.31439c2.93092,0.1162 10.77642,0.31528 10.77642,0.31528l-15.77263,0.10105z" data-paper-data="{&quot;index&quot;:null}" fill="#2f4c38" stroke="#2f4c38" stroke-width="0.75" stroke-linecap="round"/><path d="M258.61408,185.67575l15.77263,0.10105c0,0 -7.84549,0.19908 -10.77642,0.31528c-1.98341,0.07863 -5.10504,0.31439 -5.10504,0.31439z" data-paper-data="{&quot;index&quot;:null}" fill="#2f4c38" stroke="#2f4c38" stroke-width="0.75" stroke-linecap="round"/><path d="M264.13984,166.58243c0,0 -5.64715,-1.25074 -7.48985,-1.70136c-1.11919,-0.27369 -2.52351,-0.74733 -2.52351,-0.74733h25.53626l-0.04372,4.11029z" data-paper-data="{&quot;index&quot;:null}" fill="url(#color-23)" stroke="url(#color-24)" stroke-width="0.75" stroke-linecap="round"/><path d="M278.97455,191.17755c0.80695,0.02399 1.33807,0.22908 1.42674,0.36227c0.30921,0.46443 -0.70315,1.87551 -0.70315,1.87551c0,0 -0.2296,-1.14707 -1.01653,-1.11686c-2.46568,0.09465 -14.92905,1.13939 -14.92905,1.13939c0,0 3.03698,-0.70033 6.34461,-1.31971c1.29495,-0.24249 7.57143,-0.97941 8.87739,-0.94059z" data-paper-data="{&quot;index&quot;:null}" fill="#2f4c38" stroke="#2f4c38" stroke-width="0.75" stroke-linecap="round"/><path d="M282.48601,194.4568c0,1.43287 -0.79613,2.59444 -1.77821,2.59444c-0.98208,0 -1.77821,-1.16157 -1.77821,-2.59444c0,-1.43287 0.79613,-2.59444 1.77821,-2.59444c0.98208,0 1.77821,1.16157 1.77821,2.59444z" data-paper-data="{&quot;index&quot;:null}" fill="url(#color-25)" stroke="#000000" stroke-width="1" stroke-linecap="butt"/><path d="M280.03733,194.42765c0,-1.35237 0.5351,-2.44868 1.19519,-2.44868c0.66008,0 1.19519,1.09631 1.19519,2.44868c0,1.35237 -0.5351,2.44868 -1.19519,2.44868c-0.66008,0 -1.19519,-1.09631 -1.19519,-2.44868z" data-paper-data="{&quot;index&quot;:null}" fill="url(#color-26)" stroke="#000000" stroke-width="1" stroke-linecap="butt"/><path d="M281.20337,194.3985c0,-1.11088 0.27408,-2.01141 0.61217,-2.01141c0.3381,0 0.61217,0.90055 0.61217,2.01141c0,1.11088 -0.27408,2.01141 -0.61217,2.01141c-0.3381,0 -0.61217,-0.90055 -0.61217,-2.01141z" data-paper-data="{&quot;index&quot;:null}" fill="url(#color-27)" stroke="#000000" stroke-width="1" stroke-linecap="butt"/><path d="M248.81371,195.80066c0,0 2.11468,0.15779 2.75704,-0.00959c0.14044,-0.03659 0.9255,-0.30403 1.56927,-0.62917c0.62622,-0.31628 1.107,-0.68953 1.55869,-0.79244c3.25806,-0.74234 10.4702,-1.8343 13.16323,-2.31615c5.55134,-0.99325 16.5014,-2.63672 16.5014,-2.63672" data-paper-data="{&quot;index&quot;:null}" fill="none" stroke="#000000" stroke-width="0.75" stroke-linecap="round"/><path d="M249.97246,195.95371c0,0 0.37241,0.6708 0.93223,0.91961c0.44786,0.19905 2.66898,0.09564 3.62193,0.41535c1.30857,0.43901 1.26145,1.06999 1.26145,1.06999" data-paper-data="{&quot;index&quot;:null}" fill="none" stroke="#000000" stroke-width="0.75" stroke-linecap="round"/><path d="M256.75619,166.0376c0,0 0.55223,1.5384 1.00558,3.2441c0.29639,1.11516 0.51045,2.30185 0.63927,3.17688c0.34889,2.37003 0.38406,7.36161 0.38406,7.36161v0.35964c0,0 -0.03517,4.99157 -0.38406,7.36161c-0.12881,0.87504 -0.34288,2.06171 -0.63927,3.17688c-0.45334,1.70571 -1.00558,3.2441 -1.00558,3.2441" data-paper-data="{&quot;index&quot;:null}" fill="none" stroke="#000000" stroke-width="0.75" stroke-linecap="round"/><path d="M256.18405,186.86589c0,-0.20393 0.23493,-0.36925 0.52472,-0.36925c0.28979,0 0.52472,0.16531 0.52472,0.36925c0,0.20393 -0.23493,0.36925 -0.52472,0.36925c-0.28979,0 -0.52472,-0.16531 -0.52472,-0.36925z" data-paper-data="{&quot;index&quot;:null}" fill="url(#color-28)" stroke="#000000" stroke-width="0.75" stroke-linecap="butt"/><path d="M208.06438,191.32432c0,0 -0.27224,-3.1444 -0.34068,-4.84776c-0.07975,-1.98477 -0.10908,-6.34622 -0.10908,-6.34622v-0.26069c0,0 0.02933,-4.36145 0.10908,-6.34622c0.06844,-1.70336 0.34068,-4.84776 0.34068,-4.84776" data-paper-data="{&quot;index&quot;:null}" fill="none" stroke="#000000" stroke-width="0.75" stroke-linecap="round"/><path d="M208.76401,179.86966c0,0 -0.15959,-7.12686 0.6226,-8.96414c0.39834,-0.93564 1.51703,-1.2032 2.02471,-1.2456c2.55125,-0.21311 6.18662,-0.43049 7.78609,-0.59276c0.81756,-0.08294 1.8197,-0.12648 2.45204,0.03767c0.59343,0.15404 0.84328,0.50292 0.839,0.82061c-0.02378,1.7677 -0.13176,9.79431 -0.13176,9.79431v0.56052c0,0 0.10798,8.02661 0.13176,9.79431c0.00428,0.31769 -0.24558,0.66657 -0.839,0.82061c-0.63233,0.16414 -1.63447,0.12061 -2.45204,0.03767c-1.59948,-0.16227 -5.23486,-0.37965 -7.78609,-0.59276c-0.50768,-0.0424 -1.62637,-0.30997 -2.02471,-1.2456c-0.78219,-1.83727 -0.6226,-8.96414 -0.6226,-8.96414z" data-paper-data="{&quot;index&quot;:null}" fill="url(#color-29)" stroke="#000000" stroke-width="0.75" stroke-linecap="round"/><path d="M240.34146,192.68277h1.05721l2.3243,3.03948l-0.78513,0.0311z" data-paper-data="{&quot;index&quot;:null}" fill="#1a1a1a" stroke="#000000" stroke-width="0.75" stroke-linecap="round"/><path d="M229.98703,195.25583h-1.95895l-1.7957,-2.65857l1.74906,0.06997z" data-paper-data="{&quot;index&quot;:null}" fill="#1a1a1a" stroke="#000000" stroke-width="0.75" stroke-linecap="round"/><path d="M227.04861,192.69055l2.20379,2.66476c0,0 0.00493,0.36608 -0.01457,0.79297c-0.01791,0.39215 -0.0637,0.83562 0.00546,1.09371c0.1186,0.44254 0.81369,1.11551 0.81369,1.11551" data-paper-data="{&quot;index&quot;:null}" fill="none" stroke="#000000" stroke-width="0.75" stroke-linecap="round"/><path d="M249.66977,197.28475c0,0.17867 0,0.36821 0,0.46641c0,0.12752 -0.13115,0.30317 -0.25652,0.30317c-0.24549,0 -1.1245,0 -1.60914,0c-0.19525,0 -0.32649,-0.24163 -0.32649,-0.39646c0,-0.10689 0,-0.2984 0,-0.46641c0,-0.17614 0.20193,-0.32649 0.37313,-0.32649c0.27303,0 1.10055,0 1.53917,0c0.16869,0 0.27985,0.20179 0.27985,0.41978z" data-paper-data="{&quot;index&quot;:null}" fill="url(#color-30)" stroke="#000000" stroke-width="0.75" stroke-linecap="butt"/><path d="M196.15421,180.03365c0,0 0.02874,-2.93822 0.14537,-5.55612c0.0802,-1.80007 0.25465,-3.42235 0.27771,-3.93995c0.01421,-0.31892 0.21058,-0.60578 0.52561,-0.61825c1.60645,-0.06362 6.62226,-0.26226 8.04492,-0.31862c0.79322,-0.03141 1.54186,0.24063 1.51862,1.03413c-0.02043,0.69816 -0.04681,1.59927 -0.06723,2.29679c-0.05522,1.88669 -0.20055,6.85215 -0.20055,6.85215v0.43243c0,0 0.14533,4.96546 0.20055,6.85215c0.02041,0.69754 0.04679,1.59863 0.06723,2.29679c0.02322,0.7935 -0.72541,1.06554 -1.51862,1.03413c-1.42267,-0.05634 -6.43847,-0.25499 -8.04492,-0.31862c-0.31503,-0.01247 -0.5114,-0.29933 -0.52561,-0.61825c-0.02306,-0.51761 -0.19751,-2.13988 -0.27771,-3.93995c-0.11664,-2.6179 -0.14537,-5.55612 -0.14537,-5.55612z" data-paper-data="{&quot;index&quot;:null}" fill="url(#color-31)" stroke="#000000" stroke-width="0.75" stroke-linecap="round"/><path d="M206.56065,174.57799l-0.0318,0.54062h-10.20815l0.0318,-0.60422z" data-paper-data="{&quot;index&quot;:null}" fill="url(#color-32)" stroke="#000000" stroke-width="0.75" stroke-linecap="round"/><path d="M196.35251,185.48562l-0.0318,-0.60422h10.20815l0.0318,0.54062z" data-paper-data="{&quot;index&quot;:null}" fill="url(#color-33)" stroke="#000000" stroke-width="0.75" stroke-linecap="round"/><path d="M205.19934,179.9337c0,0 0.01669,-5.02208 0.11793,-6.85361c0.0712,-1.28808 0.28186,-3.14101 0.28186,-3.14101c0,0 0.38917,-0.26039 0.41472,0.99815c0.01601,0.78836 -0.12238,2.39897 -0.17098,4.19484c-0.06329,2.33828 -0.04385,4.65173 -0.04385,4.65173v0.43243c0,0 -0.01943,2.31344 0.04385,4.65173c0.04861,1.79586 0.18699,3.40649 0.17098,4.19484c-0.02555,1.25854 -0.41472,0.99815 -0.41472,0.99815c0,0 -0.21066,-1.85293 -0.28186,-3.14101c-0.10124,-1.83154 -0.11793,-6.85361 -0.11793,-6.85361z" data-paper-data="{&quot;index&quot;:null}" fill="url(#color-34)" stroke="#000000" stroke-width="0.75" stroke-linecap="round"/><path d="M204.24985,179.9337c0,0 0.01669,-4.89681 0.11793,-6.68265c0.0712,-1.25594 0.28186,-3.06267 0.28186,-3.06267c0,0 0.38917,-0.2539 0.41472,0.97325c0.01601,0.76869 -0.12238,2.33913 -0.17098,4.0902c-0.06328,2.27995 -0.04385,4.53569 -0.04385,4.53569v0.42495c0,0 -0.01943,2.25573 0.04385,4.53569c0.04861,1.75107 0.18699,3.3215 0.17098,4.0902c-0.02555,1.22714 -0.41472,0.97325 -0.41472,0.97325c0,0 -0.21066,-1.80671 -0.28186,-3.06267c-0.10124,-1.78584 -0.11793,-6.68265 -0.11793,-6.68265z" data-paper-data="{&quot;index&quot;:null}" fill="url(#color-35)" stroke="#000000" stroke-width="0.75" stroke-linecap="round"/><path d="M203.35033,179.9337c0,0 0.01669,-4.94691 0.11793,-6.75104c0.0712,-1.2688 0.28186,-3.094 0.28186,-3.094c0,0 0.38917,-0.2565 0.41472,0.9832c0.01601,0.77656 -0.12238,2.36307 -0.17098,4.13205c-0.06328,2.30328 -0.04385,4.5821 -0.04385,4.5821v0.42794c0,0 -0.01943,2.27882 0.04385,4.5821c0.04861,1.76898 0.18699,3.35549 0.17098,4.13205c-0.02555,1.23971 -0.41472,0.9832 -0.41472,0.9832c0,0 -0.21066,-1.8252 -0.28186,-3.094c-0.10124,-1.80412 -0.11793,-6.75104 -0.11793,-6.75104z" data-paper-data="{&quot;index&quot;:null}" fill="url(#color-36)" stroke="#000000" stroke-width="0.75" stroke-linecap="round"/><path d="M202.35087,179.9337c0,0 0.01669,-4.94691 0.11793,-6.75104c0.0712,-1.2688 0.28186,-3.094 0.28186,-3.094c0,0 0.38917,-0.2565 0.41472,0.9832c0.01601,0.77656 -0.12238,2.36307 -0.17098,4.13205c-0.06328,2.30328 -0.04385,4.5821 -0.04385,4.5821v0.42794c0,0 -0.01943,2.27882 0.04385,4.5821c0.04861,1.76898 0.18699,3.35549 0.17098,4.13205c-0.02555,1.23971 -0.41472,0.9832 -0.41472,0.9832c0,0 -0.21066,-1.8252 -0.28186,-3.094c-0.10124,-1.80412 -0.11793,-6.75104 -0.11793,-6.75104z" data-paper-data="{&quot;index&quot;:null}" fill="url(#color-37)" stroke="#000000" stroke-width="0.75" stroke-linecap="round"/><path d="M200.60181,179.9337c0,0 0.0126,-4.94691 0.08903,-6.75104c0.05375,-1.2688 0.21279,-3.094 0.21279,-3.094c0,0 0.29381,-0.2565 0.3131,0.9832c0.01209,0.77656 -0.09239,2.36307 -0.12908,4.13205c-0.04777,2.30328 -0.03311,4.5821 -0.03311,4.5821v0.42794c0,0 -0.01467,2.27882 0.03311,4.5821c0.03669,1.76898 0.14117,3.35549 0.12908,4.13205c-0.01929,1.23971 -0.3131,0.9832 -0.3131,0.9832c0,0 -0.15904,-1.8252 -0.21279,-3.094c-0.07644,-1.80412 -0.08903,-6.75104 -0.08903,-6.75104z" data-paper-data="{&quot;index&quot;:null}" fill="url(#color-38)" stroke="#000000" stroke-width="0.75" stroke-linecap="round"/><path d="M199.65232,179.9337c0,0 0.01464,-4.94691 0.10348,-6.75104c0.06247,-1.2688 0.24732,-3.094 0.24732,-3.094c0,0 0.3415,-0.2565 0.36391,0.9832c0.01405,0.77656 -0.10739,2.36307 -0.15004,4.13205c-0.05553,2.30328 -0.03848,4.5821 -0.03848,4.5821v0.42794c0,0 -0.01705,2.27882 0.03848,4.5821c0.04265,1.76898 0.16408,3.35549 0.15004,4.13205c-0.02243,1.23971 -0.36391,0.9832 -0.36391,0.9832c0,0 -0.18485,-1.8252 -0.24732,-3.094c-0.08884,-1.80412 -0.10348,-6.75104 -0.10348,-6.75104z" data-paper-data="{&quot;index&quot;:null}" fill="url(#color-39)" stroke="#000000" stroke-width="0.75" stroke-linecap="round"/><path d="M198.60288,179.9337c0,0 0.01567,-4.94691 0.11071,-6.75104c0.06684,-1.2688 0.26459,-3.094 0.26459,-3.094c0,0 0.36533,-0.2565 0.38932,0.9832c0.01502,0.77656 -0.11488,2.36307 -0.16051,4.13205c-0.05941,2.30328 -0.04117,4.5821 -0.04117,4.5821v0.42794c0,0 -0.01824,2.27882 0.04117,4.5821c0.04562,1.76898 0.17553,3.35549 0.16051,4.13205c-0.02399,1.23971 -0.38932,0.9832 -0.38932,0.9832c0,0 -0.19775,-1.8252 -0.26459,-3.094c-0.09503,-1.80412 -0.11071,-6.75104 -0.11071,-6.75104z" data-paper-data="{&quot;index&quot;:null}" fill="url(#color-40)" stroke="#000000" stroke-width="0.75" stroke-linecap="round"/><path d="M196.80385,179.9337c0,0 0.01362,-4.94691 0.09625,-6.75104c0.05812,-1.2688 0.23007,-3.094 0.23007,-3.094c0,0 0.31765,-0.2565 0.33851,0.9832c0.01306,0.77656 -0.0999,2.36307 -0.13956,4.13205c-0.05165,2.30328 -0.0358,4.5821 -0.0358,4.5821v0.42794c0,0 -0.01586,2.27882 0.0358,4.5821c0.03967,1.76898 0.15262,3.35549 0.13956,4.13205c-0.02086,1.23971 -0.33851,0.9832 -0.33851,0.9832c0,0 -0.17195,-1.8252 -0.23007,-3.094c-0.08264,-1.80412 -0.09625,-6.75104 -0.09625,-6.75104z" data-paper-data="{&quot;index&quot;:null}" fill="url(#color-41)" stroke="#000000" stroke-width="0.75" stroke-linecap="round"/><path d="M270.09716,167.88186c-3.30764,-0.61938 -6.34461,-1.31971 -6.34461,-1.31971c0,0 12.46338,1.04474 14.92905,1.13939c0.78694,0.03021 1.01653,-1.11686 1.01653,-1.11686c0,0 1.01236,1.41108 0.70315,1.87551c-0.08867,0.13318 -0.61979,0.33828 -1.42674,0.36227c-1.30596,0.03882 -7.58244,-0.69811 -8.87739,-0.94059z" data-paper-data="{&quot;index&quot;:null}" fill="#2f4c38" stroke="#2f4c38" stroke-width="0.75" stroke-linecap="round"/><path d="M280.70781,168.13765c-0.98207,0 -1.77821,-1.16157 -1.77821,-2.59444c0,-1.43287 0.79613,-2.59444 1.77821,-2.59444c0.98207,0 1.77821,1.16157 1.77821,2.59444c0,1.43287 -0.79613,2.59444 -1.77821,2.59444z" data-paper-data="{&quot;index&quot;:null}" fill="url(#color-42)" stroke="#000000" stroke-width="1" stroke-linecap="butt"/><path d="M281.23252,163.12367c0.66008,0 1.19519,1.09631 1.19519,2.44868c0,1.35237 -0.5351,2.44868 -1.19519,2.44868c-0.66008,0 -1.19519,-1.09631 -1.19519,-2.44868c0,-1.35237 0.5351,-2.44868 1.19519,-2.44868z" data-paper-data="{&quot;index&quot;:null}" fill="url(#color-43)" stroke="#000000" stroke-width="1" stroke-linecap="butt"/><path d="M281.81555,163.59008c0.3381,0 0.61217,0.90055 0.61217,2.01141c0,1.11088 -0.27408,2.01141 -0.61217,2.01141c-0.3381,0 -0.61217,-0.90055 -0.61217,-2.01141c0,-1.11088 0.27408,-2.01141 0.61217,-2.01141z" data-paper-data="{&quot;index&quot;:null}" fill="url(#color-44)" stroke="#000000" stroke-width="1" stroke-linecap="butt"/><path d="M284.36333,170.5834c0,0 -10.95006,-1.64347 -16.5014,-2.63672c-2.69302,-0.48184 -9.90517,-1.57381 -13.16323,-2.31615c-0.45169,-0.10292 -0.93246,-0.47616 -1.55869,-0.79244c-0.64377,-0.32514 -1.42883,-0.59258 -1.56927,-0.62917c-0.64236,-0.16739 -2.75704,-0.00959 -2.75704,-0.00959" data-paper-data="{&quot;index&quot;:null}" fill="none" stroke="#000000" stroke-width="0.75" stroke-linecap="round"/><path d="M255.78808,161.64134c0,0 0.04711,0.63098 -1.26145,1.06999c-0.95296,0.31971 -3.17408,0.21631 -3.62193,0.41535c-0.55982,0.24881 -0.93223,0.91961 -0.93223,0.91961" data-paper-data="{&quot;index&quot;:null}" fill="none" stroke="#000000" stroke-width="0.75" stroke-linecap="round"/><path d="M256.70876,172.76487c0.28979,0 0.52472,0.16531 0.52472,0.36925c0,0.20392 -0.23493,0.36925 -0.52472,0.36925c-0.28979,0 -0.52472,-0.16531 -0.52472,-0.36925c0,-0.20392 0.23493,-0.36925 0.52472,-0.36925z" data-paper-data="{&quot;index&quot;:null}" fill="url(#color-45)" stroke="#000000" stroke-width="0.75" stroke-linecap="butt"/><path d="M244.19495,180.01958c0,0 -0.16664,-4.76413 -0.3586,-6.93666c-0.09515,-1.07695 -0.31091,-2.64233 -0.48516,-3.82903c-0.07373,-0.50205 -0.05882,-1.07739 0.19465,-1.52739c0.23305,-0.41375 4.30662,-2.46507 5.18647,-2.79155c0.49622,-0.18413 1.55705,-0.46631 2.55952,-0.36382c0.8937,0.09137 1.74101,0.52948 2.10054,0.97333c0.56731,0.70037 1.35112,1.67422 1.73335,2.64746c0.20047,0.51046 0.64903,2.3234 0.87884,4.41893c0.36572,3.33483 0.38385,7.35876 0.38385,7.35876v0.06079c0,0 -0.01812,4.02393 -0.38385,7.35876c-0.22981,2.09554 -0.67836,3.90847 -0.87884,4.41893c-0.38222,0.97325 -1.16603,1.94711 -1.73335,2.64746c-0.35953,0.44385 -1.20684,0.88196 -2.10054,0.97333c-1.00247,0.10249 -2.06331,-0.17969 -2.55952,-0.36382c-0.87984,-0.32648 -4.95342,-2.3778 -5.18647,-2.79155c-0.25346,-0.45 -0.26837,-1.02535 -0.19465,-1.52739c0.17426,-1.18671 0.39001,-2.75208 0.48516,-3.82903c0.19195,-2.17253 0.3586,-6.93666 0.3586,-6.93666z" data-paper-data="{&quot;index&quot;:null}" fill="#1a1a1a" stroke="#000000" stroke-width="0.75" stroke-linecap="round"/><path d="M244.89456,179.86966c0,0 -0.19053,-4.68503 -0.3667,-6.7991c-0.08105,-0.97256 -0.25207,-2.36031 -0.3959,-3.45679c-0.12944,-0.98678 0.05793,-1.75873 0.57696,-2.01272c0.77425,-0.37889 3.06992,-1.58854 4.70856,-2.23598c0.16613,-0.06564 0.32763,-0.12018 0.4809,-0.1655c0.70954,-0.20979 1.61377,-0.15891 2.11353,0.12811c0.37302,0.21423 0.8178,0.55327 1.23366,1.08409c0.98668,1.25943 1.81621,3.57445 1.96049,4.36877c0.72464,3.98933 0.4827,8.9392 0.4827,8.9392v0.56052c0,0 0.24193,4.94987 -0.4827,8.9392c-0.14428,0.79432 -0.97381,3.10934 -1.96049,4.36877c-0.41586,0.53082 -0.86064,0.86987 -1.23366,1.08409c-0.49976,0.28702 -1.40398,0.3379 -2.11353,0.12811c-0.15327,-0.04532 -0.31477,-0.09986 -0.4809,-0.1655c-1.63863,-0.64744 -3.93429,-1.85709 -4.70856,-2.23598c-0.51902,-0.25399 -0.70639,-1.02593 -0.57696,-2.01272c0.14383,-1.09648 0.31486,-2.48423 0.3959,-3.45679c0.17617,-2.11407 0.3667,-6.7991 0.3667,-6.7991z" data-paper-data="{&quot;index&quot;:null}" fill="url(#color-46)" stroke="#000000" stroke-width="0.75" stroke-linecap="round"/><path d="M242.93785,164.24666l0.78513,0.0311l-2.3243,3.03948h-1.05721z" data-paper-data="{&quot;index&quot;:null}" fill="#1a1a1a" stroke="#000000" stroke-width="0.75" stroke-linecap="round"/><path d="M227.98143,167.33278l-1.74906,0.06997l1.7957,-2.65857h1.95895z" data-paper-data="{&quot;index&quot;:null}" fill="#1a1a1a" stroke="#000000" stroke-width="0.75" stroke-linecap="round"/><path d="M230.05699,161.64251c0,0 -0.69509,0.67297 -0.81369,1.11551c-0.06917,0.25809 -0.02337,0.70156 -0.00546,1.09371c0.0195,0.42688 0.01457,0.79297 0.01457,0.79297l-2.20379,2.66476" data-paper-data="{&quot;index&quot;:null}" fill="none" stroke="#000000" stroke-width="0.75" stroke-linecap="round"/><path d="M249.66979,162.71525c0,0.21798 -0.11117,0.41978 -0.27985,0.41978c-0.43863,0 -1.26614,0 -1.53917,0c-0.17121,0 -0.37313,-0.15035 -0.37313,-0.32649c0,-0.16802 0,-0.35952 0,-0.46641c0,-0.15482 0.13124,-0.39646 0.32649,-0.39646c0.48464,0 1.36364,0 1.60914,0c0.12538,0 0.25652,0.17565 0.25652,0.30317c0,0.09821 0,0.28775 0,0.46641z" data-paper-data="{&quot;index&quot;:null}" fill="url(#color-47)" stroke="#000000" stroke-width="0.75" stroke-linecap="butt"/><path d="M201.50132,179.9337c0,0 0.0126,-4.94691 0.08903,-6.75104c0.05376,-1.2688 0.21279,-3.094 0.21279,-3.094c0,0 0.29381,-0.2565 0.3131,0.9832c0.01209,0.77656 -0.09239,2.36307 -0.12908,4.13205c-0.04777,2.30328 -0.0331,4.5821 -0.0331,4.5821v0.42794c0,0 -0.01467,2.27882 0.0331,4.5821c0.03669,1.76898 0.14117,3.35549 0.12908,4.13205c-0.01929,1.23971 -0.3131,0.9832 -0.3131,0.9832c0,0 -0.15904,-1.8252 -0.21279,-3.094c-0.07644,-1.80412 -0.08903,-6.75104 -0.08903,-6.75104z" data-paper-data="{&quot;index&quot;:null}" fill="url(#color-48)" stroke="#000000" stroke-width="0.75" stroke-linecap="round"/><path d="M197.70339,179.9337c0,0 0.01464,-4.94691 0.10348,-6.75104c0.06247,-1.2688 0.24733,-3.094 0.24733,-3.094c0,0 0.3415,-0.2565 0.36391,0.9832c0.01405,0.77656 -0.10739,2.36307 -0.15004,4.13205c-0.05553,2.30328 -0.03848,4.5821 -0.03848,4.5821v0.42794c0,0 -0.01705,2.27882 0.03848,4.5821c0.04265,1.76898 0.16409,3.35549 0.15004,4.13205c-0.02243,1.23971 -0.36391,0.9832 -0.36391,0.9832c0,0 -0.18485,-1.8252 -0.24733,-3.094c-0.08884,-1.80412 -0.10348,-6.75104 -0.10348,-6.75104z" data-paper-data="{&quot;index&quot;:null}" fill="url(#color-49)" stroke="#000000" stroke-width="0.75" stroke-linecap="round"/><path d="M226.20462,167.42636c0,0 -7.72549,0.12524 -9.64046,0.06404c-0.44784,-0.01432 -1.34637,0.00299 -1.30913,-0.36443c0.01239,-0.12228 0.28383,-0.64128 1.07626,-0.94287c1.38624,-0.52759 3.74907,-0.90466 4.68067,-1.01848c3.44346,-0.42075 7.44147,-0.38683 7.44147,-0.38683l-2.24879,2.64857z" data-paper-data="{&quot;index&quot;:null}" fill="url(#color-50)" stroke="#000000" stroke-width="0.75" stroke-linecap="round"/><path d="M227.80376,167.32642l2.0489,-2.54863c0,0 4.45152,-0.25386 6.65078,-0.35459c2.1645,-0.09914 6.44217,-0.1718 6.44217,-0.1718l-2.64857,3.07501z" data-paper-data="{&quot;index&quot;:null}" fill="url(#color-51)" stroke="#000000" stroke-width="0.75" stroke-linecap="round"/><path d="M243.6952,164.27805c0,0 3.63488,0.02611 4.59711,0.06142c0.47016,0.01726 0.84996,0.13848 0.84996,0.13848c0,0 -1.26975,0.32395 -2.69746,0.95196c-1.35035,0.59399 -2.70209,1.46302 -3.39435,1.71435c-0.781,0.28355 -1.75397,0.18216 -1.75397,0.18216z" data-paper-data="{&quot;index&quot;:null}" fill="url(#color-52)" stroke="#000000" stroke-width="0.75" stroke-linecap="round"/><path d="M226.20462,192.57365l2.24879,2.64857c0,0 -3.99801,0.03391 -7.44147,-0.38683c-0.9316,-0.11383 -3.29443,-0.49089 -4.68067,-1.01848c-0.79242,-0.30159 -1.06386,-0.82059 -1.07626,-0.94287c-0.03723,-0.36742 0.8613,-0.35011 1.30913,-0.36443c1.91497,-0.06121 9.64046,0.06404 9.64046,0.06404z" data-paper-data="{&quot;index&quot;:null}" fill="url(#color-53)" stroke="#000000" stroke-width="0.75" stroke-linecap="round"/><path d="M240.29704,192.67359l2.64857,3.07501c0,0 -4.27767,-0.07266 -6.44217,-0.1718c-2.19926,-0.10073 -6.65078,-0.35459 -6.65078,-0.35459l-2.0489,-2.54863z" data-paper-data="{&quot;index&quot;:null}" fill="url(#color-54)" stroke="#000000" stroke-width="0.75" stroke-linecap="round"/><path d="M241.2965,192.67359c0,0 0.97297,-0.1014 1.75397,0.18216c0.69227,0.25134 2.04399,1.12036 3.39435,1.71435c1.4277,0.62802 2.69746,0.95196 2.69746,0.95196c0,0 -0.3798,0.12122 -0.84996,0.13848c-0.96223,0.03531 -4.59711,0.06142 -4.59711,0.06142z" data-paper-data="{&quot;index&quot;:null}" fill="url(#color-55)" stroke="#000000" stroke-width="0.75" stroke-linecap="round"/><path d="M288.083,180.03781c0,0 -0.01539,3.95846 -0.54568,7.96695c-0.42861,3.23982 -1.26636,6.48809 -2.13559,7.89498c-0.25535,0.41329 -1.34977,1.6515 -2.9767,2.06264c-2.38512,0.60273 -5.51269,0.31228 -5.51269,0.31228l-42.23395,0.04664h-6.43654c0,0 -1.8684,2.07412 -4.10939,2.31157c-2.72614,0.28887 -10.06185,0.33435 -14.1566,0.21797c-0.90235,-0.02565 -1.64732,-0.10472 -2.15088,-0.17395c-0.45399,-0.06241 -0.91072,-0.41447 -1.23647,-0.81862c-0.45531,-0.56491 -1.15832,-1.33785 -1.91196,-1.79678c-1.1249,-0.68499 -5.83518,-0.93853 -8.04483,-2.03437c-2.27926,-1.13036 -2.60147,-5.47167 -2.60147,-5.47167c0,0 -0.74232,-1.97007 -0.9043,-3.28557c-0.00943,-0.07654 0.01178,-0.63661 -0.07144,-1.20478c-0.0925,-0.63152 -0.29048,-1.28483 -0.30502,-1.54426c-0.03391,-0.60511 -0.08851,-4.42976 -0.08851,-4.42976v-0.18221c0,0 0.0546,-3.82465 0.08851,-4.42976c0.01454,-0.25943 0.21252,-0.91274 0.30502,-1.54426c0.08323,-0.56817 0.06202,-1.12824 0.07144,-1.20478c0.16198,-1.31551 0.9043,-3.28557 0.9043,-3.28557c0,0 0.32221,-4.34131 2.60147,-5.47167c2.20965,-1.09583 6.91993,-1.34937 8.04483,-2.03437c0.75364,-0.45893 1.45666,-1.23187 1.91196,-1.79678c0.32574,-0.40415 0.78248,-0.75621 1.23647,-0.81862c0.50357,-0.06922 1.24853,-0.1483 2.15088,-0.17395c4.09475,-0.11637 11.43045,-0.07089 14.1566,0.21797c2.24098,0.23746 4.10939,2.31157 4.10939,2.31157h6.43654l42.23395,0.04664c0,0 3.12757,-0.29044 5.51269,0.31228c1.62693,0.41113 2.72136,1.64934 2.9767,2.06264c0.86923,1.4069 1.70698,4.65516 2.13559,7.89498c0.5303,4.00849 0.54568,7.96695 0.54568,7.96695z" data-paper-data="{&quot;index&quot;:null}" fill="none" stroke="#000000" stroke-width="1" stroke-linecap="round"/><g data-paper-data="{&quot;index&quot;:null}" stroke="#000000" stroke-width="0.75" stroke-linecap="round"><path d="M198.56948,164.72782v-1.79903c0,0 0.37759,-0.23677 0.69916,-0.30208c0.36904,-0.07496 1.27636,-0.19477 1.89,-0.27232c0.3532,-0.04463 0.60911,0.08956 0.60911,0.22459c0,0.28108 0,1.29931 0,1.29931z" fill="url(#color-56)"/><path d="M201.16808,163.87826v-1.54917" fill="none"/></g><path d="M198.96925,164.47794v-1.69909" data-paper-data="{&quot;index&quot;:null}" fill="none" stroke="#000000" stroke-width="0.75" stroke-linecap="round"/><g data-paper-data="{&quot;index&quot;:null}" stroke="#000000" stroke-width="0.75" stroke-linecap="round"><path d="M201.76774,196.12174c0,0 0,1.01822 0,1.29931c0,0.13502 -0.25592,0.26922 -0.60911,0.22459c-0.61365,-0.07753 -1.52096,-0.19735 -1.89,-0.27232c-0.32157,-0.06532 -0.69916,-0.30208 -0.69916,-0.30208v-1.79903z" fill="url(#color-57)"/><path d="M201.16808,196.12174v1.54917" fill="none"/></g><path d="M198.96925,197.22115v-1.69909" data-paper-data="{&quot;index&quot;:null}" fill="none" stroke="#000000" stroke-width="0.75" stroke-linecap="round"/><g data-paper-data="{&quot;index&quot;:null}" stroke-width="0.75" stroke-linecap="butt"><path d="M231.45624,198.36916c0,-0.22539 0.39676,-0.40812 0.88619,-0.40812c0.48943,0 0.88619,0.18272 0.88619,0.40812c0,0.22539 -0.39676,0.40812 -0.88619,0.40812c-0.48943,0 -0.88619,-0.18272 -0.88619,-0.40812z" fill="url(#color-58)" stroke="url(#color-59)"/><path d="M229.96371,198.20592l1.07348,0.00611c0,0 0.3191,0.12098 0.6948,0.20954c0.296,0.06978 0.63598,0.1106 0.8221,0.11689c0.35995,0.01218 0.86014,-0.24602 0.86014,-0.24602l1.30693,-0.0632c0,0 -0.23853,0.33938 -0.69548,0.5538c-0.42395,0.19894 -1.04242,0.27409 -1.67157,0.27409c-0.66726,0 -1.45661,-0.11025 -1.88689,-0.30954c-0.41272,-0.19116 -0.50349,-0.54167 -0.50349,-0.54167z" fill="url(#color-60)" stroke="#000000"/></g><path d="M232.34243,161.22273c0.48943,0 0.88619,0.18273 0.88619,0.40812c0,0.2254 -0.39676,0.40812 -0.88619,0.40812c-0.48943,0 -0.88619,-0.18273 -0.88619,-0.40812c0,-0.2254 0.39676,-0.40812 0.88619,-0.40812z" data-paper-data="{&quot;index&quot;:null}" fill="url(#color-61)" stroke="url(#color-62)" stroke-width="0.75" stroke-linecap="butt"/><path d="M229.96371,161.79409c0,0 0.09078,-0.35051 0.50349,-0.54167c0.43028,-0.19929 1.21962,-0.30954 1.88689,-0.30954c0.62916,0 1.24762,0.07515 1.67157,0.27409c0.45696,0.21443 0.69548,0.5538 0.69548,0.5538l-1.30693,-0.0632c0,0 -0.50018,-0.2582 -0.86014,-0.24602c-0.18612,0.00629 -0.52611,0.04711 -0.8221,0.11689c-0.3757,0.08857 -0.6948,0.20954 -0.6948,0.20954l-1.07348,0.00611z" data-paper-data="{&quot;index&quot;:null}" fill="url(#color-63)" stroke="#000000" stroke-width="0.75" stroke-linecap="butt"/><path d="M281.60515,179.88588c0,0 0.05981,-0.60026 0.16047,-0.60026c0.12122,0 0.538,-0.04295 0.81635,0.09006c0.27585,0.13181 0.46736,0.51019 0.46736,0.51019v0.22828c0,0 -0.19149,0.37839 -0.46736,0.5102c-0.27835,0.13301 -0.69512,0.09006 -0.81635,0.09006c-0.10066,0 -0.16047,-0.60026 -0.16047,-0.60026z" data-paper-data="{&quot;index&quot;:null}" fill="#d3c998" stroke="none" stroke-width="0" stroke-linecap="round"/><g data-paper-data="{&quot;index&quot;:null}" stroke-linecap="round"><path d="M248.9235,197.35469c0,0 0.50424,0.02056 0.44714,0.56887c-0.10798,1.03692 -0.84157,2.99994 -1.07946,3.52608c-0.145,0.32071 -0.7446,0.37186 -1.11671,0.37144c-0.17747,-0.0002 -0.27827,-0.10323 -0.23571,-0.25877c0.22594,-0.82556 0.94862,-3.4661 1.07555,-3.92989c0.03723,-0.13603 0.29082,-0.26056 0.41658,-0.26404c0.14985,-0.00417 0.4926,-0.01369 0.4926,-0.01369z" fill="url(#color-64)" stroke="#000000" stroke-width="0.75"/><path d="M247.61338,201.72923c0,0 -0.38646,0.04955 -0.51879,0.06651c-0.08201,0.01051 -0.1647,-0.10881 -0.10791,-0.3292c0.25526,-0.99079 0.95981,-3.72037 0.99427,-3.79833c0.09673,-0.21886 0.49055,-0.33924 0.58982,-0.33924c0.09009,0 0.25775,0 0.25775,0z" fill="url(#color-65)" stroke="none" stroke-width="0"/><path d="M248.83021,197.4713l-1.16604,4.24439" fill="none" stroke="#000000" stroke-width="0.75"/><path d="M248.9235,197.3547c0,0 0.50424,0.02056 0.44714,0.56887c-0.10798,1.03692 -0.84157,2.99994 -1.07946,3.52608c-0.145,0.32071 -0.7446,0.37186 -1.11671,0.37144c-0.17747,-0.0002 -0.27827,-0.10323 -0.23571,-0.25877c0.22594,-0.82556 0.94862,-3.4661 1.07555,-3.92989c0.03723,-0.13603 0.29082,-0.26056 0.41658,-0.26404c0.14985,-0.00417 0.4926,-0.01369 0.4926,-0.01369z" fill="none" stroke="#000000" stroke-width="0.75"/></g><g data-paper-data="{&quot;index&quot;:null}" stroke-linecap="round"><path d="M248.4309,162.63162c-0.12576,-0.0035 -0.37935,-0.12802 -0.41658,-0.26404c-0.12693,-0.46379 -0.84961,-3.10434 -1.07555,-3.92989c-0.04257,-0.15553 0.05823,-0.25857 0.23571,-0.25877c0.37212,-0.00042 0.9717,0.05073 1.11671,0.37144c0.23788,0.52614 0.97148,2.48916 1.07946,3.52608c0.05709,0.54832 -0.44714,0.56887 -0.44714,0.56887c0,0 -0.34275,-0.00952 -0.4926,-0.01369z" fill="url(#color-66)" stroke="#000000" stroke-width="0.75"/><path d="M248.82852,162.67103c0,0 -0.16767,0 -0.25775,0c-0.09927,0 -0.49309,-0.1204 -0.58982,-0.33924c-0.03446,-0.07796 -0.73901,-2.80754 -0.99427,-3.79833c-0.05678,-0.22039 0.02591,-0.33971 0.10791,-0.3292c0.13233,0.01697 0.51879,0.06651 0.51879,0.06651z" fill="url(#color-67)" stroke="none" stroke-width="0"/><path d="M247.66419,158.28431l1.16604,4.24439" fill="none" stroke="#000000" stroke-width="0.75"/><path d="M248.4309,162.63161c-0.12576,-0.0035 -0.37935,-0.12802 -0.41658,-0.26404c-0.12693,-0.46379 -0.84961,-3.10434 -1.07555,-3.92989c-0.04257,-0.15553 0.05823,-0.25857 0.23571,-0.25877c0.37212,-0.00042 0.9717,0.05073 1.11671,0.37144c0.23788,0.52614 0.97148,2.48916 1.07946,3.52608c0.05709,0.54832 -0.44714,0.56887 -0.44714,0.56887c0,0 -0.34275,-0.00952 -0.4926,-0.01369z" fill="none" stroke="#000000" stroke-width="0.75"/></g><path d="M195.37118,180.03039c0,0 -0.1548,6.86901 0.25931,9.53564c0.08294,0.53409 0.42855,0.85164 0.53887,0.96444c0.6703,0.68526 10.3958,0.94376 10.3958,0.94376c0,0 -0.41145,0.68246 -0.59717,1.43677c-0.14458,0.58723 -0.05392,1.23769 -0.16291,1.51623c-0.15856,0.40521 -0.58919,0.49514 -0.58919,0.49514c0,0 -6.81417,-0.72362 -8.87454,-1.35334c-1.29045,-0.39441 -2.29848,-2.06157 -2.29848,-2.06157c0,0 -0.18262,-1.78362 -0.24305,-2.97799c-0.10446,-2.06444 -0.3276,-8.29919 -0.3276,-8.29919v-0.46056c0,0 0.22313,-6.23476 0.3276,-8.29919c0.06044,-1.19438 0.24305,-2.97799 0.24305,-2.97799c0,0 1.00803,-1.66716 2.29848,-2.06157c2.06036,-0.62973 8.87454,-1.35334 8.87454,-1.35334c0,0 0.43063,0.08993 0.58919,0.49514c0.10899,0.27853 0.01833,0.92899 0.16291,1.51623c0.18573,0.75431 0.59717,1.43677 0.59717,1.43677c0,0 -9.7255,0.25851 -10.3958,0.94376c-0.11034,0.1128 -0.45594,0.43035 -0.53887,0.96444c-0.4141,2.66664 -0.25931,9.53564 -0.25931,9.53564z" data-paper-data="{&quot;index&quot;:null}" fill="url(#color-68)" stroke="#000000" stroke-width="0.75" stroke-linecap="round"/><path d="M203.06577,194.99038c-2.52362,-0.17873 -6.50623,-0.7352 -7.60435,-1.24649c-1.50495,-0.70072 -1.53946,-3.21914 -1.53946,-3.21914c0,0 0.29598,1.852 2.00483,2.43473c2.37163,0.80872 6.49271,0.46852 7.63938,0.91502c0.92894,0.36171 1.64971,1.0479 1.64971,1.0479c0,0 -0.9211,0.15504 -2.15013,0.068z" data-paper-data="{&quot;index&quot;:null}" fill="#0c0c0c" stroke="#000000" stroke-width="0.75" stroke-linecap="round"/><path d="M205.21591,165.07763c0,0 -0.72078,0.68619 -1.64971,1.0479c-1.14666,0.44649 -5.26775,0.10629 -7.63938,0.91502c-1.70885,0.58272 -2.00483,2.43473 -2.00483,2.43473c0,0 0.0345,-2.51842 1.53946,-3.21914c1.09811,-0.51129 5.08073,-1.06777 7.60435,-1.24649c1.22902,-0.08704 2.15013,0.068 2.15013,0.068z" data-paper-data="{&quot;index&quot;:null}" fill="#0c0c0c" stroke="#000000" stroke-width="0.75" stroke-linecap="round"/></g></g></svg>