<svg version="1.1" xmlns="http://www.w3.org/2000/svg" xmlns:xlink="http://www.w3.org/1999/xlink" width="431" height="175.74038" viewBox="0,0,431,175.74038"><defs><radialGradient cx="238.5" cy="181" r="215.5" gradientUnits="userSpaceOnUse" id="color-1"><stop offset="0" stop-color="#9c9c9c"/><stop offset="1" stop-color="#9c9c9c" stop-opacity="0"/></radialGradient></defs><g transform="translate(-23,-121.08184)"><g data-paper-data="{&quot;isPaintingLayer&quot;:true}" fill-rule="nonzero" stroke-linejoin="miter" stroke-miterlimit="10" stroke-dasharray="" stroke-dashoffset="0" style="mix-blend-mode: normal"><text transform="translate(179.38211,272.97048) scale(0.63595,0.63595)" font-size="40" xml:space="preserve" fill="#ffffff" fill-rule="nonzero" stroke="#ffffff" stroke-width="1" stroke-linecap="butt" stroke-linejoin="miter" stroke-miterlimit="10" stroke-dasharray="" stroke-dashoffset="0" font-family="Sans Serif" font-weight="normal" text-anchor="start" style="mix-blend-mode: normal"><tspan x="0" dy="0">Grover 75</tspan></text><text transform="translate(195.69484,292.55159) scale(0.34165,0.34165)" font-size="40" xml:space="preserve" fill-opacity="0.74902" fill="#ffffff" fill-rule="nonzero" stroke="none" stroke-width="1" stroke-linecap="butt" stroke-linejoin="miter" stroke-miterlimit="10" stroke-dasharray="" stroke-dashoffset="0" font-family="Sans Serif" font-weight="normal" text-anchor="start" style="mix-blend-mode: normal"><tspan x="0" dy="0">luxary stuff fr</tspan></text><g><path d="M98.69709,178.91411v-4.08763l0.59818,-8.6239l0.84745,-6.38071l1.39577,-7.07858l1.49546,-5.88222l0.94714,-2.09368l0.59818,-0.94714l1.14654,-1.34595l1.49546,-1.19637l1.29609,-0.6979l2.04382,-1.1964l1.14654,-0.44864l1.69487,-0.74773l2.89126,-1.19637l5.53327,-1.94413l7.12844,-1.99396l6.92904,-1.64504l6.72963,-1.44563l3.93809,-0.64804l3.1405,-0.24923l1.84441,-0.09969l16.10127,-0.04986l34.34607,-0.34895l31.0062,-0.24923h50.04856l27.71615,-0.29909h20.58771l4.98491,0.14955l3.78854,0.39878l3.29004,0.44864l4.23718,0.74773l3.93809,0.74773l6.67981,1.64501l6.4804,2.49245l2.39277,1.39577l2.99095,2.34291l1.64504,1.79458l2.04382,2.84141l2.09368,3.8384l1.94413,4.58613l1.74472,5.03477l0.84745,4.03777l0.19941,2.4426v1.39577l0.4985,8.47436l0.16031,3.74054l-0.03784,7.73642l-0.12248,2.85799l-0.4985,8.47436v1.39577l-0.19941,2.4426l-0.84745,4.03777l-1.74472,5.03477l-1.94413,4.58613l-2.09368,3.8384l-2.04382,2.84141l-1.64504,1.79458l-2.99095,2.34291l-2.39277,1.39577l-6.4804,2.49245l-6.67981,1.64501l-3.93809,0.74773l-4.23718,0.74773l-3.29004,0.44864l-3.78854,0.39878l-4.98491,0.14955h-20.58771l-27.71615,-0.29909h-50.04856l-31.0062,-0.24923l-34.34607,-0.34895l-16.10127,-0.04986l-1.84441,-0.09969l-3.1405,-0.24923l-3.93809,-0.64804l-6.72963,-1.44563l-6.92904,-1.64504l-7.12844,-1.99396l-5.53327,-1.94413l-2.89126,-1.19637l-1.69487,-0.74773l-1.14654,-0.44864l-2.04382,-1.1964l-1.29609,-0.6979l-1.49546,-1.19637l-1.14654,-1.34595l-0.59818,-0.94714l-0.94714,-2.09368l-1.49546,-5.88222l-1.39577,-7.07858l-0.84745,-6.38071l-0.59818,-8.6239v-4.08763z" fill="#ccbc9b" stroke="#000000" stroke-width="1.5" stroke-linecap="round"/><path d="M286.16848,132.91296l-9.14151,3.61775c0,0 -6.79149,2.65176 -11.60651,4.54414c-6.02833,2.36925 -12.6234,4.048 -12.6234,4.048l-7.1756,1.15567l-5.89773,0.35172l-15.28498,0.45223l-14.7935,0.15074l-8.06025,-0.25122l-4.4233,-0.35172l-3.68608,-0.60297l-5.652,-1.25617l-9.23981,-3.31626l-8.74833,-3.96947l-0.78635,-0.60297l-0.34404,-0.40199l-0.06402,-0.48871l0.10057,-0.44776l0.39544,-0.54376l1.14981,-0.49352c0,0 4.97591,-0.3933 11.01182,-0.66696c17.9634,-0.81449 35.76784,-1.14154 35.76784,-1.14154l32.1427,-0.58918l16.66111,0.15074l15.92393,0.25122l6.34008,0.30148l1.22869,0.20098l0.63891,0.15074l0.63891,0.40199l-1.42794,-0.66063" data-paper-data="{&quot;index&quot;:null}" fill="#333333" stroke="#000000" stroke-width="0" stroke-linecap="round"/><path d="M272.72391,138.18059c-2.24744,0.87911 -5.00134,1.95748 -7.30342,2.86224c-6.02833,2.36925 -12.6234,4.048 -12.6234,4.048l-7.1756,1.15567l-5.89773,0.35172l-15.28498,0.45223l-14.7935,0.15074l-8.06025,-0.25122l-4.4233,-0.35172l-3.68608,-0.60297l-5.652,-1.25617l-9.23981,-3.31626l-8.74833,-3.96947l-0.78635,-0.60297l-0.34404,-0.40199l-0.06402,-0.48871l0.10057,-0.44776l0.39544,-0.54376l1.14981,-0.49352c0,0 4.97591,-0.3933 11.01182,-0.66696c17.9634,-0.81449 35.76784,-1.14154 35.76784,-1.14154l32.1427,-0.58918l16.66111,0.15074l9.23795,0.14574l-0.04728,0.05524l-2.18222,5.49911z" data-paper-data="{&quot;index&quot;:null}" fill="#ababab" stroke="#000000" stroke-width="0" stroke-linecap="round"/><path d="M289.21301,227.09446l1.42794,-0.66063l-0.63891,0.40199l-0.63891,0.15074l-1.22869,0.20098l-6.34008,0.30148l-15.92393,0.25122l-16.66111,0.15074l-32.1427,-0.58918c0,0 -17.80444,-0.32704 -35.76784,-1.14154c-6.03592,-0.27369 -11.01182,-0.66696 -11.01182,-0.66696l-1.14981,-0.49352l-0.39544,-0.54376l-0.10057,-0.44776l0.06402,-0.48871l0.34404,-0.40199l0.78635,-0.60297l8.74833,-3.96947l9.23981,-3.31626l5.652,-1.25617l3.68608,-0.60297l4.4233,-0.35172l8.06025,-0.25122l14.7935,0.15074l15.28498,0.45223l5.89773,0.35172l7.1756,1.15567c0,0 6.59504,1.67875 12.6234,4.048c4.81503,1.89238 11.60651,4.54414 11.60651,4.54414l9.14151,3.61775" fill="#333333" stroke="#000000" stroke-width="0" stroke-linecap="round"/><path d="M272.87887,222.04015l2.18222,5.49911l0.04728,0.05524l-9.23795,0.14574l-16.66111,0.15074l-32.1427,-0.58918c0,0 -17.80444,-0.32704 -35.76784,-1.14154c-6.03592,-0.27369 -11.01182,-0.66696 -11.01182,-0.66696l-1.14981,-0.49352l-0.39544,-0.54376l-0.10057,-0.44776l0.06402,-0.48871l0.34404,-0.40199l0.78635,-0.60297l8.74833,-3.96947l9.23981,-3.31626l5.652,-1.25617l3.68608,-0.60297l4.4233,-0.35172l8.06025,-0.25122l14.7935,0.15074l15.28498,0.45223l5.89773,0.35172l7.1756,1.15567c0,0 6.59504,1.67875 12.6234,4.048c2.30208,0.90477 5.05598,1.9831 7.30342,2.86224z" fill="#ababab" stroke="#000000" stroke-width="0" stroke-linecap="round"/><path d="M291.23076,225.73038l-0.58978,0.70344l-0.63891,0.40199l-0.63891,0.15074l-1.22869,0.20098l-6.34008,0.30148l-15.92393,0.25122l-16.66111,0.15074l-32.1427,-0.58918c0,0 -17.80444,-0.32704 -35.76784,-1.14154c-6.03592,-0.27369 -11.01182,-0.66696 -11.01182,-0.66696l-1.14981,-0.49352l-0.39544,-0.54376l-0.10057,-0.44776l0.06402,-0.48871l0.34404,-0.40199l0.78635,-0.60297l8.74833,-3.96947l9.23981,-3.31626l5.652,-1.25617l3.68608,-0.60297l4.4233,-0.35172l8.06025,-0.25122l14.7935,0.15074l15.28498,0.45223l5.89773,0.35172l7.1756,1.15567c0,0 6.59504,1.67875 12.6234,4.048c4.81503,1.89238 11.60651,4.54414 11.60651,4.54414l9.14151,3.61775" fill="none" stroke="#000000" stroke-width="0.75" stroke-linecap="round"/><path d="M261.82497,178.44545l-0.73964,-13.88905l-0.90401,-13.31378l-0.09009,-3.39766l0.21414,-1.49899l0.47111,-1.02787l0.7709,-0.72809l2.65535,-1.3705l13.27673,-5.13937l9.07956,-2.91232l3.46908,-0.72809l1.75596,-0.04284h2.82667l1.41334,0.17133l1.11352,0.29978l0.81374,0.55676l1.84161,1.67031l1.88445,2.31272l3.25495,5.43918l2.31272,5.09656l1.71312,5.73897l1.1992,5.35353l0.42827,2.74099l0.38546,4.5398l0.34262,4.45412l0.21414,4.79674v1.24201v2.38052v1.24201l-0.21414,4.79674l-0.34262,4.45412l-0.38546,4.5398l-0.42827,2.74099l-1.1992,5.35353l-1.71312,5.73897l-2.31272,5.09656l-3.25495,5.43918l-1.88445,2.31272l-1.84161,1.67031l-0.81374,0.55676l-1.11352,0.29978l-1.41334,0.17133h-2.82667l-1.75596,-0.04284l-3.46908,-0.72809l-9.07956,-2.91232l-13.27673,-5.13937l-2.65535,-1.3705l-0.7709,-0.72809l-0.47111,-1.02787l-0.21414,-1.49899l0.09009,-3.39766l0.90401,-13.31378l0.73964,-13.88905z" fill="#b9b9b9" stroke="#000000" stroke-width="0.75" stroke-linecap="round"/><path d="M262.76049,178.07667l-0.30407,-5.3214l-0.25339,-5.67617l-0.45613,-6.63907l-0.60816,-7.95675l-0.15203,-5.16936l0.10136,-1.06429l0.40545,-0.65884l0.86155,-0.65884l1.52039,-0.81087l10.89621,-4.2571l11.1496,-3.80101l3.24352,-0.76019l1.97652,-0.20271h1.52039l2.43265,0.05068l1.57107,0.35474l1.52039,1.01361l2.534,2.99013l2.534,3.90236l2.58468,5.3214l1.41903,3.5983l1.57107,5.77752l1.01361,5.8282l0.81087,10.69347l0.10136,4.20643v2.32626l-0.10136,4.20643l-0.81087,10.69347l-1.01361,5.8282l-1.57107,5.77752l-1.41903,3.5983l-2.58468,5.3214l-2.534,3.90236l-2.534,2.99013l-1.52039,1.01361l-1.57107,0.35474l-2.43265,0.05068h-1.52039l-1.97652,-0.20271l-3.24352,-0.76019l-11.1496,-3.80101l-10.89621,-4.2571l-1.52039,-0.81087l-0.86155,-0.65884l-0.40545,-0.65884l-0.10136,-1.06429l0.15203,-5.16936l0.60816,-7.95675l0.45613,-6.63907l0.25339,-5.67617l0.30407,-5.3214z" fill="#404040" stroke="#000000" stroke-width="0.5" stroke-linecap="round"/><path d="M105.30777,178.32109v-1.33499l0.11124,-2.66998l0.22251,-3.26329l0.29667,-3.0037l0.29667,-1.77998l0.37083,-2.11373l0.33375,-1.03832l0.33375,-0.48207l0.25959,-0.18543l0.33375,-0.11124l0.29667,0.03708l0.18543,0.18543l0.07416,0.40791l-0.07416,1.29791l-0.25959,4.33869l-0.14832,4.96911v4.67244v3.50613v4.67244l0.14832,4.96911l0.25959,4.33869l0.07416,1.29791l-0.07416,0.40791l-0.18543,0.18543l-0.29667,0.03708l-0.33375,-0.11124l-0.25959,-0.18543l-0.33375,-0.48207l-0.33375,-1.03832l-0.37083,-2.11373l-0.29667,-1.77998l-0.29667,-3.0037l-0.22251,-3.26329l-0.11124,-2.66998v-1.33499z" fill="#cacaca" stroke="#000000" stroke-width="0" stroke-linecap="round"/><path d="M106.78422,163.60001l-0.1785,0.55541l-0.37083,2.11373l-0.29667,1.77998l-0.29667,3.0037l-0.22251,3.26329l-0.11124,2.66998v1.33499v3.35781v1.33499l0.11124,2.66998l0.22251,3.26329l0.29667,3.0037l0.29667,1.77998l0.37083,2.11373l0.20073,0.62453l-0.16365,-0.03119l-1.7429,-1.59458l-0.48207,-0.51918l-0.44499,-0.6675l-0.33375,-0.81581l-0.18543,-1.18664l-0.18543,-3.67123l-0.11124,-3.70831v-2.6329v-3.28362v-2.6329l0.11124,-3.70831l0.18543,-3.67123l0.18543,-1.18664l0.33375,-0.81581l0.44499,-0.6675l0.48207,-0.51918l1.7429,-1.59458z" fill="#efbd27" stroke="#000000" stroke-width="0" stroke-linecap="round"/><path d="M373.23945,161.60389l0.98957,0.04284l1.45526,0.21414l0.75673,0.25698l0.75673,0.72809l0.69853,1.32769l0.93137,2.22707l0.81493,4.45415l0.34927,4.28282v9.7067l-0.34927,4.28282l-0.81493,4.45415l-0.93137,2.22707l-0.69853,1.32769l-0.75673,0.72809l-0.75673,0.25698l-1.45526,0.21414l-0.98957,0.04284z" data-paper-data="{&quot;index&quot;:null}" fill="#ad9f84" stroke="#9f9279" stroke-width="0.25" stroke-linecap="round"/><path d="M371.74792,176.80297l-0.02194,-4.30262l0.04284,-5.52483l0.08565,-4.23998l0.12849,-0.51395l0.29978,-0.42827l0.55676,-0.17133l0.72809,0.04284l1.07071,0.21414l0.55676,0.25698l0.55676,0.72809l0.51395,1.32766l0.68525,2.22707l0.5996,4.45415l0.25698,4.28282v1.63862v7.5994v0.45059l-0.25698,4.28282l-0.5996,4.45415l-0.68525,2.22707l-0.51395,1.32766l-0.55676,0.72809l-0.55676,0.25698l-1.07071,0.21414l-0.72809,0.04284l-0.55676,-0.17133l-0.29978,-0.42827l-0.12849,-0.51395l-0.08565,-4.23998l-0.04284,-5.52483l0.01687,-3.30578z" data-paper-data="{&quot;index&quot;:null}" fill="#b9b9b9" stroke="#000000" stroke-width="0" stroke-linecap="round"/><path d="M372.69689,176.99186l-0.01489,-4.04835l0.02905,-5.19835l0.05814,-3.98943l0.08719,-0.48358l0.20343,-0.40297l0.37782,-0.16119l0.49406,0.04029l0.72655,0.20148l0.37782,0.24177l0.37782,0.68506l0.34873,1.24922l0.46501,2.09547l0.40687,4.19094l0.17438,4.02975v1.54176v7.15032v0.42396l-0.17438,4.02975l-0.40687,4.19094l-0.46501,2.09547l-0.34873,1.24922l-0.37782,0.68506l-0.37782,0.24177l-0.72655,0.20148l-0.49406,0.04029l-0.37782,-0.16119l-0.20343,-0.40297l-0.08719,-0.48358l-0.05814,-3.98943l-0.02905,-5.19835l0.01146,-3.11044z" data-paper-data="{&quot;index&quot;:null}" fill="#333333" stroke="#000000" stroke-width="0" stroke-linecap="round"/><path d="M376.80879,179.76093v0.46195l-0.06642,0.03056l-3.69968,0.09308l-0.34741,-0.12266l0.00016,-0.31577l0.35276,-0.25455l3.69417,0.09295z" data-paper-data="{&quot;index&quot;:null}" fill="#b9b9b9" stroke="#000000" stroke-width="0" stroke-linecap="round"/><path d="M112.91712,218.90446l-1.48407,-1.22967l-1.24201,-1.54183l-1.1992,-1.79877l-1.49899,-3.29779l-1.07071,-2.48405l-0.85658,-2.74099l-0.15682,-0.39683c0,0 -0.02077,-0.07356 0.0073,-0.08688c0.02329,-0.01102 0.14951,0.01259 0.14951,0.01259l0.72809,0.34262c0,0 3.28661,1.41954 5.20984,2.6443c1.92323,1.22476 3.3558,2.81053 3.3558,2.81053l0.78333,1.05044l0.29749,0.64011l0.37533,1.16325c0,0 0.35578,2.98834 -0.37366,4.09708c-0.72944,1.10874 -2.83845,0.78534 -2.83845,0.78534l-0.04693,0.04108z" fill="#9a3737" stroke="#000000" stroke-width="0" stroke-linecap="round"/><path d="M106.47175,208.68094l-0.10724,-0.31291l-0.79894,-2.55664l-0.15682,-0.39683c0,0 -0.02077,-0.07356 0.0073,-0.08688c0.02329,-0.01102 0.14951,0.01259 0.14951,0.01259l0.72809,0.34262c0,0 1.89764,0.81959 3.65281,1.75058l0.165,0.14501c0,0 1.88269,3.13109 0.71975,3.35618c-0.91393,0.1769 -3.00634,-1.32681 -3.8605,-1.97888z" fill="#d6d6d6" stroke="#000000" stroke-width="0" stroke-linecap="round"/><path d="M274.26382,227.12613l-8.67427,0.09604l-16.22828,0.09604l-12.1312,-0.19204l-17.47658,-0.32009l-13.92367,-0.25606l-15.65213,-0.57615l-11.33097,-0.48011l-6.84981,-0.38411l-1.72845,-0.19204l-0.64017,-0.28808l-0.28808,-0.3521l-0.09604,-0.32009l0.06402,-0.32009l0.64017,-0.54414l5.69751,-2.6567l9.9226,-3.74498l2.84874,-0.92825l4.73725,-1.05627l2.27259,-0.41612l3.68095,-0.48011l2.84874,-0.22405l6.08159,-0.06402h3.26486h10.9789l17.47658,0.4481l4.48119,0.32009l2.75274,0.25606l4.70524,0.76819l2.72072,0.67219l6.33765,1.92049l3.68098,1.21632l5.69329,2.16075l2.05254,0.91223l0.15203,0.19006l1.89251,4.55119z" fill="#666666" stroke="#000000" stroke-width="0" stroke-linecap="round"/><path d="M170.78815,224.99203l-0.78223,-0.12597l-0.52912,-0.27646l-0.26765,-0.58141l0.09742,-0.42185l0.57794,-0.46881l2.89155,-1.33808l1.79597,-0.84591l-0.22666,4.38027z" fill="#333333" stroke="#000000" stroke-width="0" stroke-linecap="round"/><path d="M226.22335,213.65181l6.2453,13.2004l0.04249,0.18744l-8.35818,-0.15307l0.27558,-0.1464l-4.09802,-13.21765h1.95165z" fill="#333333" stroke="#000000" stroke-width="0" stroke-linecap="round"/><path d="M178.64031,208.87591l5.2128,-0.48871l7.43909,-0.43441l10.5342,-0.10859h11.7831l22.64311,0.97742l19.548,1.3575l4.31005,0.21719v1.11702l-4.31005,-0.21719l-19.548,-1.3575l-22.64311,-0.97738h-11.7831l-10.5342,0.10859l-7.43909,0.43441l-5.2128,0.48871" fill="#333333" stroke="#000000" stroke-width="0.75" stroke-linecap="round"/><path d="M369.00844,212.23369c1.66949,0.99643 2.5063,2.95375 1.88177,4.54477c-0.66831,1.70258 -2.75702,2.34096 -4.66523,1.42583c-0.01316,-0.0063 -0.02625,-0.01265 -0.03931,-0.01907" data-paper-data="{&quot;index&quot;:null}" fill="#ad9f84" stroke="#9f9279" stroke-width="0.25" stroke-linecap="butt"/><g><path d="M362.94482,218.52659l2.01432,-2.76035l2.09859,-3.68322l0.67338,-1.51941l0.33771,-0.15553c0.51509,-0.2657 0.97893,-0.32714 1.33858,-0.13809c1.1359,0.59711 0.80256,3.46697 -0.74452,6.41002c-1.54708,2.94301 -3.72209,4.84477 -4.85799,4.24763c-0.55251,-0.29044 -0.75739,-1.11856 -0.64411,-2.23126z" data-paper-data="{&quot;index&quot;:null}" fill="#cfcfcf" stroke="#000000" stroke-width="0" stroke-linecap="round"/><path d="M365.70294,218.90645c0.01133,0.02128 0.01775,0.04558 0.01775,0.07139c0,0.01155 -0.00129,0.02279 -0.00371,0.03359c0.18864,-0.02471 0.37785,-0.04611 0.56771,-0.06339c0,0 0.1514,-0.01376 0.16519,0.13765c0.01376,0.1514 -0.13765,0.16519 -0.13765,0.16519c-0.49425,0.04489 -0.98371,0.11835 -1.47122,0.20529c-0.24464,0.0797 -0.50105,0.13626 -0.74049,0.14067c-0.0238,0.00475 -0.04762,0.00947 -0.07142,0.01423l-0.08219,0.01643v0.02943h-0.16217v0c-0.08398,0 -0.15203,-0.06808 -0.15203,-0.15203c0,-0.07473 0.05392,-0.13689 0.12499,-0.14964l0.21178,-0.04237c0.05955,-0.0119 0.11908,-0.02373 0.17863,-0.03547c0.14338,-0.06528 0.34184,-0.11949 0.53904,-0.16865c-0.00019,-0.00308 -0.00028,-0.0062 -0.00028,-0.00935c0,-0.06276 0.03802,-0.11662 0.09226,-0.13985l0.05039,-0.02288c0.00022,-0.00016 0.00044,-0.00035 0.00066,-0.0005l0.24184,-0.18137l0.01848,0.02461c0.00485,-0.00375 0.00966,-0.00749 0.01451,-0.01121c0.41795,-0.43457 0.93313,-0.79639 1.38683,-1.20886c-0.02207,-0.01637 -0.03957,-0.03856 -0.05017,-0.06431c-0.17221,0.12093 -0.34952,0.23963 -0.52192,0.35635l-0.01243,0.01986c-0.02109,0.03497 -0.05584,0.06078 -0.09689,0.06997c-0.16166,0.13088 -0.32578,0.24483 -0.49126,0.33661c-0.00381,0.00296 -0.00759,0.00589 -0.01136,0.00884l0.0317,0.05071l-0.25587,0.15993c-0.02376,0.01539 -0.05213,0.02436 -0.08256,0.02436c-0.08398,0 -0.15203,-0.06808 -0.15203,-0.15203c0,-0.04199 0.01703,-0.07998 0.04454,-0.10752l0.16217,-0.16217l0.00223,0.00223l0.00387,-0.008c0.05899,-0.04731 0.11797,-0.09676 0.17706,-0.14775c0.17407,-0.3633 0.48717,-0.75399 0.84609,-1.14767c0.14042,-0.24417 0.33123,-0.50136 0.54408,-0.7572c0.01256,-0.01989 0.02518,-0.03976 0.0379,-0.05955c-0.26544,0.26456 -0.52878,0.53278 -0.80036,0.80464l-0.10935,0.10935c-0.02751,0.02751 -0.06553,0.04454 -0.10752,0.04454c-0.08398,0 -0.15203,-0.06808 -0.15203,-0.15203c0,-0.03195 0.00985,-0.0616 0.02669,-0.08606l0.16104,-0.24152l0.01753,0.01168c0.23995,-0.60763 0.59381,-1.19064 0.98151,-1.74809c-0.22094,0.20145 -0.4132,0.38675 -0.51688,0.53529l-0.10822,0.15458c-0.02735,0.0402 -0.0735,0.0666 -0.12578,0.0666c-0.08398,0 -0.15203,-0.06808 -0.15203,-0.15203c0,-0.02247 0.00488,-0.04378 0.01363,-0.06298l0.11845,-0.2764l0.04904,0.02103c0.17986,-0.55113 0.54442,-1.10411 0.93905,-1.6157c-0.05669,-0.0221 -0.09689,-0.07721 -0.09689,-0.14174c0,-0.04542 0.01992,-0.08618 0.0515,-0.11404l0.22654,-0.2017l0.00658,0.00737l0.0023,-0.00192c0.06852,-0.06094 0.13223,-0.12232 0.19368,-0.18275c0.16047,-0.17482 0.33532,-0.33784 0.51518,-0.49639l-0.01209,-0.01612l0.16094,-0.12071c0.00881,-0.00677 0.01838,-0.01256 0.02858,-0.01728c0.12015,-0.10318 0.24114,-0.20551 0.36035,-0.30907l0.13031,-0.11319c0.02676,-0.02351 0.06185,-0.03777 0.10028,-0.03777c0.08398,0 0.15203,0.06808 0.15203,0.15203c0,0.0113 -0.00123,0.02229 -0.00356,0.03289l-0.01766,0.0882c0.03107,-0.02405 0.06141,-0.04766 0.0905,-0.07092l0.11716,-0.11716l0.0412,0.0412l0.14001,-0.06667c0.00066,0.04986 -0.00003,0.09972 -0.00195,0.14955l0.07639,0.01763l-0.06837,0.29629l-0.03462,-0.008c-0.04885,0.3668 -0.15527,0.73183 -0.28361,1.09322c0.01615,0.02414 0.02559,0.0532 0.02559,0.08445c0,0.00922 -0.00082,0.01829 -0.00239,0.02707l-0.02502,0.15474l-0.00532,-0.00085l0.00286,0.01287c-0.05172,0.15499 -0.1107,0.3119 -0.17706,0.46727c0.07148,0.0124 0.12584,0.07476 0.12584,0.1498c0,0.03494 -0.01177,0.06711 -0.0316,0.09279l-0.12877,0.17064l-0.00085,-0.00063l-0.00138,0.00356c-0.05433,0.06522 -0.10866,0.13211 -0.16302,0.20044c0.00085,0.00645 0.00126,0.01306 0.00126,0.01977c0,0.03897 -0.01467,0.07451 -0.03875,0.10142l-0.10183,0.11476l-0.01879,0.07517l-0.03717,-0.00929c-0.00324,0.00507 -0.00652,0.01017 -0.00979,0.0153c-0.10922,0.89114 -0.56715,2.14429 -1.17109,2.96558c0.02455,0.02701 0.0395,0.06286 0.0395,0.10224c0,0.05565 -0.0299,0.10435 -0.07454,0.13085l-0.17171,0.10586l-0.00135,-0.0022l-0.00447,0.0056c-0.05118,0.02562 -0.1073,0.05751 -0.16724,0.09374c-0.1328,0.12499 -0.26998,0.22563 -0.40976,0.29528l-0.01744,-0.00135l0.00157,0.00626l-0.07466,0.01867c-0.14287,0.0898 -0.29085,0.17769 -0.43608,0.24898zM368.01988,212.5569c-0.03941,0.04035 -0.07942,0.08052 -0.11989,0.11989c-0.161,0.23164 -0.33985,0.53363 -0.5296,0.84864c0.12364,-0.09774 0.24999,-0.18946 0.37832,-0.27366l-0.01709,-0.01709l0.20271,-0.20271c0.02751,-0.02751 0.06553,-0.04454 0.10752,-0.04454c0.08398,0 0.15203,0.06808 0.15203,0.15203c0,0.03311 -0.01058,0.06374 -0.02855,0.0887l-0.14083,0.2012l-0.00072,-0.0005l-0.00072,0.00255c-0.21143,0.28191 -0.55182,0.91846 -0.92302,1.55398c0.23375,-0.22987 0.47492,-0.44014 0.71581,-0.60114c0.10158,-0.18127 0.20724,-0.35499 0.31757,-0.51719c0.13758,-0.51515 0.3006,-1.08765 0.5183,-1.49555c-0.10557,0.09396 -0.20872,0.1854 -0.31911,0.27199c-0.00982,0.01416 -0.01983,0.02845 -0.03,0.0429l0.02125,0.02125l-0.21502,0.21502c-0.02751,0.02751 -0.06553,0.04454 -0.10752,0.04454c-0.08398,0 -0.15203,-0.06808 -0.15203,-0.15203c0,-0.03963 0.01517,-0.07573 0.04004,-0.1028l0.10211,-0.11203c0.00922,-0.01303 0.01873,-0.02761 0.02849,-0.04341zM366.68996,217.85931c-0.0198,0.02112 -0.03979,0.04221 -0.0599,0.0633l0.01555,-0.00425c0.01517,-0.01936 0.02997,-0.03903 0.04435,-0.05905zM366.56191,217.99312c0.00828,-0.00179 0.01659,-0.00356 0.02493,-0.00526l-0.00434,-0.0159c-0.00686,0.00705 -0.01372,0.0141 -0.02059,0.02115z" fill="#c7c7c7" stroke="none" stroke-width="0.5" stroke-linecap="butt"/></g><path d="M373.41116,201.25482c1.63903,0.67411 2.616,2.36752 2.19494,3.85275c-0.43378,1.53008 -2.1871,2.25987 -3.91608,1.62996c-0.01483,-0.00541 -0.02959,-0.01089 -0.04432,-0.01646" data-paper-data="{&quot;index&quot;:null}" fill="#ad9f84" stroke="#9f9279" stroke-width="0.25" stroke-linecap="butt"/><g stroke-linecap="butt"><path d="M369.06696,207.47916l1.41699,-3.49068l0.89938,-2.35553l0.29254,-0.99212l0.53344,-0.56183c0.39314,-0.28216 0.76885,-0.38937 1.08906,-0.277c1.01191,0.35503 1.08655,2.76822 0.16667,5.39001c-0.91984,2.62179 -2.48588,4.45934 -3.49779,4.10432c-0.47845,-0.16787 -0.74735,-0.79583 -0.80071,-1.68838z" data-paper-data="{&quot;index&quot;:null}" fill="#cfcfcf" stroke="#000000" stroke-width="0"/><path d="M370.89862,207.81826c-0.12279,0.06138 -0.24763,0.12248 -0.37479,0.18502l-0.02115,-0.0029l0.00164,0.00815l-0.19963,0.03991c-0.01061,0.00233 -0.02159,0.00356 -0.03289,0.00356c-0.08398,0 -0.15203,-0.06808 -0.15203,-0.15203c0,-0.06069 0.03557,-0.1131 0.087,-0.13746l0.07901,-0.0395c-0.139,-0.05896 -0.16251,-0.27353 0.07816,-0.72072c-0.03557,0.01999 -0.06906,0.03928 -0.1,0.05789l-0.0062,0.00079l0.00098,0.00195l-0.15943,0.07973c-0.02112,0.01111 -0.0452,0.01741 -0.07073,0.01741c-0.08398,0 -0.15203,-0.06808 -0.15203,-0.15203c0,-0.03478 0.01168,-0.06683 0.03132,-0.09245l0.12071,-0.16094l0.02329,0.01747c0.27983,-0.55698 0.80851,-1.20745 1.36017,-1.81177c-0.05398,0.04555 -0.1039,0.09065 -0.14863,0.13535l-0.01121,0.00302l0.0028,0.00375l-0.16094,0.12071c-0.02562,0.01964 -0.05767,0.03132 -0.09245,0.03132c-0.08398,0 -0.15203,-0.06808 -0.15203,-0.15203c0,-0.04592 0.02037,-0.0871 0.05257,-0.11498l0.22295,-0.19506c0.30391,-0.50445 0.62658,-1.01749 0.95176,-1.50786c0.05058,-0.17064 0.10233,-0.33664 0.15666,-0.49057c-0.21061,0.23032 -0.42415,0.45887 -0.64578,0.67993l-0.0107,0.00368l0.00233,0.00308l-0.16094,0.12071c-0.02562,0.01964 -0.05767,0.03132 -0.09245,0.03132c-0.08398,0 -0.15203,-0.06808 -0.15203,-0.15203c0,-0.02553 0.0063,-0.04961 0.01741,-0.07073l0.00554,-0.01108c-0.01454,-0.02332 -0.02295,-0.05087 -0.02295,-0.08036c0,-0.0113 0.00123,-0.02229 0.00356,-0.03289l0.03991,-0.19963l0.00145,0.00028l-0.00054,-0.0046c0.19368,-0.74166 0.64864,-1.99496 1.46335,-2.24631l-0.0141,-0.05644l0.15886,-0.03972c0.01281,-0.00349 0.02628,-0.00535 0.0402,-0.00535c0.08398,0 0.15203,0.06808 0.15203,0.15203c0,0.02553 -0.0063,0.04961 -0.01741,0.07073l-0.07973,0.15943c-0.0599,0.1198 -0.20195,0.41735 -0.37904,0.75834c0.04385,-0.01108 0.08407,-0.01234 0.11942,-0.00189c0.16957,-0.18348 0.34086,-0.36412 0.5166,-0.53885c0.1278,-0.07598 0.43495,-0.31357 0.60955,-0.14671c0.25735,0.24593 -0.48949,0.88459 -0.60269,1.05866c-0.08883,0.13661 -0.20945,0.35254 -0.35059,0.60495c-0.06758,0.25172 -0.17504,0.52478 -0.29582,0.79098c0.08458,-0.04507 0.17051,-0.08527 0.25776,-0.11958l-0.02625,-0.06122l0.2764,-0.11845c0.0192,-0.00875 0.04051,-0.01363 0.06298,-0.01363c0.08398,0 0.15203,0.06808 0.15203,0.15203c0,0.05036 -0.02449,0.09503 -0.06223,0.1227l-0.00072,0.00054c0.01423,0.02314 0.02241,0.05036 0.02241,0.07948c0,0.03286 -0.01042,0.06327 -0.02811,0.0881l-0.17199,0.24845l-0.02024,-0.01401c-0.21533,0.49689 -0.507,0.97644 -0.79941,1.45259c0.1532,-0.12298 0.30023,-0.22506 0.41294,-0.29258l0.11114,-0.09667c0.02679,-0.02354 0.06188,-0.03784 0.10035,-0.03784c0.08398,0 0.15203,0.06808 0.15203,0.15203c0,0.02553 -0.0063,0.04961 -0.01741,0.07073l-0.12027,0.24051l-0.04945,-0.02474c-0.13214,0.34955 -0.34876,0.83287 -0.59006,1.27525c0.01841,0.00929 0.03692,0.02399 0.05461,0.04611c0.09497,0.11873 -0.02373,0.2137 -0.02373,0.2137c-0.10932,0.08741 -0.21946,0.16809 -0.33073,0.24366c-0.23016,0.3487 -0.46082,0.60413 -0.64615,0.6324c-0.18118,0.02764 -0.29302,-0.00028 -0.35625,-0.06295zM372.86516,202.09966c0.01331,0.03475 0.02342,0.07199 0.0305,0.11143c0.38033,-0.40422 0.82117,-0.85126 0.46992,-0.63775c-0.16985,0.17114 -0.33583,0.3475 -0.50042,0.52632zM370.83072,206.30426c0.21754,-0.1486 0.43964,-0.28228 0.67587,-0.35994c0.11193,-0.24675 0.24215,-0.53076 0.38424,-0.80993c-0.28779,0.373 -0.58937,0.73737 -0.95157,1.05576c-0.03308,0.02908 -0.06956,0.06852 -0.10856,0.1141zM371.21918,207.30635c0.04501,-0.02474 0.08977,-0.04983 0.13434,-0.07542c0.23409,-0.34092 0.6504,-1.00266 0.97222,-1.45526c-0.24678,0.23545 -0.46331,0.50202 -0.71115,0.73785c-0.01319,0.01873 -0.02669,0.03799 -0.04045,0.05776l0.02455,0.02106l-0.05474,0.06387c-0.00356,0.01574 -0.00957,0.03053 -0.0176,0.04397l-0.1475,0.25814c-0.07425,0.15487 -0.12641,0.26887 -0.15968,0.34807zM370.48659,207.49075c0.22795,-0.31064 0.44653,-0.63602 0.67732,-0.93952c-0.10784,0.06893 -0.22147,0.13472 -0.33337,0.19689c0.00283,0.05102 -0.02232,0.0938 -0.02232,0.0938l-0.1152,0.19575c-0.21212,0.36016 -0.25726,0.47511 -0.20642,0.45308z" fill="#c7c7c7" stroke="none" stroke-width="0.5"/></g><path d="M112.93204,218.9168l-1.49899,-1.24201l-1.24201,-1.54183l-1.1992,-1.79877l-1.49899,-3.29779l-1.07071,-2.48405l-0.85658,-2.74099l-0.15682,-0.39683c0,0 -0.02077,-0.07356 0.0073,-0.08688c0.02329,-0.01102 0.14951,0.01259 0.14951,0.01259l0.72809,0.34262c0,0 3.28661,1.41954 5.20984,2.6443c1.92323,1.22476 3.3558,2.81053 3.3558,2.81053l0.78333,1.05044l0.29749,0.64011l0.37533,1.16325c0,0 0.35578,2.98834 -0.37366,4.09708c-0.72944,1.10874 -2.83845,0.78534 -2.83845,0.78534l-0.34262,0.29978v0.34262l0.17133,0.29978l0.72809,0.55676l3.98304,1.67031l5.15397,1.84929l15.53273,5.09539" fill="none" stroke="#000000" stroke-width="0.75" stroke-linecap="round"/><path d="M105.43862,205.45366l-1.32209,-1.65259l-0.46274,-0.72714l-0.39664,-0.72714l-0.46274,-1.32209l-0.39664,-1.85093l-0.59494,-3.10691l-0.33054,-3.10691l-0.2644,-6.08159v-6.08159v-1.59351v-6.08159l0.2644,-6.08159l0.33054,-3.10691l0.59494,-3.10691l0.39664,-1.85093l0.46274,-1.32209l0.39664,-0.72714l0.46274,-0.72714l1.32209,-1.65259" fill="none" stroke="#000000" stroke-width="0.75" stroke-linecap="round"/><path d="M106.64276,196.43791l-1.7429,-1.59458l-0.48207,-0.51918l-0.44499,-0.6675l-0.33375,-0.81581l-0.18543,-1.18664l-0.18543,-3.67123l-0.11124,-3.70831v-2.6329v-3.28362v-2.6329l0.11124,-3.70831l0.18543,-3.67123l0.18543,-1.18664l0.33375,-0.81581l0.44499,-0.6675l0.48207,-0.51918l1.7429,-1.59458" fill="none" stroke="#bababa" stroke-width="0.5" stroke-linecap="round"/><path d="M147.82772,215.96715h-4.88129l-4.08109,-0.24007l-13.36351,-1.12029l-9.20241,-0.96026" fill="none" stroke="#000000" stroke-width="0.75" stroke-linecap="round"/><path d="M110.1115,207.57853c0,0 1.88269,3.13109 0.71975,3.35618c-1.16294,0.22509 -4.23403,-2.27098 -4.23403,-2.27098" fill="none" stroke="#000000" stroke-width="0.5" stroke-linecap="round"/><path d="M137.46879,176.22886l0.28688,-6.54058l0.68849,-6.54058l1.14748,-5.10625l1.77859,-4.93414l2.12282,-4.36038l2.35232,-3.27031l2.26472,-1.74243l1.49958,-0.62481l0.83309,-0.12496l1.79115,-0.08332h2.20772l2.70757,0.20828l5.9983,1.16634l11.33012,2.45764l1.74951,0.66649l0.99973,0.74978l0.91641,1.1247l0.37489,1.24963l0.16661,4.20715l-0.24993,6.58147l-0.33324,4.74864l-0.33324,4.37376l-0.29157,4.74864l-0.12496,3.54066v0.29157v1.96837v0.29157l0.12496,3.54066l0.29157,4.74864l0.33324,4.37376l0.33324,4.74864l0.24993,6.58147l-0.16661,4.20715l-0.37489,1.24963l-0.91641,1.1247l-0.99973,0.74978l-1.74951,0.66649l-11.33012,2.45764l-5.9983,1.16634l-2.70757,0.20828h-2.20772l-1.79115,-0.08332l-0.83309,-0.12496l-1.49958,-0.62481l-2.26472,-1.74243l-2.35232,-3.27031l-2.12282,-4.36038l-1.77859,-4.93414l-1.14748,-5.10625l-0.68849,-6.54058l-0.28688,-6.54058z" fill="#b9b9b9" stroke="#000000" stroke-width="0.75" stroke-linecap="round"/><path d="M367.86605,210.44861c0.51509,-0.2657 1.18164,-0.36768 1.54129,-0.17863c1.1359,0.59711 0.80256,3.46697 -0.74452,6.41002c-1.54708,2.94301 -3.72209,4.84477 -4.85799,4.24763c-0.55251,-0.29044 -0.79797,-1.40238 -0.68468,-2.51505" data-paper-data="{&quot;index&quot;:null}" fill="none" stroke="#000000" stroke-width="0.75" stroke-linecap="butt"/><path d="M371.81667,200.41301c0.5324,-0.52173 1.05611,-0.76035 1.48174,-0.61103c1.01191,0.35503 1.08655,2.76822 0.16667,5.39001c-0.91984,2.62179 -2.48588,4.45934 -3.49779,4.10432c-0.47845,-0.16787 -0.74735,-1.03908 -0.80071,-1.93163" data-paper-data="{&quot;index&quot;:null}" fill="none" stroke="#000000" stroke-width="0.75" stroke-linecap="butt"/><path d="M371.74792,176.80297l-0.02194,-4.30262l0.04284,-5.52483l0.08565,-4.23998l0.12849,-0.51395l0.29978,-0.42827l0.55676,-0.17133l0.72809,0.04284l1.07071,0.21414l0.55676,0.25698l0.55676,0.72809l0.51395,1.32766l0.68525,2.22707l0.5996,4.45415l0.25698,4.28282v1.63862v7.5994v0.45059l-0.25698,4.28282l-0.5996,4.45415l-0.68525,2.22707l-0.51395,1.32766l-0.55676,0.72809l-0.55676,0.25698l-1.07071,0.21414l-0.72809,0.04284l-0.55676,-0.17133l-0.29978,-0.42827l-0.12849,-0.51395l-0.08565,-4.23998l-0.04284,-5.52483l0.01687,-3.30578z" data-paper-data="{&quot;index&quot;:null}" fill="none" stroke="#000000" stroke-width="0.75" stroke-linecap="round"/><path d="M372.36839,198.29233l-0.98503,3.3406l-0.89938,2.35553l-1.75596,4.32566l-1.67031,3.76887l-2.09859,3.68322l-3.46908,4.75393l-1.4587,1.7163l-0.25698,0.51395l-0.08565,0.42827l0.17133,0.38546l0.34262,0.25698l0.94222,0.17133h0.55676l0.25698,0.12849l-0.04284,0.42827l-1.1992,1.02787l-1.67031,0.98503l-2.14139,1.07071l-1.75596,0.7709" data-paper-data="{&quot;index&quot;:null}" fill="none" stroke="#000000" stroke-width="0.75" stroke-linecap="round"/><path d="M361.18773,220.69464l-9.63632,1.58463l-14.30461,1.79877l-9.50787,0.85658l-13.44803,0.55676l-8.30866,0.17133h-3.51192l-2.14139,-0.08565l-0.94222,-0.12849l-1.24201,-0.34262l-0.47111,-0.12849" fill="none" stroke="#000000" stroke-width="0.75" stroke-linecap="round"/><path d="M281.63775,226.86358c-0.00145,0.04599 -0.07875,0.12751 -0.07875,0.12751l-4.57751,3.78687l-1.47009,-5.89333c0,0 -0.04898,-0.21647 0.09135,-0.33926c0.11029,-0.09651 0.3329,-0.01857 0.3329,-0.01857l5.63028,2.24332c0,0 0.07328,0.0475 0.07183,0.09349z" fill="#333333" stroke="#000000" stroke-width="0.75" stroke-linecap="round"/><path d="M272.82389,231.61137c1.56468,-2.78875 3.51155,-4.66885 5.49518,-3.5559c1.98363,1.11295 2.32327,4.27593 0.75859,7.06467c-1.56468,2.78875 -4.44115,4.14728 -6.42478,3.03433c-1.98363,-1.11295 -1.39366,-3.75433 0.17101,-6.5431z" fill="#ccbc9b" stroke="#000000" stroke-width="0" stroke-linecap="butt"/><path d="M175.2196,230.93931l-1.33036,-1.06429l-0.34209,-0.53215l-0.15203,-0.68418v-0.41811l0.19006,-1.14031l0.76019,-1.78646l0.26006,-4.78125" fill="none" stroke="#000000" stroke-width="0.75" stroke-linecap="round"/><path d="M189.90347,225.75393l-1.75533,-9.74788" fill="none" stroke="#000000" stroke-width="0.75" stroke-linecap="round"/><path d="M187.48219,216.26791l1.62505,9.47201" fill="none" stroke="#000000" stroke-width="0.75" stroke-linecap="round"/><path d="M226.26503,213.77678l6.20363,13.07544" fill="none" stroke="#000000" stroke-width="0.75" stroke-linecap="round"/><path d="M220.43513,213.69843l3.99339,13.04179" fill="none" stroke="#000000" stroke-width="0.75" stroke-linecap="round"/><path d="M272.81529,221.87987l2.2458,5.65936" fill="none" stroke="#000000" stroke-width="0.75" stroke-linecap="round"/><path d="M222.93145,213.16824l5.30821,13.68055l0.13859,1.42857l0.57133,1.67447l0.87606,1.55766" fill="none" stroke="#000000" stroke-width="0.75" stroke-linecap="round"/><path d="M271.94036,237.56961c-1.07682,-1.3071 -0.45138,-3.57903 0.88352,-5.95823c1.24915,-2.22638 2.74191,-3.87362 4.30246,-3.88115l0.1436,0.38229c-0.55015,0.55534 -2.34102,2.42053 -3.26965,4.07561c-1.01859,1.81545 -1.85307,4.89898 -1.97841,5.37428z" fill="#333333" stroke="#000000" stroke-width="0" stroke-linecap="round"/><path d="M272.00565,237.62469c0,0 0.88887,-3.46562 1.99471,-5.43657c1.10584,-1.97095 3.43443,-4.23989 3.43443,-4.23989" fill="none" stroke="#000000" stroke-width="0.75" stroke-linecap="round"/><path d="M272.82389,231.61137c1.56468,-2.78875 3.51155,-4.66885 5.49518,-3.5559c1.98363,1.11295 2.32327,4.27593 0.75859,7.06467c-1.56468,2.78875 -4.44115,4.14728 -6.42478,3.03433c-1.98363,-1.11295 -1.39366,-3.75433 0.17101,-6.5431z" fill="none" stroke="#000000" stroke-width="0.75" stroke-linecap="butt"/><path d="M138.20931,176.26528l0.14253,-2.99328l0.33258,-5.55895l0.7127,-5.98656l0.85522,-3.27837l0.90272,-2.6607l0.61767,-1.75798l1.80547,-3.80101l0.90275,-1.66295l1.47289,-2.09056l1.9005,-1.75798l1.33036,-0.76019l1.52039,-0.33258l2.56567,-0.09503l3.51592,0.28508l4.13359,0.7127l11.92563,2.51817l2.23309,0.57014l0.80772,0.28508l1.14031,0.90272l0.66517,1.09278l0.23755,1.04528l0.04753,5.74901l-0.19006,5.89153l-0.47511,5.79654l-0.52264,5.74901l-0.23755,4.89378v1.95804l0.23755,4.89378l0.52264,5.74901l0.47511,5.79654l0.19006,5.89153l-0.04753,5.74901l-0.23755,1.04528l-0.66517,1.09278l-1.14031,0.90272l-0.80772,0.28508l-2.23309,0.57014l-11.92563,2.51817l-4.13359,0.7127l-3.51592,0.28508l-2.56567,-0.09503l-1.52039,-0.33258l-1.33036,-0.76019l-1.9005,-1.75798l-1.47289,-2.09056l-0.90275,-1.66295l-1.80547,-3.80101l-0.61767,-1.75798l-0.90272,-2.6607l-0.85522,-3.27837l-0.7127,-5.98656l-0.33258,-5.55895l-0.14253,-2.99328z" fill="#404040" stroke="#000000" stroke-width="0.75" stroke-linecap="round"/><path d="M189.94118,225.96378l-0.8923,-0.0378l0.05836,-0.18603l-1.62505,-9.47201l-0.03579,-0.18845l0.66268,-0.21593l0.03906,0.14253l1.75533,9.74788z" fill="#333333" stroke="#000000" stroke-width="0" stroke-linecap="round"/><path d="M274.26382,227.12613l-8.67427,0.09604l-16.22828,0.09604l-12.1312,-0.19204l-17.47658,-0.32009l-13.92367,-0.25606l-15.65213,-0.57615l-11.33097,-0.48011l-6.84981,-0.38411l-1.72845,-0.19204l-0.64017,-0.28808l-0.28808,-0.3521l-0.09604,-0.32009l0.06402,-0.32009l0.64017,-0.54414l5.69751,-2.6567l9.9226,-3.74498l2.84874,-0.92825l4.73725,-1.05627l2.27259,-0.41612l3.68095,-0.48011l2.84874,-0.22405l6.08159,-0.06402h3.26486h10.9789l17.47658,0.4481l4.48119,0.32009l2.75274,0.25606l4.70524,0.76819l2.72072,0.67219l6.33765,1.92049l3.68098,1.21632l5.69329,2.16075l2.05254,0.91223l0.15203,0.19006l1.89251,4.55119z" fill="none" stroke="#000000" stroke-width="0.25" stroke-linecap="round"/><path d="M107.49059,207.6526c-0.05052,-0.11772 -0.10756,-0.23268 -0.17662,-0.34259c0.06598,0.3588 0.0441,0.82875 0.07048,1.14421c0.00167,-0.0023 0.00334,-0.00475 0.00504,-0.0073c0.06786,-0.10265 0.06717,-0.49069 0.10107,-0.79432zM106.99848,207.22873c0.0063,-0.05685 0.01495,-0.11373 0.02635,-0.1707l-0.04914,-0.00903l0.04731,-0.25729c0.01275,-0.07542 0.08049,-0.13079 0.15864,-0.12628c0.05625,0.00324 0.10362,0.03667 0.1272,0.08367l0.08074,0.15402c0.07668,0.08684 0.16286,0.21297 0.24889,0.36154c0.15169,-0.05745 0.29006,0.07737 0.40964,0.28521c0.00919,-0.0532 0.01961,-0.10627 0.03138,-0.15921l-0.04029,-0.00639l0.04734,-0.29868c0.01127,-0.07715 0.07986,-0.13422 0.15918,-0.12965c0.05625,0.00324 0.10362,0.03667 0.1272,0.08367l0.08725,0.16639l-0.00365,0.00192l0.00884,0.00907c0.07189,0.21477 0.17614,0.55144 0.24678,0.89737l0.00611,-0.02345c0.01684,-0.07022 0.08197,-0.12046 0.15657,-0.11618c0.04297,0.00246 0.08071,0.02254 0.10667,0.05282l0.00897,-0.15587c0.00482,-0.08382 0.07671,-0.14788 0.16053,-0.14306c0.07973,0.0046 0.14155,0.06982 0.14328,0.14829l0.00636,0.19182c0.05619,0.083 0.14196,0.23412 0.22991,0.41137c0.00768,-0.09966 0.02257,-0.1899 0.0463,-0.26289c-0.00611,-0.00217 -0.01237,-0.00475 -0.01882,-0.00774c-0.13768,-0.0645 -0.07321,-0.20218 -0.07321,-0.20218l0.07318,-0.15625c0.02484,-0.05641 0.08278,-0.09427 0.14794,-0.09053c0.07731,0.00444 0.13781,0.06591 0.14297,0.1412l0.0193,0.22814l-0.06044,0.0051c0.05197,0.48062 -0.04558,1.01978 0.16758,1.41101l-0.00548,0.02912l0.01117,-0.0012l0.02106,0.19487c0.00116,0.0091 0.00148,0.01845 0.00094,0.02792c-0.00482,0.08382 -0.07671,0.14788 -0.16053,0.14306c-0.0503,-0.0029 -0.09345,-0.0299 -0.11892,-0.06919l-0.08943,-0.13472l0.05131,-0.03406c-0.1696,-0.23554 -0.27756,-0.54228 -0.38528,-0.84767c-0.00371,0.13104 -0.01149,0.26629 -0.01974,0.40973l-0.01127,0.19585c-0.00482,0.08382 -0.07671,0.14788 -0.16053,0.14306c-0.04193,-0.00242 -0.07888,-0.02159 -0.10479,-0.05065l-0.12304,-0.13809l0.06513,-0.05804c-0.03818,-0.06516 -0.06415,-0.13337 -0.08256,-0.2046c-0.00315,0.02927 -0.00563,0.05861 -0.00727,0.08801l-0.00941,0.16321c-0.00482,0.08382 -0.07671,0.14788 -0.16053,0.14306c-0.07315,-0.00422 -0.13123,-0.05946 -0.14165,-0.12918l-0.04416,-0.25824c-0.01785,0.00598 -0.03714,0.00875 -0.05707,0.00759c-0.04759,-0.00274 -0.0888,-0.02707 -0.11464,-0.06295c-0.02584,0.05405 -0.08247,0.08993 -0.14599,0.08628c-0.05474,-0.00315 -0.10107,-0.03491 -0.12528,-0.07989l-0.147,-0.26327l0.0531,-0.02965l-0.00019,-0.00063l0.00302,-0.00094l0.00189,-0.00104c-0.10526,-0.1764 -0.18194,-0.36409 -0.25169,-0.55434c-0.10082,0.25616 -0.23378,0.48323 -0.31027,0.4911c-0.00189,0.00019 -0.00378,0.00035 -0.0057,0.0005c-0.02499,0.05606 -0.08272,0.09364 -0.14766,0.0899c-0.06311,-0.00362 -0.11498,-0.04526 -0.13475,-0.10139l-0.10611,-0.28128l0.04038,-0.01523c-0.07199,-0.13475 -0.13585,-0.30196 -0.18895,-0.47744c-0.1045,-0.32125 -0.1758,-0.65711 -0.26847,-0.99973l0.00047,-0.0034l-0.00123,0.00028l-0.05294,-0.23472c-0.00362,-0.01454 -0.00516,-0.02987 -0.00425,-0.04561c0.00482,-0.08382 0.07671,-0.14788 0.16053,-0.14306c0.06985,0.00403 0.12597,0.05461 0.13995,0.11986l0.06972,0.29248l-0.00025,0.00006c0.02506,0.08417 0.057,0.17778 0.09144,0.277zM109.03931,208.2127c-0.00047,-0.00088 -0.00094,-0.00176 -0.00142,-0.00264l0.00085,0.00425c0.00019,-0.00054 0.00038,-0.00107 0.00057,-0.00161zM108.34188,208.01102c-0.00523,0.06456 -0.01196,0.12934 -0.01939,0.19352c0.03437,0.10261 0.06453,0.19896 0.08999,0.28005c-0.02389,-0.15745 -0.04514,-0.31568 -0.07063,-0.47357z" fill="#cdcdcd" stroke="none" stroke-width="0.5" stroke-linecap="butt"/><path d="M109.59333,212.26413l0.14734,0.06012c0.13884,0.11637 0.32862,0.25587 0.51084,0.40482c0.08581,-0.04325 0.17136,-0.10564 0.25609,-0.18974l0.09204,-0.12273c0.02603,-0.03547 0.06705,-0.05927 0.11373,-0.06198l-0.01089,-0.08898c-0.00094,-0.0068 -0.00142,-0.01376 -0.00142,-0.02081c0,-0.08398 0.06808,-0.15203 0.15203,-0.15203c0.06525,0 0.12093,0.04111 0.1425,0.09887l0.06409,0.16019l-0.01275,0.0051c0.26689,0.32525 0.49148,0.6923 0.70561,1.07087c0.00648,-0.01907 0.01319,-0.03793 0.02018,-0.05653c-0.16116,-0.47077 -0.26437,-0.94846 -0.25886,-1.43572l-0.03699,0.00283l-0.02184,-0.28398c-0.14961,0.09862 -0.31228,0.16897 -0.48339,0.21376c-0.0079,0.07655 -0.07259,0.13626 -0.15125,0.13626h-0.19619v-0.06352l-0.01064,0.02452c-0.02682,-0.01064 -0.05839,-0.02288 -0.09405,-0.03661c-0.44319,0.00822 -0.91323,-0.12097 -1.34384,-0.34823c0.03226,0.07567 0.06582,0.15096 0.1006,0.22588c0.09723,0.13132 0.18537,0.28996 0.26629,0.44987c0.02918,0.0005 0.05071,0.00768 0.05071,0.00768zM113.59966,212.64868c0.07114,0 0.13085,0.04882 0.14744,0.1148l0.06409,0.23227c0.11687,0.24467 0.33299,0.52865 0.56469,0.82689c-0.45345,-1.16524 -1.05236,-2.15987 -1.69993,-3.18705c-0.30646,-0.32818 -0.64093,-0.65686 -1.01481,-1.02973c0,0 -0.10752,-0.10752 0,-0.21502c0.10752,-0.10752 0.21502,0 0.21502,0c0.05216,0.05228 0.10359,0.10378 0.15436,0.15458c0.02644,-0.02222 0.06056,-0.03563 0.0978,-0.03563c0.02949,0 0.05704,0.0084 0.08036,0.02295l0.16135,0.09682l-0.00636,0.01061l0.0282,0.00529c0.31323,0.38402 0.70952,0.64128 1.05318,0.97609l0.02471,-0.02883l0.22811,0.19553c0.03292,0.02789 0.05386,0.06953 0.05386,0.11609c0,0.0457 -0.02015,0.08669 -0.05206,0.11454c0.217,0.11124 0.53507,0.44118 0.80558,0.79208c0.02754,-0.02783 0.06579,-0.04507 0.10806,-0.04507c0.06837,0 0.12619,0.04511 0.14533,0.10721l0.07189,0.2153c0.01986,0.05861 0.04718,0.122 0.07938,0.18892c0.07885,0.11209 0.13104,0.24555 0.21052,0.39l0.11181,0.18279c0.01467,0.02307 0.02326,0.05039 0.02358,0.07967c0.06251,0.12499 0.11788,0.2498 0.15512,0.36913c0.14706,-0.15027 0.38452,-0.02402 0.52437,0.37124c0.22031,0.62258 0.05263,1.76238 -0.18776,2.5369l0.03258,0.00375l-0.03466,0.30019c-0.00777,0.07652 -0.07227,0.13623 -0.15074,0.13648c-0.04249,0.20186 -0.08411,0.41335 -0.1747,0.58855l0.02326,0.00466l-0.00047,0.00233c0.52648,-0.11706 0.02232,0.53995 -0.59035,0.86309c0.00708,0.01756 0.01099,0.03676 0.01099,0.05685c0,0.07986 -0.06157,0.14533 -0.13982,0.15156l-0.3013,0.02738l-0.00223,-0.02465c-0.02408,0.00082 -0.04825,0.00183 -0.07259,0.00299c-0.08398,0.01722 -0.17466,0.03308 -0.29292,0.05719l-0.16041,0.03207c-0.01061,0.00233 -0.02159,0.00356 -0.03289,0.00356c-0.04422,0 -0.08407,-0.01889 -0.11184,-0.04904c-0.28631,0.02049 -0.57149,0.02962 -0.83347,-0.0193c0,0 -0.14911,-0.02981 -0.11927,-0.17891c0.02981,-0.14911 0.17891,-0.11927 0.17891,-0.11927c0.32585,0.07123 0.71613,0.02757 1.08724,-0.00661l0.04438,-0.01366l0.00286,0.00935c0.0458,-0.00412 0.09122,-0.008 0.13617,-0.01139c0.20897,-0.09345 0.44184,-0.18949 0.64785,-0.27092c-0.00504,-0.01511 -0.00777,-0.03129 -0.00777,-0.0481v-0.24892c-0.23825,-0.68399 -0.47653,-1.36691 -0.72192,-2.04687l-0.01171,-0.01004l0.0057,-0.00664c-0.00642,-0.01778 -0.01284,-0.03557 -0.0193,-0.05338c-0.00995,-0.00749 -0.01983,-0.01505 -0.02965,-0.02266c0.00094,0.02946 0.00148,0.05908 0.00157,0.08895c0.06481,0.44813 0.09846,0.89898 0.09846,1.35133v0.16349c0,0.08398 -0.06808,0.15203 -0.15203,0.15203c-0.06069,0 -0.1131,-0.03557 -0.13746,-0.087l-0.1345,-0.26903l0.01734,-0.00869c-0.23976,-0.32374 -0.44854,-0.67222 -0.63441,-1.03621c0.15981,0.36264 0.30466,0.72932 0.41304,1.10584c0.09619,0.29311 0.27064,0.53539 0.51811,0.72214l0.00847,0.02052l0.00563,-0.00422l0.09717,0.12956c0.01964,0.02562 0.03132,0.05767 0.03132,0.09245c0,0.08398 -0.06808,0.15203 -0.15203,0.15203h-0.22887v-0.05974c-0.54788,-0.0402 -1.03543,-0.42122 -1.47758,-0.90467c-0.03302,-0.00639 -0.06579,-0.01325 -0.09833,-0.02059c0.16166,0.22323 0.34873,0.42893 0.55544,0.58053l0.12937,0.09701c0.03774,0.02767 0.06223,0.0723 0.06223,0.1227c0,0.08398 -0.06808,0.15203 -0.15203,0.15203c-0.03195,0 -0.0616,-0.00985 -0.08606,-0.02669l-0.25128,-0.16752l0.0119,-0.01782c-0.01168,-0.00995 -0.02329,-0.02005 -0.03484,-0.03025c-0.64553,-0.29528 -1.12876,-0.76712 -1.53487,-1.31806c-0.76252,-0.57596 -1.29854,-1.44727 -1.61535,-2.36491c-0.07432,-0.18817 -0.23318,-0.6623 -0.41342,-1.19139c-0.02383,-0.06062 -0.04709,-0.12156 -0.06997,-0.18266c-0.50372,-0.51915 -0.89643,-1.29067 -1.06215,-1.80522c0.09298,-0.61178 0.57706,-0.57543 0.83262,-0.16651c0.68865,0.28493 1.39609,0.82469 2.03648,1.08507c0.54729,-0.10145 1.00039,-0.52884 1.19262,-1.10933c0.02178,-0.06541 0.0436,-0.13079 0.06541,-0.19619l-0.00781,-0.05002c0,0 0,-0.15203 0.15203,-0.15203c0.15203,0 0.15203,0.15203 0.15203,0.15203l-0.00781,0.14618c-0.02178,0.06541 -0.0436,0.13079 -0.06541,0.19619c-0.00324,0.00966 -0.00652,0.01926 -0.00985,0.0288c0.04054,0.00094 0.07718,0.01775 0.1039,0.04448l0.13079,0.13079l-0.00261,0.00261l0.00998,0.00526c0.42701,0.57508 0.73297,1.25227 1.04352,1.90283c0.01306,-0.0707 0.07504,-0.12424 0.14951,-0.12424zM114.37232,214.63682c0.06339,0.21404 0.12468,0.42553 0.18763,0.62938l0.06242,0.15603c0.00784,0.01832 0.01215,0.0385 0.01215,0.05968c0,0.05024 -0.02436,0.09478 -0.06191,0.12248c0.09257,0.2459 0.18581,0.49195 0.28052,0.7381c0.01353,0.03519 0.02978,0.07378 0.04759,0.11498c-0.0181,-0.41442 -0.0508,-0.82305 -0.1034,-1.22728c-0.14451,-0.18757 -0.2877,-0.38767 -0.42503,-0.59334zM113.02596,214.05988c-0.16258,-0.22959 -0.37259,-0.79485 -0.53835,-0.97543c0.23428,0.75113 0.47983,1.5095 0.85708,2.18562c0.1356,0.24306 0.38169,0.56268 0.53961,0.88163c-0.01659,-0.24196 -0.04256,-0.48329 -0.07665,-0.72444c0.00047,-0.13985 -0.01174,-0.27756 -0.03453,-0.41345c-0.27391,-0.28285 -0.50394,-0.61043 -0.74716,-0.95393zM112.76411,215.60768c-0.05071,-0.05798 -0.10057,-0.11694 -0.14958,-0.1768c-0.00995,0.00205 -0.02027,0.00312 -0.03082,0.00312c-0.01709,0 -0.03355,-0.00283 -0.04888,-0.00803c0.14504,0.16975 0.27851,0.34779 0.39428,0.5364c0.02376,0.03299 0.04633,0.06472 0.06761,0.095c-0.04788,-0.11155 -0.09821,-0.2232 -0.15024,-0.33501zM113.14189,216.64749c-0.04737,0 -0.08965,-0.02166 -0.11753,-0.05559l-0.16273,-0.19528l0.00236,-0.00198l-0.0074,-0.00441c-0.04067,-0.06081 -0.08304,-0.12049 -0.12695,-0.17917c-0.23699,-0.18637 -0.48921,-0.49821 -0.72397,-0.79195c-0.02282,-0.02156 -0.04577,-0.04306 -0.06884,-0.06446c-0.01347,0.02644 -0.03447,0.04841 -0.06015,0.06308c0.26195,0.44335 0.5318,0.84427 1.03253,1.22004l0.00227,0.00334l0.00076,-0.00091l0.19528,0.16273c0.03393,0.02789 0.05559,0.07019 0.05559,0.11753c0,0.07649 -0.05647,0.13976 -0.12997,0.15046c0.15883,0.10217 0.33567,0.18801 0.49793,0.27832c-0.10246,-0.14627 -0.18175,-0.30885 -0.24017,-0.48194c-0.02263,-0.07983 -0.04747,-0.15965 -0.07422,-0.23951c-0.0221,0.0125 -0.04762,0.01964 -0.07482,0.01964zM109.82774,212.7987c-0.01121,-0.00976 -0.02251,-0.01955 -0.03384,-0.0294c0.0046,0.00884 0.00916,0.01753 0.01369,0.02609c0.0067,0.0012 0.01344,0.0023 0.02015,0.00331zM111.42975,216.1562c0.01769,0.00992 0.03598,0.01961 0.05483,0.02912c-0.63237,-0.95957 -1.51353,-2.0927 -2.09342,-3.22819c-0.00762,-0.00422 -0.01523,-0.0085 -0.02285,-0.01284c0.06245,0.1362 0.1306,0.26894 0.20734,0.39636c0.56236,0.84389 0.90433,1.79077 1.50037,2.60083c0.10797,0.07161 0.2254,0.1429 0.3537,0.2147zM111.25313,214.7908l-0.06396,0.00113l-0.00183,-0.1029c-0.14901,-0.13123 -0.29635,-0.26324 -0.43866,-0.39812c0.12185,0.19163 0.24111,0.38288 0.35506,0.57423c0.06695,0.06695 0.13233,0.13529 0.19645,0.20479c-0.02279,-0.09119 -0.03878,-0.18423 -0.04709,-0.2791zM115.10437,214.85967c0.0169,0.03173 0.03289,0.06333 0.04791,0.09471c0.02439,-0.36636 0.05247,-0.7211 0.05987,-1.02277l-0.00954,0.00069l-0.02156,-0.30174c-0.00031,-0.00409 -0.0005,-0.00822 -0.0005,-0.0124c0,-0.02134 0.00441,-0.04164 0.01234,-0.06009c-0.18829,-0.28181 -0.34489,-0.59186 -0.47571,-0.9071c-0.18149,-0.16774 -0.37143,-0.35348 -0.5522,-0.54798c0.08159,0.13888 0.16188,0.28427 0.24124,0.43756c0.28556,0.69047 0.4786,1.38425 0.60498,2.08933c0.03129,0.07652 0.0621,0.15323 0.09317,0.22978zM110.80456,213.61555c-0.03318,-0.04479 -0.06361,-0.08908 -0.09081,-0.13261l-0.19959,-0.11974l0.02018,-0.03365c-0.13315,-0.07466 -0.25219,-0.15729 -0.36705,-0.24656c-0.03761,0.00947 -0.07517,0.01649 -0.11259,0.02115l0.06352,0.04552c0.13009,0.09333 0.38767,0.26151 0.68632,0.46592zM115.54206,214.03618c0.00025,-0.00393 0.0005,-0.00784 0.00076,-0.01174c-0.00186,0.0006 -0.00371,0.00116 -0.0056,0.0017c0.00164,0.00334 0.00324,0.00667 0.00488,0.01004zM112.83295,214.94504c-0.22748,-0.54247 -0.41889,-1.10439 -0.59759,-1.65908c-0.01961,0.04753 -0.03834,0.09437 -0.05619,0.14073c0.00708,0.02238 0.01442,0.04426 0.02207,0.0655c0.17725,0.4933 0.40485,0.97298 0.63171,1.45284zM111.89554,212.21736c-0.00107,-0.00138 -0.00217,-0.0028 -0.00324,-0.00419c0.07309,0.22049 0.12018,0.46992 0.16742,0.70801c0.01523,-0.01344 0.03094,-0.02619 0.04715,-0.03824c-0.07111,-0.22478 -0.14102,-0.44725 -0.21137,-0.66561zM113.11164,212.76348c-0.15804,-0.33803 -0.31747,-0.68286 -0.49799,-1.01106c0.00453,0.01429 0.00922,0.02776 0.0141,0.04029c0.1322,0.33856 0.30413,0.65708 0.48389,0.97077zM112.16489,212.07621c0.09446,0.27567 0.18269,0.55824 0.27124,0.84279c0.23885,0.18294 0.60523,0.58503 0.95689,1.0132c-0.49066,-0.97716 -1.24931,-1.89364 -1.31047,-2.87861l-0.03884,0.00648l-0.01083,-0.06494c-0.10183,0.19676 -0.2249,0.35921 -0.36422,0.49031c0.02361,0.01086 0.04394,0.02761 0.05918,0.04835l0.09216,0.12292c0.13154,0.13189 0.23469,0.26935 0.34486,0.41949zM108.29913,211.1406c0.04542,0.09597 0.0966,0.19695 0.15282,0.29978c-0.0474,-0.10233 -0.09796,-0.20249 -0.15282,-0.29978zM109.8601,214.40892c0.13589,0.34499 0.28508,0.63186 0.49135,0.88941c-0.16727,-0.29459 -0.32786,-0.59472 -0.49135,-0.88941z" fill="#903434" stroke="none" stroke-width="0.5" stroke-linecap="butt"/><path d="M140.10799,176.3927l0.25134,-6.15613l0.60319,-6.15613l1.0053,-4.80609l1.55822,-4.64411l1.85983,-4.1041l2.06088,-3.07808l1.98414,-1.64l1.31378,-0.58811l0.72988,-0.11763l1.56924,-0.07841h1.93418l2.37212,0.19604l5.25517,1.09778l9.92641,2.31316l1.53276,0.6273l0.87587,0.70571l0.80288,1.05856l0.32846,1.17619l0.14596,3.95984l-0.21895,6.19459l-0.29195,4.46951l-0.29195,4.11665l-0.25547,4.46951l-0.10948,3.33254v0.27445v1.96837v0.27445l0.10948,3.33254l0.25547,4.46951l0.29195,4.11665l0.29195,4.46951l0.21895,6.19459l-0.14596,3.95984l-0.32846,1.17619l-0.80288,1.05856l-0.87587,0.70571l-1.53276,0.6273l-9.92641,2.31316l-5.25517,1.09778l-2.37212,0.19604h-1.93418l-1.56924,-0.07841l-0.72988,-0.11763l-1.31378,-0.58811l-1.98414,-1.64l-2.06088,-3.07808l-1.85983,-4.1041l-1.55822,-4.64411l-1.0053,-4.80609l-0.60319,-6.15613l-0.25134,-6.15613z" fill="#666666" stroke="#000000" stroke-width="0.25" stroke-linecap="round"/><path d="M113.0564,141.08492l0.04693,0.04108c0,0 2.109,-0.32342 2.83845,0.78534c0.72944,1.10874 0.37366,4.09708 0.37366,4.09708l-0.37533,1.16325l-0.29749,0.64011l-0.78333,1.05044c0,0 -1.43257,1.58577 -3.3558,2.81053c-1.92323,1.22476 -5.20984,2.6443 -5.20984,2.6443l-0.72809,0.34262c0,0 -0.12622,0.02361 -0.14951,0.01259c-0.02808,-0.01331 -0.0073,-0.08688 -0.0073,-0.08688l0.15682,-0.39683l0.85658,-2.74099l1.07071,-2.48405l1.49899,-3.29779l1.1992,-1.79877l1.24201,-1.54183l1.48407,-1.22967z" data-paper-data="{&quot;index&quot;:null}" fill="#9a3737" stroke="#000000" stroke-width="0" stroke-linecap="round"/><path d="M106.97072,151.04415c0.85415,-0.65207 2.94657,-2.15575 3.8605,-1.97888c1.16294,0.22509 -0.71975,3.35618 -0.71975,3.35618l-0.165,0.14501c-1.75517,0.93099 -3.65281,1.75058 -3.65281,1.75058l-0.72809,0.34262c0,0 -0.12622,0.02361 -0.14951,0.01259c-0.02808,-0.01331 -0.0073,-0.08688 -0.0073,-0.08688l0.15682,-0.39683l0.79894,-2.55664l0.10724,-0.31291z" data-paper-data="{&quot;index&quot;:null}" fill="#d6d6d6" stroke="#000000" stroke-width="0" stroke-linecap="round"/><path d="M274.22762,133.06175l-1.89251,4.55119l-0.15203,0.19006l-2.05254,0.91223l-5.69329,2.16075l-3.68098,1.21632l-6.33765,1.92049l-2.72072,0.67219l-4.70524,0.76819l-2.75274,0.25606l-4.48119,0.32009l-17.47658,0.4481h-10.9789h-3.26486l-6.08159,-0.06402l-2.84874,-0.22405l-3.68095,-0.48011l-2.27259,-0.41612l-4.73725,-1.05627l-2.84874,-0.92825l-9.9226,-3.74498l-5.69751,-2.6567l-0.64017,-0.54414l-0.06402,-0.32009l0.09604,-0.32009l0.28808,-0.3521l0.64017,-0.28808l1.72845,-0.19204l6.84981,-0.38411l11.33097,-0.48011l15.65213,-0.57615l13.92367,-0.25606l17.47658,-0.32009l12.1312,-0.19204l16.22828,0.09604l8.67427,0.09604z" data-paper-data="{&quot;index&quot;:null}" fill="#666666" stroke="#000000" stroke-width="0" stroke-linecap="round"/><path d="M174.34537,134.71752l0.26006,4.37372l-2.12405,-0.99388l-1.86216,-0.86275l-0.75503,-0.35216l-0.53211,-0.46469l-0.12673,-0.48871l0.25729,-0.44776l0.6149,-0.29299l0.80499,-0.1487z" data-paper-data="{&quot;index&quot;:null}" fill="#333333" stroke="#000000" stroke-width="0" stroke-linecap="round"/><path d="M222.28215,146.47744h-1.95165l4.09802,-13.21765l-0.27558,-0.1464l8.35818,-0.15307l-0.04249,0.18744l-6.2453,13.2004z" data-paper-data="{&quot;index&quot;:null}" fill="#333333" stroke="#000000" stroke-width="0" stroke-linecap="round"/><path d="M178.64031,150.00707l5.2128,0.48871l7.43909,0.43441l10.5342,0.10859h11.7831l22.64311,-0.97738l19.548,-1.3575l4.31005,-0.21719v1.11702l-4.31005,0.21719l-19.548,1.3575l-22.64311,0.97742h-11.7831l-10.5342,-0.10859l-7.43909,-0.43441l-5.2128,-0.48871" data-paper-data="{&quot;index&quot;:null}" fill="#333333" stroke="#000000" stroke-width="0.75" stroke-linecap="round"/><path d="M366.18567,141.81477c0.01306,-0.00642 0.02616,-0.01278 0.03931,-0.01907c1.90821,-0.91512 3.99692,-0.27674 4.66523,1.42583c0.62453,1.59102 -0.21228,3.54834 -1.88177,4.54477" data-paper-data="{&quot;index&quot;:null}" fill="#ad9f84" stroke="#9f9279" stroke-width="0.25" stroke-linecap="butt"/><g data-paper-data="{&quot;index&quot;:null}"><path d="M363.16072,141.30362c-0.11328,-1.1127 0.09163,-1.94082 0.64411,-2.23126c1.1359,-0.59711 3.31091,1.30462 4.85799,4.24763c1.54708,2.94301 1.88042,5.81287 0.74452,6.41002c-0.35965,0.18905 -0.82349,0.12761 -1.33858,-0.13809l-0.33771,-0.15553l-0.67338,-1.51941l-2.09859,-3.68322l-2.01432,-2.76035z" data-paper-data="{&quot;index&quot;:null}" fill="#cfcfcf" stroke="#000000" stroke-width="0" stroke-linecap="round"/><path d="M365.70291,141.09355c0.14523,0.07129 0.29321,0.15918 0.43608,0.24898l0.07466,0.01867l-0.00157,0.00626l0.01744,-0.00135c0.13979,0.06966 0.27693,0.17029 0.40976,0.29528c0.05996,0.03623 0.11605,0.06812 0.16724,0.09374l0.00447,0.0056l0.00135,-0.0022l0.17171,0.10586c0.04463,0.0265 0.07454,0.07517 0.07454,0.13085c0,0.03938 -0.01495,0.07523 -0.0395,0.10224c0.60394,0.82132 1.06187,2.07444 1.17109,2.96558c0.00327,0.0051 0.00655,0.01023 0.00979,0.0153l0.03717,-0.00929l0.01879,0.07517l0.10183,0.11476c0.02411,0.02691 0.03875,0.06245 0.03875,0.10142c0,0.0067 -0.00044,0.01328 -0.00126,0.01977c0.05436,0.06834 0.10869,0.13522 0.16302,0.20044l0.00138,0.00356l0.00085,-0.00063l0.12877,0.17064c0.0198,0.02569 0.0316,0.05785 0.0316,0.09279c0,0.07504 -0.05436,0.1374 -0.12584,0.1498c0.06635,0.15537 0.12537,0.31231 0.17706,0.46727l-0.00286,0.01287l0.00532,-0.00085l0.02502,0.15474c0.00157,0.00878 0.00239,0.01782 0.00239,0.02707c0,0.03126 -0.00941,0.06028 -0.02559,0.08445c0.12833,0.36135 0.23472,0.72639 0.28361,1.09322l0.03462,-0.008l0.06837,0.29629l-0.07639,0.01763c0.00192,0.04983 0.00258,0.09969 0.00195,0.14955l-0.14001,-0.06667l-0.0412,0.0412l-0.11716,-0.11716c-0.02908,-0.02323 -0.05943,-0.04684 -0.0905,-0.07092l0.01766,0.0882c0.00233,0.01061 0.00356,0.02159 0.00356,0.03289c0,0.08398 -0.06808,0.15203 -0.15203,0.15203c-0.03843,0 -0.07353,-0.01426 -0.10028,-0.03777l-0.13031,-0.11319c-0.1192,-0.10356 -0.24023,-0.20586 -0.36035,-0.30907c-0.0102,-0.00472 -0.01977,-0.01054 -0.02858,-0.01728l-0.16094,-0.12071l0.01209,-0.01612c-0.17986,-0.15855 -0.35468,-0.32157 -0.51518,-0.49639c-0.06144,-0.06044 -0.12515,-0.12178 -0.19368,-0.18275l-0.0023,-0.00192l-0.00658,0.00737l-0.22654,-0.2017c-0.03157,-0.02786 -0.0515,-0.06862 -0.0515,-0.11404c0,-0.06453 0.0402,-0.11964 0.09689,-0.14174c-0.39462,-0.51159 -0.75919,-1.06457 -0.93905,-1.6157l-0.04904,0.02103l-0.11845,-0.2764c-0.00875,-0.0192 -0.01363,-0.04051 -0.01363,-0.06298c0,-0.08398 0.06808,-0.15203 0.15203,-0.15203c0.05228,0 0.09843,0.02641 0.12578,0.0666l0.10822,0.15458c0.10372,0.14854 0.29598,0.33384 0.51688,0.53529c-0.3877,-0.55748 -0.74153,-1.1405 -0.98151,-1.74809l-0.01753,0.01168l-0.16104,-0.24152c-0.01684,-0.02446 -0.02669,-0.05411 -0.02669,-0.08606c0,-0.08398 0.06808,-0.15203 0.15203,-0.15203c0.04199,0 0.07998,0.01703 0.10752,0.04454l0.10935,0.10935c0.27158,0.27183 0.53492,0.54008 0.80036,0.80464c-0.01272,-0.0198 -0.02534,-0.03966 -0.0379,-0.05955c-0.21285,-0.25587 -0.40366,-0.51304 -0.54408,-0.7572c-0.35896,-0.39368 -0.67203,-0.7844 -0.84609,-1.14767c-0.05911,-0.05099 -0.11807,-0.10047 -0.17706,-0.14775l-0.00387,-0.008l-0.00223,0.00223l-0.16217,-0.16217c-0.02751,-0.02751 -0.04454,-0.06553 -0.04454,-0.10752c0,-0.08398 0.06808,-0.15203 0.15203,-0.15203c0.03044,0 0.0588,0.00894 0.08256,0.02436l0.25587,0.15993l-0.0317,0.05071c0.00378,0.00296 0.00759,0.00589 0.01136,0.00884c0.16547,0.09175 0.32959,0.20573 0.49126,0.33661c0.04105,0.00919 0.0758,0.035 0.09689,0.06997l0.01243,0.01986c0.1724,0.11672 0.34971,0.23541 0.52192,0.35635c0.01061,-0.02575 0.02811,-0.04794 0.05017,-0.06431c-0.45371,-0.41244 -0.96889,-0.7743 -1.38683,-1.20886c-0.00485,-0.00375 -0.00966,-0.00746 -0.01451,-0.01121l-0.01848,0.02461l-0.24184,-0.18137c-0.00022,-0.00016 -0.00044,-0.00031 -0.00066,-0.0005l-0.05039,-0.02288c-0.05427,-0.02323 -0.09226,-0.07709 -0.09226,-0.13985c0,-0.00315 0.00009,-0.00623 0.00028,-0.00935c-0.1972,-0.04917 -0.39566,-0.10337 -0.53904,-0.16865c-0.05955,-0.01174 -0.11911,-0.02354 -0.17863,-0.03547l-0.21178,-0.04237c-0.07104,-0.01275 -0.12499,-0.07491 -0.12499,-0.14964c0,-0.08398 0.06808,-0.15203 0.15203,-0.15203v0h0.16217v0.02943l0.08219,0.01643c0.0238,0.00475 0.04759,0.00951 0.07142,0.01423c0.23944,0.00441 0.49585,0.06097 0.74049,0.14067c0.48751,0.08694 0.97701,0.16041 1.47122,0.20529c0,0 0.1514,0.01376 0.13765,0.16519c-0.01376,0.1514 -0.16519,0.13765 -0.16519,0.13765c-0.18987,-0.01728 -0.37907,-0.03868 -0.56771,-0.06339c0.00242,0.0108 0.00371,0.02207 0.00371,0.03359c0,0.02581 -0.00642,0.05011 -0.01775,0.07139zM368.01988,147.4431c-0.00976,-0.0158 -0.01926,-0.03038 -0.02849,-0.04341l-0.10211,-0.11203c-0.02487,-0.02707 -0.04004,-0.06317 -0.04004,-0.1028c0,-0.08398 0.06808,-0.15203 0.15203,-0.15203c0.04199,0 0.07998,0.01703 0.10752,0.04454l0.21502,0.21502l-0.02125,0.02125c0.01017,0.01445 0.02018,0.02874 0.03,0.0429c0.11039,0.08656 0.21354,0.17803 0.31911,0.27199c-0.21769,-0.40791 -0.38071,-0.98037 -0.5183,-1.49555c-0.11033,-0.1622 -0.21599,-0.33592 -0.31757,-0.51719c-0.24086,-0.161 -0.48207,-0.37127 -0.71581,-0.60114c0.37121,0.63548 0.71156,1.27207 0.92302,1.55398l0.00072,0.00255l0.00072,-0.0005l0.14083,0.2012c0.01797,0.02496 0.02855,0.05562 0.02855,0.0887c0,0.08398 -0.06808,0.15203 -0.15203,0.15203c-0.04199,0 -0.07998,-0.01703 -0.10752,-0.04454l-0.20271,-0.20271l0.01709,-0.01709c-0.12833,-0.0842 -0.25465,-0.17592 -0.37832,-0.27366c0.18974,0.31505 0.36856,0.61701 0.5296,0.84864c0.04048,0.03935 0.08052,0.07954 0.11989,0.11989zM366.68996,142.14065c-0.01442,-0.01999 -0.02918,-0.03969 -0.04435,-0.05905l-0.01555,-0.00425c0.02015,0.02106 0.0401,0.04218 0.0599,0.0633zM366.5825,142.028l0.00434,-0.0159c-0.00834,-0.0017 -0.01665,-0.00346 -0.02493,-0.00526c0.00689,0.00705 0.01376,0.0141 0.02059,0.02115z" fill="#c7c7c7" stroke="none" stroke-width="0.5" stroke-linecap="butt"/></g><path d="M371.64569,153.27889c0.01473,-0.00557 0.02949,-0.01105 0.04432,-0.01646c1.72899,-0.62988 3.48227,0.09988 3.91608,1.62996c0.42106,1.48526 -0.55591,3.17868 -2.19494,3.85275" data-paper-data="{&quot;index&quot;:null}" fill="#ad9f84" stroke="#9f9279" stroke-width="0.25" stroke-linecap="butt"/><g data-paper-data="{&quot;index&quot;:null}" stroke-linecap="butt"><path d="M369.16661,152.39206c0.05335,-0.89255 0.32226,-1.52052 0.80071,-1.68838c1.01191,-0.35503 2.57791,1.48252 3.49779,4.10432c0.91984,2.62179 0.84524,5.03499 -0.16667,5.39001c-0.32021,0.11234 -0.69592,0.00513 -1.08906,-0.277l-0.53344,-0.56183l-0.29254,-0.99212l-0.89938,-2.35553l-1.41699,-3.49068z" data-paper-data="{&quot;index&quot;:null}" fill="#cfcfcf" stroke="#000000" stroke-width="0"/><path d="M370.89862,152.18176c0.06324,-0.06267 0.17507,-0.09059 0.35625,-0.06295c0.18534,0.02827 0.416,0.2837 0.64615,0.6324c0.11127,0.07561 0.22144,0.15628 0.33073,0.24366c0,0 0.11873,0.09497 0.02373,0.2137c-0.01769,0.02213 -0.0362,0.03683 -0.05461,0.04611c0.2413,0.44237 0.45789,0.92567 0.59006,1.27525l0.04945,-0.02474l0.12027,0.24051c0.01111,0.02112 0.01741,0.0452 0.01741,0.07073c0,0.08398 -0.06808,0.15203 -0.15203,0.15203c-0.03846,0 -0.07359,-0.01429 -0.10035,-0.03784l-0.11114,-0.09667c-0.11272,-0.06752 -0.25975,-0.1696 -0.41294,-0.29258c0.29242,0.47615 0.58408,0.9557 0.79941,1.45259l0.02024,-0.01401l0.17199,0.24845c0.01769,0.02487 0.02811,0.05527 0.02811,0.0881c0,0.02915 -0.00818,0.05634 -0.02241,0.07948l0.00072,0.00054c0.03774,0.02767 0.06223,0.07233 0.06223,0.1227c0,0.08398 -0.06808,0.15203 -0.15203,0.15203c-0.02247,0 -0.04378,-0.00488 -0.06298,-0.01363l-0.2764,-0.11845l0.02625,-0.06122c-0.08725,-0.03431 -0.17319,-0.07451 -0.25776,-0.11958c0.12078,0.26617 0.22824,0.53926 0.29582,0.79098c0.14114,0.25241 0.26176,0.46834 0.35059,0.60495c0.11319,0.1741 0.86004,0.81276 0.60269,1.05866c-0.1746,0.16686 -0.48175,-0.07073 -0.60955,-0.14671c-0.17577,-0.17473 -0.34703,-0.35537 -0.5166,-0.53885c-0.03538,0.01045 -0.07561,0.00919 -0.11942,-0.00189c0.17709,0.34099 0.31914,0.63854 0.37904,0.75834l0.07973,0.15943c0.01111,0.02112 0.01741,0.0452 0.01741,0.07073c0,0.08398 -0.06808,0.15203 -0.15203,0.15203c-0.01391,0 -0.02738,-0.00186 -0.0402,-0.00535l-0.15886,-0.03972l0.0141,-0.05644c-0.81471,-0.25134 -1.26968,-1.50465 -1.46335,-2.24631l0.00054,-0.0046l-0.00145,0.00028l-0.03991,-0.19963c-0.00233,-0.01061 -0.00356,-0.02159 -0.00356,-0.03289c0,-0.02953 0.0084,-0.05707 0.02295,-0.08036l-0.00554,-0.01108c-0.01111,-0.02112 -0.01741,-0.0452 -0.01741,-0.07073c0,-0.08398 0.06808,-0.15203 0.15203,-0.15203c0.03478,0 0.06683,0.01168 0.09245,0.03132l0.16094,0.12071l-0.00233,0.00308l0.0107,0.00368c0.22163,0.22106 0.43517,0.44961 0.64578,0.67993c-0.05433,-0.15389 -0.10608,-0.31993 -0.15666,-0.49057c-0.32522,-0.49038 -0.64785,-1.00342 -0.95176,-1.50786l-0.22295,-0.19506c-0.0322,-0.02789 -0.05257,-0.06906 -0.05257,-0.11498c0,-0.08398 0.06808,-0.15203 0.15203,-0.15203c0.03478,0 0.06683,0.01168 0.09245,0.03132l0.16094,0.12071l-0.0028,0.00375l0.01121,0.00302c0.0447,0.0447 0.09465,0.08983 0.14863,0.13535c-0.55166,-0.60432 -1.08038,-1.25479 -1.36017,-1.81177l-0.02329,0.01747l-0.12071,-0.16094c-0.01964,-0.02562 -0.03132,-0.05767 -0.03132,-0.09245c0,-0.08398 0.06808,-0.15203 0.15203,-0.15203c0.02553,0 0.04961,0.0063 0.07073,0.01741l0.15943,0.07973l-0.00098,0.00195l0.0062,0.00079c0.03094,0.0186 0.06443,0.0379 0.1,0.05789c-0.24067,-0.44719 -0.21719,-0.66177 -0.07816,-0.72072l-0.07901,-0.0395c-0.05143,-0.02439 -0.087,-0.07677 -0.087,-0.13746c0,-0.08398 0.06808,-0.15203 0.15203,-0.15203c0.0113,0 0.02229,0.00123 0.03289,0.00356l0.19963,0.03991l-0.00164,0.00815l0.02115,-0.0029c0.12717,0.06258 0.25197,0.12364 0.37479,0.18502zM372.86516,157.90033c0.16459,0.17882 0.33057,0.35518 0.50042,0.52632c0.35128,0.21348 -0.08958,-0.23353 -0.46992,-0.63775c-0.00711,0.03944 -0.01719,0.07668 -0.0305,0.11143zM370.83072,153.69573c0.039,0.04558 0.07548,0.08502 0.10856,0.1141c0.3622,0.31839 0.66375,0.68276 0.95157,1.05576c-0.14209,-0.27917 -0.27231,-0.56318 -0.38424,-0.80993c-0.23623,-0.07765 -0.45833,-0.21133 -0.67587,-0.35994zM371.21918,152.69364c0.03324,0.0792 0.08543,0.1932 0.15968,0.34807l0.1475,0.25814c0.00803,0.01347 0.01404,0.02827 0.0176,0.04397l0.05474,0.06387l-0.02455,0.02106c0.01376,0.01974 0.02726,0.03903 0.04045,0.05776c0.24782,0.23582 0.46434,0.50237 0.71115,0.73785c-0.32182,-0.4526 -0.73813,-1.11434 -0.97222,-1.45526c-0.04457,-0.02559 -0.08933,-0.05068 -0.13434,-0.07542zM370.69301,152.96231l0.1152,0.19575c0,0 0.02515,0.04275 0.02232,0.0938c0.11187,0.06217 0.22553,0.12795 0.33337,0.19689c-0.23079,-0.3035 -0.44936,-0.62887 -0.67732,-0.93952c-0.05083,-0.022 -0.0057,0.09292 0.20642,0.45308z" fill="#c7c7c7" stroke="none" stroke-width="0.5"/></g><path d="M286.16851,132.91296l-9.14151,3.61775c0,0 -6.79149,2.65176 -11.60651,4.54414c-6.02833,2.36925 -12.6234,4.048 -12.6234,4.048l-7.1756,1.15567l-5.89773,0.35172l-15.28498,0.45223l-14.7935,0.15074l-8.06025,-0.25122l-4.4233,-0.35172l-3.68608,-0.60297l-5.652,-1.25617l-9.23981,-3.31626l-8.74833,-3.96947l-0.78635,-0.60297l-0.34404,-0.40199l-0.06402,-0.48871l0.10057,-0.44776l0.39544,-0.54376l1.14981,-0.49352c0,0 4.97591,-0.3933 11.01182,-0.66696c17.9634,-0.81449 35.76784,-1.14154 35.76784,-1.14154l32.1427,-0.58918l16.66111,0.15074l15.92393,0.25122l6.34008,0.30148l1.22869,0.20098l0.63891,0.15074l0.63891,0.40199l0.58978,0.70344" data-paper-data="{&quot;index&quot;:null}" fill="none" stroke="#000000" stroke-width="0.75" stroke-linecap="round"/><path d="M138.32984,131.01205l-15.53273,5.09539l-5.15397,1.84929l-3.98304,1.67031l-0.72809,0.55676l-0.17133,0.29978v0.34262l0.34262,0.29978c0,0 2.109,-0.32342 2.83845,0.78534c0.72944,1.10874 0.37366,4.09708 0.37366,4.09708l-0.37533,1.16325l-0.29749,0.64011l-0.78333,1.05044c0,0 -1.43257,1.58577 -3.3558,2.81053c-1.92323,1.22476 -5.20984,2.6443 -5.20984,2.6443l-0.72809,0.34262c0,0 -0.12622,0.02361 -0.14951,0.01259c-0.02808,-0.01331 -0.0073,-0.08688 -0.0073,-0.08688l0.15682,-0.39683l0.85658,-2.74099l1.07071,-2.48405l1.49899,-3.29779l1.1992,-1.79877l1.24201,-1.54183l1.49899,-1.24201" data-paper-data="{&quot;index&quot;:null}" fill="none" stroke="#000000" stroke-width="0.75" stroke-linecap="round"/><path d="M116.29945,146.35347l9.20241,-0.96026l13.36351,-1.12029l4.08109,-0.24007h4.88129" data-paper-data="{&quot;index&quot;:null}" fill="none" stroke="#000000" stroke-width="0.75" stroke-linecap="round"/><path d="M106.59722,151.33627c0,0 3.07109,-2.49607 4.23403,-2.27098c1.16294,0.22509 -0.71975,3.35618 -0.71975,3.35618" data-paper-data="{&quot;index&quot;:null}" fill="none" stroke="#000000" stroke-width="0.5" stroke-linecap="round"/><path d="M263.41936,178.17803v-3.69965l-0.30407,-5.01733l-0.30407,-4.15575l-0.30407,-5.62549l-0.50681,-5.62549l-0.30407,-5.47343l0.15203,-1.41903l0.65884,-1.11497l2.48333,-1.267l13.07544,-4.96665l8.76763,-2.73671l3.09149,-0.70952l2.43265,-0.15203h1.87516l1.06429,0.15203l0.91223,0.35474l1.67245,1.87516l1.77381,2.38197l1.41903,2.33126l2.48333,5.11869l1.87516,5.47343l1.46971,6.08159l0.86155,5.57481l0.40545,5.62549l0.35474,7.24724v3.13713l-0.35474,7.24724l-0.40545,5.62549l-0.86155,5.57481l-1.46971,6.08159l-1.87516,5.47343l-2.48333,5.11869l-1.41903,2.33126l-1.77381,2.38197l-1.67245,1.87516l-0.91223,0.35474l-1.06429,0.15203h-1.87516l-2.43265,-0.15203l-3.09149,-0.70952l-8.76763,-2.73671l-13.07544,-4.96665l-2.48333,-1.267l-0.65884,-1.11497l-0.15203,-1.41903l0.30407,-5.47343l0.50681,-5.62549l0.30407,-5.62549l0.30407,-4.15575l0.30407,-5.01733v-3.69965z" data-paper-data="{&quot;index&quot;:null}" fill="#666666" stroke="#000000" stroke-width="0.25" stroke-linecap="round"/><path d="M363.12018,141.58745c-0.11328,-1.1127 0.13217,-2.22462 0.68468,-2.51505c1.1359,-0.59711 3.31091,1.30462 4.85799,4.24763c1.54708,2.94301 1.88042,5.81287 0.74452,6.41002c-0.35965,0.18905 -1.0262,0.08706 -1.54129,-0.17863" data-paper-data="{&quot;index&quot;:null}" fill="none" stroke="#000000" stroke-width="0.75" stroke-linecap="butt"/><path d="M369.16661,152.63534c0.05335,-0.89255 0.32226,-1.76377 0.80071,-1.93163c1.01191,-0.35503 2.57791,1.48252 3.49779,4.10432c0.91984,2.62179 0.84524,5.03499 -0.16667,5.39001c-0.42566,0.14933 -0.94934,-0.08927 -1.48174,-0.61103" data-paper-data="{&quot;index&quot;:null}" fill="none" stroke="#000000" stroke-width="0.75" stroke-linecap="butt"/><path d="M355.14895,131.59626l1.75596,0.7709l2.14139,1.07071l1.67031,0.98503l1.1992,1.02787l0.04284,0.42827l-0.25698,0.12849h-0.55676l-0.94222,0.17133l-0.34262,0.25698l-0.17133,0.38546l0.08565,0.42827l0.25698,0.51395l1.4587,1.7163l3.46908,4.75393l2.09859,3.68322l1.67031,3.76887l1.75596,4.32566l0.89938,2.35553l0.98503,3.3406" data-paper-data="{&quot;index&quot;:null}" fill="none" stroke="#000000" stroke-width="0.75" stroke-linecap="round"/><path d="M297.67355,135.0225l0.47111,-0.12849l1.24201,-0.34262l0.94222,-0.12849l2.14139,-0.08565h3.51192l8.30866,0.17133l13.44803,0.55676l9.50787,0.85658l14.30461,1.79877l9.63632,1.58463" data-paper-data="{&quot;index&quot;:null}" fill="none" stroke="#000000" stroke-width="0.75" stroke-linecap="round"/><path d="M281.63772,133.13637c0.00145,0.04599 -0.07183,0.09349 -0.07183,0.09349l-5.63028,2.24332c0,0 -0.22257,0.07797 -0.3329,-0.01857c-0.14032,-0.12279 -0.09135,-0.33926 -0.09135,-0.33926l1.47009,-5.89333l4.57751,3.78687c0,0 0.07731,0.08152 0.07875,0.12751z" data-paper-data="{&quot;index&quot;:null}" fill="#333333" stroke="#000000" stroke-width="0.75" stroke-linecap="round"/><path d="M272.65287,121.84555c1.98363,-1.11295 4.8601,0.24555 6.42478,3.03433c1.56468,2.78875 1.22504,5.95172 -0.75859,7.06467c-1.98363,1.11295 -3.9305,-0.76712 -5.49518,-3.5559c-1.56468,-2.78875 -2.15468,-5.43015 -0.17101,-6.5431z" data-paper-data="{&quot;index&quot;:null}" fill="#ccbc9b" stroke="#000000" stroke-width="0" stroke-linecap="butt"/><path d="M174.60543,139.46743l-0.26006,-4.78125l-0.76019,-1.78646l-0.19006,-1.14031v-0.41811l0.15203,-0.68418l0.34209,-0.53215l1.33036,-1.06429" data-paper-data="{&quot;index&quot;:null}" fill="none" stroke="#000000" stroke-width="0.75" stroke-linecap="round"/><path d="M188.14814,143.99394l1.75533,-9.74788" data-paper-data="{&quot;index&quot;:null}" fill="none" stroke="#000000" stroke-width="0.75" stroke-linecap="round"/><path d="M189.10724,134.26004l-1.62505,9.47201" data-paper-data="{&quot;index&quot;:null}" fill="none" stroke="#000000" stroke-width="0.75" stroke-linecap="round"/><path d="M232.46865,133.14778l-6.20363,13.07544" data-paper-data="{&quot;index&quot;:null}" fill="none" stroke="#000000" stroke-width="0.75" stroke-linecap="round"/><path d="M220.43513,146.30158l3.99339,-13.04179" data-paper-data="{&quot;index&quot;:null}" fill="none" stroke="#000000" stroke-width="0.75" stroke-linecap="round"/><path d="M275.06109,132.46073l-2.2458,5.65936" data-paper-data="{&quot;index&quot;:null}" fill="none" stroke="#000000" stroke-width="0.75" stroke-linecap="round"/><path d="M229.82565,128.49054l-0.87606,1.55766l-0.57133,1.67447l-0.13859,1.42857l-5.30821,13.68055" data-paper-data="{&quot;index&quot;:null}" fill="none" stroke="#000000" stroke-width="0.75" stroke-linecap="round"/><path d="M272.02192,122.43759c0.12534,0.4753 0.95982,3.55882 1.97841,5.37428c0.92863,1.65508 2.71946,3.5203 3.26965,4.07561l-0.1436,0.38229c-1.56059,-0.00752 -3.05331,-1.65476 -4.30246,-3.88115c-1.3349,-2.3792 -1.96034,-4.65113 -0.88352,-5.95823z" data-paper-data="{&quot;index&quot;:null}" fill="#333333" stroke="#000000" stroke-width="0" stroke-linecap="round"/><path d="M277.43479,132.05176c0,0 -2.32859,-2.26891 -3.43443,-4.23989c-1.10584,-1.97095 -1.99471,-5.43657 -1.99471,-5.43657" data-paper-data="{&quot;index&quot;:null}" fill="none" stroke="#000000" stroke-width="0.75" stroke-linecap="round"/><path d="M272.65287,121.84555c1.98363,-1.11295 4.8601,0.24555 6.42478,3.03433c1.56468,2.78875 1.22504,5.95172 -0.75859,7.06467c-1.98363,1.11295 -3.9305,-0.76712 -5.49518,-3.5559c-1.56468,-2.78875 -2.15468,-5.43015 -0.17101,-6.5431z" data-paper-data="{&quot;index&quot;:null}" fill="none" stroke="#000000" stroke-width="0.75" stroke-linecap="butt"/><path d="M189.90347,134.24606l-1.75533,9.74788l-0.03906,0.14253l-0.66268,-0.21593l0.03579,-0.18845l1.62505,-9.47201l-0.05836,-0.18603l0.8923,-0.0378z" data-paper-data="{&quot;index&quot;:null}" fill="#333333" stroke="#000000" stroke-width="0" stroke-linecap="round"/><path d="M274.22762,133.06172l-1.89251,4.55119l-0.15203,0.19006l-2.05254,0.91223l-5.69329,2.16075l-3.68098,1.21632l-6.33765,1.92049l-2.72072,0.67219l-4.70524,0.76819l-2.75274,0.25606l-4.48119,0.32009l-17.47658,0.4481h-10.9789h-3.26486l-6.08159,-0.06402l-2.84874,-0.22405l-3.68095,-0.48011l-2.27259,-0.41612l-4.73725,-1.05627l-2.84874,-0.92825l-9.9226,-3.74498l-5.69751,-2.6567l-0.64017,-0.54414l-0.06402,-0.32009l0.09604,-0.32009l0.28808,-0.3521l0.64017,-0.28808l1.72845,-0.19204l6.84981,-0.38411l11.33097,-0.48011l15.65213,-0.57615l13.92367,-0.25606l17.47658,-0.32009l12.1312,-0.19204l16.22828,0.09604l8.67427,0.09604z" data-paper-data="{&quot;index&quot;:null}" fill="none" stroke="#000000" stroke-width="0.25" stroke-linecap="round"/><path d="M107.49059,152.34739c-0.03393,-0.30362 -0.03321,-0.69167 -0.10107,-0.79432c-0.0017,-0.00258 -0.00337,-0.005 -0.00504,-0.0073c-0.02638,0.31549 -0.00453,0.78544 -0.07048,1.14421c0.06906,-0.10995 0.1261,-0.2249 0.17662,-0.34259zM106.99851,152.77129c-0.03444,0.09925 -0.06638,0.19286 -0.09144,0.277l0.00025,0.00006l-0.06972,0.29248c-0.01398,0.06525 -0.0701,0.11583 -0.13995,0.11986c-0.08382,0.00482 -0.15572,-0.05921 -0.16053,-0.14306c-0.00091,-0.01574 0.00063,-0.03107 0.00425,-0.04561l0.05294,-0.23472l0.00123,0.00028l-0.00047,-0.0034c0.09267,-0.34262 0.16396,-0.67851 0.26847,-0.99973c0.05307,-0.17548 0.11694,-0.34272 0.18895,-0.47744l-0.04038,-0.01523l0.10611,-0.28128c0.01974,-0.05612 0.07164,-0.09774 0.13475,-0.10139c0.06494,-0.00375 0.12266,0.03384 0.14766,0.0899c0.00189,0.00013 0.00378,0.00031 0.0057,0.0005c0.07646,0.00787 0.20941,0.23494 0.31027,0.4911c0.06975,-0.19021 0.14643,-0.37794 0.25169,-0.55434l-0.00189,-0.00104l-0.00302,-0.00094l0.00019,-0.00063l-0.0531,-0.02965l0.147,-0.26327c0.02421,-0.04501 0.07051,-0.07674 0.12528,-0.07989c0.06352,-0.00365 0.12015,0.03223 0.14599,0.08628c0.02587,-0.03585 0.06708,-0.06022 0.11464,-0.06295c0.01996,-0.00116 0.03922,0.00161 0.05707,0.00759l0.04416,-0.25824c0.01042,-0.06972 0.06849,-0.12496 0.14165,-0.12918c0.08382,-0.00482 0.15572,0.05921 0.16053,0.14306l0.00941,0.16321c0.00164,0.0294 0.00412,0.05874 0.00727,0.08801c0.01845,-0.0712 0.04438,-0.13944 0.08256,-0.2046l-0.06513,-0.05804l0.12304,-0.13809c0.02587,-0.02905 0.06286,-0.04822 0.10479,-0.05065c0.08382,-0.00482 0.15572,0.05921 0.16053,0.14306l0.01127,0.19585c0.00825,0.14344 0.01602,0.2787 0.01974,0.40973c0.10771,-0.30539 0.21571,-0.61213 0.38528,-0.84767l-0.05131,-0.03406l0.08943,-0.13472c0.02546,-0.03925 0.06862,-0.06629 0.11892,-0.06919c0.08382,-0.00482 0.15572,0.05921 0.16053,0.14306c0.00054,0.00947 0.00022,0.01882 -0.00094,0.02792l-0.02106,0.19487l-0.01117,-0.0012l0.00548,0.02912c-0.21316,0.39122 -0.11561,0.93039 -0.16758,1.41101l0.06044,0.0051l-0.0193,0.22814c-0.00516,0.07529 -0.06566,0.13673 -0.14297,0.1412c-0.06516,0.00375 -0.12307,-0.03412 -0.14794,-0.09053l-0.07318,-0.15625c0,0 -0.0645,-0.13768 0.07321,-0.20218c0.00642,-0.00302 0.01272,-0.00557 0.01882,-0.00774c-0.02373,-0.07299 -0.03862,-0.16324 -0.0463,-0.26289c-0.08798,0.17725 -0.17372,0.32837 -0.22991,0.41137l-0.00636,0.19182c-0.0017,0.07847 -0.06355,0.14372 -0.14328,0.14829c-0.08382,0.00482 -0.15572,-0.05921 -0.16053,-0.14306l-0.00897,-0.15587c-0.02597,0.03028 -0.06371,0.05033 -0.10667,0.05282c-0.0746,0.00431 -0.13976,-0.04596 -0.15657,-0.11618l-0.00611,-0.02345c-0.07067,0.34593 -0.17492,0.68257 -0.24678,0.89737l-0.00884,0.00907l0.00365,0.00192l-0.08725,0.16639c-0.02361,0.04699 -0.07095,0.08042 -0.1272,0.08367c-0.07929,0.00456 -0.14791,-0.0525 -0.15918,-0.12965l-0.04734,-0.29868l0.04029,-0.00639c-0.01177,-0.05294 -0.02219,-0.10598 -0.03138,-0.15921c-0.11958,0.20784 -0.25795,0.34266 -0.40964,0.28521c-0.08603,0.14857 -0.17218,0.2747 -0.24889,0.36154l-0.08074,0.15402c-0.02361,0.04699 -0.07095,0.08042 -0.1272,0.08367c-0.07816,0.0045 -0.14589,-0.05083 -0.15864,-0.12628l-0.04731,-0.25729l0.04914,-0.00903c-0.01143,-0.057 -0.02008,-0.11385 -0.02635,-0.1707zM109.03931,151.7873c-0.00019,-0.00054 -0.00038,-0.00107 -0.00057,-0.00161l-0.00085,0.00425c0.00047,-0.00088 0.00094,-0.00176 0.00142,-0.00264zM108.34185,151.98897c0.02546,-0.15789 0.04671,-0.31612 0.07063,-0.47357c-0.02546,0.08105 -0.05562,0.17743 -0.08999,0.28005c0.00743,0.06421 0.01416,0.12896 0.01939,0.19352z" data-paper-data="{&quot;index&quot;:null}" fill="#cdcdcd" stroke="none" stroke-width="0.5" stroke-linecap="butt"/><path d="M109.59333,147.73585c0,0 -0.02153,0.00718 -0.05071,0.00768c-0.08093,0.1599 -0.16906,0.31851 -0.26629,0.44987c-0.03478,0.07491 -0.06837,0.15021 -0.1006,0.22588c0.43063,-0.22726 0.90064,-0.35644 1.34384,-0.34823c0.03566,-0.01372 0.06723,-0.02597 0.09405,-0.03661l0.01064,0.02452v-0.06352h0.19619c0.07863,0 0.14335,0.05971 0.15125,0.13626c0.17111,0.04482 0.33378,0.11517 0.48339,0.21376l0.02184,-0.28398l0.03699,0.00283c-0.00548,-0.48726 0.0977,-0.96495 0.25886,-1.43572c-0.00699,-0.0186 -0.01369,-0.03746 -0.02018,-0.05653c-0.21414,0.3786 -0.43875,0.74565 -0.70561,1.07087l0.01275,0.0051l-0.06409,0.16019c-0.02156,0.05776 -0.07721,0.09887 -0.1425,0.09887c-0.08398,0 -0.15203,-0.06808 -0.15203,-0.15203c0,-0.00705 0.00047,-0.01401 0.00142,-0.02081l0.01089,-0.08898c-0.04668,-0.00271 -0.08773,-0.0265 -0.11373,-0.06198l-0.09204,-0.12273c-0.08474,-0.08411 -0.17029,-0.14649 -0.25609,-0.18974c-0.18222,0.14895 -0.37199,0.28845 -0.51084,0.40482l-0.14734,0.06012zM113.59966,147.35131c-0.07447,0 -0.13645,-0.05354 -0.14951,-0.12424c-0.31055,0.65059 -0.61647,1.32775 -1.04352,1.90283l-0.00998,0.00526l0.00261,0.00261l-0.13079,0.13079c-0.02672,0.02672 -0.06333,0.04353 -0.1039,0.04448c0.00331,0.00954 0.00661,0.01914 0.00985,0.0288c0.02181,0.06541 0.0436,0.13079 0.06541,0.19619l0.00781,0.14618c0,0 0,0.15203 -0.15203,0.15203c-0.15203,0 -0.15203,-0.15203 -0.15203,-0.15203l0.00781,-0.05002c-0.02181,-0.06541 -0.0436,-0.13079 -0.06541,-0.19619c-0.19223,-0.58046 -0.64534,-1.00789 -1.19262,-1.10933c-0.64039,0.26041 -1.34783,0.80014 -2.03648,1.08507c-0.25556,0.40891 -0.73964,0.44527 -0.83262,-0.16651c0.16573,-0.51458 0.55843,-1.28611 1.06215,-1.80522c0.02288,-0.06113 0.04614,-0.12207 0.06997,-0.18266c0.18024,-0.52909 0.3391,-1.00323 0.41342,-1.19139c0.31678,-0.91764 0.85283,-1.78898 1.61535,-2.36491c0.40614,-0.55094 0.88934,-1.02277 1.53487,-1.31806c0.01155,-0.0102 0.02317,-0.0203 0.03484,-0.03025l-0.0119,-0.01782l0.25128,-0.16752c0.02446,-0.01684 0.05411,-0.02669 0.08606,-0.02669c0.08398,0 0.15203,0.06808 0.15203,0.15203c0,0.05039 -0.02449,0.09503 -0.06223,0.1227l-0.12937,0.09701c-0.20671,0.15159 -0.39374,0.35729 -0.55544,0.58053c0.03252,-0.0073 0.06528,-0.0142 0.09833,-0.02059c0.44215,-0.48345 0.9297,-0.86448 1.47758,-0.90467v-0.05974h0.22887c0.08398,0 0.15203,0.06808 0.15203,0.15203c0,0.03478 -0.01168,0.06683 -0.03132,0.09245l-0.09717,0.12956l-0.00563,-0.00422l-0.00847,0.02052c-0.24747,0.18675 -0.42191,0.42903 -0.51811,0.72214c-0.10837,0.37652 -0.25323,0.7432 -0.41304,1.10584c0.18587,-0.364 0.39466,-0.71244 0.63441,-1.03621l-0.01734,-0.00869l0.1345,-0.26903c0.02439,-0.05143 0.07677,-0.087 0.13746,-0.087c0.08398,0 0.15203,0.06808 0.15203,0.15203v0.16349c0,0.45238 -0.03365,0.90319 -0.09846,1.35133c-0.00009,0.02984 -0.00063,0.05949 -0.00157,0.08895c0.00982,-0.00762 0.0197,-0.01514 0.02965,-0.02266c0.00642,-0.01778 0.01287,-0.03557 0.0193,-0.05338l-0.0057,-0.00664l0.01171,-0.01004c0.24539,-0.67996 0.48367,-1.36288 0.72192,-2.04687v-0.24892c0,-0.01681 0.00274,-0.03299 0.00777,-0.0481c-0.20602,-0.08143 -0.43888,-0.17747 -0.64785,-0.27092c-0.04492,-0.00343 -0.09037,-0.0073 -0.13617,-0.01139l-0.00286,0.00935l-0.04438,-0.01366c-0.37111,-0.03418 -0.76139,-0.07784 -1.08724,-0.00661c0,0 -0.14907,0.02981 -0.17891,-0.11927c-0.02981,-0.14907 0.11927,-0.17891 0.11927,-0.17891c0.26198,-0.04891 0.54719,-0.03976 0.83347,-0.0193c0.02779,-0.03015 0.06761,-0.04904 0.11184,-0.04904c0.0113,0 0.02229,0.00123 0.03289,0.00356l0.16041,0.03207c0.11826,0.02411 0.20894,0.03998 0.29292,0.05719c0.0243,0.00116 0.04851,0.00217 0.07259,0.00299l0.00223,-0.02465l0.3013,0.02738c0.07825,0.00623 0.13982,0.0717 0.13982,0.15156c0,0.02011 -0.0039,0.03928 -0.01099,0.05685c0.61266,0.32314 1.11683,0.98015 0.59035,0.86309l0.00047,0.00233l-0.02326,0.00466c0.09059,0.1752 0.1322,0.38669 0.1747,0.58855c0.0785,0.00025 0.143,0.05999 0.15074,0.13648l0.03466,0.30019l-0.03258,0.00375c0.24039,0.77449 0.40806,1.91432 0.18776,2.5369c-0.13985,0.39525 -0.37731,0.52151 -0.52437,0.37124c-0.03724,0.11936 -0.0926,0.24413 -0.15512,0.36913c-0.00031,0.0293 -0.00894,0.0566 -0.02358,0.07967l-0.11181,0.18279c-0.07945,0.14445 -0.13167,0.27791 -0.21052,0.39c-0.0322,0.06692 -0.05952,0.13031 -0.07938,0.18892l-0.07189,0.2153c-0.01914,0.06207 -0.07696,0.10721 -0.14533,0.10721c-0.04227,0 -0.08052,-0.01725 -0.10806,-0.04507c-0.27051,0.3509 -0.58858,0.68084 -0.80558,0.79208c0.03192,0.02786 0.05206,0.06887 0.05206,0.11454c0,0.04652 -0.0209,0.0882 -0.05386,0.11609l-0.22811,0.19553l-0.02471,-0.02883c-0.34366,0.33479 -0.73992,0.59208 -1.05318,0.97609l-0.0282,0.00529l0.00636,0.01061l-0.16135,0.09682c-0.02332,0.01454 -0.05087,0.02295 -0.08036,0.02295c-0.03724,0 -0.07136,-0.01338 -0.0978,-0.03563c-0.05077,0.0508 -0.1022,0.1023 -0.15436,0.15458c0,0 -0.10749,0.10752 -0.21502,0c-0.10752,-0.10749 0,-0.21502 0,-0.21502c0.37385,-0.37287 0.70835,-0.70159 1.01481,-1.02973c0.6476,-1.02715 1.24648,-2.02181 1.69993,-3.18705c-0.2317,0.29824 -0.44782,0.58223 -0.56469,0.82689l-0.06409,0.23227c-0.01662,0.06598 -0.07633,0.1148 -0.14744,0.1148zM114.37232,145.36318c0.13733,-0.2057 0.28052,-0.40577 0.42503,-0.59334c0.05257,-0.40422 0.0853,-0.81286 0.1034,-1.22728c-0.01782,0.0412 -0.03406,0.07979 -0.04759,0.11498c-0.09474,0.24618 -0.18795,0.49223 -0.28052,0.7381c0.03755,0.02767 0.06191,0.07224 0.06191,0.12248c0,0.02118 -0.00434,0.04136 -0.01215,0.05968l-0.06242,0.15603c-0.06295,0.20384 -0.12424,0.4153 -0.18763,0.62938zM113.77313,144.98618c0.02279,-0.13589 0.035,-0.2736 0.03453,-0.41345c0.03406,-0.24117 0.06006,-0.48251 0.07665,-0.72444c-0.15789,0.31895 -0.40397,0.6386 -0.53961,0.88163c-0.37725,0.67612 -0.62277,1.43449 -0.85708,2.18562c0.16573,-0.18058 0.37577,-0.74584 0.53835,-0.97543c0.24322,-0.34351 0.47325,-0.67108 0.74716,-0.95393zM112.84652,144.27764c0.05203,-0.11181 0.10236,-0.22345 0.15024,-0.33501c-0.02131,0.03028 -0.04388,0.06201 -0.06761,0.095c-0.11577,0.18858 -0.24923,0.36664 -0.39428,0.5364c0.01533,-0.00523 0.03179,-0.00803 0.04888,-0.00803c0.01054,0 0.02087,0.00107 0.03082,0.00312c0.04901,-0.05987 0.09884,-0.11882 0.14958,-0.1768zM113.14189,143.35251c0.0272,0 0.05272,0.00715 0.07482,0.01964c0.02676,-0.07986 0.05159,-0.15968 0.07422,-0.23951c0.05842,-0.17309 0.13771,-0.33564 0.24017,-0.48194c-0.16226,0.09031 -0.3391,0.17614 -0.49793,0.27832c0.07353,0.01067 0.12997,0.07397 0.12997,0.15046c0,0.04737 -0.02166,0.08965 -0.05559,0.11753l-0.19528,0.16273l-0.00076,-0.00091l-0.00227,0.00334c-0.50073,0.37577 -0.77058,0.77666 -1.03253,1.22004c0.02569,0.0147 0.04668,0.03664 0.06015,0.06308c0.02304,-0.0214 0.04599,-0.0429 0.06884,-0.06446c0.23475,-0.29377 0.48698,-0.60561 0.72397,-0.79195c0.04391,-0.05864 0.08628,-0.11832 0.12695,-0.17917l0.0074,-0.00441l-0.00236,-0.00198l0.16273,-0.19528c0.02789,-0.03393 0.07019,-0.05559 0.11753,-0.05559zM109.80756,147.2046c-0.00453,0.00856 -0.0091,0.01725 -0.01369,0.02609c0.01133,-0.00985 0.02263,-0.01964 0.03384,-0.0294c-0.0067,0.00101 -0.01344,0.00211 -0.02015,0.00331zM111.42975,143.84375c-0.1283,0.07183 -0.24577,0.14309 -0.3537,0.2147c-0.59604,0.81005 -0.93801,1.75694 -1.50037,2.60083c-0.07671,0.12742 -0.14486,0.26016 -0.20734,0.39636c0.00762,-0.00434 0.0152,-0.00862 0.02285,-0.01284c0.5799,-1.13549 1.46106,-2.26862 2.09342,-3.22819c-0.01885,0.00954 -0.03714,0.01923 -0.05483,0.02912zM111.2531,145.20919c0.00831,-0.09487 0.0243,-0.18792 0.04709,-0.2791c-0.06412,0.0695 -0.1295,0.13784 -0.19645,0.20479c-0.11398,0.19135 -0.23324,0.3826 -0.35506,0.57423c0.14231,-0.13491 0.28965,-0.26689 0.43866,-0.39812l0.00183,-0.1029l0.06396,0.00113zM115.01117,145.3701c-0.12638,0.70508 -0.31943,1.39886 -0.60498,2.08933c-0.07935,0.15329 -0.15968,0.29868 -0.24124,0.43756c0.18077,-0.19449 0.3707,-0.38024 0.5522,-0.54798c0.13085,-0.31524 0.28745,-0.62529 0.47571,-0.9071c-0.00793,-0.01841 -0.01234,-0.03875 -0.01234,-0.06009c0,-0.00419 0.00016,-0.00831 0.0005,-0.0124l0.02156,-0.30174l0.00954,0.00069c-0.0074,-0.30167 -0.03547,-0.65642 -0.05987,-1.02277c-0.01501,0.03138 -0.031,0.06298 -0.04791,0.09471c-0.03107,0.07655 -0.06188,0.15326 -0.09317,0.22978zM110.80456,146.3844c-0.29865,0.20438 -0.55623,0.37259 -0.68632,0.46592l-0.06352,0.04552c0.03743,0.00466 0.07495,0.01168 0.11259,0.02115c0.11486,-0.08927 0.23387,-0.17189 0.36705,-0.24656l-0.02018,-0.03365l0.19959,-0.11974c0.0272,-0.04356 0.05763,-0.08782 0.09081,-0.13261zM115.54206,145.96382c-0.00161,0.00337 -0.00324,0.0067 -0.00488,0.01004c0.00189,0.00054 0.00375,0.0011 0.0056,0.0017c-0.00025,-0.00387 -0.0005,-0.00781 -0.00076,-0.01174zM112.20124,146.50779c-0.00765,0.02125 -0.01498,0.04312 -0.02207,0.0655c0.01785,0.04633 0.03654,0.0932 0.05619,0.14073c0.17869,-0.55468 0.37014,-1.11661 0.59759,-1.65908c-0.22685,0.47986 -0.45446,0.95954 -0.63171,1.45284zM111.89554,147.78264c0.07032,-0.21835 0.14026,-0.44083 0.21137,-0.66561c-0.01621,-0.01206 -0.03195,-0.0248 -0.04715,-0.03824c-0.04725,0.23809 -0.09434,0.48751 -0.16742,0.70801c0.00107,-0.00138 0.00217,-0.0028 0.00324,-0.00419zM112.62775,148.20729c-0.00488,0.01253 -0.00957,0.026 -0.0141,0.04029c0.18052,-0.32821 0.33995,-0.67304 0.49799,-1.01106c-0.17973,0.3137 -0.35169,0.63221 -0.48389,0.97077zM112.16489,147.92378c-0.11017,0.15014 -0.21332,0.2876 -0.34486,0.41949l-0.09216,0.12292c-0.0152,0.02074 -0.03557,0.03749 -0.05918,0.04835c0.13932,0.13113 0.26239,0.29358 0.36422,0.49031l0.01083,-0.06494l0.03884,0.00648c0.06116,-0.98497 0.81981,-1.90145 1.31047,-2.87861c-0.35166,0.42818 -0.71805,0.83026 -0.95689,1.0132c-0.08858,0.28455 -0.17677,0.56712 -0.27124,0.84279zM108.45195,148.55963c-0.05622,0.10283 -0.1074,0.20381 -0.15282,0.29978c0.05486,-0.09726 0.10538,-0.19745 0.15282,-0.29978zM110.35148,144.70169c-0.20627,0.25754 -0.35547,0.54442 -0.49135,0.88941c0.16352,-0.29465 0.32408,-0.59478 0.49135,-0.88941z" data-paper-data="{&quot;index&quot;:null}" fill="#903434" stroke="none" stroke-width="0.5" stroke-linecap="butt"/><path d="M372.69689,176.99186l-0.01489,-4.04835l0.02905,-5.19835l0.05814,-3.98943l0.08719,-0.48358l0.20343,-0.40297l0.37782,-0.16119l0.49406,0.04029l0.72655,0.20148l0.37782,0.24177l0.37782,0.68506l0.34873,1.24922l0.46501,2.09547l0.40687,4.19094l0.17438,4.02975v1.54176v7.15032v0.42396l-0.17438,4.02975l-0.40687,4.19094l-0.46501,2.09547l-0.34873,1.24922l-0.37782,0.68506l-0.37782,0.24177l-0.72655,0.20148l-0.49406,0.04029l-0.37782,-0.16119l-0.20343,-0.40297l-0.08719,-0.48358l-0.05814,-3.98943l-0.02905,-5.19835l0.01146,-3.11044z" data-paper-data="{&quot;index&quot;:null}" fill="none" stroke="#000000" stroke-width="0.5" stroke-linecap="round"/><path d="M372.71917,180.35471l4.0232,-0.10123" fill="none" stroke="#000000" stroke-width="0.5" stroke-linecap="round"/><path d="M376.74237,179.74655l-4.0232,-0.10123" data-paper-data="{&quot;index&quot;:null}" fill="none" stroke="#000000" stroke-width="0.5" stroke-linecap="round"/><g data-paper-data="{&quot;index&quot;:null}"><path d="M306.88049,175.83742c-0.36249,0.12002 -0.36352,-0.12481 -0.36352,-0.12481c0,0 -1.9389,-12.44455 -4.00403,-20.84141c-1.10398,-4.4888 -5.02743,-14.73099 -5.02743,-14.73099c0,0 -0.06169,-0.30032 0.1932,-0.37996c0.32015,-0.1 0.40435,0.18002 0.40435,0.18002c0,0 3.92348,10.24222 5.02743,14.73099c2.06513,8.39686 4.00403,20.84141 4.00403,20.84141c0,0 0.06276,0.22648 -0.234,0.32475z" fill="#333333" stroke="#000000" stroke-width="0.5" stroke-linecap="round"/><g stroke-linecap="round"><path d="M310.59632,178.62874l-0.73848,-1.06284c0,0 -0.74587,-1.10118 -1.30103,-2.98472c-0.31653,-1.07389 -0.90911,-3.01969 -0.90911,-3.01969c0,0 -1.32357,-4.80269 -2.81024,-9.51224c-1.48671,-4.70955 -2.60769,-7.94379 -2.60769,-7.94379c0,0 -0.1594,-0.59541 0.19336,-1.30015c0.08005,-0.15993 0.2566,0.2486 0.2566,0.2486c0,0 1.37065,3.78407 2.97474,8.76073c1.60409,4.97669 2.7398,9.22618 2.7398,9.22618c0,0 0.58937,1.78646 1.10373,2.87112c0.51433,1.08466 1.22234,2.03409 1.22234,2.03409l0.01278,-0.38701l0.00658,2.40857l-0.04633,0.62667z" fill="#333333" stroke="#ff0000" stroke-width="0"/><path d="M309.28434,173.65841l-0.72787,0.43979" fill="none" stroke="#000000" stroke-width="0.5"/><path d="M310.51203,178.56365l-0.65418,-0.99772c0,0 -0.74587,-1.10118 -1.30103,-2.98472c-0.31653,-1.07389 -0.90911,-3.01969 -0.90911,-3.01969c0,0 -2.21329,-7.30352 -3.69997,-12.01307c-1.48671,-4.70955 -1.66364,-5.56899 -1.66364,-5.56899c0,0 -0.18946,-0.58345 0.1633,-1.28819c0.08005,-0.15993 0.2566,0.2486 0.2566,0.2486c0,0 0.45666,1.39732 2.06075,6.37398c1.60409,4.97669 3.62949,11.72704 3.62949,11.72704c0,0 0.58937,1.78646 1.10373,2.87112c0.51433,1.08466 1.16222,2.05798 1.16222,2.05798" fill="none" stroke="#000000" stroke-width="0.75"/></g><path d="M302.981,152.47676l1.03521,3.5395l-1.42823,0.4177l-1.03521,-3.5395z" fill="#333333" stroke="#000000" stroke-width="0.75" stroke-linecap="butt"/></g><g><path d="M297.87465,220.17899c0,0 -0.04819,0.23 -0.35695,0.18112c-0.37712,-0.05974 -0.2657,-0.27772 -0.2657,-0.27772c0,0 4.89828,-15.58366 6.91739,-23.99173c1.07937,-4.49478 2.29437,-15.39524 2.29437,-15.39524c0,0 0.083,-0.29513 0.34602,-0.24889c0.33035,0.05807 0.27662,0.34552 0.27662,0.34552c0,0 -1.215,10.90046 -2.29437,15.39524c-2.01908,8.40807 -6.91739,23.99173 -6.91739,23.99173z" fill="#333333" stroke="#000000" stroke-width="0.5" stroke-linecap="round"/><g stroke-linecap="round"><path d="M300.44725,220.90818l-0.16831,-1.28321c0,0 -0.15726,-1.32067 0.21398,-3.24894c0.21165,-1.09939 0.57823,-3.10011 0.57823,-3.10011c0,0 1.02835,-4.87446 1.86903,-9.74101c0.84065,-4.86656 1.32911,-8.25452 1.32911,-8.25452c0,0 0.13167,-0.60215 0.7685,-1.06637c0.14454,-0.10535 0.11388,0.33866 0.11388,0.33866c0,0 -0.51899,3.99103 -1.37796,9.14881c-0.85897,5.15778 -1.80034,9.45451 -1.80034,9.45451c0,0 -0.29629,1.85769 -0.33712,3.05743c-0.04086,1.19974 0.15241,2.36822 0.15241,2.36822l0.18895,-0.338l-1.09961,2.14294l-0.32877,0.53551z" fill="#333333" stroke="#ff0000" stroke-width="0"/><path d="M301.56281,215.89006l-0.84852,0.05669" fill="none" stroke="#000000" stroke-width="0.5"/><path d="M300.4022,220.81164l-0.12329,-1.18667c0,0 -0.15726,-1.32067 0.21398,-3.24894c0.21165,-1.09939 0.57823,-3.10011 0.57823,-3.10011c0,0 1.38567,-7.50465 2.22632,-12.37121c0.84065,-4.86656 1.07792,-5.71133 1.07792,-5.71133c0,0 0.09947,-0.60533 0.7363,-1.06955c0.14454,-0.10535 0.11388,0.33866 0.11388,0.33866c0,0 -0.2356,1.45105 -1.09457,6.60883c-0.85897,5.15778 -2.15764,12.08474 -2.15764,12.08474c0,0 -0.29629,1.85769 -0.33712,3.05743c-0.04086,1.19974 0.08804,2.36186 0.08804,2.36186" fill="none" stroke="#000000" stroke-width="0.75"/></g><path d="M305.68422,194.17816l-0.7048,3.61979l-1.46062,-0.28439l0.7048,-3.61979z" fill="#333333" stroke="#000000" stroke-width="0.75" stroke-linecap="butt"/></g><path d="M105.30777,178.32109v-1.33499l0.11124,-2.66998l0.22251,-3.26329l0.29667,-3.0037l0.29667,-1.77998l0.37083,-2.11373l0.33375,-1.03832l0.33375,-0.48207l0.25959,-0.18543l0.33375,-0.11124l0.29667,0.03708l0.18543,0.18543l0.07416,0.40791l-0.07416,1.29791l-0.25959,4.33869l-0.14832,4.96911v4.67244v3.50613v4.67244l0.14832,4.96911l0.25959,4.33869l0.07416,1.29791l-0.07416,0.40791l-0.18543,0.18543l-0.29667,0.03708l-0.33375,-0.11124l-0.25959,-0.18543l-0.33375,-0.48207l-0.33375,-1.03832l-0.37083,-2.11373l-0.29667,-1.77998l-0.29667,-3.0037l-0.22251,-3.26329l-0.11124,-2.66998v-1.33499z" fill="none" stroke="#000000" stroke-width="0.75" stroke-linecap="round"/><path d="M106.64276,196.64288l-1.79414,-1.61019l-0.49626,-0.52425l-0.45808,-0.67404l-0.34357,-0.82381l-0.19087,-1.19829l-0.19087,-3.7072l-0.11451,-3.74463v-2.65868v-3.31582v-2.65868l0.11451,-3.74463l0.19087,-3.7072l0.19087,-1.19829l0.34357,-0.82381l0.45808,-0.67404l0.49626,-0.52425l1.79414,-1.61019" fill="none" stroke="#000000" stroke-width="0.125" stroke-linecap="round"/></g><path d="M23,205v-48h431v48z" fill="url(#color-1)" stroke="none" stroke-width="NaN" stroke-linecap="butt"/><text transform="translate(161.16638,191.05921) scale(0.9216,0.9216)" font-size="40" xml:space="preserve" fill="#35ff00" fill-rule="nonzero" stroke="#37ff00" stroke-width="2" stroke-linecap="butt" stroke-linejoin="miter" stroke-miterlimit="10" stroke-dasharray="" stroke-dashoffset="0" font-family="Sans Serif" font-weight="normal" text-anchor="start" style="mix-blend-mode: normal"><tspan x="0" dy="0">$100,000</tspan></text></g></g></svg>