<svg version="1.1" xmlns="http://www.w3.org/2000/svg" xmlns:xlink="http://www.w3.org/1999/xlink" width="237.78557" height="184.13141" viewBox="0,0,237.78557,184.13141"><defs><radialGradient cx="141.17246" cy="225.4887" r="4.9841" gradientUnits="userSpaceOnUse" id="color-1"><stop offset="0" stop-color="#b4adad"/><stop offset="1" stop-color="#b59f84"/></radialGradient><radialGradient cx="145.52841" cy="222.10232" r="3.12094" gradientUnits="userSpaceOnUse" id="color-2"><stop offset="0" stop-color="#b4adad"/><stop offset="1" stop-color="#cc8b8b"/></radialGradient><radialGradient cx="141.17246" cy="134.51129" r="4.9841" gradientUnits="userSpaceOnUse" id="color-3"><stop offset="0" stop-color="#b4adad"/><stop offset="1" stop-color="#b59f84"/></radialGradient><radialGradient cx="145.52841" cy="137.89766" r="3.12094" gradientUnits="userSpaceOnUse" id="color-4"><stop offset="0" stop-color="#b4adad"/><stop offset="1" stop-color="#cc8b8b"/></radialGradient></defs><g transform="translate(-119.35309,-115.35747)"><g data-paper-data="{&quot;isPaintingLayer&quot;:true}" fill-rule="nonzero" stroke-linejoin="miter" stroke-miterlimit="10" stroke-dasharray="" stroke-dashoffset="0" style="mix-blend-mode: normal"><g fill="#162740" stroke="none" stroke-width="0"><path d="M352.32705,188.96345l-0.65962,11.87316l-1.1873,11.87316l-2.37463,10.15816l-3.29809,9.10275l-2.50654,4.22158l-3.16617,3.29809l-2.11079,1.31925l-4.22158,1.58308l-7.91545,1.31925l-6.99196,1.05538l-5.01312,0.39579l-6.86004,0.13192h-6.33234l-6.99196,-0.26384l-5.80466,-0.92346l-3.56196,-0.39575l-12.00508,-0.26384l-58.57424,0.52771l-33.64062,-0.79154l-5.93658,-0.13192l-2.37463,0.39575l-2.24271,1.05538l-1.05538,0.39579l-1.715,0.39575l-4.88117,0.13192l-16.88629,-0.52771l-8.57508,-1.05541l-2.6385,-0.52771l-2.77041,-1.18733l-2.50654,-1.715l-2.37463,-2.50654l-1.58308,-3.69387l-1.31925,-4.74925l-1.31925,-7.38775l-0.79154,-8.83891l-0.65962,-15.56704v-10.29008v-7.71744l0.65962,-15.56704l0.79154,-8.83891l1.31925,-7.38775l1.31925,-4.74925l1.58308,-3.69387l2.37463,-2.50654l2.50654,-1.715l2.77041,-1.18733l2.6385,-0.52771l8.57508,-1.05541l16.88629,-0.52771l4.88117,0.13192l1.715,0.39575l1.05538,0.39579l2.24271,1.05538l2.37463,0.39575l5.93658,-0.13192l33.64062,-0.79154l58.57424,0.52771l12.00508,-0.26384l3.56196,-0.39575l5.80466,-0.92346l6.99196,-0.26384h6.33234l6.86004,0.13192l5.01312,0.39579l6.99196,1.05538l7.91545,1.31925l4.22158,1.58308l2.11079,1.31925l3.16617,3.29809l2.50654,4.22158l3.29809,9.10275l2.37463,10.15816l1.1873,11.87316l0.65962,11.87316z" data-paper-data="{&quot;index&quot;:null}" stroke-linecap="round"/><path d="M124.46769,236.97681l-1.09599,-3.37927l-1.91798,-6.57592l-1.27864,-13.79114l-0.82199,-26.8516l0.45665,-8.8592l0.09134,-12.2385l0.91333,-9.68119l1.18733,-7.30656l1.73532,-5.57124l1.46133,-3.47061l0.53056,0.40799l0.08482,0.63604l-0.04241,1.35693l-0.42403,1.65377l-1.14492,4.15559l-1.22971,5.42774l-0.50885,4.70688l-0.50885,4.79166l-0.25442,4.66447l-0.1696,4.41001l-0.29683,12.97567v1.4266v5.00075v2.02927l0.29683,12.97567l0.1696,4.41001l0.25442,4.66447l0.50885,4.79166l0.50885,4.70688l1.22971,5.42774l1.14492,4.15559l0.42403,1.65377l0.04241,1.35693l-0.08482,0.63604z" stroke-linecap="round"/><path d="M343.83417,233.32334c0,0 -2.47684,-0.28395 -3.1258,-1.67195c-0.64892,-1.38799 0.50885,-3.92539 0.50885,-3.92539l2.32617,-5.88812l1.67195,-5.52465l2.67822,-18.74615l-0.7124,-32.76993l-1.96582,-3.7771l-1.67195,-5.52465l-2.32617,-5.88812c0,0 -1.15777,-2.53743 -0.50885,-3.92539c0.64895,-1.38799 3.1258,-1.67195 3.1258,-1.67195l0.92628,1.26953l3.10527,9.22454l2.73997,11.14252l1.36998,14.06514l0.54799,9.04185l-1.09599,17.44441l-1.91798,11.41651l-3.10527,9.77253l-2.10063,5.20594z" stroke-linecap="round"/><path d="M146.49708,226.1561c-0.64032,0.10579 -5.91059,0.96947 -9.39448,1.32057c-3.71426,0.37435 -9.54771,0.58432 -9.54771,0.58432l-0.55408,-1.66226l-0.55408,-2.29548l-0.23747,-2.05802l-0.47493,-5.85744l-0.7124,-11.95231l-0.23747,-9.97347v-3.4752v-4.17305v-3.54259l0.23747,-9.97347l0.7124,-11.95231l0.47493,-5.85744l0.23747,-2.05802l0.55408,-2.29548l0.55408,-1.66226c0,0 5.83345,0.20997 9.54771,0.58432c3.71426,0.37435 9.45891,1.33124 9.45891,1.33124l0.00017,-0.0019l0.06389,0.11846l-0.23196,2.2422l-0.55408,8.23206l-0.55408,8.707l-0.39579,5.85744l-0.15832,11.7107v0.91327l0.15832,12.02313l0.39579,5.85744l0.55408,8.707l0.55408,8.23206l0.22615,2.18606z" data-paper-data="{&quot;index&quot;:null}" stroke-linecap="round"/><path d="M314.33412,189.09683l-0.11489,8.3878l-0.40214,5.68763l-0.91921,6.60684l-1.49371,5.85999l-2.24057,6.43449l-2.41292,4.48117l-2.70021,4.07899l-1.53024,1.75575l-1.51978,0.99734l-2.51711,1.13982l-1.32978,0.23747l-3.41947,0.09498h-6.41151l-5.31916,-0.37995l-7.40885,-1.28231l-11.16077,-2.6596l-14.43775,-2.99204l-2.51711,-0.52244l-0.47493,-0.37995l-0.09498,-0.80738l0.37995,-2.75458l0.80738,-7.26636l0.7124,-5.74662l0.56991,-5.50916l0.42743,-10.11592v-4.17934v-3.19376v-4.17934l-0.42743,-10.11592l-0.56991,-5.50916l-0.7124,-5.74662l-0.80738,-7.26636l-0.37995,-2.75458l0.09498,-0.80738l0.47493,-0.37995l2.51711,-0.52244l14.43775,-2.99204l11.16077,-2.6596l7.40885,-1.28231l5.31916,-0.37995h6.41151l3.41947,0.09498l1.32978,0.23747l2.51711,1.13982l1.51978,0.99734l1.53024,1.75575l2.70021,4.07899l2.41292,4.48117l2.24057,6.43449l1.49371,5.85999l0.91921,6.60684l0.40214,5.68763l0.11489,8.3878z" stroke-linecap="round"/><path d="M298.11555,234.32985l3.48414,-4.71381l1.81732,-3.63464l1.30848,-3.99811l1.59926,-9.08661l0.58153,-8.57776l0.21806,-7.63276v-6.76044v-2.51813v-6.76044l-0.21806,-7.63276l-0.58153,-8.57776l-1.59926,-9.08661l-1.30848,-3.99811l-1.81732,-3.63464l-3.63954,-4.92406l0.06348,-0.06871l0.45971,0.0821l2.51711,1.13982l1.51978,0.99734l1.53024,1.75575l2.70021,4.07899l2.41292,4.48117l2.24057,6.43449l1.49371,5.85999l0.91921,6.60684l0.40214,5.68763l0.11489,8.3878v0.86039l-0.11489,8.3878l-0.40214,5.68763l-0.91921,6.60684l-1.49371,5.85999l-2.24057,6.43449l-2.41292,4.48117l-2.70021,4.07899l-1.53024,1.75575l-1.51978,0.99734l-2.51711,1.13982l-0.17141,0.03062l-0.16515,-0.1799l0.01563,-0.02114z" stroke-linecap="round"/><g><path d="M143.615,240.09248h-1.02075l-4.3535,-0.15832l-1.74141,-0.31661l-2.77041,-1.02901l-2.77041,-1.97887l-1.89969,-2.53295l-0.7124,-1.58308l-0.39579,-1.82055l-0.31661,-1.89969v-0.63322l-0.00353,-0.08193c0.69378,-0.02596 6.00577,-0.23216 9.47207,-0.58153c3.71426,-0.37435 9.45891,-1.33124 9.45891,-1.33124l0.07381,0.75403l-0.22166,1.31816l-0.42403,1.78096l-1.78096,8.01438l-0.29683,1.90819v0.12312z" stroke-linecap="round"/><path d="M134.28814,237.15783c-2.4852,-2.17345 -2.59717,-5.93998 -1.49245,-7.20316c1.10475,-1.26318 3.00788,0.45529 5.49305,2.62874c2.4852,2.17345 4.61135,3.97885 3.50663,5.24202c-1.10475,1.26318 -5.02203,1.50584 -7.50723,-0.66761z" stroke-linecap="butt"/><path d="M139.69929,232.64907c-1.55617,-1.36098 -1.62631,-3.71946 -0.93454,-4.51046c0.69177,-0.79096 1.88345,0.28507 3.43962,1.64605c1.55617,1.36098 2.88755,2.49146 2.19578,3.28245c-0.69177,0.79096 -3.14469,0.94293 -4.70086,-0.41805z" stroke-linecap="butt"/></g><path d="M146.26984,219.1304h25.72517l50.8567,0.69262l15.53404,0.98942l8.04265,1.11665l-0.23322,1.58308l-7.90839,-1.11665l-16.02875,-0.98942l-21.27275,-0.39575l-54.61653,-0.09896" stroke-linecap="round"/><path d="M129.28239,188.04267v-13.2301l0.1696,-5.51255l0.38165,-8.56563l0.21201,-2.41704l0.21201,-1.35693l0.38162,-1.65377l0.38162,-1.14492l0.29683,-0.59366l0.38162,-0.38162l0.59366,-0.33924l0.8905,-0.12719h1.9506l2.71387,0.25442l3.26512,0.63604l1.22971,0.42403l0.42403,0.33924l0.42403,0.33924l0.25442,0.63607l0.12723,0.67845l-0.1696,2.88347l-0.42403,12.00036l-0.08482,4.74925l-0.04241,5.30051l-0.08482,7.37833v0.65425l0.08482,7.37833l0.04241,5.30051l0.08482,4.74925l0.42403,12.00036l0.1696,2.88347l-0.12723,0.67845l-0.25442,0.63607l-0.42403,0.33924l-0.42403,0.33924l-1.22971,0.42403l-3.26512,0.63604l-2.71387,0.25442h-1.9506l-0.8905,-0.12719l-0.59366,-0.33924l-0.38162,-0.38162l-0.29683,-0.59366l-0.38162,-1.14492l-0.38162,-1.65377l-0.21201,-1.35693l-0.21201,-2.41704l-0.38165,-8.56563l-0.1696,-5.51255v-13.2301z" stroke-linecap="round"/><path d="M146.07445,221.0513h-3.54741c0,0 -1.5894,-0.07007 -1.54798,-2.32977c0.03891,-2.12228 1.54798,-2.12268 1.54798,-2.12268h3.28405" stroke-linecap="round"/><path d="M205.50419,240.02227l-17.51291,-0.33598c0,0 -5.56767,-0.07748 -11.10011,-1.15144c-12.01643,-2.33259 -13.86379,-6.07299 -14.52505,-6.7129c-0.66126,-0.63995 -0.76327,-1.10251 -0.76327,-1.10251l0.04241,-0.55126l0.42403,-0.42403l0.93287,-0.25442l6.23341,-0.04241l21.24447,-0.04241h11.87316l0.17144,-0.02905l2.71203,8.38267l0.53114,2.29229z" stroke-linecap="round"/><path d="M210.87646,238.90345l-3.1803,-6.40302l-0.1696,-0.97528l0.25442,-1.0601l0.59366,-0.46644l1.22971,-0.33924l2.67146,-0.08482l8.90487,0.12719l9.07448,0.21201l11.19468,0.55126l8.01438,0.8905l6.3182,1.10251l13.65412,2.45944l13.61172,2.75628c0,0 1.49463,0.34825 2.41704,0.67848c0.92241,0.33024 1.31452,0.50885 1.31452,0.50885l0.59366,0.46644l0.25442,0.38162l-0.08482,0.33924l-0.38165,0.29683l-0.46644,0.08482l-9.88016,0.1696h-11.95795l-20.35398,-0.25442l-18.4882,-0.42403l-14.41743,-0.46644c0,0 -0.34991,-0.10793 -0.47996,-0.20739c-0.10466,-0.08003 -0.2409,-0.34386 -0.2409,-0.34386z" stroke-linecap="round"/><path d="M269.11945,239.97117l-19.13406,-0.13702l-10.54885,-0.22832l-12.87781,-0.31967l-14.20212,-0.41098l-0.59366,-0.13702l-0.41098,-0.274l-2.83128,-5.70826l-0.274,-0.68497l-0.04567,-0.59366l0.31967,-0.63934l0.77632,-0.36534l2.19197,-0.18265l18.31207,0.36534l5.7996,0.31967l6.16491,0.31967l8.17423,0.91333l6.39323,1.09599l12.01014,2.28332l0.41098,0.274l0.22832,0.41098l0.54799,3.37927z" stroke-linecap="round"/><path d="M269.75879,235.22188l1.00464,5.16026" stroke-linecap="round"/><path d="M143.615,240.09248h-1.02075l-4.3535,-0.15832l-1.74141,-0.31661l-2.77041,-1.02901l-2.77041,-1.97887l-1.89969,-2.53295l-0.7124,-1.58308l-0.39579,-1.82055l-0.31661,-1.89969v-0.63322" stroke-linecap="round"/><path d="M308.9768,238.43022l-0.31661,-0.87069l0.07914,-0.63322l0.23747,-0.7124l1.10815,-1.18733l8.54867,-7.2822l9.81515,-7.91545l1.4248,-1.02901l1.58308,-0.7124l1.82055,-0.23747l2.21634,0.23747l1.66223,0.94986l0.79154,1.10815l0.39579,1.18733l0.31661,2.21634l-0.07914,2.45377l-0.63322,2.29548l-1.58308,2.45377l-2.13716,2.37463l-3.72024,2.77041l-4.90757,2.61209l-2.21634,0.79154l-2.77041,0.55408l-5.0659,0.23747l-3.6411,-0.23747l-1.50394,-0.31661c0,0 -0.53141,-0.2726 -0.76415,-0.45363c-0.24185,-0.18809 -0.66064,-0.65453 -0.66064,-0.65453z" stroke-linecap="round"/><path d="M310.31263,234.42548l-2.35549,-1.49371l-0.86175,-0.80432l-2.01078,-2.35549" stroke-linecap="round"/><path d="M146.66811,226.18223l-0.04241,0.59366" stroke-linecap="round"/><path d="M201.50512,226.22461l3.73156,11.53392l0.80568,3.47714l0.21201,2.03542" stroke-linecap="round"/><path d="M205.50419,240.02227l-17.51291,-0.33598c0,0 -5.56767,-0.07748 -11.10011,-1.15144c-12.01643,-2.33259 -13.86379,-6.07299 -14.52505,-6.7129c-0.66126,-0.63995 -0.76327,-1.10251 -0.76327,-1.10251l0.04241,-0.55126l0.42403,-0.42403l0.93287,-0.25442l6.23341,-0.04241l21.24447,-0.04241h11.87316" stroke-linecap="round"/><path d="M273.80162,238.29766c0.92213,-0.96522 2.21189,-1.22964 2.88075,-0.59064c0.66887,0.639 0.46358,1.93949 -0.45855,2.90471c-0.92213,0.96522 -2.21189,1.22964 -2.88075,0.59064c-0.66887,-0.639 -0.46358,-1.93949 0.45855,-2.90471z" stroke-linecap="butt"/><path d="M297.89232,142.70149l3.70733,5.01581l1.81732,3.63464l1.30848,3.99811l1.59926,9.08661l0.58153,8.57776l0.21806,7.63276v6.76044v2.51813v6.76044l-0.21806,7.63276l-0.58153,8.57776l-1.59926,9.08661l-1.30848,3.99811l-1.81732,3.63464l-3.70733,5.01581" stroke-linecap="round"/><path d="M350.01312,189.92575v3.56196l-0.50885,8.43235l-0.50885,8.1416l-0.58153,2.76233l-0.43616,1.52654l-0.36347,0.79963l-0.43616,0.58153l-0.65422,0.36347h-1.38116l-0.36347,-0.79963l-0.14537,-0.945v-1.09038c0,0 0.6914,-5.60883 0.92988,-8.94749c0.30315,-4.24425 0.74206,-14.4596 0.74206,-14.4596v-2.37279c0,0 -0.43891,-10.21535 -0.74206,-14.4596c-0.23849,-3.33869 -0.92988,-8.94749 -0.92988,-8.94749v-1.09038l0.14537,-0.945l0.36347,-0.79963h1.38116l0.65422,0.36347l0.43616,0.58153l0.36347,0.79963l0.43616,1.52654l0.58153,2.76233l0.50885,8.1416l0.50885,8.43235v3.56196z" stroke-linecap="round"/><path d="M327.11488,243.42764l-1.74463,-4.50696" stroke-linecap="round"/><path d="M337.50996,158.18506l0.65422,1.89001l0.87232,3.48927l0.79963,6.83313l0.87232,9.08661l0.14537,4.28886v2.98039v3.82664v2.98039l-0.14537,4.28886l-0.87232,9.08661l-0.79963,6.83313l-0.87232,3.48927l-0.65422,1.89001" stroke-linecap="round"/><path d="M199.43314,238.37286l-10.54885,-0.13702l-5.57124,-0.45665c0,0 -3.75722,-0.57263 -5.47215,-1.12769c-1.92848,-0.62415 -5.53335,-2.43426 -5.53335,-2.43426l-2.05496,-1.09599l-0.41098,-0.36534l-0.22832,-0.31967l-0.09134,-0.274l0.04567,-0.41098l0.50232,-0.45665l0.59366,-0.13702h26.5776l0.91333,0.13702l0.54799,0.22832l0.41098,0.36534l0.31967,0.50232l1.50696,5.02325c0,0 0.1517,0.67563 -0.09644,0.83354c-0.25405,0.16169 -1.41056,0.12546 -1.41056,0.12546z" stroke-linecap="round"/><path d="M175.93749,234.76486c0,0.14334 -0.16311,0.25952 -0.36429,0.25952c-0.20121,0 -0.36429,-0.11618 -0.36429,-0.25952c0,-0.14334 0.16311,-0.25952 0.36429,-0.25952c0.20121,0 0.36429,0.11618 0.36429,0.25952z" stroke-linecap="butt"/><g data-paper-data="{&quot;index&quot;:null}"><path d="M143.91183,137.28904v0.12312l0.29683,1.90819l1.78096,8.01438l0.42403,1.78096l0.22166,1.31816l-0.07381,0.75403c0,0 -5.74465,-0.9569 -9.45891,-1.33124c-3.4663,-0.34933 -8.77829,-0.55554 -9.47207,-0.58153l0.00353,-0.08193v-0.63322l0.31661,-1.89969l0.39579,-1.82055l0.7124,-1.58308l1.89969,-2.53295l2.77041,-1.97887l2.77041,-1.02901l1.74141,-0.31661l4.3535,-0.15832h1.02075z" stroke-linecap="round"/><path d="M134.28814,140.17547c2.4852,-2.17345 6.40251,-1.93079 7.50723,-0.66761c1.10475,1.26318 -1.02143,3.06857 -3.50663,5.24202c-2.4852,2.17345 -4.38833,3.89192 -5.49305,2.62874c-1.10475,-1.26321 -0.99275,-5.02971 1.49245,-7.20316z" stroke-linecap="butt"/><path d="M144.40016,144.26619c0.69177,0.79096 -0.63961,1.92148 -2.19578,3.28245c-1.55617,1.36098 -2.74785,2.43702 -3.43962,1.64605c-0.69177,-0.79096 -0.62163,-3.14948 0.93454,-4.51046c1.55617,-1.36098 4.00909,-1.20901 4.70086,-0.41805z" stroke-linecap="butt"/></g><path d="M146.3688,156.42191l54.61653,-0.09896l21.27275,-0.39575l16.02875,-0.98942l7.90839,-1.11665l0.23322,1.58308l-8.04265,1.11665l-15.53404,0.98942l-50.8567,0.69262h-25.72517" data-paper-data="{&quot;index&quot;:null}" stroke-linecap="round"/><path d="M145.81112,160.73443h-3.28405c0,0 -1.50904,-0.00041 -1.54798,-2.12268c-0.04146,-2.2597 1.54798,-2.32977 1.54798,-2.32977h3.54741" data-paper-data="{&quot;index&quot;:null}" stroke-linecap="round"/><path d="M205.76785,137.28248l-0.53114,2.29229l-2.71203,8.38267l-0.17144,-0.02905h-11.87316l-21.24447,-0.04241l-6.23341,-0.04241l-0.93287,-0.25442l-0.42403,-0.42403l-0.04241,-0.55126c0,0 0.10201,-0.46256 0.76327,-1.10251c0.66126,-0.63995 2.50862,-4.38031 14.52505,-6.7129c5.5324,-1.07393 11.10011,-1.15144 11.10011,-1.15144l17.51291,-0.33598z" data-paper-data="{&quot;index&quot;:null}" stroke-linecap="round"/><path d="M210.87643,138.42985c0,0 0.13627,-0.26384 0.2409,-0.34386c0.13008,-0.09947 0.47996,-0.20739 0.47996,-0.20739l14.41743,-0.46644l18.4882,-0.42403l20.35398,-0.25442h11.95795l9.88016,0.1696l0.46644,0.08482l0.38165,0.29683l0.08482,0.33924l-0.25442,0.38162l-0.59366,0.46644c0,0 -0.39212,0.17861 -1.31452,0.50885c-0.92241,0.33024 -2.41704,0.67848 -2.41704,0.67848l-13.61172,2.75628l-13.65412,2.45944l-6.3182,1.10251l-8.01438,0.8905l-11.19468,0.55126l-9.07448,0.21201l-8.90487,0.12719l-2.67146,-0.08482l-1.22971,-0.33924l-0.59366,-0.46644l-0.25442,-1.0601l0.1696,-0.97528l3.1803,-6.40302z" data-paper-data="{&quot;index&quot;:null}" stroke-linecap="round"/><path d="M269.53046,137.68181l-0.54799,3.37927l-0.22832,0.41098l-0.41098,0.274l-12.01014,2.28332l-6.39323,1.09599l-8.17423,0.91333l-6.16491,0.31967l-5.7996,0.31967l-18.31207,0.36534l-2.19197,-0.18265l-0.77632,-0.36534l-0.31967,-0.63934l0.04567,-0.59366l0.274,-0.68497l2.83128,-5.70826l0.41098,-0.274l0.59366,-0.13702l14.20212,-0.41098l12.87781,-0.31967l10.54885,-0.22832l19.13406,-0.13702z" data-paper-data="{&quot;index&quot;:null}" stroke-linecap="round"/><path d="M270.76343,136.95116l-1.00464,5.16026" data-paper-data="{&quot;index&quot;:null}" stroke-linecap="round"/><path d="M127.63406,149.19316v-0.63322l0.31661,-1.89969l0.39579,-1.82055l0.7124,-1.58308l1.89969,-2.53295l2.77041,-1.97887l2.77041,-1.02901l1.74141,-0.31661l4.3535,-0.15832h1.02075" data-paper-data="{&quot;index&quot;:null}" stroke-linecap="round"/><path d="M308.9768,138.90308c0,0 0.41879,-0.46644 0.66064,-0.65453c0.23271,-0.18099 0.76415,-0.45363 0.76415,-0.45363l1.50394,-0.31661l3.6411,-0.23747l5.0659,0.23747l2.77041,0.55408l2.21634,0.79154l4.90757,2.61209l3.72024,2.77041l2.13716,2.37463l1.58308,2.45377l0.63322,2.29548l0.07914,2.45377l-0.31661,2.21634l-0.39579,1.18733l-0.79154,1.10815l-1.66223,0.94986l-2.21634,0.23747l-1.82055,-0.23747l-1.58308,-0.7124l-1.4248,-1.02901l-9.81515,-7.91545l-8.54867,-7.2822l-1.10815,-1.18733l-0.23747,-0.7124l-0.07914,-0.63322z" data-paper-data="{&quot;index&quot;:null}" stroke-linecap="round"/><path d="M144.8023,244.5432l-0.50885,-1.48413l-0.38162,-2.16261v-0.97528l0.29683,-1.90819l1.78096,-8.01438l0.42403,-1.78096l0.22166,-1.31816l-0.07381,-0.75403c0,0 -5.74465,0.9569 -9.45891,1.33124c-3.71426,0.37435 -9.54771,0.58432 -9.54771,0.58432l-0.55408,-1.66226l-0.55408,-2.29548l-0.23747,-2.05802l-0.47493,-5.85744l-0.7124,-11.95231l-0.23747,-9.97347v-3.4752v-4.17305v-3.54259l0.23747,-9.97347l0.7124,-11.95231l0.47493,-5.85744l0.23747,-2.05802l0.55408,-2.29548l0.55408,-1.66226c0,0 5.83345,0.20997 9.54771,0.58432c3.71426,0.37435 9.45891,1.33124 9.45891,1.33124l0.07381,-0.75403l-0.22166,-1.31816l-0.42403,-1.78096l-1.78096,-8.01438l-0.29683,-1.90819v-0.97528l0.38162,-2.16261l0.50885,-1.48413" data-paper-data="{&quot;index&quot;:null}" stroke-linecap="round"/><path d="M305.08457,147.56132l2.01078,-2.35549l0.86175,-0.80432l2.35549,-1.49371" data-paper-data="{&quot;index&quot;:null}" stroke-linecap="round"/><path d="M283.09572,243.55028l-0.75987,-2.80205l-0.52244,-1.56725l-0.33245,-0.90236l-0.7124,-1.28231l-0.94986,-1.09232l-1.2348,-0.7124l-5.41418,-1.18733l-8.40619,-1.37729l-12.91801,-2.70707l-9.02361,-1.9472l-3.46694,-0.42743l-9.30854,-0.66489l-11.77818,-0.56991l-16.90739,-0.33245h-45.11799l-9.45103,0.23747l-0.1607,-0.13331l-0.23747,-2.29548l-0.55408,-8.23206l-0.55408,-8.707l-0.39579,-5.85744l-0.15832,-12.02313v-0.91327l0.15832,-11.7107l0.39579,-5.85744l0.55408,-8.707l0.55408,-8.23206l0.23747,-2.29548l0.1607,-0.13331l9.45103,0.23747h45.11799l16.90739,-0.33245l11.77818,-0.56991l9.30854,-0.66489l3.46694,-0.42743l9.02361,-1.9472l12.91801,-2.70707l8.40619,-1.37729l5.41418,-1.18733l1.2348,-0.7124l0.94986,-1.09232l0.7124,-1.28231l0.33245,-0.90236l0.52244,-1.56725l0.75987,-2.80205" data-paper-data="{&quot;index&quot;:null}" stroke-linecap="round"/><path d="M146.6257,150.55744l0.04241,0.59366" data-paper-data="{&quot;index&quot;:null}" stroke-linecap="round"/><path d="M206.25441,134.06222l-0.21201,2.03542l-0.80568,3.47714l-3.73156,11.53392" data-paper-data="{&quot;index&quot;:null}" stroke-linecap="round"/><path d="M202.35321,147.92839h-11.87316l-21.24447,-0.04241l-6.23341,-0.04241l-0.93287,-0.25442l-0.42403,-0.42403l-0.04241,-0.55126c0,0 0.10201,-0.46256 0.76327,-1.10251c0.66126,-0.63995 2.50862,-4.38031 14.52505,-6.7129c5.5324,-1.07393 11.10011,-1.15144 11.10011,-1.15144l17.51291,-0.33598" data-paper-data="{&quot;index&quot;:null}" stroke-linecap="round"/><path d="M273.34307,136.13094c0.66887,-0.639 1.95862,-0.37458 2.88075,0.59064c0.92213,0.96522 1.12742,2.26568 0.45855,2.90471c-0.66887,0.639 -1.95862,0.37458 -2.88075,-0.59064c-0.92213,-0.96522 -1.12742,-2.26568 -0.45855,-2.90471z" data-paper-data="{&quot;index&quot;:null}" stroke-linecap="butt"/><path d="M325.37021,138.41262l1.74463,-4.50696" data-paper-data="{&quot;index&quot;:null}" stroke-linecap="round"/><path d="M199.43314,138.96045c0,0 1.15651,-0.03622 1.41056,0.12546c0.24814,0.15791 0.09644,0.83354 0.09644,0.83354l-1.50696,5.02325l-0.31967,0.50232l-0.41098,0.36534l-0.54799,0.22832l-0.91333,0.13702h-26.5776l-0.59366,-0.13702l-0.50232,-0.45665l-0.04567,-0.41098l0.09134,-0.274l0.22832,-0.31967l0.41098,-0.36534l2.05496,-1.09599c0,0 3.60491,-1.81012 5.53335,-2.43426c1.71493,-0.55503 5.47215,-1.12769 5.47215,-1.12769l5.57124,-0.45665z" data-paper-data="{&quot;index&quot;:null}" stroke-linecap="round"/><path d="M175.57321,142.82797c-0.20117,0 -0.36429,-0.11618 -0.36429,-0.25952c0,-0.14334 0.16308,-0.25952 0.36429,-0.25952c0.20117,0 0.36429,0.11618 0.36429,0.25952c0,0.14334 -0.16308,0.25952 -0.36429,0.25952z" data-paper-data="{&quot;index&quot;:null}" stroke-linecap="butt"/><path d="M314.33412,189.09686l-0.11489,8.3878l-0.40214,5.68763l-0.91921,6.60684l-1.49371,5.85999l-2.24057,6.43449l-2.41292,4.48117l-2.70021,4.07899l-1.53024,1.75575l-1.51978,0.99734l-2.51711,1.13982l-1.32978,0.23747l-3.41947,0.09498h-6.41151l-5.31916,-0.37995l-7.40885,-1.28231l-11.16077,-2.6596l-14.43775,-2.99204l-2.51711,-0.52244l-0.47493,-0.37995l-0.09498,-0.80738l0.37995,-2.75458l0.80738,-7.26636l0.7124,-5.74662l0.56991,-5.50916l0.42743,-10.11592v-4.17934v-3.19376v-4.17934l-0.42743,-10.11592l-0.56991,-5.50916l-0.7124,-5.74662l-0.80738,-7.26636l-0.37995,-2.75458l0.09498,-0.80738l0.47493,-0.37995l2.51711,-0.52244l14.43775,-2.99204l11.16077,-2.6596l7.40885,-1.28231l5.31916,-0.37995h6.41151l3.41947,0.09498l1.32978,0.23747l2.51711,1.13982l1.51978,0.99734l1.53024,1.75575l2.70021,4.07899l2.41292,4.48117l2.24057,6.43449l1.49371,5.85999l0.91921,6.60684l0.40214,5.68763l0.11489,8.3878z" stroke-linecap="round"/><g stroke-linecap="round"><path d="M339.23706,192.06237l-3.90895,-3.40003"/><path d="M339.23706,185.27094l-3.90895,3.40003" data-paper-data="{&quot;index&quot;:null}"/></g><g stroke-linecap="round"><path d="M337.23889,192.06237l-3.90895,-3.40003"/><path d="M333.32994,188.67093l3.90895,-3.40003" data-paper-data="{&quot;index&quot;:null}"/></g><g stroke-linecap="round"><path d="M130.91917,204.91652l-1.10655,-21.89173l-0.13549,-1.12973l-0.18996,-0.65667l-2.26949,-3.80452l-0.31909,-0.8853l-0.06677,-0.54531l-0.0158,-0.31274l0.30088,-0.25038l0.44187,0.21283l2.87365,4.1267l0.4735,0.8383l0.22707,0.61558l0.06875,0.58442l0.07904,1.56368l1.00379,19.85893l-0.05407,1.25689l-0.35141,0.8016l-0.38104,0.21521l-0.3929,-0.01934z"/><path d="M130.97269,181.16333l-1.11192,0.4873"/></g><path d="M352.32705,188.96342l-0.65962,11.87316l-1.1873,11.87316l-2.37463,10.15816l-3.29809,9.10275l-2.50654,4.22158l-3.16617,3.29809l-2.11079,1.31925l-4.22158,1.58308l-7.91545,1.31925l-6.99196,1.05538l-5.01312,0.39579l-6.86004,0.13192h-6.33234l-6.99196,-0.26384l-5.80466,-0.92346l-3.56196,-0.39575l-12.00508,-0.26384l-58.57424,0.52771l-33.64062,-0.79154l-5.93658,-0.13192l-2.37463,0.39575l-2.24271,1.05538l-1.05538,0.39579l-1.715,0.39575l-4.88117,0.13192l-16.88629,-0.52771l-8.57508,-1.05541l-2.6385,-0.52771l-2.77041,-1.18733l-2.50654,-1.715l-2.37463,-2.50654l-1.58308,-3.69387l-1.31925,-4.74925l-1.31925,-7.38775l-0.79154,-8.83891l-0.65962,-15.56704v-10.29008v-7.71744l0.65962,-15.56704l0.79154,-8.83891l1.31925,-7.38775l1.31925,-4.74925l1.58308,-3.69387l2.37463,-2.50654l2.50654,-1.715l2.77041,-1.18733l2.6385,-0.52771l8.57508,-1.05541l16.88629,-0.52771l4.88117,0.13192l1.715,0.39575l1.05538,0.39579l2.24271,1.05538l2.37463,0.39575l5.93658,-0.13192l33.64062,-0.79154l58.57424,0.52771l12.00508,-0.26384l3.56196,-0.39575l5.80466,-0.92346l6.99196,-0.26384h6.33234l6.86004,0.13192l5.01312,0.39579l6.99196,1.05538l7.91545,1.31925l4.22158,1.58308l2.11079,1.31925l3.16617,3.29809l2.50654,4.22158l3.29809,9.10275l2.37463,10.15816l1.1873,11.87316l0.65962,11.87316z" data-paper-data="{&quot;index&quot;:null}" stroke-linecap="round"/><path d="M267.03279,252.58996c-2.89543,-1.26967 -1.7849,-5.0643 -0.08261,-8.94633c1.70229,-3.88203 4.62379,-6.63586 7.51926,-5.36619c2.89543,1.26967 3.8627,5.44595 2.1604,9.32798c-1.70229,3.88203 -6.70158,6.25421 -9.59705,4.98458z" stroke-linecap="butt"/><path d="M276.62984,129.72792c1.70229,3.88203 0.73503,8.05831 -2.1604,9.32798c-2.89543,1.26967 -5.81697,-1.48416 -7.51926,-5.36619c-1.70229,-3.88203 -2.81282,-7.67666 0.08261,-8.94633c2.89543,-1.26967 7.89476,1.10251 9.59705,4.98458z" data-paper-data="{&quot;index&quot;:null}" stroke-linecap="butt"/><g><path d="M296.42223,147.24369l8.73466,46.23889l-0.3161,0.33088h-0.43174l-0.32381,-0.48574l-8.5271,-45.92755l0.10793,-0.43174l0.37778,-0.05396z" stroke-linecap="round"/><path d="M309.62847,192.95198l-7.13655,-18.9581c0,0 -0.18979,-0.45842 -0.2985,-0.57977c-0.35464,-0.39596 -2.18222,-2.19 -2.18222,-2.19l-0.16383,-1.06319l0.60627,0.53049c0,0 1.664,1.44512 2.15051,1.97255c0.29075,0.31518 0.49726,0.89774 0.49726,0.89774l5.08241,13.80266l2.22225,5.05689l-0.02851,0.34196l-0.34196,0.19947z" stroke-linecap="round"/><path d="M301.26092,169.76782l0.93314,5.30421l-2.07677,0.36534l-0.93314,-5.30421z" stroke-linecap="butt"/></g></g><text transform="translate(203.4519,275.30381) scale(0.63595,0.63595)" font-size="40" xml:space="preserve" fill="#ffffff" fill-rule="nonzero" stroke="#ffffff" stroke-width="1" stroke-linecap="butt" stroke-linejoin="miter" stroke-miterlimit="10" stroke-dasharray="" stroke-dashoffset="0" font-family="Sans Serif" font-weight="normal" text-anchor="start" style="mix-blend-mode: normal"><tspan x="0" dy="0">Citoci</tspan></text><text transform="translate(198.82434,295.21826) scale(0.34165,0.34165)" font-size="40" xml:space="preserve" fill-opacity="0.74902" fill="#ffffff" fill-rule="nonzero" stroke="none" stroke-width="1" stroke-linecap="butt" stroke-linejoin="miter" stroke-miterlimit="10" stroke-dasharray="" stroke-dashoffset="0" font-family="Sans Serif" font-weight="normal" text-anchor="start" style="mix-blend-mode: normal"><tspan x="0" dy="0">cute but fast</tspan></text><g><path d="M356.38866,180.29679l-0.65962,11.87316l-1.1873,11.87316l-2.37463,10.15816l-3.29809,9.10275l-2.50654,4.22158l-3.16617,3.29809l-2.11079,1.31925l-4.22158,1.58308l-7.91545,1.31925l-6.99196,1.05538l-5.01312,0.39579l-6.86004,0.13192h-6.33234l-6.99196,-0.26384l-5.80466,-0.92346l-3.56196,-0.39575l-12.00508,-0.26384l-58.57424,0.52771l-33.64062,-0.79154l-5.93658,-0.13192l-2.37463,0.39575l-2.24271,1.05538l-1.05538,0.39579l-1.715,0.39575l-4.88117,0.13192l-16.88629,-0.52771l-8.57508,-1.05541l-2.6385,-0.52771l-2.77041,-1.18733l-2.50654,-1.715l-2.37463,-2.50654l-1.58308,-3.69387l-1.31925,-4.74925l-1.31925,-7.38775l-0.79154,-8.83891l-0.65962,-15.56704v-10.29008v-7.71744l0.65962,-15.56704l0.79154,-8.83891l1.31925,-7.38775l1.31925,-4.74925l1.58308,-3.69387l2.37463,-2.50654l2.50654,-1.715l2.77041,-1.18733l2.6385,-0.52771l8.57508,-1.05541l16.88629,-0.52771l4.88117,0.13192l1.715,0.39575l1.05538,0.39579l2.24271,1.05538l2.37463,0.39575l5.93658,-0.13192l33.64062,-0.79154l58.57424,0.52771l12.00508,-0.26384l3.56196,-0.39575l5.80466,-0.92346l6.99196,-0.26384h6.33234l6.86004,0.13192l5.01312,0.39579l6.99196,1.05538l7.91545,1.31925l4.22158,1.58308l2.11079,1.31925l3.16617,3.29809l2.50654,4.22158l3.29809,9.10275l2.37463,10.15816l1.1873,11.87316l0.65962,11.87316z" data-paper-data="{&quot;index&quot;:null}" fill="#2e5389" stroke="#000000" stroke-width="1.5" stroke-linecap="round"/><path d="M128.5293,228.31015l-1.09599,-3.37927l-1.91798,-6.57592l-1.27864,-13.79114l-0.82199,-26.8516l0.45665,-8.8592l0.09134,-12.2385l0.91333,-9.68119l1.18733,-7.30656l1.73532,-5.57124l1.46133,-3.47061l0.53056,0.40799l0.08482,0.63604l-0.04241,1.35693l-0.42403,1.65377l-1.14492,4.15559l-1.22971,5.42774l-0.50885,4.70688l-0.50885,4.79166l-0.25442,4.66447l-0.1696,4.41001l-0.29683,12.97567v1.4266v5.00075v2.02927l0.29683,12.97567l0.1696,4.41001l0.25442,4.66447l0.50885,4.79166l0.50885,4.70688l1.22971,5.42774l1.14492,4.15559l0.42403,1.65377l0.04241,1.35693l-0.08482,0.63604z" fill="#363636" stroke="#000000" stroke-width="0.75" stroke-linecap="round"/><path d="M347.89578,224.65668c0,0 -2.47684,-0.28395 -3.1258,-1.67195c-0.64892,-1.38799 0.50885,-3.92539 0.50885,-3.92539l2.32617,-5.88812l1.67195,-5.52465l2.67822,-18.74615l-0.7124,-32.76993l-1.96582,-3.7771l-1.67195,-5.52465l-2.32617,-5.88812c0,0 -1.15777,-2.53743 -0.50885,-3.92539c0.64895,-1.38799 3.1258,-1.67195 3.1258,-1.67195l0.92628,1.26953l3.10527,9.22454l2.73997,11.14252l1.36998,14.06514l0.54799,9.04185l-1.09599,17.44441l-1.91798,11.41651l-3.10527,9.77253l-2.10063,5.20594z" fill="#2e2e2e" stroke="#000000" stroke-width="0.75" stroke-linecap="round"/><path d="M150.55869,217.48944c-0.64032,0.10579 -5.91059,0.96947 -9.39448,1.32057c-3.71426,0.37435 -9.54771,0.58432 -9.54771,0.58432l-0.55408,-1.66226l-0.55408,-2.29548l-0.23747,-2.05802l-0.47493,-5.85744l-0.7124,-11.95231l-0.23747,-9.97347v-3.4752v-4.17305v-3.54259l0.23747,-9.97347l0.7124,-11.95231l0.47493,-5.85744l0.23747,-2.05802l0.55408,-2.29548l0.55408,-1.66226c0,0 5.83345,0.20997 9.54771,0.58432c3.71426,0.37435 9.45891,1.33124 9.45891,1.33124l0.00017,-0.0019l0.06389,0.11846l-0.23196,2.2422l-0.55408,8.23206l-0.55408,8.707l-0.39579,5.85744l-0.15832,11.7107v0.91327l0.15832,12.02313l0.39579,5.85744l0.55408,8.707l0.55408,8.23206l0.22615,2.18606z" data-paper-data="{&quot;index&quot;:null}" fill="#424242" stroke="#000000" stroke-width="0" stroke-linecap="round"/><path d="M318.39573,180.43017l-0.11489,8.3878l-0.40214,5.68763l-0.91921,6.60684l-1.49371,5.85999l-2.24057,6.43449l-2.41292,4.48117l-2.70021,4.07899l-1.53024,1.75575l-1.51978,0.99734l-2.51711,1.13982l-1.32978,0.23747l-3.41947,0.09498h-6.41151l-5.31916,-0.37995l-7.40885,-1.28231l-11.16077,-2.6596l-14.43775,-2.99204l-2.51711,-0.52244l-0.47493,-0.37995l-0.09498,-0.80738l0.37995,-2.75458l0.80738,-7.26636l0.7124,-5.74662l0.56991,-5.50916l0.42743,-10.11592v-4.17934v-3.19376v-4.17934l-0.42743,-10.11592l-0.56991,-5.50916l-0.7124,-5.74662l-0.80738,-7.26636l-0.37995,-2.75458l0.09498,-0.80738l0.47493,-0.37995l2.51711,-0.52244l14.43775,-2.99204l11.16077,-2.6596l7.40885,-1.28231l5.31916,-0.37995h6.41151l3.41947,0.09498l1.32978,0.23747l2.51711,1.13982l1.51978,0.99734l1.53024,1.75575l2.70021,4.07899l2.41292,4.48117l2.24057,6.43449l1.49371,5.85999l0.91921,6.60684l0.40214,5.68763l0.11489,8.3878z" fill="#666666" stroke="#000000" stroke-width="0.75" stroke-linecap="round"/><path d="M302.17716,225.66319l3.48414,-4.71381l1.81732,-3.63464l1.30848,-3.99811l1.59926,-9.08661l0.58153,-8.57776l0.21806,-7.63276v-6.76044v-2.51813v-6.76044l-0.21806,-7.63276l-0.58153,-8.57776l-1.59926,-9.08661l-1.30848,-3.99811l-1.81732,-3.63464l-3.63954,-4.92406l0.06348,-0.06871l0.45971,0.0821l2.51711,1.13982l1.51978,0.99734l1.53024,1.75575l2.70021,4.07899l2.41292,4.48117l2.24057,6.43449l1.49371,5.85999l0.91921,6.60684l0.40214,5.68763l0.11489,8.3878v0.86039l-0.11489,8.3878l-0.40214,5.68763l-0.91921,6.60684l-1.49371,5.85999l-2.24057,6.43449l-2.41292,4.48117l-2.70021,4.07899l-1.53024,1.75575l-1.51978,0.99734l-2.51711,1.13982l-0.17141,0.03062l-0.16515,-0.1799l0.01563,-0.02114z" fill="#2e2e2e" stroke="#000000" stroke-width="0" stroke-linecap="round"/><g stroke="#000000"><path d="M147.67661,231.42582h-1.02075l-4.3535,-0.15832l-1.74141,-0.31661l-2.77041,-1.02901l-2.77041,-1.97887l-1.89969,-2.53295l-0.7124,-1.58308l-0.39579,-1.82055l-0.31661,-1.89969v-0.63322l-0.00353,-0.08193c0.69378,-0.02596 6.00577,-0.23216 9.47207,-0.58153c3.71426,-0.37435 9.45891,-1.33124 9.45891,-1.33124l0.07381,0.75403l-0.22166,1.31816l-0.42403,1.78096l-1.78096,8.01438l-0.29683,1.90819v0.12312z" fill="#645b5b" stroke-width="0" stroke-linecap="round"/><path d="M138.34975,228.49117c-2.4852,-2.17345 -2.59717,-5.93998 -1.49245,-7.20316c1.10475,-1.26318 3.00788,0.45529 5.49305,2.62874c2.4852,2.17345 4.61135,3.97885 3.50663,5.24202c-1.10475,1.26318 -5.02203,1.50584 -7.50723,-0.66761z" fill="url(#color-1)" stroke-width="0.25" stroke-linecap="butt"/><path d="M143.7609,223.98241c-1.55617,-1.36098 -1.62631,-3.71946 -0.93454,-4.51046c0.69177,-0.79096 1.88345,0.28507 3.43962,1.64605c1.55617,1.36098 2.88755,2.49146 2.19578,3.28245c-0.69177,0.79096 -3.14469,0.94293 -4.70086,-0.41805z" fill="url(#color-2)" stroke-width="0.25" stroke-linecap="butt"/></g><path d="M150.33145,210.46374h25.72517l50.8567,0.69262l15.53404,0.98942l8.04265,1.11665l-0.23322,1.58308l-7.90839,-1.11665l-16.02875,-0.98942l-21.27275,-0.39575l-54.61653,-0.09896" fill="#363636" stroke="#000000" stroke-width="0.75" stroke-linecap="round"/><path d="M133.344,179.37601v-13.2301l0.1696,-5.51255l0.38165,-8.56563l0.21201,-2.41704l0.21201,-1.35693l0.38162,-1.65377l0.38162,-1.14492l0.29683,-0.59366l0.38162,-0.38162l0.59366,-0.33924l0.8905,-0.12719h1.9506l2.71387,0.25442l3.26512,0.63604l1.22971,0.42403l0.42403,0.33924l0.42403,0.33924l0.25442,0.63607l0.12723,0.67845l-0.1696,2.88347l-0.42403,12.00036l-0.08482,4.74925l-0.04241,5.30051l-0.08482,7.37833v0.65425l0.08482,7.37833l0.04241,5.30051l0.08482,4.74925l0.42403,12.00036l0.1696,2.88347l-0.12723,0.67845l-0.25442,0.63607l-0.42403,0.33924l-0.42403,0.33924l-1.22971,0.42403l-3.26512,0.63604l-2.71387,0.25442h-1.9506l-0.8905,-0.12719l-0.59366,-0.33924l-0.38162,-0.38162l-0.29683,-0.59366l-0.38162,-1.14492l-0.38162,-1.65377l-0.21201,-1.35693l-0.21201,-2.41704l-0.38165,-8.56563l-0.1696,-5.51255v-13.2301z" fill="#666666" stroke="#000000" stroke-width="0.5" stroke-linecap="round"/><path d="M150.13606,212.38464h-3.54741c0,0 -1.5894,-0.07007 -1.54798,-2.32977c0.03891,-2.12228 1.54798,-2.12268 1.54798,-2.12268h3.28405" fill="#363636" stroke="#000000" stroke-width="0.75" stroke-linecap="round"/><path d="M209.5658,231.35561l-17.51291,-0.33598c0,0 -5.56767,-0.07748 -11.10011,-1.15144c-12.01643,-2.33259 -13.86379,-6.07299 -14.52505,-6.7129c-0.66126,-0.63995 -0.76327,-1.10251 -0.76327,-1.10251l0.04241,-0.55126l0.42403,-0.42403l0.93287,-0.25442l6.23341,-0.04241l21.24447,-0.04241h11.87316l0.17144,-0.02905l2.71203,8.38267l0.53114,2.29229z" fill="#424242" stroke="#000000" stroke-width="0" stroke-linecap="round"/><path d="M214.93807,230.23679l-3.1803,-6.40302l-0.1696,-0.97528l0.25442,-1.0601l0.59366,-0.46644l1.22971,-0.33924l2.67146,-0.08482l8.90487,0.12719l9.07448,0.21201l11.19468,0.55126l8.01438,0.8905l6.3182,1.10251l13.65412,2.45944l13.61172,2.75628c0,0 1.49463,0.34825 2.41704,0.67848c0.92241,0.33024 1.31452,0.50885 1.31452,0.50885l0.59366,0.46644l0.25442,0.38162l-0.08482,0.33924l-0.38165,0.29683l-0.46644,0.08482l-9.88016,0.1696h-11.95795l-20.35398,-0.25442l-18.4882,-0.42403l-14.41743,-0.46644c0,0 -0.34991,-0.10793 -0.47996,-0.20739c-0.10466,-0.08003 -0.2409,-0.34386 -0.2409,-0.34386z" fill="#363636" stroke="#000000" stroke-width="0.75" stroke-linecap="round"/><path d="M273.18106,231.30451l-19.13406,-0.13702l-10.54885,-0.22832l-12.87781,-0.31967l-14.20212,-0.41098l-0.59366,-0.13702l-0.41098,-0.274l-2.83128,-5.70826l-0.274,-0.68497l-0.04567,-0.59366l0.31967,-0.63934l0.77632,-0.36534l2.19197,-0.18265l18.31207,0.36534l5.7996,0.31967l6.16491,0.31967l8.17423,0.91333l6.39323,1.09599l12.01014,2.28332l0.41098,0.274l0.22832,0.41098l0.54799,3.37927z" fill="#666666" stroke="#000000" stroke-width="0.25" stroke-linecap="round"/><path d="M274.82504,231.71548l-1.00464,-5.16026" fill="none" stroke="#000000" stroke-width="0.75" stroke-linecap="round"/><path d="M147.67661,231.42582h-1.02075l-4.3535,-0.15832l-1.74141,-0.31661l-2.77041,-1.02901l-2.77041,-1.97887l-1.89969,-2.53295l-0.7124,-1.58308l-0.39579,-1.82055l-0.31661,-1.89969v-0.63322" fill="none" stroke="#000000" stroke-width="0.75" stroke-linecap="round"/><path d="M313.03841,229.76356l-0.31661,-0.87069l0.07914,-0.63322l0.23747,-0.7124l1.10815,-1.18733l8.54867,-7.2822l9.81515,-7.91545l1.4248,-1.02901l1.58308,-0.7124l1.82055,-0.23747l2.21634,0.23747l1.66223,0.94986l0.79154,1.10815l0.39579,1.18733l0.31661,2.21634l-0.07914,2.45377l-0.63322,2.29548l-1.58308,2.45377l-2.13716,2.37463l-3.72024,2.77041l-4.90757,2.61209l-2.21634,0.79154l-2.77041,0.55408l-5.0659,0.23747l-3.6411,-0.23747l-1.50394,-0.31661c0,0 -0.53141,-0.2726 -0.76415,-0.45363c-0.24185,-0.18809 -0.66064,-0.65453 -0.66064,-0.65453z" fill="#e5e5e5" stroke="#000000" stroke-width="0.75" stroke-linecap="round"/><path d="M314.37424,225.75882l-2.35549,-1.49371l-0.86175,-0.80432l-2.01078,-2.35549" fill="none" stroke="#000000" stroke-width="0.75" stroke-linecap="round"/><path d="M150.72972,217.51557l-0.04241,0.59366" fill="none" stroke="#000000" stroke-width="0.75" stroke-linecap="round"/><path d="M205.56673,217.55795l3.73156,11.53392l0.80568,3.47714l0.21201,2.03542" fill="none" stroke="#000000" stroke-width="0.75" stroke-linecap="round"/><path d="M209.5658,231.35561l-17.51291,-0.33598c0,0 -5.56767,-0.07748 -11.10011,-1.15144c-12.01643,-2.33259 -13.86379,-6.07299 -14.52505,-6.7129c-0.66126,-0.63995 -0.76327,-1.10251 -0.76327,-1.10251l0.04241,-0.55126l0.42403,-0.42403l0.93287,-0.25442l6.23341,-0.04241l21.24447,-0.04241h11.87316" fill="none" stroke="#000000" stroke-width="0.75" stroke-linecap="round"/><path d="M277.86323,229.631c0.92213,-0.96522 2.21189,-1.22964 2.88075,-0.59064c0.66887,0.639 0.46358,1.93949 -0.45855,2.90471c-0.92213,0.96522 -2.21189,1.22964 -2.88075,0.59064c-0.66887,-0.639 -0.46358,-1.93949 0.45855,-2.90471z" fill="#363636" stroke="#000000" stroke-width="0.75" stroke-linecap="butt"/><path d="M301.95393,134.03483l3.70733,5.01581l1.81732,3.63464l1.30848,3.99811l1.59926,9.08661l0.58153,8.57776l0.21806,7.63276v6.76044v2.51813v6.76044l-0.21806,7.63276l-0.58153,8.57776l-1.59926,9.08661l-1.30848,3.99811l-1.81732,3.63464l-3.70733,5.01581" fill="none" stroke="#000000" stroke-width="0.75" stroke-linecap="round"/><path d="M354.07473,181.25909v3.56196l-0.50885,8.43235l-0.50885,8.1416l-0.58153,2.76233l-0.43616,1.52654l-0.36347,0.79963l-0.43616,0.58153l-0.65422,0.36347h-1.38116l-0.36347,-0.79963l-0.14537,-0.945v-1.09038c0,0 0.6914,-5.60883 0.92988,-8.94749c0.30315,-4.24425 0.74206,-14.4596 0.74206,-14.4596v-2.37279c0,0 -0.43891,-10.21535 -0.74206,-14.4596c-0.23849,-3.33869 -0.92988,-8.94749 -0.92988,-8.94749v-1.09038l0.14537,-0.945l0.36347,-0.79963h1.38116l0.65422,0.36347l0.43616,0.58153l0.36347,0.79963l0.43616,1.52654l0.58153,2.76233l0.50885,8.1416l0.50885,8.43235v3.56196z" fill="#191919" stroke="#000000" stroke-width="0.75" stroke-linecap="round"/><path d="M331.17649,234.76098l-1.74463,-4.50696" fill="none" stroke="#000000" stroke-width="0.75" stroke-linecap="round"/><path d="M341.57157,149.5184l0.65422,1.89001l0.87232,3.48927l0.79963,6.83313l0.87232,9.08661l0.14537,4.28886v2.98039v3.82664v2.98039l-0.14537,4.28886l-0.87232,9.08661l-0.79963,6.83313l-0.87232,3.48927l-0.65422,1.89001" fill="none" stroke="#000000" stroke-width="0.75" stroke-linecap="round"/><path d="M203.49475,229.7062l-10.54885,-0.13702l-5.57124,-0.45665c0,0 -3.75722,-0.57263 -5.47215,-1.12769c-1.92848,-0.62415 -5.53335,-2.43426 -5.53335,-2.43426l-2.05496,-1.09599l-0.41098,-0.36534l-0.22832,-0.31967l-0.09134,-0.274l0.04567,-0.41098l0.50232,-0.45665l0.59366,-0.13702h26.5776l0.91333,0.13702l0.54799,0.22832l0.41098,0.36534l0.31967,0.50232l1.50696,5.02325c0,0 0.1517,0.67563 -0.09644,0.83354c-0.25405,0.16169 -1.41056,0.12546 -1.41056,0.12546z" fill="#666666" stroke="#000000" stroke-width="0.125" stroke-linecap="round"/><path d="M179.9991,226.0982c0,0.14334 -0.16311,0.25952 -0.36429,0.25952c-0.20121,0 -0.36429,-0.11618 -0.36429,-0.25952c0,-0.14334 0.16311,-0.25952 0.36429,-0.25952c0.20121,0 0.36429,0.11618 0.36429,0.25952z" fill="#363636" stroke="#000000" stroke-width="0.25" stroke-linecap="butt"/><g data-paper-data="{&quot;index&quot;:null}" stroke="#000000"><path d="M147.97344,128.62238v0.12312l0.29683,1.90819l1.78096,8.01438l0.42403,1.78096l0.22166,1.31816l-0.07381,0.75403c0,0 -5.74465,-0.9569 -9.45891,-1.33124c-3.4663,-0.34933 -8.77829,-0.55554 -9.47207,-0.58153l0.00353,-0.08193v-0.63322l0.31661,-1.89969l0.39579,-1.82055l0.7124,-1.58308l1.89969,-2.53295l2.77041,-1.97887l2.77041,-1.02901l1.74141,-0.31661l4.3535,-0.15832h1.02075z" fill="#645b5b" stroke-width="0" stroke-linecap="round"/><path d="M138.34975,131.50881c2.4852,-2.17345 6.40251,-1.93079 7.50723,-0.66761c1.10475,1.26318 -1.02143,3.06857 -3.50663,5.24202c-2.4852,2.17345 -4.38833,3.89192 -5.49305,2.62874c-1.10475,-1.26321 -0.99275,-5.02971 1.49245,-7.20316z" fill="url(#color-3)" stroke-width="0.25" stroke-linecap="butt"/><path d="M148.46177,135.59953c0.69177,0.79096 -0.63961,1.92148 -2.19578,3.28245c-1.55617,1.36098 -2.74785,2.43702 -3.43962,1.64605c-0.69177,-0.79096 -0.62163,-3.14948 0.93454,-4.51046c1.55617,-1.36098 4.00909,-1.20901 4.70086,-0.41805z" fill="url(#color-4)" stroke-width="0.25" stroke-linecap="butt"/></g><path d="M150.43041,147.75525l54.61653,-0.09896l21.27275,-0.39575l16.02875,-0.98942l7.90839,-1.11665l0.23322,1.58308l-8.04265,1.11665l-15.53404,0.98942l-50.8567,0.69262h-25.72517" data-paper-data="{&quot;index&quot;:null}" fill="#363636" stroke="#000000" stroke-width="0.75" stroke-linecap="round"/><path d="M149.87273,152.06777h-3.28405c0,0 -1.50904,-0.00041 -1.54798,-2.12268c-0.04146,-2.2597 1.54798,-2.32977 1.54798,-2.32977h3.54741" data-paper-data="{&quot;index&quot;:null}" fill="#363636" stroke="#000000" stroke-width="0.75" stroke-linecap="round"/><path d="M209.82946,128.61582l-0.53114,2.29229l-2.71203,8.38267l-0.17144,-0.02905h-11.87316l-21.24447,-0.04241l-6.23341,-0.04241l-0.93287,-0.25442l-0.42403,-0.42403l-0.04241,-0.55126c0,0 0.10201,-0.46256 0.76327,-1.10251c0.66126,-0.63995 2.50862,-4.38031 14.52505,-6.7129c5.5324,-1.07393 11.10011,-1.15144 11.10011,-1.15144l17.51291,-0.33598z" data-paper-data="{&quot;index&quot;:null}" fill="#424242" stroke="#000000" stroke-width="0" stroke-linecap="round"/><path d="M214.93804,129.76319c0,0 0.13627,-0.26384 0.2409,-0.34386c0.13008,-0.09947 0.47996,-0.20739 0.47996,-0.20739l14.41743,-0.46644l18.4882,-0.42403l20.35398,-0.25442h11.95795l9.88016,0.1696l0.46644,0.08482l0.38165,0.29683l0.08482,0.33924l-0.25442,0.38162l-0.59366,0.46644c0,0 -0.39212,0.17861 -1.31452,0.50885c-0.92241,0.33024 -2.41704,0.67848 -2.41704,0.67848l-13.61172,2.75628l-13.65412,2.45944l-6.3182,1.10251l-8.01438,0.8905l-11.19468,0.55126l-9.07448,0.21201l-8.90487,0.12719l-2.67146,-0.08482l-1.22971,-0.33924l-0.59366,-0.46644l-0.25442,-1.0601l0.1696,-0.97528l3.1803,-6.40302z" data-paper-data="{&quot;index&quot;:null}" fill="#363636" stroke="#000000" stroke-width="0.75" stroke-linecap="round"/><path d="M273.59207,129.01515l-0.54799,3.37927l-0.22832,0.41098l-0.41098,0.274l-12.01014,2.28332l-6.39323,1.09599l-8.17423,0.91333l-6.16491,0.31967l-5.7996,0.31967l-18.31207,0.36534l-2.19197,-0.18265l-0.77632,-0.36534l-0.31967,-0.63934l0.04567,-0.59366l0.274,-0.68497l2.83128,-5.70826l0.41098,-0.274l0.59366,-0.13702l14.20212,-0.41098l12.87781,-0.31967l10.54885,-0.22832l19.13406,-0.13702z" data-paper-data="{&quot;index&quot;:null}" fill="#666666" stroke="#000000" stroke-width="0.25" stroke-linecap="round"/><path d="M274.82504,128.2845l-1.00464,5.16026" data-paper-data="{&quot;index&quot;:null}" fill="none" stroke="#000000" stroke-width="0.75" stroke-linecap="round"/><path d="M131.69567,140.5265v-0.63322l0.31661,-1.89969l0.39579,-1.82055l0.7124,-1.58308l1.89969,-2.53295l2.77041,-1.97887l2.77041,-1.02901l1.74141,-0.31661l4.3535,-0.15832h1.02075" data-paper-data="{&quot;index&quot;:null}" fill="none" stroke="#000000" stroke-width="0.75" stroke-linecap="round"/><path d="M313.03841,130.23642c0,0 0.41879,-0.46644 0.66064,-0.65453c0.23271,-0.18099 0.76415,-0.45363 0.76415,-0.45363l1.50394,-0.31661l3.6411,-0.23747l5.0659,0.23747l2.77041,0.55408l2.21634,0.79154l4.90757,2.61209l3.72024,2.77041l2.13716,2.37463l1.58308,2.45377l0.63322,2.29548l0.07914,2.45377l-0.31661,2.21634l-0.39579,1.18733l-0.79154,1.10815l-1.66223,0.94986l-2.21634,0.23747l-1.82055,-0.23747l-1.58308,-0.7124l-1.4248,-1.02901l-9.81515,-7.91545l-8.54867,-7.2822l-1.10815,-1.18733l-0.23747,-0.7124l-0.07914,-0.63322z" data-paper-data="{&quot;index&quot;:null}" fill="#e5e5e5" stroke="#000000" stroke-width="0.75" stroke-linecap="round"/><path d="M148.86391,235.87654l-0.50885,-1.48413l-0.38162,-2.16261v-0.97528l0.29683,-1.90819l1.78096,-8.01438l0.42403,-1.78096l0.22166,-1.31816l-0.07381,-0.75403c0,0 -5.74465,0.9569 -9.45891,1.33124c-3.71426,0.37435 -9.54771,0.58432 -9.54771,0.58432l-0.55408,-1.66226l-0.55408,-2.29548l-0.23747,-2.05802l-0.47493,-5.85744l-0.7124,-11.95231l-0.23747,-9.97347v-3.4752v-4.17305v-3.54259l0.23747,-9.97347l0.7124,-11.95231l0.47493,-5.85744l0.23747,-2.05802l0.55408,-2.29548l0.55408,-1.66226c0,0 5.83345,0.20997 9.54771,0.58432c3.71426,0.37435 9.45891,1.33124 9.45891,1.33124l0.07381,-0.75403l-0.22166,-1.31816l-0.42403,-1.78096l-1.78096,-8.01438l-0.29683,-1.90819v-0.97528l0.38162,-2.16261l0.50885,-1.48413" data-paper-data="{&quot;index&quot;:null}" fill="none" stroke="#000000" stroke-width="0.75" stroke-linecap="round"/><path d="M309.14618,138.89466l2.01078,-2.35549l0.86175,-0.80432l2.35549,-1.49371" data-paper-data="{&quot;index&quot;:null}" fill="none" stroke="#000000" stroke-width="0.75" stroke-linecap="round"/><path d="M287.15733,234.88362l-0.75987,-2.80205l-0.52244,-1.56725l-0.33245,-0.90236l-0.7124,-1.28231l-0.94986,-1.09232l-1.2348,-0.7124l-5.41418,-1.18733l-8.40619,-1.37729l-12.91801,-2.70707l-9.02361,-1.9472l-3.46694,-0.42743l-9.30854,-0.66489l-11.77818,-0.56991l-16.90739,-0.33245h-45.11799l-9.45103,0.23747l-0.1607,-0.13331l-0.23747,-2.29548l-0.55408,-8.23206l-0.55408,-8.707l-0.39579,-5.85744l-0.15832,-12.02313v-0.91327l0.15832,-11.7107l0.39579,-5.85744l0.55408,-8.707l0.55408,-8.23206l0.23747,-2.29548l0.1607,-0.13331l9.45103,0.23747h45.11799l16.90739,-0.33245l11.77818,-0.56991l9.30854,-0.66489l3.46694,-0.42743l9.02361,-1.9472l12.91801,-2.70707l8.40619,-1.37729l5.41418,-1.18733l1.2348,-0.7124l0.94986,-1.09232l0.7124,-1.28231l0.33245,-0.90236l0.52244,-1.56725l0.75987,-2.80205" data-paper-data="{&quot;index&quot;:null}" fill="none" stroke="#000000" stroke-width="0.75" stroke-linecap="round"/><path d="M150.68731,141.89078l0.04241,0.59366" data-paper-data="{&quot;index&quot;:null}" fill="none" stroke="#000000" stroke-width="0.75" stroke-linecap="round"/><path d="M210.31602,125.39556l-0.21201,2.03542l-0.80568,3.47714l-3.73156,11.53392" data-paper-data="{&quot;index&quot;:null}" fill="none" stroke="#000000" stroke-width="0.75" stroke-linecap="round"/><path d="M206.41482,139.26173h-11.87316l-21.24447,-0.04241l-6.23341,-0.04241l-0.93287,-0.25442l-0.42403,-0.42403l-0.04241,-0.55126c0,0 0.10201,-0.46256 0.76327,-1.10251c0.66126,-0.63995 2.50862,-4.38031 14.52505,-6.7129c5.5324,-1.07393 11.10011,-1.15144 11.10011,-1.15144l17.51291,-0.33598" data-paper-data="{&quot;index&quot;:null}" fill="none" stroke="#000000" stroke-width="0.75" stroke-linecap="round"/><path d="M277.40468,127.46428c0.66887,-0.639 1.95862,-0.37458 2.88075,0.59064c0.92213,0.96522 1.12742,2.26568 0.45855,2.90471c-0.66887,0.639 -1.95862,0.37458 -2.88075,-0.59064c-0.92213,-0.96522 -1.12742,-2.26568 -0.45855,-2.90471z" data-paper-data="{&quot;index&quot;:null}" fill="#363636" stroke="#000000" stroke-width="0.75" stroke-linecap="butt"/><path d="M329.43182,129.74596l1.74463,-4.50696" data-paper-data="{&quot;index&quot;:null}" fill="none" stroke="#000000" stroke-width="0.75" stroke-linecap="round"/><path d="M203.49475,130.29379c0,0 1.15651,-0.03622 1.41056,0.12546c0.24814,0.15791 0.09644,0.83354 0.09644,0.83354l-1.50696,5.02325l-0.31967,0.50232l-0.41098,0.36534l-0.54799,0.22832l-0.91333,0.13702h-26.5776l-0.59366,-0.13702l-0.50232,-0.45665l-0.04567,-0.41098l0.09134,-0.274l0.22832,-0.31967l0.41098,-0.36534l2.05496,-1.09599c0,0 3.60491,-1.81012 5.53335,-2.43426c1.71493,-0.55503 5.47215,-1.12769 5.47215,-1.12769l5.57124,-0.45665z" data-paper-data="{&quot;index&quot;:null}" fill="#666666" stroke="#000000" stroke-width="0.125" stroke-linecap="round"/><path d="M179.63482,134.16131c-0.20117,0 -0.36429,-0.11618 -0.36429,-0.25952c0,-0.14334 0.16308,-0.25952 0.36429,-0.25952c0.20117,0 0.36429,0.11618 0.36429,0.25952c0,0.14334 -0.16308,0.25952 -0.36429,0.25952z" data-paper-data="{&quot;index&quot;:null}" fill="#363636" stroke="#000000" stroke-width="0.25" stroke-linecap="butt"/><path d="M318.39573,180.4302l-0.11489,8.3878l-0.40214,5.68763l-0.91921,6.60684l-1.49371,5.85999l-2.24057,6.43449l-2.41292,4.48117l-2.70021,4.07899l-1.53024,1.75575l-1.51978,0.99734l-2.51711,1.13982l-1.32978,0.23747l-3.41947,0.09498h-6.41151l-5.31916,-0.37995l-7.40885,-1.28231l-11.16077,-2.6596l-14.43775,-2.99204l-2.51711,-0.52244l-0.47493,-0.37995l-0.09498,-0.80738l0.37995,-2.75458l0.80738,-7.26636l0.7124,-5.74662l0.56991,-5.50916l0.42743,-10.11592v-4.17934v-3.19376v-4.17934l-0.42743,-10.11592l-0.56991,-5.50916l-0.7124,-5.74662l-0.80738,-7.26636l-0.37995,-2.75458l0.09498,-0.80738l0.47493,-0.37995l2.51711,-0.52244l14.43775,-2.99204l11.16077,-2.6596l7.40885,-1.28231l5.31916,-0.37995h6.41151l3.41947,0.09498l1.32978,0.23747l2.51711,1.13982l1.51978,0.99734l1.53024,1.75575l2.70021,4.07899l2.41292,4.48117l2.24057,6.43449l1.49371,5.85999l0.91921,6.60684l0.40214,5.68763l0.11489,8.3878z" fill="none" stroke="#000000" stroke-width="0.75" stroke-linecap="round"/><g fill="none" stroke="#ababab" stroke-width="0.75" stroke-linecap="round"><path d="M339.38972,179.99568l3.90895,3.40003"/><path d="M343.29867,176.60428l-3.90895,3.40003" data-paper-data="{&quot;index&quot;:null}"/></g><g fill="none" stroke="#ababab" stroke-width="0.75" stroke-linecap="round"><path d="M341.3005,183.39571l-3.90895,-3.40003"/><path d="M341.3005,176.60424l-3.90895,3.40003" data-paper-data="{&quot;index&quot;:null}"/></g><g stroke="#000000" stroke-width="0.5" stroke-linecap="round"><path d="M134.98078,196.24986l-1.10655,-21.89173l-0.13549,-1.12973l-0.18996,-0.65667l-2.26949,-3.80452l-0.31909,-0.8853l-0.06677,-0.54531l-0.0158,-0.31274l0.30088,-0.25038l0.44187,0.21283l2.87365,4.1267l0.4735,0.8383l0.22707,0.61558l0.06875,0.58442l0.07904,1.56368l1.00379,19.85893l-0.05407,1.25689l-0.35141,0.8016l-0.38104,0.21521l-0.3929,-0.01934z" fill="#363636"/><path d="M133.92238,172.98397l1.11192,-0.4873" fill="none"/></g><path d="M356.38866,180.29676l-0.65962,11.87316l-1.1873,11.87316l-2.37463,10.15816l-3.29809,9.10275l-2.50654,4.22158l-3.16617,3.29809l-2.11079,1.31925l-4.22158,1.58308l-7.91545,1.31925l-6.99196,1.05538l-5.01312,0.39579l-6.86004,0.13192h-6.33234l-6.99196,-0.26384l-5.80466,-0.92346l-3.56196,-0.39575l-12.00508,-0.26384l-58.57424,0.52771l-33.64062,-0.79154l-5.93658,-0.13192l-2.37463,0.39575l-2.24271,1.05538l-1.05538,0.39579l-1.715,0.39575l-4.88117,0.13192l-16.88629,-0.52771l-8.57508,-1.05541l-2.6385,-0.52771l-2.77041,-1.18733l-2.50654,-1.715l-2.37463,-2.50654l-1.58308,-3.69387l-1.31925,-4.74925l-1.31925,-7.38775l-0.79154,-8.83891l-0.65962,-15.56704v-10.29008v-7.71744l0.65962,-15.56704l0.79154,-8.83891l1.31925,-7.38775l1.31925,-4.74925l1.58308,-3.69387l2.37463,-2.50654l2.50654,-1.715l2.77041,-1.18733l2.6385,-0.52771l8.57508,-1.05541l16.88629,-0.52771l4.88117,0.13192l1.715,0.39575l1.05538,0.39579l2.24271,1.05538l2.37463,0.39575l5.93658,-0.13192l33.64062,-0.79154l58.57424,0.52771l12.00508,-0.26384l3.56196,-0.39575l5.80466,-0.92346l6.99196,-0.26384h6.33234l6.86004,0.13192l5.01312,0.39579l6.99196,1.05538l7.91545,1.31925l4.22158,1.58308l2.11079,1.31925l3.16617,3.29809l2.50654,4.22158l3.29809,9.10275l2.37463,10.15816l1.1873,11.87316l0.65962,11.87316z" data-paper-data="{&quot;index&quot;:null}" fill="none" stroke="#000000" stroke-width="1.5" stroke-linecap="round"/><path d="M271.0944,243.9233c-2.89543,-1.26967 -1.7849,-5.0643 -0.08261,-8.94633c1.70229,-3.88203 4.62379,-6.63586 7.51926,-5.36619c2.89543,1.26967 3.8627,5.44595 2.1604,9.32798c-1.70229,3.88203 -6.70158,6.25421 -9.59705,4.98458z" fill="#363636" stroke="#000000" stroke-width="0.75" stroke-linecap="butt"/><path d="M280.69145,121.06126c1.70229,3.88203 0.73503,8.05831 -2.1604,9.32798c-2.89543,1.26967 -5.81697,-1.48416 -7.51926,-5.36619c-1.70229,-3.88203 -2.81282,-7.67666 0.08261,-8.94633c2.89543,-1.26967 7.89476,1.10251 9.59705,4.98458z" data-paper-data="{&quot;index&quot;:null}" fill="#363636" stroke="#000000" stroke-width="0.75" stroke-linecap="butt"/><g fill="#2e2e2e" stroke="#000000" stroke-width="0.5"><path d="M300.48384,138.57703l8.73466,46.23889l-0.3161,0.33088h-0.43174l-0.32381,-0.48574l-8.5271,-45.92755l0.10793,-0.43174l0.37778,-0.05396z" stroke-linecap="round"/><path d="M313.69008,184.28532l-7.13655,-18.9581c0,0 -0.18979,-0.45842 -0.2985,-0.57977c-0.35464,-0.39596 -2.18222,-2.19 -2.18222,-2.19l-0.16383,-1.06319l0.60627,0.53049c0,0 1.664,1.44512 2.15051,1.97255c0.29075,0.31518 0.49726,0.89774 0.49726,0.89774l5.08241,13.80266l2.22225,5.05689l-0.02851,0.34196l-0.34196,0.19947z" stroke-linecap="round"/><path d="M305.32253,161.10116l0.93314,5.30421l-2.07677,0.36534l-0.93314,-5.30421z" stroke-linecap="butt"/></g></g></g></g></svg>