<svg version="1.1" xmlns="http://www.w3.org/2000/svg" xmlns:xlink="http://www.w3.org/1999/xlink" width="98.09936" height="43.74329" viewBox="0,0,98.09936,43.74329"><defs><linearGradient x1="243.28366" y1="164.22473" x2="255.27891" y2="164.22473" gradientUnits="userSpaceOnUse" id="color-1"><stop offset="0" stop-color="#a5a5a5"/><stop offset="1" stop-color="#6d6d6d"/></linearGradient><linearGradient x1="214.57465" y1="163.03089" x2="214.57465" y2="166.78296" gradientUnits="userSpaceOnUse" id="color-2"><stop offset="0" stop-color="#6d6d6d"/><stop offset="1" stop-color="#a5a5a5"/></linearGradient><linearGradient x1="214.57465" y1="193.10429" x2="214.57465" y2="196.23102" gradientUnits="userSpaceOnUse" id="color-3"><stop offset="0" stop-color="#a5a5a5"/><stop offset="1" stop-color="#6d6d6d"/></linearGradient><linearGradient x1="207.52531" y1="167.8631" x2="220.0322" y2="167.8631" gradientUnits="userSpaceOnUse" id="color-4"><stop offset="0" stop-color="#6a6a6a"/><stop offset="1" stop-color="#a5a5a5"/></linearGradient><linearGradient x1="193.48347" y1="162.63295" x2="193.48347" y2="168.94324" gradientUnits="userSpaceOnUse" id="color-5"><stop offset="0" stop-color="#f00000"/><stop offset="1" stop-color="#7a0000"/></linearGradient><linearGradient x1="192.85813" y1="190.37552" x2="192.85813" y2="197.02691" gradientUnits="userSpaceOnUse" id="color-6"><stop offset="0" stop-color="#ea0000"/><stop offset="1" stop-color="#7a0000"/></linearGradient></defs><g transform="translate(-190.99375,-158.12917)"><g data-paper-data="{&quot;isPaintingLayer&quot;:true}" fill-rule="nonzero" stroke-linejoin="miter" stroke-miterlimit="10" stroke-dasharray="" stroke-dashoffset="0" style="mix-blend-mode: normal"><path d="" fill="#006bff" stroke="none" stroke-width="NaN" stroke-linecap="butt"/><path d="" fill="#006bff" stroke="none" stroke-width="NaN" stroke-linecap="butt"/><path d="" fill="#006bff" stroke="none" stroke-width="NaN" stroke-linecap="butt"/><path d="" fill="#006bff" stroke="none" stroke-width="NaN" stroke-linecap="butt"/><path d="" fill="#006bff" stroke="none" stroke-width="NaN" stroke-linecap="butt"/><path d="M191.43689,185.62858c-0.01753,-1.08645 -0.07269,-1.78457 -0.05685,-3.19201c0.02733,-2.42762 0.79583,-3.70589 0.09949,-4.77665c-0.03115,-0.19551 -0.11213,-0.37441 -0.22953,-0.52326c0.0329,-0.4697 0.01093,-0.9352 0.01634,-1.25993c0.01352,-0.8106 0.43436,-1.63617 0.4548,-2.4708c0.0225,-0.91885 -0.33644,-2.20671 -0.20104,-3.13499c0.14797,-1.01451 0.97255,-2.23864 0.59363,-3.28827c-0.01171,-0.03244 -0.02606,-0.06283 -0.04275,-0.09143c0.13776,-0.31958 0.25782,-0.62285 0.40419,-0.80435c0.44176,-0.5478 0.99981,-1.41579 1.54108,-1.88289c0.39347,-0.33955 0.71365,-0.74458 1.09179,-1.09295c0.80189,-0.73879 2.0644,-0.70898 3.0286,-1.05212c0.60216,-0.2143 1.24561,-0.52056 1.84875,-0.66405c0.81928,-0.19492 1.68479,-0.086 2.49875,-0.32679c1.08627,-0.32134 2.03279,-0.86672 3.05032,-1.19971c0.59355,-0.19424 1.62879,-0.20824 2.10454,-0.47585c0.04405,-0.02478 0.08308,-0.05461 0.11808,-0.0885c0.0564,-0.04279 0.10868,-0.09072 0.15615,-0.14309c0.61409,0.14889 1.39267,0.03672 1.8292,0.03262c2.05159,-0.01926 4.08466,-0.41057 6.13975,-0.4548c2.07883,-0.04474 4.15942,0.06693 6.2181,0.09065c1.19202,0.01373 2.44851,0.57018 3.65462,1.04438c0.06948,0.15489 0.25912,0.15489 0.25912,0.15489l-0.04523,-0.02706c0.61437,0.28881 1.17786,0.71121 1.84443,0.87723c0.66782,0.16633 1.53332,0.18365 2.21817,0.18575c0,0 0.24757,0 0.28062,-0.23104c1.27042,0.08341 2.555,0.07314 3.77595,0.06547c1.93789,-0.01218 3.88324,0.12835 5.81844,0.06958c0.05803,0.03398 0.11361,0.04231 0.11361,0.04231l0.51549,0.07714c1.18298,0.09095 2.35478,0.04094 3.53454,-0.0239c0,0 0.11024,-0.00612 0.18949,-0.07945c0.49367,0.06109 0.98638,0.08783 1.41262,0.06136c0.02888,0.12637 0.14198,0.22066 0.27711,0.22066h0.40426v-0.00408c0.11238,0.01277 0.2382,-0.0114 0.44782,-0.08774c0.04889,-0.01781 0.0926,-0.03732 0.13165,-0.05761l0.07648,0.02942l0.00616,-0.01601l0.04399,0.03018c0.11243,-0.00267 0.22793,0.00486 0.33844,0.00108c0.05938,0.04789 0.1511,0.0876 0.27053,0.03619c0.03106,0.01166 0.06471,0.01803 0.09985,0.01803c0.15699,0 0.28425,-0.12726 0.28425,-0.28425c0,-0.07695 -0.03058,-0.14677 -0.08025,-0.19795c0.06733,-0.24116 -0.16232,-0.4833 -0.20155,-0.73311c0,0 -0.04673,-0.28038 -0.32711,-0.23365c-0.00675,0.00113 -0.01331,0.00239 -0.01968,0.00377c0.01728,-0.26895 -0.05254,-0.54792 -0.19602,-0.80179c-0.0176,-0.06917 -0.04153,-0.13581 -0.07115,-0.19926c0.01652,-0.0246 0.03291,-0.0502 0.04916,-0.07669c0.23754,-0.0482 0.46164,-0.13343 0.66601,-0.24939c0.48436,0.20423 0.97241,0.40177 1.13196,0.47283c0.13274,0.05912 0.26329,0.13029 0.39209,0.20993c-0.01529,0.01965 -0.02946,0.04299 -0.04202,0.07062c-0.11762,0.25877 0.14115,0.37639 0.14115,0.37639c0.42829,0.19051 0.92807,0.6197 1.18779,1.02456c0.07046,0.10984 0.05746,0.28373 0.16753,0.35383c0.22898,0.14584 0.6869,0.106 0.9548,0.11249c1.09042,0.0264 2.16785,-0.02108 3.25275,0.1239l0.21443,0.00249c0,0 0.12971,0 0.21389,-0.08763c0.57114,0.05712 1.15461,0.08016 1.78216,0.02312c0.08705,0 0.17296,-0.00489 0.25747,-0.01441c0.03251,0.11262 0.13279,0.19649 0.25383,0.20461l0.32596,0.02508l0.00188,-0.02443h0.04417c0.21198,0.05109 0.41229,0.01105 0.72839,-0.16684l0.11107,-0.06664c0.10163,-0.01804 0.22515,-0.09408 0.34672,-0.17354c0.30976,-0.07018 0.65095,-0.22347 0.96504,-0.33998c0.08314,-0.01384 0.16472,-0.02664 0.24218,-0.03945l0.34718,-0.0496c0.06705,-0.00849 0.12681,-0.04033 0.17089,-0.08712c1.73624,-0.22213 3.47399,-0.23174 5.21886,-0.36603c0.47071,-0.02618 0.94255,-0.06321 1.41476,-0.09123c0.04451,0.09884 0.14387,0.16765 0.25931,0.16765c0.02333,0 0.046,-0.00281 0.06769,-0.00811c0.08422,0.08391 0.21024,0.08391 0.21024,0.08391h0.10106c0.38955,-0.00214 0.75915,-0.08209 1.13976,-0.14844c0.20135,0.01846 0.42164,0.02195 0.67943,0.02211l0.23739,-0.02746c0,0 0.02077,-0.0026 0.05033,-0.01202c0.3977,0.04679 0.79647,0.09005 1.203,0.09001c0.71743,-0.00008 1.43027,-0.07269 2.14483,-0.13145c0.44035,0.02558 0.85755,0.02387 1.28451,-0.06742l0.00816,0.00035c0.04344,0.16356 0.22994,0.19465 0.22994,0.19465c1.13641,0.18839 2.30136,0.19393 3.44253,0.34779c-0.01432,0.02528 -0.02613,0.05538 -0.03439,0.09117c-0.06391,0.27697 0.21305,0.34088 0.21305,0.34088l0.3117,0.07139c0.65613,0.23992 1.2989,0.41549 2.00093,0.41595c0,0 0.08015,0 0.15534,-0.04256c0.03259,0.01952 0.05798,0.02798 0.05798,0.02798c0.71518,0.2377 1.50922,0.3977 2.16648,0.78224c1.20422,0.70455 2.18343,1.86269 2.76959,3.11081c0.25163,0.53879 0.32929,1.10591 0.48889,1.67341c0.25517,0.90727 0.63085,1.80063 0.9689,2.67965l0.11462,-0.02655c0.02963,1.10456 -0.07433,2.45435 0.45122,3.48242c-0.03395,0.07647 -0.02808,0.15279 -0.02808,0.15279c0.09371,1.21686 0.12549,2.42072 0.12549,3.64184c0,0.78871 -0.09071,1.63392 0.07601,2.40693c0.00119,0.02373 0.00897,0.1068 0.05997,0.17594c-0.00965,0.0403 -0.00965,0.0701 -0.00965,0.0701c0.00077,0.48266 0.05345,0.95453 0.10321,1.4269c-0.02545,0.03567 -0.04286,0.07748 -0.04958,0.12276l-0.04976,0.29859l0.01035,0.00172l-0.01325,0.02156c-0.00089,0.36951 -0.01142,0.64721 0.02554,0.90379l-0.00124,0.00398c0,0.87844 -0.14153,1.87825 0.08148,2.73406c-0.13201,0.07691 -0.13201,0.24738 -0.13201,0.24738v0.32846c0,0 0,0.13943 0.09766,0.22299l-0.03062,0.18374l0.0456,0.0076c-0.16454,0.3676 -0.23817,0.72907 -0.30151,1.20783l-0.00062,0.37256c0,0 0,0.19499 0.1615,0.26197c-0.08157,0.6255 -0.17898,1.24746 -0.23632,1.86207c0,0 -0.00131,0.01567 0.00038,0.03994c-0.5994,1.47122 -0.76889,3.08464 -1.46306,4.53282c-0.27514,0.57401 -0.79722,1.05019 -1.2012,1.53496c-0.4683,0.56206 -1.07054,1.28931 -1.72946,1.74847c-0.05134,-0.05075 -0.12192,-0.08209 -0.19982,-0.08209c-0.04171,0 -0.08131,0.00898 -0.117,0.02512c-0.14433,-0.03313 -0.26086,0.0834 -0.26086,0.0834l-0.09394,0.31615c0.00287,0.00189 0.00541,0.00379 0.00762,0.0057c-0.3064,0.10229 -0.62522,0.13492 -0.93896,0.2086c-0.18134,0.04259 -0.3611,0.09159 -0.53989,0.14475c-1.22457,0.13412 -2.32945,0.51115 -3.51282,0.8179c-0.81812,0.21207 -1.68569,0.20864 -2.50209,0.42972c0,0 -0.00481,0.00131 -0.01298,0.00423c-0.02802,-0.00924 -0.05797,-0.01424 -0.08909,-0.01424h-0.40426v0.03626c-0.0424,0.00553 -0.08485,0.01089 -0.12735,0.01609c-0.67164,-0.10458 -1.34074,-0.04141 -2.06885,-0.00282c-1.175,0.06229 -2.36229,0.02626 -3.53929,0.02626h-0.1516c0,0 -0.16503,0 -0.2436,0.12575c-2.14519,-0.00828 -4.33761,-0.09957 -6.47226,0.05184c0,0 -0.01517,0.00108 -0.03824,0.00626l-0.01209,-0.00146c-1.42351,-0.28414 -2.76955,-0.84882 -4.17502,-1.1634c-0.53924,-0.12069 -1.22296,0.00677 -1.77528,0.02099c-0.77959,0.02006 -1.56234,-0.0001 -2.34231,-0.0001c-0.78403,0 -1.56604,0.02503 -2.34978,0.02527c-0.39856,0.00012 -1.03149,-0.05009 -1.38531,0.16745c-0.34648,0.21303 -0.42037,0.6403 -0.58589,0.97279c-0.22837,0.45874 -0.56948,0.81218 -1.04377,1.00401c0,0 -0.02724,0.01135 -0.06051,0.03551c-0.74228,0.209 -2.08678,0.64139 -2.19275,0.72459c-0.00198,0.00155 -0.00396,0.00309 -0.00596,0.00462c-0.00177,-0.02097 -0.00418,-0.04187 -0.00722,-0.06268c0.28597,-0.17516 0.48851,-0.47321 0.53418,-0.82066l0.0698,-0.13982c0.30065,-0.55849 0.62966,-1.28497 0.7383,-1.90857c0,0 0.04673,-0.28038 -0.23365,-0.32711c-0.16371,-0.02728 -0.24776,0.05695 -0.28936,0.13177c-0.33347,-0.18739 -0.86099,-0.18147 -1.30654,-0.00327c-0.03819,-0.00809 -0.07781,-0.01235 -0.11841,-0.01235c-0.04664,0 -0.09197,0.00562 -0.13535,0.01621c-0.04492,-0.00548 -0.09042,-0.00879 -0.13627,-0.00989c-1.77201,-0.04278 -3.54507,0.0075 -5.31758,0c-0.73417,-0.00311 -1.55133,-0.32596 -2.29306,-0.11602c-0.73935,-0.16854 -1.62347,-0.16568 -2.16747,-0.16822c-1.66411,-0.00777 -3.38553,0.13976 -5.02793,0.17055c-2.59416,0.04863 -4.01659,-0.11374 -5.3413,1.49697c-0.11409,-0.0338 -0.23006,-0.05978 -0.34047,-0.08186c-0.45775,-0.09155 -0.72692,0.37917 -1.08445,0.47515c-0.60028,0.16114 -1.34857,0.36549 -1.95976,0.38373c-1.22178,0.03647 -2.52443,-0.0391 -3.7457,0.0117c-2.11109,0.08781 -3.40817,-0.57056 -4.48616,0.11255c-0.09152,0.01252 -0.17958,0.03593 -0.26281,0.06889c-0.94011,-0.22071 -2.28152,-0.03118 -3.0011,-0.10234c-0.8472,-0.08378 -1.70387,-0.13918 -2.56227,-0.19396c-0.57691,-0.57303 -2.00142,-0.71158 -2.52507,-0.82933c-1.02323,-0.23009 -2.07119,-0.38197 -3.06823,-0.71404c-0.78662,-0.26198 -1.29745,-0.61765 -2.14534,-0.73113c-0.44993,-0.06022 -1.02823,-0.24627 -1.52914,-0.16749c-0.33016,-0.30043 -0.69,-0.54507 -1.06631,-0.66684c-1.09111,-0.35308 -3.31653,-1.08041 -4.11987,-1.94204c-0.663,-0.71109 -1.61067,-2.98362 -1.72348,-3.89673c-0.08218,-0.66515 -0.14115,-1.59594 -0.6061,-2.08866c-0.00678,-0.00718 -0.01359,-0.01424 -0.02042,-0.02118c0.03599,-0.70792 -0.0068,-3.53285 -0.01096,-3.79082z" fill="#08ffde" stroke="#000000" stroke-width="0" stroke-linecap="butt"/><path d="M244.0227,166.49872l4.43426,-1.76234l2.21713,-0.51165h0.51165l0.79589,0.5685l1.30754,1.47809l1.30754,4.26371l0.51165,2.89933l0.17055,4.49111l-0.2274,8.24318l-0.51165,3.01302l-1.25069,3.69522l-0.85274,1.64864l-0.73904,0.62534l-1.02329,0.1137l-1.59179,-0.17055l-4.71851,-1.87603l-1.08014,-0.73904l0.73904,-11.25621l-0.2274,-5.91235l-0.3411,-8.52743z" fill="url(#color-1)" stroke="#000000" stroke-width="1" stroke-linecap="round"/><path d="M244.0227,166.49872l-0.5685,0.2274z" fill="none" stroke="#000000" stroke-width="2" stroke-linecap="round"/><path d="M247.31998,158.88088l0.79589,1.81918l0.4548,1.93288v-0.3411" fill="none" stroke="#000000" stroke-width="1" stroke-linecap="round"/><path d="M247.54738,158.76718l0.68219,-0.1137l0.90959,0.5685l1.25069,1.13699l0.4548,1.13699v1.25069l-2.16028,0.2274" fill="none" stroke="#000000" stroke-width="1" stroke-linecap="round"/><path d="M250.73095,161.15486l7.84523,0.2274l1.36439,-0.68219l1.13699,-0.2274l4.43426,-0.3411l6.48085,0.1137l3.97947,-0.1137l2.38768,0.4548l3.86577,1.13699l2.04658,1.02329l1.36439,1.13699l1.02329,2.27398l1.25069,3.86577l0.3411,3.18357l0.2274,4.66166l0.1137,7.04934l-0.4548,4.88906l-1.25069,4.32056l-1.13699,1.47809l-2.27398,2.04658l-2.72878,0.79589l-4.77536,0.90959l-14.09868,0.2274l-2.04658,-0.5685l-1.70549,-0.5685l-7.61784,0.2274" fill="none" stroke="#000000" stroke-width="1" stroke-linecap="round"/><path d="M247.43368,200.49473l1.70549,-4.32056l0.90959,0.2274l0.79589,0.5685v1.13699l-1.13699,2.04658l-1.47809,1.02329l-1.13699,0.1137z" fill="none" stroke="#000000" stroke-width="1" stroke-linecap="round"/><path d="M208.5486,200.49473l13.07539,0.1137l2.04658,-0.3411l2.27398,-0.90959l1.93288,-1.25069l20.46583,0.2274" fill="none" stroke="#000000" stroke-width="1" stroke-linecap="round"/><path d="M208.3212,200.26734l-4.77536,-1.13699l-6.13975,-1.81918l-3.29727,-1.93288l-0.90959,-1.02329l-0.79589,-2.16028l-0.90959,-2.95618v-10.34661l0.1137,-7.84523l0.4548,-3.63837l0.68219,-1.81918l2.27398,-2.04658l2.50138,-1.13699l10.34661,-2.84248l2.38768,-0.3411l12.1658,-0.1137h1.25069l2.27398,1.13699l1.70549,0.79589l18.07815,0.2274h2.50138" fill="none" stroke="#000000" stroke-width="1" stroke-linecap="round"/><path d="M255.84741,165.58912l1.25069,3.06987l0.4548,3.29727l0.2274,8.64113l-0.1137,6.13975l-0.3411,2.38768l-1.47809,5.11646" fill="none" stroke="#000000" stroke-width="1" stroke-linecap="round"/><path d="M284.89751,179.97205l-0.4548,0.39795h-1.19384v-1.08014h1.25069z" fill="#ffcb30" stroke="#000000" stroke-width="2" stroke-linecap="round"/><path d="M284.49957,179.28986l0.3411,0.51165z" fill="none" stroke="#000000" stroke-width="1" stroke-linecap="round"/><path d="M257.49604,173.7186l19.10144,0.39795" fill="none" stroke="#000000" stroke-width="1" stroke-linecap="round"/><path d="M276.65433,185.71386l-18.93089,0.05685" fill="none" stroke="#000000" stroke-width="1" stroke-linecap="round"/><path d="M222.13563,191.56936l-0.39795,0.39795l-1.13699,0.17055l-11.31306,-0.1137l-8.92538,-0.90959l-5.11646,-0.5685l-0.5685,-3.58152l-0.05685,-3.01302l0.17055,-9.20962l0.39795,-5.9692l2.50138,-0.17055l2.33083,-0.3411l3.97947,-0.5685l5.91235,-0.3411l10.80141,-0.3411l1.02329,0.4548l0.51165,0.68219l-0.3411,3.80892l-0.05685,5.05961l0.1137,9.03907l0.3411,4.77536z" fill="none" stroke="#000000" stroke-width="1" stroke-linecap="round"/><path d="M259.94057,195.49197c0.59601,0 1.13608,0.10187 1.52721,0.26651c0.3909,0.16464 0.63308,0.39203 0.63308,0.64308c0,0.25105 -0.24218,0.47845 -0.63308,0.64308c-0.39112,0.16464 -0.9312,0.26651 -1.52721,0.26651c-0.59601,0 -1.13608,-0.10187 -1.52721,-0.26651c-0.3909,-0.16464 -0.63308,-0.39203 -0.63308,-0.64308c0,-0.25105 0.24218,-0.47845 0.63308,-0.64308c0.39112,-0.16464 0.9312,-0.26651 1.52721,-0.26651z" fill="none" stroke="#000000" stroke-width="1" stroke-linecap="butt"/><path d="M217.07603,166.32817l-2.21713,-0.17055l-0.28425,-0.4548l1.08014,-0.5685l2.16028,-0.62534l4.37741,-0.3411l4.37741,-0.3411l21.31857,-0.39795l3.06987,-0.39795l-7.16304,2.84248l-1.25069,0.3411h-5.91235l-11.36991,0.5685z" fill="url(#color-2)" stroke="#000000" stroke-width="1" stroke-linecap="round"/><path d="M221.28289,195.37828l-5.68495,-0.85274l-1.02329,-0.2274v-0.39795l0.68219,-0.39795l1.42124,-0.39795h5.28701l20.80693,0.4548l1.42124,0.28425l5.05961,2.38768l-24.78639,-0.68219z" fill="url(#color-3)" stroke="#000000" stroke-width="1" stroke-linecap="round"/><path d="M204.56913,191.05771l-5.57125,-0.3411l-0.4548,-0.3411l-0.1137,-1.02329l0.2274,-19.21514l0.4548,-0.79589l5.23016,-0.5685l0.90959,0.5685v12.0521l-0.1137,9.20962z" fill="none" stroke="#000000" stroke-width="1" stroke-linecap="round"/><path d="M199.05473,189.75017v-7.27674" fill="none" stroke="#000000" stroke-width="0.5" stroke-linecap="round"/><path d="M199.79377,182.47343l0.17055,7.10619" fill="none" stroke="#000000" stroke-width="0.5" stroke-linecap="round"/><path d="M200.76022,189.63647l-0.2274,-7.27674" fill="none" stroke="#000000" stroke-width="0.5" stroke-linecap="round"/><path d="M201.44241,189.57963l0.05685,-7.56099" fill="none" stroke="#000000" stroke-width="0.5" stroke-linecap="round"/><path d="M202.2383,181.96179l-0.05685,7.39044" fill="none" stroke="#000000" stroke-width="0.5" stroke-linecap="round"/><path d="M203.0342,189.57962l0.05685,-7.56099" fill="none" stroke="#000000" stroke-width="0.5" stroke-linecap="round"/><path d="M204.00064,189.63648l-0.1137,-7.67469" fill="none" stroke="#000000" stroke-width="0.5" stroke-linecap="round"/><path d="M199.45268,170.42133l-0.05685,6.87879l-0.17055,2.55823" fill="none" stroke="#000000" stroke-width="0.5" stroke-linecap="round"/><path d="M200.24857,179.74466v-2.44453l0.05685,-7.04934" fill="none" stroke="#000000" stroke-width="0.5" stroke-linecap="round"/><path d="M201.04446,170.08023v7.21989l-0.05685,2.16028" fill="none" stroke="#000000" stroke-width="0.5" stroke-linecap="round"/><path d="M201.72666,179.85835v-2.44453l0.05685,-7.33359" fill="none" stroke="#000000" stroke-width="0.5" stroke-linecap="round"/><path d="M202.5794,169.90969l0.05685,7.33359l-0.05685,2.27398" fill="none" stroke="#000000" stroke-width="0.5" stroke-linecap="round"/><path d="M203.31844,169.90969l0.05685,7.33359v2.27398" fill="none" stroke="#000000" stroke-width="0.5" stroke-linecap="round"/><path d="M204.00064,169.68229l0.2274,7.39044l0.05685,2.10343" fill="none" stroke="#000000" stroke-width="0.5" stroke-linecap="round"/><path d="M281.71394,191.17141c0.58032,0 1.10629,0.31858 1.48696,0.83319c0.38089,0.51437 0.61648,1.22499 0.61648,2.00929c0,0.7843 -0.23558,1.49492 -0.61648,2.00929c-0.38066,0.5146 -0.90664,0.83319 -1.48696,0.83319c-0.58032,0 -1.10629,-0.31858 -1.48696,-0.83319c-0.38089,-0.51437 -0.61648,-1.22499 -0.61648,-2.00929c0,-0.7843 0.23558,-1.49492 0.61648,-2.00929c0.38066,-0.5146 0.90664,-0.83319 1.48696,-0.83319z" fill="#f0f0f0" stroke="#000000" stroke-width="1" stroke-linecap="butt"/><path d="M281.54339,163.20144c0.58032,0 1.10629,0.31858 1.48696,0.83319c0.38089,0.51437 0.61648,1.22499 0.61648,2.00929c0,0.7843 -0.23558,1.49492 -0.61648,2.00929c-0.38066,0.5146 -0.90664,0.83319 -1.48696,0.83319c-0.58032,0 -1.10629,-0.31858 -1.48696,-0.83319c-0.38089,-0.51437 -0.61648,-1.22499 -0.61648,-2.00929c0,-0.7843 0.23558,-1.49492 0.61648,-2.00929c0.38066,-0.5146 0.90664,-0.83319 1.48696,-0.83319z" fill="#f0f0f0" stroke="#000000" stroke-width="1" stroke-linecap="butt"/><path d="M208.0938,168.4316l2.50138,-0.2274l9.43702,-0.3411v0.68219l-0.2274,3.41097l-0.3411,11.14251l-0.1137,5.57125l0.1137,2.27398h-11.36991l-0.4548,-0.4548l-0.1137,-1.59179v-17.50965l0.2274,-2.38768z" fill="url(#color-4)" stroke="#000000" stroke-width="1" stroke-linecap="round"/><path d="M226.05825,166.61242h-1.36439l1.81918,-2.95618h1.13699z" fill="#2c2d2e" stroke="#000000" stroke-width="1" stroke-linecap="round"/><path d="M241.86242,166.21447h-1.08014l1.25069,-2.72878h0.68219z" fill="#2c2d2e" stroke="#000000" stroke-width="1" stroke-linecap="round"/><path d="M243.45421,195.88992l-0.68219,-0.05685l-0.90959,-2.27398h1.02329z" fill="#2c2d2e" stroke="#000000" stroke-width="1" stroke-linecap="round"/><path d="M228.44593,195.54882l-2.04658,-2.38768h1.36439l1.93288,2.50138h-1.36439z" fill="#2c2d2e" stroke="#000000" stroke-width="1" stroke-linecap="round"/><path d="M194.84786,175.42409l-0.17055,5.5144l-0.05685,5.8555l0.68219,3.75207h-2.33083l-0.3411,-3.69522l0.17055,-8.35688l0.17055,-4.94591l0.3411,-4.71851l1.98973,-0.17055l-0.28425,2.04658z" fill="#f00000" stroke="#000000" stroke-width="1" stroke-linecap="round"/><path d="M195.30266,168.82954l-1.81918,0.1137l0.17055,-1.42124l0.4548,-1.19384l0.96644,-1.25069l1.47809,-0.96644l0.39795,-0.28425l2.04658,-0.90959l0.68219,-0.28425l0.17055,0.51165l-0.68219,0.68219l-2.33083,1.81918l-0.62534,1.19384z" fill="url(#color-5)" stroke="#000000" stroke-width="1" stroke-linecap="round"/><path d="M197.34924,193.90019l2.38768,1.76234l0.73904,0.85274l-0.05685,0.28425l-0.51165,0.2274l-0.73904,-0.28425l-1.81918,-0.96644l-2.04658,-1.30754l-1.42124,-1.59179l-0.68219,-1.30754l-0.3411,-1.13699l2.44453,-0.05685l0.79589,2.21713z" fill="url(#color-6)" stroke="#000000" stroke-width="1" stroke-linecap="round"/><path d="M195.30266,190.37552l-2.21713,0.1137" fill="none" stroke="#000000" stroke-width="2" stroke-linecap="round"/><path d="M198.31568,196.28787l-2.44453,-1.47809l1.42124,-1.02329l1.13699,0.85274l0.85274,0.68219l0.68219,0.51165l0.4548,0.5685l-0.17055,0.4548l-0.39795,0.17055z" fill="#cc7700" stroke="#000000" stroke-width="1" stroke-linecap="round"/><path d="M198.59993,163.08774l1.08014,-0.4548l0.17055,0.51165l-0.51165,0.51165l-1.76234,1.36439l-1.30754,-0.73904l0.90959,-0.62534z" fill="#cc7700" stroke="#000000" stroke-width="1" stroke-linecap="round"/><path d="M193.9827,170.11159l0.39692,0.02833l-0.09719,1.36093l-0.39695,-0.02836z" fill="none" stroke="#e5e5e5" stroke-width="2" stroke-linecap="butt"/><path d="M193.50455,186.91418l0.39688,-0.02918l0.09171,1.24732l-0.39688,0.02918z" fill="none" stroke="#e5e5e5" stroke-width="2" stroke-linecap="butt"/><path d="M228.44593,195.60567l1.13699,2.27398" fill="none" stroke="#000000" stroke-width="1" stroke-linecap="round"/><path d="M227.65004,161.04116l-2.16028,2.50138" fill="none" stroke="#000000" stroke-width="1" stroke-linecap="round"/><path d="M251.29944,162.74665l1.13699,-1.36439" fill="none" stroke="#000000" stroke-width="1" stroke-linecap="round"/><path d="M251.18574,197.08376l0.5685,1.36439" fill="none" stroke="#000000" stroke-width="1" stroke-linecap="round"/><path d="M222.53358,166.55557l-5.17331,-0.28425" fill="none" stroke="#000000" stroke-width="2" stroke-linecap="round"/><path d="M222.13563,167.80626l0.05685,0.51165z" fill="none" stroke="#000000" stroke-width="2" stroke-linecap="round"/><path d="M222.30618,190.26182l-0.3411,-4.88906" fill="none" stroke="#000000" stroke-width="2" stroke-linecap="round"/><path d="M255.62001,165.30488l-4.20687,-0.85274l17.39596,3.29727l16.37266,3.06987l0.2274,1.81918l0.2274,12.5069l-0.3411,3.63837l-4.32056,1.02329l-24.2179,4.32056l-5.34386,0.79589" fill="none" stroke="#000000" stroke-width="1" stroke-linecap="round"/></g></g></svg>