<svg version="1.1" xmlns="http://www.w3.org/2000/svg" xmlns:xlink="http://www.w3.org/1999/xlink" width="28.82834" height="28.82834" viewBox="0,0,28.82834,28.82834"><defs><radialGradient cx="240" cy="180" r="14.41417" gradientUnits="userSpaceOnUse" id="color-1"><stop offset="0" stop-color="#000000"/><stop offset="1" stop-color="#000000" stop-opacity="0"/></radialGradient><radialGradient cx="240" cy="180" r="14.41417" gradientUnits="userSpaceOnUse" id="color-2"><stop offset="0" stop-color="#000000"/><stop offset="1" stop-color="#000000" stop-opacity="0"/></radialGradient></defs><g transform="translate(-225.58583,-165.58583)"><g data-paper-data="{&quot;isPaintingLayer&quot;:true}" fill-rule="nonzero" stroke="none" stroke-width="0" stroke-linecap="butt" stroke-linejoin="miter" stroke-miterlimit="10" stroke-dasharray="" stroke-dashoffset="0" style="mix-blend-mode: normal"><path d="M225.58583,180c0,-7.96072 6.45343,-14.41417 14.41417,-14.41417c7.96072,0 14.41417,6.45343 14.41417,14.41417c0,7.96072 -6.45343,14.41417 -14.41417,14.41417c-7.96072,0 -14.41417,-6.45343 -14.41417,-14.41417z" fill="url(#color-1)"/><path d="M225.58583,180c0,-7.96072 6.45343,-14.41417 14.41417,-14.41417c7.96072,0 14.41417,6.45343 14.41417,14.41417c0,7.96072 -6.45343,14.41417 -14.41417,14.41417c-7.96072,0 -14.41417,-6.45343 -14.41417,-14.41417z" fill="url(#color-2)"/></g></g></svg>