<svg version="1.1" xmlns="http://www.w3.org/2000/svg" xmlns:xlink="http://www.w3.org/1999/xlink" width="431" height="181.40871" viewBox="0,0,431,181.40871"><defs><radialGradient cx="238.5" cy="181.00001" r="215.5" gradientUnits="userSpaceOnUse" id="color-1"><stop offset="0" stop-color="#9c9c9c"/><stop offset="1" stop-color="#9c9c9c" stop-opacity="0"/></radialGradient></defs><g transform="translate(-23,-117.74685)"><g data-paper-data="{&quot;isPaintingLayer&quot;:true}" fill-rule="nonzero" stroke-linejoin="miter" stroke-miterlimit="10" stroke-dasharray="" stroke-dashoffset="0" style="mix-blend-mode: normal"><g fill="#401818" stroke="none" stroke-width="0"><text transform="translate(308.85751,189.87919) rotate(-180) scale(0.29343,0.29343)" font-size="40" xml:space="preserve" fill="#401818" fill-rule="nonzero" stroke="none" stroke-width="0" stroke-linecap="butt" stroke-linejoin="miter" stroke-miterlimit="10" stroke-dasharray="" stroke-dashoffset="0" font-family="Pixel" font-weight="normal" text-anchor="start" style="mix-blend-mode: normal"><tspan x="0" dy="0">made by @itsadiesel</tspan></text><path d="M366.65692,191.35486v13.28637l0.84773,0.71732l0.13041,0.84773v5.21683l-0.0652,0.39126l-0.19561,0.39126l-0.52167,0.32605l-0.91293,5.08638l-1.3694,4.36906l-3.45612,5.08638l-0.84773,2.15193l-0.78253,1.10858l-1.239,1.3042l-1.63026,1.49985l-2.47798,1.63026l-3.66468,1.89111l-4.69512,1.04338l-1.56505,0.39126l-3.06486,2.34758l-1.3694,0.97814l-2.99966,1.3042l-2.60839,0.65212l-6.06456,0.52167l-9.78153,0.32605h-20.93244l-1.63026,-0.19561l-1.17378,-0.45647l-1.239,-1.17378h-61.36274l-34.10489,-0.32605l-2.60839,2.08673l-1.3694,0.45647l-2.67363,0.32605l-3.65178,0.26085l-31.62691,-0.32605l-2.34758,-0.32605l-2.54319,-0.71732l-4.69512,-2.28237l-17.86758,-0.71732l-1.95631,-0.26085l-2.21713,-0.84773l-1.43461,-1.3694l-0.58688,-1.63026l-0.45647,-1.76066l-0.39126,-4.10824l0.39126,-1.17378l1.76066,-0.58688l-0.58688,-2.99966l-0.39126,-5.21683l-0.13041,-7.95563v-22.75392l0.00968,-2.85645v-22.90209l0.13041,-7.95563l0.39126,-5.21683l0.58688,-2.99966l-1.76066,-0.58688l-0.39126,-1.17378l0.39126,-4.10824l0.45647,-1.76066l0.58688,-1.63026l1.43461,-1.3694l2.21713,-0.84773l1.95631,-0.26085l17.86758,-0.71732l4.69512,-2.28237l2.54319,-0.71732l2.34758,-0.32605l31.62691,-0.32605l3.65178,0.26085l2.67363,0.32605l1.3694,0.45647l2.60839,2.08673l34.10489,-0.32605h61.36274l1.239,-1.17378l1.17378,-0.45647l1.63026,-0.19561h20.93244l9.78153,0.32605l6.06456,0.52167l2.60839,0.65212l2.99966,1.3042l1.3694,0.97814l3.06486,2.34758l1.56505,0.39126l4.69512,1.04338l3.66468,1.89111l2.47798,1.63026l1.63026,1.49985l1.239,1.3042l0.78253,1.10858l0.84773,2.15193l3.45612,5.08638l1.3694,4.36906l0.91293,5.08638l0.52167,0.32605l0.19561,0.39126l0.0652,0.39126v5.21683l-0.13041,0.84773l-0.84773,0.71732v13.9058z" stroke-linecap="round"/><path d="M121.67901,229.54647l-0.24977,-4.74507l-0.24973,-10.48911v-24.011l0.00968,-3.16566v-24.11455l0.24973,-10.48911l0.24977,-4.74507l0.31769,-0.5075l0.16303,0.44832l1.54874,0.69286l-0.65212,3.7496l-0.28528,5.09453l0.08151,66.43286l0.32605,2.73068l0.44832,2.73068z" stroke-linecap="round"/><path d="M131.13185,142.34583l-0.46463,0.83142l-1.34498,1.56505l-0.83142,1.29605l-0.63581,1.22269l-0.53798,0.95371l-3.52136,-0.02447l1.54059,-3.81481l1.34498,-2.68991l1.17378,-0.92924l1.76066,-0.02447l1.0515,0.61134z" data-paper-data="{&quot;index&quot;:null}" stroke-linecap="round"/><path d="M366.78367,170.60321v35.99024l-8.32627,-1.7258l0.27509,-10.68327v-2.67273l0.00968,-5.08522v-3.27758l-0.27509,-10.68327z" stroke-linecap="round"/><path d="M363.36788,207.00744v-37.06109l3.42354,2.49973v35.15915z" stroke-linecap="round"/><path d="M129.13389,226.78392l-0.11287,-0.98756l-0.02823,-8.493l-0.14107,-62.69579l0.1975,-4.06308l0.62077,0.39503l5.72784,4.93778l5.10708,4.57098l0.42323,0.9029l0.25393,2.45479v50.05505l-0.28217,2.45479l-0.84646,1.15686l-10.35526,8.97266l-0.1693,0.22573z" stroke-linecap="round"/><path d="M136.58289,161.83084l0.08464,1.80583l-0.79003,0.81826l-0.1693,1.80583l0.05643,45.8791l1.04399,2.28549l-0.1975,1.55185l-7.87223,7.0822l-0.42323,-29.20351l0.08464,-21.89557l0.25393,-9.02909l0.11287,-7.33613l0.11287,-1.66472l0.36679,1.10043l4.90958,4.26061l2.14443,1.91869z" stroke-linecap="round"/><path d="M140.6443,162.28994l0.52512,0.40155v0.80312h-4.54068l0.15444,-1.29735z" data-paper-data="{&quot;index&quot;:null}" stroke-linecap="round"/><path d="M121.10319,199.07841l2.93446,2.12892l0.63291,0.63291l0.28768,1.2083v2.07139l-0.34523,0.74799l-0.97814,0.86307l-2.87693,1.89876z" data-paper-data="{&quot;index&quot;:null}" stroke-linecap="round"/><path d="M136.7735,215.13603l-0.15444,-1.29735h4.54068v0.80312l-0.52512,0.40155z" stroke-linecap="round"/><path d="M130.65754,235.99007l-1.0515,0.61134l-1.76066,-0.02447l-1.17378,-0.92924l-1.34498,-2.68991l-1.54059,-3.81481l3.52136,-0.02447l0.53798,0.95371l0.63581,1.22269l0.83142,1.29605l1.34498,1.56505l0.46463,0.83142z" stroke-linecap="round"/><path d="M361.13205,227.33462h-3.5305l-1.33077,-1.57498l3.28483,-15.54823l7.18286,0.48176l0.1752,2.3213l-1.09495,4.46739l-0.1752,1.88332l-1.13874,2.89067z" stroke-linecap="round"/><path d="M361.31541,212.02039v0.36679l-0.13755,1.05458l-0.09257,0.79764c0.74635,0.84233 1.12348,2.37121 0.89256,4.04039c-0.25528,1.84523 -1.17912,3.32368 -2.26077,3.81281l-0.69431,0.55027l-0.64182,2.35334l-0.91703,2.3384l-2.29256,3.80563l-1.92572,1.97157l-2.29256,1.69648l-1.87987,1.32968l-4.08074,1.78818l-2.7969,-3.072l-0.36679,-1.10043v-0.50435l0.50435,-0.50435l0.87118,-0.22925l2.47596,-0.77945l3.39295,-1.83402l2.43011,-2.20086l1.46723,-2.29256l1.28383,-2.84276l0.87118,-3.02615l0.96288,-4.90607l0.77948,-1.46723l0.91703,-1.14628z" stroke-linecap="butt"/><path d="M367.40976,205.39607l0.27169,1.14116v5.21683l-0.97089,0.35806h-8.94091l-0.4585,-0.41265l0.04585,-1.10043v-4.86018l0.36679,-0.59608l0.59604,-0.1834h8.39071z" stroke-linecap="round"/><path d="M293.33893,242.17841l0.75907,-0.63l1.78818,-0.50435l5.08946,-0.96288l9.90379,-0.73363l21.09141,-1.00873l12.33389,-0.5502l-2.98313,2.82094l-3.20618,1.68459l-4.45605,1.24987l-10.05323,0.54342l-19.67173,0.21736l-7.60786,-0.38038l-1.63026,-0.27169z" stroke-linecap="round"/><path d="M146.54985,241.64006l3.2554,-0.36679l5.45626,-0.22925h36.4056l3.2554,0.32095l2.93446,0.59608l-1.73667,1.52863l-1.63026,1.08683l-7.22747,0.81511l-31.46392,-0.65212l-2.93446,-0.27169l-3.47787,-1.4129l-2.11935,-1.08683z" stroke-linecap="round"/><path d="M173.28958,216.75752l-18.06323,-0.48909l-5.56213,-0.75835l-5.94745,-1.29579l-0.35867,-0.45647v-0.81511l0.91293,0.16303l7.33613,1.63026l6.68405,0.52167l15.22656,0.22823z" stroke-linecap="round"/><path d="M143.74229,212.9596l5.11969,1.18626l2.80959,0.56191l5.307,0.49949l15.0469,0.37463l0.56191,0.31218l-0.56191,0.68681l-15.98342,-0.31218l-4.86997,-0.49949l-7.74196,-1.68574" stroke-linecap="round"/><path d="M246.78466,217.70604l0.71572,-0.64415l7.22877,0.35785l5.29635,0.57256l0.07159,1.28829l-2.43344,-0.2863l-6.36992,-0.42943l-4.29433,-0.21471z" stroke-linecap="round"/><path d="M243.19149,217.72051l-2.08629,0.68865l-61.87861,-1.07771l-1.93815,-1.94703l2.22837,-0.52609l61.64694,1.16335z" stroke-linecap="round"/><path d="M341.64542,233.89128l-10.04134,1.10043l-10.72912,0.77948l-33.37945,0.77948" stroke-linecap="round"/><path d="M297.28465,232.99719l3.09495,3.09495" stroke-linecap="round"/><path d="M172.90303,244.73421c0,0 -0.68984,-2.03953 -0.86009,-3.39614c-0.17025,-1.35657 0,-3.45779 0,-3.45779l0.41265,-1.74232l5.82306,-12.47145l0.6419,-0.59604l0.82533,-0.27509l0.6419,-0.22925h41.17408l21.59575,0.32095l7.42783,0.4585l4.40168,0.82533l4.17243,1.19213l13.38848,4.21828l12.83824,4.44753l1.00873,0.77948l0.82533,0.96288l1.87987,6.32744" stroke-linecap="round"/><path d="M160.12173,244.8038l-4.26413,-3.62223l-9.44529,-0.91703l-7.19859,-0.73363l-6.51084,-1.10043l-2.15501,-1.32968l-0.73363,-0.59608l-1.69648,0.0917l-0.82533,-0.32095l-0.91703,-1.19213l-1.74232,-3.62223l-0.73363,-2.2467h5.08946l1.00873,-0.13755l0.6419,-0.32095l6.87764,-5.7772l4.72263,-3.71393l0.59604,-0.6419l0.36679,-1.14628l0.22925,-3.072v-25.31397l0.00968,-0.84799v-25.31397l-0.22925,-3.072l-0.36679,-1.14628l-0.59604,-0.6419l-4.72263,-3.71393l-6.87764,-5.7772l-0.6419,-0.32095l-1.00873,-0.13755h-5.08946l0.73363,-2.2467l1.74232,-3.62223l0.91703,-1.19213l0.82533,-0.32095l1.69648,0.0917l0.73363,-0.59608l2.15501,-1.32968l6.51084,-1.10043l7.19859,-0.73363l9.44529,-0.91703l4.26413,-3.62223" stroke-linecap="round"/><path d="M127.52175,229.26035l0.0917,0.27509l0.87118,1.74232l1.00873,1.55893l1.46723,1.78818l0.0917,0.82533l-0.32095,0.41265l-0.82533,0.5502" stroke-linecap="round"/><path d="M129.19111,150.37722l11.28134,10.04236l0.39126,0.71732l0.26085,1.49985l0.0652,10.95533v14.35777l-0.00968,1.71391v14.07756l-0.0652,10.95533l-0.26085,1.49985l-0.39126,0.71732l-11.28134,10.04236" stroke-linecap="round"/><path d="M129.0162,154.73979l6.66923,5.73553l0.86702,0.86702l0.26677,1.0004v1.0004l-0.56687,0.56687l-0.36679,0.70025l-0.13338,0.93371v22.74203l-0.00968,0.76139v22.74203l0.13338,0.93371l0.36679,0.70025l0.56687,0.56687v1.0004l-0.26677,1.0004l-0.86702,0.86702l-6.66923,5.73553" stroke-linecap="round"/><path d="M136.9429,213.92354h3.86815" stroke-linecap="round"/><path d="M140.94445,214.99062h-3.80146" stroke-linecap="round"/><path d="M179.30202,214.44952l-0.09369,3.33329l-7.86658,-0.2211l0.09369,-3.33329z" stroke-linecap="butt"/><path d="M247.83511,215.88413l-0.09369,3.33329l-7.86658,-0.2211l0.09369,-3.33329z" stroke-linecap="butt"/><path d="M219.27502,186.85093v-20.1057l0.23258,-1.04261l0.70833,-0.96128l0.55654,-0.25295l0.96128,-0.10119h18.7704l1.31543,0.30355l0.86009,0.80949l0.35415,0.65774c0,0 1.11928,5.96539 1.39032,9.34986c0.22432,2.80107 0.36303,8.06096 0.43099,11.28255l-0.00039,3.30419c-0.06412,3.16044 -0.20518,8.79568 -0.44026,11.73096c-0.27104,3.38447 -1.39032,9.34986 -1.39032,9.34986l-0.35415,0.65774l-0.86009,0.80949l-1.31543,0.30355h-18.7704l-0.96128,-0.10119l-0.55654,-0.25295l-0.70833,-0.96128l-0.23258,-1.04261v-21.38115z" stroke-linecap="round"/><path d="M219.49793,222.66021l6.32425,13.30624c0,0 -0.81131,2.39187 -0.64114,3.12115c0.26154,1.12091 2.0578,2.95011 2.0578,2.95011" stroke-linecap="round"/><path d="M165.93565,206.1608c-1.10659,0 -2.00365,-0.88746 -2.00365,-1.98223c0,-1.09474 0.89706,-1.96081 2.00365,-1.96081h46.18022c1.10659,0 2.00365,0.86607 2.00365,1.96081c0,1.09474 -0.89706,1.98223 -2.00365,1.98223z" stroke-linecap="butt"/><path d="M165.93565,197.05385c-1.10659,0 -2.00365,-0.88746 -2.00365,-1.98223c0,-1.09474 0.89706,-1.96081 2.00365,-1.96081h46.18022c1.10659,0 2.00365,0.86607 2.00365,1.96081c0,1.09474 -0.89706,1.98223 -2.00365,1.98223z" stroke-linecap="butt"/><path d="M259.10562,186.66935v-21.67122l0.09623,-4.90679l0.14433,-3.03068l0.24052,-1.58749l0.24052,-0.91403l0.48104,-0.62537l1.01022,-0.7216l3.19545,-1.30159l22.21804,-7.20276l3.16312,-0.3049h5.56405l2.01981,0.19054l1.06708,0.38111l2.78201,1.67683l3.20121,2.97259l2.05795,3.84909l1.63874,4.87805l0.99087,5.8689l0.76219,5.41157l0.4192,7.43142l0.4192,9.98477l-0.00968,3.23761l-0.4192,9.98477l-0.4192,7.43142l-0.76219,5.41157l-0.99087,5.8689l-1.63874,4.87805l-2.05795,3.84909l-3.20121,2.97259l-2.78201,1.67683l-1.06708,0.38111l-2.01981,0.19054h-5.56405l-3.16312,-0.3049l-22.21804,-7.20276l-3.19545,-1.30159l-1.01022,-0.7216l-0.48104,-0.62537l-0.24052,-0.91403l-0.24052,-1.58749l-0.14433,-3.03068l-0.09623,-4.90679v-21.87455z" stroke-linecap="round"/><path d="M319.73343,201.90287c0,0.66372 -0.53802,1.20173 -1.20173,1.20173c-0.66372,0 -1.20173,-0.53802 -1.20173,-1.20173c0,-0.66372 0.53802,-1.20173 1.20173,-1.20173c0.66368,0 1.20173,0.53802 1.20173,1.20173z" stroke-linecap="butt"/><path d="M283.59153,237.08858h-50.94218l-1.09554,-0.19561l-0.50862,-0.31301l-5.94716,-8.52949l-0.46951,-0.82163v-0.82163l0.15651,-0.82163l0.46951,-0.43037l0.74339,-0.35212h19.87605l4.81251,0.35212l2.62144,0.46951l2.11282,0.50862l6.45582,2.11282l21.69996,7.16009c0,0 0.81403,0.366 0.75933,0.9714c-0.0722,0.79898 -0.74432,0.71105 -0.74432,0.71105z" stroke-linecap="round"/><path d="M269.19437,236.00033h-36.8172l-0.40946,-0.10235l-0.4777,-0.40946l-5.59595,-8.25744l-0.10235,-0.68242l0.40946,-0.64831l0.58006,-0.23886h18.93749l3.37801,0.23886l3.20745,0.4777l3.44627,0.92127l13.54629,4.74289l0.1706,0.40946v3.30981z" stroke-linecap="round"/><path d="M221.62891,235.96618c0,0 0.32439,0.77687 0.16284,0.9436c-0.18724,0.1933 -1.22062,0.14828 -1.22062,0.14828h-42.68611c0,0 -1.12316,0.04679 -1.28234,-0.23621c-0.1469,-0.26118 0.36107,-1.40162 0.36107,-1.40162l3.85573,-9.82703l0.40946,-0.34121l0.68242,-0.27296h33.78036l1.26248,0.10235l0.81891,0.3071l0.51181,0.71656l3.34391,9.86113z" stroke-linecap="round"/><path d="M220.5711,235.35202v0.40946l-0.23886,0.10235h-41.9013l-0.3071,-0.1365l-0.10235,-0.37535l3.30981,-8.90576l0.51181,-0.51181l0.44357,-0.06825h33.71214l1.12602,0.23886l0.40946,0.54596l2.8321,8.25744z" stroke-linecap="round"/><path d="M164.28411,236.37565h-17.91383l-2.72974,-0.06825l-2.66149,-0.34121l-2.25204,-0.54596l-1.12602,-0.44357l-0.58006,-0.54596l-0.1365,-0.44357l0.1365,-1.09191l0.51181,-1.16013l7.16553,-7.95034l0.64831,-0.40946l0.95542,-0.1706l1.29662,0.06825l6.44897,0.95542l2.35439,0.1365h13.68275l0.54596,0.20475l0.1706,0.54596l-0.10235,1.19426l-5.5277,9.72467l-0.44357,0.3071z" stroke-linecap="round"/><path d="M168.74379,235.48667c0,-0.22957 0.36129,-0.41573 0.80699,-0.41573c0.44566,0 0.80699,0.18611 0.80699,0.41573c0,0.22957 -0.36129,0.41573 -0.80699,0.41573c-0.44566,0 -0.80699,-0.18611 -0.80699,-0.41573z" stroke-linecap="butt"/><path d="M356.54548,217.70115c0.28129,-1.93061 1.60057,-3.3367 2.94667,-3.14058c1.34613,0.19613 2.20934,1.92022 1.92804,3.85083c-0.28129,1.93061 -1.60057,3.33673 -2.94667,3.14058c-1.34613,-0.19613 -2.20934,-1.92022 -1.92808,-3.85083z" stroke-linecap="butt"/><path d="M364.51442,155.07753l1.13874,2.89067l0.1752,1.88332l1.09495,4.46739l-0.17517,2.3213l-7.18286,0.48176l-3.28483,-15.54823l1.33077,-1.57498h3.5305z" data-paper-data="{&quot;index&quot;:null}" stroke-linecap="round"/><path d="M357.79459,165.31291l-0.91703,-1.14628l-0.77948,-1.46723l-0.96288,-4.90607l-0.87118,-3.02615l-1.28383,-2.84276l-1.46723,-2.29256l-2.43011,-2.20086l-3.39295,-1.83402l-2.47596,-0.77945l-0.87118,-0.22925l-0.50435,-0.50435v-0.50435l0.36679,-1.10043l2.7969,-3.072l4.08074,1.78818l1.87987,1.32968l2.29256,1.69648l1.92572,1.97157l2.29256,3.80563l0.91703,2.3384l0.64182,2.35334l0.69431,0.55027c1.08165,0.48909 2.0055,1.96755 2.26077,3.81281c0.23091,1.66918 -0.14621,3.19806 -0.89256,4.04039l0.09257,0.79764l0.13755,1.05458v0.36679z" data-paper-data="{&quot;index&quot;:null}" stroke-linecap="butt"/><path d="M366.7202,172.37395h-8.39071l-0.59604,-0.1834l-0.36679,-0.59608v-4.86018l-0.04585,-1.10043l0.4585,-0.41265h8.94091l0.97089,0.35806v5.21683l-0.27172,1.14116z" data-paper-data="{&quot;index&quot;:null}" stroke-linecap="round"/><path d="M294.70601,133.68064l1.63026,-0.27172l7.60786,-0.38038l19.67173,0.21736l10.05323,0.54342l4.45605,1.24987l3.20618,1.68459l2.98313,2.82094l-12.33389,-0.5502l-21.09141,-1.00873l-9.90379,-0.73363l-5.08946,-0.96288l-1.78818,-0.50435l-0.75907,-0.63z" data-paper-data="{&quot;index&quot;:null}" stroke-linecap="round"/><path d="M147.27674,135.36523l2.11935,-1.08683l3.47787,-1.4129l2.93446,-0.27169l31.46392,-0.65212l7.22747,0.81511l1.63026,1.08683l1.73667,1.52863l-2.93446,0.59608l-3.2554,0.32095h-36.4056l-5.45626,-0.22925l-3.2554,-0.36679z" data-paper-data="{&quot;index&quot;:null}" stroke-linecap="round"/><path d="M173.52749,161.84737l-15.22656,0.22823l-6.68405,0.52167l-7.33613,1.63026l-0.91293,0.16303v-0.81511l0.35867,-0.45647l5.94745,-1.29579l5.56213,-0.75835l18.06323,-0.48909z" data-paper-data="{&quot;index&quot;:null}" stroke-linecap="round"/><path d="M143.43979,163.2499l7.74196,-1.68574l4.86997,-0.49949l15.98342,-0.31218l0.56191,0.68681l-0.56191,0.31218l-15.0469,0.37463l-5.307,0.49949l-2.80959,0.56191l-5.11969,1.18626" data-paper-data="{&quot;index&quot;:null}" stroke-linecap="round"/><path d="M247.00902,158.98308l4.29433,-0.21471l6.36992,-0.42943l2.43344,-0.2863l-0.07159,1.28829l-5.29635,0.57256l-7.22877,0.35785l-0.71572,-0.64415z" data-paper-data="{&quot;index&quot;:null}" stroke-linecap="round"/><path d="M241.17346,161.31163l-61.64694,1.16335l-2.22837,-0.52609l1.93815,-1.94703l61.87861,-1.07771l2.08629,0.68865z" data-paper-data="{&quot;index&quot;:null}" stroke-linecap="round"/><path d="M287.50518,140.78267l33.37945,0.77948l10.72912,0.77948l10.04134,1.10043" data-paper-data="{&quot;index&quot;:null}" stroke-linecap="round"/><path d="M297.29433,144.33614l3.09495,-3.09495" data-paper-data="{&quot;index&quot;:null}" stroke-linecap="round"/><path d="M289.10995,135.23471l-1.87987,6.32744l-0.82533,0.96288l-1.00873,0.77948l-12.83824,4.44753l-13.38848,4.21828l-4.17243,1.19213l-4.40168,0.82533l-7.42783,0.4585l-21.59575,0.32095h-41.17408l-0.6419,-0.22925l-0.82533,-0.27509l-0.6419,-0.59604l-5.82306,-12.47145l-0.41265,-1.74232c0,0 -0.17025,-2.10118 0,-3.45779c0.17025,-1.35657 0.86009,-3.39614 0.86009,-3.39614" data-paper-data="{&quot;index&quot;:null}" stroke-linecap="round"/><path d="M129.91565,140.92022l0.82533,0.5502l0.32095,0.41265l-0.0917,0.82533l-1.46723,1.78818l-1.00873,1.55893l-0.87118,1.74232l-0.0917,0.27509" data-paper-data="{&quot;index&quot;:null}" stroke-linecap="round"/><path d="M129.63789,228.97761l-0.58688,-2.41278l-0.32605,-5.67329l-0.13041,-7.0427l-0.32605,-21.84541v-2.93446l0.00968,-0.8047v-2.93446l0.32605,-21.84541l0.13041,-7.0427l0.32605,-5.67329l0.58688,-2.41278" data-paper-data="{&quot;index&quot;:null}" stroke-linecap="round"/><path d="M136.95259,163.40977h3.86815" data-paper-data="{&quot;index&quot;:null}" stroke-linecap="round"/><path d="M139.15344,163.40977v24.82618l-0.00968,1.4668v24.22079" data-paper-data="{&quot;index&quot;:null}" stroke-linecap="round"/><path d="M137.15266,162.34268h3.80146" data-paper-data="{&quot;index&quot;:null}" stroke-linecap="round"/><path d="M171.44511,163.10492l-0.09369,-3.33329l7.86658,-0.2211l0.09369,3.33329z" data-paper-data="{&quot;index&quot;:null}" stroke-linecap="butt"/><path d="M239.97818,161.67031l-0.09369,-3.33329l7.86658,-0.2211l0.09369,3.33329z" data-paper-data="{&quot;index&quot;:null}" stroke-linecap="butt"/><path d="M243.40136,189.47524c-0.05176,2.84805 -0.17847,8.61032 -0.39801,11.53195c-0.23947,3.18701 -1.22841,8.8043 -1.22841,8.8043l-0.3129,0.61935l-0.75994,0.76227l-1.16222,0.28587h-16.58432l-0.84933,-0.09529l-0.4917,-0.2382l-0.62584,-0.90522l-0.20551,-0.9818v-19.99678l0.00968,-2.27379v-18.91295l0.20551,-0.9818l0.62584,-0.90522l0.4917,-0.2382l0.84933,-0.09529h16.58432l1.16222,0.28587l0.75994,0.76227l0.3129,0.61935c0,0 0.9889,5.6173 1.22841,8.8043c0.2017,2.68447 0.32508,7.76719 0.38394,10.78392z" data-paper-data="{&quot;index&quot;:null}" stroke-linecap="round"/><path d="M227.24852,135.29557c0,0 -1.79622,1.8292 -2.0578,2.95011c-0.17017,0.72932 0.64114,3.12115 0.64114,3.12115l-6.32425,13.30624" data-paper-data="{&quot;index&quot;:null}" stroke-linecap="round"/><path d="M212.12551,171.17251c1.10659,0 2.00365,0.88746 2.00365,1.98223c0,1.09474 -0.89706,1.96081 -2.00365,1.96081h-46.18022c-1.10659,0 -2.00365,-0.86607 -2.00365,-1.96081c0,-1.09474 0.89706,-1.98223 2.00365,-1.98223z" data-paper-data="{&quot;index&quot;:null}" stroke-linecap="butt"/><path d="M212.12551,180.27945c1.10659,0 2.00365,0.88746 2.00365,1.98223c0,1.09474 -0.89706,1.96081 -2.00365,1.96081h-46.18022c-1.10659,0 -2.00365,-0.86607 -2.00365,-1.96081c0,-1.09474 0.89706,-1.98223 2.00365,-1.98223z" data-paper-data="{&quot;index&quot;:null}" stroke-linecap="butt"/><path d="M318.54137,176.63214c-0.66372,0 -1.20173,-0.53802 -1.20173,-1.20173c0,-0.66372 0.53802,-1.20173 1.20173,-1.20173c0.66372,0 1.20173,0.53802 1.20173,1.20173c0,0.66372 -0.53806,1.20173 -1.20173,1.20173z" data-paper-data="{&quot;index&quot;:null}" stroke-linecap="butt"/><path d="M283.60121,140.24472c0,0 0.67216,-0.08793 0.74432,0.71105c0.0547,0.6054 -0.75933,0.9714 -0.75933,0.9714l-21.69996,7.16009l-6.45582,2.11282l-2.11282,0.50862l-2.62144,0.46951l-4.81251,0.35212h-19.87605l-0.74339,-0.35212l-0.46951,-0.43037l-0.15651,-0.82163v-0.82163l0.46951,-0.82163l5.94716,-8.52949l0.50862,-0.31301l1.09554,-0.19561h50.94218z" data-paper-data="{&quot;index&quot;:null}" stroke-linecap="round"/><path d="M269.477,141.57182v3.30981l-0.1706,0.40946l-13.54629,4.74289l-3.44627,0.92127l-3.20745,0.4777l-3.37801,0.23886h-18.93749l-0.58006,-0.23886l-0.40946,-0.64831l0.10235,-0.68242l5.59595,-8.25744l0.4777,-0.40946l0.40946,-0.10235h36.8172z" data-paper-data="{&quot;index&quot;:null}" stroke-linecap="round"/><path d="M221.63854,141.36712l-3.34391,9.86113l-0.51181,0.71656l-0.81891,0.3071l-1.26248,0.10235h-33.78036l-0.68242,-0.27296l-0.40946,-0.34121l-3.85573,-9.82703c0,0 -0.50797,-1.14045 -0.36107,-1.40162c0.15919,-0.283 1.28234,-0.23621 1.28234,-0.23621h42.68611c0,0 1.03338,-0.04502 1.22062,0.14828c0.16154,0.16677 -0.16284,0.9436 -0.16284,0.9436z" data-paper-data="{&quot;index&quot;:null}" stroke-linecap="round"/><path d="M220.37603,142.42488l-2.8321,8.25744l-0.40946,0.54596l-1.12602,0.23886h-33.71214l-0.44357,-0.06825l-0.51181,-0.51181l-3.30981,-8.90576l0.10235,-0.37535l0.3071,-0.1365h41.9013l0.23886,0.10235v0.40946z" data-paper-data="{&quot;index&quot;:null}" stroke-linecap="round"/><path d="M164.73736,140.99176l0.44357,0.3071l5.5277,9.72467l0.10235,1.19426l-0.1706,0.54596l-0.54596,0.20475h-13.68275l-2.35439,0.1365l-6.44897,0.95542l-1.29662,0.06825l-0.95542,-0.1706l-0.64831,-0.40946l-7.16553,-7.95034l-0.51181,-1.16013l-0.1365,-1.09191l0.1365,-0.44357l0.58006,-0.54596l1.12602,-0.44357l2.25204,-0.54596l2.66149,-0.34121l2.72974,-0.06825h17.91383z" data-paper-data="{&quot;index&quot;:null}" stroke-linecap="round"/><path d="M169.56043,141.43094c0.44566,0 0.80699,0.18611 0.80699,0.41573c0,0.22957 -0.36129,0.41573 -0.80699,0.41573c-0.44566,0 -0.80699,-0.18611 -0.80699,-0.41573c0,-0.22957 0.36129,-0.41573 0.80699,-0.41573z" data-paper-data="{&quot;index&quot;:null}" stroke-linecap="butt"/><path d="M358.48324,155.78132c1.34613,-0.19613 2.6654,1.20996 2.94667,3.14058c0.28129,1.93061 -0.58195,3.65471 -1.92808,3.85083c-1.34613,0.19613 -2.6654,-1.20996 -2.94667,-3.14058c-0.28129,-1.93061 0.58195,-3.65471 1.92808,-3.85083z" data-paper-data="{&quot;index&quot;:null}" stroke-linecap="butt"/><path d="M108.23298,201.04836v-15.72163l0.40279,-1.49601l0.74799,-0.69046l1.26585,-0.40276h10.93227l1.0357,0.28768l0.69046,0.86307l0.28768,1.2083v17.80273v1.44928v18.03289l-0.28768,1.2083l-0.69046,0.86307l-1.0357,0.28768h-10.93227l-1.26585,-0.40276l-0.74799,-0.69046l-0.40279,-1.49601v-16.54874z" stroke-linecap="round"/><path d="M297.13391,149.9877l5.21045,14.27502l2.35737,41.01632l-8.2628,23.16678l-3.28397,0.91884h-4.18523l-2.16476,-0.19242l-2.16476,-0.43294l-9.09202,-2.98255l-11.06435,-2.88635l-1.10645,-0.43294l-0.33675,-0.38485l-0.19242,-1.44316v-30.83522l0.00968,-3.06805v-29.98219l0.19242,-1.44316l0.33675,-0.38485l1.10645,-0.43294l11.06435,-2.88635l9.09202,-2.98255l2.16476,-0.43294l2.16476,-0.19242h4.18523z" stroke-linecap="round"/><path d="M302.17597,187.34321v-2.51524l-0.26677,-10.32778l-0.26677,-4.53506l-0.38111,-3.92531l-1.84355,-7.13686l-1.61808,-3.48624l-1.93646,-3.77287l-4.74865,-7.05031l3.25261,1.54711l2.79013,2.26099l1.77991,1.97234l1.49129,2.45337l1.34697,2.54961l1.63558,5.38787l0.96212,4.81059l1.20264,9.04388l0.52918,11.88214l-0.00968,4.33046l-0.52918,11.88214l-1.20264,9.04388l-0.96212,4.81059l-1.63558,5.38787l-1.34697,2.54961l-1.49129,2.45337l-1.77991,1.97234l-2.79013,2.26099l-3.25261,1.54711l4.74865,-7.05031l1.93646,-3.77287l1.61808,-3.48624l1.84355,-7.13686l0.38111,-3.92531l0.26677,-4.53506l0.26677,-10.32778v-2.51524z" data-paper-data="{&quot;index&quot;:null}" stroke-linecap="round"/><path d="M366.77921,191.35486v13.28637l0.84773,0.71732l0.13041,0.84773v5.21683l-0.0652,0.39126l-0.19561,0.39126l-0.52167,0.32605l-0.91293,5.08638l-1.3694,4.36906l-3.45612,5.08638l-0.84773,2.15193l-0.78253,1.10858l-1.239,1.3042l-1.63026,1.49985l-2.47798,1.63026l-3.66468,1.89111l-4.69512,1.04338l-1.56505,0.39126l-3.06486,2.34758l-1.3694,0.97814l-2.99966,1.3042l-2.60839,0.65212l-6.06456,0.52167l-9.78153,0.32605h-20.93244l-1.63026,-0.19561l-1.17378,-0.45647l-1.239,-1.17378h-61.36274l-34.10489,-0.32605l-2.60839,2.08673l-1.3694,0.45647l-2.67363,0.32605l-3.65178,0.26085l-31.62691,-0.32605l-2.34758,-0.32605l-2.54319,-0.71732l-4.69512,-2.28237l-17.86758,-0.71732l-1.95631,-0.26085l-2.21713,-0.84773l-1.43461,-1.3694l-0.58688,-1.63026l-0.45647,-1.76066l-0.39126,-4.10824l0.39126,-1.17378l1.76066,-0.58688l-0.58688,-2.99966l-0.39126,-5.21683l-0.13041,-7.95563v-22.75392l0.00968,-2.85645v-22.90209l0.13041,-7.95563l0.39126,-5.21683l0.58688,-2.99966l-1.76066,-0.58688l-0.39126,-1.17378l0.39126,-4.10824l0.45647,-1.76066l0.58688,-1.63026l1.43461,-1.3694l2.21713,-0.84773l1.95631,-0.26085l17.86758,-0.71732l4.69512,-2.28237l2.54319,-0.71732l2.34758,-0.32605l31.62691,-0.32605l3.65178,0.26085l2.67363,0.32605l1.3694,0.45647l2.60839,2.08673l34.10489,-0.32605h61.36274l1.239,-1.17378l1.17378,-0.45647l1.63026,-0.19561h20.93244l9.78153,0.32605l6.06456,0.52167l2.60839,0.65212l2.99966,1.3042l1.3694,0.97814l3.06486,2.34758l1.56505,0.39126l4.69512,1.04338l3.66468,1.89111l2.47798,1.63026l1.63026,1.49985l1.239,1.3042l0.78253,1.10858l0.84773,2.15193l3.45612,5.08638l1.3694,4.36906l0.91293,5.08638l0.52167,0.32605l0.19561,0.39126l0.0652,0.39126v5.21683l-0.13041,0.84773l-0.84773,0.71732v13.9058z" stroke-linecap="round"/><path d="M277.07644,234.90842l-0.20475,5.5277l-0.23886,2.28614l-0.85306,3.03681l-1.53547,2.76385l-1.19426,1.50134l-0.54596,0.37535l-0.68245,0.1365l-0.58006,-0.1365l-0.51181,-0.44357l-0.44357,-0.68242l-0.20475,-0.54596l-0.03411,-0.58006l0.27296,-0.92127l1.12602,-2.525l1.09191,-3.20741l0.98952,-3.0027l0.20475,-1.56958l0.06825,-2.01318l0.1706,-0.68242l0.3071,-0.20475h1.39898l1.05777,0.1365l0.23886,0.37535z" stroke-linecap="round"/><path d="M276.98375,142.8002l-0.23886,0.37535l-1.05777,0.1365h-1.39898l-0.3071,-0.20475l-0.1706,-0.68242l-0.06825,-2.01318l-0.20475,-1.56958l-0.98952,-3.0027l-1.09191,-3.20741l-1.12602,-2.525l-0.27296,-0.92127l0.03411,-0.58006l0.20475,-0.54596l0.44357,-0.68242l0.51181,-0.44357l0.58006,-0.1365l0.68245,0.1365l0.54596,0.37535l1.19426,1.50134l1.53547,2.76385l0.85306,3.03681l0.23886,2.28614l0.20475,5.5277z" data-paper-data="{&quot;index&quot;:null}" stroke-linecap="round"/></g><text transform="translate(162.93561,275.30381) scale(0.63595,0.63595)" font-size="40" xml:space="preserve" fill="#ffffff" fill-rule="nonzero" stroke="#ffffff" stroke-width="1" stroke-linecap="butt" stroke-linejoin="miter" stroke-miterlimit="10" stroke-dasharray="" stroke-dashoffset="0" font-family="Sans Serif" font-weight="normal" text-anchor="start" style="mix-blend-mode: normal"><tspan x="0" dy="0">Freeland Pro</tspan></text><text transform="translate(119.18578,294.88493) scale(0.34165,0.34165)" font-size="40" xml:space="preserve" fill-opacity="0.74902" fill="#ffffff" fill-rule="nonzero" stroke="none" stroke-width="1" stroke-linecap="butt" stroke-linejoin="miter" stroke-miterlimit="10" stroke-dasharray="" stroke-dashoffset="0" font-family="Sans Serif" font-weight="normal" text-anchor="start" style="mix-blend-mode: normal"><tspan x="0" dy="0">The black bars aren't just decoration!</tspan></text><g><text transform="translate(310.85751,181.21253) rotate(-180) scale(0.29343,0.29343)" font-size="40" xml:space="preserve" fill="#000000" fill-rule="nonzero" stroke="none" stroke-width="1" stroke-linecap="butt" stroke-linejoin="miter" stroke-miterlimit="10" stroke-dasharray="" stroke-dashoffset="0" font-family="Pixel" font-weight="normal" text-anchor="start" style="mix-blend-mode: normal"><tspan x="0" dy="0">made by @itsadiesel</tspan></text><path d="M368.65692,182.6882v13.28637l0.84773,0.71732l0.13041,0.84773v5.21683l-0.0652,0.39126l-0.19561,0.39126l-0.52167,0.32605l-0.91293,5.08638l-1.3694,4.36906l-3.45612,5.08638l-0.84773,2.15193l-0.78253,1.10858l-1.239,1.3042l-1.63026,1.49985l-2.47798,1.63026l-3.66468,1.89111l-4.69512,1.04338l-1.56505,0.39126l-3.06486,2.34758l-1.3694,0.97814l-2.99966,1.3042l-2.60839,0.65212l-6.06456,0.52167l-9.78153,0.32605h-20.93244l-1.63026,-0.19561l-1.17378,-0.45647l-1.239,-1.17378h-61.36274l-34.10489,-0.32605l-2.60839,2.08673l-1.3694,0.45647l-2.67363,0.32605l-3.65178,0.26085l-31.62691,-0.32605l-2.34758,-0.32605l-2.54319,-0.71732l-4.69512,-2.28237l-17.86758,-0.71732l-1.95631,-0.26085l-2.21713,-0.84773l-1.43461,-1.3694l-0.58688,-1.63026l-0.45647,-1.76066l-0.39126,-4.10824l0.39126,-1.17378l1.76066,-0.58688l-0.58688,-2.99966l-0.39126,-5.21683l-0.13041,-7.95563v-22.75392l0.00968,-2.85645v-22.90209l0.13041,-7.95563l0.39126,-5.21683l0.58688,-2.99966l-1.76066,-0.58688l-0.39126,-1.17378l0.39126,-4.10824l0.45647,-1.76066l0.58688,-1.63026l1.43461,-1.3694l2.21713,-0.84773l1.95631,-0.26085l17.86758,-0.71732l4.69512,-2.28237l2.54319,-0.71732l2.34758,-0.32605l31.62691,-0.32605l3.65178,0.26085l2.67363,0.32605l1.3694,0.45647l2.60839,2.08673l34.10489,-0.32605h61.36274l1.239,-1.17378l1.17378,-0.45647l1.63026,-0.19561h20.93244l9.78153,0.32605l6.06456,0.52167l2.60839,0.65212l2.99966,1.3042l1.3694,0.97814l3.06486,2.34758l1.56505,0.39126l4.69512,1.04338l3.66468,1.89111l2.47798,1.63026l1.63026,1.49985l1.239,1.3042l0.78253,1.10858l0.84773,2.15193l3.45612,5.08638l1.3694,4.36906l0.91293,5.08638l0.52167,0.32605l0.19561,0.39126l0.0652,0.39126v5.21683l-0.13041,0.84773l-0.84773,0.71732v13.9058z" fill="#7a2e2e" stroke="#000000" stroke-width="1.5" stroke-linecap="round"/><path d="M123.67901,220.87981l-0.24977,-4.74507l-0.24973,-10.48911v-24.011l0.00968,-3.16566v-24.11455l0.24973,-10.48911l0.24977,-4.74507l0.31769,-0.5075l0.16303,0.44832l1.54874,0.69286l-0.65212,3.7496l-0.28528,5.09453l0.08151,66.43286l0.32605,2.73068l0.44832,2.73068z" fill="#343434" stroke="#000000" stroke-width="0.75" stroke-linecap="round"/><path d="M133.13185,133.67917l-0.46463,0.83142l-1.34498,1.56505l-0.83142,1.29605l-0.63581,1.22269l-0.53798,0.95371l-3.52136,-0.02447l1.54059,-3.81481l1.34498,-2.68991l1.17378,-0.92924l1.76066,-0.02447l1.0515,0.61134z" data-paper-data="{&quot;index&quot;:null}" fill="#6b2222" stroke="#ff0000" stroke-width="0.05" stroke-linecap="round"/><path d="M368.78367,161.93655v35.99024l-8.32627,-1.7258l0.27509,-10.68327v-2.67273l0.00968,-5.08522v-3.27758l-0.27509,-10.68327z" fill="#7a2e2e" stroke="#000000" stroke-width="0.75" stroke-linecap="round"/><path d="M365.36788,198.34078v-37.06109l3.42354,2.49973v35.15915z" fill="#343434" stroke="#000000" stroke-width="0.75" stroke-linecap="round"/><path d="M131.13389,218.11726l-0.11287,-0.98756l-0.02823,-8.493l-0.14107,-62.69579l0.1975,-4.06308l0.62077,0.39503l5.72784,4.93778l5.10708,4.57098l0.42323,0.9029l0.25393,2.45479v50.05505l-0.28217,2.45479l-0.84646,1.15686l-10.35526,8.97266l-0.1693,0.22573z" fill="#343434" stroke="#ff0000" stroke-width="0.05" stroke-linecap="round"/><path d="M138.58289,153.16418l0.08464,1.80583l-0.79003,0.81826l-0.1693,1.80583l0.05643,45.8791l1.04399,2.28549l-0.1975,1.55185l-7.87223,7.0822l-0.42323,-29.20351l0.08464,-21.89557l0.25393,-9.02909l0.11287,-7.33613l0.11287,-1.66472l0.36679,1.10043l4.90958,4.26061l2.14443,1.91869z" fill="#666666" stroke="#ff0000" stroke-width="0.05" stroke-linecap="round"/><path d="M142.6443,153.62329l0.52512,0.40155v0.80312h-4.54068l0.15444,-1.29735z" data-paper-data="{&quot;index&quot;:null}" fill="#343434" stroke="#ff0000" stroke-width="0.05" stroke-linecap="round"/><path d="M123.10319,190.41175l2.93446,2.12892l0.63291,0.63291l0.28768,1.2083v2.07139l-0.34523,0.74799l-0.97814,0.86307l-2.87693,1.89876z" data-paper-data="{&quot;index&quot;:null}" fill="#7a7a7a" stroke="#000000" stroke-width="0.75" stroke-linecap="round"/><path d="M138.7735,206.46937l-0.15444,-1.29735h4.54068v0.80312l-0.52512,0.40155z" fill="#343434" stroke="#ff0000" stroke-width="0.05" stroke-linecap="round"/><path d="M132.65754,227.32341l-1.0515,0.61134l-1.76066,-0.02447l-1.17378,-0.92924l-1.34498,-2.68991l-1.54059,-3.81481l3.52136,-0.02447l0.53798,0.95371l0.63581,1.22269l0.83142,1.29605l1.34498,1.56505l0.46463,0.83142z" fill="#6b2222" stroke="#ff0000" stroke-width="0.05" stroke-linecap="round"/><path d="M363.13205,218.66796h-3.5305l-1.33077,-1.57498l3.28483,-15.54823l7.18286,0.48176l0.1752,2.3213l-1.09495,4.46739l-0.1752,1.88332l-1.13874,2.89067z" fill="#343434" stroke="#000000" stroke-width="0.75" stroke-linecap="round"/><path d="M363.31541,203.35373v0.36679l-0.13755,1.05458l-0.09257,0.79764c0.74635,0.84233 1.12348,2.37121 0.89256,4.04039c-0.25528,1.84523 -1.17912,3.32368 -2.26077,3.81281l-0.69431,0.55027l-0.64182,2.35334l-0.91703,2.3384l-2.29256,3.80563l-1.92572,1.97157l-2.29256,1.69648l-1.87987,1.32968l-4.08074,1.78818l-2.7969,-3.072l-0.36679,-1.10043v-0.50435l0.50435,-0.50435l0.87118,-0.22925l2.47596,-0.77945l3.39295,-1.83402l2.43011,-2.20086l1.46723,-2.29256l1.28383,-2.84276l0.87118,-3.02615l0.96288,-4.90607l0.77948,-1.46723l0.91703,-1.14628z" fill="#cccccc" stroke="#000000" stroke-width="0.75" stroke-linecap="butt"/><path d="M369.40976,196.72941l0.27169,1.14116v5.21683l-0.97089,0.35806h-8.94091l-0.4585,-0.41265l0.04585,-1.10043v-4.86018l0.36679,-0.59608l0.59604,-0.1834h8.39071z" fill="#7a2e2e" stroke="#000000" stroke-width="0.75" stroke-linecap="round"/><path d="M295.33893,233.51175l0.75907,-0.63l1.78818,-0.50435l5.08946,-0.96288l9.90379,-0.73363l21.09141,-1.00873l12.33389,-0.5502l-2.98313,2.82094l-3.20618,1.68459l-4.45605,1.24987l-10.05323,0.54342l-19.67173,0.21736l-7.60786,-0.38038l-1.63026,-0.27169z" fill="#343434" stroke="#000000" stroke-width="0.75" stroke-linecap="round"/><path d="M148.54985,232.9734l3.2554,-0.36679l5.45626,-0.22925h36.4056l3.2554,0.32095l2.93446,0.59608l-1.73667,1.52863l-1.63026,1.08683l-7.22747,0.81511l-31.46392,-0.65212l-2.93446,-0.27169l-3.47787,-1.4129l-2.11935,-1.08683z" fill="#343434" stroke="#000000" stroke-width="0.75" stroke-linecap="round"/><path d="M175.28958,208.09086l-18.06323,-0.48909l-5.56213,-0.75835l-5.94745,-1.29579l-0.35867,-0.45647v-0.81511l0.91293,0.16303l7.33613,1.63026l6.68405,0.52167l15.22656,0.22823z" fill="#343434" stroke="#ff0000" stroke-width="0.05" stroke-linecap="round"/><path d="M145.74229,204.29294l5.11969,1.18626l2.80959,0.56191l5.307,0.49949l15.0469,0.37463l0.56191,0.31218l-0.56191,0.68681l-15.98342,-0.31218l-4.86997,-0.49949l-7.74196,-1.68574" fill="none" stroke="#000000" stroke-width="0.75" stroke-linecap="round"/><path d="M248.78466,209.03938l0.71572,-0.64415l7.22877,0.35785l5.29635,0.57256l0.07159,1.28829l-2.43344,-0.2863l-6.36992,-0.42943l-4.29433,-0.21471z" fill="#343434" stroke="#000000" stroke-width="0.75" stroke-linecap="round"/><path d="M245.19149,209.05385l-2.08629,0.68865l-61.87861,-1.07771l-1.93815,-1.94703l2.22837,-0.52609l61.64694,1.16335z" fill="#343434" stroke="#000000" stroke-width="0.75" stroke-linecap="round"/><path d="M343.64542,225.22462l-10.04134,1.10043l-10.72912,0.77948l-33.37945,0.77948" fill="none" stroke="#000000" stroke-width="0.75" stroke-linecap="round"/><path d="M302.3796,227.42548l-3.09495,-3.09495" fill="none" stroke="#000000" stroke-width="0.75" stroke-linecap="round"/><path d="M174.90303,236.06755c0,0 -0.68984,-2.03953 -0.86009,-3.39614c-0.17025,-1.35657 0,-3.45779 0,-3.45779l0.41265,-1.74232l5.82306,-12.47145l0.6419,-0.59604l0.82533,-0.27509l0.6419,-0.22925h41.17408l21.59575,0.32095l7.42783,0.4585l4.40168,0.82533l4.17243,1.19213l13.38848,4.21828l12.83824,4.44753l1.00873,0.77948l0.82533,0.96288l1.87987,6.32744" fill="none" stroke="#000000" stroke-width="0.75" stroke-linecap="round"/><path d="M162.12173,236.13714l-4.26413,-3.62223l-9.44529,-0.91703l-7.19859,-0.73363l-6.51084,-1.10043l-2.15501,-1.32968l-0.73363,-0.59608l-1.69648,0.0917l-0.82533,-0.32095l-0.91703,-1.19213l-1.74232,-3.62223l-0.73363,-2.2467h5.08946l1.00873,-0.13755l0.6419,-0.32095l6.87764,-5.7772l4.72263,-3.71393l0.59604,-0.6419l0.36679,-1.14628l0.22925,-3.072v-25.31397l0.00968,-0.84799v-25.31397l-0.22925,-3.072l-0.36679,-1.14628l-0.59604,-0.6419l-4.72263,-3.71393l-6.87764,-5.7772l-0.6419,-0.32095l-1.00873,-0.13755h-5.08946l0.73363,-2.2467l1.74232,-3.62223l0.91703,-1.19213l0.82533,-0.32095l1.69648,0.0917l0.73363,-0.59608l2.15501,-1.32968l6.51084,-1.10043l7.19859,-0.73363l9.44529,-0.91703l4.26413,-3.62223" fill="none" stroke="#000000" stroke-width="0.75" stroke-linecap="round"/><path d="M129.52175,220.59369l0.0917,0.27509l0.87118,1.74232l1.00873,1.55893l1.46723,1.78818l0.0917,0.82533l-0.32095,0.41265l-0.82533,0.5502" fill="none" stroke="#000000" stroke-width="0.75" stroke-linecap="round"/><path d="M131.19111,141.71056l11.28134,10.04236l0.39126,0.71732l0.26085,1.49985l0.0652,10.95533v14.35777l-0.00968,1.71391v14.07756l-0.0652,10.95533l-0.26085,1.49985l-0.39126,0.71732l-11.28134,10.04236" fill="none" stroke="#000000" stroke-width="0.75" stroke-linecap="round"/><path d="M131.0162,146.07313l6.66923,5.73553l0.86702,0.86702l0.26677,1.0004v1.0004l-0.56687,0.56687l-0.36679,0.70025l-0.13338,0.93371v22.74203l-0.00968,0.76139v22.74203l0.13338,0.93371l0.36679,0.70025l0.56687,0.56687v1.0004l-0.26677,1.0004l-0.86702,0.86702l-6.66923,5.73553" fill="none" stroke="#000000" stroke-width="0.75" stroke-linecap="round"/><path d="M142.81105,205.25688h-3.86815" fill="none" stroke="#000000" stroke-width="0.75" stroke-linecap="round"/><path d="M139.14299,206.32396h3.80146" fill="none" stroke="#000000" stroke-width="0.75" stroke-linecap="round"/><path d="M181.30202,205.78286l-0.09369,3.33329l-7.86658,-0.2211l0.09369,-3.33329z" fill="#343434" stroke="#000000" stroke-width="0.75" stroke-linecap="butt"/><path d="M249.83511,207.21747l-0.09369,3.33329l-7.86658,-0.2211l0.09369,-3.33329z" fill="#343434" stroke="#000000" stroke-width="0.75" stroke-linecap="butt"/><path d="M221.27502,178.18427v-20.1057l0.23258,-1.04261l0.70833,-0.96128l0.55654,-0.25295l0.96128,-0.10119h18.7704l1.31543,0.30355l0.86009,0.80949l0.35415,0.65774c0,0 1.11928,5.96539 1.39032,9.34986c0.22432,2.80107 0.36303,8.06096 0.43099,11.28255l-0.00039,3.30419c-0.06412,3.16044 -0.20518,8.79568 -0.44026,11.73096c-0.27104,3.38447 -1.39032,9.34986 -1.39032,9.34986l-0.35415,0.65774l-0.86009,0.80949l-1.31543,0.30355h-18.7704l-0.96128,-0.10119l-0.55654,-0.25295l-0.70833,-0.96128l-0.23258,-1.04261v-21.38115z" fill="#343434" stroke="#000000" stroke-width="0.75" stroke-linecap="round"/><path d="M221.49793,213.99355l6.32425,13.30624c0,0 -0.81131,2.39187 -0.64114,3.12115c0.26154,1.12091 2.0578,2.95011 2.0578,2.95011" fill="none" stroke="#000000" stroke-width="0.75" stroke-linecap="round"/><path d="M167.93565,197.49414c-1.10659,0 -2.00365,-0.88746 -2.00365,-1.98223c0,-1.09474 0.89706,-1.96081 2.00365,-1.96081h46.18022c1.10659,0 2.00365,0.86607 2.00365,1.96081c0,1.09474 -0.89706,1.98223 -2.00365,1.98223z" fill="none" stroke="#000000" stroke-width="0.75" stroke-linecap="butt"/><path d="M167.93565,188.38719c-1.10659,0 -2.00365,-0.88746 -2.00365,-1.98223c0,-1.09474 0.89706,-1.96081 2.00365,-1.96081h46.18022c1.10659,0 2.00365,0.86607 2.00365,1.96081c0,1.09474 -0.89706,1.98223 -2.00365,1.98223z" fill="none" stroke="#000000" stroke-width="0.75" stroke-linecap="butt"/><path d="M261.10562,178.00269v-21.67122l0.09623,-4.90679l0.14433,-3.03068l0.24052,-1.58749l0.24052,-0.91403l0.48104,-0.62537l1.01022,-0.7216l3.19545,-1.30159l22.21804,-7.20276l3.16312,-0.3049h5.56405l2.01981,0.19054l1.06708,0.38111l2.78201,1.67683l3.20121,2.97259l2.05795,3.84909l1.63874,4.87805l0.99087,5.8689l0.76219,5.41157l0.4192,7.43142l0.4192,9.98477l-0.00968,3.23761l-0.4192,9.98477l-0.4192,7.43142l-0.76219,5.41157l-0.99087,5.8689l-1.63874,4.87805l-2.05795,3.84909l-3.20121,2.97259l-2.78201,1.67683l-1.06708,0.38111l-2.01981,0.19054h-5.56405l-3.16312,-0.3049l-22.21804,-7.20276l-3.19545,-1.30159l-1.01022,-0.7216l-0.48104,-0.62537l-0.24052,-0.91403l-0.24052,-1.58749l-0.14433,-3.03068l-0.09623,-4.90679v-21.87455z" fill="#343434" stroke="#000000" stroke-width="0.75" stroke-linecap="round"/><path d="M321.73343,193.23621c0,0.66372 -0.53802,1.20173 -1.20173,1.20173c-0.66372,0 -1.20173,-0.53802 -1.20173,-1.20173c0,-0.66372 0.53802,-1.20173 1.20173,-1.20173c0.66368,0 1.20173,0.53802 1.20173,1.20173z" fill="#343434" stroke="#000000" stroke-width="0.75" stroke-linecap="butt"/><path d="M285.59153,228.42192h-50.94218l-1.09554,-0.19561l-0.50862,-0.31301l-5.94716,-8.52949l-0.46951,-0.82163v-0.82163l0.15651,-0.82163l0.46951,-0.43037l0.74339,-0.35212h19.87605l4.81251,0.35212l2.62144,0.46951l2.11282,0.50862l6.45582,2.11282l21.69996,7.16009c0,0 0.81403,0.366 0.75933,0.9714c-0.0722,0.79898 -0.74432,0.71105 -0.74432,0.71105z" fill="#343434" stroke="#000000" stroke-width="0.75" stroke-linecap="round"/><path d="M271.19437,227.33367h-36.8172l-0.40946,-0.10235l-0.4777,-0.40946l-5.59595,-8.25744l-0.10235,-0.68242l0.40946,-0.64831l0.58006,-0.23886h18.93749l3.37801,0.23886l3.20745,0.4777l3.44627,0.92127l13.54629,4.74289l0.1706,0.40946v3.30981z" fill="#666666" stroke="#000000" stroke-width="0.75" stroke-linecap="round"/><path d="M223.62891,227.29952c0,0 0.32439,0.77687 0.16284,0.9436c-0.18724,0.1933 -1.22062,0.14828 -1.22062,0.14828h-42.68611c0,0 -1.12316,0.04679 -1.28234,-0.23621c-0.1469,-0.26118 0.36107,-1.40162 0.36107,-1.40162l3.85573,-9.82703l0.40946,-0.34121l0.68242,-0.27296h33.78036l1.26248,0.10235l0.81891,0.3071l0.51181,0.71656l3.34391,9.86113z" fill="#343434" stroke="#000000" stroke-width="0.75" stroke-linecap="round"/><path d="M222.5711,226.68536v0.40946l-0.23886,0.10235h-41.9013l-0.3071,-0.1365l-0.10235,-0.37535l3.30981,-8.90576l0.51181,-0.51181l0.44357,-0.06825h33.71214l1.12602,0.23886l0.40946,0.54596l2.8321,8.25744z" fill="#666666" stroke="#000000" stroke-width="0.75" stroke-linecap="round"/><path d="M166.28411,227.70899h-17.91383l-2.72974,-0.06825l-2.66149,-0.34121l-2.25204,-0.54596l-1.12602,-0.44357l-0.58006,-0.54596l-0.1365,-0.44357l0.1365,-1.09191l0.51181,-1.16013l7.16553,-7.95034l0.64831,-0.40946l0.95542,-0.1706l1.29662,0.06825l6.44897,0.95542l2.35439,0.1365h13.68275l0.54596,0.20475l0.1706,0.54596l-0.10235,1.19426l-5.5277,9.72467l-0.44357,0.3071z" fill="#666666" stroke="#000000" stroke-width="0.75" stroke-linecap="round"/><path d="M170.74379,226.82001c0,-0.22957 0.36129,-0.41573 0.80699,-0.41573c0.44566,0 0.80699,0.18611 0.80699,0.41573c0,0.22957 -0.36129,0.41573 -0.80699,0.41573c-0.44566,0 -0.80699,-0.18611 -0.80699,-0.41573z" fill="#45611b" stroke="#000000" stroke-width="0.25" stroke-linecap="butt"/><path d="M358.54548,209.03449c0.28129,-1.93061 1.60057,-3.3367 2.94667,-3.14058c1.34613,0.19613 2.20934,1.92022 1.92804,3.85083c-0.28129,1.93061 -1.60057,3.33673 -2.94667,3.14058c-1.34613,-0.19613 -2.20934,-1.92022 -1.92808,-3.85083z" fill="#dddddd" stroke="#939393" stroke-width="0.75" stroke-linecap="butt"/><path d="M366.51442,146.41087l1.13874,2.89067l0.1752,1.88332l1.09495,4.46739l-0.17517,2.3213l-7.18286,0.48176l-3.28483,-15.54823l1.33077,-1.57498h3.5305z" data-paper-data="{&quot;index&quot;:null}" fill="#343434" stroke="#000000" stroke-width="0.75" stroke-linecap="round"/><path d="M359.79459,156.64625l-0.91703,-1.14628l-0.77948,-1.46723l-0.96288,-4.90607l-0.87118,-3.02615l-1.28383,-2.84276l-1.46723,-2.29256l-2.43011,-2.20086l-3.39295,-1.83402l-2.47596,-0.77945l-0.87118,-0.22925l-0.50435,-0.50435v-0.50435l0.36679,-1.10043l2.7969,-3.072l4.08074,1.78818l1.87987,1.32968l2.29256,1.69648l1.92572,1.97157l2.29256,3.80563l0.91703,2.3384l0.64182,2.35334l0.69431,0.55027c1.08165,0.48909 2.0055,1.96755 2.26077,3.81281c0.23091,1.66918 -0.14621,3.19806 -0.89256,4.04039l0.09257,0.79764l0.13755,1.05458v0.36679z" data-paper-data="{&quot;index&quot;:null}" fill="#cccccc" stroke="#000000" stroke-width="0.75" stroke-linecap="butt"/><path d="M368.7202,163.70729h-8.39071l-0.59604,-0.1834l-0.36679,-0.59608v-4.86018l-0.04585,-1.10043l0.4585,-0.41265h8.94091l0.97089,0.35806v5.21683l-0.27172,1.14116z" data-paper-data="{&quot;index&quot;:null}" fill="#7a2e2e" stroke="#000000" stroke-width="0.75" stroke-linecap="round"/><path d="M296.70601,125.01398l1.63026,-0.27172l7.60786,-0.38038l19.67173,0.21736l10.05323,0.54342l4.45605,1.24987l3.20618,1.68459l2.98313,2.82094l-12.33389,-0.5502l-21.09141,-1.00873l-9.90379,-0.73363l-5.08946,-0.96288l-1.78818,-0.50435l-0.75907,-0.63z" data-paper-data="{&quot;index&quot;:null}" fill="#343434" stroke="#000000" stroke-width="0.75" stroke-linecap="round"/><path d="M149.27674,126.69857l2.11935,-1.08683l3.47787,-1.4129l2.93446,-0.27169l31.46392,-0.65212l7.22747,0.81511l1.63026,1.08683l1.73667,1.52863l-2.93446,0.59608l-3.2554,0.32095h-36.4056l-5.45626,-0.22925l-3.2554,-0.36679z" data-paper-data="{&quot;index&quot;:null}" fill="#343434" stroke="#000000" stroke-width="0.75" stroke-linecap="round"/><path d="M175.52749,153.1807l-15.22656,0.22823l-6.68405,0.52167l-7.33613,1.63026l-0.91293,0.16303v-0.81511l0.35867,-0.45647l5.94745,-1.29579l5.56213,-0.75835l18.06323,-0.48909z" data-paper-data="{&quot;index&quot;:null}" fill="#343434" stroke="#ff0000" stroke-width="0.05" stroke-linecap="round"/><path d="M145.43979,154.58324l7.74196,-1.68574l4.86997,-0.49949l15.98342,-0.31218l0.56191,0.68681l-0.56191,0.31218l-15.0469,0.37463l-5.307,0.49949l-2.80959,0.56191l-5.11969,1.18626" data-paper-data="{&quot;index&quot;:null}" fill="none" stroke="#000000" stroke-width="0.75" stroke-linecap="round"/><path d="M249.00902,150.31642l4.29433,-0.21471l6.36992,-0.42943l2.43344,-0.2863l-0.07159,1.28829l-5.29635,0.57256l-7.22877,0.35785l-0.71572,-0.64415z" data-paper-data="{&quot;index&quot;:null}" fill="#343434" stroke="#000000" stroke-width="0.75" stroke-linecap="round"/><path d="M243.17346,152.64497l-61.64694,1.16335l-2.22837,-0.52609l1.93815,-1.94703l61.87861,-1.07771l2.08629,0.68865z" data-paper-data="{&quot;index&quot;:null}" fill="#343434" stroke="#000000" stroke-width="0.75" stroke-linecap="round"/><path d="M289.50518,132.11601l33.37945,0.77948l10.72912,0.77948l10.04134,1.10043" data-paper-data="{&quot;index&quot;:null}" fill="none" stroke="#000000" stroke-width="0.75" stroke-linecap="round"/><path d="M302.38928,132.57454l-3.09495,3.09495" data-paper-data="{&quot;index&quot;:null}" fill="none" stroke="#000000" stroke-width="0.75" stroke-linecap="round"/><path d="M291.10995,126.56805l-1.87987,6.32744l-0.82533,0.96288l-1.00873,0.77948l-12.83824,4.44753l-13.38848,4.21828l-4.17243,1.19213l-4.40168,0.82533l-7.42783,0.4585l-21.59575,0.32095h-41.17408l-0.6419,-0.22925l-0.82533,-0.27509l-0.6419,-0.59604l-5.82306,-12.47145l-0.41265,-1.74232c0,0 -0.17025,-2.10118 0,-3.45779c0.17025,-1.35657 0.86009,-3.39614 0.86009,-3.39614" data-paper-data="{&quot;index&quot;:null}" fill="none" stroke="#000000" stroke-width="0.75" stroke-linecap="round"/><path d="M131.91565,132.25356l0.82533,0.5502l0.32095,0.41265l-0.0917,0.82533l-1.46723,1.78818l-1.00873,1.55893l-0.87118,1.74232l-0.0917,0.27509" data-paper-data="{&quot;index&quot;:null}" fill="none" stroke="#000000" stroke-width="0.75" stroke-linecap="round"/><path d="M131.63789,220.31095l-0.58688,-2.41278l-0.32605,-5.67329l-0.13041,-7.0427l-0.32605,-21.84541v-2.93446l0.00968,-0.8047v-2.93446l0.32605,-21.84541l0.13041,-7.0427l0.32605,-5.67329l0.58688,-2.41278" data-paper-data="{&quot;index&quot;:null}" fill="none" stroke="#000000" stroke-width="0.75" stroke-linecap="round"/><path d="M138.95259,154.74311h3.86815" data-paper-data="{&quot;index&quot;:null}" fill="none" stroke="#000000" stroke-width="0.75" stroke-linecap="round"/><path d="M141.15344,154.74311v24.82618l-0.00968,1.4668v24.22079" data-paper-data="{&quot;index&quot;:null}" fill="none" stroke="#000000" stroke-width="0.75" stroke-linecap="round"/><path d="M139.15266,153.67603h3.80146" data-paper-data="{&quot;index&quot;:null}" fill="none" stroke="#000000" stroke-width="0.75" stroke-linecap="round"/><path d="M173.44511,154.43826l-0.09369,-3.33329l7.86658,-0.2211l0.09369,3.33329z" data-paper-data="{&quot;index&quot;:null}" fill="#343434" stroke="#000000" stroke-width="0.75" stroke-linecap="butt"/><path d="M241.97818,153.00365l-0.09369,-3.33329l7.86658,-0.2211l0.09369,3.33329z" data-paper-data="{&quot;index&quot;:null}" fill="#343434" stroke="#000000" stroke-width="0.75" stroke-linecap="butt"/><path d="M245.40136,180.80858c-0.05176,2.84805 -0.17847,8.61032 -0.39801,11.53195c-0.23947,3.18701 -1.22841,8.8043 -1.22841,8.8043l-0.3129,0.61935l-0.75994,0.76227l-1.16222,0.28587h-16.58432l-0.84933,-0.09529l-0.4917,-0.2382l-0.62584,-0.90522l-0.20551,-0.9818v-19.99678l0.00968,-2.27379v-18.91295l0.20551,-0.9818l0.62584,-0.90522l0.4917,-0.2382l0.84933,-0.09529h16.58432l1.16222,0.28587l0.75994,0.76227l0.3129,0.61935c0,0 0.9889,5.6173 1.22841,8.8043c0.2017,2.68447 0.32508,7.76719 0.38394,10.78392z" data-paper-data="{&quot;index&quot;:null}" fill="#666666" stroke="#000000" stroke-width="0.5" stroke-linecap="round"/><path d="M229.24852,126.62891c0,0 -1.79622,1.8292 -2.0578,2.95011c-0.17017,0.72932 0.64114,3.12115 0.64114,3.12115l-6.32425,13.30624" data-paper-data="{&quot;index&quot;:null}" fill="none" stroke="#000000" stroke-width="0.75" stroke-linecap="round"/><path d="M214.12551,162.50585c1.10659,0 2.00365,0.88746 2.00365,1.98223c0,1.09474 -0.89706,1.96081 -2.00365,1.96081h-46.18022c-1.10659,0 -2.00365,-0.86607 -2.00365,-1.96081c0,-1.09474 0.89706,-1.98223 2.00365,-1.98223z" data-paper-data="{&quot;index&quot;:null}" fill="none" stroke="#000000" stroke-width="0.75" stroke-linecap="butt"/><path d="M214.12551,171.61279c1.10659,0 2.00365,0.88746 2.00365,1.98223c0,1.09474 -0.89706,1.96081 -2.00365,1.96081h-46.18022c-1.10659,0 -2.00365,-0.86607 -2.00365,-1.96081c0,-1.09474 0.89706,-1.98223 2.00365,-1.98223z" data-paper-data="{&quot;index&quot;:null}" fill="none" stroke="#000000" stroke-width="0.75" stroke-linecap="butt"/><path d="M320.54137,167.96548c-0.66372,0 -1.20173,-0.53802 -1.20173,-1.20173c0,-0.66372 0.53802,-1.20173 1.20173,-1.20173c0.66372,0 1.20173,0.53802 1.20173,1.20173c0,0.66372 -0.53806,1.20173 -1.20173,1.20173z" data-paper-data="{&quot;index&quot;:null}" fill="#343434" stroke="#000000" stroke-width="0.75" stroke-linecap="butt"/><path d="M285.60121,131.57807c0,0 0.67216,-0.08793 0.74432,0.71105c0.0547,0.6054 -0.75933,0.9714 -0.75933,0.9714l-21.69996,7.16009l-6.45582,2.11282l-2.11282,0.50862l-2.62144,0.46951l-4.81251,0.35212h-19.87605l-0.74339,-0.35212l-0.46951,-0.43037l-0.15651,-0.82163v-0.82163l0.46951,-0.82163l5.94716,-8.52949l0.50862,-0.31301l1.09554,-0.19561h50.94218z" data-paper-data="{&quot;index&quot;:null}" fill="#343434" stroke="#000000" stroke-width="0.75" stroke-linecap="round"/><path d="M271.477,132.90517v3.30981l-0.1706,0.40946l-13.54629,4.74289l-3.44627,0.92127l-3.20745,0.4777l-3.37801,0.23886h-18.93749l-0.58006,-0.23886l-0.40946,-0.64831l0.10235,-0.68242l5.59595,-8.25744l0.4777,-0.40946l0.40946,-0.10235h36.8172z" data-paper-data="{&quot;index&quot;:null}" fill="#666666" stroke="#000000" stroke-width="0.75" stroke-linecap="round"/><path d="M223.63854,132.70046l-3.34391,9.86113l-0.51181,0.71656l-0.81891,0.3071l-1.26248,0.10235h-33.78036l-0.68242,-0.27296l-0.40946,-0.34121l-3.85573,-9.82703c0,0 -0.50797,-1.14045 -0.36107,-1.40162c0.15919,-0.283 1.28234,-0.23621 1.28234,-0.23621h42.68611c0,0 1.03338,-0.04502 1.22062,0.14828c0.16154,0.16677 -0.16284,0.9436 -0.16284,0.9436z" data-paper-data="{&quot;index&quot;:null}" fill="#343434" stroke="#000000" stroke-width="0.75" stroke-linecap="round"/><path d="M222.37603,133.75823l-2.8321,8.25744l-0.40946,0.54596l-1.12602,0.23886h-33.71214l-0.44357,-0.06825l-0.51181,-0.51181l-3.30981,-8.90576l0.10235,-0.37535l0.3071,-0.1365h41.9013l0.23886,0.10235v0.40946z" data-paper-data="{&quot;index&quot;:null}" fill="#666666" stroke="#000000" stroke-width="0.75" stroke-linecap="round"/><path d="M166.73736,132.32511l0.44357,0.3071l5.5277,9.72467l0.10235,1.19426l-0.1706,0.54596l-0.54596,0.20475h-13.68275l-2.35439,0.1365l-6.44897,0.95542l-1.29662,0.06825l-0.95542,-0.1706l-0.64831,-0.40946l-7.16553,-7.95034l-0.51181,-1.16013l-0.1365,-1.09191l0.1365,-0.44357l0.58006,-0.54596l1.12602,-0.44357l2.25204,-0.54596l2.66149,-0.34121l2.72974,-0.06825h17.91383z" data-paper-data="{&quot;index&quot;:null}" fill="#666666" stroke="#000000" stroke-width="0.75" stroke-linecap="round"/><path d="M171.56043,132.76428c0.44566,0 0.80699,0.18611 0.80699,0.41573c0,0.22957 -0.36129,0.41573 -0.80699,0.41573c-0.44566,0 -0.80699,-0.18611 -0.80699,-0.41573c0,-0.22957 0.36129,-0.41573 0.80699,-0.41573z" data-paper-data="{&quot;index&quot;:null}" fill="#45611b" stroke="#000000" stroke-width="0.25" stroke-linecap="butt"/><path d="M360.48324,147.11466c1.34613,-0.19613 2.6654,1.20996 2.94667,3.14058c0.28129,1.93061 -0.58195,3.65471 -1.92808,3.85083c-1.34613,0.19613 -2.6654,-1.20996 -2.94667,-3.14058c-0.28129,-1.93061 0.58195,-3.65471 1.92808,-3.85083z" data-paper-data="{&quot;index&quot;:null}" fill="#dddddd" stroke="#939393" stroke-width="0.75" stroke-linecap="butt"/><path d="M110.23298,192.3817v-15.72163l0.40279,-1.49601l0.74799,-0.69046l1.26585,-0.40276h10.93227l1.0357,0.28768l0.69046,0.86307l0.28768,1.2083v17.80273v1.44928v18.03289l-0.28768,1.2083l-0.69046,0.86307l-1.0357,0.28768h-10.93227l-1.26585,-0.40276l-0.74799,-0.69046l-0.40279,-1.49601v-16.54874z" fill="#343434" stroke="#000000" stroke-width="0.75" stroke-linecap="round"/><path d="M299.13391,141.32104l5.21045,14.27502l2.35737,41.01632l-8.2628,23.16678l-3.28397,0.91884h-4.18523l-2.16476,-0.19242l-2.16476,-0.43294l-9.09202,-2.98255l-11.06435,-2.88635l-1.10645,-0.43294l-0.33675,-0.38485l-0.19242,-1.44316v-30.83522l0.00968,-3.06805v-29.98219l0.19242,-1.44316l0.33675,-0.38485l1.10645,-0.43294l11.06435,-2.88635l9.09202,-2.98255l2.16476,-0.43294l2.16476,-0.19242h4.18523z" fill="#666666" stroke="#000000" stroke-width="0.75" stroke-linecap="round"/><path d="M304.17597,178.67655v-2.51524l-0.26677,-10.32778l-0.26677,-4.53506l-0.38111,-3.92531l-1.84355,-7.13686l-1.61808,-3.48624l-1.93646,-3.77287l-4.74865,-7.05031l3.25261,1.54711l2.79013,2.26099l1.77991,1.97234l1.49129,2.45337l1.34697,2.54961l1.63558,5.38787l0.96212,4.81059l1.20264,9.04388l0.52918,11.88214l-0.00968,4.33046l-0.52918,11.88214l-1.20264,9.04388l-0.96212,4.81059l-1.63558,5.38787l-1.34697,2.54961l-1.49129,2.45337l-1.77991,1.97234l-2.79013,2.26099l-3.25261,1.54711l4.74865,-7.05031l1.93646,-3.77287l1.61808,-3.48624l1.84355,-7.13686l0.38111,-3.92531l0.26677,-4.53506l0.26677,-10.32778v-2.51524z" data-paper-data="{&quot;index&quot;:null}" fill="#343434" stroke="#000000" stroke-width="0.75" stroke-linecap="round"/><path d="M368.77921,182.6882v13.28637l0.84773,0.71732l0.13041,0.84773v5.21683l-0.0652,0.39126l-0.19561,0.39126l-0.52167,0.32605l-0.91293,5.08638l-1.3694,4.36906l-3.45612,5.08638l-0.84773,2.15193l-0.78253,1.10858l-1.239,1.3042l-1.63026,1.49985l-2.47798,1.63026l-3.66468,1.89111l-4.69512,1.04338l-1.56505,0.39126l-3.06486,2.34758l-1.3694,0.97814l-2.99966,1.3042l-2.60839,0.65212l-6.06456,0.52167l-9.78153,0.32605h-20.93244l-1.63026,-0.19561l-1.17378,-0.45647l-1.239,-1.17378h-61.36274l-34.10489,-0.32605l-2.60839,2.08673l-1.3694,0.45647l-2.67363,0.32605l-3.65178,0.26085l-31.62691,-0.32605l-2.34758,-0.32605l-2.54319,-0.71732l-4.69512,-2.28237l-17.86758,-0.71732l-1.95631,-0.26085l-2.21713,-0.84773l-1.43461,-1.3694l-0.58688,-1.63026l-0.45647,-1.76066l-0.39126,-4.10824l0.39126,-1.17378l1.76066,-0.58688l-0.58688,-2.99966l-0.39126,-5.21683l-0.13041,-7.95563v-22.75392l0.00968,-2.85645v-22.90209l0.13041,-7.95563l0.39126,-5.21683l0.58688,-2.99966l-1.76066,-0.58688l-0.39126,-1.17378l0.39126,-4.10824l0.45647,-1.76066l0.58688,-1.63026l1.43461,-1.3694l2.21713,-0.84773l1.95631,-0.26085l17.86758,-0.71732l4.69512,-2.28237l2.54319,-0.71732l2.34758,-0.32605l31.62691,-0.32605l3.65178,0.26085l2.67363,0.32605l1.3694,0.45647l2.60839,2.08673l34.10489,-0.32605h61.36274l1.239,-1.17378l1.17378,-0.45647l1.63026,-0.19561h20.93244l9.78153,0.32605l6.06456,0.52167l2.60839,0.65212l2.99966,1.3042l1.3694,0.97814l3.06486,2.34758l1.56505,0.39126l4.69512,1.04338l3.66468,1.89111l2.47798,1.63026l1.63026,1.49985l1.239,1.3042l0.78253,1.10858l0.84773,2.15193l3.45612,5.08638l1.3694,4.36906l0.91293,5.08638l0.52167,0.32605l0.19561,0.39126l0.0652,0.39126v5.21683l-0.13041,0.84773l-0.84773,0.71732v13.9058z" fill="none" stroke="#000000" stroke-width="1.5" stroke-linecap="round"/><path d="M279.07644,226.24176l-0.20475,5.5277l-0.23886,2.28614l-0.85306,3.03681l-1.53547,2.76385l-1.19426,1.50134l-0.54596,0.37535l-0.68245,0.1365l-0.58006,-0.1365l-0.51181,-0.44357l-0.44357,-0.68242l-0.20475,-0.54596l-0.03411,-0.58006l0.27296,-0.92127l1.12602,-2.525l1.09191,-3.20741l0.98952,-3.0027l0.20475,-1.56958l0.06825,-2.01318l0.1706,-0.68242l0.3071,-0.20475h1.39898l1.05777,0.1365l0.23886,0.37535z" fill="#343434" stroke="#000000" stroke-width="0.75" stroke-linecap="round"/><path d="M278.98375,134.13354l-0.23886,0.37535l-1.05777,0.1365h-1.39898l-0.3071,-0.20475l-0.1706,-0.68242l-0.06825,-2.01318l-0.20475,-1.56958l-0.98952,-3.0027l-1.09191,-3.20741l-1.12602,-2.525l-0.27296,-0.92127l0.03411,-0.58006l0.20475,-0.54596l0.44357,-0.68242l0.51181,-0.44357l0.58006,-0.1365l0.68245,0.1365l0.54596,0.37535l1.19426,1.50134l1.53547,2.76385l0.85306,3.03681l0.23886,2.28614l0.20475,5.5277z" data-paper-data="{&quot;index&quot;:null}" fill="#343434" stroke="#000000" stroke-width="0.75" stroke-linecap="round"/></g><path d="M23,205.00001v-48h431v48z" fill="url(#color-1)" stroke="none" stroke-width="NaN" stroke-linecap="butt"/><text transform="translate(170.20947,192.05921) scale(0.9216,0.9216)" font-size="40" xml:space="preserve" fill="#35ff00" fill-rule="nonzero" stroke="#31ff00" stroke-width="2" stroke-linecap="butt" stroke-linejoin="miter" stroke-miterlimit="10" stroke-dasharray="" stroke-dashoffset="0" font-family="Sans Serif" font-weight="normal" text-anchor="start" style="mix-blend-mode: normal"><tspan x="0" dy="0">$25,000</tspan></text></g></g></svg>