<svg version="1.1" xmlns="http://www.w3.org/2000/svg" xmlns:xlink="http://www.w3.org/1999/xlink" width="264.59369" height="179.39105" viewBox="0,0,264.59369,179.39105"><g transform="translate(-105.87262,-120.09784)"><g data-paper-data="{&quot;isPaintingLayer&quot;:true}" fill-rule="nonzero" stroke-linejoin="miter" stroke-miterlimit="10" stroke-dasharray="" stroke-dashoffset="0" style="mix-blend-mode: normal"><g fill="#404040" stroke="none" stroke-width="0"><text transform="translate(323.86247,191.50925) rotate(-180) scale(0.36525,0.36525)" font-size="40" xml:space="preserve" fill="#404040" fill-rule="nonzero" stroke="none" stroke-width="0" stroke-linecap="butt" stroke-linejoin="miter" stroke-miterlimit="10" stroke-dasharray="" stroke-dashoffset="0" font-family="Pixel" font-weight="normal" text-anchor="start" style="mix-blend-mode: normal"><tspan x="0" dy="0">made by @itsadiesel</tspan></text><path d="M365.34676,198.24733l-0.4618,7.3888l-1.39144,16.87107l-0.86964,8.69643l-0.78267,7.39197l-0.17394,0.78267l-0.52179,0.60876l-1.04359,0.6957l-2.26108,0.86964l-3.65248,0.6957l-15.91446,1.65232l-1.30446,0.6957l-1.73929,1.21749l-1.82626,0.6957l-1.56534,0.26091l-5.21786,0.17394h-31.82888l-1.39144,-0.26091l-1.04359,-0.43482l-1.47841,-1.13052l-0.86964,-0.52179l-1.47841,-0.26091c0,0 -60.04804,0.69919 -81.65946,0.76344c-14.3284,0.04259 -35.39435,-0.41555 -35.39435,-0.41555l-2.08714,2.00017l-1.13052,0.52179l-1.04359,0.08697h-9.21819l-21.56714,-0.52179l-10.43572,-0.6957l-8.26161,-1.04359l-5.39177,-0.52179l-2.60893,-0.52179l-1.56534,-1.04359l-0.6957,-0.95661l-0.6957,-2.43499l-0.60876,-4.0873l-0.26088,-6.34838v-29.44331l-0.0261,-15.70793v-33.08156l0.26088,-6.34838l0.60876,-4.0873l0.6957,-2.43499l0.6957,-0.95661l1.56534,-1.04359l2.60893,-0.52179l5.39177,-0.52179l8.26161,-1.04359l10.43572,-0.6957l21.56714,-0.52179h9.21819l1.04359,0.08697l1.13052,0.52179l2.08714,2.00017c0,0 21.06599,-0.45814 35.39435,-0.41555c21.61142,0.06422 81.65946,0.76344 81.65946,0.76344l1.47841,-0.26091l0.86964,-0.52179l1.47841,-1.13052l1.04359,-0.43482l1.39144,-0.26091h31.82888l5.21786,0.17394l1.56534,0.26091l1.82626,0.6957l1.73929,1.21749l1.30446,0.6957l15.91446,1.65232l3.65248,0.6957l2.26108,0.86964l1.04359,0.6957l0.52179,0.60876l0.17394,0.78267l0.78267,7.39197l0.86964,8.69643l1.39144,16.87107l0.52179,8.34855l0.00232,0.5871z" data-paper-data="{&quot;index&quot;:null}" stroke-linecap="round"/><path d="M344.19799,136.83395l12.1315,1.04359l3.00025,1.30446l2.21758,1.04359l0.52179,5.08742l1.69582,15.5231l1.04359,14.21864l0.26088,4.56563l0.26088,2.86981l-0.26088,0.91311l0.39132,6.13097l-0.13044,10.56616l-1.04359,13.95776l-2.21758,24.52392l-1.56534,2.21758l-6.52232,1.56534l-14.0249,1.0202l0.48699,-0.85224l0.79137,-0.36525l13.3925,-2.1306l1.4001,-0.48699l1.03489,-0.48699l0.48699,-0.42612l0.30438,-0.85224l0.60876,-5.17436l0.66963,-9.80085l0.30438,-7.67025l0.30438,-6.39189l0.22379,-9.04065l0.00574,-18.12812l-0.2556,-10.32596l-0.30438,-6.39189l-0.30438,-7.67025l-0.66963,-9.80085l-0.60876,-5.17436l-0.30438,-0.85224l-0.48699,-0.42612l-1.03489,-0.48699l-1.4001,-0.48699l-13.3925,-2.1306l-0.79137,-0.36525l-0.48699,-0.85224z" stroke-linecap="round"/><path d="M123.4581,134.19201l-1.6793,1.1755l-0.83967,0.37783l-6.67524,0.75569l-2.47698,0.50379l-1.04957,0.54578l-0.9656,0.92361l-0.62976,0.58777l-0.41982,0.79768l-0.67171,2.43499l-0.41982,3.65248l-0.08398,7.93472v30.12862l0.0261,15.6304v26.47723l0.08398,7.93472l0.41982,3.65248l0.67171,2.43499l0.41982,0.79768l0.62976,0.58777l0.9656,0.92361l1.04957,0.54578l2.47698,0.50379l6.67524,0.75569l0.83967,0.37783l1.6793,1.1755l-13.04599,-1.61674l-1.82626,-1.04359l-1.56534,-1.56534l-0.52179,-3.13072l-0.39132,-4.95695v-81.1376l-0.26088,-3.00025l0.39132,-6.7832l0.65223,-3.52204l1.82626,-2.60893l1.9567,-0.65223l3.3916,-0.39132l2.60893,-0.13044z" data-paper-data="{&quot;index&quot;:null}" stroke-linecap="round"/><path d="M171.26255,244.66933l1.50398,-0.08595l24.32134,0.38674h47.43948l43.57213,-0.81645l2.06258,0.30079l1.2163,1.24402l-9.18511,0.06929h-1.00857l-0.2774,-0.21576l-0.09247,-0.60105l-0.64727,-0.09247l-1.43325,0.2774l-1.06338,0.41612l-0.82364,0.25609l-41.96085,0.31653l-18.019,0.18261h-17.16672l-12.72287,-0.12174l-16.25361,-0.30438z" stroke-linecap="round"/><path d="M274.49602,241.9456l-0.2519,0.08398h-1.1755h-71.66452l-0.41982,-0.20991v-0.67171l0.83967,-11.37733l0.37783,-0.62976h18.30446l7.0531,0.37783l14.31611,0.83967l3.48456,0.4618l2.22508,0.79768l24.9797,8.4805l0.67171,0.33587l1.34346,1.13355z" stroke-linecap="round"/><path d="M268.50489,238.65344l0.7305,0.25781l3.60954,1.16022l0.5586,0.42971l0.90237,0.77348l0.30079,0.47269l-0.47269,0.3444h-5.84631v-3.14393z" stroke-linecap="round"/><path d="M105.90555,182.93842v1.02721" stroke-linecap="round"/><path d="M357.91467,236.08023l-69.64093,0.85224h-7.60938" stroke-linecap="round"/><path d="M287.27366,143.25018c0,0 2.23029,16.97513 2.74877,25.08376c0.25619,4.00713 0.44035,9.89871 0.55843,14.65085l0.03727,13.57592c-0.11748,4.82605 -0.30516,10.96949 -0.56963,15.10537c-0.51845,8.10863 -2.74877,25.08376 -2.74877,25.08376" stroke-linecap="round"/><path d="M247.70493,179.13751v-1.1277l-0.18261,-8.09637l-0.42612,-9.86176l0.18261,-5.11349l0.30438,-1.15662l0.42612,-0.85224l1.09575,-0.97398l2.43499,-1.40014l12.29674,-3.71339l9.31386,-3.04375l3.16549,-0.97398l2.00887,-0.30438h0.85224l0.42612,0.18261l0.48699,0.42612l0.97398,2.31325l0.97398,4.26124l0.7305,5.78312l0.60876,5.23526l0.54786,5.90486l0.30438,6.33098l0.36525,7.79199l0.0602,2.24748l0.04819,13.18146l-0.08232,3.07278l-0.36525,7.79199l-0.30438,6.33098l-0.54786,5.90486l-0.60876,5.23526l-0.7305,5.78312l-0.97398,4.26124l-0.97398,2.31325l-0.48699,0.42612l-0.42612,0.18261h-0.85224l-2.00887,-0.30438l-3.16549,-0.97398l-9.31386,-3.04375l-12.29674,-3.71339l-2.43499,-1.40014l-1.09575,-0.97398l-0.42612,-0.85224l-0.30438,-1.15662l-0.18261,-5.11349l0.42612,-9.86176l0.18261,-8.09637v-1.45685z" stroke-linecap="round"/><path d="M197.32659,244.60272v-1.70448l0.18261,-0.66963l0.42612,-10.22697l0.24351,-3.409l0.36525,-0.42612h24.47172l14.12297,0.7305l5.66138,0.48699l2.61763,0.48699l1.948,0.60876l3.59161,1.27836l26.66322,8.94861l1.15662,0.54786l1.09575,1.21749l0.66963,1.46101" stroke-linecap="round"/><path d="M267.35898,240.56019l1.72129,-0.88166l0.41982,0.16792l-0.16792,0.4618l-1.51138,0.79768" stroke-linecap="round"/><path d="M245.20815,230.81432c0.16232,0.03093 0.44574,0.1279 0.44574,0.1279v11.09035l-1.09156,0.00099v-11.29927c0,0 0.45043,0.04283 0.64582,0.08007z" stroke-linecap="round"/><path d="M193.30146,242.32346h-18.93422l-22.46077,-0.4618l-13.30852,-0.33587l-11.54525,-0.54578l-1.55337,-0.20991l-0.75569,-0.16792l-1.00759,-0.75569l-0.29389,-0.67171l0.04199,-0.83967l0.33587,-0.79768l10.15983,-7.93472l1.25948,-0.62976l0.9656,-0.12597h56.76064l0.67171,0.2519l0.16792,0.29389l0.2519,12.63681l-0.29389,0.2519z" stroke-linecap="round"/><path d="M112.05822,182.69238v-32.07796l0.10437,-1.2523l0.26088,-0.26088l0.62613,-0.10437l0.99138,0.20871l11.37493,5.73965l0.57396,0.57396l0.57396,0.88704l0.41742,1.04359l0.36525,1.72189v23.68108l0.0261,14.88841v23.08715l-0.36525,1.72189l-0.41742,1.04359l-0.57396,0.88704l-0.57396,0.57396l-11.37493,5.73965l-0.99138,0.20871l-0.62613,-0.10437l-0.26088,-0.26088l-0.10437,-1.2523v-30.21866z" stroke-linecap="round"/><path d="M267.57234,240.89314c0,0 -0.16049,3.37353 -0.65181,4.8246c-0.47998,1.41747 -2.38884,3.74142 -2.38884,3.74142l-0.45081,-0.16369l2.91472,-8.60802z" stroke-linecap="butt"/><path d="M170.69813,134.11896l16.25361,-0.30438l12.72287,-0.12174h17.16672l18.019,0.18261l41.96085,0.31653l0.82364,0.25609l1.06338,0.41612l1.43325,0.2774l0.64727,-0.09247l0.09247,-0.60105l0.2774,-0.21576h1.00857l9.18511,0.06929l-1.2163,1.24402l-2.06258,0.30079l-43.57213,-0.81645h-47.43948l-24.32134,0.38674l-1.50398,-0.08595z" data-paper-data="{&quot;index&quot;:null}" stroke-linecap="round"/><path d="M274.55389,138.43226l-1.34346,1.13355l-0.67171,0.33587l-24.9797,8.4805l-2.22508,0.79768l-3.48456,0.4618l-14.31611,0.83967l-7.0531,0.37783h-18.30446l-0.37783,-0.62976l-0.83967,-11.37733v-0.67171l0.41982,-0.20991h71.66452h1.1755l0.2519,0.08398z" data-paper-data="{&quot;index&quot;:null}" stroke-linecap="round"/><path d="M268.26163,141.05225v-3.14393h5.84631l0.47269,0.3444l-0.30079,0.47269l-0.90237,0.77348l-0.5586,0.42971l-3.60954,1.16022l-0.7305,0.25781z" data-paper-data="{&quot;index&quot;:null}" stroke-linecap="round"/><path d="M280.63826,143.06757h7.60938l69.64093,0.85224" data-paper-data="{&quot;index&quot;:null}" stroke-linecap="round"/><path d="M280.51652,136.06695l-0.66963,1.46101l-1.09575,1.21749l-1.15662,0.54786l-26.66322,8.94861l-3.59161,1.27836l-1.948,0.60876l-2.61763,0.48699l-5.66138,0.48699l-14.12297,0.7305h-24.47172l-0.36525,-0.42612l-0.24351,-3.409l-0.42612,-10.22697l-0.18261,-0.66963v-1.70448" data-paper-data="{&quot;index&quot;:null}" stroke-linecap="round"/><path d="M267.79468,138.8941l1.51138,0.79768l0.16792,0.4618l-0.41982,0.16792l-1.72129,-0.88166" data-paper-data="{&quot;index&quot;:null}" stroke-linecap="round"/><path d="M244.53627,149.26578v-11.29927l1.09156,0.00099v11.09035c0,0 -0.28342,0.09698 -0.44574,0.1279c-0.19536,0.03723 -0.64582,0.08007 -0.64582,0.08007z" data-paper-data="{&quot;index&quot;:null}" stroke-linecap="round"/><path d="M193.73716,137.71856l0.29389,0.2519l-0.2519,12.63681l-0.16792,0.29389l-0.67171,0.2519h-56.76064l-0.9656,-0.12597l-1.25948,-0.62976l-10.15983,-7.93472l-0.33587,-0.79768l-0.04199,-0.83967l0.29389,-0.67171l1.00759,-0.75569l0.75569,-0.16792l1.55337,-0.20991l11.54525,-0.54578l13.30852,-0.33587l22.46077,-0.4618h18.93422z" data-paper-data="{&quot;index&quot;:null}" stroke-linecap="round"/><path d="M108.71879,141.06578h1.14792l0.99138,0.36525l1.35663,0.67833l7.21302,5.01338l5.91955,4.49215l3.23266,3.40062l0.54578,0.92361l0.29389,0.67171l0.29389,1.04957v25.31071l0.0261,15.06017v24.30845l-0.29389,1.04957l-0.29389,0.67171l-0.54578,0.92361l-3.23266,3.40062l-5.91955,4.49215l-7.21302,5.01338l-1.35663,0.67833l-0.99138,0.36525h-1.14792" data-paper-data="{&quot;index&quot;:null}" stroke-linecap="round"/><path d="M266.96949,139.31258l-2.91472,-8.60802l0.45081,-0.16369c0,0 1.90886,2.32392 2.38884,3.74142c0.49136,1.45107 0.65181,4.8246 0.65181,4.8246z" data-paper-data="{&quot;index&quot;:null}" stroke-linecap="butt"/><g><path d="M283.01696,197.36433l-2.17453,30.96459l-0.02652,1.30869l-0.32791,-0.32059l-0.22872,-0.40157l-0.27229,-1.68979l2.22483,-32.07204l0.23805,-0.74597l0.84499,-1.1313z" data-paper-data="{&quot;index&quot;:null}" stroke-linecap="round"/><path d="M285.06876,231.43862c0.42168,0.4624 0.38868,1.1791 -0.07376,1.60078c-0.4624,0.42168 -1.1791,0.38868 -1.60078,-0.07373c-0.42168,-0.4624 -0.38868,-1.1791 0.07373,-1.60082c0.4624,-0.42168 1.1791,-0.38868 1.60082,0.07373z" data-paper-data="{&quot;index&quot;:null}" stroke-linecap="butt"/><path d="M283.7208,232.11385l-0.12709,-0.16855l-3.07324,-7.66031l-0.01342,-0.3189l0.07063,-0.20455l0.11265,-0.14738l0.2414,-0.0168l0.18863,0.08961l3.36286,8.38222l0.11519,0.22604c-0.00021,0.00204 -0.00049,0.00412 -0.00077,0.0062c-0.0217,0.15344 -0.2129,0.27141 -0.42704,0.26349c-0.07492,-0.00278 -0.14273,-0.02057 -0.19832,-0.04914z" data-paper-data="{&quot;index&quot;:null}" stroke-linecap="round"/></g><g><path d="M280.86437,153.27369l2.44263,30.25991l0.18729,1.29548l-0.37582,-0.26282l-0.29117,-0.35888l-0.54427,-1.62276l-2.65479,-31.36074l0.19434,-0.77482l0.64917,-1.25395z" data-paper-data="{&quot;index&quot;:null}" stroke-linecap="round"/><path d="M287.98398,185.91233c0.49146,0.38744 0.57579,1.09991 0.18835,1.59138c-0.38744,0.49146 -1.09991,0.57579 -1.59138,0.18835c-0.49146,-0.38744 -0.57579,-1.09995 -0.18835,-1.59138c0.38744,-0.49146 1.09991,-0.57579 1.59138,-0.18835z" data-paper-data="{&quot;index&quot;:null}" stroke-linecap="butt"/><path d="M286.7642,186.79835l-0.15288,-0.14555l-4.28153,-7.05645l-0.06524,-0.31241l0.03632,-0.21336l0.08711,-0.1638l0.23541,-0.05594l0.20071,0.05763l4.68504,7.72147l0.15052,0.2042c0.00011,0.00208 0.00018,0.00416 0.00025,0.00623c0.00359,0.15492 -0.16577,0.30248 -0.37836,0.3296c-0.0744,0.00948 -0.14418,0.00296 -0.20367,-0.01617z" data-paper-data="{&quot;index&quot;:null}" stroke-linecap="round"/></g><path d="M365.34676,198.24733l-0.4618,7.3888l-1.39144,16.87107l-0.86964,8.69643l-0.78267,7.39197l-0.17394,0.78267l-0.52179,0.60876l-1.04359,0.6957l-2.26108,0.86964l-3.65248,0.6957l-15.91446,1.65232l-1.30446,0.6957l-1.73929,1.21749l-1.82626,0.6957l-1.56534,0.26091l-5.21786,0.17394h-31.82888l-1.39144,-0.26091l-1.04359,-0.43482l-1.47841,-1.13052l-0.86964,-0.52179l-1.47841,-0.26091c0,0 -60.04804,0.69919 -81.65946,0.76344c-14.3284,0.04259 -35.39435,-0.41555 -35.39435,-0.41555l-2.08714,2.00017l-1.13052,0.52179l-1.04359,0.08697h-9.21819l-21.56714,-0.52179l-10.43572,-0.6957l-8.26161,-1.04359l-5.39177,-0.52179l-2.60893,-0.52179l-1.56534,-1.04359l-0.6957,-0.95661l-0.6957,-2.43499l-0.60876,-4.0873l-0.26088,-6.34838v-29.44331l-0.0261,-15.70793v-33.08156l0.26088,-6.34838l0.60876,-4.0873l0.6957,-2.43499l0.6957,-0.95661l1.56534,-1.04359l2.60893,-0.52179l5.39177,-0.52179l8.26161,-1.04359l10.43572,-0.6957l21.56714,-0.52179h9.21819l1.04359,0.08697l1.13052,0.52179l2.08714,2.00017c0,0 21.06599,-0.45814 35.39435,-0.41555c21.61142,0.06422 81.65946,0.76344 81.65946,0.76344l1.47841,-0.26091l0.86964,-0.52179l1.47841,-1.13052l1.04359,-0.43482l1.39144,-0.26091h31.82888l5.21786,0.17394l1.56534,0.26091l1.82626,0.6957l1.73929,1.21749l1.30446,0.6957l15.91446,1.65232l3.65248,0.6957l2.26108,0.86964l1.04359,0.6957l0.52179,0.60876l0.17394,0.78267l0.78267,7.39197l0.86964,8.69643l1.39144,16.87107l0.52179,8.34855l0.00232,0.5871z" data-paper-data="{&quot;index&quot;:null}" stroke-linecap="round"/></g><text transform="translate(171.90879,275.30381) scale(0.63595,0.63595)" font-size="40" xml:space="preserve" fill="#ffffff" fill-rule="nonzero" stroke="#ffffff" stroke-width="1" stroke-linecap="butt" stroke-linejoin="miter" stroke-miterlimit="10" stroke-dasharray="" stroke-dashoffset="0" font-family="Sans Serif" font-weight="normal" text-anchor="start" style="mix-blend-mode: normal"><tspan x="0" dy="0">Cyber Polo</tspan></text><text transform="translate(200.00454,295.21826) scale(0.34165,0.34165)" font-size="40" xml:space="preserve" fill-opacity="0.74902" fill="#ffffff" fill-rule="nonzero" stroke="none" stroke-width="1" stroke-linecap="butt" stroke-linejoin="miter" stroke-miterlimit="10" stroke-dasharray="" stroke-dashoffset="0" font-family="Sans Serif" font-weight="normal" text-anchor="start" style="mix-blend-mode: normal"><tspan x="0" dy="0">Sleek Beast</tspan></text><g><text transform="translate(328.1958,181.50925) rotate(-180) scale(0.36525,0.36525)" font-size="40" xml:space="preserve" fill="#000000" fill-rule="nonzero" stroke="none" stroke-width="1" stroke-linecap="butt" stroke-linejoin="miter" stroke-miterlimit="10" stroke-dasharray="" stroke-dashoffset="0" font-family="Pixel" font-weight="normal" text-anchor="start" style="mix-blend-mode: normal"><tspan x="0" dy="0">made by @itsadiesel</tspan></text><path d="M369.68009,188.24733l-0.4618,7.3888l-1.39144,16.87107l-0.86964,8.69643l-0.78267,7.39197l-0.17394,0.78267l-0.52179,0.60876l-1.04359,0.6957l-2.26108,0.86964l-3.65248,0.6957l-15.91446,1.65232l-1.30446,0.6957l-1.73929,1.21749l-1.82626,0.6957l-1.56534,0.26091l-5.21786,0.17394h-31.82888l-1.39144,-0.26091l-1.04359,-0.43482l-1.47841,-1.13052l-0.86964,-0.52179l-1.47841,-0.26091c0,0 -60.04804,0.69919 -81.65946,0.76344c-14.3284,0.04259 -35.39435,-0.41555 -35.39435,-0.41555l-2.08714,2.00017l-1.13052,0.52179l-1.04359,0.08697h-9.21819l-21.56714,-0.52179l-10.43572,-0.6957l-8.26161,-1.04359l-5.39177,-0.52179l-2.60893,-0.52179l-1.56534,-1.04359l-0.6957,-0.95661l-0.6957,-2.43499l-0.60876,-4.0873l-0.26088,-6.34838v-29.44331l-0.0261,-15.70793v-33.08156l0.26088,-6.34838l0.60876,-4.0873l0.6957,-2.43499l0.6957,-0.95661l1.56534,-1.04359l2.60893,-0.52179l5.39177,-0.52179l8.26161,-1.04359l10.43572,-0.6957l21.56714,-0.52179h9.21819l1.04359,0.08697l1.13052,0.52179l2.08714,2.00017c0,0 21.06599,-0.45814 35.39435,-0.41555c21.61142,0.06422 81.65946,0.76344 81.65946,0.76344l1.47841,-0.26091l0.86964,-0.52179l1.47841,-1.13052l1.04359,-0.43482l1.39144,-0.26091h31.82888l5.21786,0.17394l1.56534,0.26091l1.82626,0.6957l1.73929,1.21749l1.30446,0.6957l15.91446,1.65232l3.65248,0.6957l2.26108,0.86964l1.04359,0.6957l0.52179,0.60876l0.17394,0.78267l0.78267,7.39197l0.86964,8.69643l1.39144,16.87107l0.52179,8.34855l0.00232,0.5871z" data-paper-data="{&quot;index&quot;:null}" fill="#929292" stroke="#000000" stroke-width="1.5" stroke-linecap="round"/><path d="M348.53132,126.83395l12.1315,1.04359l3.00025,1.30446l2.21758,1.04359l0.52179,5.08742l1.69582,15.5231l1.04359,14.21864l0.26088,4.56563l0.26088,2.86981l-0.26088,0.91311l0.39132,6.13097l-0.13044,10.56616l-1.04359,13.95776l-2.21758,24.52392l-1.56534,2.21758l-6.52232,1.56534l-14.0249,1.0202l0.48699,-0.85224l0.79137,-0.36525l13.3925,-2.1306l1.4001,-0.48699l1.03489,-0.48699l0.48699,-0.42612l0.30438,-0.85224l0.60876,-5.17436l0.66963,-9.80085l0.30438,-7.67025l0.30438,-6.39189l0.22379,-9.04065l0.00574,-18.12812l-0.2556,-10.32596l-0.30438,-6.39189l-0.30438,-7.67025l-0.66963,-9.80085l-0.60876,-5.17436l-0.30438,-0.85224l-0.48699,-0.42612l-1.03489,-0.48699l-1.4001,-0.48699l-13.3925,-2.1306l-0.79137,-0.36525l-0.48699,-0.85224z" fill="#333333" stroke="#000000" stroke-width="0.75" stroke-linecap="round"/><path d="M127.79143,124.19201l-1.6793,1.1755l-0.83967,0.37783l-6.67524,0.75569l-2.47698,0.50379l-1.04957,0.54578l-0.9656,0.92361l-0.62976,0.58777l-0.41982,0.79768l-0.67171,2.43499l-0.41982,3.65248l-0.08398,7.93472v30.12862l0.0261,15.6304v26.47723l0.08398,7.93472l0.41982,3.65248l0.67171,2.43499l0.41982,0.79768l0.62976,0.58777l0.9656,0.92361l1.04957,0.54578l2.47698,0.50379l6.67524,0.75569l0.83967,0.37783l1.6793,1.1755l-13.04599,-1.61674l-1.82626,-1.04359l-1.56534,-1.56534l-0.52179,-3.13072l-0.39132,-4.95695v-81.1376l-0.26088,-3.00025l0.39132,-6.7832l0.65223,-3.52204l1.82626,-2.60893l1.9567,-0.65223l3.3916,-0.39132l2.60893,-0.13044z" data-paper-data="{&quot;index&quot;:null}" fill="#333333" stroke="#000000" stroke-width="0.75" stroke-linecap="round"/><path d="M175.59588,234.66933l1.50398,-0.08595l24.32134,0.38674h47.43948l43.57213,-0.81645l2.06258,0.30079l1.2163,1.24402l-9.18511,0.06929h-1.00857l-0.2774,-0.21576l-0.09247,-0.60105l-0.64727,-0.09247l-1.43325,0.2774l-1.06338,0.41612l-0.82364,0.25609l-41.96085,0.31653l-18.019,0.18261h-17.16672l-12.72287,-0.12174l-16.25361,-0.30438z" fill="#333333" stroke="#000000" stroke-width="0.75" stroke-linecap="round"/><path d="M278.82935,231.9456l-0.2519,0.08398h-1.1755h-71.66452l-0.41982,-0.20991v-0.67171l0.83967,-11.37733l0.37783,-0.62976h18.30446l7.0531,0.37783l14.31611,0.83967l3.48456,0.4618l2.22508,0.79768l24.9797,8.4805l0.67171,0.33587l1.34346,1.13355z" fill="#666666" stroke="#000000" stroke-width="0.75" stroke-linecap="round"/><path d="M272.83822,228.65344l0.7305,0.25781l3.60954,1.16022l0.5586,0.42971l0.90237,0.77348l0.30079,0.47269l-0.47269,0.3444h-5.84631v-3.14393z" fill="#333333" stroke="#000000" stroke-width="0.5" stroke-linecap="round"/><path d="M110.23888,172.93842v1.02721" fill="none" stroke="#000000" stroke-width="1.5" stroke-linecap="round"/><path d="M362.248,226.08023l-69.64093,0.85224h-7.60938" fill="none" stroke="#000000" stroke-width="0.75" stroke-linecap="round"/><path d="M291.60699,133.25018c0,0 2.23029,16.97513 2.74877,25.08376c0.25619,4.00713 0.44035,9.89871 0.55843,14.65085l0.03727,13.57592c-0.11748,4.82605 -0.30516,10.96949 -0.56963,15.10537c-0.51845,8.10863 -2.74877,25.08376 -2.74877,25.08376" fill="none" stroke="#000000" stroke-width="0.75" stroke-linecap="round"/><path d="M252.03826,169.13751v-1.1277l-0.18261,-8.09637l-0.42612,-9.86176l0.18261,-5.11349l0.30438,-1.15662l0.42612,-0.85224l1.09575,-0.97398l2.43499,-1.40014l12.29674,-3.71339l9.31386,-3.04375l3.16549,-0.97398l2.00887,-0.30438h0.85224l0.42612,0.18261l0.48699,0.42612l0.97398,2.31325l0.97398,4.26124l0.7305,5.78312l0.60876,5.23526l0.54786,5.90486l0.30438,6.33098l0.36525,7.79199l0.0602,2.24748l0.04819,13.18146l-0.08232,3.07278l-0.36525,7.79199l-0.30438,6.33098l-0.54786,5.90486l-0.60876,5.23526l-0.7305,5.78312l-0.97398,4.26124l-0.97398,2.31325l-0.48699,0.42612l-0.42612,0.18261h-0.85224l-2.00887,-0.30438l-3.16549,-0.97398l-9.31386,-3.04375l-12.29674,-3.71339l-2.43499,-1.40014l-1.09575,-0.97398l-0.42612,-0.85224l-0.30438,-1.15662l-0.18261,-5.11349l0.42612,-9.86176l0.18261,-8.09637v-1.45685z" fill="#666666" stroke="#333333" stroke-width="1.25" stroke-linecap="round"/><path d="M201.65992,234.60272v-1.70448l0.18261,-0.66963l0.42612,-10.22697l0.24351,-3.409l0.36525,-0.42612h24.47172l14.12297,0.7305l5.66138,0.48699l2.61763,0.48699l1.948,0.60876l3.59161,1.27836l26.66322,8.94861l1.15662,0.54786l1.09575,1.21749l0.66963,1.46101" fill="none" stroke="#000000" stroke-width="0.75" stroke-linecap="round"/><path d="M271.69231,230.56019l1.72129,-0.88166l0.41982,0.16792l-0.16792,0.4618l-1.51138,0.79768" fill="#333333" stroke="#000000" stroke-width="0.5" stroke-linecap="round"/><path d="M249.54148,220.81432c0.16232,0.03093 0.44574,0.1279 0.44574,0.1279v11.09035l-1.09156,0.00099v-11.29927c0,0 0.45043,0.04283 0.64582,0.08007z" fill="#333333" stroke="#000000" stroke-width="0.75" stroke-linecap="round"/><path d="M197.63479,232.32346h-18.93422l-22.46077,-0.4618l-13.30852,-0.33587l-11.54525,-0.54578l-1.55337,-0.20991l-0.75569,-0.16792l-1.00759,-0.75569l-0.29389,-0.67171l0.04199,-0.83967l0.33587,-0.79768l10.15983,-7.93472l1.25948,-0.62976l0.9656,-0.12597h56.76064l0.67171,0.2519l0.16792,0.29389l0.2519,12.63681l-0.29389,0.2519z" fill="#666666" stroke="#000000" stroke-width="0.75" stroke-linecap="round"/><path d="M116.39155,172.69238v-32.07796l0.10437,-1.2523l0.26088,-0.26088l0.62613,-0.10437l0.99138,0.20871l11.37493,5.73965l0.57396,0.57396l0.57396,0.88704l0.41742,1.04359l0.36525,1.72189v23.68108l0.0261,14.88841v23.08715l-0.36525,1.72189l-0.41742,1.04359l-0.57396,0.88704l-0.57396,0.57396l-11.37493,5.73965l-0.99138,0.20871l-0.62613,-0.10437l-0.26088,-0.26088l-0.10437,-1.2523v-30.21866z" fill="#666666" stroke="#000000" stroke-width="0.75" stroke-linecap="round"/><path d="M271.90567,230.89314c0,0 -0.16049,3.37353 -0.65181,4.8246c-0.47998,1.41747 -2.38884,3.74142 -2.38884,3.74142l-0.45081,-0.16369l2.91472,-8.60802z" fill="#333333" stroke="#000000" stroke-width="0.75" stroke-linecap="butt"/><path d="M175.03146,124.11896l16.25361,-0.30438l12.72287,-0.12174h17.16672l18.019,0.18261l41.96085,0.31653l0.82364,0.25609l1.06338,0.41612l1.43325,0.2774l0.64727,-0.09247l0.09247,-0.60105l0.2774,-0.21576h1.00857l9.18511,0.06929l-1.2163,1.24402l-2.06258,0.30079l-43.57213,-0.81645h-47.43948l-24.32134,0.38674l-1.50398,-0.08595z" data-paper-data="{&quot;index&quot;:null}" fill="#333333" stroke="#000000" stroke-width="0.75" stroke-linecap="round"/><path d="M278.88722,128.43226l-1.34346,1.13355l-0.67171,0.33587l-24.9797,8.4805l-2.22508,0.79768l-3.48456,0.4618l-14.31611,0.83967l-7.0531,0.37783h-18.30446l-0.37783,-0.62976l-0.83967,-11.37733v-0.67171l0.41982,-0.20991h71.66452h1.1755l0.2519,0.08398z" data-paper-data="{&quot;index&quot;:null}" fill="#666666" stroke="#000000" stroke-width="0.75" stroke-linecap="round"/><path d="M272.59496,131.05225v-3.14393h5.84631l0.47269,0.3444l-0.30079,0.47269l-0.90237,0.77348l-0.5586,0.42971l-3.60954,1.16022l-0.7305,0.25781z" data-paper-data="{&quot;index&quot;:null}" fill="#333333" stroke="#000000" stroke-width="0.5" stroke-linecap="round"/><path d="M284.97159,133.06757h7.60938l69.64093,0.85224" data-paper-data="{&quot;index&quot;:null}" fill="none" stroke="#000000" stroke-width="0.75" stroke-linecap="round"/><path d="M284.84985,126.06695l-0.66963,1.46101l-1.09575,1.21749l-1.15662,0.54786l-26.66322,8.94861l-3.59161,1.27836l-1.948,0.60876l-2.61763,0.48699l-5.66138,0.48699l-14.12297,0.7305h-24.47172l-0.36525,-0.42612l-0.24351,-3.409l-0.42612,-10.22697l-0.18261,-0.66963v-1.70448" data-paper-data="{&quot;index&quot;:null}" fill="none" stroke="#000000" stroke-width="0.75" stroke-linecap="round"/><path d="M272.12801,128.8941l1.51138,0.79768l0.16792,0.4618l-0.41982,0.16792l-1.72129,-0.88166" data-paper-data="{&quot;index&quot;:null}" fill="#333333" stroke="#000000" stroke-width="0.5" stroke-linecap="round"/><path d="M248.8696,139.26578v-11.29927l1.09156,0.00099v11.09035c0,0 -0.28342,0.09698 -0.44574,0.1279c-0.19536,0.03723 -0.64582,0.08007 -0.64582,0.08007z" data-paper-data="{&quot;index&quot;:null}" fill="#333333" stroke="#000000" stroke-width="0.75" stroke-linecap="round"/><path d="M198.07049,127.71856l0.29389,0.2519l-0.2519,12.63681l-0.16792,0.29389l-0.67171,0.2519h-56.76064l-0.9656,-0.12597l-1.25948,-0.62976l-10.15983,-7.93472l-0.33587,-0.79768l-0.04199,-0.83967l0.29389,-0.67171l1.00759,-0.75569l0.75569,-0.16792l1.55337,-0.20991l11.54525,-0.54578l13.30852,-0.33587l22.46077,-0.4618h18.93422z" data-paper-data="{&quot;index&quot;:null}" fill="#666666" stroke="#000000" stroke-width="0.75" stroke-linecap="round"/><path d="M113.05212,131.06578h1.14792l0.99138,0.36525l1.35663,0.67833l7.21302,5.01338l5.91955,4.49215l3.23266,3.40062l0.54578,0.92361l0.29389,0.67171l0.29389,1.04957v25.31071l0.0261,15.06017v24.30845l-0.29389,1.04957l-0.29389,0.67171l-0.54578,0.92361l-3.23266,3.40062l-5.91955,4.49215l-7.21302,5.01338l-1.35663,0.67833l-0.99138,0.36525h-1.14792" data-paper-data="{&quot;index&quot;:null}" fill="none" stroke="#000000" stroke-width="0.75" stroke-linecap="round"/><path d="M271.30282,129.31258l-2.91472,-8.60802l0.45081,-0.16369c0,0 1.90886,2.32392 2.38884,3.74142c0.49136,1.45107 0.65181,4.8246 0.65181,4.8246z" data-paper-data="{&quot;index&quot;:null}" fill="#333333" stroke="#000000" stroke-width="0.75" stroke-linecap="butt"/><g fill="#343434" stroke="#000000"><path d="M287.35029,187.36433l-2.17453,30.96459l-0.02652,1.30869l-0.32791,-0.32059l-0.22872,-0.40157l-0.27229,-1.68979l2.22483,-32.07204l0.23805,-0.74597l0.84499,-1.1313z" data-paper-data="{&quot;index&quot;:null}" stroke-width="0.3" stroke-linecap="round"/><path d="M289.40209,221.43862c0.42168,0.4624 0.38868,1.1791 -0.07376,1.60078c-0.4624,0.42168 -1.1791,0.38868 -1.60078,-0.07373c-0.42168,-0.4624 -0.38868,-1.1791 0.07373,-1.60082c0.4624,-0.42168 1.1791,-0.38868 1.60082,0.07373z" data-paper-data="{&quot;index&quot;:null}" stroke-width="0.5" stroke-linecap="butt"/><path d="M288.05413,222.11385l-0.12709,-0.16855l-3.07324,-7.66031l-0.01342,-0.3189l0.07063,-0.20455l0.11265,-0.14738l0.2414,-0.0168l0.18863,0.08961l3.36286,8.38222l0.11519,0.22604c-0.00021,0.00204 -0.00049,0.00412 -0.00077,0.0062c-0.0217,0.15344 -0.2129,0.27141 -0.42704,0.26349c-0.07492,-0.00278 -0.14273,-0.02057 -0.19832,-0.04914z" data-paper-data="{&quot;index&quot;:null}" stroke-width="0.3" stroke-linecap="round"/></g><g fill="#343434" stroke="#000000"><path d="M285.1977,143.27369l2.44263,30.25991l0.18729,1.29548l-0.37582,-0.26282l-0.29117,-0.35888l-0.54427,-1.62276l-2.65479,-31.36074l0.19434,-0.77482l0.64917,-1.25395z" data-paper-data="{&quot;index&quot;:null}" stroke-width="0.3" stroke-linecap="round"/><path d="M292.31731,175.91233c0.49146,0.38744 0.57579,1.09991 0.18835,1.59138c-0.38744,0.49146 -1.09991,0.57579 -1.59138,0.18835c-0.49146,-0.38744 -0.57579,-1.09995 -0.18835,-1.59138c0.38744,-0.49146 1.09991,-0.57579 1.59138,-0.18835z" data-paper-data="{&quot;index&quot;:null}" stroke-width="0.5" stroke-linecap="butt"/><path d="M291.09753,176.79835l-0.15288,-0.14555l-4.28153,-7.05645l-0.06524,-0.31241l0.03632,-0.21336l0.08711,-0.1638l0.23541,-0.05594l0.20071,0.05763l4.68504,7.72147l0.15052,0.2042c0.00011,0.00208 0.00018,0.00416 0.00025,0.00623c0.00359,0.15492 -0.16577,0.30248 -0.37836,0.3296c-0.0744,0.00948 -0.14418,0.00296 -0.20367,-0.01617z" data-paper-data="{&quot;index&quot;:null}" stroke-width="0.3" stroke-linecap="round"/></g><path d="M369.68009,188.24733l-0.4618,7.3888l-1.39144,16.87107l-0.86964,8.69643l-0.78267,7.39197l-0.17394,0.78267l-0.52179,0.60876l-1.04359,0.6957l-2.26108,0.86964l-3.65248,0.6957l-15.91446,1.65232l-1.30446,0.6957l-1.73929,1.21749l-1.82626,0.6957l-1.56534,0.26091l-5.21786,0.17394h-31.82888l-1.39144,-0.26091l-1.04359,-0.43482l-1.47841,-1.13052l-0.86964,-0.52179l-1.47841,-0.26091c0,0 -60.04804,0.69919 -81.65946,0.76344c-14.3284,0.04259 -35.39435,-0.41555 -35.39435,-0.41555l-2.08714,2.00017l-1.13052,0.52179l-1.04359,0.08697h-9.21819l-21.56714,-0.52179l-10.43572,-0.6957l-8.26161,-1.04359l-5.39177,-0.52179l-2.60893,-0.52179l-1.56534,-1.04359l-0.6957,-0.95661l-0.6957,-2.43499l-0.60876,-4.0873l-0.26088,-6.34838v-29.44331l-0.0261,-15.70793v-33.08156l0.26088,-6.34838l0.60876,-4.0873l0.6957,-2.43499l0.6957,-0.95661l1.56534,-1.04359l2.60893,-0.52179l5.39177,-0.52179l8.26161,-1.04359l10.43572,-0.6957l21.56714,-0.52179h9.21819l1.04359,0.08697l1.13052,0.52179l2.08714,2.00017c0,0 21.06599,-0.45814 35.39435,-0.41555c21.61142,0.06422 81.65946,0.76344 81.65946,0.76344l1.47841,-0.26091l0.86964,-0.52179l1.47841,-1.13052l1.04359,-0.43482l1.39144,-0.26091h31.82888l5.21786,0.17394l1.56534,0.26091l1.82626,0.6957l1.73929,1.21749l1.30446,0.6957l15.91446,1.65232l3.65248,0.6957l2.26108,0.86964l1.04359,0.6957l0.52179,0.60876l0.17394,0.78267l0.78267,7.39197l0.86964,8.69643l1.39144,16.87107l0.52179,8.34855l0.00232,0.5871z" data-paper-data="{&quot;index&quot;:null}" fill="none" stroke="#000000" stroke-width="1.5" stroke-linecap="round"/></g></g></g></svg>