<svg version="1.1" xmlns="http://www.w3.org/2000/svg" xmlns:xlink="http://www.w3.org/1999/xlink" width="183.78988" height="83.33988" viewBox="0,0,183.78988,83.33988"><defs><radialGradient cx="207.225" cy="164" r="25.66994" gradientUnits="userSpaceOnUse" id="color-1"><stop offset="0" stop-color="#000000" stop-opacity="0.25098"/><stop offset="1" stop-color="#000000" stop-opacity="0"/></radialGradient><radialGradient cx="239.825" cy="164" r="25.66994" gradientUnits="userSpaceOnUse" id="color-2"><stop offset="0" stop-color="#000000" stop-opacity="0.25098"/><stop offset="1" stop-color="#000000" stop-opacity="0"/></radialGradient><radialGradient cx="174.225" cy="164" r="25.66994" gradientUnits="userSpaceOnUse" id="color-3"><stop offset="0" stop-color="#000000" stop-opacity="0.25098"/><stop offset="1" stop-color="#000000" stop-opacity="0"/></radialGradient><radialGradient cx="272.825" cy="164" r="25.66994" gradientUnits="userSpaceOnUse" id="color-4"><stop offset="0" stop-color="#000000" stop-opacity="0.25098"/><stop offset="1" stop-color="#000000" stop-opacity="0"/></radialGradient><radialGradient cx="306.225" cy="164" r="25.66994" gradientUnits="userSpaceOnUse" id="color-5"><stop offset="0" stop-color="#000000" stop-opacity="0.25098"/><stop offset="1" stop-color="#000000" stop-opacity="0"/></radialGradient><radialGradient cx="173.775" cy="196" r="25.66994" gradientUnits="userSpaceOnUse" id="color-6"><stop offset="0" stop-color="#000000" stop-opacity="0.25098"/><stop offset="1" stop-color="#000000" stop-opacity="0"/></radialGradient><radialGradient cx="206.375" cy="196" r="25.66994" gradientUnits="userSpaceOnUse" id="color-7"><stop offset="0" stop-color="#000000" stop-opacity="0.25098"/><stop offset="1" stop-color="#000000" stop-opacity="0"/></radialGradient><radialGradient cx="239.375" cy="196" r="25.66994" gradientUnits="userSpaceOnUse" id="color-8"><stop offset="0" stop-color="#000000" stop-opacity="0.25098"/><stop offset="1" stop-color="#000000" stop-opacity="0"/></radialGradient><radialGradient cx="272.875" cy="196" r="25.66994" gradientUnits="userSpaceOnUse" id="color-9"><stop offset="0" stop-color="#000000" stop-opacity="0.25098"/><stop offset="1" stop-color="#000000" stop-opacity="0"/></radialGradient><radialGradient cx="305.875" cy="196" r="25.66994" gradientUnits="userSpaceOnUse" id="color-10"><stop offset="0" stop-color="#000000" stop-opacity="0.25098"/><stop offset="1" stop-color="#000000" stop-opacity="0"/></radialGradient></defs><g transform="translate(-148.10506,-138.33006)"><g data-paper-data="{&quot;isPaintingLayer&quot;:true}" fill-rule="nonzero" stroke-linecap="butt" stroke-linejoin="miter" stroke-miterlimit="10" stroke-dasharray="" stroke-dashoffset="0" style="mix-blend-mode: normal"><g stroke="none" stroke-width="none"><path d="M181.55506,164c0,-14.17712 11.49283,-25.66994 25.66994,-25.66994c14.17711,0 25.66994,11.49282 25.66994,25.66994c0,14.17712 -11.49283,25.66994 -25.66994,25.66994c-14.17711,0 -25.66994,-11.49282 -25.66994,-25.66994z" fill="url(#color-1)"/><path d="M214.15506,164c0,-14.17712 11.49283,-25.66994 25.66994,-25.66994c14.17711,0 25.66994,11.49282 25.66994,25.66994c0,14.17712 -11.49283,25.66994 -25.66994,25.66994c-14.17711,0 -25.66994,-11.49282 -25.66994,-25.66994z" fill="url(#color-2)"/><path d="M148.55506,164c0,-14.17712 11.49282,-25.66994 25.66994,-25.66994c14.17712,0 25.66994,11.49282 25.66994,25.66994c0,14.17712 -11.49282,25.66994 -25.66994,25.66994c-14.17712,0 -25.66994,-11.49282 -25.66994,-25.66994z" fill="url(#color-3)"/><path d="M247.15506,164c0,-14.17712 11.49283,-25.66994 25.66994,-25.66994c14.17711,0 25.66994,11.49282 25.66994,25.66994c0,14.17712 -11.49283,25.66994 -25.66994,25.66994c-14.17711,0 -25.66994,-11.49282 -25.66994,-25.66994z" fill="url(#color-4)"/><path d="M280.55506,164c0,-14.17712 11.49282,-25.66994 25.66994,-25.66994c14.17712,0 25.66994,11.49282 25.66994,25.66994c0,14.17712 -11.49282,25.66994 -25.66994,25.66994c-14.17712,0 -25.66994,-11.49282 -25.66994,-25.66994z" fill="url(#color-5)"/><path d="M148.10506,196c0,-14.17712 11.49282,-25.66994 25.66994,-25.66994c14.17712,0 25.66994,11.49282 25.66994,25.66994c0,14.17712 -11.49282,25.66994 -25.66994,25.66994c-14.17712,0 -25.66994,-11.49282 -25.66994,-25.66994z" fill="url(#color-6)"/><path d="M180.70506,196c0,-14.17712 11.49282,-25.66994 25.66994,-25.66994c14.17712,0 25.66994,11.49282 25.66994,25.66994c0,14.17712 -11.49282,25.66994 -25.66994,25.66994c-14.17712,0 -25.66994,-11.49282 -25.66994,-25.66994z" fill="url(#color-7)"/><path d="M213.70506,196c0,-14.17712 11.49282,-25.66994 25.66994,-25.66994c14.17712,0 25.66994,11.49282 25.66994,25.66994c0,14.17712 -11.49283,25.66994 -25.66994,25.66994c-14.17712,0 -25.66994,-11.49282 -25.66994,-25.66994z" fill="url(#color-8)"/><path d="M247.20506,196c0,-14.17712 11.49282,-25.66994 25.66994,-25.66994c14.17712,0 25.66994,11.49282 25.66994,25.66994c0,14.17712 -11.49282,25.66994 -25.66994,25.66994c-14.17712,0 -25.66994,-11.49282 -25.66994,-25.66994z" fill="url(#color-9)"/><path d="M280.20506,196c0,-14.17712 11.49282,-25.66994 25.66994,-25.66994c14.17712,0 25.66994,11.49282 25.66994,25.66994c0,14.17712 -11.49282,25.66994 -25.66994,25.66994c-14.17712,0 -25.66994,-11.49282 -25.66994,-25.66994z" fill="url(#color-10)"/></g><text transform="translate(153.32778,173.13176) scale(0.76098,0.76098)" font-size="40" xml:space="preserve" fill="#000000" fill-rule="nonzero" stroke="#000000" stroke-width="0" stroke-linecap="butt" stroke-linejoin="miter" stroke-miterlimit="10" stroke-dasharray="" stroke-dashoffset="0" font-family="Sans Serif" font-weight="normal" text-anchor="start" style="mix-blend-mode: normal"><tspan x="0" dy="0">⚒️</tspan></text><text transform="translate(186.32778,173.13176) scale(0.76098,0.76098)" font-size="40" xml:space="preserve" fill="#000000" fill-rule="nonzero" stroke="#000000" stroke-width="0" stroke-linecap="butt" stroke-linejoin="miter" stroke-miterlimit="10" stroke-dasharray="" stroke-dashoffset="0" font-family="Sans Serif" font-weight="normal" text-anchor="start" style="mix-blend-mode: normal"><tspan x="0" dy="0">⚒️</tspan></text><text transform="translate(218.92778,173.13176) scale(0.76098,0.76098)" font-size="40" xml:space="preserve" fill="#000000" fill-rule="nonzero" stroke="#000000" stroke-width="0" stroke-linecap="butt" stroke-linejoin="miter" stroke-miterlimit="10" stroke-dasharray="" stroke-dashoffset="0" font-family="Sans Serif" font-weight="normal" text-anchor="start" style="mix-blend-mode: normal"><tspan x="0" dy="0">⚒️</tspan></text><text transform="translate(251.92778,173.13176) scale(0.76098,0.76098)" font-size="40" xml:space="preserve" fill="#000000" fill-rule="nonzero" stroke="#000000" stroke-width="0" stroke-linecap="butt" stroke-linejoin="miter" stroke-miterlimit="10" stroke-dasharray="" stroke-dashoffset="0" font-family="Sans Serif" font-weight="normal" text-anchor="start" style="mix-blend-mode: normal"><tspan x="0" dy="0">⚒️</tspan></text><text transform="translate(285.32778,173.13176) scale(0.76098,0.76098)" font-size="40" xml:space="preserve" fill="#000000" fill-rule="nonzero" stroke="#000000" stroke-width="0" stroke-linecap="butt" stroke-linejoin="miter" stroke-miterlimit="10" stroke-dasharray="" stroke-dashoffset="0" font-family="Sans Serif" font-weight="normal" text-anchor="start" style="mix-blend-mode: normal"><tspan x="0" dy="0">⚒️</tspan></text><text transform="translate(152.87778,205.13176) scale(0.76098,0.76098)" font-size="40" xml:space="preserve" fill="#000000" fill-rule="nonzero" stroke="#000000" stroke-width="0" stroke-linecap="butt" stroke-linejoin="miter" stroke-miterlimit="10" stroke-dasharray="" stroke-dashoffset="0" font-family="Sans Serif" font-weight="normal" text-anchor="start" style="mix-blend-mode: normal"><tspan x="0" dy="0">⚒️</tspan></text><text transform="translate(185.47778,205.13176) scale(0.76098,0.76098)" font-size="40" xml:space="preserve" fill="#000000" fill-rule="nonzero" stroke="#000000" stroke-width="0" stroke-linecap="butt" stroke-linejoin="miter" stroke-miterlimit="10" stroke-dasharray="" stroke-dashoffset="0" font-family="Sans Serif" font-weight="normal" text-anchor="start" style="mix-blend-mode: normal"><tspan x="0" dy="0">⚒️</tspan></text><text transform="translate(218.47778,205.13176) scale(0.76098,0.76098)" font-size="40" xml:space="preserve" fill="#000000" fill-rule="nonzero" stroke="#000000" stroke-width="0" stroke-linecap="butt" stroke-linejoin="miter" stroke-miterlimit="10" stroke-dasharray="" stroke-dashoffset="0" font-family="Sans Serif" font-weight="normal" text-anchor="start" style="mix-blend-mode: normal"><tspan x="0" dy="0">⚒️</tspan></text><text transform="translate(251.97778,205.13176) scale(0.76098,0.76098)" font-size="40" xml:space="preserve" fill="#000000" fill-rule="nonzero" stroke="#000000" stroke-width="0" stroke-linecap="butt" stroke-linejoin="miter" stroke-miterlimit="10" stroke-dasharray="" stroke-dashoffset="0" font-family="Sans Serif" font-weight="normal" text-anchor="start" style="mix-blend-mode: normal"><tspan x="0" dy="0">⚒️</tspan></text><text transform="translate(284.97778,205.13176) scale(0.76098,0.76098)" font-size="40" xml:space="preserve" fill="#000000" fill-rule="nonzero" stroke="#000000" stroke-width="0" stroke-linecap="butt" stroke-linejoin="miter" stroke-miterlimit="10" stroke-dasharray="" stroke-dashoffset="0" font-family="Sans Serif" font-weight="normal" text-anchor="start" style="mix-blend-mode: normal"><tspan x="0" dy="0">⚒️</tspan></text></g></g></svg>