<svg version="1.1" xmlns="http://www.w3.org/2000/svg" xmlns:xlink="http://www.w3.org/1999/xlink" width="55.65" height="55.65" viewBox="0,0,55.65,55.65"><defs><radialGradient cx="240" cy="180" r="27.825" gradientUnits="userSpaceOnUse" id="color-1"><stop offset="0" stop-color="#000000"/><stop offset="1" stop-color="#000000" stop-opacity="0"/></radialGradient></defs><g transform="translate(-212.175,-152.175)"><g data-paper-data="{&quot;isPaintingLayer&quot;:true}" fill-rule="nonzero" stroke-linecap="butt" stroke-linejoin="miter" stroke-miterlimit="10" stroke-dasharray="" stroke-dashoffset="0" style="mix-blend-mode: normal"><path d="M212.175,180c0,-15.36732 12.45768,-27.825 27.825,-27.825c15.36732,0 27.825,12.45768 27.825,27.825c0,15.36732 -12.45768,27.825 -27.825,27.825c-15.36732,0 -27.825,-12.45768 -27.825,-27.825z" fill="url(#color-1)" stroke="none" stroke-width="0"/><path d="M221.3,180c0,-10.32772 8.37228,-18.7 18.7,-18.7c10.32772,0 18.7,8.37228 18.7,18.7c0,10.32772 -8.37228,18.7 -18.7,18.7c-10.32772,0 -18.7,-8.37228 -18.7,-18.7z" fill="#8c8e00" stroke="#e09400" stroke-width="3.5"/><path d="M221.3,180c0,-10.32772 8.37228,-18.7 18.7,-18.7c10.32772,0 18.7,8.37228 18.7,18.7c0,10.32772 -8.37228,18.7 -18.7,18.7c-10.32772,0 -18.7,-8.37228 -18.7,-18.7z" fill="#a3a500" stroke="#faff00" stroke-width="2.5"/><text transform="translate(230.72898,191.06057) scale(0.81041,0.81041)" font-size="40" xml:space="preserve" fill="#faff00" fill-rule="nonzero" stroke="none" stroke-width="1" stroke-linecap="butt" stroke-linejoin="miter" stroke-miterlimit="10" stroke-dasharray="" stroke-dashoffset="0" font-family="Sans Serif" font-weight="normal" text-anchor="start" style="mix-blend-mode: normal"><tspan x="0" dy="0">$</tspan></text></g></g></svg>