<svg version="1.1" xmlns="http://www.w3.org/2000/svg" xmlns:xlink="http://www.w3.org/1999/xlink" width="226.6266" height="179.32301" viewBox="0,0,226.6266,179.32301"><defs><linearGradient x1="347.12826" y1="179.63064" x2="343.49156" y2="179.63064" gradientUnits="userSpaceOnUse" id="color-1"><stop offset="0" stop-color="#9e9e9e"/><stop offset="1" stop-color="#b7b7b7"/></linearGradient><linearGradient x1="342.03197" y1="217.80455" x2="328.37582" y2="217.80455" gradientUnits="userSpaceOnUse" id="color-2"><stop offset="0" stop-color="#898989"/><stop offset="1" stop-color="#d8d8d8"/></linearGradient><linearGradient x1="342.00815" y1="142.19525" x2="328.35207" y2="142.19525" gradientUnits="userSpaceOnUse" id="color-3"><stop offset="0" stop-color="#898989"/><stop offset="1" stop-color="#d8d8d8"/></linearGradient><linearGradient x1="134.9824" y1="179.99995" x2="133.31932" y2="179.99995" gradientUnits="userSpaceOnUse" id="color-4"><stop offset="0" stop-color="#888888"/><stop offset="1" stop-color="#dedede"/></linearGradient><linearGradient x1="264.75048" y1="233.22864" x2="256.15578" y2="233.22864" gradientUnits="userSpaceOnUse" id="color-5"><stop offset="0" stop-color="#ababab"/><stop offset="1" stop-color="#d4d4d4"/></linearGradient><linearGradient x1="264.72664" y1="126.7712" x2="256.13194" y2="126.7712" gradientUnits="userSpaceOnUse" id="color-6"><stop offset="0" stop-color="#ababab"/><stop offset="1" stop-color="#d4d4d4"/></linearGradient></defs><g transform="translate(-125.56181,-120.16588)"><g data-paper-data="{&quot;isPaintingLayer&quot;:true}" fill-rule="nonzero" stroke-linejoin="miter" stroke-miterlimit="10" stroke-dasharray="" stroke-dashoffset="0" style="mix-blend-mode: normal"><g fill="#400101" stroke="none" stroke-width="0"><text transform="translate(314.75305,189.83046) rotate(-180) scale(0.322,0.322)" font-size="40" xml:space="preserve" fill="#400101" fill-rule="nonzero" stroke="none" stroke-width="0" stroke-linecap="butt" stroke-linejoin="miter" stroke-miterlimit="10" stroke-dasharray="" stroke-dashoffset="0" font-family="Pixel" font-weight="normal" text-anchor="start" style="mix-blend-mode: normal"><tspan x="0" dy="0">made by @itsadiesel</tspan></text><path d="M348.43817,189.10665l-0.20124,6.03755l-0.87212,6.57423l-1.20752,7.11091l-1.20753,6.03755l-2.01252,7.04375l-1.7442,5.70208l-1.34167,2.81752l-1.07336,1.47585l-1.67708,1.94543l-2.28085,1.7442l-1.54292,1.20752l-2.61628,1.47585l-2.21373,0.73792l-3.08587,0.40251l-4.29335,0.40251l-8.31839,0.53668h-16.30135l-4.56171,-0.06709l-3.89088,-0.20123l-4.62879,-0.53667l-3.28711,-0.3354l-3.89088,-0.26832c0,0 -25.43096,0.74055 -39.78381,0.61958c-28.66802,-0.24159 -55.34103,-1.22334 -55.34103,-1.22334l-2.5492,1.00625l-2.68335,0.46959l-4.09212,0.3354l-7.58047,0.26833h-9.79422l-6.44007,-0.20124l-7.58047,-0.4696l-2.81752,-0.53668l-1.94543,-1.00623l-1.20752,-1.40875l-1.94543,-3.89088l-1.47585,-3.28711l-1.47585,-4.89711l-1.61,-6.23879l-0.805,-4.76295l-1.07336,-9.66006l-0.37825,-12.48223l-0.04805,-5.35637v-0.01153l0.40251,-13.28262l1.07336,-9.66006l0.805,-4.76295l1.61,-6.23879l1.47585,-4.89712l1.47583,-3.28712l1.94544,-3.89086l1.20752,-1.40876l1.94543,-1.00623l2.81751,-0.53668l7.58047,-0.4696l6.44007,-0.20123h9.79422l7.58047,0.26832l4.09211,0.3354l2.68336,0.4696l2.5492,1.00625c0,0 26.67309,-0.98173 55.34103,-1.22335c14.35282,-0.12097 39.78381,0.61958 39.78381,0.61958l3.89088,-0.26833l3.28712,-0.3354l4.62879,-0.53668l3.89086,-0.20123l4.56172,-0.06707h16.30134l8.31839,0.53667l4.29335,0.40251l3.08587,0.40253l2.21373,0.73792l2.61628,1.47583l1.54292,1.20753l2.28084,1.7442l1.67708,1.94543l1.07336,1.47585l1.34169,2.81751l1.7442,5.70208l2.01252,7.04375l1.20752,6.03755l1.20753,7.11091l0.87211,6.57423l0.20124,6.03755z" stroke-linecap="round"/><path d="M341.38813,218.4698l-0.39358,3.93558l-0.71558,3.75667l-0.57245,1.93204l-1.61,2.898l-1.86049,2.43294l-0.42935,1.50267l-3.97139,2.79067l-4.86581,1.50268l-4.04293,-0.67981l-26.94084,0.07155l-2.43294,-1.10913l-2.18246,-1.75313l-1.39533,-1.53845l-1.18068,-2.46871l-0.17887,-3.11271l0.67981,-2.32555l1.68154,-3.32735l2.39713,-2.7549l0.85864,-0.82288l18.4615,-2.36133l4.40071,-0.53667l13.8461,-0.71558l3.00536,0.03577l3.54199,0.21465l2.50449,0.78709l0.71558,0.5009z" stroke-linecap="round"/><path d="M340.68453,159.67502l-0.71559,0.5009l-2.50448,0.78711l-3.54199,0.21464l-3.00536,0.03577l-13.8461,-0.71558l-4.40072,-0.53667l-18.46149,-2.36132l-0.85864,-0.82288l-2.39712,-2.7549l-1.68154,-3.32735l-0.67981,-2.32555l0.17887,-3.11271l1.18068,-2.46871l1.39532,-1.53845l2.18246,-1.75313l2.43294,-1.10914l26.94085,0.07155l4.0429,-0.67981l4.86581,1.50267l3.97138,2.79068l0.42933,1.50268l1.86049,2.43294l1.61,2.89799l0.57245,1.93204l0.71558,3.75672l0.39358,3.93559z" data-paper-data="{&quot;index&quot;:null}" stroke-linecap="round"/><path d="M342.68868,171.4244l1.32588,10.98595l0.11361,4.20497l-0.11361,7.8038l-0.68188,6.17488l-1.96989,14.81214l-0.2273,0.60612l-0.6061,-1.7805l0.4546,-6.09912l1.7805,-16.36528l-0.07578,-2.04565l-0.11361,-7.57649l-0.94708,-8.713l-1.02284,-7.00827l-0.11361,-3.48519l0.60612,-2.68968l0.71977,4.01558z" stroke-linecap="round"/><path d="M136.39193,185.1009v-4.40578l0.20908,-4.30732l0.54364,-4.7255l0.75272,-6.60732l0.87817,-4.18181l1.42184,-5.35279l1.21273,-3.42913l1.1291,-1.37998l1.84005,-2.13274l1.42184,-1.00364l1.92366,-0.45999l1.96548,-0.45999l9.66006,-0.96181l16.14197,-0.96181l19.23653,-0.45999l22.62381,-0.12543h48.84399l7.23459,0.04182l2.9273,0.33453l1.21273,0.37638l0.96181,0.50182l1.42184,1.46363l1.84005,2.2164l2.09092,3.30364l1.84005,3.88911l1.79819,3.63817l1.1291,3.22003l1.67276,6.31456l0.8782,5.98004l0.33453,5.6873v6.56277l0.02378,1.69263v6.51788l-0.33453,5.6873l-0.87819,5.98004l-1.67276,6.31456l-1.1291,3.22003l-1.79819,3.63818l-1.84005,3.88911l-2.09093,3.30364l-1.84005,2.2164l-1.42184,1.46363l-0.96181,0.50183l-1.21273,0.37638l-2.9273,0.33453l-7.23459,0.04182h-48.84398l-22.62382,-0.12543l-19.23652,-0.45999l-16.14196,-0.96181l-9.66006,-0.96181l-1.96548,-0.45999l-1.92366,-0.45999l-1.42184,-1.00364l-1.84005,-2.13275l-1.1291,-1.37998l-1.21273,-3.42913l-1.42184,-5.35279l-0.87817,-4.18181l-0.75273,-6.60734l-0.54365,-4.72549l-0.20908,-4.30733v-5.09104v-4.11874z" stroke-linecap="round"/><path d="M340.75669,162.21893l0.87131,6.06123l0.90919,7.23557l0.37884,3.78826l0.30308,3.86403l0.15154,3.75042l0.03785,3.75041l-0.41669,6.59153l-0.83343,7.61441l-1.32588,9.88738" stroke-linecap="round"/><path d="M137.24502,185.12738v-3.55407l0.16729,-3.17821l0.12543,-2.30001l0.96182,-8.48914l0.29273,-2.5091l0.54364,-2.76l1.08728,-4.68366l1.00364,-3.42913l0.54365,-1.25455l0.79459,-1.08728l1.54728,-2.04909l1.33816,-1.21273l0.92003,-0.58546l2.21636,-0.50182l2.46731,-0.33453l8.82372,-0.8782l9.61824,-0.58546l5.31096,-0.33453l10.20372,-0.2509l8.65643,-0.2509l16.97831,-0.04182h52.984l9.28369,0.12543l2.71822,0.20908l1.25454,0.33453l1.00365,0.66909l0.75272,0.75273l1.33816,1.37998l1.79819,2.42548l2.04911,3.72185l1.75637,3.68004l1.42184,3.3455l0.79459,2.80184l1.17089,4.18181l1.00364,5.56184l0.25091,3.26186l0.04182,7.52731v2.79314l0.02378,1.63037v2.90607l-0.04182,7.52731l-0.25091,3.26186l-1.00364,5.56183l-1.17089,4.18181l-0.79459,2.80184l-1.42184,3.3455l-1.75637,3.68003l-2.04911,3.72185l-1.79819,2.42548l-1.33816,1.37998l-0.75273,0.75273l-1.00364,0.66909l-1.25455,0.33451l-2.71822,0.20908l-9.28368,0.12545h-52.984l-16.97831,-0.04182l-8.65643,-0.2509l-10.20372,-0.2509l-5.31096,-0.33453l-9.61824,-0.58548l-8.82372,-0.8782l-2.46731,-0.33453l-2.21636,-0.50182l-0.92003,-0.58548l-1.33816,-1.21271l-1.54728,-2.04909l-0.79459,-1.08729l-0.54364,-1.25454l-1.00365,-3.42913l-1.08728,-4.68366l-0.54364,-2.76l-0.29274,-2.5091l-0.96181,-8.48914l-0.12543,-2.30001l-0.16729,-3.17821v-3.96006l-0.02065,-4.44324z" data-paper-data="{&quot;index&quot;:null}" stroke-linecap="round"/><path d="M163.39509,220.9578l0.25421,0.59313l-8.17717,5.80451l-0.4258,2.85775l-5.55241,-0.63127l-2.72008,-0.45335l-2.31334,-1.63544l-2.26247,-3.05689l-0.65807,-1.57113l1.26397,-0.50917l12.4564,-5.08425l0.72026,-0.25422l1.2287,1.48291l1.14392,0.97447l0.88974,0.42366l2.33029,0.88973z" stroke-linecap="round"/><path d="M161.54943,156.21158l-2.33029,0.88973l-0.88974,0.42366l-1.14392,0.97445l-1.22869,1.4829l-0.72026,-0.25421l-12.4564,-5.08421l-1.20344,-0.46584l0.42232,-1.44875l2.22459,-2.86514l2.23758,-1.83431l2.66323,-0.52432l5.85784,-0.7402l0.46605,2.87908l8.17715,5.80451l-0.25421,0.59314z" data-paper-data="{&quot;index&quot;:null}" stroke-linecap="round"/><path d="M251.14073,223.58467l-1.7371,-1.52526l-0.55078,-2.66924l6.56716,1.27104l23.22674,9.5373l-0.87236,0.92341l-0.73872,0.44757l-1.63606,0.41609l-6.77684,0.05927z" stroke-linecap="round"/><path d="M205.34013,232.43977h-7.62636l0.63552,-9.44821l4.78765,0.08474l0.80499,-0.04239l-0.21186,0.97447z" stroke-linecap="round"/><path d="M140.69655,239.16237l1.30038,-0.92885l1.30038,-0.43348l5.20156,-0.43347h24.45979l4.76813,0.30961l3.34384,0.49538l-2.08607,1.07156l-2.03369,0.5084l-7.23089,0.62141h-17.28644l-10.16847,-0.5649z" stroke-linecap="round"/><path d="M280.27215,239.03854l5.07772,-0.18577l7.74041,-0.30961l8.85506,-0.06191h13.18972l8.11197,0.06191l3.1581,0.49538l-1.3897,0.43056l-12.31518,1.01686h-19.60255l-6.89197,-0.45194z" stroke-linecap="round"/><path d="M260.99606,235.22932c1.35044,-0.76261 2.66253,-0.55286 2.93061,0.46847c0.26808,1.02133 -0.60932,2.46748 -1.95979,3.23006c-1.35044,0.76261 -2.66253,0.55286 -2.93061,-0.46848c-0.26808,-1.02133 0.60932,-2.46748 1.95979,-3.23006z" stroke-linecap="butt"/><path d="M327.35888,232.67315c-2.65718,-2.09415 -2.64206,-6.64311 0.03377,-10.16038c2.67583,-3.51724 6.99908,-4.67093 9.65626,-2.57674c2.65718,2.09415 2.64207,6.64309 -0.03376,10.16037c-2.67583,3.51724 -6.99909,4.67094 -9.65627,2.57674z" stroke-linecap="butt"/><path d="M336.11013,230.17588c-2.62985,2.99667 -6.49867,3.70026 -8.64123,1.57155c-2.14256,-2.12871 -1.7475,-6.28361 0.88235,-9.28027c2.62985,-2.99667 6.49867,-3.70026 8.64123,-1.57155c2.14256,2.12871 1.74751,6.28361 -0.88234,9.28027z" stroke-linecap="butt"/><path d="M300.44949,240.14792c0,0 -8.03132,-1.56716 -10.78567,-6.55436c-3.77159,-6.82911 4.34562,-14.00858 4.34562,-14.00858l0.62141,-0.84739l0.96037,-2.2597l1.58179,-4.7453l1.07336,-5.76216l0.45194,-5.87511l0.28246,-5.70566v-4.24738l-0.02377,-4.33205v-3.20005l-0.28246,-5.70566l-0.45194,-5.87511l-1.07336,-5.76216l-1.58179,-4.7453l-0.96038,-2.25969l-0.62141,-0.84738c0,0 -8.11723,-7.17943 -4.34564,-14.00858c2.75431,-4.9872 10.78567,-6.55436 10.78567,-6.55436" stroke-linecap="round"/><path d="M203.76741,223.38515l1.48225,9.55781c0,0 -2.45299,1.60033 -3.22803,2.49087c-0.82346,0.94617 -1.57645,3.02916 -1.57645,3.02916" stroke-linecap="round"/><path d="M197.94071,231.97189l0.3067,-8.53563" stroke-linecap="round"/><path d="M155.00705,229.87626l0.35781,-2.04446l0.25555,-0.45999l0.20443,-0.25555l7.15562,-5.16226l0.93944,-0.5867" stroke-linecap="round"/><path d="M254.82775,220.4207l23.76686,9.76226" stroke-linecap="round"/><path d="M250.07442,223.02735l18.40015,8.89337c0,0 3.95915,1.51123 5.40308,2.63977c1.51696,1.18564 3.49029,4.3113 3.49029,4.3113" stroke-linecap="round"/><path d="M297.18028,197.85658c0.06184,0.15895 0.03328,0.6626 0.03328,0.6626c0,0 -0.25608,3.94048 -0.37501,5.05295c-0.11893,1.11247 -0.46717,2.82371 -0.46717,2.82371l-0.84218,3.51722l-1.68432,5.15207l-1.08989,2.92276l-0.64399,1.28803l-0.24768,0.29724l-0.39629,0.29724l-0.59451,0.19814h-0.94121c0,0 -0.64594,-0.07404 -0.84127,-0.24767c-0.19537,-0.17366 -0.05042,-0.5449 -0.05042,-0.5449l0.59451,-2.42742l1.23847,-4.16128l0.84218,-3.22003l0.89168,-4.60708l0.79265,-4.75571l0.3468,-1.73386c0,0 0.15692,-0.44343 0.34722,-0.57315c0.19027,-0.12973 0.74263,-0.1699 0.74263,-0.1699h2.03109c0,0 0.26135,0.09515 0.31349,0.22913z" stroke-linecap="round"/><path d="M141.07307,239.92077l-0.92003,-1.99331l-0.66444,-0.97113l-1.27779,-1.37998l-2.30001,-1.78891l-1.07336,-1.22665l-0.92003,-1.48224l-1.02225,-1.99331l-1.12446,-2.81114l-1.02225,-4.39558l-0.3067,-2.91335" stroke-linecap="round"/><path d="M150.76044,178.53052h1.12446l0.81777,0.25555l0.3067,0.35781l0.0511,1.02224v4.26691l0.02378,6.91371v5.48705l-0.05111,1.02225l-0.3067,0.3578l-0.81777,0.25555h-1.12446" stroke-linecap="round"/><path d="M140.6561,229.44668c0,0 0.10732,0.35363 0,0.51821c-0.10732,0.16456 -0.55518,0.33308 -0.55518,0.33308l-2.59081,0.8883l-0.77728,0.18506h-0.55518l-0.40712,-0.2221l-0.7402,-0.85129l-0.8883,-1.66554l-0.96231,-2.44275l-0.18506,-0.8883l0.037,-0.29611l0.44413,-0.48116h0.40712l4.1083,1.8136l0.6662,0.51821l0.51821,0.55518z" stroke-linecap="round"/><path d="M341.20891,160.59329l0.86392,5.65466l1.2566,10.28839l0.78534,7.30395l0.07852,4.31953l0.02377,0.68027l-0.07851,4.31953l-0.78534,7.30395l-1.25658,10.28839l-0.86393,5.65466" stroke-linecap="round"/><path d="M151.14227,171.74788l-0.44724,3.3542l-0.49196,7.06616l0.08941,5.67974l0.13416,8.98919l0.22357,4.56171l0.71559,5.00891l1.08577,4.03214l-0.13416,2.50449l-0.17887,0.6261l-0.40251,0.44722l-0.31307,0.22358l-7.5134,3.39894l-0.89445,0.13416l-0.805,-0.08941l-0.67081,-0.35781l-0.40253,-0.49196l-0.58138,-1.47585l-0.805,-3.48835l-0.71558,-5.59032l-0.49197,-4.9642l-0.17887,-3.53306l-0.08786,-5.77901l-0.02091,-7.19938l0.08499,-5.58888l0.17887,-3.53306l0.49197,-4.9642l0.71558,-5.59033l0.805,-3.48835l0.5814,-1.47585l0.40251,-0.49196l0.67081,-0.35781l0.805,-0.08942l0.89445,0.13417l7.51339,3.39894l0.31307,0.22358l0.40251,0.44722l0.17887,0.6261l0.13416,2.50448z" stroke-linecap="round"/><path d="M140.38606,229.3749c0,0 0.1019,0.33572 0,0.49201c-0.1019,0.15622 -0.52715,0.31627 -0.52715,0.31627l-2.45985,0.84335l-0.73795,0.17571h-0.52715l-0.38652,-0.21085l-0.70282,-0.80824l-0.84335,-1.58134l-0.91366,-2.31929l-0.17571,-0.84335l0.03514,-0.28109l0.42169,-0.45683h0.38652l3.90055,1.7219l0.63253,0.49201l0.492,0.52714z" stroke-linecap="round"/><path d="M293.96101,219.51123l23.02807,-2.9273l9.75764,-0.53668l4.58613,-0.24391l4.19582,0.14636l1.75636,0.09757l1.36606,0.34149l1.70761,0.68305l0.82937,0.7318" stroke-linecap="round"/><path d="M269.22468,144.8491l4.85613,0.16838l3.46338,0.65399l1.16134,1.17111l-23.30929,9.49605l-6.56715,1.27104l0.55078,-2.66926l1.73709,-1.52525z" data-paper-data="{&quot;index&quot;:null}" stroke-linecap="round"/><path d="M203.70632,152.99149l0.21186,0.97444l-0.805,-0.04239l-4.78765,0.08474l-0.63552,-9.44821h7.62638z" data-paper-data="{&quot;index&quot;:null}" stroke-linecap="round"/><path d="M142.24127,137.19186l10.16847,-0.5649h17.28645l7.23089,0.62141l2.0337,0.5084l2.08607,1.07156l-3.34385,0.49539l-4.76813,0.30961h-24.45979l-5.20156,-0.43343l-1.30038,-0.43347l-1.30038,-0.92886z" data-paper-data="{&quot;index&quot;:null}" stroke-linecap="round"/><path d="M286.18195,136.96584l6.89196,-0.45194h19.60257l12.31518,1.01683l1.38968,0.43054l-3.15809,0.49539l-8.11197,0.06191h-13.18972l-8.85507,-0.06191l-7.74041,-0.30961l-5.0777,-0.18577z" data-paper-data="{&quot;index&quot;:null}" stroke-linecap="round"/><path d="M259.01246,138.54047c0.26808,-1.02133 1.58013,-1.23104 2.93061,-0.46847c1.35044,0.76261 2.2279,2.20879 1.95979,3.23006c-0.26808,1.02133 -1.58014,1.23106 -2.93061,0.46848c-1.35044,-0.76261 -2.2279,-2.2088 -1.95979,-3.23007z" data-paper-data="{&quot;index&quot;:null}" stroke-linecap="butt"/><path d="M336.99135,146.90352c2.67583,3.51724 2.69092,8.06618 0.03377,10.16038c-2.65718,2.09415 -6.98043,0.9405 -9.65626,-2.57674c-2.67583,-3.51724 -2.69092,-8.06618 -0.03377,-10.16038c2.65718,-2.09415 6.98043,-0.9405 9.65626,2.57674z" data-paper-data="{&quot;index&quot;:null}" stroke-linecap="butt"/><path d="M336.08635,146.82402c2.62985,2.99667 3.02488,7.15157 0.88235,9.28027c-2.14256,2.12871 -6.01138,1.42507 -8.64123,-1.57156c-2.62985,-2.99667 -3.02488,-7.15157 -0.88235,-9.28026c2.14256,-2.12871 6.01138,-1.42508 8.64123,1.57155z" data-paper-data="{&quot;index&quot;:null}" stroke-linecap="butt"/><path d="M200.42138,138.53686c0,0 0.75294,2.08308 1.57644,3.02916c0.77509,0.89051 3.22803,2.49088 3.22803,2.49088l-1.48224,9.55781" data-paper-data="{&quot;index&quot;:null}" stroke-linecap="round"/><path d="M197.9169,145.02803l0.3067,8.53563" data-paper-data="{&quot;index&quot;:null}" stroke-linecap="round"/><path d="M163.8961,155.63261l-0.93944,-0.58669l-7.15561,-5.16228l-0.20445,-0.25555l-0.25555,-0.45999l-0.35781,-2.04445" data-paper-data="{&quot;index&quot;:null}" stroke-linecap="round"/><path d="M127.79447,186.64497l0.22139,-8.52335l0.05111,-5.62226l0.20443,-3.42448l0.56222,-5.57116l0.40888,-2.55557l0.35781,-1.27779l0.40888,-0.66444l0.20445,-0.3578l0.97113,-1.07336l3.0667,-2.81114l1.07336,-0.56222l1.4311,-0.3067h3.32226l1.56504,0.3333l14.51568,5.92892l1.17554,0.97113l0.76667,1.53335l0.3578,2.65782v4.4978v15.56641l0.02378,5.63662v16.16272v4.49779l-0.3578,2.65782l-0.76666,1.53335l-1.17555,0.97113l-14.51567,5.92892l-1.56505,0.3333h-3.32225l-1.43109,-0.3067l-1.07336,-0.56221l-3.0667,-2.81114l-0.97114,-1.07336l-0.20443,-0.35781l-0.40889,-0.66444l-0.3578,-1.2778l-0.40888,-2.55557l-0.56221,-5.57114l-0.20445,-3.42448l-0.0511,-5.62226l-0.20508,-7.89597z" data-paper-data="{&quot;index&quot;:null}" stroke-linecap="round"/><path d="M254.80399,156.57915l23.76686,-9.76226" data-paper-data="{&quot;index&quot;:null}" stroke-linecap="round"/><path d="M277.34418,138.12795c0,0 -1.97337,3.12569 -3.49029,4.31129c-1.44389,1.12854 -5.40308,2.63978 -5.40308,2.63978l-18.40014,8.89337" data-paper-data="{&quot;index&quot;:null}" stroke-linecap="round"/><path d="M296.84298,179.37243h-2.03109c0,0 -0.55237,-0.04017 -0.74263,-0.1699c-0.19027,-0.12973 -0.34721,-0.57315 -0.34721,-0.57315l-0.3468,-1.73386l-0.79265,-4.75571l-0.89168,-4.60708l-0.84218,-3.22003l-1.23847,-4.16128l-0.59451,-2.42742c0,0 -0.14495,-0.37128 0.0504,-0.5449c0.19537,-0.17366 0.84127,-0.24767 0.84127,-0.24767h0.9412l0.59451,0.19814l0.39629,0.29724l0.24767,0.29724l0.64399,1.28803l1.08989,2.92276l1.68432,5.15207l0.84218,3.51724c0,0 0.34821,1.71123 0.46718,2.82371c0.11893,1.11247 0.375,5.05295 0.375,5.05295c0,0 0.02856,0.50362 -0.03328,0.66261c-0.0521,0.13395 -0.31349,0.22913 -0.31349,0.22913z" data-paper-data="{&quot;index&quot;:null}" stroke-linecap="round"/><path d="M130.41809,158.03483l0.3067,-2.91333l1.02225,-4.39557l1.12446,-2.81115l1.02225,-1.99331l0.92003,-1.48224l1.07336,-1.22665l2.30001,-1.78891l1.2778,-1.37998l0.66444,-0.97113l0.92003,-1.99331" data-paper-data="{&quot;index&quot;:null}" stroke-linecap="round"/><path d="M140.63229,147.55325l-1.48048,2.03563l-0.51822,0.55518l-0.6662,0.51821l-4.1083,1.8136h-0.40712l-0.44413,-0.48116l-0.03701,-0.29612l0.18506,-0.8883l0.96231,-2.44275l0.8883,-1.66555l0.7402,-0.85129l0.40712,-0.2221h0.55518l0.77728,0.18507l2.59081,0.88829c0,0 0.44786,0.16857 0.55518,0.33308c0.10732,0.16456 0,0.51821 0,0.51821z" data-paper-data="{&quot;index&quot;:null}" stroke-linecap="round"/><path d="M130.31931,186.27174v-1.09266l0.05854,-4.03971l0.1171,-6.55714l0.1171,-3.57126l0.05853,-0.81964l0.3513,-0.23421l0.3513,0.05854l0.46834,1.28803l0.1171,0.76106v1.69784l-0.19272,7.41807v5.04327l0.02378,4.99547v4.59973l0.19272,7.41807v1.69784l-0.1171,0.76106l-0.46832,1.28803l-0.3513,0.05853l-0.3513,-0.2342l-0.05853,-0.81964l-0.1171,-3.57128l-0.1171,-6.55712l-0.05853,-4.03971v-0.73693z" data-paper-data="{&quot;index&quot;:null}" stroke-linecap="round"/><path d="M140.36224,147.62497l-1.40562,1.9327l-0.49201,0.52715l-0.63253,0.492l-3.90054,1.7219h-0.38652l-0.42169,-0.45683l-0.03514,-0.28109l0.17569,-0.84335l0.91366,-2.31929l0.84335,-1.58134l0.70282,-0.80824l0.38652,-0.21084h0.52715l0.73795,0.17569l2.45985,0.84335c0,0 0.42525,0.16001 0.52715,0.31627c0.1019,0.15622 0,0.49201 0,0.49201z" data-paper-data="{&quot;index&quot;:null}" stroke-linecap="round"/><path d="M137.24502,185.12738v-3.55407l0.16729,-3.17821l0.12543,-2.30001l0.96182,-8.48914l0.29273,-2.5091l0.54364,-2.76l1.08728,-4.68366l1.00364,-3.42913l0.54365,-1.25455l0.79459,-1.08728l1.54728,-2.04909l1.33816,-1.21273l0.92003,-0.58546l2.21636,-0.50182l2.46731,-0.33453l8.82372,-0.8782l9.61824,-0.58546l5.31096,-0.33453l10.20372,-0.2509l8.65643,-0.2509l16.97831,-0.04182h52.984l9.28369,0.12543l2.71822,0.20908l1.25454,0.33453l1.00365,0.66909l0.75272,0.75273l1.33816,1.37998l1.79819,2.42548l2.04911,3.72185l1.75637,3.68004l1.42184,3.3455l0.79459,2.80184l1.17089,4.18181l1.00364,5.56184l0.25091,3.26186l0.04182,7.52731v2.79314l0.02378,1.63037v2.90607l-0.04182,7.52731l-0.25091,3.26186l-1.00364,5.56183l-1.17089,4.18181l-0.79459,2.80184l-1.42184,3.3455l-1.75637,3.68003l-2.04911,3.72185l-1.79819,2.42548l-1.33816,1.37998l-0.75273,0.75273l-1.00364,0.66909l-1.25455,0.33451l-2.71822,0.20908l-9.28368,0.12545h-52.984l-16.97831,-0.04182l-8.65643,-0.2509l-10.20372,-0.2509l-5.31096,-0.33453l-9.61824,-0.58548l-8.82372,-0.8782l-2.46731,-0.33453l-2.21636,-0.50182l-0.92003,-0.58548l-1.33816,-1.21271l-1.54728,-2.04909l-0.79459,-1.08729l-0.54364,-1.25454l-1.00365,-3.42913l-1.08728,-4.68366l-0.54364,-2.76l-0.29274,-2.5091l-0.96181,-8.48914l-0.12543,-2.30001l-0.16729,-3.17821v-3.96006l-0.02065,-4.44324z" data-paper-data="{&quot;index&quot;:null}" stroke-linecap="round"/><path d="M262.75007,189.06468v0.63799l-0.25555,5.16228l-0.71558,5.21338l-0.97114,5.52008l-1.73779,5.72449l-1.99331,5.00891l-1.84005,3.27115l-0.97114,1.27779l-1.43109,1.12447l-1.53335,0.61333l-1.22665,0.25555l-9.09785,0.25555h-42.01364l-9.55781,-0.20443l-12.52233,-0.3067l-8.48452,-0.71558l-6.03115,-0.92003l-2.19779,-0.61333l-1.68668,-0.71558l-1.53335,-1.48224l-1.4311,-1.58447l-1.37998,-2.40224l-1.32891,-2.7089l-0.97113,-3.47556l-0.86889,-3.78225l-0.40888,-4.8045l-0.3067,-6.1334v-1.15296l-0.02378,-7.68628v-0.72185l0.3067,-6.13342l0.40888,-4.80449l0.86887,-3.78225l0.97114,-3.47556l1.32891,-2.7089l1.37998,-2.40224l1.43109,-1.58445l1.53335,-1.48225l1.68668,-0.71558l2.19779,-0.61333l6.03115,-0.92003l8.48453,-0.71559l12.52233,-0.3067l9.55781,-0.20443h42.01364l9.09785,0.25555l1.22665,0.25555l1.53335,0.61333l1.4311,1.12447l0.97113,1.2778l1.84005,3.27114l1.99331,5.00891l1.7378,5.72449l0.97113,5.52008l0.71558,5.21338l0.25555,5.16228v0.1209z" stroke-linecap="round"/><path d="M348.43817,189.10665l-0.20124,6.03755l-0.87212,6.57423l-1.20752,7.11091l-1.20753,6.03755l-2.01252,7.04375l-1.7442,5.70208l-1.34167,2.81752l-1.07336,1.47585l-1.67708,1.94543l-2.28085,1.7442l-1.54292,1.20752l-2.61628,1.47585l-2.21373,0.73792l-3.08587,0.40251l-4.29335,0.40251l-8.31839,0.53668h-16.30135l-4.56171,-0.06709l-3.89088,-0.20123l-4.62879,-0.53667l-3.28711,-0.3354l-3.89088,-0.26832c0,0 -25.43096,0.74055 -39.78381,0.61958c-28.66802,-0.24159 -55.34103,-1.22334 -55.34103,-1.22334l-2.5492,1.00625l-2.68335,0.46959l-4.09212,0.3354l-7.58047,0.26833h-9.79422l-6.44007,-0.20124l-7.58047,-0.4696l-2.81752,-0.53668l-1.94543,-1.00623l-1.20752,-1.40875l-1.94543,-3.89088l-1.47585,-3.28711l-1.47585,-4.89711l-1.61,-6.23879l-0.805,-4.76295l-1.07336,-9.66006l-0.37825,-12.48223l-0.04805,-5.35637v-0.01153l0.40251,-13.28262l1.07336,-9.66006l0.805,-4.76295l1.61,-6.23879l1.47585,-4.89712l1.47583,-3.28712l1.94544,-3.89086l1.20752,-1.40876l1.94543,-1.00623l2.81751,-0.53668l7.58047,-0.4696l6.44007,-0.20123h9.79422l7.58047,0.26832l4.09211,0.3354l2.68336,0.4696l2.5492,1.00625c0,0 26.67309,-0.98173 55.34103,-1.22335c14.35282,-0.12097 39.78381,0.61958 39.78381,0.61958l3.89088,-0.26833l3.28712,-0.3354l4.62879,-0.53668l3.89086,-0.20123l4.56172,-0.06707h16.30134l8.31839,0.53667l4.29335,0.40251l3.08587,0.40253l2.21373,0.73792l2.61628,1.47583l1.54292,1.20753l2.28084,1.7442l1.67708,1.94543l1.07336,1.47585l1.34169,2.81751l1.7442,5.70208l2.01252,7.04375l1.20752,6.03755l1.20753,7.11091l0.87211,6.57423l0.20124,6.03755z" stroke-linecap="round"/><path d="M261.27588,238.16446c0.81787,1.50497 0.5838,3.94666 -0.74271,6.1817c-1.63317,2.75166 -4.33436,4.19979 -6.19468,3.38882l-0.56486,-0.26737l-0.22635,-0.1725l-0.28239,-0.28678l-0.08256,-0.37064l-0.02653,-0.25637c0,0 1.14564,-3.71204 1.74885,-5.46567c0.60319,-1.75366 2.74378,-5.05917 2.74378,-5.05917c0,0 0.33178,-0.28908 0.57099,-0.34402c0.23919,-0.05501 0.62655,0.06866 0.62655,0.06866l0.45317,0.28809l0.50921,0.40242l0.76167,0.88823z" data-paper-data="{&quot;index&quot;:null}" stroke-linecap="butt"/><path d="M260.54615,139.84023l-0.76166,0.88823l-0.50921,0.4024l-0.45317,0.28809c0,0 -0.38738,0.12364 -0.62655,0.06866c-0.23916,-0.05501 -0.57099,-0.34402 -0.57099,-0.34402c0,0 -2.14059,-3.30551 -2.74378,-5.05917c-0.60319,-1.75366 -1.74885,-5.46565 -1.74885,-5.46565l0.02651,-0.25637l0.08256,-0.37064l0.28239,-0.28678l0.22635,-0.1725l0.56485,-0.26737c1.86041,-0.81102 4.56154,0.63718 6.19468,3.38881c1.32651,2.23504 1.56066,4.67667 0.74271,6.1817z" data-paper-data="{&quot;index&quot;:null}" stroke-linecap="butt"/><path d="M341.16427,159.19625l-0.82937,0.7318l-1.70761,0.68305l-1.36606,0.34149l-1.75637,0.09757l-4.19582,0.14636l-4.58613,-0.24391l-9.75765,-0.53668l-23.02806,-2.9273" data-paper-data="{&quot;index&quot;:null}" stroke-linecap="round"/><path d="M334.25967,141.2029c0,0 4.00649,4.05541 5.76447,8.43742c1.29908,3.23807 1.21223,10.21191 1.21223,10.21191l-0.20124,1.00623c0,0 -0.27834,0.65676 -0.3595,0.95102c-0.09544,0.34585 -0.17715,0.99439 -0.17715,0.99439c0,0 -0.02206,1.66336 0.24715,4.20513c0.26921,2.5417 0.88625,6.49653 0.88625,6.49653l0.86857,8.72443l0.17039,2.92086l0.121,5.03131l-0.26762,4.58778l-0.86856,8.72442c0,0 -0.61702,3.95479 -0.88625,6.49653c-0.26921,2.5417 -0.24715,4.20513 -0.24715,4.20513c0,0 0.08174,0.64854 0.17715,0.99439c0.08115,0.29424 0.3595,0.951 0.3595,0.951l0.20123,1.00625c0,0 0.0869,6.97383 -1.21222,10.2119c-1.75805,4.38201 -5.76448,8.43743 -5.76448,8.43743" data-paper-data="{&quot;index&quot;:null}" stroke-linecap="round"/></g><g><text transform="translate(317.75305,181.33044) rotate(-180) scale(0.322,0.322)" font-size="40" xml:space="preserve" fill="#000000" fill-rule="nonzero" stroke="none" stroke-width="1" stroke-linecap="butt" stroke-linejoin="miter" stroke-miterlimit="10" stroke-dasharray="" stroke-dashoffset="0" font-family="Pixel" font-weight="normal" text-anchor="start" style="mix-blend-mode: normal"><tspan x="0" dy="0">made by @itsadiesel</tspan></text><path d="M351.43817,180.60663l-0.20124,6.03755l-0.87212,6.57423l-1.20752,7.11091l-1.20753,6.03755l-2.01252,7.04375l-1.7442,5.70208l-1.34167,2.81752l-1.07336,1.47585l-1.67708,1.94543l-2.28085,1.7442l-1.54292,1.20752l-2.61628,1.47585l-2.21373,0.73792l-3.08587,0.40251l-4.29335,0.40251l-8.31839,0.53668h-16.30135l-4.56171,-0.06709l-3.89088,-0.20123l-4.62879,-0.53667l-3.28711,-0.3354l-3.89088,-0.26832c0,0 -25.43096,0.74055 -39.78381,0.61958c-28.66802,-0.24159 -55.34103,-1.22334 -55.34103,-1.22334l-2.5492,1.00625l-2.68335,0.46959l-4.09212,0.3354l-7.58047,0.26833h-9.79422l-6.44007,-0.20124l-7.58047,-0.4696l-2.81752,-0.53668l-1.94543,-1.00623l-1.20752,-1.40875l-1.94543,-3.89088l-1.47585,-3.28711l-1.47585,-4.89711l-1.61,-6.23879l-0.805,-4.76295l-1.07336,-9.66006l-0.37825,-12.48223l-0.04805,-5.35637v-0.01153l0.40251,-13.28262l1.07336,-9.66006l0.805,-4.76295l1.61,-6.23879l1.47585,-4.89712l1.47583,-3.28712l1.94544,-3.89086l1.20752,-1.40876l1.94543,-1.00623l2.81751,-0.53668l7.58047,-0.4696l6.44007,-0.20123h9.79422l7.58047,0.26832l4.09211,0.3354l2.68336,0.4696l2.5492,1.00625c0,0 26.67309,-0.98173 55.34103,-1.22335c14.35282,-0.12097 39.78381,0.61958 39.78381,0.61958l3.89088,-0.26833l3.28712,-0.3354l4.62879,-0.53668l3.89086,-0.20123l4.56172,-0.06707h16.30134l8.31839,0.53667l4.29335,0.40251l3.08587,0.40253l2.21373,0.73792l2.61628,1.47583l1.54292,1.20753l2.28084,1.7442l1.67708,1.94543l1.07336,1.47585l1.34169,2.81751l1.7442,5.70208l2.01252,7.04375l1.20752,6.03755l1.20753,7.11091l0.87211,6.57423l0.20124,6.03755z" fill="#b43535" stroke="#000000" stroke-width="1.5" stroke-linecap="round"/><path d="M344.38813,209.96979l-0.39358,3.93558l-0.71558,3.75667l-0.57245,1.93204l-1.61,2.898l-1.86049,2.43294l-0.42935,1.50267l-3.97139,2.79067l-4.86581,1.50268l-4.04293,-0.67981l-26.94084,0.07155l-2.43294,-1.10913l-2.18246,-1.75313l-1.39533,-1.53845l-1.18068,-2.46871l-0.17887,-3.11271l0.67981,-2.32555l1.68154,-3.32735l2.39713,-2.7549l0.85864,-0.82288l18.4615,-2.36133l4.40071,-0.53667l13.8461,-0.71558l3.00536,0.03577l3.54199,0.21465l2.50449,0.78709l0.71558,0.5009z" fill="#bb3636" stroke="#c63939" stroke-width="0.05" stroke-linecap="round"/><path d="M343.68453,151.17501l-0.71559,0.5009l-2.50448,0.78711l-3.54199,0.21464l-3.00536,0.03577l-13.8461,-0.71558l-4.40072,-0.53667l-18.46149,-2.36132l-0.85864,-0.82288l-2.39712,-2.7549l-1.68154,-3.32735l-0.67981,-2.32555l0.17887,-3.11271l1.18068,-2.46871l1.39532,-1.53845l2.18246,-1.75313l2.43294,-1.10914l26.94085,0.07155l4.0429,-0.67981l4.86581,1.50267l3.97138,2.79068l0.42933,1.50268l1.86049,2.43294l1.61,2.89799l0.57245,1.93204l0.71558,3.75672l0.39358,3.93559z" data-paper-data="{&quot;index&quot;:null}" fill="#bb3636" stroke="#c63939" stroke-width="0.05" stroke-linecap="round"/><path d="M345.68868,162.92439l1.32588,10.98595l0.11361,4.20497l-0.11361,7.8038l-0.68188,6.17488l-1.96989,14.81214l-0.2273,0.60612l-0.6061,-1.7805l0.4546,-6.09912l1.7805,-16.36528l-0.07578,-2.04565l-0.11361,-7.57649l-0.94708,-8.713l-1.02284,-7.00827l-0.11361,-3.48519l0.60612,-2.68968l0.71977,4.01558z" fill="url(#color-1)" stroke="#ff0000" stroke-width="0.05" stroke-linecap="round"/><path d="M139.39194,176.60088v-4.40578l0.20908,-4.30732l0.54364,-4.7255l0.75272,-6.60732l0.87817,-4.18181l1.42184,-5.35279l1.21273,-3.42913l1.1291,-1.37998l1.84005,-2.13274l1.42184,-1.00364l1.92366,-0.45999l1.96548,-0.45999l9.66006,-0.96181l16.14197,-0.96181l19.23653,-0.45999l22.62381,-0.12543h48.84399l7.23459,0.04182l2.9273,0.33453l1.21273,0.37638l0.96181,0.50182l1.42184,1.46363l1.84005,2.2164l2.09092,3.30364l1.84005,3.88911l1.79819,3.63817l1.1291,3.22003l1.67276,6.31456l0.8782,5.98004l0.33453,5.6873v6.56277l0.02378,1.69263v6.51788l-0.33453,5.6873l-0.87819,5.98004l-1.67276,6.31456l-1.1291,3.22003l-1.79819,3.63818l-1.84005,3.88911l-2.09093,3.30364l-1.84005,2.2164l-1.42184,1.46363l-0.96181,0.50183l-1.21273,0.37638l-2.9273,0.33453l-7.23459,0.04182h-48.84398l-22.62382,-0.12543l-19.23652,-0.45999l-16.14196,-0.96181l-9.66006,-0.96181l-1.96548,-0.45999l-1.92366,-0.45999l-1.42184,-1.00364l-1.84005,-2.13275l-1.1291,-1.37998l-1.21273,-3.42913l-1.42184,-5.35279l-0.87817,-4.18181l-0.75273,-6.60734l-0.54365,-4.72549l-0.20908,-4.30733v-5.09104v-4.11874z" fill="#c0c0c0" stroke="#000000" stroke-width="0.5" stroke-linecap="round"/><path d="M343.75669,153.71893l0.87131,6.06123l0.90919,7.23557l0.37884,3.78826l0.30308,3.86403l0.15154,3.75042l0.03785,3.75041l-0.41669,6.59153l-0.83343,7.61441l-1.32588,9.88738" fill="none" stroke="#8c8c8c" stroke-width="0.5" stroke-linecap="round"/><path d="M140.24502,176.62737v-3.55407l0.16729,-3.17821l0.12543,-2.30001l0.96182,-8.48914l0.29273,-2.5091l0.54364,-2.76l1.08728,-4.68366l1.00364,-3.42913l0.54365,-1.25455l0.79459,-1.08728l1.54728,-2.04909l1.33816,-1.21273l0.92003,-0.58546l2.21636,-0.50182l2.46731,-0.33453l8.82372,-0.8782l9.61824,-0.58546l5.31096,-0.33453l10.20372,-0.2509l8.65643,-0.2509l16.97831,-0.04182h52.984l9.28369,0.12543l2.71822,0.20908l1.25454,0.33453l1.00365,0.66909l0.75272,0.75273l1.33816,1.37998l1.79819,2.42548l2.04911,3.72185l1.75637,3.68004l1.42184,3.3455l0.79459,2.80184l1.17089,4.18181l1.00364,5.56184l0.25091,3.26186l0.04182,7.52731v2.79314l0.02378,1.63037v2.90607l-0.04182,7.52731l-0.25091,3.26186l-1.00364,5.56183l-1.17089,4.18181l-0.79459,2.80184l-1.42184,3.3455l-1.75637,3.68003l-2.04911,3.72185l-1.79819,2.42548l-1.33816,1.37998l-0.75273,0.75273l-1.00364,0.66909l-1.25455,0.33451l-2.71822,0.20908l-9.28368,0.12545h-52.984l-16.97831,-0.04182l-8.65643,-0.2509l-10.20372,-0.2509l-5.31096,-0.33453l-9.61824,-0.58548l-8.82372,-0.8782l-2.46731,-0.33453l-2.21636,-0.50182l-0.92003,-0.58548l-1.33816,-1.21271l-1.54728,-2.04909l-0.79459,-1.08729l-0.54364,-1.25454l-1.00365,-3.42913l-1.08728,-4.68366l-0.54364,-2.76l-0.29274,-2.5091l-0.96181,-8.48914l-0.12543,-2.30001l-0.16729,-3.17821v-3.96006l-0.02065,-4.44324z" data-paper-data="{&quot;index&quot;:null}" fill="#666666" stroke="#000000" stroke-width="0.5" stroke-linecap="round"/><path d="M166.39509,212.45778l0.25421,0.59313l-8.17717,5.80451l-0.4258,2.85775l-5.55241,-0.63127l-2.72008,-0.45335l-2.31334,-1.63544l-2.26247,-3.05689l-0.65807,-1.57113l1.26397,-0.50917l12.4564,-5.08425l0.72026,-0.25422l1.2287,1.48291l1.14392,0.97447l0.88974,0.42366l2.33029,0.88973z" fill="#363636" stroke="none" stroke-width="0" stroke-linecap="round"/><path d="M164.54944,147.71156l-2.33029,0.88973l-0.88974,0.42366l-1.14392,0.97445l-1.22869,1.4829l-0.72026,-0.25421l-12.4564,-5.08421l-1.20344,-0.46584l0.42232,-1.44875l2.22459,-2.86514l2.23758,-1.83431l2.66323,-0.52432l5.85784,-0.7402l0.46605,2.87908l8.17715,5.80451l-0.25421,0.59314z" data-paper-data="{&quot;index&quot;:null}" fill="#363636" stroke="none" stroke-width="0" stroke-linecap="round"/><path d="M254.14073,215.08465l-1.7371,-1.52526l-0.55078,-2.66924l6.56716,1.27104l23.22674,9.5373l-0.87236,0.92341l-0.73872,0.44757l-1.63606,0.41609l-6.77684,0.05927z" fill="#363636" stroke="none" stroke-width="0" stroke-linecap="round"/><path d="M208.34013,223.93975h-7.62636l0.63552,-9.44821l4.78765,0.08474l0.80499,-0.04239l-0.21186,0.97447z" fill="#363636" stroke="none" stroke-width="0" stroke-linecap="round"/><path d="M143.69656,230.66235l1.30038,-0.92885l1.30038,-0.43348l5.20156,-0.43347h24.45979l4.76813,0.30961l3.34384,0.49538l-2.08607,1.07156l-2.03369,0.5084l-7.23089,0.62141h-17.28644l-10.16847,-0.5649z" fill="#363636" stroke="#000000" stroke-width="0.5" stroke-linecap="round"/><path d="M283.27215,230.53853l5.07772,-0.18577l7.74041,-0.30961l8.85506,-0.06191h13.18972l8.11197,0.06191l3.1581,0.49538l-1.3897,0.43056l-12.31518,1.01686h-19.60255l-6.89197,-0.45194z" fill="#363636" stroke="#000000" stroke-width="0.5" stroke-linecap="round"/><path d="M263.99606,226.7293c1.35044,-0.76261 2.66253,-0.55286 2.93061,0.46847c0.26808,1.02133 -0.60932,2.46748 -1.95979,3.23006c-1.35044,0.76261 -2.66253,0.55286 -2.93061,-0.46848c-0.26808,-1.02133 0.60932,-2.46748 1.95979,-3.23006z" fill="#363636" stroke="#000000" stroke-width="0.75" stroke-linecap="butt"/><path d="M330.35888,224.17314c-2.65718,-2.09415 -2.64206,-6.64311 0.03377,-10.16038c2.67583,-3.51724 6.99908,-4.67093 9.65626,-2.57674c2.65718,2.09415 2.64207,6.64309 -0.03376,10.16037c-2.67583,3.51724 -6.99909,4.67094 -9.65627,2.57674z" fill="url(#color-2)" stroke="#000000" stroke-width="0.75" stroke-linecap="butt"/><path d="M339.11013,221.67587c-2.62985,2.99667 -6.49867,3.70026 -8.64123,1.57155c-2.14256,-2.12871 -1.7475,-6.28361 0.88235,-9.28027c2.62985,-2.99667 6.49867,-3.70026 8.64123,-1.57155c2.14256,2.12871 1.74751,6.28361 -0.88234,9.28027z" fill="#dbdbdb" stroke="#000000" stroke-width="0.25" stroke-linecap="butt"/><path d="M303.44949,231.64791c0,0 -8.03132,-1.56716 -10.78567,-6.55436c-3.77159,-6.82911 4.34562,-14.00858 4.34562,-14.00858l0.62141,-0.84739l0.96037,-2.2597l1.58179,-4.7453l1.07336,-5.76216l0.45194,-5.87511l0.28246,-5.70566v-4.24738l-0.02377,-4.33205v-3.20005l-0.28246,-5.70566l-0.45194,-5.87511l-1.07336,-5.76216l-1.58179,-4.7453l-0.96038,-2.25969l-0.62141,-0.84738c0,0 -8.11723,-7.17943 -4.34564,-14.00858c2.75431,-4.9872 10.78567,-6.55436 10.78567,-6.55436" fill="none" stroke="#000000" stroke-width="0.75" stroke-linecap="round"/><path d="M206.76741,214.88513l1.48225,9.55781c0,0 -2.45299,1.60033 -3.22803,2.49087c-0.82346,0.94617 -1.57645,3.02916 -1.57645,3.02916" fill="none" stroke="#000000" stroke-width="0.75" stroke-linecap="round"/><path d="M200.94071,223.47187l0.3067,-8.53563" fill="none" stroke="#000000" stroke-width="0.75" stroke-linecap="round"/><path d="M158.00705,221.37624l0.35781,-2.04446l0.25555,-0.45999l0.20443,-0.25555l7.15562,-5.16226l0.93944,-0.5867" fill="none" stroke="#000000" stroke-width="0.75" stroke-linecap="round"/><path d="M281.59461,221.68294l-23.76686,-9.76226" fill="none" stroke="#000000" stroke-width="0.75" stroke-linecap="round"/><path d="M253.07442,214.52733l18.40015,8.89337c0,0 3.95915,1.51123 5.40308,2.63977c1.51696,1.18564 3.49029,4.3113 3.49029,4.3113" fill="none" stroke="#000000" stroke-width="0.75" stroke-linecap="round"/><path d="M300.18028,189.35656c0.06184,0.15895 0.03328,0.6626 0.03328,0.6626c0,0 -0.25608,3.94048 -0.37501,5.05295c-0.11893,1.11247 -0.46717,2.82371 -0.46717,2.82371l-0.84218,3.51722l-1.68432,5.15207l-1.08989,2.92276l-0.64399,1.28803l-0.24768,0.29724l-0.39629,0.29724l-0.59451,0.19814h-0.94121c0,0 -0.64594,-0.07404 -0.84127,-0.24767c-0.19537,-0.17366 -0.05042,-0.5449 -0.05042,-0.5449l0.59451,-2.42742l1.23847,-4.16128l0.84218,-3.22003l0.89168,-4.60708l0.79265,-4.75571l0.3468,-1.73386c0,0 0.15692,-0.44343 0.34722,-0.57315c0.19027,-0.12973 0.74263,-0.1699 0.74263,-0.1699h2.03109c0,0 0.26135,0.09515 0.31349,0.22913z" fill="#363636" stroke="#000000" stroke-width="0.75" stroke-linecap="round"/><path d="M144.07308,231.42075l-0.92003,-1.99331l-0.66444,-0.97113l-1.27779,-1.37998l-2.30001,-1.78891l-1.07336,-1.22665l-0.92003,-1.48224l-1.02225,-1.99331l-1.12446,-2.81114l-1.02225,-4.39558l-0.3067,-2.91335" fill="none" stroke="#000000" stroke-width="0.75" stroke-linecap="round"/><path d="M153.76044,170.03051h1.12446l0.81777,0.25555l0.3067,0.35781l0.0511,1.02224v4.26691l0.02378,6.91371v5.48705l-0.05111,1.02225l-0.3067,0.3578l-0.81777,0.25555h-1.12446" fill="none" stroke="#000000" stroke-width="0.75" stroke-linecap="round"/><path d="M143.6561,220.94667c0,0 0.10732,0.35363 0,0.51821c-0.10732,0.16456 -0.55518,0.33308 -0.55518,0.33308l-2.59081,0.8883l-0.77728,0.18506h-0.55518l-0.40712,-0.2221l-0.7402,-0.85129l-0.8883,-1.66554l-0.96231,-2.44275l-0.18506,-0.8883l0.037,-0.29611l0.44413,-0.48116h0.40712l4.1083,1.8136l0.6662,0.51821l0.51821,0.55518z" fill="none" stroke="#000000" stroke-width="0.75" stroke-linecap="round"/><path d="M344.20891,152.09328l0.86392,5.65466l1.2566,10.28839l0.78534,7.30395l0.07852,4.31953l0.02377,0.68027l-0.07851,4.31953l-0.78534,7.30395l-1.25658,10.28839l-0.86393,5.65466" fill="none" stroke="#000000" stroke-width="0.75" stroke-linecap="round"/><path d="M154.14227,163.24785l-0.44724,3.3542l-0.49196,7.06616l0.08941,5.67974l0.13416,8.98919l0.22357,4.56171l0.71559,5.00891l1.08577,4.03214l-0.13416,2.50449l-0.17887,0.6261l-0.40251,0.44722l-0.31307,0.22358l-7.5134,3.39894l-0.89445,0.13416l-0.805,-0.08941l-0.67081,-0.35781l-0.40253,-0.49196l-0.58138,-1.47585l-0.805,-3.48835l-0.71558,-5.59032l-0.49197,-4.9642l-0.17887,-3.53306l-0.08786,-5.77901l-0.02091,-7.19938l0.08499,-5.58888l0.17887,-3.53306l0.49197,-4.9642l0.71558,-5.59033l0.805,-3.48835l0.5814,-1.47585l0.40251,-0.49196l0.67081,-0.35781l0.805,-0.08942l0.89445,0.13417l7.51339,3.39894l0.31307,0.22358l0.40251,0.44722l0.17887,0.6261l0.13416,2.50448z" fill="#7c7c7c" stroke="#666666" stroke-width="0.25" stroke-linecap="round"/><path d="M143.38606,220.87488c0,0 0.1019,0.33572 0,0.49201c-0.1019,0.15622 -0.52715,0.31627 -0.52715,0.31627l-2.45985,0.84335l-0.73795,0.17571h-0.52715l-0.38652,-0.21085l-0.70282,-0.80824l-0.84335,-1.58134l-0.91366,-2.31929l-0.17571,-0.84335l0.03514,-0.28109l0.42169,-0.45683h0.38652l3.90055,1.7219l0.63253,0.49201l0.492,0.52714z" fill="#b02c2c" stroke="#b8b8b8" stroke-width="0.25" stroke-linecap="round"/><path d="M296.96102,211.01121l23.02807,-2.9273l9.75764,-0.53668l4.58613,-0.24391l4.19582,0.14636l1.75636,0.09757l1.36606,0.34149l1.70761,0.68305l0.82937,0.7318" fill="none" stroke="#c63939" stroke-width="0.5" stroke-linecap="round"/><path d="M272.22468,136.34909l4.85613,0.16838l3.46338,0.65399l1.16134,1.17111l-23.30929,9.49605l-6.56715,1.27104l0.55078,-2.66926l1.73709,-1.52525z" data-paper-data="{&quot;index&quot;:null}" fill="#363636" stroke="none" stroke-width="0" stroke-linecap="round"/><path d="M206.70632,144.49149l0.21186,0.97444l-0.805,-0.04239l-4.78765,0.08474l-0.63552,-9.44821h7.62638z" data-paper-data="{&quot;index&quot;:null}" fill="#363636" stroke="none" stroke-width="0" stroke-linecap="round"/><path d="M145.24127,128.69184l10.16847,-0.5649h17.28645l7.23089,0.62141l2.0337,0.5084l2.08607,1.07156l-3.34385,0.49539l-4.76813,0.30961h-24.45979l-5.20156,-0.43343l-1.30038,-0.43347l-1.30038,-0.92886z" data-paper-data="{&quot;index&quot;:null}" fill="#363636" stroke="#000000" stroke-width="0.5" stroke-linecap="round"/><path d="M289.18195,128.46582l6.89196,-0.45194h19.60257l12.31518,1.01683l1.38968,0.43054l-3.15809,0.49539l-8.11197,0.06191h-13.18972l-8.85507,-0.06191l-7.74041,-0.30961l-5.0777,-0.18577z" data-paper-data="{&quot;index&quot;:null}" fill="#363636" stroke="#000000" stroke-width="0.5" stroke-linecap="round"/><path d="M262.01246,130.04047c0.26808,-1.02133 1.58013,-1.23104 2.93061,-0.46847c1.35044,0.76261 2.2279,2.20879 1.95979,3.23006c-0.26808,1.02133 -1.58014,1.23106 -2.93061,0.46848c-1.35044,-0.76261 -2.2279,-2.2088 -1.95979,-3.23007z" data-paper-data="{&quot;index&quot;:null}" fill="#363636" stroke="#000000" stroke-width="0.75" stroke-linecap="butt"/><path d="M339.99135,138.4035c2.67583,3.51724 2.69092,8.06618 0.03377,10.16038c-2.65718,2.09415 -6.98043,0.9405 -9.65626,-2.57674c-2.67583,-3.51724 -2.69092,-8.06618 -0.03377,-10.16038c2.65718,-2.09415 6.98043,-0.9405 9.65626,2.57674z" data-paper-data="{&quot;index&quot;:null}" fill="url(#color-3)" stroke="#000000" stroke-width="0.75" stroke-linecap="butt"/><path d="M339.08635,138.324c2.62985,2.99667 3.02488,7.15157 0.88235,9.28027c-2.14256,2.12871 -6.01138,1.42507 -8.64123,-1.57156c-2.62985,-2.99667 -3.02488,-7.15157 -0.88235,-9.28026c2.14256,-2.12871 6.01138,-1.42508 8.64123,1.57155z" data-paper-data="{&quot;index&quot;:null}" fill="#dbdbdb" stroke="#000000" stroke-width="0.25" stroke-linecap="butt"/><path d="M203.42138,130.03684c0,0 0.75294,2.08308 1.57644,3.02916c0.77509,0.89051 3.22803,2.49088 3.22803,2.49088l-1.48224,9.55781" data-paper-data="{&quot;index&quot;:null}" fill="none" stroke="#000000" stroke-width="0.75" stroke-linecap="round"/><path d="M200.9169,136.52803l0.3067,8.53563" data-paper-data="{&quot;index&quot;:null}" fill="none" stroke="#000000" stroke-width="0.75" stroke-linecap="round"/><path d="M166.8961,147.13261l-0.93944,-0.58669l-7.15561,-5.16228l-0.20445,-0.25555l-0.25555,-0.45999l-0.35781,-2.04445" data-paper-data="{&quot;index&quot;:null}" fill="none" stroke="#000000" stroke-width="0.75" stroke-linecap="round"/><path d="M130.79447,178.14495l0.22139,-8.52335l0.05111,-5.62226l0.20443,-3.42448l0.56222,-5.57116l0.40888,-2.55557l0.35781,-1.27779l0.40888,-0.66444l0.20445,-0.3578l0.97113,-1.07336l3.0667,-2.81114l1.07336,-0.56222l1.4311,-0.3067h3.32226l1.56504,0.3333l14.51568,5.92892l1.17554,0.97113l0.76667,1.53335l0.3578,2.65782v4.4978v15.56641l0.02378,5.63662v16.16272v4.49779l-0.3578,2.65782l-0.76666,1.53335l-1.17555,0.97113l-14.51567,5.92892l-1.56505,0.3333h-3.32225l-1.43109,-0.3067l-1.07336,-0.56221l-3.0667,-2.81114l-0.97114,-1.07336l-0.20443,-0.35781l-0.40889,-0.66444l-0.3578,-1.2778l-0.40888,-2.55557l-0.56221,-5.57114l-0.20445,-3.42448l-0.0511,-5.62226l-0.20508,-7.89597z" data-paper-data="{&quot;index&quot;:null}" fill="none" stroke="#000000" stroke-width="0.75" stroke-linecap="round"/><path d="M257.80399,148.07915l23.76686,-9.76226" data-paper-data="{&quot;index&quot;:null}" fill="none" stroke="#000000" stroke-width="0.75" stroke-linecap="round"/><path d="M280.34418,129.62795c0,0 -1.97337,3.12569 -3.49029,4.31129c-1.44389,1.12854 -5.40308,2.63978 -5.40308,2.63978l-18.40014,8.89337" data-paper-data="{&quot;index&quot;:null}" fill="none" stroke="#000000" stroke-width="0.75" stroke-linecap="round"/><path d="M299.84298,170.87242h-2.03109c0,0 -0.55237,-0.04017 -0.74263,-0.1699c-0.19027,-0.12973 -0.34721,-0.57315 -0.34721,-0.57315l-0.3468,-1.73386l-0.79265,-4.75571l-0.89168,-4.60708l-0.84218,-3.22003l-1.23847,-4.16128l-0.59451,-2.42742c0,0 -0.14495,-0.37128 0.0504,-0.5449c0.19537,-0.17366 0.84127,-0.24767 0.84127,-0.24767h0.9412l0.59451,0.19814l0.39629,0.29724l0.24767,0.29724l0.64399,1.28803l1.08989,2.92276l1.68432,5.15207l0.84218,3.51724c0,0 0.34821,1.71123 0.46718,2.82371c0.11893,1.11247 0.375,5.05295 0.375,5.05295c0,0 0.02856,0.50362 -0.03328,0.66261c-0.0521,0.13395 -0.31349,0.22913 -0.31349,0.22913z" data-paper-data="{&quot;index&quot;:null}" fill="#363636" stroke="#000000" stroke-width="0.75" stroke-linecap="round"/><path d="M133.41809,149.53483l0.3067,-2.91333l1.02225,-4.39557l1.12446,-2.81115l1.02225,-1.99331l0.92003,-1.48224l1.07336,-1.22665l2.30001,-1.78891l1.2778,-1.37998l0.66444,-0.97113l0.92003,-1.99331" data-paper-data="{&quot;index&quot;:null}" fill="none" stroke="#000000" stroke-width="0.75" stroke-linecap="round"/><path d="M143.63229,139.05323l-1.48048,2.03563l-0.51822,0.55518l-0.6662,0.51821l-4.1083,1.8136h-0.40712l-0.44413,-0.48116l-0.03701,-0.29612l0.18506,-0.8883l0.96231,-2.44275l0.8883,-1.66555l0.7402,-0.85129l0.40712,-0.2221h0.55518l0.77728,0.18507l2.59081,0.88829c0,0 0.44786,0.16857 0.55518,0.33308c0.10732,0.16456 0,0.51821 0,0.51821z" data-paper-data="{&quot;index&quot;:null}" fill="none" stroke="#000000" stroke-width="0.75" stroke-linecap="round"/><path d="M133.31932,177.77173v-1.09266l0.05854,-4.03971l0.1171,-6.55714l0.1171,-3.57126l0.05853,-0.81964l0.3513,-0.23421l0.3513,0.05854l0.46834,1.28803l0.1171,0.76106v1.69784l-0.19272,7.41807v5.04327l0.02378,4.99547v4.59973l0.19272,7.41807v1.69784l-0.1171,0.76106l-0.46832,1.28803l-0.3513,0.05853l-0.3513,-0.2342l-0.05853,-0.81964l-0.1171,-3.57128l-0.1171,-6.55712l-0.05853,-4.03971v-0.73693z" data-paper-data="{&quot;index&quot;:null}" fill="url(#color-4)" stroke="#000000" stroke-width="0.5" stroke-linecap="round"/><path d="M143.36224,139.12496l-1.40562,1.9327l-0.49201,0.52715l-0.63253,0.492l-3.90054,1.7219h-0.38652l-0.42169,-0.45683l-0.03514,-0.28109l0.17569,-0.84335l0.91366,-2.31929l0.84335,-1.58134l0.70282,-0.80824l0.38652,-0.21084h0.52715l0.73795,0.17569l2.45985,0.84335c0,0 0.42525,0.16001 0.52715,0.31627c0.1019,0.15622 0,0.49201 0,0.49201z" data-paper-data="{&quot;index&quot;:null}" fill="#b02c2c" stroke="#b8b8b8" stroke-width="0.25" stroke-linecap="round"/><path d="M140.24502,176.62737v-3.55407l0.16729,-3.17821l0.12543,-2.30001l0.96182,-8.48914l0.29273,-2.5091l0.54364,-2.76l1.08728,-4.68366l1.00364,-3.42913l0.54365,-1.25455l0.79459,-1.08728l1.54728,-2.04909l1.33816,-1.21273l0.92003,-0.58546l2.21636,-0.50182l2.46731,-0.33453l8.82372,-0.8782l9.61824,-0.58546l5.31096,-0.33453l10.20372,-0.2509l8.65643,-0.2509l16.97831,-0.04182h52.984l9.28369,0.12543l2.71822,0.20908l1.25454,0.33453l1.00365,0.66909l0.75272,0.75273l1.33816,1.37998l1.79819,2.42548l2.04911,3.72185l1.75637,3.68004l1.42184,3.3455l0.79459,2.80184l1.17089,4.18181l1.00364,5.56184l0.25091,3.26186l0.04182,7.52731v2.79314l0.02378,1.63037v2.90607l-0.04182,7.52731l-0.25091,3.26186l-1.00364,5.56183l-1.17089,4.18181l-0.79459,2.80184l-1.42184,3.3455l-1.75637,3.68003l-2.04911,3.72185l-1.79819,2.42548l-1.33816,1.37998l-0.75273,0.75273l-1.00364,0.66909l-1.25455,0.33451l-2.71822,0.20908l-9.28368,0.12545h-52.984l-16.97831,-0.04182l-8.65643,-0.2509l-10.20372,-0.2509l-5.31096,-0.33453l-9.61824,-0.58548l-8.82372,-0.8782l-2.46731,-0.33453l-2.21636,-0.50182l-0.92003,-0.58548l-1.33816,-1.21271l-1.54728,-2.04909l-0.79459,-1.08729l-0.54364,-1.25454l-1.00365,-3.42913l-1.08728,-4.68366l-0.54364,-2.76l-0.29274,-2.5091l-0.96181,-8.48914l-0.12543,-2.30001l-0.16729,-3.17821v-3.96006l-0.02065,-4.44324z" data-paper-data="{&quot;index&quot;:null}" fill="none" stroke="#000000" stroke-width="0.5" stroke-linecap="round"/><path d="M265.75007,180.56466v0.63799l-0.25555,5.16228l-0.71558,5.21338l-0.97114,5.52008l-1.73779,5.72449l-1.99331,5.00891l-1.84005,3.27115l-0.97114,1.27779l-1.43109,1.12447l-1.53335,0.61333l-1.22665,0.25555l-9.09785,0.25555h-42.01364l-9.55781,-0.20443l-12.52233,-0.3067l-8.48452,-0.71558l-6.03115,-0.92003l-2.19779,-0.61333l-1.68668,-0.71558l-1.53335,-1.48224l-1.4311,-1.58447l-1.37998,-2.40224l-1.32891,-2.7089l-0.97113,-3.47556l-0.86889,-3.78225l-0.40888,-4.8045l-0.3067,-6.1334v-1.15296l-0.02378,-7.68628v-0.72185l0.3067,-6.13342l0.40888,-4.80449l0.86887,-3.78225l0.97114,-3.47556l1.32891,-2.7089l1.37998,-2.40224l1.43109,-1.58445l1.53335,-1.48225l1.68668,-0.71558l2.19779,-0.61333l6.03115,-0.92003l8.48453,-0.71559l12.52233,-0.3067l9.55781,-0.20443h42.01364l9.09785,0.25555l1.22665,0.25555l1.53335,0.61333l1.4311,1.12447l0.97113,1.2778l1.84005,3.27114l1.99331,5.00891l1.7378,5.72449l0.97113,5.52008l0.71558,5.21338l0.25555,5.16228v0.1209z" fill="#d9d9d9" stroke="#000000" stroke-width="0.75" stroke-linecap="round"/><path d="M351.43817,180.60663l-0.20124,6.03755l-0.87212,6.57423l-1.20752,7.11091l-1.20753,6.03755l-2.01252,7.04375l-1.7442,5.70208l-1.34167,2.81752l-1.07336,1.47585l-1.67708,1.94543l-2.28085,1.7442l-1.54292,1.20752l-2.61628,1.47585l-2.21373,0.73792l-3.08587,0.40251l-4.29335,0.40251l-8.31839,0.53668h-16.30135l-4.56171,-0.06709l-3.89088,-0.20123l-4.62879,-0.53667l-3.28711,-0.3354l-3.89088,-0.26832c0,0 -25.43096,0.74055 -39.78381,0.61958c-28.66802,-0.24159 -55.34103,-1.22334 -55.34103,-1.22334l-2.5492,1.00625l-2.68335,0.46959l-4.09212,0.3354l-7.58047,0.26833h-9.79422l-6.44007,-0.20124l-7.58047,-0.4696l-2.81752,-0.53668l-1.94543,-1.00623l-1.20752,-1.40875l-1.94543,-3.89088l-1.47585,-3.28711l-1.47585,-4.89711l-1.61,-6.23879l-0.805,-4.76295l-1.07336,-9.66006l-0.37825,-12.48223l-0.04805,-5.35637v-0.01153l0.40251,-13.28262l1.07336,-9.66006l0.805,-4.76295l1.61,-6.23879l1.47585,-4.89712l1.47583,-3.28712l1.94544,-3.89086l1.20752,-1.40876l1.94543,-1.00623l2.81751,-0.53668l7.58047,-0.4696l6.44007,-0.20123h9.79422l7.58047,0.26832l4.09211,0.3354l2.68336,0.4696l2.5492,1.00625c0,0 26.67309,-0.98173 55.34103,-1.22335c14.35282,-0.12097 39.78381,0.61958 39.78381,0.61958l3.89088,-0.26833l3.28712,-0.3354l4.62879,-0.53668l3.89086,-0.20123l4.56172,-0.06707h16.30134l8.31839,0.53667l4.29335,0.40251l3.08587,0.40253l2.21373,0.73792l2.61628,1.47583l1.54292,1.20753l2.28084,1.7442l1.67708,1.94543l1.07336,1.47585l1.34169,2.81751l1.7442,5.70208l2.01252,7.04375l1.20752,6.03755l1.20753,7.11091l0.87211,6.57423l0.20124,6.03755z" fill="none" stroke="#000000" stroke-width="1.5" stroke-linecap="round"/><path d="M264.27588,229.66444c0.81787,1.50497 0.5838,3.94666 -0.74271,6.1817c-1.63317,2.75166 -4.33436,4.19979 -6.19468,3.38882l-0.56486,-0.26737l-0.22635,-0.1725l-0.28239,-0.28678l-0.08256,-0.37064l-0.02653,-0.25637c0,0 1.14564,-3.71204 1.74885,-5.46567c0.60319,-1.75366 2.74378,-5.05917 2.74378,-5.05917c0,0 0.33178,-0.28908 0.57099,-0.34402c0.23919,-0.05501 0.62655,0.06866 0.62655,0.06866l0.45317,0.28809l0.50921,0.40242l0.76167,0.88823z" data-paper-data="{&quot;index&quot;:null}" fill="url(#color-5)" stroke="#000000" stroke-width="0.75" stroke-linecap="butt"/><path d="M263.54615,131.34022l-0.76166,0.88823l-0.50921,0.4024l-0.45317,0.28809c0,0 -0.38738,0.12364 -0.62655,0.06866c-0.23916,-0.05501 -0.57099,-0.34402 -0.57099,-0.34402c0,0 -2.14059,-3.30551 -2.74378,-5.05917c-0.60319,-1.75366 -1.74885,-5.46565 -1.74885,-5.46565l0.02651,-0.25637l0.08256,-0.37064l0.28239,-0.28678l0.22635,-0.1725l0.56485,-0.26737c1.86041,-0.81102 4.56154,0.63718 6.19468,3.38881c1.32651,2.23504 1.56066,4.67667 0.74271,6.1817z" data-paper-data="{&quot;index&quot;:null}" fill="url(#color-6)" stroke="#000000" stroke-width="0.75" stroke-linecap="butt"/><path d="M344.16427,150.69624l-0.82937,0.7318l-1.70761,0.68305l-1.36606,0.34149l-1.75637,0.09757l-4.19582,0.14636l-4.58613,-0.24391l-9.75765,-0.53668l-23.02806,-2.9273" data-paper-data="{&quot;index&quot;:null}" fill="none" stroke="#c63939" stroke-width="0.5" stroke-linecap="round"/><path d="M337.25967,132.7029c0,0 4.00649,4.05541 5.76447,8.43742c1.29908,3.23807 1.21223,10.21191 1.21223,10.21191l-0.20124,1.00623c0,0 -0.27834,0.65676 -0.3595,0.95102c-0.09544,0.34585 -0.17715,0.99439 -0.17715,0.99439c0,0 -0.02206,1.66336 0.24715,4.20513c0.26921,2.5417 0.88625,6.49653 0.88625,6.49653l0.86857,8.72443l0.17039,2.92086l0.121,5.03131l-0.26762,4.58778l-0.86856,8.72442c0,0 -0.61702,3.95479 -0.88625,6.49653c-0.26921,2.5417 -0.24715,4.20513 -0.24715,4.20513c0,0 0.08174,0.64854 0.17715,0.99439c0.08115,0.29424 0.3595,0.951 0.3595,0.951l0.20123,1.00625c0,0 0.0869,6.97383 -1.21222,10.2119c-1.75805,4.38201 -5.76448,8.43743 -5.76448,8.43743" data-paper-data="{&quot;index&quot;:null}" fill="none" stroke="#000000" stroke-width="0.75" stroke-linecap="round"/></g><text transform="translate(197.63301,275.97048) scale(0.63595,0.63595)" font-size="40" xml:space="preserve" fill="#ffffff" fill-rule="nonzero" stroke="#ffffff" stroke-width="1" stroke-linecap="butt" stroke-linejoin="miter" stroke-miterlimit="10" stroke-dasharray="" stroke-dashoffset="0" font-family="Sans Serif" font-weight="normal" text-anchor="start" style="mix-blend-mode: normal"><tspan x="0" dy="0">Minion</tspan></text><text transform="translate(183.33454,295.21826) scale(0.34165,0.34165)" font-size="40" xml:space="preserve" fill-opacity="0.74902" fill="#ffffff" fill-rule="nonzero" stroke="none" stroke-width="1" stroke-linecap="butt" stroke-linejoin="miter" stroke-miterlimit="10" stroke-dasharray="" stroke-dashoffset="0" font-family="Sans Serif" font-weight="normal" text-anchor="start" style="mix-blend-mode: normal"><tspan x="0" dy="0">Beautiful yet Fast</tspan></text></g></g></svg>