<svg version="1.1" xmlns="http://www.w3.org/2000/svg" xmlns:xlink="http://www.w3.org/1999/xlink" width="70.0204" height="38.37189" viewBox="0,0,70.0204,38.37189"><defs><radialGradient cx="210.91765" cy="193.38612" r="1.46669" gradientUnits="userSpaceOnUse" id="color-1"><stop offset="0" stop-color="#b4adad"/><stop offset="1" stop-color="#b59f84"/></radialGradient><radialGradient cx="212.19949" cy="192.3896" r="0.91841" gradientUnits="userSpaceOnUse" id="color-2"><stop offset="0" stop-color="#b4adad"/><stop offset="1" stop-color="#cc8b8b"/></radialGradient><radialGradient cx="210.91765" cy="166.61386" r="1.46669" gradientUnits="userSpaceOnUse" id="color-3"><stop offset="0" stop-color="#b4adad"/><stop offset="1" stop-color="#b59f84"/></radialGradient><radialGradient cx="212.19949" cy="167.61038" r="0.91841" gradientUnits="userSpaceOnUse" id="color-4"><stop offset="0" stop-color="#b4adad"/><stop offset="1" stop-color="#cc8b8b"/></radialGradient></defs><g transform="translate(-204.97971,-160.81405)"><g data-paper-data="{&quot;isPaintingLayer&quot;:true}" fill-rule="nonzero" stroke-linejoin="miter" stroke-miterlimit="10" stroke-dasharray="" stroke-dashoffset="0" style="mix-blend-mode: normal"><path d="M274.25012,180.08733l-0.19411,3.49396l-0.34939,3.49396l-0.69879,2.98928l-0.97054,2.6787l-0.73761,1.2423l-0.93172,0.97054l-0.62115,0.38822l-1.2423,0.46586l-2.32931,0.38822l-2.05755,0.31057l-1.47523,0.11647l-2.01873,0.03882h-1.86344l-2.05755,-0.07764l-1.70816,-0.27175l-1.04819,-0.11646l-3.53278,-0.07764l-17.23686,0.15529l-9.89955,-0.23293l-1.74698,-0.03882l-0.69879,0.11646l-0.65997,0.31057l-0.31057,0.11647l-0.50468,0.11646l-1.4364,0.03882l-4.96919,-0.15529l-2.52342,-0.31058l-0.77644,-0.15529l-0.81526,-0.3494l-0.73761,-0.50468l-0.69879,-0.73761l-0.46586,-1.08701l-0.38822,-1.39758l-0.38822,-2.17402l-0.23293,-2.60106l-0.19411,-4.58097v-3.0281v-2.27104l0.19411,-4.58097l0.23293,-2.60106l0.38822,-2.17402l0.38822,-1.39758l0.46586,-1.08701l0.69879,-0.73761l0.73761,-0.50468l0.81526,-0.3494l0.77644,-0.15529l2.52342,-0.31058l4.96919,-0.15529l1.4364,0.03882l0.50468,0.11646l0.31057,0.11647l0.65997,0.31057l0.69879,0.11646l1.74698,-0.03882l9.89955,-0.23293l17.23686,0.15529l3.53278,-0.07764l1.04819,-0.11646l1.70816,-0.27175l2.05755,-0.07764h1.86344l2.01873,0.03882l1.47523,0.11647l2.05755,0.31057l2.32931,0.38822l1.2423,0.46586l0.62115,0.38822l0.93172,0.97054l0.73761,1.2423l0.97054,2.6787l0.69879,2.98928l0.34939,3.49396l0.19411,3.49396z" data-paper-data="{&quot;index&quot;:null}" fill="#2e5389" stroke="#000000" stroke-width="1.5" stroke-linecap="round"/><path d="M207.1971,194.2164l-0.32252,-0.99443l-0.56441,-1.93512l-0.37627,-4.05837l-0.24189,-7.90172l0.13438,-2.60703l0.02688,-3.60147l0.26877,-2.84892l0.3494,-2.15013l0.51066,-1.63947l0.43003,-1.02131l0.15613,0.12006l0.02496,0.18717l-0.01248,0.39931l-0.12478,0.48666l-0.33692,1.22288l-0.36187,1.59724l-0.14974,1.38511l-0.14974,1.41006l-0.07487,1.37263l-0.04991,1.29775l-0.08735,3.8184v0.41981v1.47159v0.59716l0.08735,3.8184l0.04991,1.29775l0.07487,1.37263l0.14974,1.41006l0.14974,1.38511l0.36187,1.59724l0.33692,1.22288l0.12478,0.48666l0.01248,0.39931l-0.02496,0.18717z" fill="#363636" stroke="#000000" stroke-width="0.75" stroke-linecap="round"/><path d="M271.75089,193.14128c0,0 -0.72887,-0.08356 -0.91984,-0.49201c-0.19096,-0.40845 0.14974,-1.15514 0.14974,-1.15514l0.68453,-1.73272l0.49201,-1.62576l0.78813,-5.5165l-0.20964,-9.64333l-0.57849,-1.1115l-0.49201,-1.62576l-0.68453,-1.73272c0,0 -0.3407,-0.7467 -0.14974,-1.15514c0.19097,-0.40845 0.91984,-0.49201 0.91984,-0.49201l0.27258,0.37359l0.9138,2.71454l0.8063,3.27895l0.40315,4.139l0.16126,2.66078l-0.32252,5.13343l-0.56441,3.35958l-0.9138,2.8758l-0.61816,1.53197z" fill="#2e2e2e" stroke="#000000" stroke-width="0.75" stroke-linecap="round"/><path d="M213.67977,191.03215c-0.18843,0.03113 -1.73933,0.28529 -2.76455,0.38861c-1.09301,0.11016 -2.80964,0.17195 -2.80964,0.17195l-0.16305,-0.48916l-0.16305,-0.6755l-0.06988,-0.60562l-0.13976,-1.72369l-0.20964,-3.51725l-0.06988,-2.93493v-1.02266v-1.22802v-1.04249l0.06988,-2.93493l0.20964,-3.51725l0.13976,-1.72369l0.06988,-0.60562l0.16305,-0.6755l0.16305,-0.48916c0,0 1.71663,0.06179 2.80964,0.17195c1.09301,0.11016 2.78351,0.39175 2.78351,0.39175l0.00005,-0.00056l0.0188,0.03486l-0.06826,0.65982l-0.16305,2.42248l-0.16305,2.56224l-0.11647,1.72369l-0.04659,3.44615v0.26875l0.04659,3.53809l0.11647,1.72369l0.16305,2.56224l0.16305,2.42248l0.06655,0.6433z" data-paper-data="{&quot;index&quot;:null}" fill="#424242" stroke="#000000" stroke-width="0" stroke-linecap="round"/><path d="M263.0698,180.12658l-0.03381,2.46831l-0.11834,1.67372l-0.2705,1.94422l-0.43956,1.72444l-0.65934,1.8935l-0.71006,1.31869l-0.7946,1.20034l-0.45031,0.51667l-0.44723,0.29349l-0.74072,0.33542l-0.39132,0.06988l-1.00626,0.02795h-1.88674l-1.56529,-0.11181l-2.18023,-0.37735l-3.28432,-0.78265l-4.24865,-0.88048l-0.74072,-0.15374l-0.13976,-0.11181l-0.02795,-0.23759l0.11181,-0.8106l0.23759,-2.1383l0.20964,-1.69108l0.16771,-1.6212l0.12578,-2.97685v-1.22987v-0.93984v-1.22987l-0.12578,-2.97685l-0.16771,-1.6212l-0.20964,-1.69108l-0.23759,-2.1383l-0.11181,-0.8106l0.02795,-0.23759l0.13976,-0.11181l0.74072,-0.15374l4.24865,-0.88048l3.28432,-0.78265l2.18023,-0.37735l1.56529,-0.11181h1.88674l1.00626,0.02795l0.39132,0.06988l0.74072,0.33542l0.44723,0.29349l0.45031,0.51667l0.7946,1.20034l0.71006,1.31869l0.65934,1.8935l0.43956,1.72444l0.2705,1.94422l0.11834,1.67372l0.03381,2.46831z" fill="#666666" stroke="#000000" stroke-width="0.75" stroke-linecap="round"/><path d="M258.2971,193.43747l1.02529,-1.38715l0.53479,-1.06958l0.38505,-1.17654l0.47062,-2.67395l0.17113,-2.52421l0.06417,-2.24612v-1.98942v-0.74102v-1.98942l-0.06417,-2.24612l-0.17113,-2.52421l-0.47062,-2.67395l-0.38505,-1.17654l-0.53479,-1.06958l-1.07102,-1.44902l0.01868,-0.02022l0.13528,0.02416l0.74072,0.33542l0.44723,0.29349l0.45031,0.51667l0.7946,1.20034l0.71006,1.31869l0.65934,1.8935l0.43956,1.72444l0.2705,1.94422l0.11834,1.67372l0.03381,2.46831v0.25319l-0.03381,2.46831l-0.11834,1.67372l-0.2705,1.94422l-0.43956,1.72444l-0.65934,1.8935l-0.71006,1.31869l-0.7946,1.20034l-0.45031,0.51667l-0.44723,0.29349l-0.74072,0.33542l-0.05044,0.00901l-0.0486,-0.05294l0.0046,-0.00622z" fill="#2e2e2e" stroke="#000000" stroke-width="0" stroke-linecap="round"/><g stroke="#000000"><path d="M212.83165,195.13326h-0.30038l-1.28112,-0.04659l-0.51245,-0.09317l-0.81526,-0.30281l-0.81526,-0.58233l-0.55903,-0.74538l-0.20964,-0.46586l-0.11647,-0.53574l-0.09317,-0.55903v-0.18634l-0.00104,-0.02411c0.20416,-0.00764 1.76734,-0.06832 2.78738,-0.17113c1.09301,-0.11016 2.78351,-0.39175 2.78351,-0.39175l0.02172,0.22189l-0.06523,0.3879l-0.12478,0.52409l-0.52409,2.35842l-0.08735,0.56153v0.03623z" fill="#645b5b" stroke-width="0" stroke-linecap="round"/><path d="M210.087,194.26967c-0.73133,-0.63959 -0.76428,-1.74798 -0.43919,-2.1197c0.3251,-0.37172 0.88514,0.13398 1.61646,0.77357c0.73133,0.63959 1.357,1.17087 1.03191,1.54259c-0.3251,0.37172 -1.47785,0.44313 -2.20918,-0.19646z" fill="url(#color-1)" stroke-width="0.25" stroke-linecap="butt"/><path d="M211.67936,192.94286c-0.45794,-0.4005 -0.47858,-1.09454 -0.27501,-1.32731c0.20357,-0.23276 0.55425,0.08389 1.01219,0.48439c0.45794,0.4005 0.84973,0.73317 0.64616,0.96594c-0.20357,0.23276 -0.9254,0.27748 -1.38334,-0.12302z" fill="url(#color-2)" stroke-width="0.25" stroke-linecap="butt"/></g><path d="M213.6129,188.96467h7.57024l14.96579,0.20382l4.57126,0.29116l2.36674,0.3286l-0.06863,0.46586l-2.32723,-0.3286l-4.71684,-0.29116l-6.26001,-0.11646l-16.07221,-0.02912" fill="#363636" stroke="#000000" stroke-width="0.75" stroke-linecap="round"/><path d="M208.61394,179.81637v-3.89327l0.04991,-1.6222l0.11231,-2.52064l0.06239,-0.71127l0.06239,-0.39931l0.1123,-0.48666l0.1123,-0.33692l0.08735,-0.1747l0.1123,-0.1123l0.1747,-0.09983l0.26205,-0.03743h0.57401l0.79862,0.07487l0.96084,0.18717l0.36187,0.12478l0.12478,0.09983l0.12478,0.09983l0.07487,0.18718l0.03744,0.19965l-0.04991,0.84853l-0.12478,3.53139l-0.02496,1.39758l-0.01248,1.5598l-0.02496,2.17125v0.19253l0.02496,2.17125l0.01248,1.5598l0.02496,1.39758l0.12478,3.53139l0.04991,0.84853l-0.03744,0.19965l-0.07487,0.18718l-0.12478,0.09983l-0.12478,0.09983l-0.36187,0.12478l-0.96084,0.18717l-0.79862,0.07487h-0.57401l-0.26205,-0.03743l-0.1747,-0.09983l-0.1123,-0.1123l-0.08735,-0.1747l-0.1123,-0.33692l-0.1123,-0.48666l-0.06239,-0.39931l-0.06239,-0.71127l-0.11231,-2.52064l-0.04991,-1.6222v-3.89327z" fill="#666666" stroke="#000000" stroke-width="0.5" stroke-linecap="round"/><path d="M213.5554,189.52994h-1.04391c0,0 -0.46772,-0.02062 -0.45553,-0.68559c0.01145,-0.62453 0.45553,-0.62465 0.45553,-0.62465h0.96641" fill="#363636" stroke="#000000" stroke-width="0.75" stroke-linecap="round"/><path d="M231.04401,195.1126l-5.15359,-0.09887c0,0 -1.63842,-0.0228 -3.26647,-0.33884c-3.53612,-0.68642 -4.07975,-1.78712 -4.27434,-1.97543c-0.19459,-0.18832 -0.22461,-0.32444 -0.22461,-0.32444l0.01248,-0.16222l0.12478,-0.12478l0.27452,-0.07487l1.83433,-0.01248l6.25169,-0.01248h3.49396l0.05045,-0.00855l0.79808,2.4668l0.1563,0.67456z" fill="#424242" stroke="#000000" stroke-width="0" stroke-linecap="round"/><path d="M232.62493,194.78336l-0.93588,-1.88424l-0.04991,-0.287l0.07487,-0.31196l0.1747,-0.13726l0.36187,-0.09983l0.78614,-0.02496l2.62047,0.03743l2.67038,0.06239l3.2943,0.16222l2.35842,0.26205l1.85928,0.32444l4.01805,0.72375l4.00557,0.8111c0,0 0.43983,0.10248 0.71127,0.19966c0.27144,0.09718 0.38683,0.14974 0.38683,0.14974l0.1747,0.13726l0.07487,0.1123l-0.02496,0.09983l-0.11231,0.08735l-0.13726,0.02496l-2.90747,0.04991h-3.51891l-5.98964,-0.07487l-5.44059,-0.12478l-4.24267,-0.13726c0,0 -0.10297,-0.03176 -0.14124,-0.06103c-0.0308,-0.02355 -0.07089,-0.10119 -0.07089,-0.10119z" fill="#363636" stroke="#000000" stroke-width="0.75" stroke-linecap="round"/><path d="M249.76431,195.09756l-5.63065,-0.04032l-3.10425,-0.06719l-3.7896,-0.09407l-4.17931,-0.12094l-0.1747,-0.04032l-0.12094,-0.08063l-0.83317,-1.67979l-0.08063,-0.20157l-0.01344,-0.1747l0.09407,-0.18814l0.22845,-0.10751l0.64504,-0.05375l5.38876,0.10751l1.70667,0.09407l1.81417,0.09407l2.40546,0.26877l1.88136,0.32252l3.53427,0.67192l0.12094,0.08063l0.06719,0.12094l0.16126,0.99443z" fill="#666666" stroke="#000000" stroke-width="0.25" stroke-linecap="round"/><path d="M250.24809,195.2185l-0.29564,-1.51853" fill="none" stroke="#000000" stroke-width="0.75" stroke-linecap="round"/><path d="M212.83165,195.13326h-0.30038l-1.28112,-0.04659l-0.51245,-0.09317l-0.81526,-0.30281l-0.81526,-0.58233l-0.55903,-0.74538l-0.20964,-0.46586l-0.11647,-0.53574l-0.09317,-0.55903v-0.18634" fill="none" stroke="#000000" stroke-width="0.75" stroke-linecap="round"/><path d="M261.49328,194.6441l-0.09317,-0.25622l0.02329,-0.18634l0.06988,-0.20964l0.3261,-0.3494l2.51565,-2.14296l2.88834,-2.32931l0.41928,-0.30281l0.46586,-0.20964l0.53574,-0.06988l0.65221,0.06988l0.48915,0.27952l0.23293,0.3261l0.11647,0.3494l0.09317,0.65221l-0.02329,0.72208l-0.18634,0.6755l-0.46586,0.72208l-0.62891,0.69879l-1.09477,0.81526l-1.44417,0.76867l-0.65221,0.23293l-0.81526,0.16305l-1.49076,0.06988l-1.07148,-0.06988l-0.44257,-0.09317c0,0 -0.15638,-0.08022 -0.22487,-0.13349c-0.07117,-0.05535 -0.19441,-0.19261 -0.19441,-0.19261z" fill="#e5e5e5" stroke="#000000" stroke-width="0.75" stroke-linecap="round"/><path d="M261.88638,193.46561l-0.69316,-0.43956l-0.25359,-0.23669l-0.59172,-0.69316" fill="none" stroke="#000000" stroke-width="0.75" stroke-linecap="round"/><path d="M213.71762,191.21454l0.01248,-0.1747" fill="none" stroke="#000000" stroke-width="0.75" stroke-linecap="round"/><path d="M229.86719,191.05231l1.0981,3.39413l0.23709,1.02323l0.06239,0.59897" fill="none" stroke="#000000" stroke-width="0.75" stroke-linecap="round"/><path d="M231.04401,195.1126l-5.15359,-0.09887c0,0 -1.63842,-0.0228 -3.26647,-0.33884c-3.53612,-0.68642 -4.07975,-1.78712 -4.27434,-1.97543c-0.19459,-0.18832 -0.22461,-0.32444 -0.22461,-0.32444l0.01248,-0.16222l0.12478,-0.12478l0.27452,-0.07487l1.83433,-0.01248l6.25169,-0.01248h3.49396" fill="none" stroke="#000000" stroke-width="0.75" stroke-linecap="round"/><path d="M251.14215,194.60509c0.27136,-0.28404 0.6509,-0.36185 0.84773,-0.17381c0.19683,0.18804 0.13642,0.57074 -0.13494,0.85478c-0.27136,0.28404 -0.6509,0.36185 -0.84773,0.17381c-0.19683,-0.18804 -0.13642,-0.57074 0.13494,-0.85478z" fill="#363636" stroke="#000000" stroke-width="0.75" stroke-linecap="butt"/><path d="M258.23141,166.47365l1.09097,1.47602l0.53479,1.06958l0.38505,1.17654l0.47062,2.67395l0.17113,2.52421l0.06417,2.24612v1.98942v0.74102v1.98942l-0.06417,2.24612l-0.17113,2.52421l-0.47062,2.67395l-0.38505,1.17654l-0.53479,1.06958l-1.09097,1.47602" fill="none" stroke="#000000" stroke-width="0.75" stroke-linecap="round"/><path d="M273.56919,180.37051v1.04819l-0.14974,2.48142l-0.14974,2.39586l-0.17113,0.81288l-0.12835,0.44922l-0.10696,0.23531l-0.12835,0.17113l-0.19252,0.10696h-0.40644l-0.10696,-0.23531l-0.04278,-0.27809v-0.32087c0,0 0.20346,-1.65053 0.27364,-2.63301c0.08921,-1.24897 0.21837,-4.25508 0.21837,-4.25508v-0.69825c0,0 -0.12916,-3.00611 -0.21837,-4.25508c-0.07018,-0.98249 -0.27364,-2.63301 -0.27364,-2.63301v-0.32087l0.04278,-0.27809l0.10696,-0.23531h0.40644l0.19252,0.10696l0.12835,0.17113l0.10696,0.23531l0.12835,0.44922l0.17113,0.81288l0.14974,2.39586l0.14974,2.48142v1.04819z" fill="#191919" stroke="#000000" stroke-width="0.75" stroke-linecap="round"/><path d="M266.31744,194.78843l0.5134,1.32628" fill="none" stroke="#000000" stroke-width="0.75" stroke-linecap="round"/><path d="M269.88984,171.03006l0.19252,0.55618l0.2567,1.0268l0.23531,2.01081l0.2567,2.67395l0.04278,1.2621v0.87705v1.12608v0.87705l-0.04278,1.2621l-0.2567,2.67395l-0.23531,2.01081l-0.2567,1.0268l-0.19252,0.55618" fill="none" stroke="#000000" stroke-width="0.75" stroke-linecap="round"/><path d="M229.25746,194.62722l-3.10425,-0.04032l-1.63947,-0.13438c0,0 -1.10565,-0.16851 -1.61031,-0.33185c-0.5675,-0.18367 -1.62832,-0.71634 -1.62832,-0.71634l-0.60472,-0.32252l-0.12094,-0.10751l-0.06719,-0.09407l-0.02688,-0.08063l0.01344,-0.12094l0.14782,-0.13438l0.1747,-0.04032h7.82109l0.26877,0.04032l0.16126,0.06719l0.12094,0.10751l0.09407,0.14782l0.44346,1.47821c0,0 0.04464,0.19882 -0.02838,0.24529c-0.07476,0.04758 -0.41509,0.03692 -0.41509,0.03692z" fill="#666666" stroke="#000000" stroke-width="0.125" stroke-linecap="round"/><path d="M222.34331,193.56548c0,0.04218 -0.048,0.07637 -0.1072,0.07637c-0.05921,0 -0.1072,-0.03419 -0.1072,-0.07637c0,-0.04218 0.048,-0.07637 0.1072,-0.07637c0.05921,0 0.1072,0.03419 0.1072,0.07637z" fill="#363636" stroke="#000000" stroke-width="0.25" stroke-linecap="butt"/><g data-paper-data="{&quot;index&quot;:null}" stroke="#000000"><path d="M212.919,164.88091v0.03623l0.08735,0.56153l0.52409,2.35842l0.12478,0.52409l0.06523,0.3879l-0.02172,0.22189c0,0 -1.6905,-0.28159 -2.78351,-0.39175c-1.02004,-0.1028 -2.58322,-0.16348 -2.78738,-0.17113l0.00104,-0.02411v-0.18634l0.09317,-0.55903l0.11647,-0.53574l0.20964,-0.46586l0.55903,-0.74538l0.81526,-0.58233l0.81526,-0.30281l0.51245,-0.09317l1.28112,-0.04659h0.30038z" fill="#645b5b" stroke-width="0" stroke-linecap="round"/><path d="M210.087,165.73031c0.73133,-0.63959 1.88409,-0.56818 2.20918,-0.19646c0.3251,0.37172 -0.30058,0.903 -1.03191,1.54259c-0.73133,0.63959 -1.29137,1.14529 -1.61646,0.77357c-0.3251,-0.37173 -0.29214,-1.48011 0.43919,-2.1197z" fill="url(#color-3)" stroke-width="0.25" stroke-linecap="butt"/><path d="M213.0627,166.9341c0.20357,0.23276 -0.18822,0.56544 -0.64616,0.96594c-0.45794,0.4005 -0.80862,0.71715 -1.01219,0.48439c-0.20357,-0.23276 -0.18293,-0.92681 0.27501,-1.32731c0.45794,-0.4005 1.17977,-0.35578 1.38334,-0.12302z" fill="url(#color-4)" stroke-width="0.25" stroke-linecap="butt"/></g><path d="M213.64202,170.51121l16.07221,-0.02912l6.26001,-0.11646l4.71684,-0.29116l2.32723,-0.3286l0.06863,0.46586l-2.36674,0.3286l-4.57126,0.29116l-14.96579,0.20382h-7.57024" data-paper-data="{&quot;index&quot;:null}" fill="#363636" stroke="#000000" stroke-width="0.75" stroke-linecap="round"/><path d="M213.47791,171.78027h-0.96641c0,0 -0.44407,-0.00012 -0.45553,-0.62465c-0.0122,-0.66497 0.45553,-0.68559 0.45553,-0.68559h1.04391" data-paper-data="{&quot;index&quot;:null}" fill="#363636" stroke="#000000" stroke-width="0.75" stroke-linecap="round"/><path d="M231.1216,164.87898l-0.1563,0.67456l-0.79808,2.4668l-0.05045,-0.00855h-3.49396l-6.25169,-0.01248l-1.83433,-0.01248l-0.27452,-0.07487l-0.12478,-0.12478l-0.01248,-0.16222c0,0 0.03002,-0.13612 0.22461,-0.32444c0.19459,-0.18832 0.73822,-1.28901 4.27434,-1.97543c1.62804,-0.31603 3.26647,-0.33884 3.26647,-0.33884l5.15359,-0.09887z" data-paper-data="{&quot;index&quot;:null}" fill="#424242" stroke="#000000" stroke-width="0" stroke-linecap="round"/><path d="M232.62492,165.21662c0,0 0.0401,-0.07764 0.07089,-0.10119c0.03828,-0.02927 0.14124,-0.06103 0.14124,-0.06103l4.24267,-0.13726l5.44059,-0.12478l5.98964,-0.07487h3.51891l2.90747,0.04991l0.13726,0.02496l0.11231,0.08735l0.02496,0.09983l-0.07487,0.1123l-0.1747,0.13726c0,0 -0.11539,0.05256 -0.38683,0.14974c-0.27144,0.09718 -0.71127,0.19966 -0.71127,0.19966l-4.00557,0.8111l-4.01805,0.72375l-1.85928,0.32444l-2.35842,0.26205l-3.2943,0.16222l-2.67038,0.06239l-2.62047,0.03743l-0.78614,-0.02496l-0.36187,-0.09983l-0.1747,-0.13726l-0.07487,-0.31196l0.04991,-0.287l0.93588,-1.88424z" data-paper-data="{&quot;index&quot;:null}" fill="#363636" stroke="#000000" stroke-width="0.75" stroke-linecap="round"/><path d="M249.88526,164.99649l-0.16126,0.99443l-0.06719,0.12094l-0.12094,0.08063l-3.53427,0.67192l-1.88136,0.32252l-2.40546,0.26877l-1.81417,0.09407l-1.70667,0.09407l-5.38876,0.10751l-0.64504,-0.05375l-0.22845,-0.10751l-0.09407,-0.18814l0.01344,-0.1747l0.08063,-0.20157l0.83317,-1.67979l0.12094,-0.08063l0.1747,-0.04032l4.17931,-0.12094l3.7896,-0.09407l3.10425,-0.06719l5.63065,-0.04032z" data-paper-data="{&quot;index&quot;:null}" fill="#666666" stroke="#000000" stroke-width="0.25" stroke-linecap="round"/><path d="M249.95245,166.30001l0.29564,-1.51853" data-paper-data="{&quot;index&quot;:null}" fill="none" stroke="#000000" stroke-width="0.75" stroke-linecap="round"/><path d="M208.12888,168.38398v-0.18634l0.09317,-0.55903l0.11647,-0.53574l0.20964,-0.46586l0.55903,-0.74538l0.81526,-0.58233l0.81526,-0.30281l0.51245,-0.09317l1.28112,-0.04659h0.30038" data-paper-data="{&quot;index&quot;:null}" fill="none" stroke="#000000" stroke-width="0.75" stroke-linecap="round"/><path d="M261.49328,165.35588c0,0 0.12324,-0.13726 0.19441,-0.19261c0.06848,-0.05326 0.22487,-0.13349 0.22487,-0.13349l0.44257,-0.09317l1.07148,-0.06988l1.49076,0.06988l0.81526,0.16305l0.65221,0.23293l1.44417,0.76867l1.09477,0.81526l0.62891,0.69879l0.46586,0.72208l0.18634,0.6755l0.02329,0.72208l-0.09317,0.65221l-0.11647,0.3494l-0.23293,0.3261l-0.48915,0.27952l-0.65221,0.06988l-0.53574,-0.06988l-0.46586,-0.20964l-0.41928,-0.30281l-2.88834,-2.32931l-2.51565,-2.14296l-0.3261,-0.3494l-0.06988,-0.20964l-0.02329,-0.18634z" data-paper-data="{&quot;index&quot;:null}" fill="#e5e5e5" stroke="#000000" stroke-width="0.75" stroke-linecap="round"/><path d="M213.18104,196.44299l-0.14974,-0.43674l-0.1123,-0.6364v-0.287l0.08735,-0.56153l0.52409,-2.35842l0.12478,-0.52409l0.06523,-0.3879l-0.02172,-0.22189c0,0 -1.6905,0.28159 -2.78351,0.39175c-1.09301,0.11016 -2.80964,0.17195 -2.80964,0.17195l-0.16305,-0.48916l-0.16305,-0.6755l-0.06988,-0.60562l-0.13976,-1.72369l-0.20964,-3.51725l-0.06988,-2.93493v-1.02266v-1.22802v-1.04249l0.06988,-2.93493l0.20964,-3.51725l0.13976,-1.72369l0.06988,-0.60562l0.16305,-0.6755l0.16305,-0.48916c0,0 1.71663,0.06179 2.80964,0.17195c1.09301,0.11016 2.78351,0.39175 2.78351,0.39175l0.02172,-0.22189l-0.06523,-0.3879l-0.12478,-0.52409l-0.52409,-2.35842l-0.08735,-0.56153v-0.287l0.1123,-0.6364l0.14974,-0.43674" data-paper-data="{&quot;index&quot;:null}" fill="none" stroke="#000000" stroke-width="0.75" stroke-linecap="round"/><path d="M260.3479,167.90377l0.59172,-0.69316l0.25359,-0.23669l0.69316,-0.43956" data-paper-data="{&quot;index&quot;:null}" fill="none" stroke="#000000" stroke-width="0.75" stroke-linecap="round"/><path d="M253.87716,196.1508l-0.22361,-0.82457l-0.15374,-0.4612l-0.09783,-0.26554l-0.20964,-0.37735l-0.27952,-0.32144l-0.36337,-0.20964l-1.59325,-0.3494l-2.47372,-0.4053l-3.80143,-0.79662l-2.65541,-0.57301l-1.02023,-0.12578l-2.73926,-0.19566l-3.46601,-0.16771l-4.9754,-0.09783h-13.27704l-2.78119,0.06988l-0.04729,-0.03923l-0.06988,-0.6755l-0.16305,-2.42248l-0.16305,-2.56224l-0.11647,-1.72369l-0.04659,-3.53809v-0.26875l0.04659,-3.44615l0.11647,-1.72369l0.16305,-2.56224l0.16305,-2.42248l0.06988,-0.6755l0.04729,-0.03923l2.78119,0.06988h13.27704l4.9754,-0.09783l3.46601,-0.16771l2.73926,-0.19566l1.02023,-0.12578l2.65541,-0.57301l3.80143,-0.79662l2.47372,-0.4053l1.59325,-0.3494l0.36337,-0.20964l0.27952,-0.32144l0.20964,-0.37735l0.09783,-0.26554l0.15374,-0.4612l0.22361,-0.82457" data-paper-data="{&quot;index&quot;:null}" fill="none" stroke="#000000" stroke-width="0.75" stroke-linecap="round"/><path d="M213.7301,168.96015l-0.01248,-0.1747" data-paper-data="{&quot;index&quot;:null}" fill="none" stroke="#000000" stroke-width="0.75" stroke-linecap="round"/><path d="M231.26478,163.93134l-0.06239,0.59897l-0.23709,1.02323l-1.0981,3.39413" data-paper-data="{&quot;index&quot;:null}" fill="none" stroke="#000000" stroke-width="0.75" stroke-linecap="round"/><path d="M230.11676,168.01179h-3.49396l-6.25169,-0.01248l-1.83433,-0.01248l-0.27452,-0.07487l-0.12478,-0.12478l-0.01248,-0.16222c0,0 0.03002,-0.13612 0.22461,-0.32444c0.19459,-0.18832 0.73822,-1.28901 4.27434,-1.97543c1.62804,-0.31603 3.26647,-0.33884 3.26647,-0.33884l5.15359,-0.09887" data-paper-data="{&quot;index&quot;:null}" fill="none" stroke="#000000" stroke-width="0.75" stroke-linecap="round"/><path d="M251.00721,164.54011c0.19683,-0.18804 0.57637,-0.11023 0.84773,0.17381c0.27136,0.28404 0.33177,0.66673 0.13494,0.85478c-0.19683,0.18804 -0.57637,0.11023 -0.84773,-0.17381c-0.27136,-0.28404 -0.33177,-0.66673 -0.13494,-0.85478z" data-paper-data="{&quot;index&quot;:null}" fill="#363636" stroke="#000000" stroke-width="0.75" stroke-linecap="butt"/><path d="M266.83083,163.88527l-0.5134,1.32628" data-paper-data="{&quot;index&quot;:null}" fill="none" stroke="#000000" stroke-width="0.75" stroke-linecap="round"/><path d="M229.25746,165.37276c0,0 0.34033,-0.01066 0.41509,0.03692c0.07302,0.04647 0.02838,0.24529 0.02838,0.24529l-0.44346,1.47821l-0.09407,0.14782l-0.12094,0.10751l-0.16126,0.06719l-0.26877,0.04032h-7.82109l-0.1747,-0.04032l-0.14782,-0.13438l-0.01344,-0.12094l0.02688,-0.08063l0.06719,-0.09407l0.12094,-0.10751l0.60472,-0.32252c0,0 1.06083,-0.53267 1.62832,-0.71634c0.50466,-0.16333 1.61031,-0.33185 1.61031,-0.33185l1.63947,-0.13438z" data-paper-data="{&quot;index&quot;:null}" fill="#666666" stroke="#000000" stroke-width="0.125" stroke-linecap="round"/><path d="M222.23611,166.51087c-0.0592,0 -0.1072,-0.03419 -0.1072,-0.07637c0,-0.04218 0.04799,-0.07637 0.1072,-0.07637c0.0592,0 0.1072,0.03419 0.1072,0.07637c0,0.04218 -0.04799,0.07637 -0.1072,0.07637z" data-paper-data="{&quot;index&quot;:null}" fill="#363636" stroke="#000000" stroke-width="0.25" stroke-linecap="butt"/><path d="M263.0698,180.12659l-0.03381,2.46831l-0.11834,1.67372l-0.2705,1.94422l-0.43956,1.72444l-0.65934,1.8935l-0.71006,1.31869l-0.7946,1.20034l-0.45031,0.51667l-0.44723,0.29349l-0.74072,0.33542l-0.39132,0.06988l-1.00626,0.02795h-1.88674l-1.56529,-0.11181l-2.18023,-0.37735l-3.28432,-0.78265l-4.24865,-0.88048l-0.74072,-0.15374l-0.13976,-0.11181l-0.02795,-0.23759l0.11181,-0.8106l0.23759,-2.1383l0.20964,-1.69108l0.16771,-1.6212l0.12578,-2.97685v-1.22987v-0.93984v-1.22987l-0.12578,-2.97685l-0.16771,-1.6212l-0.20964,-1.69108l-0.23759,-2.1383l-0.11181,-0.8106l0.02795,-0.23759l0.13976,-0.11181l0.74072,-0.15374l4.24865,-0.88048l3.28432,-0.78265l2.18023,-0.37735l1.56529,-0.11181h1.88674l1.00626,0.02795l0.39132,0.06988l0.74072,0.33542l0.44723,0.29349l0.45031,0.51667l0.7946,1.20034l0.71006,1.31869l0.65934,1.8935l0.43956,1.72444l0.2705,1.94422l0.11834,1.67372l0.03381,2.46831z" fill="none" stroke="#000000" stroke-width="0.75" stroke-linecap="round"/><g fill="none" stroke="#ababab" stroke-width="0.75" stroke-linecap="round"><path d="M270.39808,180.99926l-1.1503,-1.00054"/><path d="M269.24778,180.00126l1.1503,-1.00054" data-paper-data="{&quot;index&quot;:null}"/></g><g fill="none" stroke="#ababab" stroke-width="0.75" stroke-linecap="round"><path d="M268.65977,179.99872l1.1503,1.00054"/><path d="M269.81007,179.00071l-1.1503,1.00054" data-paper-data="{&quot;index&quot;:null}"/></g><g stroke="#000000" stroke-width="0.5" stroke-linecap="round"><path d="M209.0956,184.7819l-0.32563,-6.44216l-0.03987,-0.33245l-0.0559,-0.19324l-0.66785,-1.11957l-0.0939,-0.26052l-0.01965,-0.16047l-0.00465,-0.09203l0.08854,-0.07368l0.13003,0.06263l0.84564,1.21438l0.13934,0.24669l0.06682,0.18115l0.02023,0.17198l0.02326,0.46015l0.29539,5.84396l-0.01591,0.36987l-0.10341,0.23589l-0.11213,0.06333l-0.11562,-0.00569z" fill="#363636"/><path d="M208.78414,177.93536l0.32721,-0.1434" fill="none"/></g><path d="M274.25012,180.08732l-0.19411,3.49396l-0.34939,3.49396l-0.69879,2.98928l-0.97054,2.6787l-0.73761,1.2423l-0.93172,0.97054l-0.62115,0.38822l-1.2423,0.46586l-2.32931,0.38822l-2.05755,0.31057l-1.47523,0.11647l-2.01873,0.03882h-1.86344l-2.05755,-0.07764l-1.70816,-0.27175l-1.04819,-0.11646l-3.53278,-0.07764l-17.23686,0.15529l-9.89955,-0.23293l-1.74698,-0.03882l-0.69879,0.11646l-0.65997,0.31057l-0.31057,0.11647l-0.50468,0.11646l-1.4364,0.03882l-4.96919,-0.15529l-2.52342,-0.31058l-0.77644,-0.15529l-0.81526,-0.3494l-0.73761,-0.50468l-0.69879,-0.73761l-0.46586,-1.08701l-0.38822,-1.39758l-0.38822,-2.17402l-0.23293,-2.60106l-0.19411,-4.58097v-3.0281v-2.27104l0.19411,-4.58097l0.23293,-2.60106l0.38822,-2.17402l0.38822,-1.39758l0.46586,-1.08701l0.69879,-0.73761l0.73761,-0.50468l0.81526,-0.3494l0.77644,-0.15529l2.52342,-0.31058l4.96919,-0.15529l1.4364,0.03882l0.50468,0.11646l0.31057,0.11647l0.65997,0.31057l0.69879,0.11646l1.74698,-0.03882l9.89955,-0.23293l17.23686,0.15529l3.53278,-0.07764l1.04819,-0.11646l1.70816,-0.27175l2.05755,-0.07764h1.86344l2.01873,0.03882l1.47523,0.11647l2.05755,0.31057l2.32931,0.38822l1.2423,0.46586l0.62115,0.38822l0.93172,0.97054l0.73761,1.2423l0.97054,2.6787l0.69879,2.98928l0.34939,3.49396l0.19411,3.49396z" data-paper-data="{&quot;index&quot;:null}" fill="none" stroke="#000000" stroke-width="1.5" stroke-linecap="round"/><path d="M249.15026,198.81094c-0.85205,-0.37363 -0.52525,-1.49029 -0.02431,-2.63267c0.50094,-1.14238 1.36066,-1.95276 2.21272,-1.57913c0.85205,0.37363 1.13669,1.6026 0.63575,2.74498c-0.50094,1.14238 -1.9721,1.84045 -2.82416,1.46683z" fill="#363636" stroke="#000000" stroke-width="0.75" stroke-linecap="butt"/><path d="M251.97442,162.65587c0.50094,1.14238 0.2163,2.37135 -0.63575,2.74498c-0.85205,0.37363 -1.71178,-0.43675 -2.21272,-1.57913c-0.50094,-1.14238 -0.82774,-2.25904 0.02431,-2.63267c0.85205,-0.37363 2.32322,0.32444 2.82416,1.46683z" data-paper-data="{&quot;index&quot;:null}" fill="#363636" stroke="#000000" stroke-width="0.75" stroke-linecap="butt"/><g fill="#2e2e2e" stroke="#000000" stroke-width="0.5"><path d="M257.7988,167.8103l2.57038,13.60689l-0.09302,0.09737h-0.12705l-0.09529,-0.14294l-2.5093,-13.51527l0.03176,-0.12705l0.11117,-0.01588z" stroke-linecap="round"/><path d="M261.68505,181.26105l-2.1001,-5.57887c0,0 -0.05585,-0.1349 -0.08784,-0.17061c-0.10436,-0.11652 -0.64217,-0.64446 -0.64217,-0.64446l-0.04821,-0.31287l0.17841,0.15611c0,0 0.48967,0.42526 0.63284,0.58047c0.08556,0.09275 0.14633,0.26418 0.14633,0.26418l1.49562,4.06176l0.65395,1.48811l-0.00839,0.10063l-0.10063,0.0587z" stroke-linecap="round"/><path d="M259.2227,174.43856l0.2746,1.56089l-0.61114,0.10751l-0.2746,-1.56089z" stroke-linecap="butt"/></g></g></g></svg>