<svg version="1.1" xmlns="http://www.w3.org/2000/svg" xmlns:xlink="http://www.w3.org/1999/xlink" width="117" height="117" viewBox="0,0,117,117"><g transform="translate(-181.5,-121.5)"><g data-paper-data="{&quot;isPaintingLayer&quot;:true}" fill-rule="nonzero" stroke="#000000" stroke-width="2" stroke-linejoin="miter" stroke-miterlimit="10" stroke-dasharray="" stroke-dashoffset="0" style="mix-blend-mode: normal"><path d="M182.5,180c0,-31.75637 25.74363,-57.5 57.5,-57.5c31.75637,0 57.5,25.74363 57.5,57.5c0,31.75637 -25.74363,57.5 -57.5,57.5c-31.75637,0 -57.5,-25.74363 -57.5,-57.5z" fill-opacity="0.5" fill="#ffffff" stroke-linecap="butt"/><g fill="#000000" stroke-linecap="butt"><path d="M210.53425,192.18662l-18.64637,-12.18662l18.64637,-12.18662z"/><path d="M209.60001,183.21938v-5.8h12.4v5.8z"/></g><path d="M200,140l80,80" fill="none" stroke-linecap="round"/><path d="M200,220l80,-80" data-paper-data="{&quot;index&quot;:null}" fill="none" stroke-linecap="round"/><g data-paper-data="{&quot;index&quot;:null}" fill="#000000" stroke-linecap="butt"><path d="M268.55364,167.81338l18.64637,12.18662l-18.64637,12.18662z"/><path d="M257.08788,183.21938v-5.8h12.4v5.8z"/></g><g fill="#000000" stroke-linecap="butt"><path d="M227.81338,148.99031l12.18662,-18.64637l12.18662,18.64637z"/><path d="M236.78062,148.05606h5.8v12.4h-5.8z"/></g></g></g></svg>