<svg version="1.1" xmlns="http://www.w3.org/2000/svg" xmlns:xlink="http://www.w3.org/1999/xlink" width="72.73082" height="34.90717" viewBox="0,0,72.73082,34.90717"><g transform="translate(-203.82209,-162.54641)"><g data-paper-data="{&quot;isPaintingLayer&quot;:true}" fill-rule="nonzero" stroke-linejoin="miter" stroke-miterlimit="10" stroke-dasharray="" stroke-dashoffset="0" style="mix-blend-mode: normal"><text transform="translate(259.54969,180.33454) rotate(180) scale(0.08096,0.08096)" font-size="40" xml:space="preserve" fill="#000000" fill-rule="nonzero" stroke="none" stroke-width="1" stroke-linecap="butt" stroke-linejoin="miter" stroke-miterlimit="10" stroke-dasharray="" stroke-dashoffset="0" font-family="Pixel" font-weight="normal" text-anchor="start" style="mix-blend-mode: normal"><tspan x="0" dy="0">made by @itsadiesel</tspan></text><path d="M275.49663,180.74168v3.66573l0.23389,0.19791l0.03598,0.23389v1.43933l-0.01799,0.10795l-0.05397,0.10795l-0.14393,0.08996l-0.25188,1.40334l-0.37782,1.20543l-0.95355,1.40334l-0.23389,0.59372l-0.2159,0.30586l-0.34184,0.35983l-0.44979,0.41381l-0.68368,0.44979l-1.01109,0.52176l-1.29539,0.28787l-0.4318,0.10795l-0.8456,0.6477l-0.37782,0.26987l-0.82761,0.35983l-0.71966,0.17992l-1.67322,0.14393l-2.69874,0.08996h-5.77529l-0.44979,-0.05397l-0.32385,-0.12594l-0.34184,-0.32385h-16.93007l-9.40959,-0.08996l-0.71966,0.57573l-0.37782,0.12594l-0.73766,0.08996l-1.00753,0.07197l-8.72591,-0.08996l-0.6477,-0.08996l-0.70167,-0.19791l-1.29539,-0.62971l-4.92969,-0.19791l-0.53975,-0.07197l-0.61171,-0.23389l-0.39581,-0.37782l-0.16192,-0.44979l-0.12594,-0.48577l-0.10795,-1.13347l0.10795,-0.32385l0.48577,-0.16192l-0.16192,-0.82761l-0.10795,-1.43933l-0.03598,-2.19497v-6.27784l0.00267,-0.7881v-6.31872l0.03598,-2.19497l0.10795,-1.43933l0.16192,-0.82761l-0.48577,-0.16192l-0.10795,-0.32385l0.10795,-1.13347l0.12594,-0.48577l0.16192,-0.44979l0.39581,-0.37782l0.61171,-0.23389l0.53975,-0.07197l4.92969,-0.19791l1.29539,-0.62971l0.70167,-0.19791l0.6477,-0.08996l8.72591,-0.08996l1.00753,0.07197l0.73766,0.08996l0.37782,0.12594l0.71966,0.57573l9.40959,-0.08996h16.93007l0.34184,-0.32385l0.32385,-0.12594l0.44979,-0.05397h5.77529l2.69874,0.08996l1.67322,0.14393l0.71966,0.17992l0.82761,0.35983l0.37782,0.26987l0.8456,0.6477l0.4318,0.10795l1.29539,0.28787l1.01109,0.52176l0.68368,0.44979l0.44979,0.41381l0.34184,0.35983l0.2159,0.30586l0.23389,0.59372l0.95355,1.40334l0.37782,1.20543l0.25188,1.40334l0.14393,0.08996l0.05397,0.10795l0.01799,0.10795v1.43933l-0.03598,0.23389l-0.23389,0.19791v3.83663z" fill="#7a2e2e" stroke="#000000" stroke-width="1.5" stroke-linecap="round"/><path d="M207.90687,191.2788l-0.06891,-1.30917l-0.0689,-2.89396v-6.62467l0.00267,-0.87341v-6.65324l0.0689,-2.89396l0.06891,-1.30917l0.08765,-0.14002l0.04498,0.12369l0.4273,0.19116l-0.17992,1.03452l-0.07871,1.40559l0.02249,18.32892l0.08996,0.7534l0.12369,0.7534z" fill="#343434" stroke="#000000" stroke-width="0.75" stroke-linecap="round"/><path d="M210.51492,167.22002l-0.12819,0.22939l-0.37108,0.4318l-0.22939,0.35758l-0.17542,0.33734l-0.14843,0.26313l-0.97155,-0.00675l0.42505,-1.05251l0.37108,-0.74215l0.32385,-0.25638l0.48577,-0.00675l0.29011,0.16867z" data-paper-data="{&quot;index&quot;:null}" fill="#6b2222" stroke="#ff0000" stroke-width="0.05" stroke-linecap="round"/><path d="M275.5316,175.01627v9.92976l-2.29723,-0.47615l0.0759,-2.94753v-0.73741l0.00267,-1.40302v-0.90429l-0.0759,-2.94753z" fill="#7a2e2e" stroke="#000000" stroke-width="0.75" stroke-linecap="round"/><path d="M274.58918,185.06025v-10.22521l0.94456,0.68968v9.70046z" fill="#343434" stroke="#000000" stroke-width="0.75" stroke-linecap="round"/><path d="M209.96368,190.51661l-0.03114,-0.27247l-0.00779,-2.34323l-0.03892,-17.29786l0.05449,-1.12101l0.17127,0.10899l1.58032,1.36234l1.40905,1.26114l0.11677,0.24911l0.07006,0.67728v13.81026l-0.07785,0.67728l-0.23354,0.31918l-2.85703,2.47557l-0.04671,0.06228z" fill="#343434" stroke="#ff0000" stroke-width="0.05" stroke-linecap="round"/><path d="M212.01887,172.59596l0.02335,0.49823l-0.21797,0.22576l-0.04671,0.49823l0.01557,12.65811l0.28804,0.63057l-0.05449,0.42816l-2.17196,1.95399l-0.11677,-8.05729l0.02335,-6.04102l0.07006,-2.49114l0.03114,-2.02405l0.03114,-0.4593l0.1012,0.30361l1.35456,1.17551l0.59165,0.52937z" fill="#666666" stroke="#ff0000" stroke-width="0.05" stroke-linecap="round"/><path d="M213.13942,172.72263l0.14488,0.11079v0.22158h-1.25278l0.04261,-0.35794z" data-paper-data="{&quot;index&quot;:null}" fill="#343434" stroke="#ff0000" stroke-width="0.05" stroke-linecap="round"/><path d="M207.748,182.87262l0.80962,0.58737l0.17462,0.17462l0.07937,0.33337v0.5715l-0.09525,0.20637l-0.26987,0.23812l-0.79375,0.52387z" data-paper-data="{&quot;index&quot;:null}" fill="#7a7a7a" stroke="#000000" stroke-width="0.75" stroke-linecap="round"/><path d="M212.07146,187.30294l-0.04261,-0.35794h1.25278v0.22158l-0.14488,0.11079z" fill="#343434" stroke="#ff0000" stroke-width="0.05" stroke-linecap="round"/><path d="M210.38406,193.0566l-0.29011,0.16867l-0.48577,-0.00675l-0.32385,-0.25638l-0.37108,-0.74215l-0.42505,-1.05251l0.97155,-0.00675l0.14843,0.26313l0.17542,0.33734l0.22939,0.35758l0.37108,0.4318l0.12819,0.22939z" fill="#6b2222" stroke="#ff0000" stroke-width="0.05" stroke-linecap="round"/><path d="M273.97231,190.66855h-0.97407l-0.36716,-0.43454l0.90629,-4.28978l1.98176,0.13292l0.04834,0.64045l-0.3021,1.23256l-0.04834,0.51961l-0.31418,0.79754z" fill="#343434" stroke="#000000" stroke-width="0.75" stroke-linecap="round"/><path d="M274.0229,186.44333v0.1012l-0.03795,0.29096l-0.02554,0.22007c0.20592,0.2324 0.30997,0.65422 0.24626,1.11475c-0.07043,0.5091 -0.32532,0.91701 -0.62375,1.05196l-0.19156,0.15182l-0.17708,0.64929l-0.25301,0.64517l-0.63252,1.04998l-0.53131,0.54396l-0.63252,0.46806l-0.51866,0.36686l-1.12588,0.49336l-0.77167,-0.84757l-0.1012,-0.30361v-0.13915l0.13915,-0.13915l0.24036,-0.06325l0.68312,-0.21505l0.93612,-0.50601l0.67047,-0.60722l0.40481,-0.63252l0.35421,-0.78432l0.24036,-0.83492l0.26566,-1.35359l0.21506,-0.40481l0.25301,-0.31626z" fill="#cccccc" stroke="#000000" stroke-width="0.75" stroke-linecap="butt"/><path d="M275.70434,184.61567l0.07496,0.31485v1.43933l-0.26787,0.09879h-2.46681l-0.1265,-0.11385l0.01265,-0.30361v-1.34093l0.1012,-0.16446l0.16445,-0.0506h2.31501z" fill="#7a2e2e" stroke="#000000" stroke-width="0.75" stroke-linecap="round"/><path d="M255.26809,194.76397l0.20943,-0.17382l0.49336,-0.13915l1.40419,-0.26566l2.73247,-0.20241l5.81915,-0.27831l3.40294,-0.1518l-0.82305,0.7783l-0.88459,0.46478l-1.22943,0.34484l-2.7737,0.14993l-5.42746,0.05997l-2.09902,-0.10495l-0.44979,-0.07496z" fill="#343434" stroke="#000000" stroke-width="0.75" stroke-linecap="round"/><path d="M214.76877,194.61544l0.89817,-0.1012l1.50539,-0.06325h10.04436l0.89817,0.08855l0.80962,0.16446l-0.47915,0.42175l-0.44979,0.29986l-1.99407,0.22489l-8.68094,-0.17992l-0.80962,-0.07496l-0.95955,-0.38982l-0.58473,-0.29986z" fill="#343434" stroke="#000000" stroke-width="0.75" stroke-linecap="round"/><path d="M222.1463,187.75031l-4.98367,-0.13494l-1.5346,-0.20923l-1.64091,-0.35751l-0.09896,-0.12594v-0.22489l0.25188,0.04498l2.02405,0.44979l1.84414,0.14393l4.20103,0.06297z" fill="#343434" stroke="#ff0000" stroke-width="0.05" stroke-linecap="round"/><path d="M213.99416,186.70246l1.41253,0.32729l0.77517,0.15503l1.46421,0.13781l4.15146,0.10336l0.15503,0.08613l-0.15503,0.18949l-4.40985,-0.08613l-1.34363,-0.13781l-2.13602,-0.4651" fill="none" stroke="#000000" stroke-width="0.75" stroke-linecap="round"/><path d="M242.4237,188.01201l0.19747,-0.17772l1.99443,0.09873l1.46127,0.15797l0.01975,0.35544l-0.67139,-0.07899l-1.75747,-0.11848l-1.18481,-0.05924z" fill="#343434" stroke="#000000" stroke-width="0.75" stroke-linecap="round"/><path d="M241.43234,188.016l-0.57561,0.19l-17.0724,-0.29734l-0.53474,-0.53719l0.61481,-0.14515l17.00848,0.32097z" fill="#343434" stroke="#000000" stroke-width="0.75" stroke-linecap="round"/><path d="M268.59592,192.47754l-2.77042,0.30361l-2.96018,0.21506l-9.20944,0.21506" fill="none" stroke="#000000" stroke-width="0.75" stroke-linecap="round"/><path d="M256.35672,192.23086l0.8539,0.8539" fill="none" stroke="#000000" stroke-width="0.75" stroke-linecap="round"/><path d="M222.03965,195.46912c0,0 -0.19033,-0.56271 -0.2373,-0.937c-0.04697,-0.37428 0,-0.95401 0,-0.95401l0.11385,-0.48071l1.60659,-3.44089l0.1771,-0.16445l0.22771,-0.0759l0.1771,-0.06325h11.35999l5.9583,0.08855l2.04935,0.1265l1.21443,0.22771l1.15118,0.32891l3.6939,1.16383l3.54209,1.22708l0.27831,0.21506l0.22771,0.26566l0.51866,1.74575" fill="none" stroke="#000000" stroke-width="0.75" stroke-linecap="round"/><path d="M218.51327,195.48832l-1.17648,-0.99938l-2.60597,-0.25301l-1.9861,-0.20241l-1.79635,-0.30361l-0.59457,-0.36686l-0.20241,-0.16446l-0.46806,0.0253l-0.22771,-0.08855l-0.25301,-0.32891l-0.48071,-0.99938l-0.20241,-0.61987h1.40419l0.27831,-0.03795l0.1771,-0.08855l1.89755,-1.59394l1.30298,-1.02468l0.16445,-0.1771l0.1012,-0.31626l0.06325,-0.84757v-6.98416l0.00267,-0.23396v-6.98416l-0.06325,-0.84757l-0.1012,-0.31626l-0.16445,-0.1771l-1.30298,-1.02468l-1.89755,-1.59394l-0.1771,-0.08855l-0.27831,-0.03795h-1.40419l0.20241,-0.61987l0.48071,-0.99938l0.25301,-0.32891l0.22771,-0.08855l0.46806,0.0253l0.20241,-0.16446l0.59457,-0.36686l1.79635,-0.30361l1.9861,-0.20241l2.60597,-0.25301l1.17648,-0.99938" fill="none" stroke="#000000" stroke-width="0.75" stroke-linecap="round"/><path d="M209.51889,191.19986l0.0253,0.0759l0.24036,0.48071l0.27831,0.43011l0.40481,0.49336l0.0253,0.22771l-0.08855,0.11385l-0.22771,0.1518" fill="none" stroke="#000000" stroke-width="0.75" stroke-linecap="round"/><path d="M209.97947,169.43589l3.11254,2.7707l0.10795,0.19791l0.07197,0.41381l0.01799,3.02259v3.96133l-0.00267,0.47287v3.88402l-0.01799,3.02259l-0.07197,0.41381l-0.10795,0.19791l-3.11254,2.7707" fill="none" stroke="#000000" stroke-width="0.75" stroke-linecap="round"/><path d="M209.93121,170.63953l1.84005,1.58244l0.23921,0.23921l0.0736,0.27601v0.27601l-0.1564,0.1564l-0.1012,0.1932l-0.0368,0.25761v6.27456l-0.00267,0.21007v6.27456l0.0368,0.25761l0.1012,0.1932l0.1564,0.1564v0.27601l-0.0736,0.27601l-0.23921,0.23921l-1.84005,1.58244" fill="none" stroke="#000000" stroke-width="0.75" stroke-linecap="round"/><path d="M213.18543,186.96841h-1.06723" fill="none" stroke="#000000" stroke-width="0.75" stroke-linecap="round"/><path d="M213.22223,187.26282h-1.04883" fill="none" stroke="#000000" stroke-width="0.75" stroke-linecap="round"/><path d="M223.80514,187.11353l-0.02585,0.91966l-2.1704,-0.061l0.02585,-0.91966z" fill="#343434" stroke="#000000" stroke-width="0.75" stroke-linecap="butt"/><path d="M242.71352,187.50934l-0.02585,0.91966l-2.1704,-0.061l0.02585,-0.91966z" fill="#343434" stroke="#000000" stroke-width="0.75" stroke-linecap="butt"/><path d="M234.83375,179.49904v-5.54719l0.06417,-0.28766l0.19543,-0.26522l0.15355,-0.06979l0.26522,-0.02792h5.17878l0.36293,0.08375l0.2373,0.22334l0.09771,0.18147c0,0 0.30881,1.64586 0.38359,2.57964c0.06189,0.77282 0.10016,2.22403 0.11891,3.11287l-0.00011,0.91163c-0.01769,0.87197 -0.05661,2.42674 -0.12147,3.23659c-0.07478,0.93378 -0.38359,2.57964 -0.38359,2.57964l-0.09771,0.18147l-0.2373,0.22334l-0.36293,0.08375h-5.17878l-0.26522,-0.02792l-0.15355,-0.06979l-0.19543,-0.26522l-0.06417,-0.28766v-5.89909z" fill="#343434" stroke="#000000" stroke-width="0.75" stroke-linecap="round"/><path d="M234.89525,189.37887l1.74487,3.67121c0,0 -0.22384,0.65992 -0.17689,0.86113c0.07216,0.30926 0.56775,0.81394 0.56775,0.81394" fill="none" stroke="#000000" stroke-width="0.75" stroke-linecap="round"/><path d="M220.11734,184.82666c-0.30531,0 -0.55281,-0.24485 -0.55281,-0.5469c0,-0.30204 0.2475,-0.54099 0.55281,-0.54099h12.74119c0.30531,0 0.55281,0.23895 0.55281,0.54099c0,0.30204 -0.2475,0.5469 -0.55281,0.5469z" fill="none" stroke="#000000" stroke-width="0.75" stroke-linecap="butt"/><path d="M220.11734,182.31404c-0.30531,0 -0.55281,-0.24485 -0.55281,-0.5469c0,-0.30204 0.2475,-0.54099 0.55281,-0.54099h12.74119c0.30531,0 0.55281,0.23895 0.55281,0.54099c0,0.30204 -0.2475,0.5469 -0.55281,0.5469z" fill="none" stroke="#000000" stroke-width="0.75" stroke-linecap="butt"/><path d="M245.82307,179.44894v-5.97912l0.02655,-1.35379l0.03982,-0.83617l0.06636,-0.43799l0.06636,-0.25218l0.13272,-0.17254l0.27872,-0.19909l0.88163,-0.35911l6.12999,-1.98725l0.87271,-0.08412h1.53513l0.55727,0.05257l0.29441,0.10515l0.76756,0.46264l0.88322,0.82014l0.56779,1.06197l0.45213,1.34586l0.27338,1.61924l0.21029,1.49306l0.11566,2.05034l0.11566,2.75481l-0.00267,0.89326l-0.11566,2.75481l-0.11566,2.05034l-0.21029,1.49306l-0.27338,1.61924l-0.45213,1.34586l-0.56779,1.06197l-0.88322,0.82014l-0.76756,0.46264l-0.29441,0.10515l-0.55727,0.05257h-1.53513l-0.87271,-0.08412l-6.12999,-1.98725l-0.88163,-0.35911l-0.27872,-0.19909l-0.13272,-0.17254l-0.06636,-0.25218l-0.06636,-0.43799l-0.03982,-0.83617l-0.02655,-1.35379v-6.03522z" fill="#343434" stroke="#000000" stroke-width="0.75" stroke-linecap="round"/><path d="M262.55037,183.65189c0,0.18312 -0.14844,0.33156 -0.33156,0.33156c-0.18312,0 -0.33156,-0.14844 -0.33156,-0.33156c0,-0.18312 0.14844,-0.33156 0.33156,-0.33156c0.18311,0 0.33156,0.14844 0.33156,0.33156z" fill="#343434" stroke="#000000" stroke-width="0.75" stroke-linecap="butt"/><path d="M252.57877,193.35968h-14.05502l-0.30226,-0.05397l-0.14033,-0.08636l-1.64083,-2.3533l-0.12954,-0.22669v-0.22669l0.04318,-0.22669l0.12954,-0.11874l0.2051,-0.09715h5.48383l1.32778,0.09715l0.72326,0.12954l0.58293,0.14033l1.78117,0.58293l5.98705,1.97548c0,0 0.22459,0.10098 0.2095,0.26801c-0.01992,0.22044 -0.20536,0.19618 -0.20536,0.19618z" fill="#343434" stroke="#000000" stroke-width="0.75" stroke-linecap="round"/><path d="M248.60657,193.05943h-10.15792l-0.11297,-0.02824l-0.1318,-0.11297l-1.54393,-2.27824l-0.02824,-0.18828l0.11297,-0.17887l0.16004,-0.0659h5.22488l0.932,0.0659l0.88494,0.1318l0.95083,0.25418l3.73744,1.30857l0.04707,0.11297v0.91318z" fill="#666666" stroke="#000000" stroke-width="0.75" stroke-linecap="round"/><path d="M235.48319,193.05001c0,0 0.0895,0.21434 0.04493,0.26034c-0.05166,0.05333 -0.33677,0.04091 -0.33677,0.04091h-11.77716c0,0 -0.30988,0.01291 -0.3538,-0.06517c-0.04053,-0.07206 0.09962,-0.38671 0.09962,-0.38671l1.0638,-2.71129l0.11297,-0.09414l0.18828,-0.07531h9.32005l0.34832,0.02824l0.22594,0.08473l0.14121,0.1977l0.92259,2.7207z" fill="#343434" stroke="#000000" stroke-width="0.75" stroke-linecap="round"/><path d="M235.19134,192.88056v0.11297l-0.0659,0.02824h-11.56063l-0.08473,-0.03766l-0.02824,-0.10356l0.91318,-2.45711l0.14121,-0.14121l0.12238,-0.01883h9.30123l0.31067,0.0659l0.11297,0.15063l0.78138,2.27824z" fill="#666666" stroke="#000000" stroke-width="0.75" stroke-linecap="round"/><path d="M219.66168,193.16298h-4.94245l-0.75314,-0.01883l-0.73431,-0.09414l-0.62134,-0.15063l-0.31067,-0.12238l-0.16004,-0.15063l-0.03766,-0.12238l0.03766,-0.30126l0.14121,-0.32008l1.97698,-2.19351l0.17887,-0.11297l0.2636,-0.04707l0.35774,0.01883l1.77928,0.2636l0.64958,0.03766h3.77509l0.15063,0.05649l0.04707,0.15063l-0.02824,0.3295l-1.5251,2.68305l-0.12238,0.08473z" fill="#666666" stroke="#000000" stroke-width="0.75" stroke-linecap="round"/><path d="M220.89211,192.91771c0,-0.06334 0.09968,-0.1147 0.22265,-0.1147c0.12296,0 0.22265,0.05135 0.22265,0.1147c0,0.06334 -0.09968,0.1147 -0.22265,0.1147c-0.12296,0 -0.22265,-0.05135 -0.22265,-0.1147z" fill="#45611b" stroke="#000000" stroke-width="0.25" stroke-linecap="butt"/><path d="M272.70687,188.01066c0.07761,-0.53266 0.4416,-0.9206 0.81299,-0.86649c0.3714,0.05411 0.60956,0.52979 0.53195,1.06245c-0.07761,0.53266 -0.4416,0.92061 -0.81299,0.86649c-0.3714,-0.05411 -0.60956,-0.52979 -0.53196,-1.06245z" fill="#dddddd" stroke="#939393" stroke-width="0.75" stroke-linecap="butt"/><path d="M274.90551,170.73271l0.31418,0.79754l0.04834,0.51961l0.3021,1.23256l-0.04833,0.64045l-1.98176,0.13292l-0.90629,-4.28978l0.36716,-0.43454h0.97407z" data-paper-data="{&quot;index&quot;:null}" fill="#343434" stroke="#000000" stroke-width="0.75" stroke-linecap="round"/><path d="M273.0515,173.55667l-0.25301,-0.31626l-0.21506,-0.40481l-0.26566,-1.35359l-0.24036,-0.83492l-0.35421,-0.78432l-0.40481,-0.63252l-0.67047,-0.60722l-0.93612,-0.50601l-0.68312,-0.21505l-0.24036,-0.06325l-0.13915,-0.13915v-0.13915l0.1012,-0.30361l0.77167,-0.84757l1.12588,0.49336l0.51866,0.36686l0.63252,0.46806l0.53131,0.54396l0.63252,1.04998l0.25301,0.64517l0.17708,0.64929l0.19156,0.15182c0.29843,0.13494 0.55332,0.54285 0.62375,1.05196c0.06371,0.46053 -0.04034,0.88235 -0.24626,1.11475l0.02554,0.22007l0.03795,0.29096v0.1012z" data-paper-data="{&quot;index&quot;:null}" fill="#cccccc" stroke="#000000" stroke-width="0.75" stroke-linecap="butt"/><path d="M275.51409,175.50482h-2.31501l-0.16445,-0.0506l-0.1012,-0.16446v-1.34093l-0.01265,-0.30361l0.1265,-0.11385h2.46681l0.26787,0.09879v1.43933l-0.07497,0.31485z" data-paper-data="{&quot;index&quot;:null}" fill="#7a2e2e" stroke="#000000" stroke-width="0.75" stroke-linecap="round"/><path d="M255.64527,164.82928l0.44979,-0.07497l2.09902,-0.10495l5.42746,0.05997l2.7737,0.14993l1.22943,0.34484l0.88459,0.46478l0.82305,0.7783l-3.40294,-0.1518l-5.81915,-0.27831l-2.73247,-0.20241l-1.40419,-0.26566l-0.49336,-0.13915l-0.20943,-0.17382z" data-paper-data="{&quot;index&quot;:null}" fill="#343434" stroke="#000000" stroke-width="0.75" stroke-linecap="round"/><path d="M214.96932,165.29406l0.58473,-0.29986l0.95955,-0.38982l0.80962,-0.07496l8.68094,-0.17992l1.99407,0.22489l0.44979,0.29986l0.47915,0.42175l-0.80962,0.16446l-0.89817,0.08855h-10.04436l-1.50539,-0.06325l-0.89817,-0.1012z" data-paper-data="{&quot;index&quot;:null}" fill="#343434" stroke="#000000" stroke-width="0.75" stroke-linecap="round"/><path d="M222.21194,172.60052l-4.20103,0.06297l-1.84414,0.14393l-2.02405,0.44979l-0.25188,0.04498v-0.22489l0.09896,-0.12594l1.64091,-0.35751l1.5346,-0.20923l4.98367,-0.13494z" data-paper-data="{&quot;index&quot;:null}" fill="#343434" stroke="#ff0000" stroke-width="0.05" stroke-linecap="round"/><path d="M213.9107,172.98748l2.13602,-0.4651l1.34363,-0.13781l4.40985,-0.08613l0.15503,0.18949l-0.15503,0.08613l-4.15146,0.10336l-1.46421,0.13781l-0.77517,0.15503l-1.41253,0.32729" data-paper-data="{&quot;index&quot;:null}" fill="none" stroke="#000000" stroke-width="0.75" stroke-linecap="round"/><path d="M242.4856,171.81026l1.18481,-0.05924l1.75747,-0.11848l0.67139,-0.07899l-0.01975,0.35544l-1.46127,0.15797l-1.99443,0.09873l-0.19747,-0.17772z" data-paper-data="{&quot;index&quot;:null}" fill="#343434" stroke="#000000" stroke-width="0.75" stroke-linecap="round"/><path d="M240.87556,172.45271l-17.00848,0.32097l-0.61481,-0.14515l0.53474,-0.53719l17.0724,-0.29734l0.57561,0.19z" data-paper-data="{&quot;index&quot;:null}" fill="#343434" stroke="#000000" stroke-width="0.75" stroke-linecap="round"/><path d="M253.65855,166.78874l9.20944,0.21506l2.96018,0.21506l2.77042,0.30361" data-paper-data="{&quot;index&quot;:null}" fill="none" stroke="#000000" stroke-width="0.75" stroke-linecap="round"/><path d="M257.21329,166.91525l-0.8539,0.8539" data-paper-data="{&quot;index&quot;:null}" fill="none" stroke="#000000" stroke-width="0.75" stroke-linecap="round"/><path d="M254.10131,165.25805l-0.51866,1.74575l-0.22771,0.26566l-0.27831,0.21506l-3.54209,1.22708l-3.6939,1.16383l-1.15118,0.32891l-1.21443,0.22771l-2.04935,0.1265l-5.9583,0.08855h-11.35999l-0.1771,-0.06325l-0.22771,-0.0759l-0.1771,-0.16445l-1.60659,-3.44089l-0.11385,-0.48071c0,0 -0.04697,-0.57972 0,-0.95401c0.04697,-0.37428 0.2373,-0.937 0.2373,-0.937" data-paper-data="{&quot;index&quot;:null}" fill="none" stroke="#000000" stroke-width="0.75" stroke-linecap="round"/><path d="M210.17937,166.82669l0.22771,0.1518l0.08855,0.11385l-0.0253,0.22771l-0.40481,0.49336l-0.27831,0.43011l-0.24036,0.48071l-0.0253,0.0759" data-paper-data="{&quot;index&quot;:null}" fill="none" stroke="#000000" stroke-width="0.75" stroke-linecap="round"/><path d="M210.10274,191.12185l-0.16192,-0.66569l-0.08996,-1.56527l-0.03598,-1.94309l-0.08996,-6.02718v-0.80962l0.00267,-0.22202v-0.80962l0.08996,-6.02718l0.03598,-1.94309l0.08996,-1.56527l0.16192,-0.66569" data-paper-data="{&quot;index&quot;:null}" fill="none" stroke="#000000" stroke-width="0.75" stroke-linecap="round"/><path d="M213.1881,173.03159h-1.06723" data-paper-data="{&quot;index&quot;:null}" fill="none" stroke="#000000" stroke-width="0.75" stroke-linecap="round"/><path d="M212.72809,173.03159v6.84958l-0.00267,0.40469v6.68255" data-paper-data="{&quot;index&quot;:null}" fill="none" stroke="#000000" stroke-width="0.75" stroke-linecap="round"/><path d="M213.2249,172.73718h-1.04883" data-paper-data="{&quot;index&quot;:null}" fill="none" stroke="#000000" stroke-width="0.75" stroke-linecap="round"/><path d="M221.63741,172.94748l-0.02585,-0.91966l2.1704,-0.061l0.02585,0.91966z" data-paper-data="{&quot;index&quot;:null}" fill="#343434" stroke="#000000" stroke-width="0.75" stroke-linecap="butt"/><path d="M240.54578,172.55167l-0.02585,-0.91966l2.1704,-0.061l0.02585,0.91966z" data-paper-data="{&quot;index&quot;:null}" fill="#343434" stroke="#000000" stroke-width="0.75" stroke-linecap="butt"/><path d="M241.49024,180.22309c-0.01428,0.78578 -0.04924,2.3756 -0.10981,3.18168c-0.06607,0.8793 -0.33892,2.42912 -0.33892,2.42912l-0.08633,0.17088l-0.20967,0.21031l-0.32066,0.07887h-4.57564l-0.23433,-0.02629l-0.13566,-0.06572l-0.17267,-0.24975l-0.0567,-0.27088v-5.51714l0.00267,-0.62734v-5.21811l0.0567,-0.27088l0.17267,-0.24975l0.13566,-0.06572l0.23433,-0.02629h4.57564l0.32066,0.07887l0.20967,0.21031l0.08633,0.17088c0,0 0.27284,1.54982 0.33892,2.42912c0.05565,0.74065 0.08969,2.14298 0.10593,2.9753z" data-paper-data="{&quot;index&quot;:null}" fill="#666666" stroke="#000000" stroke-width="0.5" stroke-linecap="round"/><path d="M237.03365,165.27484c0,0 -0.49558,0.50468 -0.56775,0.81394c-0.04695,0.20122 0.17689,0.86113 0.17689,0.86113l-1.74487,3.67121" data-paper-data="{&quot;index&quot;:null}" fill="none" stroke="#000000" stroke-width="0.75" stroke-linecap="round"/><path d="M232.86119,175.17334c0.30531,0 0.55281,0.24485 0.55281,0.5469c0,0.30204 -0.2475,0.54099 -0.55281,0.54099h-12.74119c-0.30531,0 -0.55281,-0.23895 -0.55281,-0.54099c0,-0.30204 0.2475,-0.5469 0.55281,-0.5469z" data-paper-data="{&quot;index&quot;:null}" fill="none" stroke="#000000" stroke-width="0.75" stroke-linecap="butt"/><path d="M232.86119,177.68596c0.30531,0 0.55281,0.24485 0.55281,0.5469c0,0.30204 -0.2475,0.54099 -0.55281,0.54099h-12.74119c-0.30531,0 -0.55281,-0.23895 -0.55281,-0.54099c0,-0.30204 0.2475,-0.5469 0.55281,-0.5469z" data-paper-data="{&quot;index&quot;:null}" fill="none" stroke="#000000" stroke-width="0.75" stroke-linecap="butt"/><path d="M262.22148,176.67966c-0.18312,0 -0.33156,-0.14844 -0.33156,-0.33156c0,-0.18312 0.14844,-0.33156 0.33156,-0.33156c0.18312,0 0.33156,0.14844 0.33156,0.33156c0,0.18312 -0.14845,0.33156 -0.33156,0.33156z" data-paper-data="{&quot;index&quot;:null}" fill="#343434" stroke="#000000" stroke-width="0.75" stroke-linecap="butt"/><path d="M252.58144,166.64032c0,0 0.18545,-0.02426 0.20536,0.19618c0.01509,0.16703 -0.2095,0.26801 -0.2095,0.26801l-5.98705,1.97548l-1.78117,0.58293l-0.58293,0.14033l-0.72326,0.12954l-1.32778,0.09715h-5.48383l-0.2051,-0.09715l-0.12954,-0.11874l-0.04318,-0.22669v-0.22669l0.12954,-0.22669l1.64083,-2.3533l0.14033,-0.08636l0.30226,-0.05397h14.05502z" data-paper-data="{&quot;index&quot;:null}" fill="#343434" stroke="#000000" stroke-width="0.75" stroke-linecap="round"/><path d="M248.68455,167.00647v0.91318l-0.04707,0.11297l-3.73744,1.30857l-0.95083,0.25418l-0.88494,0.1318l-0.932,0.0659h-5.22488l-0.16004,-0.0659l-0.11297,-0.17887l0.02824,-0.18828l1.54393,-2.27824l0.1318,-0.11297l0.11297,-0.02824h10.15792z" data-paper-data="{&quot;index&quot;:null}" fill="#666666" stroke="#000000" stroke-width="0.75" stroke-linecap="round"/><path d="M235.48585,166.94999l-0.92259,2.7207l-0.14121,0.1977l-0.22594,0.08473l-0.34832,0.02824h-9.32005l-0.18828,-0.07531l-0.11297,-0.09414l-1.0638,-2.71129c0,0 -0.14015,-0.31465 -0.09962,-0.38671c0.04392,-0.07808 0.3538,-0.06517 0.3538,-0.06517h11.77716c0,0 0.28511,-0.01242 0.33677,0.04091c0.04457,0.04601 -0.04493,0.26034 -0.04493,0.26034z" data-paper-data="{&quot;index&quot;:null}" fill="#343434" stroke="#000000" stroke-width="0.75" stroke-linecap="round"/><path d="M235.13752,167.24183l-0.78138,2.27824l-0.11297,0.15063l-0.31067,0.0659h-9.30123l-0.12238,-0.01883l-0.14121,-0.14121l-0.91318,-2.45711l0.02824,-0.10356l0.08473,-0.03766h11.56063l0.0659,0.02824v0.11297z" data-paper-data="{&quot;index&quot;:null}" fill="#666666" stroke="#000000" stroke-width="0.75" stroke-linecap="round"/><path d="M219.78673,166.84643l0.12238,0.08473l1.5251,2.68305l0.02824,0.3295l-0.04707,0.15063l-0.15063,0.05649h-3.77509l-0.64958,0.03766l-1.77928,0.2636l-0.35774,0.01883l-0.2636,-0.04707l-0.17887,-0.11297l-1.97698,-2.19351l-0.14121,-0.32008l-0.03766,-0.30126l0.03766,-0.12238l0.16004,-0.15063l0.31067,-0.12238l0.62134,-0.15063l0.73431,-0.09414l0.75314,-0.01883h4.94245z" data-paper-data="{&quot;index&quot;:null}" fill="#666666" stroke="#000000" stroke-width="0.75" stroke-linecap="round"/><path d="M221.11742,166.9676c0.12296,0 0.22265,0.05135 0.22265,0.1147c0,0.06334 -0.09968,0.1147 -0.22265,0.1147c-0.12296,0 -0.22265,-0.05135 -0.22265,-0.1147c0,-0.06334 0.09968,-0.1147 0.22265,-0.1147z" data-paper-data="{&quot;index&quot;:null}" fill="#45611b" stroke="#000000" stroke-width="0.25" stroke-linecap="butt"/><path d="M273.2415,170.92689c0.3714,-0.05411 0.73539,0.33383 0.81299,0.86649c0.07761,0.53266 -0.16056,1.00834 -0.53196,1.06245c-0.3714,0.05411 -0.73539,-0.33383 -0.81299,-0.86649c-0.07761,-0.53266 0.16056,-1.00834 0.53196,-1.06245z" data-paper-data="{&quot;index&quot;:null}" fill="#dddddd" stroke="#939393" stroke-width="0.75" stroke-linecap="butt"/><path d="M204.19709,183.41613v-4.33762l0.11113,-0.41275l0.20637,-0.1905l0.34925,-0.11112h3.01623l0.28575,0.07937l0.1905,0.23812l0.07937,0.33337v4.9118v0.39986v4.9753l-0.07937,0.33337l-0.1905,0.23812l-0.28575,0.07937h-3.01623l-0.34925,-0.11112l-0.20637,-0.1905l-0.11113,-0.41275v-4.56582z" fill="#343434" stroke="#000000" stroke-width="0.75" stroke-linecap="round"/><path d="M256.31513,169.32842l1.43757,3.9385l0.6504,11.31646l-2.27972,6.39175l-0.90605,0.25351h-1.15471l-0.59726,-0.05309l-0.59726,-0.11945l-2.5085,-0.82289l-3.05267,-0.79635l-0.30527,-0.11945l-0.09291,-0.10618l-0.05309,-0.39817v-8.50748l0.00267,-0.84648v-8.27213l0.05309,-0.39817l0.09291,-0.10618l0.30527,-0.11945l3.05267,-0.79635l2.5085,-0.82289l0.59726,-0.11945l0.59726,-0.05309h1.15471z" fill="#666666" stroke="#000000" stroke-width="0.75" stroke-linecap="round"/><path d="M257.70624,179.63486v-0.69396l-0.0736,-2.84945l-0.0736,-1.25123l-0.10515,-1.083l-0.50864,-1.96907l-0.44643,-0.96186l-0.53427,-1.04094l-1.31016,-1.94519l0.8974,0.42685l0.7698,0.62381l0.49108,0.54417l0.41145,0.67689l0.37163,0.70344l0.45126,1.48652l0.26545,1.32725l0.33181,2.49522l0.146,3.2783l-0.00267,1.19478l-0.146,3.2783l-0.33181,2.49522l-0.26545,1.32725l-0.45126,1.48652l-0.37163,0.70344l-0.41145,0.67689l-0.49108,0.54417l-0.7698,0.62381l-0.8974,0.42685l1.31016,-1.94519l0.53427,-1.04094l0.44643,-0.96186l0.50864,-1.96907l0.10515,-1.083l0.0736,-1.25123l0.0736,-2.84945v-0.69396z" data-paper-data="{&quot;index&quot;:null}" fill="#343434" stroke="#000000" stroke-width="0.75" stroke-linecap="round"/><path d="M275.53037,180.74168v3.66573l0.23389,0.19791l0.03598,0.23389v1.43933l-0.01799,0.10795l-0.05397,0.10795l-0.14393,0.08996l-0.25188,1.40334l-0.37782,1.20543l-0.95355,1.40334l-0.23389,0.59372l-0.2159,0.30586l-0.34184,0.35983l-0.44979,0.41381l-0.68368,0.44979l-1.01109,0.52176l-1.29539,0.28787l-0.4318,0.10795l-0.8456,0.6477l-0.37782,0.26987l-0.82761,0.35983l-0.71966,0.17992l-1.67322,0.14393l-2.69874,0.08996h-5.77529l-0.44979,-0.05397l-0.32385,-0.12594l-0.34184,-0.32385h-16.93007l-9.40959,-0.08996l-0.71966,0.57573l-0.37782,0.12594l-0.73766,0.08996l-1.00753,0.07197l-8.72591,-0.08996l-0.6477,-0.08996l-0.70167,-0.19791l-1.29539,-0.62971l-4.92969,-0.19791l-0.53975,-0.07197l-0.61171,-0.23389l-0.39581,-0.37782l-0.16192,-0.44979l-0.12594,-0.48577l-0.10795,-1.13347l0.10795,-0.32385l0.48577,-0.16192l-0.16192,-0.82761l-0.10795,-1.43933l-0.03598,-2.19497v-6.27784l0.00267,-0.7881v-6.31872l0.03598,-2.19497l0.10795,-1.43933l0.16192,-0.82761l-0.48577,-0.16192l-0.10795,-0.32385l0.10795,-1.13347l0.12594,-0.48577l0.16192,-0.44979l0.39581,-0.37782l0.61171,-0.23389l0.53975,-0.07197l4.92969,-0.19791l1.29539,-0.62971l0.70167,-0.19791l0.6477,-0.08996l8.72591,-0.08996l1.00753,0.07197l0.73766,0.08996l0.37782,0.12594l0.71966,0.57573l9.40959,-0.08996h16.93007l0.34184,-0.32385l0.32385,-0.12594l0.44979,-0.05397h5.77529l2.69874,0.08996l1.67322,0.14393l0.71966,0.17992l0.82761,0.35983l0.37782,0.26987l0.8456,0.6477l0.4318,0.10795l1.29539,0.28787l1.01109,0.52176l0.68368,0.44979l0.44979,0.41381l0.34184,0.35983l0.2159,0.30586l0.23389,0.59372l0.95355,1.40334l0.37782,1.20543l0.25188,1.40334l0.14393,0.08996l0.05397,0.10795l0.01799,0.10795v1.43933l-0.03598,0.23389l-0.23389,0.19791v3.83663z" fill="none" stroke="#000000" stroke-width="1.5" stroke-linecap="round"/><path d="M250.78125,192.75817l-0.05649,1.5251l-0.0659,0.63075l-0.23536,0.83786l-0.42364,0.76255l-0.3295,0.41422l-0.15063,0.10356l-0.18829,0.03766l-0.16004,-0.03766l-0.14121,-0.12238l-0.12238,-0.18828l-0.05649,-0.15063l-0.00941,-0.16004l0.07531,-0.25418l0.31067,-0.69665l0.30126,-0.88493l0.27301,-0.82845l0.05649,-0.43305l0.01883,-0.55544l0.04707,-0.18828l0.08473,-0.05649h0.38598l0.29184,0.03766l0.0659,0.10356z" fill="#343434" stroke="#000000" stroke-width="0.75" stroke-linecap="round"/><path d="M250.75567,167.34538l-0.0659,0.10356l-0.29184,0.03766h-0.38598l-0.08473,-0.05649l-0.04707,-0.18828l-0.01883,-0.55544l-0.05649,-0.43305l-0.27301,-0.82845l-0.30126,-0.88493l-0.31067,-0.69665l-0.07531,-0.25418l0.00941,-0.16004l0.05649,-0.15063l0.12238,-0.18828l0.14121,-0.12238l0.16004,-0.03766l0.18829,0.03766l0.15063,0.10356l0.3295,0.41422l0.42364,0.76255l0.23536,0.83786l0.0659,0.63075l0.05649,1.5251z" data-paper-data="{&quot;index&quot;:null}" fill="#343434" stroke="#000000" stroke-width="0.75" stroke-linecap="round"/></g></g></svg>