<svg version="1.1" xmlns="http://www.w3.org/2000/svg" xmlns:xlink="http://www.w3.org/1999/xlink" width="118.22551" height="60.58046" viewBox="0,0,118.22551,60.58046"><g transform="translate(-180.88724,-149.65546)"><g data-paper-data="{&quot;isPaintingLayer&quot;:true}" fill-rule="nonzero" stroke="#000000" stroke-width="2" stroke-linejoin="miter" stroke-miterlimit="10" stroke-dasharray="" stroke-dashoffset="0" style="mix-blend-mode: normal"><path d="M181.88724,208.70473c0,-32.05973 25.98954,-58.04927 58.04927,-58.04927c32.05973,0 60.30944,26.06931 58.04927,58.04927c-0.08186,1.15818 -23.64411,-0.01084 -26.1906,0.00061c-2.86218,0.01287 -31.85867,0.53033 -31.85867,0.53033c0,0 -25.74342,-0.70593 -28.84524,-0.57284c-1.90457,0.08172 -29.20403,1.46497 -29.20403,0.0419z" fill-opacity="0.5" fill="#ffffff" stroke-linecap="butt"/><path d="M182.2412,208.70473h115.39063" fill="none" stroke-linecap="round"/><path d="M239.93652,151.62884v56.9874" fill="none" stroke-linecap="round"/><path d="M218.53424,195.26724l-18.64637,-12.18662l18.64637,-12.18662z" fill="#000000" stroke-linecap="butt"/><path d="M260.61339,170.89401l18.64637,12.18662l-18.64637,12.18662z" data-paper-data="{&quot;index&quot;:null}" fill="#000000" stroke-linecap="butt"/><path d="M217.6,186.3v-5.8h12.4v5.8z" fill="#000000" stroke-linecap="butt"/><path d="M249.2,186.3v-5.8h12.4v5.8z" fill="#000000" stroke-linecap="butt"/></g></g></svg>