<svg version="1.1" xmlns="http://www.w3.org/2000/svg" xmlns:xlink="http://www.w3.org/1999/xlink" width="97.83433" height="44.37116" viewBox="0,0,97.83433,44.37116"><defs><linearGradient x1="200.07355" y1="194.54614" x2="200.07355" y2="198.56829" gradientUnits="userSpaceOnUse" id="color-1"><stop offset="0" stop-color="#414141"/><stop offset="1" stop-color="#191919"/></linearGradient><linearGradient x1="200.07355" y1="165.45388" x2="200.07355" y2="161.43172" gradientUnits="userSpaceOnUse" id="color-2"><stop offset="0" stop-color="#414141"/><stop offset="1" stop-color="#191919"/></linearGradient><linearGradient x1="230.7802" y1="198.01835" x2="230.7802" y2="198.57644" gradientUnits="userSpaceOnUse" id="color-3"><stop offset="0" stop-color="#414141"/><stop offset="1" stop-color="#191919"/></linearGradient><linearGradient x1="230.7802" y1="161.42357" x2="230.7802" y2="161.98166" gradientUnits="userSpaceOnUse" id="color-4"><stop offset="0" stop-color="#191919"/><stop offset="1" stop-color="#414141"/></linearGradient><linearGradient x1="205.2552" y1="166.24272" x2="193.95537" y2="166.24272" gradientUnits="userSpaceOnUse" id="color-5"><stop offset="0" stop-color="#7fa6e8"/><stop offset="1" stop-color="#1568c4"/></linearGradient><linearGradient x1="205.2552" y1="166.24272" x2="193.95537" y2="166.24272" gradientUnits="userSpaceOnUse" id="color-6"><stop offset="0" stop-color="#7fa6e8"/><stop offset="1" stop-color="#1568c4"/></linearGradient><linearGradient x1="201.66944" y1="164.83972" x2="198.74401" y2="164.83972" gradientUnits="userSpaceOnUse" id="color-7"><stop offset="0" stop-color="#ff0000"/><stop offset="1" stop-color="#730000"/></linearGradient><linearGradient x1="284.80628" y1="174.68408" x2="281.77915" y2="174.68408" gradientUnits="userSpaceOnUse" id="color-8"><stop offset="0" stop-color="#7fa6e8"/><stop offset="1" stop-color="#7fa6e8" stop-opacity="0"/></linearGradient><linearGradient x1="284.80628" y1="174.68408" x2="281.77915" y2="174.68408" gradientUnits="userSpaceOnUse" id="color-9"><stop offset="0" stop-color="#7fa6e8"/><stop offset="1" stop-color="#7fa6e8" stop-opacity="0"/></linearGradient><radialGradient cx="201.1801" cy="180.00001" r="10.51827" gradientUnits="userSpaceOnUse" id="color-10"><stop offset="0" stop-color="#3f3f3f"/><stop offset="1" stop-color="#0d0d0d"/></radialGradient><linearGradient x1="203.83276" y1="180.00001" x2="198.56136" y2="180.00001" gradientUnits="userSpaceOnUse" id="color-11"><stop offset="0" stop-color="#323232"/><stop offset="1" stop-color="#191919"/></linearGradient><linearGradient x1="274.52533" y1="176.8493" x2="262.54704" y2="176.8493" gradientUnits="userSpaceOnUse" id="color-12"><stop offset="0" stop-color="#114187" stop-opacity="0"/><stop offset="1" stop-color="#114187"/></linearGradient><linearGradient x1="274.52533" y1="183.15072" x2="262.54704" y2="183.15072" gradientUnits="userSpaceOnUse" id="color-13"><stop offset="0" stop-color="#114187" stop-opacity="0"/><stop offset="1" stop-color="#114187"/></linearGradient><linearGradient x1="202.66639" y1="174.24009" x2="199.76946" y2="174.24009" gradientUnits="userSpaceOnUse" id="color-14"><stop offset="0" stop-color="#404040"/><stop offset="1" stop-color="#272727"/></linearGradient><linearGradient x1="205.2552" y1="193.7573" x2="193.95537" y2="193.7573" gradientUnits="userSpaceOnUse" id="color-15"><stop offset="0" stop-color="#7fa6e8"/><stop offset="1" stop-color="#1568c4"/></linearGradient><linearGradient x1="205.2552" y1="193.7573" x2="193.95537" y2="193.7573" gradientUnits="userSpaceOnUse" id="color-16"><stop offset="0" stop-color="#7fa6e8"/><stop offset="1" stop-color="#1568c4"/></linearGradient><linearGradient x1="203.05698" y1="188.69332" x2="200.32281" y2="188.69332" gradientUnits="userSpaceOnUse" id="color-17"><stop offset="0" stop-color="#404040"/><stop offset="1" stop-color="#272727"/></linearGradient><linearGradient x1="201.66944" y1="195.16029" x2="198.74401" y2="195.16029" gradientUnits="userSpaceOnUse" id="color-18"><stop offset="0" stop-color="#ff0000"/><stop offset="1" stop-color="#730000"/></linearGradient><radialGradient cx="235.53618" cy="180.00001" r="17.31646" gradientUnits="userSpaceOnUse" id="color-19"><stop offset="0" stop-color="#414141"/><stop offset="1" stop-color="#191919"/></radialGradient><linearGradient x1="279.47048" y1="197.59303" x2="279.47048" y2="191.99652" gradientUnits="userSpaceOnUse" id="color-20"><stop offset="0" stop-color="#0d5bab"/><stop offset="1" stop-color="#8dace3"/></linearGradient><linearGradient x1="279.47048" y1="197.59303" x2="279.47048" y2="191.99652" gradientUnits="userSpaceOnUse" id="color-21"><stop offset="0" stop-color="#0d5bab"/><stop offset="1" stop-color="#8dace3"/></linearGradient><linearGradient x1="238.35634" y1="195.87379" x2="238.35634" y2="193.00402" gradientUnits="userSpaceOnUse" id="color-22"><stop offset="0" stop-color="#1a1a1a"/><stop offset="1" stop-color="#4c4c4c"/></linearGradient><linearGradient x1="221.46768" y1="194.7578" x2="221.46768" y2="193.15822" gradientUnits="userSpaceOnUse" id="color-23"><stop offset="0" stop-color="#1a1a1a"/><stop offset="1" stop-color="#4c4c4c"/></linearGradient><linearGradient x1="263.21936" y1="196.67296" x2="263.21936" y2="193.20099" gradientUnits="userSpaceOnUse" id="color-24"><stop offset="0" stop-color="#7fa6e8"/><stop offset="1" stop-color="#7fa6e8" stop-opacity="0"/></linearGradient><radialGradient cx="277.25209" cy="193.6615" r="0.63403" gradientUnits="userSpaceOnUse" id="color-25"><stop offset="0" stop-color="#687a82"/><stop offset="1" stop-color="#4e5d66"/></radialGradient><radialGradient cx="276.79752" cy="196.20304" r="0.82543" gradientUnits="userSpaceOnUse" id="color-26"><stop offset="0" stop-color="#61747a"/><stop offset="1" stop-color="#3c4c52"/></radialGradient><linearGradient x1="202.66639" y1="185.75992" x2="199.76946" y2="185.75992" gradientUnits="userSpaceOnUse" id="color-27"><stop offset="0" stop-color="#404040"/><stop offset="1" stop-color="#272727"/></linearGradient><linearGradient x1="203.05698" y1="187.30164" x2="199.99731" y2="187.30164" gradientUnits="userSpaceOnUse" id="color-28"><stop offset="0" stop-color="#404040"/><stop offset="1" stop-color="#272727"/></linearGradient><linearGradient x1="202.24324" y1="184.39284" x2="202.24324" y2="185.13694" gradientUnits="userSpaceOnUse" id="color-29"><stop offset="0" stop-color="#333333" stop-opacity="0"/><stop offset="1" stop-color="#333333"/></linearGradient><linearGradient x1="279.47048" y1="168.0035" x2="279.47048" y2="162.40698" gradientUnits="userSpaceOnUse" id="color-30"><stop offset="0" stop-color="#8dace3"/><stop offset="1" stop-color="#0d5bab"/></linearGradient><linearGradient x1="279.47048" y1="168.0035" x2="279.47048" y2="162.40698" gradientUnits="userSpaceOnUse" id="color-31"><stop offset="0" stop-color="#8dace3"/><stop offset="1" stop-color="#0d5bab"/></linearGradient><linearGradient x1="238.35634" y1="166.99599" x2="238.35634" y2="164.12623" gradientUnits="userSpaceOnUse" id="color-32"><stop offset="0" stop-color="#4c4c4c"/><stop offset="1" stop-color="#1a1a1a"/></linearGradient><linearGradient x1="221.46768" y1="166.8418" x2="221.46768" y2="165.24222" gradientUnits="userSpaceOnUse" id="color-33"><stop offset="0" stop-color="#4c4c4c"/><stop offset="1" stop-color="#1a1a1a"/></linearGradient><linearGradient x1="220.15826" y1="180.00001" x2="205.83636" y2="180.00001" gradientUnits="userSpaceOnUse" id="color-34"><stop offset="0" stop-color="#4c4c4c"/><stop offset="1" stop-color="#1a1a1a"/></linearGradient><linearGradient x1="262.77978" y1="180.00001" x2="260.7803" y2="180.00001" gradientUnits="userSpaceOnUse" id="color-35"><stop offset="0" stop-color="#000000"/><stop offset="1" stop-color="#000000" stop-opacity="0"/></linearGradient><linearGradient x1="263.21936" y1="166.79903" x2="263.21936" y2="163.32706" gradientUnits="userSpaceOnUse" id="color-36"><stop offset="0" stop-color="#7fa6e8" stop-opacity="0"/><stop offset="1" stop-color="#7fa6e8"/></linearGradient><radialGradient cx="277.25209" cy="166.33851" r="0.63403" gradientUnits="userSpaceOnUse" id="color-37"><stop offset="0" stop-color="#687a82"/><stop offset="1" stop-color="#4e5d66"/></radialGradient><radialGradient cx="276.79752" cy="163.79697" r="0.82543" gradientUnits="userSpaceOnUse" id="color-38"><stop offset="0" stop-color="#61747a"/><stop offset="1" stop-color="#3c4c52"/></radialGradient><linearGradient x1="203.05698" y1="172.69837" x2="199.99731" y2="172.69837" gradientUnits="userSpaceOnUse" id="color-39"><stop offset="0" stop-color="#404040"/><stop offset="1" stop-color="#272727"/></linearGradient><linearGradient x1="203.05698" y1="171.30669" x2="200.32281" y2="171.30669" gradientUnits="userSpaceOnUse" id="color-40"><stop offset="0" stop-color="#404040"/><stop offset="1" stop-color="#272727"/></linearGradient><linearGradient x1="202.24324" y1="174.86307" x2="202.24324" y2="175.60717" gradientUnits="userSpaceOnUse" id="color-41"><stop offset="0" stop-color="#333333"/><stop offset="1" stop-color="#333333" stop-opacity="0"/></linearGradient><linearGradient x1="203.56476" y1="180.00001" x2="201.5597" y2="180.00001" gradientUnits="userSpaceOnUse" id="color-42"><stop offset="0" stop-color="#000000"/><stop offset="1" stop-color="#000000" stop-opacity="0"/></linearGradient><linearGradient x1="285.44433" y1="175.27365" x2="283.16584" y2="175.27365" gradientUnits="userSpaceOnUse" id="color-43"><stop offset="0" stop-color="#000000"/><stop offset="1" stop-color="#414141"/></linearGradient><linearGradient x1="284.80628" y1="185.31593" x2="281.77915" y2="185.31593" gradientUnits="userSpaceOnUse" id="color-44"><stop offset="0" stop-color="#7fa6e8"/><stop offset="1" stop-color="#7fa6e8" stop-opacity="0"/></linearGradient><linearGradient x1="284.80628" y1="185.31593" x2="281.77915" y2="185.31593" gradientUnits="userSpaceOnUse" id="color-45"><stop offset="0" stop-color="#7fa6e8"/><stop offset="1" stop-color="#7fa6e8" stop-opacity="0"/></linearGradient><linearGradient x1="285.44433" y1="184.72637" x2="283.16584" y2="184.72637" gradientUnits="userSpaceOnUse" id="color-46"><stop offset="0" stop-color="#000000"/><stop offset="1" stop-color="#414141"/></linearGradient><radialGradient cx="204.44034" cy="180.00001" r="10.62956" gradientUnits="userSpaceOnUse" id="color-47"><stop offset="0" stop-color="#333333"/><stop offset="1" stop-color="#191919"/></radialGradient><linearGradient x1="259.67361" y1="180.00001" x2="244.53781" y2="180.00001" gradientUnits="userSpaceOnUse" id="color-48"><stop offset="0" stop-color="#1a1a1a"/><stop offset="1" stop-color="#4c4c4c"/></linearGradient><linearGradient x1="203.05264" y1="180.00001" x2="197.71448" y2="180.00001" gradientUnits="userSpaceOnUse" id="color-49"><stop offset="0" stop-color="#000000" stop-opacity="0"/><stop offset="1" stop-color="#000000"/></linearGradient><radialGradient cx="196.83022" cy="180.00001" r="15.30586" gradientUnits="userSpaceOnUse" id="color-50"><stop offset="0" stop-color="#1568c4"/><stop offset="1" stop-color="#0658ae"/></radialGradient><linearGradient x1="196.61756" y1="169.29233" x2="196.61756" y2="170.56176" gradientUnits="userSpaceOnUse" id="color-51"><stop offset="0" stop-color="#191919"/><stop offset="1" stop-color="#414141"/></linearGradient><linearGradient x1="196.61756" y1="189.43823" x2="196.61756" y2="190.70768" gradientUnits="userSpaceOnUse" id="color-52"><stop offset="0" stop-color="#414141"/><stop offset="1" stop-color="#191919"/></linearGradient><linearGradient x1="205.84541" y1="190.45864" x2="195.39693" y2="190.45864" gradientUnits="userSpaceOnUse" id="color-53"><stop offset="0" stop-color="#191919"/><stop offset="1" stop-color="#414141"/></linearGradient><linearGradient x1="205.84541" y1="169.54137" x2="195.39693" y2="169.54137" gradientUnits="userSpaceOnUse" id="color-54"><stop offset="0" stop-color="#191919"/><stop offset="1" stop-color="#414141"/></linearGradient><linearGradient x1="199.40164" y1="194.56374" x2="199.40164" y2="195.73553" gradientUnits="userSpaceOnUse" id="color-55"><stop offset="0" stop-color="#414141"/><stop offset="1" stop-color="#191919"/></linearGradient><linearGradient x1="199.40164" y1="164.26448" x2="199.40164" y2="165.43628" gradientUnits="userSpaceOnUse" id="color-56"><stop offset="0" stop-color="#191919"/><stop offset="1" stop-color="#414141"/></linearGradient></defs><g transform="translate(-191.03772,-157.8051)"><g data-paper-data="{&quot;isPaintingLayer&quot;:true}" fill-rule="nonzero" stroke-linejoin="miter" stroke-miterlimit="10" stroke-dasharray="" stroke-dashoffset="0" style="mix-blend-mode: normal"><path d="M191.53764,180.00771c0,0 -0.04599,-2.5808 0.14438,-4.52246c0.18375,-1.87414 0.50053,-4.53608 1.30725,-6.70189c0.32071,-0.86099 1.44648,-2.55004 2.83658,-3.71325c0.63835,-0.53416 1.57903,-0.87523 2.08419,-1.12061c1.43842,-0.69872 3.2816,-1.24689 4.86057,-1.87037c1.12688,-0.44496 2.13289,-0.88707 2.84346,-1.20278c0.59039,-0.26231 1.37506,-0.49794 1.66301,-0.51773c2.91053,-0.20013 14.07218,-0.25399 15.30175,0.1081c1.43032,0.42121 3.0677,1.29047 4.49015,1.34809c2.07113,0.08389 5.9749,-0.09681 9.91324,-0.18183c9.01185,-0.19454 20.09234,-0.51841 20.09234,-0.51841c0,0 2.20319,-0.48378 3.533,-0.60968c1.5654,-0.1482 11.95243,-0.52235 14.43649,0.23844c0.38007,0.1164 1.52473,0.30096 2.8121,0.57071c0.75651,0.15852 1.52821,0.24416 2.31417,0.63627c0.17607,0.08784 1.43871,0.62296 2.5805,1.86403c1.32505,1.44027 2.57763,3.66874 3.2054,4.6871c0.43105,0.69924 1.14094,1.93709 1.57569,3.25185c0.5462,1.65185 0.77854,3.42513 0.84117,4.40416c0.12556,1.96281 0.12556,5.72235 0,7.68517c-0.06264,0.97904 -0.29497,2.7523 -0.84117,4.40416c-0.43472,1.31476 -1.14463,2.5526 -1.57569,3.25185c-0.62776,1.01836 -1.88035,3.24684 -3.2054,4.6871c-1.14178,1.24107 -2.40443,1.77621 -2.5805,1.86403c-0.78598,0.39211 -1.55765,0.47774 -2.31417,0.63627c-1.28737,0.26974 -2.43204,0.4543 -2.8121,0.57071c-2.48407,0.7608 -12.87109,0.38665 -14.43649,0.23844c-1.32981,-0.1259 -3.533,-0.60968 -3.533,-0.60968c0,0 -11.08049,-0.32388 -20.09234,-0.51841c-3.93834,-0.08502 -7.84211,-0.26572 -9.91324,-0.18183c-1.42246,0.05762 -3.05983,0.92687 -4.49015,1.34809c-1.22958,0.3621 -12.39121,0.30824 -15.30175,0.1081c-0.28795,-0.0198 -1.07263,-0.25542 -1.66301,-0.51773c-0.71055,-0.31571 -1.71659,-0.75782 -2.84346,-1.20278c-1.57896,-0.62349 -3.42214,-1.17167 -4.86057,-1.87037c-0.50516,-0.24539 -1.44584,-0.58646 -2.08419,-1.12061c-1.39011,-1.16321 -2.51587,-2.85226 -2.83658,-3.71325c-0.80674,-2.16582 -1.12351,-4.82774 -1.30725,-6.70189c-0.19036,-1.94166 -0.14438,-4.52246 -0.14438,-4.52246z" data-paper-data="{&quot;index&quot;:null}" fill="#114187" stroke="#000000" stroke-width="1" stroke-linecap="round"/><path d="M205.29663,197.63893l4.71755,1.99022" data-paper-data="{&quot;index&quot;:null}" fill="none" stroke="#000000" stroke-width="0.5" stroke-linecap="round"/><path d="M205.29663,162.36108l4.71755,-1.99022" data-paper-data="{&quot;index&quot;:null}" fill="none" stroke="#000000" stroke-width="0.5" stroke-linecap="round"/><path d="M204.57009,198.55745c0,0 -0.97643,0.06122 -2.28546,-0.10727c-1.73601,-0.22346 -3.9588,-0.70367 -4.3042,-0.82561c-0.73679,-0.26015 -1.34224,-0.60114 -1.74561,-0.89359c-0.13972,-0.10131 -0.26087,-0.25977 -0.35607,-0.42443c-0.13679,-0.23657 -0.2476,-0.88483 -0.2569,-1.02917c-0.02477,-0.38452 -0.04485,-0.73122 -0.04485,-0.73122z" data-paper-data="{&quot;index&quot;:null}" fill="url(#color-1)" stroke="#000000" stroke-width="0.75" stroke-linecap="round"/><path d="M195.57701,165.45388c0,0 0.02008,-0.34671 0.04485,-0.73122c0.00929,-0.14434 0.12011,-0.7926 0.2569,-1.02917c0.0952,-0.16463 0.21635,-0.32312 0.35607,-0.42443c0.40338,-0.29246 1.00881,-0.63344 1.74561,-0.89359c0.34539,-0.12196 2.56818,-0.60215 4.3042,-0.82561c1.30903,-0.1685 2.28546,-0.10727 2.28546,-0.10727z" data-paper-data="{&quot;index&quot;:null}" fill="url(#color-2)" stroke="#000000" stroke-width="0.75" stroke-linecap="round"/><path d="M235.78047,198.38414c0,0 -3.37517,0.11821 -5.12066,0.18428c-1.48932,0.05638 -4.87986,-0.20288 -4.87986,-0.20288l1.85827,-0.3472z" data-paper-data="{&quot;index&quot;:null}" fill="url(#color-3)" stroke="#000000" stroke-width="0.5" stroke-linecap="round"/><path d="M227.63821,161.98166l-1.85827,-0.3472c0,0 3.39053,-0.25925 4.87986,-0.20288c1.74549,0.06607 5.12066,0.18428 5.12066,0.18428z" data-paper-data="{&quot;index&quot;:null}" fill="url(#color-4)" stroke="#000000" stroke-width="0.5" stroke-linecap="round"/><path d="M194.41056,170.11035c0,0 -0.31087,-0.08179 -0.42001,-0.3385c-0.08743,-0.20565 -0.00438,-0.54859 0.16602,-0.86509c0.66949,-1.24365 2.32025,-3.12772 3.04463,-3.61002c0.99711,-0.6639 3.61068,-1.98111 5.60532,-2.60393c1.35051,-0.4217 2.44869,-0.30203 2.44869,-0.30203l-0.87274,0.41185c0,0 -3.38657,1.43753 -4.94161,2.57712c-1.7466,1.27997 -5.03026,4.7306 -5.03026,4.7306z" data-paper-data="{&quot;index&quot;:null}" fill="url(#color-5)" stroke="url(#color-6)" stroke-width="0.5" stroke-linecap="round"/><path d="M202.39858,163.70269c0,0 -1.33566,0.00199 -1.77881,0.17455c-0.4475,0.17426 -2.63216,1.48358 -4.25317,3.04376c-1.50878,1.45216 -2.06456,3.11054 -2.06456,3.11054l-0.20684,-0.17656c0,0 0.51304,-1.46913 1.5815,-2.68581c1.19135,-1.35663 2.96798,-2.4851 3.3237,-2.68056c1.04649,-0.57499 2.5226,-1.07442 2.93508,-1.24585c0.87489,-0.3636 2.33548,-0.44461 2.33548,-0.44461z" data-paper-data="{&quot;index&quot;:null}" fill="#5a5a5a" stroke="#000000" stroke-width="0.5" stroke-linecap="round"/><path d="M198.5207,165.1697c0,0 1.66522,-1.11305 2.11611,-1.30362c0.50801,-0.2147 1.69833,-0.14013 1.69833,-0.14013l-0.61979,0.27952c0,0 -0.45953,-0.06781 -0.67339,0.0211c-0.51708,0.21496 -2.56995,1.34323 -2.56995,1.34323z" data-paper-data="{&quot;index&quot;:null}" fill="#999999" stroke="#000000" stroke-width="0.5" stroke-linecap="round"/><path d="M201.66944,164.0603c0,0 -0.9826,0.52272 -1.43258,0.79926c-0.43212,0.26557 -1.2159,0.82842 -1.2159,0.82842l-0.27694,-0.44164c0,0 1.81987,-1.0179 2.32669,-1.22039c0.23562,-0.09414 0.59873,0.03435 0.59873,0.03435z" data-paper-data="{&quot;index&quot;:null}" fill="url(#color-7)" stroke="#000000" stroke-width="0.5" stroke-linecap="round"/><path d="M192.53148,179.8992c0,0 0.06214,-6.30759 0.83364,-8.80365c0.36171,-1.17025 0.95822,-2.914 1.7817,-3.98601c0.76187,-0.9918 1.76803,-1.35861 1.76803,-1.35861c0,0 3.19309,-0.82353 6.42075,-1.80431c0.71003,-0.21575 1.52354,-0.3359 2.20947,-0.5573c1.19276,-0.38501 3.23165,-1.30238 5.17313,-1.92557c1.53153,-0.49159 3.00244,-0.7608 3.94961,-0.71245c1.07925,0.0551 4.71508,0.96172 6.60303,1.99952c0.72571,0.39893 1.0185,0.87281 1.14091,1.21941c0.10101,0.28597 0.36811,0.46778 0.59332,0.45254c2.63257,-0.17801 13.16474,-0.95034 13.16474,-0.95034c0,0 7.48377,-0.30852 14.2493,-0.43968c3.70982,-0.07192 7.50719,0.03088 9.02867,-0.01592c1.11073,-0.03416 2.47506,-0.1888 3.24388,-0.28562c0.3696,-0.04653 0.39571,-0.2838 0.26498,-0.54018c-0.13435,-0.26348 -0.18938,-0.58219 0.13991,-0.79142c0.44496,-0.28272 1.19537,-0.74008 2.46587,-0.8772c1.68376,-0.18171 3.98555,0.03492 4.80537,0.35765c0.99674,0.39237 0.70838,1.43214 1.28363,1.62389c0.89261,0.29753 2.5365,0.51276 2.5365,0.51276c0,0 4.31913,0.75705 6.84229,1.63456c0.42158,0.14661 0.42415,-0.02885 0.72419,0.14333c0.42939,0.2464 1.2365,0.99998 1.81048,1.77248c0.46824,0.63021 1.4272,1.36038 2.09702,2.21748c0.81494,1.04281 1.32691,2.2235 1.59017,3.00714c0.18562,0.55253 0.46423,2.07455 0.60648,3.57241c0.21149,2.22686 0.24763,4.52639 0.24763,4.52639v0.21896c0,0 -0.03615,2.29953 -0.24763,4.52639c-0.14225,1.49787 -0.42086,3.01989 -0.60648,3.57241c-0.26326,0.78363 -0.77523,1.96432 -1.59017,3.00714c-0.66981,0.85711 -1.62877,1.58728 -2.09702,2.21748c-0.57398,0.77251 -1.3811,1.52606 -1.81048,1.77248c-0.30004,0.17218 -0.30261,-0.00328 -0.72419,0.14333c-2.52317,0.8775 -6.84229,1.63456 -6.84229,1.63456c0,0 -1.64387,0.21523 -2.5365,0.51276c-0.57526,0.19176 -0.28688,1.23151 -1.28363,1.62389c-0.81982,0.32273 -3.1216,0.53936 -4.80537,0.35765c-1.27049,-0.13712 -2.0209,-0.59448 -2.46587,-0.8772c-0.32928,-0.20922 -0.27426,-0.52794 -0.13991,-0.79142c0.13074,-0.25638 0.10462,-0.49364 -0.26498,-0.54018c-0.76882,-0.09681 -2.13317,-0.25145 -3.24388,-0.28562c-1.52149,-0.04681 -5.31885,0.05601 -9.02867,-0.01592c-6.76552,-0.13116 -14.2493,-0.43968 -14.2493,-0.43968c0,0 -10.53217,-0.77233 -13.16474,-0.95034c-0.22521,-0.01524 -0.4923,0.16657 -0.59332,0.45254c-0.12244,0.34659 -0.4152,0.82048 -1.14091,1.21941c-1.88795,1.0378 -5.52378,1.94442 -6.60303,1.99952c-0.94717,0.04835 -2.41809,-0.22085 -3.94961,-0.71245c-1.94148,-0.62319 -3.98037,-1.54057 -5.17313,-1.92557c-0.68593,-0.2214 -1.49945,-0.34154 -2.20947,-0.5573c-3.22764,-0.98078 -6.42075,-1.80431 -6.42075,-1.80431c0,0 -1.00616,-0.36681 -1.76803,-1.35861c-0.82348,-1.072 -1.41998,-2.81576 -1.7817,-3.98601c-0.77151,-2.49606 -0.83364,-8.80365 -0.83364,-8.80365z" data-paper-data="{&quot;index&quot;:null}" fill="#1568c4" stroke="#1568c4" stroke-width="0.5" stroke-linecap="round"/><path d="M282.0721,177.51592c0,0 -0.03058,-1.92405 -0.07899,-2.89785c-0.04921,-0.98978 -0.21395,-2.99364 -0.21395,-2.99364l1.52984,0.35805l1.49729,4.13382l-0.68354,1.62749z" data-paper-data="{&quot;index&quot;:null}" fill="url(#color-8)" stroke="url(#color-9)" stroke-width="0.5" stroke-linecap="round"/><path d="M202.77526,179.6169c0,0 0.07355,4.6515 0.25003,6.62178c0.14083,1.57231 0.72625,4.27773 0.72625,4.27773c0,0 -1.35011,0.04406 -2.50385,-0.29686c-0.60819,-0.17971 -1.15308,-0.37547 -1.39888,-0.89513c-0.30738,-0.64985 -0.74532,-1.95161 -0.88592,-3.38034c-0.26842,-2.72764 -0.35421,-6.34115 -0.35421,-6.34115v0.79412c0,0 0.0858,-3.61351 0.35421,-6.34115c0.14059,-1.42872 0.57853,-2.7305 0.88592,-3.38034c0.24581,-0.51966 0.79067,-0.71541 1.39888,-0.89513c1.15374,-0.34091 2.50385,-0.29686 2.50385,-0.29686c0,0 -0.58542,2.70542 -0.72625,4.27773c-0.17649,1.9703 -0.25003,6.62178 -0.25003,6.62178" data-paper-data="{&quot;index&quot;:null}" fill="url(#color-10)" stroke="#000000" stroke-width="0.5" stroke-linecap="round"/><path d="M203.83276,180.11129l-0.82459,4.99096c0,0 -1.04256,0.1234 -1.41888,-0.00456c-0.11788,-0.04007 -0.18303,-0.19883 -0.29678,-0.31124c-0.2183,-0.21573 -0.45431,-0.422 -0.45431,-0.422l-2.08318,-0.56419c0,0 -0.11663,-1.21055 -0.14528,-1.83446c-0.02919,-0.63559 -0.04834,-1.86453 -0.04834,-1.86453v-0.20255c0,0 0.01915,-1.22894 0.04834,-1.86453c0.02866,-0.6239 0.14528,-1.83446 0.14528,-1.83446l2.08318,-0.56419c0,0 0.23601,-0.20626 0.45431,-0.422c0.11375,-0.11241 0.17891,-0.27116 0.29678,-0.31124c0.37633,-0.12795 1.41888,-0.00456 1.41888,-0.00456l0.82459,4.99096z" data-paper-data="{&quot;index&quot;:null}" fill="url(#color-11)" stroke="#000000" stroke-width="0.5" stroke-linecap="round"/><path d="M262.57958,176.44242c0,0 4.26769,0.14944 6.28253,0.28668c1.96587,0.13391 5.66322,0.52707 5.66322,0.52707l-11.9783,-0.4557z" data-paper-data="{&quot;index&quot;:null}" fill="url(#color-12)" stroke="none" stroke-width="0" stroke-linecap="round"/><path d="M262.54704,183.19955l11.9783,-0.4557c0,0 -3.69735,0.39315 -5.66322,0.52707c-2.01484,0.13725 -6.28253,0.28668 -6.28253,0.28668z" data-paper-data="{&quot;index&quot;:null}" fill="url(#color-13)" stroke="none" stroke-width="0" stroke-linecap="round"/><path d="M199.76946,174.10988l2.89692,-0.0868c0,0 -1.27303,0.29427 -1.78789,0.37409c-0.36793,0.05704 -1.0114,0.05992 -1.0114,0.05992z" data-paper-data="{&quot;index&quot;:null}" fill="url(#color-14)" stroke="#000000" stroke-width="0.5" stroke-linecap="round"/><path d="M194.41057,189.88968c0,0 3.28365,3.45063 5.03026,4.7306c1.55505,1.13959 4.94161,2.57712 4.94161,2.57712l0.87274,0.41185c0,0 -1.09817,0.11967 -2.44869,-0.30203c-1.99462,-0.62281 -4.60819,-1.94003 -5.60532,-2.60393c-0.72437,-0.4823 -2.37513,-2.36637 -3.04463,-3.61002c-0.17038,-0.31652 -0.25343,-0.65944 -0.16602,-0.86509c0.10914,-0.25672 0.42001,-0.3385 0.42001,-0.3385z" data-paper-data="{&quot;index&quot;:null}" fill="url(#color-15)" stroke="url(#color-16)" stroke-width="0.5" stroke-linecap="round"/><path d="M204.27094,197.20185c0,0 -1.46059,-0.08102 -2.33548,-0.44461c-0.41249,-0.17142 -1.88859,-0.67086 -2.93508,-1.24585c-0.35572,-0.19544 -2.13235,-1.32394 -3.3237,-2.68056c-1.06846,-1.21668 -1.5815,-2.68581 -1.5815,-2.68581l0.20684,-0.17656c0,0 0.55578,1.65839 2.06456,3.11054c1.62101,1.56018 3.80568,2.86949 4.25317,3.04376c0.44316,0.17256 1.77881,0.17455 1.77881,0.17455z" data-paper-data="{&quot;index&quot;:null}" fill="#5a5a5a" stroke="#000000" stroke-width="0.5" stroke-linecap="round"/><path d="M200.42045,188.52664c0,0 0.81798,-0.05609 1.23678,0.00079c0.45674,0.06202 1.39974,0.35725 1.39974,0.35725l-2.73418,-0.1302z" data-paper-data="{&quot;index&quot;:null}" fill="url(#color-17)" stroke="#000000" stroke-width="0.5" stroke-linecap="round"/><path d="M198.47201,194.63021c0,0 2.05287,1.12828 2.56995,1.34323c0.21387,0.08891 0.67339,0.0211 0.67339,0.0211l0.61979,0.27952c0,0 -1.19032,0.07458 -1.69833,-0.14013c-0.45088,-0.19056 -2.11611,-1.30362 -2.11611,-1.30362z" data-paper-data="{&quot;index&quot;:null}" fill="#999999" stroke="#000000" stroke-width="0.5" stroke-linecap="round"/><path d="M201.66944,195.93972c0,0 -0.36312,0.12847 -0.59873,0.03435c-0.50682,-0.20248 -2.32669,-1.22039 -2.32669,-1.22039l0.27694,-0.44164c0,0 0.78378,0.56285 1.2159,0.82842c0.44998,0.27655 1.43258,0.79926 1.43258,0.79926z" data-paper-data="{&quot;index&quot;:null}" fill="url(#color-18)" stroke="#000000" stroke-width="0.5" stroke-linecap="round"/><path d="M200.50153,175.71571c0.17233,-0.03224 0.33534,0.00846 0.33534,0.00846c0,0 0.22527,0.2419 0.43884,0.35096c0.18644,0.09521 0.77224,0.26749 0.77224,0.26749c0,0 -1.22691,0.09321 -1.79855,0.12147c-0.52085,0.02575 -1.44339,0.04127 -1.44339,0.04127l0.02321,-0.31281c0,0 1.51388,-0.4472 1.67234,-0.47685z" data-paper-data="{&quot;index&quot;:null}" fill="#191919" stroke="none" stroke-width="0" stroke-linecap="round"/><path d="M217.00223,194.60193c0,0 -10.39218,-1.38065 -13.70043,-2.05952c-1.96056,-0.40231 -4.42325,-1.63813 -4.42325,-1.63813c0,0 3.89512,0.22233 6.57331,0.37519c4.2093,0.24025 16.34171,0.9268 16.34171,0.9268z" data-paper-data="{&quot;index&quot;:null}" fill="#7fa6e8" stroke="#7fa6e8" stroke-width="0.5" stroke-linecap="round"/><path d="M252.10023,196.17504c-4.19577,-0.10749 -32.96043,-1.25544 -32.96043,-1.25544c0,0 -3.24726,-0.41012 -6.40436,-0.86804c-2.20085,-0.31922 -4.35789,-0.67656 -5.34052,-0.87177c-0.8939,-0.17759 -1.66263,-0.6572 -1.38753,-0.94762c0.142,-0.1499 0.79554,-0.22816 1.3629,-0.23309c1.92103,-0.0167 4.93308,0.04832 8.27505,0.08037c7.765,0.07446 17.69293,0.22544 22.58823,0.58162c3.30704,0.24061 7.20774,1.26754 10.41954,2.01331c3.04802,0.70775 5.49574,1.14215 5.49574,1.14215c0,0 -1.06688,0.38366 -2.0486,0.35851z" data-paper-data="{&quot;index&quot;:null}" fill="#063376" stroke="#063376" stroke-width="0.5" stroke-linecap="round"/><path d="M221.79355,167.79375c0,0 -12.1324,0.68655 -16.34171,0.9268c-2.67819,0.15287 -6.57331,0.37519 -6.57331,0.37519c0,0 2.4627,-1.23583 4.42325,-1.63813c3.30824,-0.67886 13.70043,-2.05952 13.70043,-2.05952z" data-paper-data="{&quot;index&quot;:null}" fill="#7fa6e8" stroke="#7fa6e8" stroke-width="0.5" stroke-linecap="round"/><path d="M200.89624,190.11342c0,0 0.39518,1.64737 0.28869,2.44314c-0.11591,0.86607 -0.95828,2.56022 -0.95828,2.56022" data-paper-data="{&quot;index&quot;:null}" fill="none" stroke="#000000" stroke-width="0.5" stroke-linecap="round"/><path d="M252.57489,196.13698c0,0 -4.49833,0.1533 -9.69202,0.1486c-5.30295,-0.00481 -11.32862,-0.16989 -13.81395,-0.3966c-4.58087,-0.41783 -9.05871,-1.00827 -11.79337,-1.48235c-1.00353,-0.17398 -1.76158,-0.35371 -2.21897,-0.47324c-0.20541,-0.05368 -0.63218,-0.2617 -0.23622,-0.46171c0.23336,-0.11788 1.19435,-0.26696 1.46546,-0.28855c4.94445,-0.39368 16.10961,-0.72642 21.23009,-0.41078c1.09264,0.06735 4.81305,0.75421 8.3085,1.57949c3.48707,0.82331 6.7505,1.78513 6.7505,1.78513z" data-paper-data="{&quot;index&quot;:null}" fill="#191919" stroke="#000000" stroke-width="0.5" stroke-linecap="round"/><path d="M254.14885,164.18348c0,0 -2.44773,0.43441 -5.49574,1.14215c-3.2118,0.74578 -7.1125,1.77269 -10.41954,2.01331c-4.89528,0.35618 -14.82321,0.50715 -22.58823,0.58162c-3.34198,0.03205 -6.35403,0.09708 -8.27505,0.08037c-0.56737,-0.00493 -1.22092,-0.0832 -1.3629,-0.23309c-0.27511,-0.29041 0.49363,-0.77002 1.38753,-0.94762c0.98263,-0.19522 3.13967,-0.55255 5.34052,-0.87177c3.15712,-0.45792 6.40436,-0.86804 6.40436,-0.86804c0,0 28.76468,-1.14794 32.96043,-1.25544c0.98172,-0.02516 2.0486,0.35851 2.0486,0.35851z" data-paper-data="{&quot;index&quot;:null}" fill="#063376" stroke="#063376" stroke-width="0.5" stroke-linecap="round"/><path d="M200.22665,164.88324c0,0 0.84237,1.69416 0.95828,2.56022c0.10649,0.79575 -0.28869,2.44314 -0.28869,2.44314" data-paper-data="{&quot;index&quot;:null}" fill="none" stroke="#000000" stroke-width="0.5" stroke-linecap="round"/><path d="M252.85263,179.91202l-9.03084,11.81959c0,0 -3.30751,-0.22759 -5.81163,-0.39072c-2.41119,-0.15708 -7.7108,-0.42152 -11.75185,-0.68136c-2.99193,-0.1924 -5.27714,-0.41589 -5.27714,-0.41589l-2.76146,-10.158v-0.17123l2.76146,-10.158c0,0 2.28522,-0.2235 5.27714,-0.41589c4.04104,-0.25986 9.34066,-0.52428 11.75185,-0.68136c2.50413,-0.16313 5.81163,-0.39072 5.81163,-0.39072l9.03084,11.81959z" data-paper-data="{&quot;index&quot;:null}" fill="url(#color-19)" stroke="#000000" stroke-width="0.5" stroke-linecap="round"/><path d="M252.57489,163.86304c0,0 -3.26343,0.96181 -6.7505,1.78513c-3.49545,0.82528 -7.21585,1.51214 -8.3085,1.57949c-5.12049,0.31565 -16.28565,-0.0171 -21.23009,-0.41078c-0.2711,-0.02159 -1.23209,-0.17067 -1.46546,-0.28855c-0.39596,-0.2 0.03079,-0.40802 0.23622,-0.46171c0.45738,-0.11954 1.21545,-0.29927 2.21897,-0.47324c2.73466,-0.47408 7.2125,-1.06451 11.79337,-1.48235c2.48535,-0.22669 8.51101,-0.39179 13.81395,-0.3966c5.1937,-0.0047 9.69202,0.1486 9.69202,0.1486z" data-paper-data="{&quot;index&quot;:null}" fill="#191919" stroke="#000000" stroke-width="0.5" stroke-linecap="round"/><path d="M279.02797,192.12468c0,0 0.94029,-0.27511 1.80273,-0.01921c0.23133,0.06864 0.55002,0.16287 0.7501,0.32144c0.32919,0.26089 0.48545,0.62179 0.49811,0.78175c0.07301,0.92172 -0.84717,2.15879 -1.32698,2.58618c-0.4268,0.38018 -1.22821,0.88783 -2.04868,1.22674c-0.922,0.38087 -1.84526,0.57147 -1.84526,0.57147z" data-paper-data="{&quot;index&quot;:null}" fill="url(#color-20)" stroke="url(#color-21)" stroke-width="0.5" stroke-linecap="round"/><path d="M248.99544,195.87379l-18.89745,-0.2232c0,0 -0.88816,-0.82837 -1.2889,-1.27292c-0.39269,-0.43566 -1.09189,-1.36825 -1.09189,-1.36825c0,0 8.21564,-0.08301 11.82041,0.40225c2.67506,0.36011 9.34183,2.22108 9.34183,2.22108z" data-paper-data="{&quot;index&quot;:null}" fill="url(#color-22)" stroke="#000000" stroke-width="0.5" stroke-linecap="round"/><path d="M226.30364,194.7578c0,0 -5.13116,-0.5434 -6.91679,-0.76316c-1.15895,-0.14264 -2.75513,-0.42722 -2.75513,-0.42722c0,0 1.68289,-0.19147 2.82794,-0.24352c1.66003,-0.07546 6.17437,-0.16568 6.17437,-0.16568z" data-paper-data="{&quot;index&quot;:null}" fill="url(#color-23)" stroke="#000000" stroke-width="0.5" stroke-linecap="round"/><path d="M229.80041,195.46459c0,0 -1.69286,-0.13921 -3.72769,-0.32427c-1.76084,-0.16013 -3.93996,-0.41407 -5.68173,-0.65793c-0.53771,-0.07528 -1.99667,-0.16713 -3.13392,-0.39651c-1.22547,-0.24718 -2.11334,-0.63008 -2.11334,-0.63008" data-paper-data="{&quot;index&quot;:null}" fill="none" stroke="#000000" stroke-width="0.5" stroke-linecap="round"/><path d="M221.01235,179.9936c0,0 0,8.51778 0,10.25967c0,0.59519 -0.55431,1.1707 -1.1481,1.14163c-2.05468,-0.10058 -13.74666,-0.67291 -13.74666,-0.67291c0,0 -0.58376,-1.76456 -0.73292,-3.10699c-0.23074,-2.07669 -0.51698,-8.1422 -0.51698,-8.1422v1.05438c0,0 0.28624,-6.0655 0.51698,-8.1422c0.14916,-1.34243 0.73292,-3.10699 0.73292,-3.10699c0,0 11.69197,-0.57234 13.74666,-0.67291c0.59379,-0.02907 1.1481,0.54644 1.1481,1.14163c0,1.7419 0,10.25967 0,10.25967z" data-paper-data="{&quot;index&quot;:null}" fill="#191919" stroke="#000000" stroke-width="0.5" stroke-linecap="round"/><path d="M250.76367,196.67296c0,0 11.34876,-2.06622 15.88324,-2.6982c3.4964,-0.4873 9.02817,-0.77378 9.02817,-0.77378l-1.38878,3.47197h-23.52261z" data-paper-data="{&quot;index&quot;:null}" fill="url(#color-24)" stroke="none" stroke-width="0" stroke-linecap="round"/><path d="M248.3222,197.26194c0.23777,-0.11117 1.94562,-0.02329 2.17424,0.073c0.3444,0.14504 0.30773,0.37964 0.30773,0.64435c0,0.44042 -0.61936,0.79747 -1.38337,0.79747c-0.76401,0 -1.38337,-0.35703 -1.38337,-0.79747c0,-0.2502 -0.02797,-0.57114 0.28475,-0.71735z" data-paper-data="{&quot;index&quot;:null}" fill="#191919" stroke="#000000" stroke-width="0.5" stroke-linecap="butt"/><g data-paper-data="{&quot;index&quot;:null}" stroke-width="0.5" stroke-linecap="round"><path d="M245.27548,201.9057c0,0 -0.26339,-0.05068 -0.20028,-0.36045c0.09485,-0.46552 1.21952,-3.2515 1.50175,-3.50461c0.51001,-0.45738 2.43459,-0.54413 3.43315,-0.30741c0.57653,0.13668 0.57157,0.52997 0.51054,0.63849c-0.04738,0.08425 -0.58438,1.00268 -1.28766,1.8408c-0.53866,0.64194 -1.25175,1.23677 -1.45485,1.37362c-0.77741,0.5238 -2.50265,0.31956 -2.50265,0.31956z" fill="#1568c4" stroke="#000000"/><path d="M250.40903,197.96255c0,0 0.24807,0.17767 0.04815,0.45079c-0.21072,0.28789 -0.58973,1.03436 -1.16928,1.70619c-0.66281,0.76836 -1.52005,1.4514 -1.52005,1.4514c0,0 -0.38488,0.21433 -0.85791,0.27585c-0.61091,0.07944 -1.36883,0.01104 -1.63457,0.01471c-0.22767,0.00317 -0.1859,-0.25337 -0.1859,-0.25337c0,0 1.47246,0.29919 2.2942,-0.26394c0.93643,-0.64175 3.02535,-3.38161 3.02535,-3.38161z" fill="#114187" stroke="#114187"/><path d="M245.46148,201.79412l1.70546,-3.9775" fill="none" stroke="#000000"/></g><path d="M278.08551,197.05011c-0.77877,0.44922 -3.16761,1.11605 -3.6611,0.06701c-0.24343,-0.51747 -0.44794,-1.66587 0.01253,-2.53411c0.41372,-0.78009 1.29104,-1.34397 1.63618,-1.54306c0.80301,-0.46321 1.91071,-0.86211 2.78092,-0.86896c0.76405,-0.006 1.32513,0.31013 1.60733,0.87912c0.60364,1.21708 -0.86781,3.13008 -2.37587,3.99998z" data-paper-data="{&quot;index&quot;:null}" fill="#24292d" stroke="#24292d" stroke-width="0.75" stroke-linecap="butt"/><path d="M279.43572,195.79174c-0.24561,0.2525 -0.94377,0.77411 -1.64267,1.06036c-0.45838,0.18774 -0.98525,0.21543 -1.14636,0.20537c-0.40679,-0.02538 -0.75717,-0.37063 -0.96171,-0.81574c-0.20454,-0.44511 -0.20686,-0.71722 0.01258,-1.24969c0.08887,-0.21563 0.31273,-0.81869 0.5784,-1.18183c0.30668,-0.4192 0.65316,-0.58737 0.65316,-0.58737c0,0 0.33808,-0.267 0.77954,-0.46463c0.47559,-0.2129 1.06731,-0.35773 1.37408,-0.3623c0.24222,-0.0036 0.51927,0.01012 0.75646,0.17406c0.15742,0.1088 0.49286,0.43292 0.57016,0.8923c0.07722,0.4588 -0.10355,1.05277 -0.21265,1.29004c-0.1074,0.23354 -0.41228,0.68094 -0.76099,1.03941z" data-paper-data="{&quot;index&quot;:null}" fill="#181a1f" stroke="#5d5f67" stroke-width="0.5" stroke-linecap="round"/><path d="M279.72753,193.49989c0.28171,-0.04199 0.64686,-0.19963 0.64686,-0.19963c0,0 0.09941,1.07472 -0.16767,1.52422c-0.12622,0.21243 -0.51241,0.69338 -0.82618,0.91904c-0.33015,0.23746 -0.58525,0.21438 -0.58525,0.21438l-1.36377,-0.0258v-2.34802c0,0 1.76524,-0.00508 2.29599,-0.0842z" data-paper-data="{&quot;index&quot;:null}" fill="#36363e" stroke="none" stroke-width="0" stroke-linecap="round"/><path d="M276.91574,193.13524c0.10807,-0.09053 0.1878,-0.14459 0.33635,-0.14459c0.35016,0 0.63403,0.30036 0.63403,0.67087c0,0.37051 -0.28385,0.67087 -0.63403,0.67087c-0.35016,0 -0.63403,-0.30036 -0.63403,-0.67087c0,-0.21334 0.15099,-0.40341 0.29769,-0.52628z" data-paper-data="{&quot;index&quot;:null}" fill="url(#color-25)" stroke="none" stroke-width="0" stroke-linecap="butt"/><path d="M277.04377,193.17126c0,0 0.40088,0.11503 0.47506,0.23057c0.06901,0.1075 0.10413,0.4403 0.10413,0.4403c0,0 -0.31815,0.03592 -0.43693,-0.00433c-0.15206,-0.05154 -0.56795,-0.27949 -0.56795,-0.27949z" data-paper-data="{&quot;index&quot;:null}" fill="#ebffff" stroke="#ebffff" stroke-width="0.5" stroke-linecap="round"/><path d="M276.79752,195.44187c0.45587,0 0.82544,0.34078 0.82544,0.76117c0,0.42039 -0.36957,0.76117 -0.82544,0.76117c-0.45587,0 -0.82543,-0.34078 -0.82543,-0.76117c0,-0.42039 0.36956,-0.76117 0.82543,-0.76117z" data-paper-data="{&quot;index&quot;:null}" fill="url(#color-26)" stroke="none" stroke-width="0" stroke-linecap="butt"/><path d="M276.66592,196.75779c0,0 -0.19483,0.16073 -0.31607,0.12112c-0.1394,-0.04556 -0.47348,-0.37914 -0.47348,-0.37914c0,0 0.3093,-0.15919 0.53998,-0.36967c0.1773,-0.16176 0.26897,-0.37495 0.37725,-0.4405c0.18789,-0.11376 0.34014,-0.08126 0.44653,-0.01549c0.10638,0.06578 0.04708,0.24122 0.06473,0.3316c0.01221,0.06253 -0.03839,0.24129 -0.12045,0.33273c-0.06514,0.0726 -0.13827,0.15073 -0.19105,0.19749c-0.10096,0.08943 -0.32745,0.22188 -0.32745,0.22188z" data-paper-data="{&quot;index&quot;:null}" fill="#efffff" stroke="none" stroke-width="0" stroke-linecap="round"/><path d="M279.43572,195.79174c-0.24561,0.2525 -0.94377,0.77411 -1.64267,1.06036c-0.45838,0.18774 -0.98525,0.21543 -1.14636,0.20537c-0.40679,-0.02538 -0.75717,-0.37063 -0.96171,-0.81574c-0.20454,-0.44511 -0.20686,-0.71722 0.01258,-1.24969c0.08887,-0.21563 0.31273,-0.81869 0.5784,-1.18183c0.30668,-0.4192 0.6342,-0.6078 0.6342,-0.6078c0,0 0.35703,-0.24655 0.7985,-0.44418c0.47559,-0.2129 1.06731,-0.35773 1.37408,-0.3623c0.24222,-0.0036 0.51927,0.01012 0.75646,0.17406c0.15742,0.1088 0.49286,0.43292 0.57016,0.89229c0.07722,0.4588 -0.10355,1.05277 -0.21265,1.29004c-0.1074,0.23354 -0.41228,0.68094 -0.76099,1.03941z" data-paper-data="{&quot;index&quot;:null}" fill="none" stroke="#5d5f67" stroke-width="0.5" stroke-linecap="round"/><path d="M285.11941,188.15709c0,0 -0.76761,2.16318 -1.31848,3.28188c-0.57636,1.17046 -2.20061,3.82326 -2.20061,3.82326c0,0 -0.9285,1.29008 -1.60808,1.76105c-0.78405,0.54338 -2.90152,1.35 -2.90152,1.35" data-paper-data="{&quot;index&quot;:null}" fill="none" stroke="#000000" stroke-width="0.5" stroke-linecap="round"/><path d="M198.82919,183.80745l-0.02321,-0.31281c0,0 0.92257,0.01552 1.44339,0.04127c0.57163,0.02827 1.79855,0.12147 1.79855,0.12147c0,0 -0.5858,0.17229 -0.77224,0.26749c-0.21355,0.10906 -0.43884,0.35096 -0.43884,0.35096c0,0 -0.16301,0.04071 -0.33534,0.00846c-0.15845,-0.02964 -1.67234,-0.47685 -1.67234,-0.47685z" data-paper-data="{&quot;index&quot;:null}" fill="#191919" stroke="none" stroke-width="0" stroke-linecap="round"/><path d="M199.86711,185.54292c0,0 0.64346,0.00287 1.0114,0.05992c0.51485,0.07982 1.78789,0.37409 1.78789,0.37409l-2.89692,-0.0868z" data-paper-data="{&quot;index&quot;:null}" fill="url(#color-27)" stroke="#000000" stroke-width="0.5" stroke-linecap="round"/><path d="M200.13482,187.06191c0,0 0.87066,0.02657 1.32631,0.10134c0.51184,0.08398 1.59585,0.37813 1.59585,0.37813l-3.05968,-0.25817z" data-paper-data="{&quot;index&quot;:null}" fill="url(#color-28)" stroke="#000000" stroke-width="0.5" stroke-linecap="round"/><path d="M201.13654,184.55558c0,0 0.57892,-0.08134 0.86926,-0.10725c0.3152,-0.02815 0.95351,-0.05549 0.95351,-0.05549l0.3906,0.71609c0,0 -1.31843,0.07727 -1.72704,-0.02489c-0.27257,-0.06815 -0.48633,-0.52845 -0.48633,-0.52845z" data-paper-data="{&quot;index&quot;:null}" fill="url(#color-29)" stroke="none" stroke-width="0" stroke-linecap="round"/><path d="M228.12642,198.12993c0,0 -0.0208,-0.59405 0.1704,-0.95577c0.25108,-0.47501 1.13159,-1.5738 1.13159,-1.5738" data-paper-data="{&quot;index&quot;:null}" fill="none" stroke="#000000" stroke-width="0.5" stroke-linecap="round"/><path d="M247.16129,181.72941c-0.27523,-0.11141 -0.80992,-0.39514 -0.80992,-0.39514l1.56239,-0.74399v1.37638c0,0 -0.51146,-0.13971 -0.75247,-0.23726z" data-paper-data="{&quot;index&quot;:null}" fill="none" stroke="#ff0000" stroke-width="0.5" stroke-linecap="round"/><path d="M276.85797,162.40698c0,0 0.92325,0.1906 1.84526,0.57147c0.82046,0.33892 1.62187,0.84656 2.04868,1.22674c0.47981,0.4274 1.39999,1.66448 1.32698,2.58618c-0.01266,0.15996 -0.16892,0.52086 -0.49811,0.78175c-0.20007,0.15856 -0.51877,0.2528 -0.7501,0.32144c-0.86243,0.2559 -1.80273,-0.01921 -1.80273,-0.01921z" data-paper-data="{&quot;index&quot;:null}" fill="url(#color-30)" stroke="url(#color-31)" stroke-width="0.5" stroke-linecap="round"/><path d="M248.87948,164.36728c0,0 -6.66676,1.86098 -9.34183,2.22108c-3.60477,0.48526 -11.82041,0.40225 -11.82041,0.40225c0,0 0.69918,-0.9326 1.09189,-1.36825c0.40074,-0.44456 1.2889,-1.27292 1.2889,-1.27292l18.89745,-0.2232z" data-paper-data="{&quot;index&quot;:null}" fill="url(#color-32)" stroke="#000000" stroke-width="0.5" stroke-linecap="round"/><path d="M226.30364,165.24222l-0.6696,1.59958c0,0 -4.51435,-0.09021 -6.17437,-0.16568c-1.14505,-0.05205 -2.82794,-0.24352 -2.82794,-0.24352c0,0 1.59618,-0.28459 2.75513,-0.42722c1.78563,-0.21977 6.91679,-0.76316 6.91679,-0.76316z" data-paper-data="{&quot;index&quot;:null}" fill="url(#color-33)" stroke="#000000" stroke-width="0.5" stroke-linecap="round"/><path d="M215.14372,166.54421c0,0 0.88788,-0.3829 2.11334,-0.63008c1.13724,-0.22938 2.5962,-0.32123 3.13392,-0.39651c1.74177,-0.24386 3.92089,-0.49779 5.68173,-0.65793c2.03483,-0.18505 3.72769,-0.32427 3.72769,-0.32427" data-paper-data="{&quot;index&quot;:null}" fill="none" stroke="#000000" stroke-width="0.5" stroke-linecap="round"/><path d="M255.82985,164.70934c0,0 1.80416,0.07642 4.19238,0.47088c1.05166,0.17371 6.10818,1.07599 11.34829,2.41799c5.4987,1.40824 11.25196,3.22204 13.49375,4.13384c0.26582,0.10812 0.80751,0.64213 0.83728,0.77046c0.40607,1.74984 0.79013,4.5091 0.79013,7.42471c0,2.91561 -0.38405,5.82048 -0.79013,7.57031c-0.02979,0.12833 -0.57148,0.66233 -0.83728,0.77046c-2.24179,0.91178 -7.99506,2.7256 -13.49375,4.13384c-5.24012,1.342 -10.29662,2.24427 -11.34829,2.41799c-2.38822,0.39448 -4.19238,0.47088 -4.19238,0.47088" data-paper-data="{&quot;index&quot;:null}" fill="none" stroke="#000000" stroke-width="0.5" stroke-linecap="round"/><path d="M220.15826,179.99231c0,0 0,8.02507 0,9.56962c0,0.49339 -0.3968,0.95477 -1.04559,0.91927c-2.51769,-0.13779 -8.83008,-0.48323 -10.47459,-0.57323c-0.76228,-0.04171 -2.21805,-1.25445 -2.35739,-2.35443c-0.22775,-1.79802 -0.44434,-7.49612 -0.44434,-7.49612v-0.11481c0,0 0.21658,-5.6981 0.44434,-7.49612c0.13933,-1.09998 1.59511,-2.31272 2.35739,-2.35443c1.64451,-0.09 7.95689,-0.43545 10.47459,-0.57323c0.64879,-0.0355 1.04559,0.42588 1.04559,0.91927c0,1.54455 0,9.56962 0,9.56962z" data-paper-data="{&quot;index&quot;:null}" fill="url(#color-34)" stroke="#000000" stroke-width="0.5" stroke-linecap="round"/><path d="M262.8356,180.08531c0,0 -0.09915,3.6637 -0.92574,6.7861c-0.39429,1.48941 -1.1332,2.80665 -1.57666,3.66835c-0.71416,1.38767 -1.95714,2.96243 -3.1911,3.95957c-0.99643,0.80518 -2.09052,1.18195 -2.09052,1.18195c0,0 -1.85977,-0.32503 -3.94976,-0.83618c-2.27855,-0.55725 -4.84477,-1.31466 -5.9287,-1.57975c-0.28791,-0.07041 -1.05139,-0.29489 -1.23847,-0.61486c-0.21239,-0.36326 0.37683,-3.20326 0.69325,-6.17021c0.33237,-3.11655 0.39836,-6.35778 0.39836,-6.35778v-0.24501c0,0 -0.06599,-3.24123 -0.39836,-6.35778c-0.31643,-2.96694 -0.90564,-5.80693 -0.69325,-6.17021c0.18707,-0.31996 0.95055,-0.54445 1.23847,-0.61486c1.08394,-0.26509 3.65015,-1.02249 5.9287,-1.57975c2.08999,-0.51113 3.94976,-0.83618 3.94976,-0.83618c0,0 1.0941,0.37677 2.09052,1.18195c1.23396,0.99713 2.47695,2.5719 3.1911,3.95957c0.44346,0.86169 1.18237,2.17893 1.57666,3.66835c0.82659,3.1224 0.92574,6.7861 0.92574,6.7861z" data-paper-data="{&quot;index&quot;:null}" fill="#191919" stroke="#000000" stroke-width="0.5" stroke-linecap="round"/><path d="M255.05156,164.38383c0,0 1.43353,1.17502 2.61597,2.88118c1.125,1.62327 1.98568,3.74587 2.58516,5.08624c0.59036,1.31993 0.97467,3.50802 1.19635,5.20584c0.16808,1.28727 0.24265,2.32039 0.24265,2.32039v0.245c0,0 -0.07458,1.03313 -0.24265,2.32039c-0.22168,1.69783 -0.606,3.88591 -1.19635,5.20584c-0.59949,1.34037 -1.46017,3.46296 -2.58516,5.08624c-1.18244,1.70617 -2.61597,2.88118 -2.61597,2.88118" data-paper-data="{&quot;index&quot;:null}" fill="none" stroke="#000000" stroke-width="0.5" stroke-linecap="round"/><path d="M262.77978,179.60171c0,0 -0.16358,3.81376 -0.52272,5.48972c-0.18477,0.86222 -0.4723,1.94544 -0.81436,2.89751c-0.31878,0.88726 -0.66239,1.63809 -0.66239,1.63809v-9.56962v-0.1148v-9.56962c0,0 0.34363,0.75083 0.66239,1.63809c0.34207,0.95207 0.6296,2.03528 0.81436,2.89751c0.35913,1.67596 0.52272,5.48972 0.52272,5.48972z" data-paper-data="{&quot;index&quot;:null}" fill="url(#color-35)" stroke="none" stroke-width="0.5" stroke-linecap="round"/><path d="M250.76367,163.32706h23.52261l1.38878,3.47197c0,0 -5.53176,-0.28648 -9.02817,-0.77378c-4.53448,-0.63198 -15.88324,-2.6982 -15.88324,-2.6982z" data-paper-data="{&quot;index&quot;:null}" fill="url(#color-36)" stroke="none" stroke-width="0" stroke-linecap="round"/><path d="M248.03746,162.02073c0,-0.44042 0.61936,-0.79747 1.38337,-0.79747c0.76401,0 1.38337,0.35703 1.38337,0.79747c0,0.26471 0.03667,0.4993 -0.30773,0.64435c-0.22861,0.09629 -1.93647,0.18416 -2.17424,0.073c-0.31273,-0.1462 -0.28475,-0.46714 -0.28475,-0.71735z" data-paper-data="{&quot;index&quot;:null}" fill="#191919" stroke="#000000" stroke-width="0.5" stroke-linecap="butt"/><g data-paper-data="{&quot;index&quot;:null}" stroke-width="0.5" stroke-linecap="round"><path d="M245.27548,158.09431c0,0 1.72523,-0.20424 2.50265,0.31956c0.2031,0.13684 0.9162,0.73168 1.45485,1.37362c0.70329,0.83812 1.24027,1.75655 1.28766,1.8408c0.06104,0.10853 0.066,0.50182 -0.51054,0.63849c-0.99855,0.23672 -2.92314,0.14998 -3.43315,-0.30741c-0.28223,-0.25311 -1.4069,-3.0391 -1.50175,-3.50461c-0.06311,-0.30977 0.20028,-0.36045 0.20028,-0.36045z" fill="#1568c4" stroke="#000000"/><path d="M250.40903,162.03746c0,0 -2.08893,-2.73987 -3.02535,-3.38161c-0.82173,-0.56315 -2.2942,-0.26394 -2.2942,-0.26394c0,0 -0.04177,-0.25652 0.1859,-0.25337c0.26575,0.00369 1.02366,-0.06473 1.63457,0.01471c0.47304,0.06151 0.85791,0.27585 0.85791,0.27585c0,0 0.85723,0.68304 1.52005,1.4514c0.57954,0.67182 0.95855,1.4183 1.16928,1.70619c0.19992,0.27312 -0.04815,0.45079 -0.04815,0.45079z" fill="#114187" stroke="#114187"/><path d="M247.16693,162.18341l-1.70546,-3.9775" fill="none" stroke="#000000"/></g><path d="M278.08551,162.9499c1.50806,0.86992 2.97951,2.78292 2.37587,3.99998c-0.28222,0.56901 -0.84329,0.88513 -1.60733,0.87912c-0.87021,-0.00684 -1.9779,-0.40575 -2.78092,-0.86896c-0.34515,-0.1991 -1.22246,-0.76298 -1.63618,-1.54306c-0.46047,-0.86824 -0.25596,-2.01662 -0.01253,-2.53411c0.4935,-1.04904 2.88233,-0.3822 3.6611,0.06701z" data-paper-data="{&quot;index&quot;:null}" fill="#24292d" stroke="#24292d" stroke-width="0.75" stroke-linecap="butt"/><path d="M279.43571,164.20828c0.3487,0.35847 0.6536,0.80586 0.76099,1.03941c0.1091,0.23727 0.28986,0.83123 0.21265,1.29004c-0.07731,0.45937 -0.41277,0.78349 -0.57016,0.8923c-0.23719,0.16394 -0.51424,0.17767 -0.75646,0.17406c-0.30677,-0.00457 -0.8985,-0.1494 -1.37408,-0.3623c-0.44147,-0.19764 -0.77954,-0.46463 -0.77954,-0.46463c0,0 -0.34648,-0.16816 -0.65316,-0.58737c-0.26568,-0.36315 -0.48953,-0.96621 -0.5784,-1.18183c-0.21944,-0.53246 -0.21712,-0.80458 -0.01258,-1.24969c0.20453,-0.44511 0.55492,-0.79035 0.96171,-0.81574c0.16113,-0.01004 0.68798,0.01762 1.14636,0.20537c0.69889,0.28625 1.39706,0.80788 1.64267,1.06036z" data-paper-data="{&quot;index&quot;:null}" fill="#181a1f" stroke="#5d5f67" stroke-width="0.5" stroke-linecap="round"/><path d="M279.72753,166.50012c-0.53075,-0.07911 -2.29599,-0.0842 -2.29599,-0.0842v-2.34802l1.36377,-0.0258c0,0 0.2551,-0.02307 0.58525,0.21438c0.31376,0.22566 0.69995,0.70661 0.82618,0.91904c0.26707,0.4495 0.16767,1.52422 0.16767,1.52422c0,0 -0.36514,-0.15763 -0.64686,-0.19963z" data-paper-data="{&quot;index&quot;:null}" fill="#36363e" stroke="none" stroke-width="0" stroke-linecap="round"/><path d="M276.61807,166.33851c0,-0.37051 0.28386,-0.67087 0.63403,-0.67087c0.35016,0 0.63403,0.30036 0.63403,0.67087c0,0.37051 -0.28385,0.67087 -0.63403,0.67087c-0.14855,0 -0.22827,-0.05405 -0.33635,-0.14459c-0.14669,-0.12287 -0.29769,-0.31294 -0.29769,-0.52628z" data-paper-data="{&quot;index&quot;:null}" fill="url(#color-37)" stroke="none" stroke-width="0" stroke-linecap="butt"/><path d="M276.61808,166.4417c0,0 0.4159,-0.22796 0.56795,-0.27949c0.11876,-0.04026 0.43693,-0.00433 0.43693,-0.00433c0,0 -0.03513,0.33279 -0.10413,0.4403c-0.07417,0.11554 -0.47506,0.23057 -0.47506,0.23057z" data-paper-data="{&quot;index&quot;:null}" fill="#ebffff" stroke="#ebffff" stroke-width="0.5" stroke-linecap="round"/><path d="M275.97208,163.79698c0,-0.42039 0.36957,-0.76117 0.82543,-0.76117c0.45587,0 0.82544,0.34078 0.82544,0.76117c0,0.42039 -0.36957,0.76117 -0.82544,0.76117c-0.45587,0 -0.82543,-0.34078 -0.82543,-0.76117z" data-paper-data="{&quot;index&quot;:null}" fill="url(#color-38)" stroke="none" stroke-width="0" stroke-linecap="butt"/><path d="M199.99731,172.7168l3.05968,-0.25817c0,0 -1.08401,0.29415 -1.59585,0.37813c-0.45566,0.07476 -1.32631,0.10134 -1.32631,0.10134z" data-paper-data="{&quot;index&quot;:null}" fill="url(#color-39)" stroke="#000000" stroke-width="0.5" stroke-linecap="round"/><path d="M276.66591,163.24222c0,0 0.2265,0.13245 0.32745,0.22188c0.05279,0.04677 0.12591,0.1249 0.19105,0.19749c0.08206,0.09145 0.13264,0.2702 0.12045,0.33273c-0.01764,0.09039 0.04165,0.26582 -0.06473,0.3316c-0.10638,0.06577 -0.25864,0.09828 -0.44653,-0.01549c-0.10828,-0.06556 -0.19996,-0.27875 -0.37725,-0.4405c-0.23068,-0.21048 -0.53998,-0.36967 -0.53998,-0.36967c0,0 0.33408,-0.33358 0.47348,-0.37914c0.12123,-0.03962 0.31607,0.12112 0.31607,0.12112z" data-paper-data="{&quot;index&quot;:null}" fill="#efffff" stroke="none" stroke-width="0" stroke-linecap="round"/><path d="M279.43571,164.20827c0.3487,0.35847 0.6536,0.80586 0.76099,1.03941c0.1091,0.23727 0.28986,0.83124 0.21265,1.29004c-0.07731,0.45937 -0.41277,0.78349 -0.57016,0.89229c-0.23719,0.16394 -0.51424,0.17767 -0.75646,0.17406c-0.30677,-0.00457 -0.8985,-0.1494 -1.37408,-0.3623c-0.44147,-0.19764 -0.7985,-0.44418 -0.7985,-0.44418c0,0 -0.32751,-0.18861 -0.6342,-0.6078c-0.26568,-0.36315 -0.48953,-0.96621 -0.5784,-1.18183c-0.21944,-0.53246 -0.21712,-0.80458 -0.01258,-1.24969c0.20453,-0.44511 0.55492,-0.79035 0.96171,-0.81574c0.16113,-0.01004 0.68798,0.01762 1.14636,0.20537c0.69889,0.28625 1.39706,0.80788 1.64267,1.06036z" data-paper-data="{&quot;index&quot;:null}" fill="none" stroke="#5d5f67" stroke-width="0.5" stroke-linecap="round"/><path d="M200.32281,171.24551l2.73418,-0.1302c0,0 -0.943,0.29523 -1.39974,0.35725c-0.41881,0.05688 -1.23678,0.00079 -1.23678,0.00079z" data-paper-data="{&quot;index&quot;:null}" fill="url(#color-40)" stroke="#000000" stroke-width="0.5" stroke-linecap="round"/><path d="M201.62288,174.91598c0.40863,-0.10215 1.72704,-0.02489 1.72704,-0.02489l-0.3906,0.71609c0,0 -0.63832,-0.02735 -0.95351,-0.05549c-0.29035,-0.02592 -0.86926,-0.10725 -0.86926,-0.10725c0,0 0.21376,-0.46031 0.48633,-0.52845z" data-paper-data="{&quot;index&quot;:null}" fill="url(#color-41)" stroke="none" stroke-width="0" stroke-linecap="round"/><path d="M203.47077,180.19392l0.09398,4.91501l-2.00506,0.03254v-5.07775v-0.12743v-5.07775l2.00506,0.03254l-0.09398,4.91501z" data-paper-data="{&quot;index&quot;:null}" fill="url(#color-42)" stroke="none" stroke-width="0" stroke-linecap="round"/><path d="M229.42841,164.39966c0,0 -0.8805,-1.09879 -1.13159,-1.5738c-0.1912,-0.36172 -0.1704,-0.95577 -0.1704,-0.95577" data-paper-data="{&quot;index&quot;:null}" fill="none" stroke="#000000" stroke-width="0.5" stroke-linecap="round"/><path d="M274.63059,160.70247l2.40867,0.91139l-0.5859,0.0651l-2.92948,-1.17179z" data-paper-data="{&quot;index&quot;:null}" fill="#404040" stroke="#000000" stroke-width="0.5" stroke-linecap="round"/><path d="M247.91377,178.03333v1.37638l-1.56239,-0.74399c0,0 0.53469,-0.28373 0.80992,-0.39514c0.241,-0.09756 0.75247,-0.23726 0.75247,-0.23726z" data-paper-data="{&quot;index&quot;:null}" fill="#4e4e4e" stroke="#4e4e4e" stroke-width="0.5" stroke-linecap="round"/><path d="M284.98406,173.49747c0.15359,0.7732 0.46027,4.08721 0.46027,4.08721l-0.68354,0.1302l-1.00905,-0.16275c0,0 -0.11048,-2.17068 -0.21794,-3.02428c-0.07889,-0.62673 -0.36797,-2.49048 -0.36797,-2.49048c0,0 0.71007,0.1399 0.95619,0.28652c0.1694,0.10092 0.80186,0.87063 0.86204,1.17358z" data-paper-data="{&quot;index&quot;:null}" fill="url(#color-43)" stroke="#000000" stroke-width="0.5" stroke-linecap="round"/><path d="M283.99118,177.80571l-4.91501,-0.35805l4.39421,0.16275z" data-paper-data="{&quot;index&quot;:null}" fill="none" stroke="#3a79c9" stroke-width="0.5" stroke-linecap="round"/><path d="M284.10977,172.18142c0,0 0.71837,0.51681 0.89861,1.18404c0.19687,0.72881 0.42608,2.61919 0.54682,3.69694c0.05242,0.46793 -0.1513,0.79173 -0.46796,0.79819c-0.40151,0.0082 -0.93319,0.01222 -1.27966,-0.01167c-0.63833,-0.04402 -1.94374,-0.26425 -1.94374,-0.26425c0,0 3.36248,0.05789 3.41706,-0.07342c0.13056,-0.31411 -0.23623,-3.28945 -0.45266,-3.97223c-0.24754,-0.78093 -0.71846,-1.35761 -0.71846,-1.35761z" data-paper-data="{&quot;index&quot;:null}" fill="#012c5f" stroke="#012c5f" stroke-width="0.5" stroke-linecap="round"/><path d="M283.72534,172.30722c-0.14526,-0.02421 -0.49441,0.0044 -0.49441,0.0044l-3.45027,-1.72514c0,0 2.71736,0.77401 3.59076,1.11267c0.66247,0.25687 1.10719,0.78245 1.10719,0.78245c0,0 -0.53699,-0.13834 -0.75328,-0.1744z" data-paper-data="{&quot;index&quot;:null}" fill="#6496db" stroke="#6496db" stroke-width="0.5" stroke-linecap="round"/><g data-paper-data="{&quot;index&quot;:null}" stroke-width="0.5" stroke-linecap="round"><path d="M284.12273,182.25625l0.68354,1.62749l-1.49729,4.13382l-1.52984,0.35805c0,0 0.16474,-2.00388 0.21395,-2.99364c0.04842,-0.9738 0.07899,-2.89785 0.07899,-2.89785z" data-paper-data="{&quot;index&quot;:null}" fill="url(#color-44)" stroke="url(#color-45)"/><path d="M284.12203,187.67613c-0.24612,0.14662 -0.95619,0.28652 -0.95619,0.28652c0,0 0.28908,-1.86375 0.36797,-2.49048c0.10744,-0.8536 0.21794,-3.02428 0.21794,-3.02428l1.00905,-0.16275l0.68354,0.1302c0,0 -0.30668,3.31401 -0.46027,4.08721c-0.06018,0.30296 -0.69264,1.07268 -0.86204,1.17358z" data-paper-data="{&quot;index&quot;:null}" fill="url(#color-46)" stroke="#000000"/><path d="M283.47038,182.38961l-4.39421,0.16275l4.91501,-0.35805z" data-paper-data="{&quot;index&quot;:null}" fill="none" stroke="#3a79c9"/><path d="M284.10977,187.81859c0,0 0.47093,-0.57668 0.71846,-1.35761c0.21643,-0.68278 0.58323,-3.65812 0.45266,-3.97223c-0.05458,-0.13131 -3.41706,-0.07342 -3.41706,-0.07342c0,0 1.30541,-0.22023 1.94374,-0.26425c0.34646,-0.02389 0.87816,-0.01987 1.27966,-0.01167c0.31666,0.00647 0.52039,0.33027 0.46796,0.79819c-0.12075,1.07775 -0.34996,2.96814 -0.54682,3.69694c-0.18023,0.66722 -0.89861,1.18404 -0.89861,1.18404z" data-paper-data="{&quot;index&quot;:null}" fill="#012c5f" stroke="#012c5f"/><path d="M284.47862,187.5184c0,0 -0.44473,0.52558 -1.10719,0.78245c-0.87341,0.33867 -3.59076,1.11267 -3.59076,1.11267l3.45027,-1.72514c0,0 0.34914,0.02861 0.49441,0.0044c0.2163,-0.03605 0.75328,-0.1744 0.75328,-0.1744z" data-paper-data="{&quot;index&quot;:null}" fill="#6496db" stroke="#6496db"/></g><path d="M203.83276,180.1113l-0.82459,4.99096c0,0 -1.04256,0.1234 -1.41888,-0.00456c-0.11788,-0.04007 -0.18303,-0.19883 -0.29678,-0.31124c-0.2183,-0.21573 -0.45431,-0.422 -0.45431,-0.422l-2.08318,-0.56419c0,0 -0.11663,-1.21055 -0.14528,-1.83446c-0.02919,-0.63559 -0.04834,-1.86453 -0.04834,-1.86453v-0.20255c0,0 0.01915,-1.22894 0.04834,-1.86453c0.02866,-0.6239 0.14528,-1.83446 0.14528,-1.83446l2.08318,-0.56419c0,0 0.23601,-0.20626 0.45431,-0.422c0.11375,-0.11241 0.17891,-0.27116 0.29678,-0.31124c0.37633,-0.12795 1.41888,-0.00456 1.41888,-0.00456l0.82459,4.99096z" data-paper-data="{&quot;index&quot;:null}" fill="none" stroke="#000000" stroke-width="0.5" stroke-linecap="round"/><path d="M204.90293,180.05741c0,0 0.12116,4.642 0.32159,6.5725c0.15975,1.53858 0.89105,3.99966 0.89105,3.99966l-2.28155,-0.11284c0,0 -0.57453,-2.3925 -0.72751,-3.88955c-0.19364,-1.8948 -0.3414,-6.56976 -0.3414,-6.56976v-0.1148c0,0 0.14774,-4.67496 0.3414,-6.56976c0.15298,-1.49705 0.72751,-3.88955 0.72751,-3.88955l2.28155,-0.11284c0,0 -0.7313,2.46107 -0.89105,3.99966c-0.20043,1.93049 -0.32159,6.5725 -0.32159,6.5725z" data-paper-data="{&quot;index&quot;:null}" fill="url(#color-47)" stroke="#000000" stroke-width="0.5" stroke-linecap="round"/><path d="M259.67362,180.1225c0,0 0.00114,0.45808 -0.12084,1.28287c-0.0351,0.23737 -0.26018,0.26826 -0.31048,0.55604c-0.21952,1.25603 -0.39963,3.17572 -0.88861,4.84675c-0.93247,3.18658 -2.49007,6.43665 -3.67502,7.38149c-0.29027,0.23145 -1.50751,0.22618 -3.04453,-0.01352c-2.4025,-0.37467 -5.48384,-1.18543 -6.24094,-1.51092c-0.53119,-0.22837 -0.85964,-0.98875 -0.85535,-1.41098c0.00878,-0.8616 0.52031,-1.95961 0.65091,-3.36393c0.10591,-1.1389 0.20547,-3.34111 0.24156,-4.18943c0.00922,-0.21647 0.11782,-0.37681 0.28121,-0.43218c0.45287,-0.15345 1.36571,-0.48604 1.8095,-0.81198c0.71271,-0.52342 0.78385,-1.51724 0.87506,-1.76504c0.05764,-0.15657 0.33227,-0.09462 0.47658,-0.1931c0.24643,-0.16814 0.21931,-0.44118 0.21931,-0.44118v-0.1148c0,0 0.02712,-0.27304 -0.21931,-0.44118c-0.14431,-0.09847 -0.41894,-0.03653 -0.47658,-0.1931c-0.09123,-0.24779 -0.16237,-1.24163 -0.87506,-1.76504c-0.44378,-0.32594 -1.35663,-0.65852 -1.8095,-0.81198c-0.1634,-0.05537 -0.27201,-0.21572 -0.28121,-0.43218c-0.0361,-0.84831 -0.13565,-3.05053 -0.24156,-4.18943c-0.13059,-1.40433 -0.64214,-2.50233 -0.65091,-3.36393c-0.0043,-0.42223 0.32415,-1.18262 0.85535,-1.41098c0.7571,-0.32548 3.83845,-1.13625 6.24094,-1.51092c1.53703,-0.2397 2.75426,-0.24498 3.04453,-0.01352c1.18496,0.94483 2.74256,4.19491 3.67502,7.38149c0.48897,1.67101 0.66907,3.5907 0.88861,4.84675c0.0503,0.28778 0.27538,0.31867 0.31048,0.55604c0.12199,0.8248 0.12084,1.28287 0.12084,1.28287z" data-paper-data="{&quot;index&quot;:null}" fill="url(#color-48)" stroke="#000000" stroke-width="0.5" stroke-linecap="round"/><path d="M245.27548,158.09431c0,0 1.72523,-0.20424 2.50265,0.31956c0.2031,0.13684 0.9162,0.73168 1.45485,1.37362c0.70329,0.83812 1.24027,1.75655 1.28766,1.8408c0.06104,0.10853 0.066,0.50182 -0.51054,0.63849c-0.99855,0.23672 -2.92314,0.14998 -3.43315,-0.30741c-0.28223,-0.25311 -1.4069,-3.0391 -1.50175,-3.50461c-0.06311,-0.30977 0.20028,-0.36045 0.20028,-0.36045z" data-paper-data="{&quot;index&quot;:null}" fill="none" stroke="#000000" stroke-width="0.5" stroke-linecap="round"/><path d="M245.27548,201.9057c0,0 -0.26339,-0.05068 -0.20028,-0.36045c0.09485,-0.46552 1.21952,-3.2515 1.50175,-3.50461c0.51001,-0.45738 2.43459,-0.54413 3.43315,-0.30741c0.57653,0.13668 0.57157,0.52997 0.51054,0.63849c-0.04738,0.08425 -0.58438,1.00268 -1.28766,1.8408c-0.53866,0.64194 -1.25175,1.23677 -1.45485,1.37362c-0.77741,0.5238 -2.50265,0.31956 -2.50265,0.31956z" data-paper-data="{&quot;index&quot;:null}" fill="none" stroke="#000000" stroke-width="0.5" stroke-linecap="round"/><path d="M273.52389,199.49285l2.92948,-1.17179l0.5859,0.0651l-2.40867,0.91139z" data-paper-data="{&quot;index&quot;:null}" fill="#404040" stroke="#000000" stroke-width="0.5" stroke-linecap="round"/><path d="M252.4551,163.85145c0,0 0.6018,0.00941 0.9452,0.07641c0.36682,0.07157 1.26618,0.44639 1.26618,0.44639" data-paper-data="{&quot;index&quot;:null}" fill="none" stroke="#000000" stroke-width="0.5" stroke-linecap="round"/><path d="M254.66649,195.62577c0,0 -0.89937,0.37482 -1.26618,0.44639c-0.34339,0.067 -0.9452,0.07641 -0.9452,0.07641" data-paper-data="{&quot;index&quot;:null}" fill="none" stroke="#000000" stroke-width="0.5" stroke-linecap="round"/><path d="M253.22067,196.09154c0,0 1.42886,1.20477 1.8239,1.67613c0.40335,0.48126 0.54572,1.04403 0.54572,1.04403" data-paper-data="{&quot;index&quot;:null}" fill="none" stroke="#000000" stroke-width="0.5" stroke-linecap="round"/><path d="M203.05264,195.62985l-5.33816,-0.5208v-30.21809l5.33816,-0.5208z" data-paper-data="{&quot;index&quot;:null}" fill="url(#color-49)" stroke="none" stroke-width="0" stroke-linecap="round"/><path d="M255.59029,161.18832c0,0 -0.14238,0.56277 -0.54572,1.04403c-0.39504,0.47136 -1.8239,1.67613 -1.8239,1.67613" data-paper-data="{&quot;index&quot;:null}" fill="none" stroke="#000000" stroke-width="0.5" stroke-linecap="round"/><path d="M283.77395,179.91803c0,0 0.05672,-0.43111 0.15216,-0.43111c0.11494,0 0.51014,-0.03084 0.77408,0.06468c0.26158,0.09467 0.44317,0.36643 0.44317,0.36643v0.16395c0,0 -0.18158,0.27176 -0.44317,0.36643c-0.26394,0.09553 -0.65914,0.06468 -0.77408,0.06468c-0.09545,0 -0.15216,-0.43111 -0.15216,-0.43111z" data-paper-data="{&quot;index&quot;:null}" fill="#d3c998" stroke="none" stroke-width="0" stroke-linecap="round"/><path d="M277.09071,161.62674c0,0 2.11746,0.80663 2.90152,1.35c0.67959,0.47097 1.60808,1.76105 1.60808,1.76105c0,0 1.62425,2.6528 2.20061,3.82326c0.55088,1.1187 1.31848,3.28188 1.31848,3.28188" data-paper-data="{&quot;index&quot;:null}" fill="none" stroke="#000000" stroke-width="0.5" stroke-linecap="round"/><path d="M248.58308,180.00001c0,0.17461 -0.14156,0.31618 -0.31618,0.31618c-0.17461,0 -0.31618,-0.14156 -0.31618,-0.31618c0,-0.17461 0.14156,-0.31618 0.31618,-0.31618c0.17461,0 0.31618,0.14156 0.31618,0.31618z" data-paper-data="{&quot;index&quot;:null}" fill="#4c4c4c" stroke="none" stroke-width="0" stroke-linecap="butt"/><path d="M198.35354,180.21581c0,0 -0.05869,2.16032 0.20731,4.48302c0.30219,2.6387 0.94776,5.52484 1.21444,6.37136c0.68451,2.17277 1.84622,4.23568 1.84622,4.23568c0,0 -1.94804,-0.13865 -2.97974,-0.2639c-1.07569,-0.13059 -3.34793,-0.50428 -3.34793,-0.50428c0,0 -1.87547,-3.65841 -2.3362,-5.69478c-0.59133,-2.61368 -0.91879,-8.6922 -0.91879,-8.6922v-0.30142c0,0 0.32745,-6.07851 0.91879,-8.6922c0.46071,-2.03636 2.3362,-5.69478 2.3362,-5.69478c0,0 2.27225,-0.37368 3.34793,-0.50428c1.0317,-0.12524 2.97974,-0.2639 2.97974,-0.2639c0,0 -1.16171,2.0629 -1.84622,4.23568c-0.26669,0.84652 -0.91226,3.73265 -1.21444,6.37136c-0.266,2.32272 -0.20731,4.48302 -0.20731,4.48302z" data-paper-data="{&quot;index&quot;:null}" fill="url(#color-50)" stroke="#000000" stroke-width="0.5" stroke-linecap="round"/><path d="M198.71701,169.29232c0,0 -0.08996,0.66225 -0.20527,0.79326c-0.11421,0.12975 -0.40732,0.1748 -0.50265,0.18281c-0.57875,0.04864 -3.49099,0.29336 -3.49099,0.29336c0,0 0.02889,-0.2792 0.04435,-0.42867c0.01695,-0.16385 0.44605,-0.54645 0.77518,-0.57257c0.71213,-0.05652 3.37939,-0.26821 3.37939,-0.26821z" data-paper-data="{&quot;index&quot;:null}" fill="url(#color-51)" stroke="#000000" stroke-width="0.5" stroke-linecap="round"/><path d="M198.71701,190.70768c0,0 -2.66725,-0.21169 -3.37939,-0.26821c-0.32913,-0.02613 -0.75823,-0.40872 -0.77518,-0.57257c-0.01546,-0.14946 -0.04435,-0.42867 -0.04435,-0.42867c0,0 2.91225,0.24472 3.49099,0.29336c0.09531,0.00801 0.38843,0.05307 0.50265,0.18281c0.11533,0.13101 0.20527,0.79326 0.20527,0.79326z" data-paper-data="{&quot;index&quot;:null}" fill="url(#color-52)" stroke="#000000" stroke-width="0.5" stroke-linecap="round"/><path d="M205.84541,190.6426c0,0 -2.6559,0.17857 -4.32317,0.10066c-0.91049,-0.04254 -2.46139,-0.02932 -3.77475,-0.16703c-1.28982,-0.13525 -2.35054,-0.42187 -2.35054,-0.42187c0,0 3.38201,0.24352 5.04388,0.32117c1.80853,0.0845 5.40458,0.16707 5.40458,0.16707z" data-paper-data="{&quot;index&quot;:null}" fill="url(#color-53)" stroke="#000000" stroke-width="0.5" stroke-linecap="round"/><path d="M200.44083,169.5245c-1.66187,0.07766 -5.04388,0.32117 -5.04388,0.32117c0,0 1.06071,-0.28662 2.35054,-0.42187c1.31336,-0.13773 2.86426,-0.12449 3.77475,-0.16703c1.66727,-0.07792 4.32317,0.10066 4.32317,0.10066c0,0 -3.59605,0.08256 -5.40458,0.16707z" data-paper-data="{&quot;index&quot;:null}" fill="url(#color-54)" stroke="#000000" stroke-width="0.5" stroke-linecap="round"/><path d="M201.39369,195.37097c0,0 0.81461,0.10695 1.19659,0.16445c0.42137,0.06343 1.2251,0.20011 1.2251,0.20011c0,0 -1.3087,-0.06524 -2.62599,-0.16017c-1.53862,-0.11089 -5.78487,-0.69914 -5.78487,-0.69914l-0.41664,-0.31247c0,0 1.89869,0.25874 2.90096,0.38504c1.11991,0.14113 3.50484,0.42219 3.50484,0.42219z" data-paper-data="{&quot;index&quot;:null}" fill="url(#color-55)" stroke="#000000" stroke-width="0.5" stroke-linecap="round"/><path d="M197.88886,165.05123c-1.00228,0.1263 -2.90096,0.38504 -2.90096,0.38504l0.41664,-0.31247c0,0 4.24625,-0.58825 5.78487,-0.69914c1.31727,-0.09495 2.62599,-0.16017 2.62599,-0.16017c0,0 -0.80374,0.13667 -1.2251,0.20011c-0.38199,0.0575 -1.19659,0.16445 -1.19659,0.16445c0,0 -2.38491,0.28106 -3.50484,0.42219z" data-paper-data="{&quot;index&quot;:null}" fill="url(#color-56)" stroke="#000000" stroke-width="0.5" stroke-linecap="round"/></g></g></svg>