<svg version="1.1" xmlns="http://www.w3.org/2000/svg" xmlns:xlink="http://www.w3.org/1999/xlink" width="64.8608" height="34.46182" viewBox="0,0,64.8608,34.46182"><defs><linearGradient x1="270.45503" y1="179.895" x2="269.42117" y2="179.895" gradientUnits="userSpaceOnUse" id="color-1"><stop offset="0" stop-color="#9e9e9e"/><stop offset="1" stop-color="#b7b7b7"/></linearGradient><linearGradient x1="269.00623" y1="190.7473" x2="265.12398" y2="190.7473" gradientUnits="userSpaceOnUse" id="color-2"><stop offset="0" stop-color="#898989"/><stop offset="1" stop-color="#d8d8d8"/></linearGradient><linearGradient x1="268.99946" y1="169.25265" x2="265.11723" y2="169.25265" gradientUnits="userSpaceOnUse" id="color-3"><stop offset="0" stop-color="#898989"/><stop offset="1" stop-color="#d8d8d8"/></linearGradient><linearGradient x1="210.14498" y1="179.99999" x2="209.67219" y2="179.99999" gradientUnits="userSpaceOnUse" id="color-4"><stop offset="0" stop-color="#888888"/><stop offset="1" stop-color="#dedede"/></linearGradient><linearGradient x1="247.0362" y1="195.13215" x2="244.59285" y2="195.13215" gradientUnits="userSpaceOnUse" id="color-5"><stop offset="0" stop-color="#ababab"/><stop offset="1" stop-color="#d4d4d4"/></linearGradient><linearGradient x1="247.02942" y1="164.86781" x2="244.58607" y2="164.86781" gradientUnits="userSpaceOnUse" id="color-6"><stop offset="0" stop-color="#ababab"/><stop offset="1" stop-color="#d4d4d4"/></linearGradient></defs><g transform="translate(-207.56972,-162.81659)"><g data-paper-data="{&quot;isPaintingLayer&quot;:true}" fill-rule="nonzero" stroke-linejoin="miter" stroke-miterlimit="10" stroke-dasharray="" stroke-dashoffset="0" style="mix-blend-mode: normal"><text transform="translate(262.10408,180.37823) rotate(180) scale(0.09154,0.09154)" font-size="40" xml:space="preserve" fill="#000000" fill-rule="nonzero" stroke="none" stroke-width="1" stroke-linecap="butt" stroke-linejoin="miter" stroke-miterlimit="10" stroke-dasharray="" stroke-dashoffset="0" font-family="Pixel" font-weight="normal" text-anchor="start" style="mix-blend-mode: normal"><tspan x="0" dy="0">made by @itsadiesel</tspan></text><path d="M271.68028,180.17246l-0.05721,1.71639l-0.24793,1.86896l-0.34328,2.02153l-0.34328,1.71639l-0.57213,2.00244l-0.49585,1.62102l-0.38142,0.80098l-0.30514,0.41956l-0.47677,0.55306l-0.64841,0.49585l-0.43863,0.34328l-0.74377,0.41956l-0.62933,0.20978l-0.87727,0.11443l-1.22054,0.11443l-2.3648,0.15257h-4.63424l-1.29683,-0.01907l-1.10612,-0.05721l-1.3159,-0.15257l-0.93448,-0.09535l-1.10612,-0.07628c0,0 -7.22966,0.21053 -11.30997,0.17614c-8.14991,-0.06868 -15.73267,-0.34778 -15.73267,-0.34778l-0.7247,0.28606l-0.76284,0.1335l-1.16333,0.09535l-2.15502,0.07628h-2.78436l-1.83082,-0.05721l-2.15502,-0.1335l-0.80098,-0.15257l-0.55306,-0.28606l-0.34328,-0.40049l-0.55306,-1.10612l-0.41956,-0.93448l-0.41956,-1.39218l-0.4577,-1.7736l-0.22885,-1.35404l-0.30514,-2.74622l-0.10753,-3.54852l-0.01366,-1.52274v-0.00328l0.11443,-3.77606l0.30514,-2.74622l0.22885,-1.35404l0.4577,-1.7736l0.41956,-1.39218l0.41956,-0.93448l0.55306,-1.10612l0.34328,-0.40049l0.55306,-0.28606l0.80098,-0.15257l2.15502,-0.1335l1.83082,-0.05721h2.78436l2.15502,0.07628l1.16333,0.09535l0.76284,0.1335l0.7247,0.28606c0,0 7.58278,-0.27909 15.73267,-0.34778c4.0803,-0.03439 11.30997,0.17614 11.30997,0.17614l1.10612,-0.07628l0.93448,-0.09535l1.3159,-0.15257l1.10612,-0.05721l1.29683,-0.01907h4.63424l2.3648,0.15257l1.22054,0.11443l0.87727,0.11443l0.62933,0.20978l0.74377,0.41956l0.43863,0.34328l0.64841,0.49585l0.47677,0.55306l0.30514,0.41956l0.38142,0.80098l0.49585,1.62102l0.57213,2.00244l0.34328,1.71639l0.34328,2.02153l0.24793,1.86896l0.05721,1.71639z" fill="#b43535" stroke="#000000" stroke-width="1.5" stroke-linecap="round"/><path d="M269.67605,188.51999l-0.11189,1.11883l-0.20343,1.06797l-0.16274,0.54925l-0.4577,0.82386l-0.52891,0.69165l-0.12206,0.42719l-1.12901,0.79335l-1.38328,0.42719l-1.14935,-0.19326l-7.6589,0.02034l-0.69165,-0.31531l-0.62044,-0.49839l-0.39667,-0.43736l-0.33565,-0.70182l-0.05085,-0.8849l0.19326,-0.66112l0.47804,-0.94592l0.68147,-0.78318l0.2441,-0.23393l5.24834,-0.67129l1.25106,-0.15257l3.93625,-0.20343l0.85438,0.01017l1.00694,0.06102l0.71199,0.22376l0.20343,0.1424z" fill="#bb3636" stroke="#c63939" stroke-width="0.05" stroke-linecap="round"/><path d="M269.47603,171.80547l-0.20343,0.1424l-0.71199,0.22376l-1.00694,0.06102l-0.85438,0.01017l-3.93625,-0.20343l-1.25106,-0.15257l-5.24834,-0.67129l-0.2441,-0.23393l-0.68147,-0.78318l-0.47804,-0.94592l-0.19326,-0.66112l0.05085,-0.8849l0.33565,-0.70182l0.39667,-0.43736l0.62044,-0.49839l0.69165,-0.31531l7.6589,0.02034l1.14934,-0.19326l1.38328,0.42719l1.12901,0.79335l0.12205,0.42719l0.52891,0.69165l0.4577,0.82386l0.16274,0.54925l0.20343,1.06798l0.11189,1.11883z" data-paper-data="{&quot;index&quot;:null}" fill="#bb3636" stroke="#c63939" stroke-width="0.05" stroke-linecap="round"/><path d="M270.04578,175.14565l0.37693,3.12315l0.0323,1.19541l-0.0323,2.21851l-0.19385,1.75543l-0.56001,4.21088l-0.06462,0.17231l-0.17231,-0.50617l0.12924,-1.73389l0.50617,-4.65242l-0.02154,-0.58155l-0.0323,-2.15389l-0.26924,-2.47698l-0.29078,-1.99235l-0.0323,-0.99079l0.17231,-0.76464l0.20462,1.14157z" fill="url(#color-1)" stroke="#ff0000" stroke-width="0.05" stroke-linecap="round"/><path d="M211.39855,179.03368v-1.2525l0.05944,-1.22451l0.15455,-1.34339l0.21399,-1.87837l0.24965,-1.18883l0.40421,-1.52172l0.34476,-0.97485l0.32099,-0.39231l0.5231,-0.60631l0.40421,-0.28532l0.54687,-0.13077l0.55876,-0.13077l2.74622,-0.27343l4.58893,-0.27343l5.46867,-0.13077l6.43163,-0.03566h13.88565l2.05669,0.01189l0.83219,0.0951l0.34476,0.107l0.27343,0.14266l0.40421,0.41609l0.5231,0.63009l0.59442,0.93918l0.5231,1.10562l0.5112,1.03428l0.32099,0.91541l0.47554,1.79514l0.24966,1.70004l0.0951,1.61682v1.8657l0.00676,0.48119v1.85294l-0.0951,1.61682l-0.24966,1.70004l-0.47554,1.79514l-0.32099,0.91541l-0.5112,1.03428l-0.5231,1.10562l-0.59442,0.93918l-0.5231,0.63009l-0.40421,0.41609l-0.27343,0.14266l-0.34476,0.107l-0.83219,0.0951l-2.05669,0.01189h-13.88565l-6.43163,-0.03566l-5.46867,-0.13077l-4.58893,-0.27343l-2.74622,-0.27343l-0.55876,-0.13077l-0.54687,-0.13077l-0.40421,-0.28532l-0.5231,-0.60631l-0.32099,-0.39231l-0.34476,-0.97485l-0.40421,-1.52172l-0.24965,-1.18883l-0.21399,-1.87837l-0.15455,-1.34339l-0.05944,-1.22451v-1.44731v-1.1709z" fill="#c0c0c0" stroke="#000000" stroke-width="0.5" stroke-linecap="round"/><path d="M269.49654,172.52867l0.2477,1.72312l0.25847,2.05697l0.1077,1.07695l0.08616,1.09849l0.04308,1.06619l0.01076,1.06619l-0.11846,1.87388l-0.23693,2.16467l-0.37693,2.81084" fill="none" stroke="#8c8c8c" stroke-width="0.5" stroke-linecap="round"/><path d="M211.64107,179.04121v-1.01037l0.04756,-0.90352l0.03566,-0.65386l0.27343,-2.41334l0.08322,-0.7133l0.15455,-0.78463l0.3091,-1.3315l0.28532,-0.97485l0.15455,-0.35665l0.22589,-0.3091l0.43987,-0.58253l0.38042,-0.34476l0.26155,-0.16644l0.63008,-0.14266l0.70142,-0.0951l2.50846,-0.24966l2.73433,-0.16644l1.50983,-0.0951l2.90077,-0.07133l2.4609,-0.07133l4.82669,-0.01189h15.0626l2.63922,0.03566l0.77275,0.05944l0.35665,0.0951l0.28532,0.19021l0.21399,0.21399l0.38042,0.39231l0.5112,0.68953l0.58253,1.05807l0.49931,1.04618l0.40421,0.95108l0.22589,0.79652l0.33287,1.18883l0.28532,1.58115l0.07133,0.9273l0.01189,2.13991v0.79405l0.00676,0.46349v0.82615l-0.01189,2.13991l-0.07133,0.9273l-0.28532,1.58115l-0.33287,1.18883l-0.22589,0.79652l-0.40421,0.95108l-0.49931,1.04618l-0.58253,1.05807l-0.5112,0.68953l-0.38042,0.39231l-0.21399,0.21399l-0.28532,0.19021l-0.35665,0.0951l-0.77275,0.05944l-2.63922,0.03566h-15.0626l-4.82669,-0.01189l-2.4609,-0.07133l-2.90077,-0.07133l-1.50983,-0.0951l-2.73433,-0.16644l-2.50846,-0.24966l-0.70142,-0.0951l-0.63008,-0.14266l-0.26155,-0.16644l-0.38042,-0.34476l-0.43987,-0.58253l-0.22589,-0.3091l-0.15455,-0.35665l-0.28532,-0.97485l-0.3091,-1.3315l-0.15455,-0.78463l-0.08322,-0.7133l-0.27343,-2.41334l-0.03566,-0.65386l-0.04756,-0.90352v-1.12579l-0.00587,-1.26315z" data-paper-data="{&quot;index&quot;:null}" fill="#666666" stroke="#000000" stroke-width="0.5" stroke-linecap="round"/><path d="M219.07516,189.22729l0.07227,0.16862l-2.32465,1.65014l-0.12105,0.81242l-1.57847,-0.17946l-0.77328,-0.12888l-0.65765,-0.46493l-0.64319,-0.86903l-0.18708,-0.44665l0.35933,-0.14475l3.54118,-1.44538l0.20476,-0.07227l0.3493,0.42157l0.3252,0.27703l0.25294,0.12044l0.66247,0.25294z" fill="#363636" stroke="none" stroke-width="0" stroke-linecap="round"/><path d="M218.55047,170.82086l-0.66247,0.25294l-0.25294,0.12044l-0.3252,0.27702l-0.3493,0.42157l-0.20476,-0.07227l-3.54118,-1.44537l-0.34212,-0.13243l0.12006,-0.41186l0.63242,-0.81452l0.63611,-0.52147l0.75712,-0.14906l1.6653,-0.21043l0.13249,0.81848l2.32465,1.65014l-0.07227,0.16862z" data-paper-data="{&quot;index&quot;:null}" fill="#363636" stroke="none" stroke-width="0" stroke-linecap="round"/><path d="M244.02,189.97407l-0.49383,-0.43361l-0.15658,-0.75883l1.86695,0.36134l6.60303,2.71132l-0.248,0.26251l-0.21001,0.12724l-0.46511,0.11829l-1.92656,0.01685z" fill="#363636" stroke="none" stroke-width="0" stroke-linecap="round"/><path d="M230.99954,192.49145h-2.16807l0.18067,-2.68599l1.36106,0.02409l0.22885,-0.01205l-0.06023,0.27703z" fill="#363636" stroke="none" stroke-width="0" stroke-linecap="round"/><path d="M212.62229,194.40259l0.36968,-0.26406l0.36968,-0.12323l1.47873,-0.12323h6.95357l1.35551,0.08802l0.95061,0.14083l-0.59304,0.30463l-0.57815,0.14453l-2.05564,0.17666h-4.91429l-2.89075,-0.16059z" fill="#363636" stroke="#000000" stroke-width="0.5" stroke-linecap="round"/><path d="M252.30165,194.36739l1.44352,-0.05281l2.20049,-0.08802l2.51737,-0.0176h3.74965l2.30612,0.0176l0.8978,0.14083l-0.39507,0.1224l-3.50103,0.28908h-5.57273l-1.95929,-0.12848z" fill="#363636" stroke="#000000" stroke-width="0.5" stroke-linecap="round"/><path d="M246.82173,193.28448c0.38391,-0.2168 0.75692,-0.15717 0.83313,0.13318c0.07621,0.29035 -0.17322,0.70147 -0.55714,0.91826c-0.38391,0.2168 -0.75692,0.15717 -0.83313,-0.13318c-0.07621,-0.29035 0.17322,-0.70147 0.55714,-0.91826z" fill="#363636" stroke="#000000" stroke-width="0.75" stroke-linecap="butt"/><path d="M265.68774,192.5578c-0.7554,-0.59534 -0.7511,-1.88854 0.0096,-2.88845c0.7607,-0.9999 1.98974,-1.32788 2.74514,-0.73253c0.7554,0.59534 0.7511,1.88854 -0.0096,2.88845c-0.7607,0.9999 -1.98974,1.32788 -2.74514,0.73253z" fill="url(#color-2)" stroke="#000000" stroke-width="0.75" stroke-linecap="butt"/><path d="M268.17559,191.84786c-0.74763,0.85191 -1.84748,1.05193 -2.45658,0.44677c-0.6091,-0.60516 -0.49679,-1.78634 0.25084,-2.63825c0.74763,-0.85191 1.84748,-1.05193 2.45658,-0.44677c0.6091,0.60516 0.49679,1.78634 -0.25084,2.63825z" fill="#dbdbdb" stroke="#000000" stroke-width="0.25" stroke-linecap="butt"/><path d="M258.03778,194.68277c0,0 -2.28319,-0.44552 -3.06621,-1.86331c-1.07221,-1.94142 1.2354,-3.98244 1.2354,-3.98244l0.17666,-0.2409l0.27302,-0.6424l0.44968,-1.34902l0.30514,-1.6381l0.12848,-1.67021l0.0803,-1.62204v-1.20747l-0.00676,-1.23154v-0.90973l-0.0803,-1.62204l-0.12848,-1.67021l-0.30514,-1.6381l-0.44968,-1.34902l-0.27302,-0.6424l-0.17666,-0.2409c0,0 -2.30761,-2.04101 -1.2354,-3.98244c0.78301,-1.41779 3.06621,-1.86331 3.06621,-1.86331" fill="none" stroke="#000000" stroke-width="0.75" stroke-linecap="round"/><path d="M230.55244,189.91735l0.42138,2.71715c0,0 -0.69735,0.45495 -0.91768,0.70812c-0.2341,0.26898 -0.44816,0.86115 -0.44816,0.86115" fill="none" stroke="#000000" stroke-width="0.75" stroke-linecap="round"/><path d="M228.89599,192.35844l0.08719,-2.42656" fill="none" stroke="#000000" stroke-width="0.75" stroke-linecap="round"/><path d="M216.69056,191.76268l0.10172,-0.58121l0.07265,-0.13077l0.05812,-0.07265l2.03424,-1.46756l0.26707,-0.16679" fill="none" stroke="#000000" stroke-width="0.75" stroke-linecap="round"/><path d="M245.06817,189.0746l6.75658,2.77527" fill="none" stroke="#000000" stroke-width="0.75" stroke-linecap="round"/><path d="M243.71686,189.81563l5.2309,2.52826c0,0 1.12553,0.42962 1.53602,0.75045c0.43125,0.33706 0.99224,1.22564 0.99224,1.22564" fill="none" stroke="#000000" stroke-width="0.75" stroke-linecap="round"/><path d="M257.10839,182.65994c0.01758,0.04519 0.00946,0.18837 0.00946,0.18837c0,0 -0.0728,1.12022 -0.10661,1.43648c-0.03381,0.31626 -0.13281,0.80274 -0.13281,0.80274l-0.23942,0.9999l-0.47883,1.46466l-0.30984,0.8309l-0.18308,0.36617l-0.07041,0.0845l-0.11266,0.0845l-0.16901,0.05633h-0.26757c0,0 -0.18363,-0.02105 -0.23916,-0.07041c-0.05554,-0.04937 -0.01433,-0.15491 -0.01433,-0.15491l0.16901,-0.69008l0.35208,-1.18299l0.23942,-0.91541l0.25349,-1.30973l0.22534,-1.35198l0.09859,-0.49291c0,0 0.04461,-0.12606 0.09871,-0.16294c0.05409,-0.03688 0.21112,-0.0483 0.21112,-0.0483h0.57741c0,0 0.0743,0.02705 0.08912,0.06514z" fill="#363636" stroke="#000000" stroke-width="0.75" stroke-linecap="round"/><path d="M212.72933,194.61819l-0.26155,-0.56667l-0.18889,-0.27608l-0.36326,-0.39231l-0.65386,-0.50856l-0.30514,-0.34872l-0.26155,-0.42138l-0.29061,-0.56667l-0.31967,-0.79917l-0.29061,-1.2496l-0.08719,-0.82822" fill="none" stroke="#000000" stroke-width="0.75" stroke-linecap="round"/><path d="M215.48331,177.16582h0.31967l0.23248,0.07265l0.08719,0.10172l0.01453,0.29061v1.21302l0.00676,1.96547v1.55989l-0.01453,0.29061l-0.08719,0.10172l-0.23248,0.07265h-0.31967" fill="none" stroke="#000000" stroke-width="0.75" stroke-linecap="round"/><path d="M212.61079,191.64056c0,0 0.03051,0.10053 0,0.14732c-0.03051,0.04678 -0.15783,0.09469 -0.15783,0.09469l-0.73653,0.25253l-0.22097,0.05261h-0.15783l-0.11574,-0.06314l-0.21043,-0.24201l-0.25253,-0.47349l-0.27357,-0.69444l-0.05261,-0.25253l0.01052,-0.08418l0.12626,-0.13679h0.11574l1.16793,0.51558l0.18939,0.14732l0.14732,0.15783z" fill="none" stroke="#000000" stroke-width="0.75" stroke-linecap="round"/><path d="M269.6251,172.06652l0.2456,1.60754l0.35723,2.92484l0.22326,2.07641l0.02232,1.22798l0.00676,0.19339l-0.02232,1.22798l-0.22326,2.07641l-0.35723,2.92484l-0.2456,1.60754" fill="none" stroke="#000000" stroke-width="0.75" stroke-linecap="round"/><path d="M215.59186,175.23761l-0.12714,0.95355l-0.13986,2.00881l0.02542,1.61467l0.03814,2.5555l0.06356,1.29683l0.20343,1.42396l0.30867,1.14628l-0.03814,0.71199l-0.05085,0.17799l-0.11443,0.12714l-0.089,0.06356l-2.13595,0.96627l-0.25428,0.03814l-0.22885,-0.02542l-0.1907,-0.10172l-0.11443,-0.13986l-0.16528,-0.41956l-0.22885,-0.99169l-0.20343,-1.58925l-0.13986,-1.41125l-0.05085,-1.0044l-0.02498,-1.64289l-0.00594,-2.04668l0.02416,-1.58884l0.05085,-1.0044l0.13986,-1.41125l0.20343,-1.58925l0.22885,-0.99169l0.16528,-0.41956l0.11443,-0.13986l0.1907,-0.10172l0.22885,-0.02542l0.25428,0.03814l2.13595,0.96627l0.089,0.06356l0.11443,0.12714l0.05085,0.17799l0.03814,0.71199z" fill="#7c7c7c" stroke="#666666" stroke-width="0.25" stroke-linecap="round"/><path d="M212.53402,191.62015c0,0 0.02897,0.09544 0,0.13987c-0.02897,0.04441 -0.14986,0.08991 -0.14986,0.08991l-0.6993,0.23975l-0.20979,0.04995h-0.14986l-0.10988,-0.05994l-0.1998,-0.22977l-0.23975,-0.44955l-0.25974,-0.65934l-0.04995,-0.23975l0.00999,-0.07991l0.11988,-0.12987h0.10988l1.10887,0.48951l0.17982,0.13987l0.13987,0.14986z" fill="#b02c2c" stroke="#b8b8b8" stroke-width="0.25" stroke-linecap="round"/><path d="M256.1932,188.81605l6.54655,-0.83219l2.77396,-0.15257l1.30377,-0.06934l1.19281,0.04161l0.49931,0.02774l0.38835,0.09708l0.48545,0.19418l0.23578,0.20804" fill="none" stroke="#c63939" stroke-width="0.5" stroke-linecap="round"/><path d="M249.16101,167.59067l1.38053,0.04787l0.98459,0.18592l0.33015,0.33293l-6.6265,2.69959l-1.86695,0.36134l0.15658,-0.75883l0.49383,-0.43361z" data-paper-data="{&quot;index&quot;:null}" fill="#363636" stroke="none" stroke-width="0" stroke-linecap="round"/><path d="M230.53507,169.90544l0.06023,0.27702l-0.22885,-0.01205l-1.36106,0.02409l-0.18067,-2.68599h2.16807z" data-paper-data="{&quot;index&quot;:null}" fill="#363636" stroke="none" stroke-width="0" stroke-linecap="round"/><path d="M213.06143,165.41382l2.89075,-0.16059h4.91429l2.05564,0.17666l0.57815,0.14453l0.59304,0.30463l-0.95061,0.14083l-1.35551,0.08802h-6.95357l-1.47873,-0.12322l-0.36968,-0.12323l-0.36968,-0.26406z" data-paper-data="{&quot;index&quot;:null}" fill="#363636" stroke="#000000" stroke-width="0.5" stroke-linecap="round"/><path d="M253.98172,165.34957l1.95929,-0.12848h5.57273l3.50103,0.28907l0.39507,0.1224l-0.8978,0.14083l-2.30612,0.0176h-3.74965l-2.51737,-0.0176l-2.20049,-0.08802l-1.44352,-0.05281z" data-paper-data="{&quot;index&quot;:null}" fill="#363636" stroke="#000000" stroke-width="0.5" stroke-linecap="round"/><path d="M246.25782,165.79722c0.07621,-0.29035 0.44921,-0.34997 0.83313,-0.13318c0.38391,0.2168 0.63336,0.62793 0.55714,0.91826c-0.07621,0.29035 -0.44921,0.34997 -0.83313,0.13318c-0.38391,-0.2168 -0.63336,-0.62793 -0.55714,-0.91826z" data-paper-data="{&quot;index&quot;:null}" fill="#363636" stroke="#000000" stroke-width="0.75" stroke-linecap="butt"/><path d="M268.42611,168.17471c0.7607,0.9999 0.76499,2.2931 0.0096,2.88845c-0.7554,0.59534 -1.98444,0.26737 -2.74514,-0.73253c-0.7607,-0.9999 -0.76499,-2.2931 -0.0096,-2.88845c0.7554,-0.59534 1.98444,-0.26737 2.74514,0.73253z" data-paper-data="{&quot;index&quot;:null}" fill="url(#color-3)" stroke="#000000" stroke-width="0.75" stroke-linecap="butt"/><path d="M268.16883,168.15211c0.74763,0.85191 0.85993,2.03309 0.25084,2.63825c-0.6091,0.60516 -1.70895,0.40513 -2.45658,-0.44677c-0.74763,-0.85191 -0.85993,-2.03309 -0.25084,-2.63825c0.6091,-0.60516 1.70895,-0.40513 2.45658,0.44677z" data-paper-data="{&quot;index&quot;:null}" fill="#dbdbdb" stroke="#000000" stroke-width="0.25" stroke-linecap="butt"/><path d="M229.60121,165.79619c0,0 0.21405,0.59219 0.44816,0.86115c0.22035,0.25316 0.91768,0.70812 0.91768,0.70812l-0.42138,2.71715" data-paper-data="{&quot;index&quot;:null}" fill="none" stroke="#000000" stroke-width="0.75" stroke-linecap="round"/><path d="M228.88922,167.64154l0.08719,2.42656" data-paper-data="{&quot;index&quot;:null}" fill="none" stroke="#000000" stroke-width="0.75" stroke-linecap="round"/><path d="M219.21759,170.65627l-0.26707,-0.16679l-2.03424,-1.46756l-0.05812,-0.07265l-0.07265,-0.13077l-0.10172,-0.58121" data-paper-data="{&quot;index&quot;:null}" fill="none" stroke="#000000" stroke-width="0.75" stroke-linecap="round"/><path d="M208.95441,179.47264l0.06294,-2.42307l0.01453,-1.59833l0.05812,-0.97353l0.15983,-1.5838l0.11624,-0.72651l0.10172,-0.36326l0.11624,-0.18889l0.05812,-0.10172l0.27608,-0.30514l0.87182,-0.79917l0.30514,-0.15983l0.40684,-0.08719h0.94447l0.44492,0.09475l4.1266,1.68551l0.33419,0.27608l0.21795,0.43591l0.10172,0.75558v1.27866v4.42531l0.00676,1.60241v4.59483v1.27866l-0.10172,0.75558l-0.21795,0.43591l-0.33419,0.27608l-4.1266,1.68551l-0.44492,0.09475h-0.94447l-0.40684,-0.08719l-0.30514,-0.15983l-0.87182,-0.79917l-0.27608,-0.30514l-0.05812,-0.10172l-0.11624,-0.18889l-0.10172,-0.36326l-0.11624,-0.72651l-0.15983,-1.5838l-0.05812,-0.97353l-0.01453,-1.59833l-0.0583,-2.24471z" data-paper-data="{&quot;index&quot;:null}" fill="none" stroke="#000000" stroke-width="0.75" stroke-linecap="round"/><path d="M251.81799,168.15009l-6.75658,2.77527" data-paper-data="{&quot;index&quot;:null}" fill="none" stroke="#000000" stroke-width="0.75" stroke-linecap="round"/><path d="M251.46927,165.67995c0,0 -0.561,0.88859 -0.99224,1.22564c-0.41048,0.32083 -1.53602,0.75045 -1.53602,0.75045l-5.2309,2.52826" data-paper-data="{&quot;index&quot;:null}" fill="none" stroke="#000000" stroke-width="0.75" stroke-linecap="round"/><path d="M257.0125,177.40516h-0.57741c0,0 -0.15703,-0.01142 -0.21112,-0.0483c-0.05409,-0.03688 -0.09871,-0.16294 -0.09871,-0.16294l-0.09859,-0.49291l-0.22534,-1.35198l-0.25349,-1.30973l-0.23942,-0.91541l-0.35208,-1.18299l-0.16901,-0.69008c0,0 -0.04121,-0.10555 0.01433,-0.15491c0.05554,-0.04937 0.23916,-0.07041 0.23916,-0.07041h0.26757l0.16901,0.05633l0.11266,0.0845l0.07041,0.0845l0.18308,0.36617l0.30984,0.8309l0.47883,1.46466l0.23942,0.9999c0,0 0.09899,0.48648 0.13281,0.80274c0.03381,0.31626 0.10661,1.43648 0.10661,1.43648c0,0 0.00812,0.14317 -0.00946,0.18837c-0.01481,0.03808 -0.08912,0.06514 -0.08912,0.06514z" data-paper-data="{&quot;index&quot;:null}" fill="#363636" stroke="#000000" stroke-width="0.75" stroke-linecap="round"/><path d="M209.70027,171.33919l0.08719,-0.82822l0.29061,-1.2496l0.31967,-0.79917l0.29061,-0.56667l0.26155,-0.42138l0.30514,-0.34872l0.65386,-0.50856l0.36326,-0.39231l0.18889,-0.27608l0.26155,-0.56667" data-paper-data="{&quot;index&quot;:null}" fill="none" stroke="#000000" stroke-width="0.75" stroke-linecap="round"/><path d="M212.60402,168.35942l-0.42088,0.5787l-0.14732,0.15783l-0.18939,0.14732l-1.16793,0.51558h-0.11574l-0.12626,-0.13679l-0.01052,-0.08418l0.05261,-0.25253l0.27357,-0.69444l0.25253,-0.47349l0.21043,-0.24201l0.11574,-0.06314h0.15783l0.22097,0.05261l0.73653,0.25253c0,0 0.12732,0.04792 0.15783,0.09469c0.03051,0.04678 0,0.14732 0,0.14732z" data-paper-data="{&quot;index&quot;:null}" fill="none" stroke="#000000" stroke-width="0.75" stroke-linecap="round"/><path d="M209.67219,179.36654v-0.31063l0.01664,-1.14843l0.03329,-1.8641l0.03329,-1.01526l0.01664,-0.23301l0.09987,-0.06658l0.09987,0.01664l0.13314,0.36617l0.03329,0.21636v0.48267l-0.05479,2.10885v1.43373l0.00676,1.42014v1.30764l0.05479,2.10885v0.48267l-0.03329,0.21636l-0.13314,0.36617l-0.09987,0.01664l-0.09987,-0.06658l-0.01664,-0.23301l-0.03329,-1.01526l-0.03329,-1.8641l-0.01664,-1.14843v-0.2095z" data-paper-data="{&quot;index&quot;:null}" fill="url(#color-4)" stroke="#000000" stroke-width="0.5" stroke-linecap="round"/><path d="M212.52725,168.37981l-0.3996,0.54944l-0.13987,0.14986l-0.17982,0.13987l-1.10887,0.48951h-0.10988l-0.11988,-0.12987l-0.00999,-0.07991l0.04995,-0.23975l0.25974,-0.65934l0.23975,-0.44955l0.1998,-0.22977l0.10988,-0.05994h0.14986l0.20979,0.04995l0.6993,0.23975c0,0 0.12089,0.04549 0.14986,0.08991c0.02897,0.04441 0,0.13987 0,0.13987z" data-paper-data="{&quot;index&quot;:null}" fill="#b02c2c" stroke="#b8b8b8" stroke-width="0.25" stroke-linecap="round"/><path d="M211.64107,179.04121v-1.01037l0.04756,-0.90352l0.03566,-0.65386l0.27343,-2.41334l0.08322,-0.7133l0.15455,-0.78463l0.3091,-1.3315l0.28532,-0.97485l0.15455,-0.35665l0.22589,-0.3091l0.43987,-0.58253l0.38042,-0.34476l0.26155,-0.16644l0.63008,-0.14266l0.70142,-0.0951l2.50846,-0.24966l2.73433,-0.16644l1.50983,-0.0951l2.90077,-0.07133l2.4609,-0.07133l4.82669,-0.01189h15.0626l2.63922,0.03566l0.77275,0.05944l0.35665,0.0951l0.28532,0.19021l0.21399,0.21399l0.38042,0.39231l0.5112,0.68953l0.58253,1.05807l0.49931,1.04618l0.40421,0.95108l0.22589,0.79652l0.33287,1.18883l0.28532,1.58115l0.07133,0.9273l0.01189,2.13991v0.79405l0.00676,0.46349v0.82615l-0.01189,2.13991l-0.07133,0.9273l-0.28532,1.58115l-0.33287,1.18883l-0.22589,0.79652l-0.40421,0.95108l-0.49931,1.04618l-0.58253,1.05807l-0.5112,0.68953l-0.38042,0.39231l-0.21399,0.21399l-0.28532,0.19021l-0.35665,0.0951l-0.77275,0.05944l-2.63922,0.03566h-15.0626l-4.82669,-0.01189l-2.4609,-0.07133l-2.90077,-0.07133l-1.50983,-0.0951l-2.73433,-0.16644l-2.50846,-0.24966l-0.70142,-0.0951l-0.63008,-0.14266l-0.26155,-0.16644l-0.38042,-0.34476l-0.43987,-0.58253l-0.22589,-0.3091l-0.15455,-0.35665l-0.28532,-0.97485l-0.3091,-1.3315l-0.15455,-0.78463l-0.08322,-0.7133l-0.27343,-2.41334l-0.03566,-0.65386l-0.04756,-0.90352v-1.12579l-0.00587,-1.26315z" data-paper-data="{&quot;index&quot;:null}" fill="none" stroke="#000000" stroke-width="0.5" stroke-linecap="round"/><path d="M247.32037,180.16053v0.18137l-0.07265,1.46756l-0.20343,1.48209l-0.27608,1.56928l-0.49403,1.62739l-0.56667,1.42396l-0.5231,0.92994l-0.27608,0.36326l-0.40684,0.31967l-0.43591,0.17436l-0.34872,0.07265l-2.58639,0.07265h-11.94388l-2.71715,-0.05812l-3.55992,-0.08719l-2.41203,-0.20343l-1.71457,-0.26155l-0.6248,-0.17436l-0.4795,-0.20343l-0.43591,-0.42138l-0.40684,-0.45044l-0.39231,-0.68292l-0.37779,-0.7701l-0.27608,-0.98805l-0.24701,-1.07524l-0.11624,-1.36585l-0.08719,-1.74364v-0.32777l-0.00676,-2.1851v-0.20521l0.08719,-1.74364l0.11624,-1.36585l0.24701,-1.07524l0.27608,-0.98805l0.37779,-0.7701l0.39231,-0.68292l0.40684,-0.45044l0.43591,-0.42138l0.4795,-0.20343l0.6248,-0.17436l1.71457,-0.26155l2.41203,-0.20343l3.55992,-0.08719l2.71715,-0.05812h11.94388l2.58639,0.07265l0.34872,0.07265l0.43591,0.17436l0.40684,0.31967l0.27608,0.36326l0.5231,0.92994l0.56667,1.42396l0.49403,1.62739l0.27608,1.56928l0.20343,1.48209l0.07265,1.46756v0.03437z" fill="#d9d9d9" stroke="#000000" stroke-width="0.75" stroke-linecap="round"/><path d="M271.68028,180.17246l-0.05721,1.71639l-0.24793,1.86896l-0.34328,2.02153l-0.34328,1.71639l-0.57213,2.00244l-0.49585,1.62102l-0.38142,0.80098l-0.30514,0.41956l-0.47677,0.55306l-0.64841,0.49585l-0.43863,0.34328l-0.74377,0.41956l-0.62933,0.20978l-0.87727,0.11443l-1.22054,0.11443l-2.3648,0.15257h-4.63424l-1.29683,-0.01907l-1.10612,-0.05721l-1.3159,-0.15257l-0.93448,-0.09535l-1.10612,-0.07628c0,0 -7.22966,0.21053 -11.30997,0.17614c-8.14991,-0.06868 -15.73267,-0.34778 -15.73267,-0.34778l-0.7247,0.28606l-0.76284,0.1335l-1.16333,0.09535l-2.15502,0.07628h-2.78436l-1.83082,-0.05721l-2.15502,-0.1335l-0.80098,-0.15257l-0.55306,-0.28606l-0.34328,-0.40049l-0.55306,-1.10612l-0.41956,-0.93448l-0.41956,-1.39218l-0.4577,-1.7736l-0.22885,-1.35404l-0.30514,-2.74622l-0.10753,-3.54852l-0.01366,-1.52274v-0.00328l0.11443,-3.77606l0.30514,-2.74622l0.22885,-1.35404l0.4577,-1.7736l0.41956,-1.39218l0.41956,-0.93448l0.55306,-1.10612l0.34328,-0.40049l0.55306,-0.28606l0.80098,-0.15257l2.15502,-0.1335l1.83082,-0.05721h2.78436l2.15502,0.07628l1.16333,0.09535l0.76284,0.1335l0.7247,0.28606c0,0 7.58278,-0.27909 15.73267,-0.34778c4.0803,-0.03439 11.30997,0.17614 11.30997,0.17614l1.10612,-0.07628l0.93448,-0.09535l1.3159,-0.15257l1.10612,-0.05721l1.29683,-0.01907h4.63424l2.3648,0.15257l1.22054,0.11443l0.87727,0.11443l0.62933,0.20978l0.74377,0.41956l0.43863,0.34328l0.64841,0.49585l0.47677,0.55306l0.30514,0.41956l0.38142,0.80098l0.49585,1.62102l0.57213,2.00244l0.34328,1.71639l0.34328,2.02153l0.24793,1.86896l0.05721,1.71639z" fill="none" stroke="#000000" stroke-width="1.5" stroke-linecap="round"/><path d="M246.90128,194.1189c0.23251,0.42784 0.16597,1.12198 -0.21114,1.75737c-0.46429,0.78226 -1.2322,1.19394 -1.76106,0.96339l-0.16058,-0.07601l-0.06435,-0.04904l-0.08028,-0.08153l-0.02347,-0.10537l-0.00754,-0.07288c0,0 0.32569,-1.05528 0.49717,-1.55381c0.17148,-0.49854 0.78002,-1.43825 0.78002,-1.43825c0,0 0.09432,-0.08218 0.16232,-0.0978c0.068,-0.01564 0.17812,0.01952 0.17812,0.01952l0.12883,0.0819l0.14476,0.1144l0.21653,0.25251z" data-paper-data="{&quot;index&quot;:null}" fill="url(#color-5)" stroke="#000000" stroke-width="0.75" stroke-linecap="butt"/><path d="M246.69383,166.16672l-0.21653,0.25251l-0.14476,0.1144l-0.12883,0.0819c0,0 -0.11013,0.03515 -0.17812,0.01952c-0.06799,-0.01564 -0.16232,-0.0978 -0.16232,-0.0978c0,0 -0.60854,-0.93971 -0.78002,-1.43825c-0.17148,-0.49854 -0.49717,-1.55381 -0.49717,-1.55381l0.00754,-0.07288l0.02347,-0.10537l0.08028,-0.08153l0.06435,-0.04904l0.16058,-0.07601c0.52889,-0.23056 1.29678,0.18114 1.76106,0.96339c0.37711,0.63539 0.44367,1.32951 0.21114,1.75737z" data-paper-data="{&quot;index&quot;:null}" fill="url(#color-6)" stroke="#000000" stroke-width="0.75" stroke-linecap="butt"/><path d="M269.61241,171.66936l-0.23578,0.20804l-0.48545,0.19418l-0.38835,0.09708l-0.49931,0.02774l-1.19281,0.04161l-1.30377,-0.06934l-2.77396,-0.15257l-6.54655,-0.83219" data-paper-data="{&quot;index&quot;:null}" fill="none" stroke="#c63939" stroke-width="0.5" stroke-linecap="round"/><path d="M267.64953,166.55411c0,0 1.13899,1.1529 1.63876,2.39864c0.36931,0.92054 0.34462,2.9031 0.34462,2.9031l-0.05721,0.28606c0,0 -0.07913,0.18671 -0.1022,0.27036c-0.02713,0.09832 -0.05036,0.28269 -0.05036,0.28269c0,0 -0.00627,0.47287 0.07026,1.19546c0.07653,0.72257 0.25195,1.84687 0.25195,1.84687l0.24692,2.48023l0.04844,0.83036l0.0344,1.43033l-0.07608,1.30424l-0.24692,2.48023c0,0 -0.17541,1.12429 -0.25195,1.84687c-0.07653,0.72257 -0.07026,1.19546 -0.07026,1.19546c0,0 0.02324,0.18437 0.05036,0.28269c0.02307,0.08365 0.1022,0.27036 0.1022,0.27036l0.05721,0.28606c0,0 0.0247,1.98256 -0.34462,2.9031c-0.49979,1.24574 -1.63876,2.39864 -1.63876,2.39864" data-paper-data="{&quot;index&quot;:null}" fill="none" stroke="#000000" stroke-width="0.75" stroke-linecap="round"/></g></g></svg>