<svg version="1.1" xmlns="http://www.w3.org/2000/svg" xmlns:xlink="http://www.w3.org/1999/xlink" width="32.1" height="32" viewBox="0,0,32.1,32"><defs><linearGradient x1="240" y1="196" x2="240" y2="164" gradientUnits="userSpaceOnUse" id="color-1"><stop offset="0" stop-color="#ffffff" stop-opacity="0.5"/><stop offset="0.1" stop-color="#ffffff" stop-opacity="0.5"/><stop offset="0.2" stop-color="#ffffff" stop-opacity="0.4"/><stop offset="0.2" stop-color="#ffffff" stop-opacity="0.4"/><stop offset="0.2" stop-color="#ffffff" stop-opacity="0.3"/><stop offset="0.4" stop-color="#f0f0f0" stop-opacity="0.2"/><stop offset="0.6" stop-color="#e3e3e3" stop-opacity="0.1"/><stop offset="0.8" stop-color="#dbdbdb" stop-opacity="0"/><stop offset="1" stop-color="#d9d9d9" stop-opacity="0"/></linearGradient><linearGradient x1="240" y1="196" x2="240" y2="164" gradientUnits="userSpaceOnUse" id="color-2"><stop offset="0" stop-color="#ffffff" stop-opacity="0"/><stop offset="0.4" stop-color="#ffffff" stop-opacity="0.4"/><stop offset="0.7" stop-color="#ffffff" stop-opacity="0.8"/><stop offset="0.9" stop-color="#ffffff"/></linearGradient><linearGradient x1="229.4" y1="171.5" x2="236.8" y2="171.5" gradientUnits="userSpaceOnUse" id="color-3"><stop offset="0" stop-color="#ffffff" stop-opacity="0.9"/><stop offset="1" stop-color="#ffffff" stop-opacity="0.9"/></linearGradient><linearGradient x1="285.32" y1="169.9" x2="295.56" y2="169.9" gradientUnits="userSpaceOnUse" id="color-4"><stop offset="0" stop-color="#ffffff" stop-opacity="0.9"/><stop offset="1" stop-color="#ffffff" stop-opacity="0.9"/></linearGradient></defs><g transform="translate(-224,-164)"><g data-paper-data="{&quot;isPaintingLayer&quot;:true}" fill-rule="nonzero" stroke="none" stroke-width="0" stroke-linecap="butt" stroke-linejoin="miter" stroke-miterlimit="10" stroke-dasharray="" stroke-dashoffset="0" style="mix-blend-mode: normal"><path d="M229.9,196c-3.25848,0 -5.9,-2.64152 -5.9,-5.9v-20.2c0,-3.25848 2.64152,-5.9 5.9,-5.9h20.2c3.25848,0 5.9,2.64152 5.9,5.9v20.2c0,3.25848 -2.64152,5.9 -5.9,5.9z" fill="url(#color-1)"/><path d="M250.2,166.5h-20.3c-1.9,0 -3.4,1.5 -3.4,3.4v20.3c0,1.9 1.5,3.4 3.4,3.4h20.2c1.9,0 3.4,-1.5 3.4,-3.4v-20.3c0,-1.9 -1.5,-3.4 -3.4,-3.4M250.2,164v0c3.3,0 5.9,2.7 5.9,5.9v20.2c0,3.3 -2.7,5.9 -5.9,5.9h-20.3c-3.3,0 -5.9,-2.6 -5.9,-5.8v-20.3c0,-3.3 2.6,-5.9 5.9,-5.9h20.2z" fill="url(#color-2)"/><path d="M250.2,164.8h-20.3c-2.9,0 -5.1,2.2 -5.1,5.1v20.3c0,2.8 2.3,5.1 5.1,5.1h20.2c2.8,0 5.1,-2.3 5.1,-5.1v-20.3c0,-2.8 -2.3,-5.1 -5.1,-5.1M250.2,164v0c3.3,0 5.9,2.7 5.9,5.9v20.2c0,3.3 -2.7,5.9 -5.9,5.9h-20.3c-3.3,0 -5.9,-2.6 -5.9,-5.8v-20.3c0,-3.3 2.6,-5.9 5.9,-5.9h20.2z" fill="#000000"/><path d="M230.2,173.1c-0.44183,0 -0.8,-0.35817 -0.8,-0.8v-1.6c0,-0.44183 0.35817,-0.8 0.8,-0.8h5.8c0.44183,0 0.8,0.35817 0.8,0.8v1.6c0,0.44183 -0.35817,0.8 -0.8,0.8z" fill="url(#color-3)"/><path d="M239.4,173.1c-0.44183,0 -0.8,-0.35817 -0.8,-0.8v-1.6c0,-0.44183 0.35817,-0.8 0.8,-0.8h1.6c0.44183,0 0.8,0.35817 0.8,0.8v1.6c0,0.44183 -0.35817,0.8 -0.8,0.8z" fill="url(#color-4)"/></g></g></svg>