<svg viewBox="0 0 32 32" height="32" width="32" xmlns="http://www.w3.org/2000/svg" id="a"><path stroke-width="0" fill="#1f5691" d="M4,32V0h4v32H4Z"></path><path stroke-width="0" fill="#1f5691" d="M24,32V0h4v32h-4Z"></path><path stroke-width="0" fill="#2566ab" d="M7,8.96v-1.91c0-.58.47-1.04,1.04-1.04h15.91c.58,0,1.04.47,1.04,1.04v1.91c0,.58-.47,1.04-1.04,1.04h-15.91c-.58,0-1.04-.47-1.04-1.04Z"></path><path stroke-width="0" fill="#1b4878" d="M7,8v.96c0,.58.47,1.04,1.04,1.04h15.91c.58,0,1.04-.47,1.04-1.04v-.96H7Z"></path><path stroke-width="0" fill="#255d99" d="M7,24.96v-1.91c0-.58.47-1.04,1.04-1.04h15.91c.58,0,1.04.47,1.04,1.04v1.91c0,.58-.47,1.04-1.04,1.04h-15.91c-.58,0-1.04-.47-1.04-1.04Z"></path><path stroke-width="0" fill="#1b4878" d="M7,24v.96c0,.58.47,1.04,1.04,1.04h15.91c.58,0,1.04-.47,1.04-1.04v-.96H7Z"></path></svg>
