<svg version="1.1" xmlns="http://www.w3.org/2000/svg" xmlns:xlink="http://www.w3.org/1999/xlink" width="106" height="106.5" viewBox="0,0,106,106.5"><g transform="translate(-186.25,-126.33333)"><g data-paper-data="{&quot;isPaintingLayer&quot;:true}" fill-rule="nonzero" stroke-linecap="butt" stroke-linejoin="miter" stroke-miterlimit="10" stroke-dasharray="" stroke-dashoffset="0" style="mix-blend-mode: normal"><path d="M207.50453,180c0,-17.94675 14.54873,-32.49547 32.49547,-32.49547c17.94675,0 32.49547,14.54873 32.49547,32.49547c0,17.94675 -14.54873,32.49547 -32.49547,32.49547c-17.94675,0 -32.49547,-14.54873 -32.49547,-32.49547z" fill="#ffffff" stroke="#000000" stroke-width="4"/><path d="M215.3716,180c0,-13.60189 11.02652,-24.6284 24.6284,-24.6284c13.60189,0 24.6284,11.02652 24.6284,24.6284c0,13.60189 -11.02652,24.6284 -24.6284,24.6284c-13.60189,0 -24.6284,-11.02652 -24.6284,-24.6284z" fill="#fbffbd" stroke="#000000" stroke-width="4"/><path d="M186.25,232.83333v-106.5h106v106.5z" fill="none" stroke="none" stroke-width="0"/></g></g></svg>