<svg viewBox="0 0 32 32" height="32" width="32" xmlns="http://www.w3.org/2000/svg" id="a"><metadata></metadata><path stroke-width="0" d="M3.42,1c-.79,0-1.42.59-1.42,1.32v.13c0,1.55,1.04,3.55,2.52,3.55,1.93,0,1.93-1,3.86-1s1.93,2,3.85,2,1.93-2,3.85-2,1.93,2,3.85,2,1.92-2,3.85-2,1.93,1,3.85,1c1.25,0,2.37-1,2.37-3.42v-.26c0-.73-.64-1.32-1.42-1.32H3.42Z"></path><path stroke-width="0" fill="#a8ff00" d="M19.94,6.5c-1.17,0-1.79-.64-2.29-1.15-.46-.47-.82-.85-1.57-.85s-1.11.37-1.56.85c-.5.51-1.11,1.15-2.29,1.15s-1.79-.64-2.29-1.15c-.46-.47-.82-.85-1.57-.85-.84,0-1.24.21-1.7.44-.5.26-1.07.56-2.16.56-1.87,0-3.02-2.36-3.02-4.05v-.13c0-1,.86-1.82,1.92-1.82h25.16c1.06,0,1.92.82,1.92,1.82v.26c0,2.89-1.48,3.92-2.87,3.92-1.08,0-1.65-.3-2.16-.56-.46-.24-.85-.44-1.69-.44-.75,0-1.11.37-1.56.85-.49.51-1.11,1.15-2.28,1.15Z"></path><path stroke-width="0" d="M28.58,0c.79,0,1.42.59,1.42,1.32v.26c0,2.42-1.12,3.42-2.37,3.42-1.93,0-1.93-1-3.85-1s-1.92,2-3.85,2-1.93-2-3.85-2-1.93,2-3.85,2-1.93-2-3.85-2-1.93,1-3.86,1c-1.49,0-2.52-2-2.52-3.55v-.13c0-.73.64-1.32,1.42-1.32h25.16M28.58-1H3.42C2.09-1,1,.04,1,1.32v.13c0,2.15,1.45,4.55,3.52,4.55,1.21,0,1.86-.34,2.39-.61.43-.23.75-.39,1.47-.39.52,0,.74.21,1.21.69.53.55,1.26,1.31,2.65,1.31s2.12-.76,2.65-1.31c.46-.48.69-.69,1.21-.69s.74.21,1.2.69c.53.55,1.26,1.31,2.65,1.31s2.11-.76,2.64-1.31c.46-.48.69-.69,1.2-.69.72,0,1.03.16,1.46.39.53.27,1.18.61,2.39.61,1.55,0,3.37-1.16,3.37-4.42v-.26c0-1.28-1.09-2.32-2.42-2.32h0Z"></path><rect stroke-width="0" fill="#d4ffb8" ry=".5" rx=".5" height="1" width="4" y="1" x="3"></rect><rect stroke-width="0" fill="#d4ffb8" ry=".5" rx=".5" height="1" width="14" y="1" x="9"></rect><rect stroke-width="0" fill="#d4ffb8" ry=".5" rx=".5" height="1" width="4" y="1" x="25"></rect></svg>