<svg viewBox="0 0 32 32" height="32" width="32" xmlns="http://www.w3.org/2000/svg" id="a"><metadata></metadata><path stroke-width="0" fill="#929292" d="M28.32,15.41H3.61c-.07-.15-.03-.28.11-.37.2-.12.42-.17.65-.2,7.56-.08,15.11-.03,22.67-.03.4,0,.79.02,1.15.21.16.09.2.22.13.38Z"></path><path stroke-width="0" fill="#929292" d="M.79,11.96c-.01-2.71-.03-5.42-.04-8.14C1.45,1.79,2.73.86,4.85.85c7.5,0,14.99,0,22.49,0,.35,0,.72-.07,1.02.18.22.88.87,1.73.18,2.68-.11.07-.23.13-.37.16-.63.13-1.26.09-1.9.09-6.3,0-12.59,0-18.89,0-.44,0-.87,0-1.31,0-1.64.07-2.28.7-2.33,2.29-.07,2,.11,4.01-.1,6.02-.04.14-.1.26-.19.37-1.3.49-1.92.33-2.67-.7Z"></path><path stroke-width="0" fill="#848484" d="M28.56,3.6c0-.79.09-1.57-.49-2.26-.2-.24.14-.25.29-.31,1.55.33,2.49,1.25,2.83,2.76-.01.17-.03.35-.04.52-.88-.18-1.77-.34-2.6-.71Z"></path><path stroke-width="0" fill="#6d6d6d" d="M28.56,3.6c.95-.07,1.87,0,2.6.71.02,2.71.04,5.43.06,8.14-.36,1.49-1.31,2.42-2.84,2.77-7.02-.01-14.05-.02-21.07-.04-1.07,0-2.13-.01-3.2-.02-1.03-.79-1.2-1.41-.73-2.52h0c.57-.47,1.27-.36,1.93-.36,6.51,0,13.03,0,19.54,0,.47,0,.95.02,1.42-.02,1.27-.1,1.85-.65,1.89-1.91.06-1.69,0-3.39.03-5.08,0-.57-.06-1.17.38-1.65h0Z"></path><path stroke-width="0" fill="#838383" d="M3.37,12.64c-.14.95.22,1.76.73,2.52-.17.01-.34.02-.51.03-1.56-.33-2.42-1.34-2.85-2.78.02-.15.03-.31.05-.46.74.67,1.64.76,2.59.68Z"></path><path stroke-width="0" fill="#7f7f7f" d="M28.56,3.6c0,2.28,0,4.55,0,6.83,0,1.41-.81,2.2-2.26,2.2-7.64,0-15.28,0-22.93,0,0-2.19,0-4.39,0-6.58,0-1.67.82-2.45,2.56-2.45,7.54,0,15.09,0,22.63,0Z"></path><path stroke-width="0" d="M28,1.25c1.52,0,2.75,1.23,2.75,2.75v8c0,1.52-1.23,2.75-2.75,2.75H4c-1.52,0-2.75-1.23-2.75-2.75V4c0-1.52,1.23-2.75,2.75-2.75h24M28,0H4C1.79,0,0,1.79,0,4v8C0,14.21,1.79,16,4,16h24c2.21,0,4-1.79,4-4V4c0-2.21-1.79-4-4-4h0Z"></path><path stroke-width="0" fill="#929292" d="M28.32,31.41H3.61c-.07-.15-.03-.28.11-.37.2-.12.42-.17.65-.2,7.56-.08,15.11-.03,22.67-.03.4,0,.79.02,1.15.21.16.09.2.22.13.38Z"></path><path stroke-width="0" fill="#929292" d="M.79,27.96c-.01-2.71-.03-5.42-.04-8.14.71-2.03,1.99-2.96,4.11-2.97,7.5,0,14.99,0,22.49,0,.35,0,.72-.07,1.02.18.22.88.87,1.73.18,2.68-.11.07-.23.13-.37.16-.63.13-1.26.09-1.9.09-6.3,0-12.59,0-18.89,0-.44,0-.87,0-1.31,0-1.64.07-2.28.7-2.33,2.29-.07,2,.11,4.01-.1,6.02-.04.14-.1.26-.19.37-1.3.49-1.92.33-2.67-.7Z"></path><path stroke-width="0" fill="#848484" d="M28.56,19.6c0-.79.09-1.57-.49-2.26-.2-.24.14-.25.29-.31,1.55.33,2.49,1.25,2.83,2.76-.01.17-.03.35-.04.52-.88-.18-1.77-.34-2.6-.71Z"></path><path stroke-width="0" fill="#6d6d6d" d="M28.56,19.6c.95-.07,1.87,0,2.6.71.02,2.71.04,5.43.06,8.14-.36,1.49-1.31,2.42-2.84,2.77-7.02-.01-14.05-.02-21.07-.04-1.07,0-2.13-.01-3.2-.02-1.03-.79-1.2-1.41-.73-2.52h0c.57-.47,1.27-.36,1.93-.36,6.51,0,13.03,0,19.54,0,.47,0,.95.02,1.42-.02,1.27-.1,1.85-.65,1.89-1.91.06-1.69,0-3.39.03-5.08,0-.57-.06-1.17.38-1.65h0Z"></path><path stroke-width="0" fill="#838383" d="M3.37,28.64c-.14.95.22,1.76.73,2.52-.17.01-.34.02-.51.03-1.56-.33-2.42-1.34-2.85-2.78.02-.15.03-.31.05-.46.74.67,1.64.76,2.59.68Z"></path><path stroke-width="0" fill="#7f7f7f" d="M28.56,19.6c0,2.28,0,4.55,0,6.83,0,1.41-.81,2.2-2.26,2.2-7.64,0-15.28,0-22.93,0,0-2.19,0-4.39,0-6.58,0-1.67.82-2.45,2.56-2.45,7.54,0,15.09,0,22.63,0Z"></path><path stroke-width="0" d="M28,17.25c1.52,0,2.75,1.23,2.75,2.75v8c0,1.52-1.23,2.75-2.75,2.75H4c-1.52,0-2.75-1.23-2.75-2.75v-8c0-1.52,1.23-2.75,2.75-2.75h24M28,16H4C1.79,16,0,17.79,0,20v8C0,30.21,1.79,32,4,32h24c2.21,0,4-1.79,4-4v-8c0-2.21-1.79-4-4-4h0Z"></path></svg>