<svg viewBox="0 0 32 32" height="32" width="32" xmlns="http://www.w3.org/2000/svg" id="a"><metadata></metadata><defs><style>.b{fill:#2f77b2;}.b,.c{stroke-width:0px;}.c{fill:#1682bf;}</style></defs><polygon points="18 18 18 16 17 16 15 16 14 16 14 18 15 18 15 22 14 22 14 26 15 26 15 30 14 30 14 32 15 32 17 32 18 32 18 30 17 30 17 26 18 26 18 22 17 22 17 18 18 18" class="b"></polygon><path d="M17,12.62H0v6.75h17c1.86,0,3.38-1.51,3.38-3.38s-1.51-3.38-3.38-3.38Z" class="c"></path><path d="M17,12H0v1.25h17c1.52,0,2.75,1.23,2.75,2.75s-1.23,2.75-2.75,2.75H0v1.25h17c2.21,0,4-1.79,4-4s-1.79-4-4-4Z" class="b"></path></svg>