<svg viewBox="0 0 32 32" height="32" width="32" xmlns="http://www.w3.org/2000/svg" id="a"><metadata></metadata><path stroke-width="0" opacity=".25" d="M23.83,22.14c.21-.34.4-.7.56-1.08s.27-.77.37-1.16l-1.74-1.09c.07-.55.07-1.09,0-1.63l1.74-1.09c-.19-.79-.51-1.55-.93-2.24l-2,.46c-.33-.43-.71-.82-1.15-1.15l.46-2c-.34-.21-.7-.4-1.08-.56s-.77-.27-1.16-.37l-1.09,1.74c-.55-.07-1.09-.07-1.63,0l-1.09-1.74c-.79.19-1.55.51-2.24.93l.46,2c-.43.33-.82.71-1.15,1.15l-2-.46c-.21.34-.4.7-.56,1.08s-.27.77-.37,1.16l1.74,1.09c-.07.55-.07,1.09,0,1.63l-1.74,1.09c.19.79.51,1.55.93,2.24l2-.46c.33.43.71.82,1.15,1.15l-.46,2c.34.21.7.4,1.08.56s.77.27,1.16.37l1.09-1.74c.55.07,1.09.07,1.63,0l1.09,1.74c.79-.19,1.55-.51,2.24-.93l-.46-2c.43-.33.82-.71,1.15-1.15l2,.46Z"></path><path stroke-width="1.25" stroke="#000" fill="#ccc" d="M22.83,20.14c.21-.34.4-.7.56-1.08s.27-.77.37-1.16l-1.74-1.09c.07-.55.07-1.09,0-1.63l1.74-1.09c-.19-.79-.51-1.55-.93-2.24l-2,.46c-.33-.43-.71-.82-1.15-1.15l.46-2c-.34-.21-.7-.4-1.08-.56s-.77-.27-1.16-.37l-1.09,1.74c-.55-.07-1.09-.07-1.63,0l-1.09-1.74c-.79.19-1.55.51-2.24.93l.46,2c-.43.33-.82.71-1.15,1.15l-2-.46c-.21.34-.4.7-.56,1.08s-.27.77-.37,1.16l1.74,1.09c-.07.55-.07,1.09,0,1.63l-1.74,1.09c.19.79.51,1.55.93,2.24l2-.46c.33.43.71.82,1.15,1.15l-.46,2c.34.21.7.4,1.08.56s.77.27,1.16.37l1.09-1.74c.55.07,1.09.07,1.63,0l1.09,1.74c.79-.19,1.55-.51,2.24-.93l-.46-2c.43-.33.82-.71,1.15-1.15l2,.46Z"></path><circle stroke-width="1.25" stroke="#000" fill="#606060" r="2.8" cy="16" cx="16"></circle><circle stroke-width="0" fill="#f9ff00" r="1.6" cy="16" cx="16"></circle></svg>