<svg viewBox="0 0 32 32" height="32" width="32" xmlns="http://www.w3.org/2000/svg" id="a"><metadata></metadata><path stroke-width="0" opacity=".25" d="M24.67,20.24c.11-.39.21-.78.26-1.19s.07-.82.06-1.22l-1.96-.6c-.07-.55-.21-1.07-.42-1.57l1.4-1.5c-.39-.71-.89-1.36-1.48-1.93l-1.81.97c-.43-.33-.9-.6-1.41-.81l-.07-2.05c-.39-.11-.78-.21-1.19-.26s-.82-.07-1.22-.06l-.6,1.96c-.55.07-1.07.21-1.57.42l-1.5-1.4c-.71.39-1.36.89-1.93,1.48l.97,1.81c-.33.43-.6.9-.81,1.41l-2.05.07c-.11.39-.21.78-.26,1.19s-.07.82-.06,1.22l1.96.6c.07.55.21,1.07.42,1.57l-1.4,1.5c.39.71.89,1.36,1.48,1.93l1.81-.97c.43.33.9.6,1.41.81l.07,2.05c.39.11.78.21,1.19.26s.82.07,1.22.06l.6-1.96c.55-.07,1.07-.21,1.57-.42l1.5,1.4c.71-.39,1.36-.89,1.93-1.48l-.97-1.81c.33-.43.6-.9.81-1.41l2.05-.07Z"></path><path stroke-width="1.25" stroke="#000" fill="#ccc" d="M23.67,18.24c.11-.39.21-.78.26-1.19s.07-.82.06-1.22l-1.96-.6c-.07-.55-.21-1.07-.42-1.57l1.4-1.5c-.39-.71-.89-1.36-1.48-1.93l-1.81.97c-.43-.33-.9-.6-1.41-.81l-.07-2.05c-.39-.11-.78-.21-1.19-.26s-.82-.07-1.22-.06l-.6,1.96c-.55.07-1.07.21-1.57.42l-1.5-1.4c-.71.39-1.36.89-1.93,1.48l.97,1.81c-.33.43-.6.9-.81,1.41l-2.05.07c-.11.39-.21.78-.26,1.19s-.07.82-.06,1.22l1.96.6c.07.55.21,1.07.42,1.57l-1.4,1.5c.39.71.89,1.36,1.48,1.93l1.81-.97c.43.33.9.6,1.41.81l.07,2.05c.39.11.78.21,1.19.26s.82.07,1.22.06l.6-1.96c.55-.07,1.07-.21,1.57-.42l1.5,1.4c.71-.39,1.36-.89,1.93-1.48l-.97-1.81c.33-.43.6-.9.81-1.41l2.05-.07Z"></path><circle stroke-width="1.25" stroke="#000" fill="#606060" r="2.8" cy="16" cx="16"></circle><circle stroke-width="0" fill="#f9ff00" r="1.6" cy="16" cx="16"></circle></svg>