<svg viewBox="0 0 32 32" height="32" width="32" xmlns="http://www.w3.org/2000/svg" id="a"><metadata></metadata><path stroke-width="0" opacity=".25" d="M24.9,19.21c.06-.4.1-.8.1-1.21s-.04-.82-.1-1.21l-2.03-.34c-.14-.53-.35-1.04-.62-1.5l1.19-1.67c-.48-.66-1.06-1.24-1.72-1.72l-1.67,1.19c-.47-.27-.97-.48-1.5-.62l-.34-2.03c-.4-.06-.8-.1-1.21-.1s-.82.04-1.21.1l-.34,2.03c-.53.14-1.04.35-1.5.62l-1.67-1.19c-.66.48-1.24,1.06-1.72,1.72l1.19,1.67c-.27.47-.48.97-.62,1.5l-2.03.34c-.06.4-.1.8-.1,1.21s.04.82.1,1.21l2.03.34c.14.53.35,1.04.62,1.5l-1.19,1.67c.48.66,1.06,1.24,1.72,1.72l1.67-1.19c.47.27.97.48,1.5.62l.34,2.03c.4.06.8.1,1.21.1s.82-.04,1.21-.1l.34-2.03c.53-.14,1.04-.35,1.5-.62l1.67,1.19c.66-.48,1.24-1.06,1.72-1.72l-1.19-1.67c.27-.47.48-.97.62-1.5l2.03-.34Z"></path><path stroke-width="1.25" stroke="#000" fill="#ccc" d="M23.9,17.21c.06-.4.1-.8.1-1.21s-.04-.82-.1-1.21l-2.03-.34c-.14-.53-.35-1.04-.62-1.5l1.19-1.67c-.48-.66-1.06-1.24-1.72-1.72l-1.67,1.19c-.47-.27-.97-.48-1.5-.62l-.34-2.03c-.4-.06-.8-.1-1.21-.1s-.82.04-1.21.1l-.34,2.03c-.53.14-1.04.35-1.5.62l-1.67-1.19c-.66.48-1.24,1.06-1.72,1.72l1.19,1.67c-.27.47-.48.97-.62,1.5l-2.03.34c-.06.4-.1.8-.1,1.21s.04.82.1,1.21l2.03.34c.14.53.35,1.04.62,1.5l-1.19,1.67c.48.66,1.06,1.24,1.72,1.72l1.67-1.19c.47.27.97.48,1.5.62l.34,2.03c.4.06.8.1,1.21.1s.82-.04,1.21-.1l.34-2.03c.53-.14,1.04-.35,1.5-.62l1.67,1.19c.66-.48,1.24-1.06,1.72-1.72l-1.19-1.67c.27-.47.48-.97.62-1.5l2.03-.34Z"></path><circle stroke-width="1.25" stroke="#000" fill="#606060" r="2.8" cy="16" cx="16"></circle><circle stroke-width="0" fill="#f9ff00" r="1.6" cy="16" cx="16"></circle></svg>