<svg version="1.1" xmlns="http://www.w3.org/2000/svg" xmlns:xlink="http://www.w3.org/1999/xlink" width="515.54869" height="319.06656" viewBox="0,0,515.54869,319.06656"><g transform="translate(17.5487,-22)"><g data-paper-data="{&quot;isPaintingLayer&quot;:true}" fill-rule="nonzero" stroke-linecap="butt" stroke-linejoin="miter" stroke-miterlimit="10" stroke-dasharray="" stroke-dashoffset="0" style="mix-blend-mode: normal"><path d="M-7.54869,339.06656v-93h106v93z" fill="#ffffff" stroke="#000000" stroke-width="4"/><path d="M-7.54869,120.06656v-93h106v93z" fill="#ffffff" stroke="#000000" stroke-width="4"/><path d="M-15.54869,229.06656v-93h90v93z" fill="#ffffff" stroke="#000000" stroke-width="4"/><path d="M-4.7987,322.06656v-56h35.5v56z" fill="#ff0000" stroke="none" stroke-width="0"/><path d="M-5.7987,118.06656v-33h47.5v33z" fill="#ff0000" stroke="none" stroke-width="0"/><path d="M34.67282,83.99334l-7.77817,-46.77818l46.77818,7.77817z" fill="#00e6ff" stroke="none" stroke-width="0"/><path d="M40.03069,65.20044l14.14214,-14.14214l14.14214,14.14214l-14.14214,14.14214z" fill="#00e6ff" stroke="none" stroke-width="0"/><path d="M59.19735,84.36711l14.14214,-14.14214l14.14214,14.14214l-14.14214,14.14214z" fill="#00e6ff" stroke="none" stroke-width="0"/><path d="M48.28463,210.14373l-38.57716,-27.57717l38.57716,-27.57716z" fill="#00e6ff" stroke="none" stroke-width="0"/><path d="M70.78463,321.14373l-38.57716,-27.57717l38.57716,-27.57717z" fill="#00e6ff" stroke="none" stroke-width="0"/><path d="M39.11796,193.06656v-20h26v20z" fill="#00e6ff" stroke="none" stroke-width="0"/><path d="M61.61796,304.06656v-20h26v20z" fill="#00e6ff" stroke="none" stroke-width="0"/><path d="M382,336v-93h106v93z" fill="#ffffff" stroke="#000000" stroke-width="4"/><path d="M382,117v-93h106v93z" fill="#ffffff" stroke="#000000" stroke-width="4"/><path d="M406,226v-93h90v93z" fill="#ffffff" stroke="#000000" stroke-width="4"/><path d="M449.75001,319v-56h35.5v56z" fill="#ff0000" stroke="none" stroke-width="0"/><path d="M438.75001,115v-33h47.5v33z" fill="#ff0000" stroke="none" stroke-width="0"/><path d="M406.77848,41.92678l46.77818,-7.77817l-7.77817,46.77818z" fill="#00e6ff" stroke="none" stroke-width="0"/><path d="M426.27848,76.27602l-14.14214,-14.14214l14.14214,-14.14214l14.14214,14.14214z" fill="#00e6ff" stroke="none" stroke-width="0"/><path d="M407.11182,95.44268l-14.14214,-14.14214l14.14214,-14.14214l14.14214,14.14214z" fill="#00e6ff" stroke="none" stroke-width="0"/><path d="M432.16668,151.92284l38.57716,27.57716l-38.57716,27.57717z" fill="#00e6ff" stroke="none" stroke-width="0"/><path d="M409.66668,262.92283l38.57716,27.57717l-38.57716,27.57717z" fill="#00e6ff" stroke="none" stroke-width="0"/><path d="M415.33334,190v-20h26v20z" fill="#00e6ff" stroke="none" stroke-width="0"/><path d="M392.83334,301v-20h26v20z" fill="#00e6ff" stroke="none" stroke-width="0"/></g></g></svg>