<svg version="1.1" xmlns="http://www.w3.org/2000/svg" xmlns:xlink="http://www.w3.org/1999/xlink" width="470" height="352" viewBox="0,0,470,352"><g transform="translate(-5,-5)"><g data-paper-data="{&quot;isPaintingLayer&quot;:true}" fill-rule="nonzero" stroke-linecap="butt" stroke-linejoin="miter" stroke-miterlimit="10" stroke-dasharray="" stroke-dashoffset="0" style="mix-blend-mode: normal"><path d="M220,11c0,-2.20914 1.791,-4 4,-4h33c2.209,0 4,1.79086 4,4v33c0,2.2091 -1.791,4 -4,4h-33c-2.209,0 -4,-1.7909 -4,-4z" fill-opacity="0.5" fill="#222222" stroke="none" stroke-width="1"/><path d="M220,320c0,-2.209 1.791,-4 4,-4h33c2.209,0 4,1.791 4,4v33c0,2.209 -1.791,4 -4,4h-33c-2.209,0 -4,-1.791 -4,-4z" fill-opacity="0.5" fill="#222222" stroke="none" stroke-width="1"/><path d="M5,166c0,-2.209 1.79086,-4 4,-4h33c2.2091,0 4,1.791 4,4v33c0,2.209 -1.7909,4 -4,4h-33c-2.20914,0 -4,-1.791 -4,-4z" fill-opacity="0.5" fill="#222222" stroke="none" stroke-width="1"/><path d="M5,84c0,-2.2091 1.79086,-4 4,-4h33c2.2091,0 4,1.7909 4,4v33c0,2.209 -1.7909,4 -4,4h-33c-2.20914,0 -4,-1.791 -4,-4z" fill-opacity="0.5" fill="#222222" stroke="none" stroke-width="1"/><path d="M5,248c0,-2.209 1.79086,-4 4,-4h33c2.2091,0 4,1.791 4,4v33c0,2.209 -1.7909,4 -4,4h-33c-2.20914,0 -4,-1.791 -4,-4z" fill-opacity="0.5" fill="#222222" stroke="none" stroke-width="1"/><path d="M475,203c0,2.209 -1.791,4 -4,4h-33c-2.209,0 -4,-1.791 -4,-4v-33c0,-2.209 1.791,-4 4,-4h33c2.209,0 4,1.791 4,4z" fill-opacity="0.5" fill="#222222" stroke="none" stroke-width="1"/><path d="M475,121c0,2.209 -1.791,4 -4,4h-33c-2.209,0 -4,-1.791 -4,-4v-33c0,-2.2091 1.791,-4 4,-4h33c2.209,0 4,1.7909 4,4z" fill-opacity="0.5" fill="#222222" stroke="none" stroke-width="1"/><path d="M475,285c0,2.209 -1.791,4 -4,4h-33c-2.209,0 -4,-1.791 -4,-4v-33c0,-2.209 1.791,-4 4,-4h33c2.209,0 4,1.791 4,4z" fill-opacity="0.5" fill="#222222" stroke="none" stroke-width="1"/><path d="M220,9c0,-2.20914 1.791,-4 4,-4h33c2.209,0 4,1.79086 4,4v33c0,2.2091 -1.791,4 -4,4h-33c-2.209,0 -4,-1.7909 -4,-4z" fill="#222222" stroke="none" stroke-width="1"/><path d="M240.825,31.575c0,0.3463 -0.12,0.6484 -0.361,0.8893c-0.241,0.2408 -0.543,0.3607 -0.889,0.3607c-0.346,0 -0.648,-0.1199 -0.889,-0.3607c-0.241,-0.2409 -0.361,-0.543 -0.361,-0.8893v-10.5714l-4.448,4.4482c-0.246,0.2454 -0.546,0.3732 -0.889,0.3732c-0.344,0 -0.644,-0.1278 -0.89,-0.3732l-0.007,-0.0077v-0.0002c-0.227,-0.2468 -0.341,-0.5448 -0.341,-0.8814c0,-0.3368 0.115,-0.631 0.348,-0.8643l6.6,-6.6c0.123,-0.1224 0.262,-0.2154 0.418,-0.2711c0.146,-0.0521 0.299,-0.0771 0.459,-0.0771c0.16,0 0.313,0.025 0.459,0.0771c0.156,0.0557 0.295,0.1487 0.418,0.2711l6.6,6.6c0.245,0.2455 0.371,0.5444 0.36,0.8846c-0.01,0.3276 -0.13,0.6178 -0.353,0.8611l-0.007,0.008v-0.0001c-0.242,0.242 -0.535,0.3751 -0.869,0.3856c-0.34,0.0106 -0.639,-0.1151 -0.885,-0.3606l-4.473,-4.4732z" fill="#00e6ff" stroke="#00e6ff" stroke-width="0.5"/><path d="M220,318c0,-2.209 1.791,-4 4,-4h33c2.209,0 4,1.791 4,4v33c0,2.209 -1.791,4 -4,4h-33c-2.209,0 -4,-1.791 -4,-4z" fill="#222222" stroke="none" stroke-width="1"/><path d="M247.412,334.992c0.011,0.34 -0.115,0.639 -0.36,0.885l-6.6,6.6c-0.123,0.122 -0.262,0.215 -0.418,0.271c-0.146,0.052 -0.299,0.077 -0.459,0.077c-0.16,0 -0.313,-0.025 -0.459,-0.077c-0.156,-0.056 -0.295,-0.149 -0.418,-0.271l-6.6,-6.6c-0.233,-0.233 -0.348,-0.528 -0.348,-0.864c0,-0.337 0.114,-0.635 0.341,-0.882l0.007,-0.008v0c0.246,-0.245 0.546,-0.373 0.89,-0.373c0.343,0 0.643,0.128 0.889,0.373l4.448,4.448v-10.571c0,-0.346 0.12,-0.648 0.361,-0.889c0.241,-0.241 0.543,-0.361 0.889,-0.361c0.346,0 0.648,0.12 0.889,0.361c0.241,0.241 0.361,0.543 0.361,0.889v10.571l4.473,-4.473c0.246,-0.245 0.545,-0.371 0.885,-0.36c0.334,0.01 0.627,0.143 0.869,0.385l0.007,0.008v0c0.223,0.243 0.343,0.534 0.353,0.861z" fill="#00e6ff" stroke="#00e6ff" stroke-width="0.5"/><path d="M5,164c0,-2.209 1.79086,-4 4,-4h33c2.2091,0 4,1.791 4,4v33c0,2.209 -1.7909,4 -4,4h-33c-2.20914,0 -4,-1.791 -4,-4z" fill="#222222" stroke="none" stroke-width="1"/><path d="M24.5828,187.412c-0.3402,0.011 -0.6391,-0.115 -0.8846,-0.36l-6.6,-6.6c-0.1224,-0.123 -0.2154,-0.262 -0.2711,-0.418c-0.052,-0.146 -0.0771,-0.299 -0.0771,-0.459c0,-0.16 0.0251,-0.313 0.0771,-0.459c0.0557,-0.156 0.1487,-0.295 0.2711,-0.418l6.6,-6.6c0.2333,-0.233 0.5275,-0.348 0.8643,-0.348c0.3366,0 0.6346,0.114 0.8814,0.341l0.008,0.007h-0.0001c0.2454,0.246 0.3732,0.546 0.3732,0.889c0,0.344 -0.1278,0.644 -0.3732,0.89l-4.4482,4.448h10.5714c0.3463,0 0.6484,0.12 0.8893,0.361c0.2408,0.241 0.3607,0.543 0.3607,0.889c0,0.346 -0.1199,0.648 -0.3607,0.889c-0.2409,0.241 -0.543,0.361 -0.8893,0.361h-10.5714l4.4732,4.473c0.2455,0.246 0.3712,0.545 0.3606,0.885c-0.0105,0.334 -0.1436,0.627 -0.3856,0.869l-0.0077,0.007h-0.0002c-0.2433,0.223 -0.5335,0.343 -0.8611,0.353z" fill="#00e6ff" stroke="#00e6ff" stroke-width="0.5"/><path d="M5,82c0,-2.2091 1.79086,-4 4,-4h33c2.2091,0 4,1.7909 4,4v33c0,2.209 -1.7909,4 -4,4h-33c-2.20914,0 -4,-1.791 -4,-4z" fill="#222222" stroke="none" stroke-width="1"/><path d="M24.559,92.3795c-0.2253,-0.2117 -0.3364,-0.4847 -0.3364,-0.7988v-8.2421c0,-0.1566 0.0295,-0.3059 0.0943,-0.4426c0.06,-0.1267 0.1423,-0.241 0.2443,-0.343c0.1019,-0.1019 0.2162,-0.1842 0.3429,-0.2442c0.1367,-0.0648 0.286,-0.0944 0.4426,-0.0944h8.2421c0.2996,0 0.5623,0.1154 0.7778,0.3308c0.2152,0.2153 0.333,0.4798 0.3461,0.7825l0.0005,0.0109h-0.0002c0,0.314 -0.1108,0.5889 -0.3308,0.809c-0.2201,0.2201 -0.4951,0.3308 -0.809,0.3308h-5.4844l10.2,10.2c0.2215,0.2214 0.3386,0.4922 0.3386,0.8011c0,0.309 -0.1171,0.5798 -0.3386,0.8012c-0.2214,0.2214 -0.4922,0.3386 -0.8011,0.3386c-0.309,0 -0.5798,-0.1172 -0.8012,-0.3386l-10.2,-10.2v5.5156c0,0.3141 -0.1111,0.5871 -0.3364,0.7988c-0.221,0.2076 -0.4942,0.3097 -0.8034,0.3097h-0.0108v-0.0002c-0.2981,-0.013 -0.5608,-0.1221 -0.7769,-0.3251z" fill="#00e6ff" stroke="#00e6ff" stroke-width="0.5"/><path d="M9,97c0,-1.1046 0.89543,-2 2,-2h16c1.1046,0 2,0.8954 2,2v16c0,1.105 -0.8954,2 -2,2h-16c-1.10457,0 -2,-0.895 -2,-2z" fill="#ff0000" stroke="none" stroke-width="1"/><path d="M5,246c0,-2.209 1.79086,-4 4,-4h33c2.2091,0 4,1.791 4,4v33c0,2.209 -1.7909,4 -4,4h-33c-2.20914,0 -4,-1.791 -4,-4z" fill="#222222" stroke="none" stroke-width="1"/><path d="M34.8164,268.249c-0.3091,0.01 -0.583,-0.099 -0.8092,-0.315l-5.9326,-5.659c-0.1127,-0.107 -0.1999,-0.231 -0.2525,-0.371c-0.0487,-0.13 -0.0721,-0.267 -0.0721,-0.41c0,-0.142 0.0234,-0.279 0.0721,-0.409c0.0526,-0.14 0.1398,-0.264 0.2525,-0.372l5.9326,-5.658c0.2155,-0.206 0.4851,-0.305 0.7906,-0.305c0.3053,0 0.5779,0.099 0.805,0.298l0.0081,0.007h-0.0002c0.2263,0.216 0.3472,0.484 0.3472,0.792c0,0.308 -0.1209,0.576 -0.3472,0.791l-3.9302,3.749h9.4206c0.314,0 0.5908,0.104 0.813,0.316c0.2229,0.212 0.3359,0.482 0.3359,0.791c0,0.31 -0.113,0.58 -0.3359,0.792c-0.2222,0.212 -0.499,0.316 -0.813,0.316h-9.4206l3.9527,3.77c0.2263,0.216 0.3458,0.483 0.3358,0.789c-0.0099,0.3 -0.1356,0.561 -0.3582,0.773l-0.0079,0.007h-0.0001c-0.2237,0.196 -0.489,0.3 -0.7864,0.308z" fill="#00e6ff" stroke="#00e6ff" stroke-width="0.5"/><path d="M9,255c0,-1.105 0.89543,-2 2,-2h13c1.1046,0 2,0.895 2,2v14c0,1.105 -0.8954,2 -2,2h-13c-1.10457,0 -2,-0.895 -2,-2z" fill="#ff0000" stroke="none" stroke-width="1"/><path d="M475,201c0,2.209 -1.791,4 -4,4h-33c-2.209,0 -4,-1.791 -4,-4v-33c0,-2.209 1.791,-4 4,-4h33c2.209,0 4,1.791 4,4z" fill="#222222" stroke="none" stroke-width="1"/><path d="M454.556,191.059v0l-0.008,-0.007c-0.242,-0.242 -0.375,-0.535 -0.385,-0.869c-0.011,-0.34 0.115,-0.639 0.36,-0.885l4.473,-4.473h-10.571c-0.346,0 -0.648,-0.12 -0.889,-0.361c-0.241,-0.241 -0.361,-0.543 -0.361,-0.889c0,-0.346 0.12,-0.648 0.361,-0.889c0.241,-0.241 0.543,-0.361 0.889,-0.361h10.571l-4.448,-4.448c-0.245,-0.246 -0.373,-0.546 -0.373,-0.89c0,-0.343 0.128,-0.643 0.373,-0.889v0l0.008,-0.007c0.247,-0.227 0.545,-0.341 0.882,-0.341c0.336,0 0.63,0.115 0.864,0.348l6.6,6.6c0.122,0.123 0.215,0.262 0.271,0.418c0.052,0.146 0.077,0.299 0.077,0.459c0,0.16 -0.025,0.313 -0.077,0.459c-0.056,0.156 -0.149,0.295 -0.271,0.418l-6.6,6.6c-0.246,0.245 -0.545,0.371 -0.885,0.36c-0.327,-0.01 -0.618,-0.13 -0.861,-0.353z" fill="#00e6ff" stroke="#00e6ff" stroke-width="0.5"/><path d="M475,119c0,2.209 -1.791,4 -4,4h-33c-2.209,0 -4,-1.791 -4,-4v-33c0,-2.2091 1.791,-4 4,-4h33c2.209,0 4,1.7909 4,4z" fill="#222222" stroke="none" stroke-width="1"/><path d="M454.664,96.7046v0.0002h-0.011c-0.309,0 -0.582,-0.1021 -0.803,-0.3097c-0.225,-0.2117 -0.337,-0.4847 -0.337,-0.7988v-5.5156l-10.199,10.2003c-0.222,0.221 -0.493,0.338 -0.802,0.338c-0.309,0 -0.579,-0.117 -0.801,-0.338c-0.221,-0.222 -0.338,-0.4925 -0.338,-0.8015c0,-0.3089 0.117,-0.5797 0.338,-0.8011l10.2,-10.2h-5.484c-0.314,0 -0.589,-0.1107 -0.809,-0.3308c-0.22,-0.2201 -0.331,-0.495 -0.331,-0.809v0v-0.0109c0.013,-0.3027 0.131,-0.5672 0.346,-0.7825c0.216,-0.2154 0.479,-0.3308 0.778,-0.3308h8.242c0.157,0 0.306,0.0296 0.443,0.0944c0.127,0.06 0.241,0.1423 0.343,0.2442c0.102,0.102 0.184,0.2163 0.244,0.343c0.065,0.1367 0.094,0.286 0.094,0.4426v8.2421c0,0.3141 -0.111,0.5871 -0.336,0.7988c-0.216,0.203 -0.479,0.3121 -0.777,0.3251z" fill="#00e6ff" stroke="#00e6ff" stroke-width="0.5"/><path d="M471,117c0,1.105 -0.895,2 -2,2h-16c-1.105,0 -2,-0.895 -2,-2v-16c0,-1.1046 0.895,-2 2,-2h16c1.105,0 2,0.8954 2,2z" fill="#ff0000" stroke="none" stroke-width="1"/><path d="M475,283c0,2.209 -1.791,4 -4,4h-33c-2.209,0 -4,-1.791 -4,-4v-33c0,-2.209 1.791,-4 4,-4h33c2.209,0 4,1.791 4,4z" fill="#222222" stroke="none" stroke-width="1"/><path d="M444.397,271.941v0l-0.008,-0.007c-0.222,-0.212 -0.348,-0.473 -0.358,-0.773c-0.01,-0.306 0.109,-0.573 0.336,-0.789l3.952,-3.77h-9.42c-0.314,0 -0.591,-0.104 -0.813,-0.316c-0.223,-0.212 -0.336,-0.482 -0.336,-0.792c0,-0.309 0.113,-0.579 0.336,-0.791c0.222,-0.212 0.499,-0.316 0.813,-0.316h9.42l-3.93,-3.749c-0.226,-0.215 -0.347,-0.483 -0.347,-0.791c0,-0.308 0.121,-0.576 0.347,-0.792v0l0.008,-0.007c0.227,-0.199 0.5,-0.298 0.805,-0.298c0.306,0 0.575,0.099 0.791,0.305l5.932,5.658c0.113,0.108 0.2,0.232 0.253,0.372c0.049,0.13 0.072,0.267 0.072,0.409c0,0.143 -0.023,0.28 -0.072,0.41c-0.053,0.14 -0.14,0.264 -0.253,0.371l-5.932,5.659c-0.226,0.216 -0.5,0.325 -0.809,0.315c-0.298,-0.008 -0.563,-0.112 -0.787,-0.308z" fill="#00e6ff" stroke="#00e6ff" stroke-width="0.5"/><path d="M471,273c0,1.105 -0.895,2 -2,2h-13c-1.105,0 -2,-0.895 -2,-2v-14c0,-1.105 0.895,-2 2,-2h13c1.105,0 2,0.895 2,2z" fill="#ff0000" stroke="none" stroke-width="1"/></g></g></svg>