<svg viewBox="0 0 32 32" xmlns:xlink="http://www.w3.org/1999/xlink" height="32" width="32" xmlns="http://www.w3.org/2000/svg" id="a"><metadata></metadata><defs><style>.d{fill:url(#c);}.d,.e,.f{stroke-width:0px;}.f{fill:url(#b);}</style><linearGradient gradientUnits="userSpaceOnUse" y2="0" x2="16" y1="32" x1="16" id="b"><stop stop-color="#000" offset="0"></stop><stop stop-color="#383838" offset="1"></stop></linearGradient><linearGradient gradientUnits="userSpaceOnUse" y2="31.4" x2="16" y1=".6" x1="16" id="c"><stop stop-opacity="0" stop-color="#000" offset=".8"></stop><stop stop-opacity=".2" stop-color="#000" offset="1"></stop></linearGradient></defs><rect ry="6.7" rx="6.7" height="32" width="32" x="0" class="f"></rect><path d="M6.7.6h18.7c3.3,0,6,2.7,6,6v18.7c0,3.3-2.7,6-6,6H6.7c-3.3,0-6-2.7-6-6V6.7C.6,3.3,3.3.6,6.7.6Z" class="d"></path><path d="M25.3,1.2c3,0,5.4,2.4,5.4,5.4v18.7c0,3-2.4,5.4-5.4,5.4H6.7c-3,0-5.4-2.4-5.4-5.4V6.7C1.3,3.7,3.7,1.2,6.7,1.2h18.7M25.3,0H6.7C3,0,0,3,0,6.7v18.7C0,29,3,32,6.7,32h18.7c3.7,0,6.7-3,6.7-6.7V6.7c0-3.7-3-6.7-6.7-6.7h0Z" class="e"></path><path d="M13.9.8L.8,14v-2.8L11.2.8h2.8s0,0,0,0ZM20.5,31.2l10.8-10.8v-2.8l-13.6,13.6h2.8ZM20.4.8L.8,20.4v2.8L23.3.8h-2.8ZM28.7,1.8L1.8,28.7c.4.6.9,1,1.4,1.4L30.1,3.2c-.4-.5-.9-1-1.4-1.4ZM8.4,31.2h2.8L31.3,11.2v-2.8L8.4,31.2Z" class="e"></path></svg>