<svg version="1.1" xmlns="http://www.w3.org/2000/svg" xmlns:xlink="http://www.w3.org/1999/xlink" width="48" height="51" viewBox="0,0,48,51"><g transform="translate(-216,-154.5)"><g data-paper-data="{&quot;isPaintingLayer&quot;:true}" fill-rule="nonzero" stroke="none" stroke-width="1" stroke-linecap="butt" stroke-linejoin="miter" stroke-miterlimit="10" stroke-dasharray="" stroke-dashoffset="0" style="mix-blend-mode: normal"><path d="M216,181.5c0,-13.25483 10.74517,-24 24,-24c13.25483,0 24,10.74517 24,24c0,13.25483 -10.74517,24 -24,24c-13.25483,0 -24,-10.74517 -24,-24z" fill="#1365a0" opacity="0.98"/><path d="M216,178.5c0,-13.25483 10.74517,-24 24,-24c13.25483,0 24,10.74517 24,24c0,13.25483 -10.74517,24 -24,24c-13.25483,0 -24,-10.74517 -24,-24z" fill="#1d99f3" opacity="0.98"/><path d="M253.05,174.15c0.72,1.68 1.08,3.42 1.14,5.22c0,1.83 -0.36,3.6 -1.08,5.25c-0.72,1.68 -1.68,3.12 -2.88,4.32c-1.23,1.2 -2.67,2.16 -4.32,2.88c-1.68,0.72 -3.42,1.08 -5.25,1.08c-2.04,0 -3.93,-0.42 -5.76,-1.26c-1.83,-0.84 -3.36,-2.04 -4.65,-3.6c-0.09,-0.12 -0.12,-0.24 -0.12,-0.39c0,-0.15 0.06,-0.27 0.15,-0.36l2.4,-2.43c0.12,-0.09 0.27,-0.15 0.45,-0.15c0.18,0.03 0.3,0.09 0.39,0.21c0.87,1.11 1.92,1.98 3.15,2.58c1.26,0.6 2.58,0.9 3.96,0.9c1.2,0 2.37,-0.24 3.48,-0.72c1.11,-0.48 2.07,-1.11 2.88,-1.92c0.81,-0.81 1.44,-1.77 1.92,-2.88c0.48,-1.11 0.72,-2.25 0.72,-3.48c0,-1.2 -0.24,-2.37 -0.72,-3.48c-0.48,-1.11 -1.11,-2.07 -1.92,-2.88c-0.81,-0.81 -1.77,-1.44 -2.88,-1.92c-1.11,-0.48 -2.28,-0.72 -3.48,-0.72c-1.17,0 -2.25,0.21 -3.33,0.63c-1.05,0.42 -1.98,0.99 -2.79,1.77l2.4,2.46c0.36,0.33 0.45,0.75 0.24,1.2c-0.21,0.45 -0.57,0.69 -1.05,0.69h-7.89c-0.3,0 -0.57,-0.12 -0.78,-0.33c-0.21,-0.21 -0.33,-0.48 -0.33,-0.78v-7.89c0,-0.51 0.24,-0.84 0.72,-1.05c0.45,-0.18 0.87,-0.12 1.2,0.27l2.31,2.25c1.23,-1.17 2.67,-2.1 4.26,-2.73c1.62,-0.66 3.3,-0.99 5.01,-0.99c1.83,0 3.6,0.36 5.25,1.08c1.68,0.72 3.12,1.68 4.32,2.88c1.2,1.2 2.16,2.64 2.88,4.29" fill="#ffffff"/></g></g></svg>