<svg version="1.1" xmlns="http://www.w3.org/2000/svg" xmlns:xlink="http://www.w3.org/1999/xlink" width="21" height="20" viewBox="0,0,21,20"><g transform="translate(-235,-176)"><g data-paper-data="{&quot;isPaintingLayer&quot;:true}" fill-rule="nonzero" stroke="none" stroke-width="0" stroke-linecap="butt" stroke-linejoin="miter" stroke-miterlimit="10" stroke-dasharray="" stroke-dashoffset="0" style="mix-blend-mode: normal"><path d="M238,182v-2h1h2h1v2h-1v4h1v4h-1v4h1v2h-1h-2h-1v-2h1v-4h-1v-4h1v-4z" data-paper-data="{&quot;index&quot;:null}" fill="#2f77b2"/><path d="M239,176.62h17v6.75h-17c-1.86,0 -3.38,-1.51 -3.38,-3.38c0,-1.87 1.51,-3.38 3.38,-3.38z" data-paper-data="{&quot;index&quot;:null}" fill="#1682bf"/><path d="M239,176h17v1.25h-17c-1.52,0 -2.75,1.23 -2.75,2.75c0,1.52 1.23,2.75 2.75,2.75h17v1.25h-17c-2.21,0 -4,-1.79 -4,-4c0,-2.21 1.79,-4 4,-4z" data-paper-data="{&quot;index&quot;:null}" fill="#2f77b2"/></g></g></svg>