<svg version="1.1" xmlns="http://www.w3.org/2000/svg" xmlns:xlink="http://www.w3.org/1999/xlink" width="32.01859" height="16.11668" viewBox="0,0,32.01859,16.11668"><g transform="translate(-223.98141,-163.88332)"><g data-paper-data="{&quot;isPaintingLayer&quot;:true}" fill-rule="nonzero" stroke="none" stroke-linecap="butt" stroke-linejoin="miter" stroke-miterlimit="10" stroke-dasharray="" stroke-dashoffset="0" style="mix-blend-mode: normal"><path d="M223.98141,172.13332v-8.25h32v8.25z" fill="#000000" stroke-width="none"/><path d="M252.32,179.41h-24.71c-0.07,-0.15 -0.03,-0.28 0.11,-0.37c0.2,-0.12 0.42,-0.17 0.65,-0.2c7.56,-0.08 15.11,-0.03 22.67,-0.03c0.4,0 0.79,0.02 1.15,0.21c0.16,0.09 0.2,0.22 0.13,0.38z" fill="#65e186" stroke-width="0"/><path d="M224.79,175.96c-0.01,-2.71 -0.03,-5.42 -0.04,-8.14c0.7,-2.03 1.98,-2.96 4.1,-2.97c7.5,0 14.99,0 22.49,0c0.35,0 0.72,-0.07 1.02,0.18c0.22,0.88 0.87,1.73 0.18,2.68c-0.11,0.07 -0.23,0.13 -0.37,0.16c-0.63,0.13 -1.26,0.09 -1.9,0.09c-6.3,0 -12.59,0 -18.89,0c-0.44,0 -0.87,0 -1.31,0c-1.64,0.07 -2.28,0.7 -2.33,2.29c-0.07,2 0.11,4.01 -0.1,6.02c-0.04,0.14 -0.1,0.26 -0.19,0.37c-1.3,0.49 -1.92,0.33 -2.67,-0.7z" fill="#65e186" stroke-width="0"/><path d="M252.56,167.6c0,-0.79 0.09,-1.57 -0.49,-2.26c-0.2,-0.24 0.14,-0.25 0.29,-0.31c1.55,0.33 2.49,1.25 2.83,2.76c-0.01,0.17 -0.03,0.35 -0.04,0.52c-0.88,-0.18 -1.77,-0.34 -2.6,-0.71z" fill="#a3ffbb" stroke-width="0"/><path d="M252.56,167.6c0.95,-0.07 1.87,0 2.6,0.71c0.02,2.71 0.04,5.43 0.06,8.14c-0.36,1.49 -1.31,2.42 -2.84,2.77c-7.02,-0.01 -14.05,-0.02 -21.07,-0.04c-1.07,0 -2.13,-0.01 -3.2,-0.02c-1.03,-0.79 -1.2,-1.41 -0.73,-2.52v0c0.57,-0.47 1.27,-0.36 1.93,-0.36c6.51,0 13.03,0 19.54,0c0.47,0 0.95,0.02 1.42,-0.02c1.27,-0.1 1.85,-0.65 1.89,-1.91c0.06,-1.69 0,-3.39 0.03,-5.08c0,-0.57 -0.06,-1.17 0.38,-1.65v0z" fill="#4fb069" stroke-width="0"/><path d="M227.37,176.64c-0.14,0.95 0.22,1.76 0.73,2.52c-0.17,0.01 -0.34,0.02 -0.51,0.03c-1.56,-0.33 -2.42,-1.34 -2.85,-2.78c0.02,-0.15 0.03,-0.31 0.05,-0.46c0.74,0.67 1.64,0.76 2.59,0.68z" fill="#a3ffbb" stroke-width="0"/><path d="M252.56,167.6c0,2.28 0,4.55 0,6.83c0,1.41 -0.81,2.2 -2.26,2.2c-7.64,0 -15.28,0 -22.93,0c0,-2.19 0,-4.39 0,-6.58c0,-1.67 0.82,-2.45 2.56,-2.45c7.54,0 15.09,0 22.63,0z" fill="#a3ffbb" stroke-width="0"/><path d="M252,165.25h-24c-1.52,0 -2.75,1.23 -2.75,2.75v8c0,1.52 1.23,2.75 2.75,2.75h24c1.52,0 2.75,-1.23 2.75,-2.75v-8c0,-1.52 -1.23,-2.75 -2.75,-2.75M252,164c2.21,0 4,1.79 4,4v8c0,2.21 -1.79,4 -4,4h-24c-2.21,0 -4,-1.79 -4,-4v-8c0,-2.21 1.79,-4 4,-4h24z" fill="#000000" stroke-width="0"/><path d="M228.49,178c-1.37519,0 -2.49,-1.11481 -2.49,-2.49v-7.02c0,-1.37519 1.11481,-2.49 2.49,-2.49h23.02c1.37519,0 2.49,1.11481 2.49,2.49v7.02c0,1.37519 -1.11481,2.49 -2.49,2.49z" fill-opacity="0.4" fill="#ffffff" stroke-width="0"/></g></g></svg>