<svg version="1.1" xmlns="http://www.w3.org/2000/svg" xmlns:xlink="http://www.w3.org/1999/xlink" width="512" height="414" viewBox="0,0,512,414"><g transform="translate(16.54867,26)"><g data-paper-data="{&quot;isPaintingLayer&quot;:true}" fill-rule="nonzero" stroke-linecap="butt" stroke-linejoin="miter" stroke-miterlimit="10" stroke-dasharray="" stroke-dashoffset="0" style="mix-blend-mode: normal"><path d="M-11.73147,108.06656v-67h76.36559v67z" fill="#ffffff" stroke="#000000" stroke-width="4"/><path d="M414.26854,108.06656v-67h76.36559v67z" data-paper-data="{&quot;index&quot;:null}" fill="#ffffff" stroke="#000000" stroke-width="4"/><path d="M-10.47072,106.6257v-23.77419h34.22043v23.77419z" fill="#ff0000" stroke="none" stroke-width="0"/><path d="M455.15296,106.6257v-23.77419h34.22043v23.77419z" data-paper-data="{&quot;index&quot;:null}" fill="#ff0000" stroke="none" stroke-width="0"/><path d="M432.1197,53.98155l33.70041,-5.60363l-5.60362,33.70041z" data-paper-data="{&quot;index&quot;:null}" fill="#00e6ff" stroke="none" stroke-width="0"/><path d="M446.16808,78.72778l-10.18842,-10.18842l10.18842,-10.18843l10.18842,10.18843z" data-paper-data="{&quot;index&quot;:null}" fill="#00e6ff" stroke="none" stroke-width="0"/><path d="M432.35985,92.53603l-10.18842,-10.18842l10.18842,-10.18842l10.18842,10.18842z" data-paper-data="{&quot;index&quot;:null}" fill="#00e6ff" stroke="none" stroke-width="0"/><path d="M-14.54867,217.6999v-70.26667h68v70.26667z" fill="#ffffff" stroke="#000000" stroke-width="4"/><path d="M204.86668,-24h70.26667v68h-70.26667z" fill="#ffffff" stroke="#000000" stroke-width="4"/><path d="M204.86668,318h70.26667v68h-70.26667z" data-paper-data="{&quot;index&quot;:null}" fill="#ffffff" stroke="#000000" stroke-width="4"/><path d="M425.45134,217.6999v-70.26667h68v70.26667z" data-paper-data="{&quot;index&quot;:null}" fill="#ffffff" stroke="#000000" stroke-width="4"/><path d="M33.68095,203.40265l-29.14719,-20.83608l29.14719,-20.83608z" fill="#00e6ff" stroke="none" stroke-width="0"/><path d="M219.16392,24.22962l20.83608,-29.14719l20.83608,29.14719z" fill="#00e6ff" stroke="none" stroke-width="0"/><path d="M260.83608,337.77038l-20.83608,29.14719l-20.83608,-29.14719z" data-paper-data="{&quot;index&quot;:null}" fill="#00e6ff" stroke="none" stroke-width="0"/><path d="M445.22171,161.73048l29.14719,20.83608l-29.14719,20.83608z" data-paper-data="{&quot;index&quot;:null}" fill="#00e6ff" stroke="none" stroke-width="0"/><path d="M26.75502,190.4999v-15.11112h19.64445v15.11112z" fill="#00e6ff" stroke="none" stroke-width="0"/><path d="M232.06667,17.30369h15.11112v19.64445h-15.11112z" fill="#00e6ff" stroke="none" stroke-width="0"/><path d="M232.06667,325.05186h15.11112v19.64445h-15.11112z" data-paper-data="{&quot;index&quot;:null}" fill="#00e6ff" stroke="none" stroke-width="0"/><path d="M432.5032,190.4999v-15.11112h19.64445v15.11112z" data-paper-data="{&quot;index&quot;:null}" fill="#00e6ff" stroke="none" stroke-width="0"/><path d="M-13.54867,325.6609v-70.18868h80v70.18868z" fill="#ffffff" stroke="#000000" stroke-width="4"/><path d="M412.45134,325.6609v-70.18868h80v70.18868z" data-paper-data="{&quot;index&quot;:null}" fill="#ffffff" stroke="#000000" stroke-width="4"/><path d="M-11.47321,312.83071v-42.26415h26.79245v42.26415z" fill="#ff0000" stroke="none" stroke-width="0"/><path d="M463.58342,312.83071v-42.26415h26.79245v42.26415z" data-paper-data="{&quot;index&quot;:null}" fill="#ff0000" stroke="none" stroke-width="0"/><path d="M45.57082,312.13424l-29.11483,-20.81296l29.11484,-20.81295z" fill="#00e6ff" stroke="none" stroke-width="0"/><path d="M433.33185,270.50832l29.11483,20.81295l-29.11483,20.81296z" data-paper-data="{&quot;index&quot;:null}" fill="#00e6ff" stroke="none" stroke-width="0"/><path d="M38.65258,299.24581v-15.09434h19.62264v15.09434z" fill="#00e6ff" stroke="none" stroke-width="0"/><path d="M420.62745,299.24581v-15.09434h19.62264v15.09434z" data-paper-data="{&quot;index&quot;:null}" fill="#00e6ff" stroke="none" stroke-width="0"/><g fill="#00e6ff" stroke="none" stroke-width="0"><path d="M18.68617,82.07833l-5.60362,-33.70041l33.70041,5.60363z"/><path d="M22.54616,68.53936l10.18843,-10.18843l10.18842,10.18843l-10.18842,10.18842z"/><path d="M36.35438,82.3476l10.18843,-10.18842l10.18843,10.18842l-10.18843,10.18842z"/></g></g></g></svg>