<svg version="1.1" xmlns="http://www.w3.org/2000/svg" xmlns:xlink="http://www.w3.org/1999/xlink" width="30.01" height="8" viewBox="0,0,30.01,8"><g transform="translate(-225,-163)"><g data-paper-data="{&quot;isPaintingLayer&quot;:true}" fill-rule="nonzero" stroke="none" stroke-width="0" stroke-linecap="butt" stroke-linejoin="miter" stroke-miterlimit="10" stroke-dasharray="" stroke-dashoffset="0" style="mix-blend-mode: normal"><path d="M252.58,165c0.78,0 1.42,0.59 1.42,1.32v0.26c0,2.42 -1.12,3.42 -2.37,3.42c-1.92,0 -1.92,-1 -3.85,-1c-1.93,0 -1.93,2 -3.85,2c-1.92,0 -1.93,-2 -3.85,-2c-1.92,0 -1.93,2 -3.85,2c-1.92,0 -1.92,-2 -3.85,-2c-1.93,0 -1.93,1 -3.86,1c-1.48,0 -2.52,-2 -2.52,-3.55v-0.13c0,-0.73 0.63,-1.32 1.42,-1.32z" fill="#000000"/><path d="M243.94,170.5c-1.17,0 -1.79,-0.64 -2.29,-1.15c-0.46,-0.47 -0.82,-0.85 -1.57,-0.85c-0.75,0 -1.11,0.37 -1.56,0.85c-0.5,0.51 -1.11,1.15 -2.29,1.15c-1.18,0 -1.79,-0.64 -2.29,-1.15c-0.46,-0.47 -0.82,-0.85 -1.57,-0.85c-0.84,0 -1.24,0.21 -1.7,0.44c-0.5,0.26 -1.07,0.56 -2.16,0.56c-1.87,0 -3.02,-2.36 -3.02,-4.05v-0.13c0,-1 0.86,-1.82 1.92,-1.82h25.16c1.06,0 1.92,0.82 1.92,1.82v0.26c0,2.89 -1.48,3.92 -2.87,3.92c-1.08,0 -1.65,-0.3 -2.16,-0.56c-0.46,-0.24 -0.85,-0.44 -1.69,-0.44c-0.75,0 -1.11,0.37 -1.56,0.85c-0.49,0.51 -1.11,1.15 -2.28,1.15z" fill="#a8ff00"/><path d="M252.58,164h-25.16c-0.78,0 -1.42,0.59 -1.42,1.32v0.13c0,1.55 1.03,3.55 2.52,3.55c1.93,0 1.94,-1 3.86,-1c1.92,0 1.93,2 3.85,2c1.92,0 1.93,-2 3.85,-2c1.92,0 1.92,2 3.85,2c1.93,0 1.93,-2 3.85,-2c1.92,0 1.92,1 3.85,1c1.25,0 2.37,-1 2.37,-3.42v-0.26c0,-0.73 -0.63,-1.32 -1.42,-1.32M252.59,163v0c1.33,0 2.42,1.04 2.42,2.32v0.26c0,3.26 -1.82,4.42 -3.37,4.42c-1.21,0 -1.86,-0.34 -2.39,-0.61c-0.43,-0.23 -0.74,-0.39 -1.46,-0.39c-0.51,0 -0.74,0.21 -1.2,0.69c-0.53,0.55 -1.25,1.31 -2.64,1.31c-1.39,0 -2.12,-0.76 -2.65,-1.31c-0.46,-0.48 -0.68,-0.69 -1.2,-0.69c-0.52,0 -0.75,0.21 -1.21,0.69c-0.53,0.55 -1.26,1.31 -2.65,1.31c-1.39,0 -2.12,-0.76 -2.65,-1.31c-0.47,-0.48 -0.69,-0.69 -1.21,-0.69c-0.72,0 -1.04,0.16 -1.47,0.39c-0.53,0.27 -1.18,0.61 -2.39,0.61c-2.07,0 -3.52,-2.4 -3.52,-4.55v-0.13c0,-1.28 1.09,-2.32 2.42,-2.32h25.16z" fill="#000000"/><path d="M227.5,166c-0.27614,0 -0.5,-0.22386 -0.5,-0.5v0c0,-0.27614 0.22386,-0.5 0.5,-0.5h3c0.27614,0 0.5,0.22386 0.5,0.5v0c0,0.27614 -0.22386,0.5 -0.5,0.5z" fill="#d4ffb8"/><path d="M233.5,166c-0.27614,0 -0.5,-0.22386 -0.5,-0.5v0c0,-0.27614 0.22386,-0.5 0.5,-0.5h13c0.27614,0 0.5,0.22386 0.5,0.5v0c0,0.27614 -0.22386,0.5 -0.5,0.5z" fill="#d4ffb8"/><path d="M249.5,166c-0.27614,0 -0.5,-0.22386 -0.5,-0.5v0c0,-0.27614 0.22386,-0.5 0.5,-0.5h3c0.27614,0 0.5,0.22386 0.5,0.5v0c0,0.27614 -0.22386,0.5 -0.5,0.5z" fill="#d4ffb8"/></g></g></svg>