<svg viewBox="0 0 32 32" height="32" width="32" xmlns="http://www.w3.org/2000/svg" id="a"><metadata></metadata><path stroke-width="0" opacity=".25" d="M22.53,23.77c.29-.28.57-.57.82-.9s.46-.67.66-1.03l-1.4-1.5c.21-.51.35-1.04.42-1.57l1.96-.6c.02-.81-.09-1.63-.32-2.41l-2.05-.07c-.2-.5-.48-.97-.81-1.41l.97-1.81c-.28-.29-.57-.57-.9-.82s-.67-.46-1.03-.66l-1.5,1.4c-.51-.21-1.04-.35-1.57-.42l-.6-1.96c-.81-.02-1.63.09-2.41.32l-.07,2.05c-.5.2-.97.48-1.41.81l-1.81-.97c-.29.28-.57.57-.82.9s-.46.67-.66,1.03l1.4,1.5c-.21.51-.35,1.04-.42,1.57l-1.96.6c-.02.81.09,1.63.32,2.41l2.05.07c.2.5.48.97.81,1.41l-.97,1.81c.28.29.57.57.9.82s.67.46,1.03.66l1.5-1.4c.51.21,1.04.35,1.57.42l.6,1.96c.81.02,1.63-.09,2.41-.32l.07-2.05c.5-.2.97-.48,1.41-.81l1.81.97Z"></path><path stroke-width="1.25" stroke="#000" fill="#ccc" d="M21.53,21.77c.29-.28.57-.57.82-.9s.46-.67.66-1.03l-1.4-1.5c.21-.51.35-1.04.42-1.57l1.96-.6c.02-.81-.09-1.63-.32-2.41l-2.05-.07c-.2-.5-.48-.97-.81-1.41l.97-1.81c-.28-.29-.57-.57-.9-.82s-.67-.46-1.03-.66l-1.5,1.4c-.51-.21-1.04-.35-1.57-.42l-.6-1.96c-.81-.02-1.63.09-2.41.32l-.07,2.05c-.5.2-.97.48-1.41.81l-1.81-.97c-.29.28-.57.57-.82.9s-.46.67-.66,1.03l1.4,1.5c-.21.51-.35,1.04-.42,1.57l-1.96.6c-.02.81.09,1.63.32,2.41l2.05.07c.2.5.48.97.81,1.41l-.97,1.81c.28.29.57.57.9.82s.67.46,1.03.66l1.5-1.4c.51.21,1.04.35,1.57.42l.6,1.96c.81.02,1.63-.09,2.41-.32l.07-2.05c.5-.2.97-.48,1.41-.81l1.81.97Z"></path><circle stroke-width="1.25" stroke="#000" fill="#606060" r="2.8" cy="16" cx="16"></circle><circle stroke-width="0" fill="#f9ff00" r="1.6" cy="16" cx="16"></circle></svg>