<svg version="1.1" xmlns="http://www.w3.org/2000/svg" xmlns:xlink="http://www.w3.org/1999/xlink" width="128" height="165.02082" viewBox="0,0,128,165.02082"><g transform="translate(-176,-78.97918)"><g data-paper-data="{&quot;isPaintingLayer&quot;:true}" fill-rule="nonzero" stroke-linecap="butt" stroke-linejoin="miter" stroke-miterlimit="10" stroke-dasharray="" stroke-dashoffset="0" style="mix-blend-mode: normal"><path d="M188,180c0,-28.71881 23.28119,-52 52,-52c28.71881,0 52,23.28119 52,52c0,28.71881 -23.28119,52 -52,52c-28.71881,0 -52,-23.28119 -52,-52z" fill="#000000" stroke="#000000" stroke-width="4"/><path d="M178,180c0,-34.24165 27.75835,-62 62,-62c34.24165,0 62,27.75835 62,62c0,34.24165 -27.75835,62 -62,62c-34.24165,0 -62,-27.75835 -62,-62z" fill="none" stroke="#000000" stroke-width="4"/><text transform="translate(197.68646,176.37299) scale(0.6083,0.6083)" font-size="40" xml:space="preserve" fill="#ffffff" fill-rule="nonzero" stroke="none" stroke-width="1" stroke-linecap="butt" stroke-linejoin="miter" stroke-miterlimit="10" stroke-dasharray="" stroke-dashoffset="0" font-family="Sans Serif" font-weight="normal" text-anchor="start" style="mix-blend-mode: normal"><tspan x="0" dy="0">Click to</tspan></text><text transform="translate(193.11203,197.6636) scale(0.6083,0.6083)" font-size="40" xml:space="preserve" fill="#ffffff" fill-rule="nonzero" stroke="none" stroke-width="1" stroke-linecap="butt" stroke-linejoin="miter" stroke-miterlimit="10" stroke-dasharray="" stroke-dashoffset="0" font-family="Sans Serif" font-weight="normal" text-anchor="start" style="mix-blend-mode: normal"><tspan x="0" dy="0">Activate</tspan></text><path d="M264.04163,78.97918l-24.04163,24.04163l-24.04163,-24.04163z" fill="#000000" stroke="none" stroke-width="0"/></g></g></svg>