<svg viewBox="0 0 32 32" xmlns:xlink="http://www.w3.org/1999/xlink" height="32" width="32" xmlns="http://www.w3.org/2000/svg"><defs><symbol viewBox="0 0 32 32" id="a"></symbol><linearGradient gradientUnits="userSpaceOnUse" gradientTransform="translate(-5106.43 -1209.33) scale(1.62 1.15)" y2="1068.71" x2="3165.1" y1="1053.16" x1="3159.96" id="c"><stop stop-color="#6996ff" offset="0"></stop><stop stop-color="#5b8cff" offset=".53"></stop><stop stop-color="#58f" offset="1"></stop></linearGradient><linearGradient xlink:href="#c" y2="1081.32" x2="3170.06" y1="1068.44" x1="3165.8" id="d"></linearGradient><linearGradient xlink:href="#c" y2="1081.32" x2="3159.25" y1="1068.44" x1="3155" id="e"></linearGradient><clipPath id="g"><rect stroke-width="0" fill="none" height="32" width="32" x="0"></rect></clipPath></defs><g><g id="f"><g clip-path="url(#g)"><g viewBox="0 0 32 32" id="b"><rect stroke-width="0" fill="#587fdd" height="32" width="32"></rect><rect stroke-width="0" fill="#557bd5" height="14" width="30" y="1.75" x="1.75"></rect><rect stroke-width="0" fill="#5276cd" height="13" width="29" y="2.25" x="2.25"></rect><rect stroke-width="0" fill="url(#c)" height="13" width="29" y="1.5" x="1.5"></rect><rect stroke-width="0" fill="#557bd5" height="14" width="14.25" y="17.75" x="17.75"></rect><rect stroke-width="0" fill="#5276cd" height="13" width="13.75" y="18.25" x="18.25"></rect><rect stroke-width="0" fill="url(#d)" height="13" width="14.5" y="17.5" x="17.5"></rect><rect stroke-width="0" fill="#557bd5" height="14" width="15.75" y="17.75"></rect><rect stroke-width="0" fill="#5276cd" height="13" width="15.25" y="18.25"></rect><rect stroke-width="0" fill="url(#e)" height="13" width="14.5" y="17.5"></rect><rect stroke-width="3.5" stroke="#000" opacity=".15" fill="none" ry="4" rx="4" height="44" width="32" y="-7.5" x="-1.5"></rect><rect stroke-width="3.5" stroke="#fff" opacity=".15" fill="none" ry="4" rx="4" height="44" width="32" y="-4.5" x="1.5"></rect><path stroke-width="0" d="M28-4.75c1.52,0,2.75,1.23,2.75,2.75v36c0,1.52-1.23,2.75-2.75,2.75H4c-1.52,0-2.75-1.23-2.75-2.75V-2c0-1.52,1.23-2.75,2.75-2.75h24M28-6H4C1.79-6,0-4.21,0-2v36C0,36.21,1.79,38,4,38h24c2.21,0,4-1.79,4-4V-2c0-2.21-1.79-4-4-4h0Z"></path></g></g></g></g></svg>
