<svg version="1.1" xmlns="http://www.w3.org/2000/svg" xmlns:xlink="http://www.w3.org/1999/xlink" width="32" height="32" viewBox="0,0,32,32"><g transform="translate(-224,-164)"><g data-paper-data="{&quot;isPaintingLayer&quot;:true}" fill-rule="nonzero" stroke-linecap="butt" stroke-linejoin="miter" stroke-miterlimit="10" stroke-dasharray="" stroke-dashoffset="0" style="mix-blend-mode: normal"><path d="M227.6,164.59h24.72c0.07,0.15 0.05,0.29 -0.07,0.41c-0.18,0.15 -0.38,0.25 -0.61,0.31c-1.89,0.16 -3.79,0.07 -5.68,0.07c-5.41,0.01 -10.82,0.02 -16.23,0c-0.69,0 -1.43,0.14 -2.05,-0.35c-0.12,-0.13 -0.14,-0.27 -0.07,-0.43z" fill="#adadad" stroke="none" stroke-width="0"/><path d="M252.32,179.41h-24.72c-0.07,-0.15 -0.05,-0.28 0.07,-0.4c0.18,-0.15 0.4,-0.21 0.62,-0.29c0.43,-0.09 0.86,-0.09 1.3,-0.09c6.95,0 13.9,-0.01 20.85,0c0.62,0 1.28,-0.11 1.81,0.35c0.12,0.13 0.14,0.27 0.07,0.43z" fill="#929292" stroke="none" stroke-width="0"/><path d="M224.73,176.37c-0.07,0 -0.15,-0.01 -0.22,-0.01v-8.71c0.07,0 0.15,0 0.22,-0.01c0.42,0.19 0.52,0.58 0.52,0.97c0.04,2.41 0.18,4.82 -0.08,7.23c-0.11,0.21 -0.22,0.42 -0.45,0.53z" fill="#c9c9c9" stroke="none" stroke-width="0"/><path d="M255.41,176.35l-0.09,0.07l-0.11,-0.02c-0.43,-0.18 -0.53,-0.56 -0.54,-0.95c-0.05,-2.44 -0.19,-4.87 0.08,-7.31c0.11,-0.22 0.22,-0.43 0.45,-0.54c0.07,0 0.14,0.02 0.21,0.04z" fill="#929292" stroke="none" stroke-width="0"/><path d="M224.78,175.9c-0.02,-2.76 -0.03,-5.51 -0.05,-8.27c0.42,-1.46 1.3,-2.47 2.84,-2.83c8.09,0 16.19,0.01 24.28,0.02c1.32,0.73 1.47,1.16 0.92,2.65c-0.1,0.12 -0.21,0.2 -0.35,0.26c-0.68,0.3 -1.4,0.23 -2.1,0.23c-6.17,0 -12.34,0 -18.5,0c-0.55,0 -1.11,-0.01 -1.66,0.02c-1.53,0.08 -2.15,0.67 -2.2,2.18c-0.06,1.49 0,2.97 -0.03,4.46c0,0.58 0.04,1.18 -0.2,1.74c-0.05,0.14 -0.12,0.27 -0.22,0.38c-1.45,0.64 -1.99,0.47 -2.71,-0.83z" fill="#929292" stroke="none" stroke-width="0"/><path d="M252.56,167.41c0.08,-0.95 -0.05,-1.84 -0.71,-2.58c0.17,-0.02 0.35,-0.03 0.52,-0.05c1.52,0.38 2.49,1.29 2.83,2.83c-0.02,0.18 -0.04,0.36 -0.06,0.54c-0.96,0.1 -1.86,-0.01 -2.59,-0.73z" fill="#848484" stroke="none" stroke-width="0"/><path d="M252.56,167.41c0.95,-0.05 1.87,0 2.59,0.73c0.02,2.75 0.05,5.51 0.07,8.26c-0.36,1.52 -1.31,2.45 -2.84,2.81c-6.79,-0.01 -13.58,-0.02 -20.36,-0.04c-1.3,0 -2.6,-0.02 -3.91,-0.04c-1.35,-0.78 -1.54,-1.44 -0.74,-2.55v0c0.56,-0.69 1.36,-0.54 2.09,-0.54c6.32,-0.02 12.64,0 18.96,-0.01c3.37,0 3.57,-0.2 3.58,-3.5c0,-1.21 -0.01,-2.42 0.02,-3.64c0.01,-0.55 0.04,-1.1 0.55,-1.48v0z" fill="#6d6d6d" stroke="none" stroke-width="0"/><path d="M227.36,176.59c-0.1,0.95 0.19,1.78 0.74,2.55c-0.17,0.02 -0.35,0.03 -0.52,0.05c-1.56,-0.33 -2.42,-1.37 -2.85,-2.82c0.02,-0.15 0.04,-0.31 0.06,-0.46c0.75,0.65 1.64,0.75 2.58,0.69z" fill="#838383" stroke="none" stroke-width="0"/><path d="M252.56,167.41c0,2.27 0,4.54 0,6.81c0,1.6 -0.77,2.36 -2.4,2.36c-7.6,0 -15.19,0 -22.79,0c0,-2.15 0,-4.3 0,-6.45c0,-2 0.76,-2.73 2.81,-2.73c7.46,0 14.92,0 22.38,0z" fill="#808080" stroke="none" stroke-width="0"/><path d="M252,165.25h-24c-1.52,0 -2.75,1.23 -2.75,2.75v8c0,1.52 1.23,2.75 2.75,2.75h24c1.52,0 2.75,-1.23 2.75,-2.75v-8c0,-1.52 -1.23,-2.75 -2.75,-2.75M252,164c2.21,0 4,1.79 4,4v8c0,2.21 -1.79,4 -4,4h-24c-2.21,0 -4,-1.79 -4,-4v-8c0,-2.21 1.79,-4 4,-4h24z" fill="#000000" stroke="none" stroke-width="0"/><path d="M252.32,195.41h-24.71c-0.07,-0.15 -0.03,-0.28 0.11,-0.37c0.2,-0.12 0.42,-0.17 0.65,-0.2c7.56,-0.08 15.11,-0.03 22.67,-0.03c0.4,0 0.79,0.02 1.15,0.21c0.16,0.09 0.2,0.22 0.13,0.38z" fill="#929292" stroke="none" stroke-width="0"/><path d="M224.74,192.42c-0.07,0 -0.15,-0.01 -0.22,-0.01v-8.57c0.07,0 0.15,0 0.22,-0.01c0.33,0.28 0.37,0.66 0.37,1.04c0,2.32 0.09,4.64 -0.04,6.96c-0.05,0.23 -0.14,0.44 -0.34,0.59z" fill="#c9c9c9" stroke="none" stroke-width="0"/><path d="M255.41,192.4l-0.09,0.05h-0.11c-0.39,-0.31 -0.4,-0.74 -0.4,-1.16c0,-2.3 -0.09,-4.61 0.04,-6.91c0.06,-0.23 0.14,-0.44 0.34,-0.59c0.07,0.01 0.14,0.02 0.21,0.04v8.57z" fill="#929292" stroke="none" stroke-width="0"/><path d="M224.79,191.96c-0.01,-2.71 -0.03,-5.42 -0.04,-8.14c0.71,-2.03 1.99,-2.96 4.11,-2.97c7.5,0 14.99,0 22.49,0c0.35,0 0.72,-0.07 1.02,0.18c0.22,0.88 0.87,1.73 0.18,2.68c-0.11,0.07 -0.23,0.13 -0.37,0.16c-0.63,0.13 -1.26,0.09 -1.9,0.09c-6.3,0 -12.59,0 -18.89,0c-0.44,0 -0.87,0 -1.31,0c-1.64,0.07 -2.28,0.7 -2.33,2.29c-0.07,2 0.11,4.01 -0.1,6.02c-0.04,0.14 -0.1,0.26 -0.19,0.37c-1.3,0.49 -1.92,0.33 -2.67,-0.7z" fill="#929292" stroke="none" stroke-width="0"/><path d="M252.56,183.6c0,-0.79 0.09,-1.57 -0.49,-2.26c-0.2,-0.24 0.14,-0.25 0.29,-0.31c1.55,0.33 2.49,1.25 2.83,2.76c-0.01,0.17 -0.03,0.35 -0.04,0.52c-0.88,-0.18 -1.77,-0.34 -2.6,-0.71z" fill="#848484" stroke="none" stroke-width="0"/><path d="M252.56,183.6c0.95,-0.07 1.87,0 2.6,0.71c0.02,2.71 0.04,5.43 0.06,8.14c-0.36,1.49 -1.31,2.42 -2.84,2.77c-7.02,-0.01 -14.05,-0.02 -21.07,-0.04c-1.07,0 -2.13,-0.01 -3.2,-0.02c-1.03,-0.79 -1.2,-1.41 -0.73,-2.52v0c0.57,-0.47 1.27,-0.36 1.93,-0.36c6.51,0 13.03,0 19.54,0c0.47,0 0.95,0.02 1.42,-0.02c1.27,-0.1 1.85,-0.65 1.89,-1.91c0.06,-1.69 0,-3.39 0.03,-5.08c0,-0.57 -0.06,-1.17 0.38,-1.65v0z" fill="#6d6d6d" stroke="none" stroke-width="0"/><path d="M227.37,192.64c-0.14,0.95 0.22,1.76 0.73,2.52c-0.17,0.01 -0.34,0.02 -0.51,0.03c-1.56,-0.33 -2.42,-1.34 -2.85,-2.78c0.02,-0.15 0.03,-0.31 0.05,-0.46c0.74,0.67 1.64,0.76 2.59,0.68z" fill="#838383" stroke="none" stroke-width="0"/><path d="M252.56,183.6c0,2.28 0,4.55 0,6.83c0,1.41 -0.81,2.2 -2.26,2.2c-7.64,0 -15.28,0 -22.93,0c0,-2.19 0,-4.39 0,-6.58c0,-1.67 0.82,-2.45 2.56,-2.45c7.54,0 15.09,0 22.63,0z" fill="#7f7f7f" stroke="none" stroke-width="0"/><path d="M252,181.25h-24c-1.52,0 -2.75,1.23 -2.75,2.75v8c0,1.52 1.23,2.75 2.75,2.75h24c1.52,0 2.75,-1.23 2.75,-2.75v-8c0,-1.52 -1.23,-2.75 -2.75,-2.75M252,180c2.21,0 4,1.79 4,4v8c0,2.21 -1.79,4 -4,4h-24c-2.21,0 -4,-1.79 -4,-4v-8c0,-2.21 1.79,-4 4,-4h24z" fill="#000000" stroke="none" stroke-width="0"/><path d="M246.87,183.55c-0.14,0.53 -0.35,1.03 -0.62,1.5l1.19,1.67c-0.48,0.66 -1.06,1.24 -1.72,1.72l-1.67,-1.19c-0.46,0.27 -0.97,0.48 -1.5,0.62l-0.34,2.03c-0.39,0.06 -0.8,0.1 -1.21,0.1c-0.41,0 -0.81,-0.04 -1.21,-0.1l-0.34,-2.03c-0.53,-0.14 -1.03,-0.35 -1.5,-0.62l-1.67,1.19c-0.66,-0.48 -1.24,-1.06 -1.72,-1.72l1.19,-1.67c-0.27,-0.46 -0.48,-0.97 -0.62,-1.5l-2.03,-0.34c-0.06,-0.39 -0.1,-0.8 -0.1,-1.21c0,-0.41 0.04,-0.81 0.1,-1.21l2.03,-0.34c0.14,-0.53 0.35,-1.03 0.62,-1.5l-1.19,-1.67c0.48,-0.66 1.06,-1.24 1.72,-1.72l1.67,1.19c0.46,-0.27 0.97,-0.48 1.5,-0.62l0.34,-2.03c0.39,-0.06 0.8,-0.1 1.21,-0.1c0.41,0 0.81,0.04 1.21,0.1l0.34,2.03c0.53,0.14 1.03,0.35 1.5,0.62l1.67,-1.19c0.66,0.48 1.24,1.06 1.72,1.72l-1.19,1.67c0.27,0.46 0.48,0.97 0.62,1.5l2.03,0.34c0.06,0.39 0.1,0.8 0.1,1.21c0,0.41 -0.04,0.81 -0.1,1.21z" fill="#000000" stroke="none" stroke-width="0" opacity="0.25"/><path d="M245.87,181.55c-0.14,0.53 -0.35,1.03 -0.62,1.5l1.19,1.67c-0.48,0.66 -1.06,1.24 -1.72,1.72l-1.67,-1.19c-0.46,0.27 -0.97,0.48 -1.5,0.62l-0.34,2.03c-0.39,0.06 -0.8,0.1 -1.21,0.1c-0.41,0 -0.81,-0.04 -1.21,-0.1l-0.34,-2.03c-0.53,-0.14 -1.03,-0.35 -1.5,-0.62l-1.67,1.19c-0.66,-0.48 -1.24,-1.06 -1.72,-1.72l1.19,-1.67c-0.27,-0.46 -0.48,-0.97 -0.62,-1.5l-2.03,-0.34c-0.06,-0.39 -0.1,-0.8 -0.1,-1.21c0,-0.41 0.04,-0.81 0.1,-1.21l2.03,-0.34c0.14,-0.53 0.35,-1.03 0.62,-1.5l-1.19,-1.67c0.48,-0.66 1.06,-1.24 1.72,-1.72l1.67,1.19c0.46,-0.27 0.97,-0.48 1.5,-0.62l0.34,-2.03c0.39,-0.06 0.8,-0.1 1.21,-0.1c0.41,0 0.81,0.04 1.21,0.1l0.34,2.03c0.53,0.14 1.03,0.35 1.5,0.62l1.67,-1.19c0.66,0.48 1.24,1.06 1.72,1.72l-1.19,1.67c0.27,0.46 0.48,0.97 0.62,1.5l2.03,0.34c0.06,0.39 0.1,0.8 0.1,1.21c0,0.41 -0.04,0.81 -0.1,1.21z" fill="#cccccc" stroke="#000000" stroke-width="1.25"/><path d="M237.2,180c0,-1.5464 1.2536,-2.8 2.8,-2.8c1.5464,0 2.8,1.2536 2.8,2.8c0,1.5464 -1.2536,2.8 -2.8,2.8c-1.5464,0 -2.8,-1.2536 -2.8,-2.8z" fill="#606060" stroke="#000000" stroke-width="1.25"/><path d="M238.4,180c0,-0.88366 0.71634,-1.6 1.6,-1.6c0.88366,0 1.6,0.71634 1.6,1.6c0,0.88366 -0.71634,1.6 -1.6,1.6c-0.88366,0 -1.6,-0.71634 -1.6,-1.6z" fill="#f9ff00" stroke="none" stroke-width="0"/></g></g></svg>