<svg version="1.1" xmlns="http://www.w3.org/2000/svg" xmlns:xlink="http://www.w3.org/1999/xlink" width="484.53903" height="368.22391" viewBox="0,0,484.53903,368.22391"><g transform="translate(2.2831,2.61195)"><g data-paper-data="{&quot;isPaintingLayer&quot;:true}" fill-rule="nonzero" stroke="none" stroke-width="0" stroke-linecap="butt" stroke-linejoin="miter" stroke-miterlimit="10" stroke-dasharray="" stroke-dashoffset="0" style="mix-blend-mode: normal"><path d="M-1.96461,128.56888v-41.40205h41.40205v41.40205z" fill-opacity="0.25128" fill="#000000"/><path d="M440.53539,128.56888v-41.40205h41.40205v41.40205z" data-paper-data="{&quot;index&quot;:null}" fill-opacity="0.25128" fill="#000000"/><path d="M-1.64612,302.82885v-41.40205h41.40205v41.40205z" fill-opacity="0.25128" fill="#000000"/><path d="M440.2169,302.82885v-41.40205h41.40205v41.40205z" data-paper-data="{&quot;index&quot;:null}" fill-opacity="0.25128" fill="#000000"/><path d="M-2.2831,214.49508v-41.40205h41.40205v41.40205z" fill-opacity="0.25128" fill="#000000"/><path d="M219.29898,42.61197v-41.40206h41.40205v41.40206z" fill-opacity="0.25128" fill="#000000"/><path d="M219.29898,365.61196v-41.40206h41.40205v41.40206z" fill-opacity="0.25128" fill="#000000"/><path d="M440.85388,214.49508v-41.40205h41.40205v41.40205z" data-paper-data="{&quot;index&quot;:null}" fill-opacity="0.25128" fill="#000000"/><path d="M-1.96461,124.74702v-41.40205h41.40205v41.40205z" fill="#000000"/><path d="M440.53539,124.74702v-41.40205h41.40205v41.40205z" data-paper-data="{&quot;index&quot;:null}" fill="#000000"/><path d="M-1.64612,299.00699v-41.40205h41.40205v41.40205z" fill="#000000"/><path d="M440.2169,299.00699v-41.40205h41.40205v41.40205z" data-paper-data="{&quot;index&quot;:null}" fill="#000000"/><path d="M-2.2831,210.67323v-41.40205h41.40205v41.40205z" fill="#000000"/><path d="M219.29898,38.79011v-41.40206h41.40205v41.40206z" fill="#000000"/><path d="M219.29898,361.79011v-41.40205h41.40205v41.40205z" fill="#000000"/><path d="M440.85388,210.67323v-41.40205h41.40205v41.40205z" data-paper-data="{&quot;index&quot;:null}" fill="#000000"/><path d="M-1.83608,124.98991v-21.16872h21.11186v21.16872z" fill="#ff0000"/><path d="M460.69705,124.98991v-21.16872h21.11186v21.16872z" data-paper-data="{&quot;index&quot;:null}" fill="#ff0000"/><path d="M-1.51759,289.05827v-21.16872h17.29001v21.16872z" fill="#ff0000"/><path d="M464.20042,289.05827v-21.16872h17.29v21.16872z" data-paper-data="{&quot;index&quot;:null}" fill="#ff0000"/><g fill="#00e6ff"><path d="M14.91264,105.67724l-2.8663,-17.23805l17.23806,2.8663z"/><path d="M16.88704,98.75193l5.21148,-5.21147l5.21147,5.21148l-5.21147,5.21147z"/><path d="M23.95007,105.81496l5.21148,-5.21146l5.21148,5.21146l-5.21148,5.21147z"/></g><g data-paper-data="{&quot;index&quot;:null}" fill="#00e6ff"><path d="M450.68843,91.30549l17.23806,-2.8663l-2.8663,17.23805z"/><path d="M457.87431,103.9634l-5.21147,-5.21147l5.21147,-5.21148l5.21148,5.21147z"/><path d="M450.81128,111.02643l-5.21148,-5.21147l5.21148,-5.21146l5.21148,5.21146z"/></g><path d="M27.5974,288.52185l-14.21592,-10.16236l14.21593,-10.16237z" fill="#00e6ff"/><path d="M452.37542,268.1971l14.21593,10.16237l-14.21592,10.16236z" data-paper-data="{&quot;index&quot;:null}" fill="#00e6ff"/><path d="M24.09658,282.2288l0.00001,-7.37014h10.55502v7.37013z" fill="#00e6ff"/><path d="M445.32122,282.2288v-7.37013h10.55502l0.00001,7.37014z" data-paper-data="{&quot;index&quot;:null}" fill="#00e6ff"/><g fill="#00e6ff"><path d="M460.29308,179.54487l14.21593,10.16236l-14.21592,10.16236z" data-paper-data="{&quot;index&quot;:null}"/><path d="M449.09854,193.57656v-7.37013l14.69535,-0.00001l0.00002,7.37014z" data-paper-data="{&quot;index&quot;:null}"/></g><g fill="#00e6ff"><path d="M19.67974,199.8696l-14.21592,-10.16236l14.21593,-10.16236z"/><path d="M16.17892,193.57656l0.00001,-7.37014l14.69535,0.00001v7.37013z"/></g><g fill="#00e6ff"><path d="M229.58876,20.08481l10.16236,-14.21592l10.16236,14.21593z"/><path d="M235.88181,16.58398l7.37014,0.00002l-0.00001,14.69535h-7.37013z"/></g><g fill="#00e6ff"><path d="M249.91349,338.06342l-10.16236,14.21593l-10.16236,-14.21592z" data-paper-data="{&quot;index&quot;:null}"/><path d="M235.88181,326.86888h7.37013l0.00001,14.69535l-7.37014,0.00001z" data-paper-data="{&quot;index&quot;:null}"/></g></g></g></svg>