<svg version="1.1" xmlns="http://www.w3.org/2000/svg" xmlns:xlink="http://www.w3.org/1999/xlink" width="17.625" height="18.625" viewBox="0,0,17.625,18.625"><g transform="translate(-231.375,-171.375)"><g data-paper-data="{&quot;isPaintingLayer&quot;:true}" fill-rule="nonzero" stroke-linecap="butt" stroke-linejoin="miter" stroke-miterlimit="10" stroke-dasharray="" stroke-dashoffset="0" style="mix-blend-mode: normal"><path d="M246.87,183.55c-0.14,0.53 -0.35,1.03 -0.62,1.5l1.19,1.67c-0.48,0.66 -1.06,1.24 -1.72,1.72l-1.67,-1.19c-0.46,0.27 -0.97,0.48 -1.5,0.62l-0.34,2.03c-0.39,0.06 -0.8,0.1 -1.21,0.1c-0.41,0 -0.81,-0.04 -1.21,-0.1l-0.34,-2.03c-0.53,-0.14 -1.03,-0.35 -1.5,-0.62l-1.67,1.19c-0.66,-0.48 -1.24,-1.06 -1.72,-1.72l1.19,-1.67c-0.27,-0.46 -0.48,-0.97 -0.62,-1.5l-2.03,-0.34c-0.06,-0.39 -0.1,-0.8 -0.1,-1.21c0,-0.41 0.04,-0.81 0.1,-1.21l2.03,-0.34c0.14,-0.53 0.35,-1.03 0.62,-1.5l-1.19,-1.67c0.48,-0.66 1.06,-1.24 1.72,-1.72l1.67,1.19c0.46,-0.27 0.97,-0.48 1.5,-0.62l0.34,-2.03c0.39,-0.06 0.8,-0.1 1.21,-0.1c0.41,0 0.81,0.04 1.21,0.1l0.34,2.03c0.53,0.14 1.03,0.35 1.5,0.62l1.67,-1.19c0.66,0.48 1.24,1.06 1.72,1.72l-1.19,1.67c0.27,0.46 0.48,0.97 0.62,1.5l2.03,0.34c0.06,0.39 0.1,0.8 0.1,1.21c0,0.41 -0.04,0.81 -0.1,1.21z" fill="#000000" stroke="none" stroke-width="0" opacity="0.25"/><path d="M245.87,181.55c-0.14,0.53 -0.35,1.03 -0.62,1.5l1.19,1.67c-0.48,0.66 -1.06,1.24 -1.72,1.72l-1.67,-1.19c-0.46,0.27 -0.97,0.48 -1.5,0.62l-0.34,2.03c-0.39,0.06 -0.8,0.1 -1.21,0.1c-0.41,0 -0.81,-0.04 -1.21,-0.1l-0.34,-2.03c-0.53,-0.14 -1.03,-0.35 -1.5,-0.62l-1.67,1.19c-0.66,-0.48 -1.24,-1.06 -1.72,-1.72l1.19,-1.67c-0.27,-0.46 -0.48,-0.97 -0.62,-1.5l-2.03,-0.34c-0.06,-0.39 -0.1,-0.8 -0.1,-1.21c0,-0.41 0.04,-0.81 0.1,-1.21l2.03,-0.34c0.14,-0.53 0.35,-1.03 0.62,-1.5l-1.19,-1.67c0.48,-0.66 1.06,-1.24 1.72,-1.72l1.67,1.19c0.46,-0.27 0.97,-0.48 1.5,-0.62l0.34,-2.03c0.39,-0.06 0.8,-0.1 1.21,-0.1c0.41,0 0.81,0.04 1.21,0.1l0.34,2.03c0.53,0.14 1.03,0.35 1.5,0.62l1.67,-1.19c0.66,0.48 1.24,1.06 1.72,1.72l-1.19,1.67c0.27,0.46 0.48,0.97 0.62,1.5l2.03,0.34c0.06,0.39 0.1,0.8 0.1,1.21c0,0.41 -0.04,0.81 -0.1,1.21z" fill="#cccccc" stroke="#000000" stroke-width="1.25"/><path d="M237.2,180c0,-1.5464 1.2536,-2.8 2.8,-2.8c1.5464,0 2.8,1.2536 2.8,2.8c0,1.5464 -1.2536,2.8 -2.8,2.8c-1.5464,0 -2.8,-1.2536 -2.8,-2.8z" fill="#606060" stroke="#000000" stroke-width="1.25"/><path d="M238.4,180c0,-0.88366 0.71634,-1.6 1.6,-1.6c0.88366,0 1.6,0.71634 1.6,1.6c0,0.88366 -0.71634,1.6 -1.6,1.6c-0.88366,0 -1.6,-0.71634 -1.6,-1.6z" fill="#777900" stroke="none" stroke-width="0"/></g></g></svg>