<svg version="1.1" xmlns="http://www.w3.org/2000/svg" xmlns:xlink="http://www.w3.org/1999/xlink" width="48" height="51" viewBox="0,0,48,51"><g transform="translate(-216,-154.5)"><g data-paper-data="{&quot;isPaintingLayer&quot;:true}" fill-rule="nonzero" stroke="none" stroke-width="1" stroke-linecap="butt" stroke-linejoin="miter" stroke-miterlimit="10" stroke-dasharray="" stroke-dashoffset="0" style="mix-blend-mode: normal"><path d="M216,181.5c0,-13.25483 10.74517,-24 24,-24c13.25483,0 24,10.74517 24,24c0,13.25483 -10.74517,24 -24,24c-13.25483,0 -24,-10.74517 -24,-24z" fill="#884283" opacity="0.98"/><path d="M216,178.5c0,-13.25483 10.74517,-24 24,-24c13.25483,0 24,10.74517 24,24c0,13.25483 -10.74517,24 -24,24c-13.25483,0 -24,-10.74517 -24,-24z" fill="#c680c3" opacity="0.98"/><path d="M228.21064,167.45227c0.49821,-0.68622 1.45703,-0.83662 2.1409,-0.33841l24.65909,17.9779c0.68387,0.49821 0.83427,1.45703 0.33606,2.14325c-0.49821,0.68387 -1.45703,0.83662 -2.1409,0.33841l-24.65674,-17.9779c-0.68387,-0.49821 -0.83662,-1.45703 -0.33841,-2.14325zM247.64322,169.68717l-6.67885,1.91764l-5.64247,-4.11259l14.18726,-3.23132v13.5739l-1.86594,-1.36068zM235.30075,188.35833c0.00705,0.0752 0.01175,0.1504 0.01175,0.2256v0.00235c0,1.82364 -1.91294,3.63318 -4.27474,4.04209c-2.35945,0.40656 -4.27474,-0.74262 -4.27474,-2.56626c0,-1.82364 1.91529,-3.63318 4.27474,-4.03974c0.88832,-0.15275 1.71319,-0.0846 2.3994,0.1551v-9.77152l1.86359,1.35833zM245.98174,188.77664c-1.97169,0.34076 -3.56973,-0.61806 -3.56973,-2.14325c-0.00235,-0.94707 0.61571,-1.88944 1.55573,-2.54746l4.6202,3.36762c-0.65096,0.65096 -1.57688,1.14683 -2.60621,1.32308z" fill="#ffffff"/></g></g></svg>