<svg viewBox="0 0 32 32" height="32" width="32" xmlns="http://www.w3.org/2000/svg" id="a"><metadata></metadata><path stroke-width="0" opacity=".25" d="M23.23,23c.25-.31.49-.64.7-1s.37-.73.52-1.1l-1.59-1.31c.14-.53.22-1.07.21-1.61l1.87-.85c-.09-.81-.3-1.6-.63-2.35l-2.04.2c-.27-.47-.6-.9-.99-1.29l.72-1.92c-.31-.25-.64-.49-1-.7s-.73-.37-1.1-.52l-1.31,1.59c-.53-.14-1.07-.22-1.61-.21l-.85-1.87c-.81.09-1.6.3-2.35.63l.2,2.04c-.47.27-.9.6-1.29.99l-1.92-.72c-.25.31-.49.64-.7,1s-.37.73-.52,1.1l1.59,1.31c-.14.53-.22,1.07-.21,1.61l-1.87.85c.09.81.3,1.6.63,2.35l2.04-.2c.27.47.6.9.99,1.29l-.72,1.92c.31.25.64.49,1,.7s.73.37,1.1.52l1.31-1.59c.53.14,1.07.22,1.61.21l.85,1.87c.81-.09,1.6-.3,2.35-.63l-.2-2.04c.47-.27.9-.6,1.29-.99l1.92.72Z"></path><path stroke-width="1.25" stroke="#000" fill="#ccc" d="M22.23,21c.25-.31.49-.64.7-1s.37-.73.52-1.1l-1.59-1.31c.14-.53.22-1.07.21-1.61l1.87-.85c-.09-.81-.3-1.6-.63-2.35l-2.04.2c-.27-.47-.6-.9-.99-1.29l.72-1.92c-.31-.25-.64-.49-1-.7s-.73-.37-1.1-.52l-1.31,1.59c-.53-.14-1.07-.22-1.61-.21l-.85-1.87c-.81.09-1.6.3-2.35.63l.2,2.04c-.47.27-.9.6-1.29.99l-1.92-.72c-.25.31-.49.64-.7,1s-.37.73-.52,1.1l1.59,1.31c-.14.53-.22,1.07-.21,1.61l-1.87.85c.09.81.3,1.6.63,2.35l2.04-.2c.27.47.6.9.99,1.29l-.72,1.92c.31.25.64.49,1,.7s.73.37,1.1.52l1.31-1.59c.53.14,1.07.22,1.61.21l.85,1.87c.81-.09,1.6-.3,2.35-.63l-.2-2.04c.47-.27.9-.6,1.29-.99l1.92.72Z"></path><circle stroke-width="1.25" stroke="#000" fill="#606060" r="2.8" cy="16" cx="16"></circle><circle stroke-width="0" fill="#f9ff00" r="1.6" cy="16" cx="16"></circle></svg>