<svg version="1.1" xmlns="http://www.w3.org/2000/svg" xmlns:xlink="http://www.w3.org/1999/xlink" width="48" height="51" viewBox="0,0,48,51"><g transform="translate(-216,-154.5)"><g data-paper-data="{&quot;isPaintingLayer&quot;:true}" stroke="none" stroke-width="1" stroke-linecap="butt" stroke-linejoin="miter" stroke-miterlimit="10" stroke-dasharray="" stroke-dashoffset="0" style="mix-blend-mode: normal"><path d="M216,181.5c0,-13.25483 10.74517,-24 24,-24c13.25483,0 24,10.74517 24,24c0,13.25483 -10.74517,24 -24,24c-13.25483,0 -24,-10.74517 -24,-24z" fill="#96008c" fill-rule="nonzero" opacity="0.98"/><path d="M216,178.5c0,-13.25483 10.74517,-24 24,-24c13.25483,0 24,10.74517 24,24c0,13.25483 -10.74517,24 -24,24c-13.25483,0 -24,-10.74517 -24,-24z" fill="#e000d9" fill-rule="nonzero" opacity="0.98"/><path d="M248.21046,182.285v-12.36014l-13.07835,3.75554v14.35259c0.00695,0.07877 0.01158,0.15986 0.01158,0.23863v0.00232c0,1.93221 -2.0272,3.85052 -4.52935,4.28377c-2.49983,0.43093 -4.52935,-0.7854 -4.52935,-2.71993c0,-1.93221 2.02952,-3.85052 4.52935,-4.28145c0.94062,-0.16218 1.81637,-0.09036 2.54153,0.16449v-17.66793h0.10889l16.92424,-3.87833v19.90596c0.03012,0.14596 0.04634,0.29423 0.04634,0.44251c0,0 0,0 0,0.00232c0,1.61481 -1.6959,3.21804 -3.78334,3.57714c-2.08976,0.36142 -3.78334,-0.65565 -3.78334,-2.27047c-0.00232,-1.61481 1.69127,-3.21804 3.78102,-3.57714c0.6348,-0.11121 1.23486,-0.09267 1.76077,0.03012z" fill="#ffffff" fill-rule="evenodd"/></g></g></svg>