<svg viewBox="0 0 32 32" height="32" width="32" xmlns="http://www.w3.org/2000/svg" id="a"><metadata></metadata><path stroke-width="0" opacity=".25" d="M24.31,21.22c.16-.37.31-.75.41-1.15s.17-.8.22-1.2l-1.87-.85c0-.55-.07-1.09-.21-1.61l1.59-1.31c-.3-.76-.71-1.47-1.21-2.1l-1.92.72c-.38-.38-.81-.72-1.29-.99l.2-2.04c-.37-.16-.75-.31-1.15-.41s-.8-.17-1.2-.22l-.85,1.87c-.55,0-1.09.07-1.61.21l-1.31-1.59c-.76.3-1.47.71-2.1,1.21l.72,1.92c-.38.38-.72.81-.99,1.29l-2.04-.2c-.16.37-.31.75-.41,1.15s-.17.8-.22,1.2l1.87.85c0,.55.07,1.09.21,1.61l-1.59,1.31c.3.76.71,1.47,1.21,2.1l1.92-.72c.38.38.81.72,1.29.99l-.2,2.04c.37.16.75.31,1.15.41s.8.17,1.2.22l.85-1.87c.55,0,1.09-.07,1.61-.21l1.31,1.59c.76-.3,1.47-.71,2.1-1.21l-.72-1.92c.38-.38.72-.81.99-1.29l2.04.2Z"></path><path stroke-width="1.25" stroke="#000" fill="#ccc" d="M23.31,19.22c.16-.37.31-.75.41-1.15s.17-.8.22-1.2l-1.87-.85c0-.55-.07-1.09-.21-1.61l1.59-1.31c-.3-.76-.71-1.47-1.21-2.1l-1.92.72c-.38-.38-.81-.72-1.29-.99l.2-2.04c-.37-.16-.75-.31-1.15-.41s-.8-.17-1.2-.22l-.85,1.87c-.55,0-1.09.07-1.61.21l-1.31-1.59c-.76.3-1.47.71-2.1,1.21l.72,1.92c-.38.38-.72.81-.99,1.29l-2.04-.2c-.16.37-.31.75-.41,1.15s-.17.8-.22,1.2l1.87.85c0,.55.07,1.09.21,1.61l-1.59,1.31c.3.76.71,1.47,1.21,2.1l1.92-.72c.38.38.81.72,1.29.99l-.2,2.04c.37.16.75.31,1.15.41s.8.17,1.2.22l.85-1.87c.55,0,1.09-.07,1.61-.21l1.31,1.59c.76-.3,1.47-.71,2.1-1.21l-.72-1.92c.38-.38.72-.81.99-1.29l2.04.2Z"></path><circle stroke-width="1.25" stroke="#000" fill="#606060" r="2.8" cy="16" cx="16"></circle><circle stroke-width="0" fill="#f9ff00" r="1.6" cy="16" cx="16"></circle></svg>