<svg version="1.1" xmlns="http://www.w3.org/2000/svg" xmlns:xlink="http://www.w3.org/1999/xlink" width="48" height="51" viewBox="0,0,48,51"><g transform="translate(-216,-154.5)"><g data-paper-data="{&quot;isPaintingLayer&quot;:true}" fill-rule="nonzero" stroke="none" stroke-linecap="butt" stroke-linejoin="miter" stroke-miterlimit="10" stroke-dasharray="" stroke-dashoffset="0" style="mix-blend-mode: normal"><path d="M216,181.5c0,-13.25483 10.74517,-24 24,-24c13.25483,0 24,10.74517 24,24c0,13.25483 -10.74517,24 -24,24c-13.25483,0 -24,-10.74517 -24,-24z" fill="#960000" stroke-width="1" opacity="0.98"/><path d="M216,178.5c0,-13.25483 10.74517,-24 24,-24c13.25483,0 24,10.74517 24,24c0,13.25483 -10.74517,24 -24,24c-13.25483,0 -24,-10.74517 -24,-24z" fill="#e10000" stroke-width="1" opacity="0.98"/><path d="M238.97201,187.78293c0.03237,0.76523 -0.32371,1.33085 -1.03587,1.59702c-0.71216,0.26617 -1.35958,0.13309 -1.87752,-0.39925l-8.51359,-8.7503c-0.32371,-0.33271 -0.48557,-0.76523 -0.48557,-1.23103c0,-0.46579 0.16185,-0.89832 0.48557,-1.23104l8.51359,-8.75029c0.55031,-0.56561 1.16536,-0.66543 1.90989,-0.36599c0.67979,0.29944 1.06824,0.83178 1.0035,1.63029" fill="#ffffff" stroke-width="1"/><path d="M236.11471,182.4477v-6.60656h16.82583v6.60656z" fill="#ffffff" stroke-width="0"/></g></g></svg>